<?xml version="1.0" encoding="utf-8"?>
<!-- Generator: Adobe Illustrator 26.3.1, SVG Export Plug-In . SVG Version: 6.00 Build 0)  -->
<svg version="1.1" id="Ebene_1" xmlns="http://www.w3.org/2000/svg" xmlns:xlink="http://www.w3.org/1999/xlink" x="0px" y="0px"
	 viewBox="0 0 768 1024" style="enable-background:new 0 0 768 1024;" xml:space="preserve">
<style type="text/css">
	.st0{fill:url(#SVGID_1_);}
	.st1{fill:url(#SVGID_00000113338775057590968790000002813821869839389355_);}
	.st2{fill:url(#SVGID_00000152238467787993090690000016997564967213760920_);}
	.st3{fill:url(#SVGID_00000057115155627795789780000001758651915087726764_);}
	.st4{fill:url(#SVGID_00000177481368608263949610000011346650651478149532_);}
	.st5{fill:url(#SVGID_00000134242491981267503720000009407345338339984534_);}
	.st6{fill:url(#SVGID_00000073700407474841623380000008926898144959431606_);}
	.st7{fill:url(#SVGID_00000088106981787834479100000017524965662812809101_);}
	.st8{fill:url(#SVGID_00000152244216673939736990000006275729644253420982_);}
	.st9{fill:url(#SVGID_00000016052799163468135410000005374808797482007176_);}
	.st10{fill:url(#SVGID_00000178901279879376593210000012191008418983906699_);}
	.st11{fill:url(#SVGID_00000055703730658408800020000015695079275156658074_);}
	.st12{fill:url(#SVGID_00000129884122759199910340000017031719094972562310_);}
	.st13{fill:url(#SVGID_00000183231635025777342440000014524706854947404714_);}
	.st14{fill:url(#SVGID_00000081646649018450941220000006021836747928763064_);}
	.st15{fill:#808080;}
	.st16{fill:#4D4D4D;}
	.st17{fill:#E6E6E6;}
	.st18{fill:#666666;}
</style>
<g>
	<path d="M369.89,13c3.45,0.2,6.9,0.46,10.35,0.6c8.7,0.35,17.44,0.22,26.08,1.05c10.37,1,20.68,2.66,30.97,4.27
		c6.14,0.96,12.18,2.47,18.3,3.52c3.46,0.59,5.45,2.47,5.72,5.51c0.46,5.33,0.71,10.69,0.64,16.03c-0.1,6.78-0.67,13.56-0.9,20.34
		c-0.06,1.7-0.98,2.43-2.45,2.9c-1.35,0.44-2,1.11-1.99,2.65c0.07,10.52-0.01,21.05-0.02,31.57c-0.03,26.42-0.04,52.84-0.1,79.27
		c0,1.33,0.36,2.07,1.68,2.86c3.28,1.95,3.93,5.25,3.98,8.58c0.07,4.82-0.12,9.64-0.09,14.46c0.03,5.23,0.09,10.46,0.29,15.68
		c0.19,5.05-2.34,8.71-6.47,11.55c-1.06,0.73-1.51,1.38-1.49,2.61c0.31,18.87,0.57,37.75,0.84,56.62c0.13,9.1,0.29,18.19,0.4,27.29
		c0.01,1.14,0.3,1.92,1.22,2.8c2.65,2.54,3.08,5.95,3.18,9.28c0.27,8.89,0.48,17.78,0.49,26.68c0,3.91-0.37,7.84-0.94,11.72
		c-0.21,1.43-1.21,2.97-2.32,4c-1.21,1.13-1.57,2.21-1.57,3.72c0.04,27.03,0.04,54.07,0,81.1c0,1.39,0.31,2.15,1.75,2.97
		c3.37,1.92,4.67,5.28,4.73,8.73c0.23,13.17,0.18,26.34,0.29,39.51c0.02,2.03-0.93,3.38-2.84,4.12c-1.21,0.46-1.53,1.16-1.53,2.33
		c0.03,29.96,0.01,59.91,0.05,89.87c0,0.81,0.21,1.86,0.77,2.39c2.81,2.66,3.74,5.99,3.79,9.49c0.07,5.9-0.17,11.8-0.27,17.7
		c-0.06,3.67-0.18,7.33-0.14,11c0.03,2.91-1.1,5.33-3.3,7.27c-2.05,1.81-4.32,3.41-6.37,5.23c-0.69,0.61-1.41,1.62-1.4,2.44
		c0.24,12.15,0.64,24.29,0.86,36.43c0.02,1.16-0.67,2.48-1.4,3.48c-9.7,13.19-22.39,22.23-39.69,24.84
		c-2.72,0.41-5.39,1.06-8.08,1.59c-0.21,0.04-0.41,0.11-0.87,0.24c0.74,35.7,1.48,71.44,2.21,106.84
		c5.79,2.02,11.47,3.67,16.85,5.94c12.35,5.2,23.43,12.21,32.79,21.44c4.6,4.54,6.6,9.99,6.67,16.28
		c0.12,10.79,0.56,21.58,0.89,32.37c0.32,10.62,0.67,21.23,1.01,31.85c0.2,6.45,0.44,12.89,0.54,19.34
		c0.01,0.75-0.58,1.79-1.24,2.21c-3.66,2.33-7.39,4.56-11.17,6.71c-1.2,0.68-1.81,1.37-1.66,2.73c0.18,1.61,0.24,3.25,0.17,4.87
		c-0.02,0.57-0.42,1.29-0.9,1.67c-15.75,12.44-33.3,21.57-54.01,24.12c-14.16,1.75-28.38,1.24-42.49-1.1
		c-1.36-0.23-2.2-0.57-2.06-2.18c0.33-3.76-2.6-7.27-6.7-8.33c-3.7-0.96-7.7,0.84-9.58,4.31c-0.29,0.53-0.55,1.08-0.93,1.81
		c-0.8-0.32-1.6-0.48-2.19-0.91c-6.65-4.76-15.58-3.85-21.24,1.46c-0.1,0.09-0.25,0.12-0.48,0.23c-3.54-3.51-7.1-7.04-10.66-10.57
		c-7.02-6.96-14.07-13.9-21.02-20.93c-0.79-0.79-1.38-2.1-1.38-3.17c-0.08-22.96-0.07-45.91-0.05-68.87
		c0-6.11,0.03-12.21,0.16-18.32c0.1-4.97,2.63-8.94,6.22-12.41c10.69-10.33,23.37-18.03,37.13-24.2c5.61-2.52,11.45-4.58,17.01-6.78
		c0-5.32,0.08-10.74-0.02-16.15c-0.28-15.14-0.62-30.27-0.97-45.41c-0.33-14.39-0.73-28.77-0.97-43.16
		c-0.04-2.08-1.27-2.32-2.89-2.68c-16.68-3.69-31.64-10.44-44.32-21.42c-2.84-2.46-4.21-4.93-4.13-8.72
		c0.29-13.38,0.09-26.76,0.14-40.14c0.01-1.49-0.3-2.44-1.86-3.22c-5.4-2.7-8.91-6.67-8.86-12.74c0.06-7.94-0.03-15.88,0.25-23.81
		c0.13-3.55,1.85-6.64,4.91-8.98c0.48-0.37,0.73-1.26,0.71-1.91c-0.32-13.91-0.71-27.83-1.07-41.74
		c-0.25-9.98-0.47-19.95-0.72-29.93c-0.18-6.99-0.37-13.98-0.62-20.97c-0.02-0.58-0.37-1.41-0.85-1.69
		c-3.13-1.79-4.5-4.59-4.42-7.74c0.23-9.83,0.57-19.66,1.25-29.47c0.24-3.53,2.06-6.64,5.95-7.71c0-6.11,0.07-12.21-0.02-18.31
		c-0.12-7.6-0.37-15.2-0.57-22.8c-0.44-17.37-0.86-34.74-1.36-52.11c-0.02-0.74-0.56-1.72-1.19-2.14c-2.54-1.69-3.66-4.02-3.75-6.79
		c-0.33-11.05-0.68-22.11-0.81-33.16c-0.03-2.46,0.47-5.07,1.4-7.36c0.78-1.92,2.26-3.81,3.97-5.11c1.31-1,1.71-1.73,1.65-3.23
		c-0.56-13.7-1-27.41-1.51-41.11c-0.56-15.27-1.14-30.53-1.8-45.79c-0.03-0.69-0.89-1.64-1.62-1.96c-4.33-1.92-7.72-4.57-8.83-9.17
		c-0.16-0.66-0.28-1.33-0.29-2c-0.14-8.48-0.4-16.97-0.31-25.45c0.04-3.63,0.65-7.29,1.28-10.89c0.35-1.96,1.53-3.6,3.59-4.62
		c0.52-0.26,0.83-1.31,0.83-1.99c-0.02-10.25-0.09-20.51-0.17-30.76c-0.13-15.28-0.29-30.56-0.43-45.84
		c-0.07-7.6-0.17-15.21-0.18-22.81c0-1.23-0.43-1.76-1.7-2.12c-7.36-2.05-7.8-2.51-8.14-9.74c-0.38-8.14-0.59-16.28-0.87-24.42
		c-0.02-0.61,0.04-1.22,0.02-1.83c-0.23-5.52,2.39-8.62,7.96-11.1c16.01-7.13,33.05-9.39,50.34-10.87
		c7.8-0.67,15.64-0.87,23.46-1.31c0.48-0.03,0.95-0.22,1.42-0.33C349.85,13,359.87,13,369.89,13z M268.75,73.68
		c0,0.92-0.01,1.72,0,2.51c0.14,14.6,0.3,29.2,0.43,43.8c0.18,20.24,0.37,40.47,0.46,60.71c0.01,1.88,0.66,3.16,2.04,4.39
		c5.76,5.12,12.67,8.31,20.15,10.51c8.76,2.58,17.83,3.61,26.89,4.68c15.27,1.81,30.59,3.29,45.98,3.18
		c11.82-0.09,23.65-0.57,35.43-1.46c12.36-0.93,24.57-3.03,36.37-6.8c5.86-1.87,11.44-4.27,16.37-7.86
		c1.38-1.01,2.11-2.15,2.09-3.95c-0.08-6.93,0.08-13.85,0.1-20.78c0.06-17.79,0.11-35.59,0.14-53.38c0.02-12.77,0.01-25.54,0-38.31
		c0-0.64-0.08-1.27-0.14-2.06c-2.3,0.87-4.37,1.67-6.46,2.43c-18.61,6.73-38.1,9.45-57.85,10.45c-17.24,0.87-34.52,1.3-51.78,1.27
		c-18.6-0.04-37.06-2.02-55.25-5.85C278.8,76.12,273.91,74.89,268.75,73.68z M456.65,516.54c-9.88,2.61-19.61,5.02-29.23,7.74
		c-27.15,7.68-54.84,9.16-82.92,6.66c-17.57-1.56-34.51-5.72-51.23-10.78c-5.42-1.64-10.75-3.51-16.2-5.3c0,0.58-0.02,1.25,0,1.91
		c0.42,15.68,0.85,31.35,1.25,47.03c0.4,15.75,0.86,31.49,1.1,47.24c0.05,3.04,1.11,5.22,3.29,7.42
		c6.81,6.89,13.88,13.35,23.68,16.41c5.64,1.76,11.23,3.64,16.92,5.22c12.81,3.55,25.88,5.58,39.28,4.68
		c9.33-0.63,18.63-1.64,27.94-2.48c13.78-1.24,27.22-3.82,40.02-8.92c9.51-3.79,18.44-8.35,24.83-16.26
		c0.72-0.89,1.21-2.18,1.21-3.28c0.06-31.72,0.05-63.44,0.05-95.16C456.65,517.94,456.65,517.22,456.65,516.54z M277.06,374.81
		c0,0.68-0.01,1.15,0,1.62c0.52,21.31,1.03,42.62,1.57,63.92c0.31,12.35,0.69,24.7,0.99,37.05c0.03,1.12,0.32,1.81,1.42,2.44
		c10.94,6.28,22.54,11.17,34.86,14.52c29.48,8.02,59.12,7.84,88.79,1.06c17.35-3.97,33.48-10.59,48.05-20.35
		c0.74-0.5,1.55-1.52,1.55-2.29c0.08-31.11,0.06-62.21,0.05-93.32c0-0.71-0.07-1.41-0.11-2.17c-0.42,0.08-0.65,0.08-0.83,0.16
		c-13.91,5.92-28.6,9.21-43.63,11.27c-20.77,2.85-41.66,2.72-62.56,1.88c-11.82-0.48-23.59-1.46-35.11-4.23
		C300.14,383.5,288.52,379.78,277.06,374.81z M453.17,235.48c-5.65,0.95-10.9,1.94-16.18,2.69c-14.04,2.01-28.05,4.41-42.16,5.75
		c-19.73,1.87-39.54,2.03-59.34,0.26c-16.82-1.5-33.24-4.64-49.05-10.31c-3.77-1.35-7.51-2.79-11.04-4.1c0,4.36-0.13,8.69,0.02,13
		c0.65,18.25,1.38,36.49,2.09,54.74c0.41,10.65,0.8,21.3,1.32,31.94c0.05,0.98,0.73,2.18,1.54,2.85
		c6.15,5.08,13.45,8.22,21.19,10.47c29.85,8.69,60.32,11.11,91.39,8.25c22.27-2.05,42.55-8.63,60.16-21.77
		c0.64-0.48,1.18-1.49,1.18-2.26c0.02-4.07-0.17-8.14-0.23-12.21c-0.3-21.45-0.6-42.9-0.87-64.35
		C453.12,245.48,453.17,240.54,453.17,235.48z M335.4,729.26c0,0.64-0.01,1.1,0,1.56c0.3,13.78,0.61,27.55,0.91,41.33
		c0.23,10.79,0.44,21.58,0.7,32.37c0.49,21.17,1.05,42.34,1.5,63.51c0.15,7.17,0.07,7.2,6.95,10.5c0.52,0.25,1.05,0.46,1.59,0.67
		c10.41,4.03,21.16,4.31,32.06,2.46c9.02-1.54,16.91-5.2,23.06-11.71c0.72-0.76,1.23-2.02,1.22-3.03
		c-0.18-9.9-0.54-19.79-0.75-29.69c-0.2-9.16-0.26-18.31-0.43-27.47c-0.42-21.99-0.88-43.98-1.29-65.97
		c-0.09-4.72-0.01-9.45-0.01-14.4c-11.28,1.69-22.04,2.3-32.86,2.25C357.15,731.6,346.32,731.05,335.4,729.26z M449.71,662.19
		c-26.44,12.94-54.66,14.86-83.39,14.61c-29.14-0.25-56.36-7.14-82.17-20.38c0,0.99,0,1.33,0,1.66c0,14.19-0.03,28.39,0.05,42.58
		c0.01,1,0.63,2.23,1.4,2.97c11.49,11.12,25.56,18.06,41.33,22.29c13.69,3.67,27.74,4.19,41.82,4.32
		c15.06,0.14,29.88-1.62,44.63-4.68c15.76-3.27,27.04-11.87,36.08-23.73c0.63-0.83,1.12-1.96,1.12-2.95
		c-0.01-5.16-0.19-10.31-0.32-15.47C450.08,676.42,449.9,669.43,449.71,662.19z M452.79,891.52c7.14-8.17,8.87-18.29,0.28-26.66
		c-12.81-12.48-28.09-21.3-45.93-26.11c-0.86-0.23-1.77-0.34-2.82-0.53c0,1.32-0.02,2.4,0,3.48c0.16,7.67,0.3,15.34,0.51,23.01
		c0.03,1.11,0.37,2.21,0.63,3.67c-2.98,4.39-9.42,9.24-16.19,11.88c-10.35,4.02-21.11,4.59-32.06,3.11
		c-6.78-0.92-13.03-3.17-18.44-7.19c-0.71-0.53-1.49-1.45-1.52-2.21c-0.27-8.21-0.41-16.42-0.54-24.64
		c-0.06-3.9-0.01-7.81-0.01-11.98c-1.12,0.3-1.61,0.4-2.07,0.55c-15.11,4.97-29.03,11.97-41.65,21.22
		c-4.63,3.39-9.15,6.88-12.61,11.43c-4.33,5.69-4.76,13.2-0.35,18.82c2.95,3.77,5.88,7.62,9.35,10.96
		c13.9,13.37,31.4,19.81,50.77,22.37c18.39,2.43,36.64,1.21,54.69-2.52c18.34-3.79,35.41-10.32,50.26-21.38
		c0.64-0.48,1.27-0.98,1.81-1.41c-3.06,0.29-6.06,0.8-9.05,0.78c-3.36-0.02-6.25-1.35-7.82-4.35c-1.61-3.07-1.12-6.08,0.87-8.87
		c1.84-2.59,4.66-3.84,7.76-4.51C446.62,878.73,453.28,883.87,452.79,891.52z M312.25,936.48c-1.16,20.65-2.32,41.33-3.5,62.41
		c7.31-5.09,14.55-5.32,22.13-1.09c-0.17-3.04-0.31-5.75-0.46-8.46s-0.29-5.42-0.46-8.14c-0.15-2.34,0.22-2.74,2.79-2.59
		c5.41,0.31,10.64,1.38,15.53,3.61c5.26,2.4,4.31,1.04,4,6.4c-0.28,4.73-0.73,9.45-1.12,14.32c0.85,0.17,1.6,0.39,2.37,0.47
		c4.46,0.48,8.92,1.09,13.4,1.35c9.79,0.58,19.67,0.9,29.33-0.72c18.9-3.17,35.48-11.14,50.05-22.78c0.64-0.52,1.05-1.58,1.1-2.41
		c0.25-4.54,0.17-9.1,0.56-13.63c0.28-3.22,0.93-6.45,1.79-9.58c0.56-2.05,3.2-3.34,5.1-3.03c1.89,0.31,2.98,1.59,3.08,4.11
		c0.13,3.02,0.03,6.05,0.03,9.44c1.7-1.22,3.8-1.26,3.7-3.75c-0.46-12.48-0.78-24.97-1.16-37.45c-0.09-2.93-0.24-5.87-0.36-8.79
		C414.88,948.98,365.91,956.09,312.25,936.48z M258.95,30.66c-0.27,1.46-0.77,2.96-0.77,4.46c0,4.72,0.1,9.44,0.32,14.15
		c0.26,5.56,0.69,11.11,1.02,16.66c0.17,2.85,0.75,3.59,3.7,4.49c20.18,6.13,40.95,9.48,62.07,10.53c14.1,0.7,28.27,0.62,42.4,0.53
		c17.06-0.1,34.05-1.3,50.88-4.08c13.26-2.19,26.11-5.56,38.34-10.93c1.84-0.81,2.66-1.87,2.67-3.71c0.01-1.83,0.27-3.66,0.32-5.49
		c0.22-8.13,0.48-16.27,0.54-24.41c0.01-2.09-0.67-4.19-0.97-5.94c-7.88,2.92-15.3,6.05-22.97,8.44
		c-19.46,6.09-39.67,8.07-60.04,7.87c-17.61-0.17-35.22-1.14-52.81-2.13c-14.7-0.83-29.28-2.81-43.68-5.74
		C273.06,33.99,266.21,32.31,258.95,30.66z M457.17,184.59c-0.74,0.97-1.24,1.88-1.98,2.55c-4.38,3.91-9.68,6.43-15.23,8.48
		c-13.78,5.09-28.33,6.75-42.92,8.09c-14.46,1.32-28.96,1.55-43.48,0.95c-18.87-0.78-37.61-2.67-56.1-6.29
		c-10.42-2.04-20.08-5.77-27.74-13.12c-1.06-1.02-1.55-2-1.43-3.4c0.12-1.36,0.03-2.73,0.03-4.1c-0.38-0.09-0.76-0.17-1.14-0.26
		c-0.76,1.52-2.02,2.99-2.18,4.56c-0.56,5.31-0.9,10.66-1,16c-0.12,6.17,0.03,12.34,0.19,18.51c0.13,5.05,3.48,8.05,7.97,10.06
		c17.79,7.96,36.48,13.11,56.05,15.43c16.46,1.94,32.97,2.29,49.53,1.64c17.06-0.67,33.96-2.61,50.75-5.48
		c7.55-1.3,15.16-2.39,22.65-3.95c6.7-1.4,10.33-6.63,9.73-13.04c-0.18-1.89-0.27-3.79-0.28-5.69c-0.03-7.54,0.02-15.08-0.03-22.62
		c-0.01-1.55-0.16-3.13-0.55-4.63C459.58,186.61,458.76,185.08,457.17,184.59z M456.6,324.51c-0.3,0.06-0.59,0.11-0.89,0.17
		c0.02,2.22,0.26,4.38-2.02,6.02c-14.46,10.41-30.58,17.28-48.59,20.17c-14.64,2.35-29.4,3.06-44.23,2.52
		c-19.56-0.72-38.82-3.34-57.59-8.65c-9.01-2.55-17.58-5.97-24.73-11.95c-0.9-0.76-1.44-1.42-1.34-2.73
		c0.21-2.93,0.07-5.89,0.07-9.03c-2.57,0.9-3.89,1.91-4.42,4.41c-0.86,4.03-1.7,8.15-1.77,12.24c-0.14,8.21,0.42,16.42,0.35,24.63
		c-0.05,5.93,2.87,9.74,8.41,12.08c2.64,1.12,5.29,2.22,7.99,3.19c13.15,4.74,26.52,8.88,40.6,10.14
		c11.62,1.03,23.3,1.55,34.97,1.87c19.11,0.52,38.16-0.31,56.93-4.1c10.84-2.18,21.57-4.7,31.76-8.97c4.55-1.9,6.7-4.98,6.71-9.5
		c0.02-9.64,0.04-19.27-0.02-28.91c-0.02-2.57-0.13-5.17-0.52-7.71C457.96,328.41,457.17,326.47,456.6,324.51z M277.8,469.39
		c-3.36,1.49-4.81,4.1-4.99,7.05c-0.59,9.48-0.97,18.97-1.25,28.47c-0.1,3.37,1.68,5.98,4.98,7.54c1.68,0.79,3.35,1.63,5.1,2.28
		c24.22,9.07,49.33,14.46,75.42,15.67c16.73,0.77,33.4,0.3,49.81-3.03c10.11-2.05,20.1-4.67,30.09-7.2
		c6.84-1.74,13.61-3.74,20.39-5.68c2.21-0.63,3.74-1.73,3.71-4.33c-0.15-12.36-0.04-24.72-0.29-37.07
		c-0.05-2.41-1.09-4.87-2.02-7.18c-0.41-1.02-1.67-1.75-2.55-2.61c-0.49,3.08-0.49,5.8-0.49,8.51c0,0.27-0.09,0.65,0.06,0.8
		c1.64,1.55,0.09,2.11-0.97,2.84c-9.83,6.74-20.48,12.07-31.87,16.08c-26.71,9.4-54.23,12.39-82.55,9.01
		c-21.96-2.62-42.44-9.15-61.25-20.16c-0.64-0.38-1.24-0.83-1.33-0.89C277.8,475.83,277.8,472.74,277.8,469.39z M458.09,611.48
		c0,0.6-0.09,1.21,0.02,1.79c0.4,2.21-0.46,4.02-2.12,5.48c-3.26,2.87-6.32,6.05-9.97,8.42c-11.31,7.35-24.09,11.6-37.54,13.82
		c-11.2,1.85-22.51,3.16-33.81,4.37c-15.01,1.61-30.01,1.56-44.68-2.31c-8.77-2.31-17.5-4.84-26.09-7.67
		c-9.26-3.05-15.86-9.55-22.34-16.11c-2.07-2.1-4.13-4.06-3.48-7.25c0.07-0.34-0.14-0.73-0.24-1.16c-2.64,1.95-4.09,4.84-4.19,9.1
		c-0.17,6.99-0.12,13.97-0.24,20.96c-0.1,5.56,2.52,9.45,7.58,12.35c7.84,4.49,16.36,7.53,24.74,10.9
		c12.89,5.18,26.25,8.51,40.19,9.9c14.96,1.49,29.95,1.8,44.97,0.88c13.35-0.81,26.52-2.58,39.26-6.56
		c8.75-2.74,17.27-5.98,24.64-11.37c3.96-2.9,6.73-6.38,5.97-11.46c-0.08-0.53,0.04-1.08,0.05-1.63c0.18-8.07,0.44-16.14,0.48-24.22
		C461.29,616.74,460.72,613.78,458.09,611.48z M458.17,25.41c-0.02-0.18-0.03-0.37-0.05-0.55c-0.91-0.31-1.79-0.71-2.73-0.91
		c-20.93-4.54-41.98-8.25-63.58-8.54c-12.62-0.17-25.23-1.08-37.85-1.02c-17.78,0.08-35.55,0.88-53.18,3.15
		c-12.16,1.56-24.14,3.88-35.14,9.36c-1.6,0.8-3.3,1.41-4.95,2.1c3.63,1.39,7.16,2.33,10.73,3.15c19.85,4.53,40.04,6.95,60.4,8.25
		c22.89,1.46,45.79,2.48,68.7,0.35c17.13-1.6,33.75-5.07,49.53-11.65C452.79,27.95,455.46,26.64,458.17,25.41z M459.69,885.02
		c-0.3,0-0.59,0-0.89-0.01c-1.99,4.71-5.02,8.76-9.11,12.02c-7.59,6.06-15.79,11.27-24.89,15.2c-14.62,6.31-29.95,10.16-45.91,11.88
		c-17.21,1.85-34.34,1.79-51.23-2.27c-19.25-4.62-35.42-13.69-47.06-29.11c-1.14-1.51-2.2-3.08-3.29-4.63
		c-0.43,8.15-0.47,16.21-0.37,24.28c0.01,0.71,0.74,1.59,1.4,2.1c32.62,25.27,69.88,35.67,111.89,29.83
		c25.86-3.6,48.7-13.74,68.68-29.51c0.64-0.51,1.12-1.57,1.11-2.38c-0.01-4.21-0.25-8.41-0.31-12.62
		C459.64,894.88,459.69,889.95,459.69,885.02z M308.22,961c-0.22-6.63-0.16-13.31-2.76-19.64c-3.1-7.52-7.96-13.56-16.45-16.24
		c-1.51-0.48-3.48-0.41-5.01,0.07c-4.59,1.44-6.95,4.88-6.84,9.19c0.22,8.19,1.24,16.36,1.47,24.55c0.22,7.89,3.5,14.15,9.51,19.55
		c2.72,2.45,5.38,4.21,9.18,3.25c4.13-1.05,7.49-2.99,9.09-7.09C308.15,970.18,308.38,965.63,308.22,961z M332.33,996.96
		c2.61-3.04,5.3-4.7,8.96-4.55c3.62,0.15,6.2,2.15,8.78,4.75c0.37-4.28,0.7-8.1,1.03-12.05c-6.04-3.12-12.46-5.03-19.71-5.06
		C331.71,985.69,332.01,991.08,332.33,996.96z M439.25,896.99c3.11,0.01,7.06-1.11,9.4-2.68c1.61-1.07,2.71-2.43,2.74-4.37
		c0.06-3.78-4.46-8.38-8.47-8.48c-1.27-0.03-2.54,0.38-3.83,0.47c-4.61,0.32-8.63,4.36-8.45,8.54
		C430.83,894.4,434.21,896.97,439.25,896.99z M292.53,983.06c5.1,5.05,9.75,9.66,14.84,14.71c0.49-8.66,0.95-16.73,1.4-24.8
		c-1.14,3.17-2.53,6.07-5.76,7.89C299.95,982.59,296.78,983.74,292.53,983.06z M448.73,971.01c0.26,0.09,0.52,0.17,0.78,0.26
		c2.06-1.22,4.13-2.43,6.16-3.69c0.37-0.23,0.79-0.71,0.8-1.08c0.02-3.45,0.05-6.9-0.18-10.34c-0.05-0.72-1.05-1.84-1.75-1.95
		c-0.87-0.13-2.03,0.44-2.79,1.03c-0.61,0.47-1.02,1.37-1.14,2.13C449.92,961.9,449.35,966.46,448.73,971.01z M301.62,931.32
		c5.47,7.01,7.57,14.92,7.99,23.39c0.5-6.03,0.87-12.05,1.14-18.07c0.02-0.5-0.5-1.27-1-1.52
		C307.08,933.78,304.34,932.57,301.62,931.32z M287.35,923.02c-3.62-2.64-6.9-5.03-10.26-7.49c0,4.5,0,8.81,0,13.62
		C279.53,925.22,282.83,923.41,287.35,923.02z M278.75,969.3c-0.54-3.23-1.01-6.03-1.48-8.83
		C277.52,963.34,275.42,966.56,278.75,969.3z"/>
	<linearGradient id="SVGID_1_" gradientUnits="userSpaceOnUse" x1="335.38" y1="806.0173" x2="403.3706" y2="806.0173">
		<stop  offset="0" style="stop-color:#4D4D4D"/>
		<stop  offset="0.6593" style="stop-color:#939393"/>
		<stop  offset="1" style="stop-color:#B3B3B3"/>
		<stop  offset="1" style="stop-color:#B5B5B5"/>
		<stop  offset="1" style="stop-color:#BCBCBC"/>
		<stop  offset="1" style="stop-color:#C7C7C7"/>
		<stop  offset="1" style="stop-color:#D8D8D8"/>
		<stop  offset="1" style="stop-color:#EEEEEE"/>
		<stop  offset="1" style="stop-color:#FFFFFF"/>
	</linearGradient>
	<path class="st0" d="M335.4,729.26c10.92,1.8,21.75,2.34,32.63,2.39c10.82,0.05,21.58-0.56,32.86-2.25c0,4.95-0.07,9.68,0.01,14.4
		c0.41,21.99,0.87,43.98,1.29,65.97c0.17,9.16,0.23,18.31,0.43,27.47c0.22,9.9,0.57,19.79,0.75,29.69c0.02,1.02-0.49,2.27-1.22,3.03
		c-6.15,6.51-14.04,10.17-23.06,11.71c-10.9,1.86-21.66,1.58-32.06-2.46c-0.54-0.21-1.07-0.42-1.59-0.67
		c-6.89-3.3-6.8-3.33-6.95-10.5c-0.45-21.17-1-42.34-1.5-63.51c-0.25-10.79-0.46-21.58-0.7-32.37c-0.3-13.78-0.6-27.55-0.91-41.33
		C335.39,730.36,335.4,729.9,335.4,729.26z"/>
	
		<linearGradient id="SVGID_00000140723696338617360580000015220379313005444227_" gradientUnits="userSpaceOnUse" x1="284.1271" y1="693.3239" x2="450.57" y2="693.3239">
		<stop  offset="0" style="stop-color:#4D4D4D"/>
		<stop  offset="0.6593" style="stop-color:#939393"/>
		<stop  offset="1" style="stop-color:#B3B3B3"/>
		<stop  offset="1" style="stop-color:#B5B5B5"/>
		<stop  offset="1" style="stop-color:#BCBCBC"/>
		<stop  offset="1" style="stop-color:#C7C7C7"/>
		<stop  offset="1" style="stop-color:#D8D8D8"/>
		<stop  offset="1" style="stop-color:#EEEEEE"/>
		<stop  offset="1" style="stop-color:#FFFFFF"/>
	</linearGradient>
	<path style="fill:url(#SVGID_00000140723696338617360580000015220379313005444227_);" d="M449.71,662.19
		c0.19,7.25,0.37,14.23,0.54,21.21c0.13,5.16,0.31,10.31,0.32,15.47c0,0.99-0.49,2.13-1.12,2.95
		c-9.05,11.86-20.33,20.46-36.08,23.73c-14.75,3.06-29.57,4.82-44.63,4.68c-14.08-0.13-28.13-0.65-41.82-4.32
		c-15.77-4.23-29.84-11.17-41.33-22.29c-0.76-0.74-1.39-1.97-1.4-2.97c-0.09-14.19-0.06-28.39-0.05-42.58c0-0.33,0-0.67,0-1.66
		c25.81,13.25,53.04,20.13,82.17,20.38C395.05,677.05,423.27,675.12,449.71,662.19z"/>
	
		<linearGradient id="SVGID_00000057855571367019755210000001777582254724206225_" gradientUnits="userSpaceOnUse" x1="276.931" y1="880.6745" x2="458.8557" y2="880.6745">
		<stop  offset="0" style="stop-color:#4D4D4D"/>
		<stop  offset="0.6593" style="stop-color:#939393"/>
		<stop  offset="1" style="stop-color:#B3B3B3"/>
		<stop  offset="1" style="stop-color:#B5B5B5"/>
		<stop  offset="1" style="stop-color:#BCBCBC"/>
		<stop  offset="1" style="stop-color:#C7C7C7"/>
		<stop  offset="1" style="stop-color:#D8D8D8"/>
		<stop  offset="1" style="stop-color:#EEEEEE"/>
		<stop  offset="1" style="stop-color:#FFFFFF"/>
	</linearGradient>
	<path style="fill:url(#SVGID_00000057855571367019755210000001777582254724206225_);" d="M452.79,891.52
		c0.49-7.66-6.17-12.79-14.11-11.06c-3.1,0.67-5.91,1.92-7.76,4.51c-1.99,2.8-2.48,5.8-0.87,8.87c1.56,2.99,4.45,4.32,7.82,4.35
		c2.99,0.02,5.99-0.5,9.05-0.78c-0.54,0.42-1.17,0.93-1.81,1.41c-14.84,11.05-31.91,17.58-50.26,21.38
		c-18.06,3.73-36.3,4.95-54.69,2.52c-19.37-2.56-36.87-9.01-50.77-22.37c-3.47-3.34-6.4-7.19-9.35-10.96
		c-4.41-5.63-3.98-13.14,0.35-18.82c3.46-4.55,7.98-8.04,12.61-11.43c12.62-9.24,26.54-16.25,41.65-21.22
		c0.46-0.15,0.95-0.25,2.07-0.55c0,4.17-0.05,8.07,0.01,11.98c0.13,8.21,0.27,16.43,0.54,24.64c0.02,0.76,0.81,1.68,1.52,2.21
		c5.41,4.02,11.66,6.27,18.44,7.19c10.95,1.49,21.71,0.92,32.06-3.11c6.77-2.63,13.21-7.49,16.19-11.88
		c-0.26-1.45-0.6-2.55-0.63-3.67c-0.21-7.67-0.35-15.34-0.51-23.01c-0.02-1.08,0-2.16,0-3.48c1.06,0.2,1.96,0.3,2.82,0.53
		c17.84,4.81,33.12,13.63,45.93,26.11C461.66,873.23,459.93,883.35,452.79,891.52z M342.87,920.93c3.26-0.73,6.21-1.02,8.82-2.06
		c4.7-1.87,6.58-6.63,4.03-10.2c-1.52-2.14-3.53-4.26-5.85-5.58c-7.25-4.11-14.57-2.14-18.64,3.73c-2.85,4.11-1.56,9.33,3.06,11.6
		C336.96,919.74,340.13,920.17,342.87,920.93z M305.98,855.39c-4.82-0.29-12.15,3.97-13.49,9.79c-1.03,4.43,0.87,7.84,5.53,9.08
		c5.99,1.6,15.08-1.88,18.16-6.97c1.74-2.88,1.45-5.99-0.93-8.45C312.81,856.31,309.66,855.33,305.98,855.39z"/>
	
		<linearGradient id="SVGID_00000002377967929554124860000003876858837838646457_" gradientUnits="userSpaceOnUse" x1="308.75" y1="960.701" x2="461.6728" y2="960.701">
		<stop  offset="0" style="stop-color:#4D4D4D"/>
		<stop  offset="0.6593" style="stop-color:#939393"/>
		<stop  offset="1" style="stop-color:#B3B3B3"/>
		<stop  offset="1" style="stop-color:#B5B5B5"/>
		<stop  offset="1" style="stop-color:#BCBCBC"/>
		<stop  offset="1" style="stop-color:#C7C7C7"/>
		<stop  offset="1" style="stop-color:#D8D8D8"/>
		<stop  offset="1" style="stop-color:#EEEEEE"/>
		<stop  offset="1" style="stop-color:#FFFFFF"/>
	</linearGradient>
	<path style="fill:url(#SVGID_00000002377967929554124860000003876858837838646457_);" d="M312.25,936.48
		c53.66,19.61,102.64,12.5,147.9-20.31c0.12,2.92,0.27,5.85,0.36,8.79c0.38,12.48,0.69,24.97,1.16,37.45c0.09,2.49-2,2.53-3.7,3.75
		c0-3.4,0.1-6.43-0.03-9.44c-0.1-2.52-1.19-3.8-3.08-4.11c-1.9-0.32-4.54,0.97-5.1,3.03c-0.86,3.13-1.51,6.36-1.79,9.58
		c-0.39,4.53-0.31,9.09-0.56,13.63c-0.05,0.83-0.45,1.9-1.1,2.41c-14.57,11.64-31.15,19.61-50.05,22.78
		c-9.66,1.62-19.53,1.3-29.33,0.72c-4.48-0.27-8.94-0.87-13.4-1.35c-0.77-0.08-1.52-0.3-2.37-0.47c0.39-4.87,0.84-9.59,1.12-14.32
		c0.32-5.35,1.26-4-4-6.4c-4.88-2.22-10.12-3.29-15.53-3.61c-2.57-0.15-2.95,0.25-2.79,2.59c0.18,2.71,0.31,5.42,0.46,8.14
		c0.15,2.71,0.29,5.41,0.46,8.46c-7.58-4.22-14.82-4-22.13,1.09C309.93,977.81,311.09,957.12,312.25,936.48z"/>
	
		<linearGradient id="SVGID_00000041268694048629545010000010469274821536203166_" gradientUnits="userSpaceOnUse" x1="258.18" y1="54.2569" x2="460.4401" y2="54.2569">
		<stop  offset="0" style="stop-color:#4D4D4D"/>
		<stop  offset="0.1123" style="stop-color:#939393"/>
		<stop  offset="0.1704" style="stop-color:#B3B3B3"/>
		<stop  offset="0.5647" style="stop-color:#B5B5B5"/>
		<stop  offset="0.7067" style="stop-color:#BCBCBC"/>
		<stop  offset="0.8079" style="stop-color:#C7C7C7"/>
		<stop  offset="0.8898" style="stop-color:#D8D8D8"/>
		<stop  offset="0.959" style="stop-color:#EEEEEE"/>
		<stop  offset="1" style="stop-color:#FFFFFF"/>
	</linearGradient>
	<path style="fill:url(#SVGID_00000041268694048629545010000010469274821536203166_);" d="M258.95,30.66
		c7.26,1.64,14.11,3.33,21.02,4.73c14.4,2.92,28.98,4.91,43.68,5.74c17.59,0.99,35.2,1.96,52.81,2.13
		c20.37,0.2,40.58-1.79,60.04-7.87c7.67-2.4,15.08-5.52,22.97-8.44c0.3,1.74,0.98,3.84,0.97,5.94c-0.06,8.14-0.32,16.27-0.54,24.41
		c-0.05,1.83-0.31,3.66-0.32,5.49c-0.01,1.85-0.84,2.91-2.67,3.71c-12.23,5.37-25.08,8.74-38.34,10.93
		c-16.83,2.78-33.82,3.98-50.88,4.08c-14.13,0.08-28.3,0.17-42.4-0.53c-21.12-1.05-41.89-4.4-62.07-10.53
		c-2.95-0.9-3.53-1.64-3.7-4.49c-0.34-5.56-0.77-11.11-1.02-16.66c-0.22-4.71-0.32-9.43-0.32-14.15
		C258.18,33.62,258.69,32.13,258.95,30.66z"/>
	<g>
		
			<linearGradient id="SVGID_00000171000886488595464800000016023724241181447871_" gradientUnits="userSpaceOnUse" x1="268.7484" y1="887.8466" x2="455.2315" y2="887.8466" gradientTransform="matrix(1 0 0 -1 0 1024)">
			<stop  offset="0.1257" style="stop-color:#6C0003"/>
			<stop  offset="0.7626" style="stop-color:#80002B"/>
			<stop  offset="0.851" style="stop-color:#81022D"/>
			<stop  offset="0.8829" style="stop-color:#840932"/>
			<stop  offset="0.9056" style="stop-color:#8A143C"/>
			<stop  offset="0.924" style="stop-color:#93254A"/>
			<stop  offset="0.9398" style="stop-color:#9E3B5C"/>
			<stop  offset="0.9537" style="stop-color:#AB5773"/>
			<stop  offset="0.9663" style="stop-color:#BB778E"/>
			<stop  offset="0.9779" style="stop-color:#CE9DAD"/>
			<stop  offset="0.9887" style="stop-color:#E4C8D1"/>
			<stop  offset="0.9982" style="stop-color:#FAF6F7"/>
			<stop  offset="1" style="stop-color:#FFFFFF"/>
		</linearGradient>
		<path style="fill:url(#SVGID_00000171000886488595464800000016023724241181447871_);" d="M268.75,73.68
			c5.16,1.2,10.05,2.44,14.99,3.47c18.19,3.83,36.65,5.81,55.25,5.85c17.26,0.03,34.54-0.4,51.78-1.27
			c19.74-1,39.24-3.71,57.85-10.45c2.09-0.75,4.15-1.56,6.46-2.43c0.05,0.79,0.14,1.42,0.14,2.06c0.01,12.77,0.02,25.54,0,38.31
			c-0.03,17.79-0.08,35.59-0.14,53.38c-0.02,6.93-0.18,13.85-0.1,20.78c0.02,1.8-0.71,2.94-2.09,3.95
			c-4.92,3.59-10.51,5.99-16.37,7.86c-11.8,3.77-24.01,5.87-36.37,6.8c-11.78,0.89-23.61,1.37-35.43,1.46
			c-15.4,0.12-30.71-1.36-45.98-3.18c-9.06-1.08-18.13-2.1-26.89-4.68c-7.48-2.21-14.39-5.39-20.15-10.51
			c-1.38-1.23-2.03-2.51-2.04-4.39c-0.08-20.24-0.28-40.47-0.46-60.71c-0.13-14.6-0.29-29.2-0.43-43.8
			C268.74,75.4,268.75,74.6,268.75,73.68z"/>
		
			<linearGradient id="SVGID_00000092443682761566725600000001391702983065605769_" gradientUnits="userSpaceOnUse" x1="263.9466" y1="813.2805" x2="460.9241" y2="813.2805" gradientTransform="matrix(1 0 0 -1 0 1024)">
			<stop  offset="0.1257" style="stop-color:#6C0003"/>
			<stop  offset="0.7626" style="stop-color:#80002B"/>
			<stop  offset="0.851" style="stop-color:#81022D"/>
			<stop  offset="0.8829" style="stop-color:#840932"/>
			<stop  offset="0.9056" style="stop-color:#8A143C"/>
			<stop  offset="0.924" style="stop-color:#93254A"/>
			<stop  offset="0.9398" style="stop-color:#9E3B5C"/>
			<stop  offset="0.9537" style="stop-color:#AB5773"/>
			<stop  offset="0.9663" style="stop-color:#BB778E"/>
			<stop  offset="0.9779" style="stop-color:#CE9DAD"/>
			<stop  offset="0.9887" style="stop-color:#E4C8D1"/>
			<stop  offset="0.9982" style="stop-color:#FAF6F7"/>
			<stop  offset="1" style="stop-color:#FFFFFF"/>
		</linearGradient>
		<path style="fill:url(#SVGID_00000092443682761566725600000001391702983065605769_);" d="M457.17,184.59
			c1.59,0.49,2.41,2.02,2.83,3.67c0.38,1.5,0.54,3.08,0.55,4.63c0.05,7.54,0,15.08,0.03,22.62c0.01,1.9,0.1,3.8,0.28,5.69
			c0.6,6.42-3.04,11.65-9.73,13.04c-7.49,1.56-15.09,2.66-22.65,3.95c-16.79,2.88-33.69,4.82-50.75,5.48
			c-16.56,0.65-33.07,0.3-49.53-1.64c-19.58-2.31-38.26-7.47-56.05-15.43c-4.49-2.01-7.84-5.01-7.97-10.06
			c-0.16-6.17-0.31-12.35-0.19-18.51c0.1-5.34,0.44-10.69,1-16c0.16-1.57,1.42-3.04,2.18-4.56c0.38,0.09,0.76,0.17,1.14,0.26
			c0,1.37,0.09,2.74-0.03,4.1c-0.12,1.39,0.36,2.38,1.43,3.4c7.66,7.34,17.31,11.08,27.74,13.12c18.49,3.62,37.23,5.5,56.1,6.29
			c14.52,0.6,29.03,0.38,43.48-0.95c14.58-1.33,29.13-3,42.92-8.09c5.56-2.05,10.86-4.57,15.23-8.48
			C455.94,186.47,456.43,185.55,457.17,184.59z"/>
	</g>
	<g>
		
			<linearGradient id="SVGID_00000147900197578168360360000007925867753808624282_" gradientUnits="userSpaceOnUse" x1="275.3378" y1="290.9564" x2="454.2815" y2="290.9564">
			<stop  offset="0" style="stop-color:#8C6239"/>
			<stop  offset="0.0767" style="stop-color:#A37239"/>
			<stop  offset="0.2211" style="stop-color:#C98D3A"/>
			<stop  offset="0.3547" style="stop-color:#E5A03B"/>
			<stop  offset="0.4723" style="stop-color:#F5AC3B"/>
			<stop  offset="0.5615" style="stop-color:#FBB03B"/>
			<stop  offset="0.6721" style="stop-color:#FBB13F"/>
			<stop  offset="0.7711" style="stop-color:#FBB649"/>
			<stop  offset="0.8657" style="stop-color:#FCBD5C"/>
			<stop  offset="0.9571" style="stop-color:#FDC775"/>
			<stop  offset="1" style="stop-color:#FDCD84"/>
		</linearGradient>
		<path style="fill:url(#SVGID_00000147900197578168360360000007925867753808624282_);" d="M453.17,235.48
			c0,5.07-0.05,10.01,0.01,14.94c0.27,21.45,0.56,42.9,0.87,64.35c0.06,4.07,0.25,8.14,0.23,12.21c0,0.77-0.54,1.77-1.18,2.26
			c-17.61,13.15-37.88,19.73-60.16,21.77c-31.07,2.86-61.55,0.44-91.39-8.25c-7.74-2.25-15.04-5.4-21.19-10.47
			c-0.8-0.66-1.49-1.86-1.54-2.85c-0.52-10.64-0.9-21.29-1.32-31.94c-0.71-18.25-1.44-36.49-2.09-54.74
			c-0.15-4.31-0.02-8.64-0.02-13c3.54,1.32,7.27,2.75,11.04,4.1c15.81,5.67,32.23,8.81,49.05,10.31
			c19.79,1.77,39.61,1.61,59.34-0.26c14.12-1.34,28.12-3.74,42.16-5.75C442.27,237.41,447.52,236.42,453.17,235.48z"/>
		
			<linearGradient id="SVGID_00000155830430707036278870000007976799645188229040_" gradientUnits="userSpaceOnUse" x1="271.0574" y1="355.3898" x2="458.82" y2="355.3898">
			<stop  offset="0" style="stop-color:#8C6239"/>
			<stop  offset="0.0767" style="stop-color:#A37239"/>
			<stop  offset="0.2211" style="stop-color:#C98D3A"/>
			<stop  offset="0.3547" style="stop-color:#E5A03B"/>
			<stop  offset="0.4723" style="stop-color:#F5AC3B"/>
			<stop  offset="0.5615" style="stop-color:#FBB03B"/>
			<stop  offset="0.6721" style="stop-color:#FBB13F"/>
			<stop  offset="0.7711" style="stop-color:#FBB649"/>
			<stop  offset="0.8657" style="stop-color:#FCBD5C"/>
			<stop  offset="0.9571" style="stop-color:#FDC775"/>
			<stop  offset="1" style="stop-color:#FDCD84"/>
		</linearGradient>
		<path style="fill:url(#SVGID_00000155830430707036278870000007976799645188229040_);" d="M456.6,324.51
			c0.57,1.96,1.36,3.9,1.66,5.9c0.38,2.54,0.5,5.14,0.52,7.71c0.06,9.64,0.04,19.27,0.02,28.91c-0.01,4.52-2.16,7.6-6.71,9.5
			c-10.19,4.26-20.93,6.78-31.76,8.97c-18.77,3.78-37.81,4.62-56.93,4.1c-11.67-0.32-23.35-0.84-34.97-1.87
			c-14.08-1.25-27.46-5.4-40.6-10.14c-2.7-0.97-5.35-2.08-7.99-3.19c-5.54-2.34-8.47-6.15-8.41-12.08
			c0.07-8.21-0.49-16.42-0.35-24.63c0.07-4.09,0.9-8.21,1.77-12.24c0.53-2.49,1.86-3.51,4.42-4.41c0,3.14,0.15,6.09-0.07,9.03
			c-0.1,1.31,0.44,1.97,1.34,2.73c7.15,5.97,15.72,9.4,24.73,11.95c18.77,5.31,38.03,7.94,57.59,8.65
			c14.83,0.54,29.59-0.17,44.23-2.52c18.01-2.89,34.13-9.76,48.59-20.17c2.29-1.64,2.05-3.8,2.02-6.02
			C456.01,324.62,456.31,324.56,456.6,324.51z"/>
	</g>
	<g>
		
			<linearGradient id="SVGID_00000167378172952061823990000008630275795207548309_" gradientUnits="userSpaceOnUse" x1="277.05" y1="437.6244" x2="454.3371" y2="437.6244">
			<stop  offset="0.014" style="stop-color:#007505"/>
			<stop  offset="0.0833" style="stop-color:#017B05"/>
			<stop  offset="0.1779" style="stop-color:#058D03"/>
			<stop  offset="0.2866" style="stop-color:#0CA901"/>
			<stop  offset="0.3547" style="stop-color:#11BF00"/>
			<stop  offset="0.3686" style="stop-color:#1BC20B"/>
			<stop  offset="0.5052" style="stop-color:#7BDC72"/>
			<stop  offset="0.6152" style="stop-color:#C2EFBE"/>
			<stop  offset="0.6931" style="stop-color:#EEFAED"/>
			<stop  offset="0.7318" style="stop-color:#FFFFFF"/>
			<stop  offset="0.8677" style="stop-color:#D3DEC8"/>
			<stop  offset="0.8802" style="stop-color:#CCDCC3"/>
			<stop  offset="0.8981" style="stop-color:#BAD5B6"/>
			<stop  offset="0.9191" style="stop-color:#9BC9A0"/>
			<stop  offset="0.9425" style="stop-color:#70B981"/>
			<stop  offset="0.9676" style="stop-color:#3AA55B"/>
			<stop  offset="0.9916" style="stop-color:#008F31"/>
		</linearGradient>
		<path style="fill:url(#SVGID_00000167378172952061823990000008630275795207548309_);" d="M277.06,374.81
			c11.47,4.97,23.09,8.68,35.03,11.55c11.52,2.77,23.29,3.75,35.11,4.23c20.9,0.84,41.79,0.98,62.56-1.88
			c15.03-2.07,29.73-5.35,43.63-11.27c0.19-0.08,0.41-0.08,0.83-0.16c0.04,0.75,0.11,1.46,0.11,2.17
			c0.01,31.11,0.02,62.21-0.05,93.32c0,0.78-0.81,1.8-1.55,2.29c-14.57,9.76-30.7,16.38-48.05,20.35
			c-29.67,6.79-59.3,6.96-88.79-1.06c-12.32-3.35-23.92-8.23-34.86-14.52c-1.1-0.63-1.39-1.32-1.42-2.44
			c-0.3-12.35-0.68-24.7-0.99-37.05c-0.54-21.31-1.05-42.62-1.57-63.92C277.05,375.96,277.06,375.49,277.06,374.81z"/>
		
			<linearGradient id="SVGID_00000099625690785645761870000018060362878804789664_" gradientUnits="userSpaceOnUse" x1="271.5559" y1="526.9974" x2="461.0604" y2="526.9974" gradientTransform="matrix(1 0 0 -1 0 1024)">
			<stop  offset="0.014" style="stop-color:#007505"/>
			<stop  offset="0.0833" style="stop-color:#017B05"/>
			<stop  offset="0.1779" style="stop-color:#058D03"/>
			<stop  offset="0.2866" style="stop-color:#0CA901"/>
			<stop  offset="0.3547" style="stop-color:#11BF00"/>
			<stop  offset="0.3686" style="stop-color:#1BC20B"/>
			<stop  offset="0.5052" style="stop-color:#7BDC72"/>
			<stop  offset="0.6152" style="stop-color:#C2EFBE"/>
			<stop  offset="0.6931" style="stop-color:#EEFAED"/>
			<stop  offset="0.7318" style="stop-color:#FFFFFF"/>
			<stop  offset="0.8677" style="stop-color:#D3DEC8"/>
			<stop  offset="0.8802" style="stop-color:#CCDCC3"/>
			<stop  offset="0.8981" style="stop-color:#BAD5B6"/>
			<stop  offset="0.9191" style="stop-color:#9BC9A0"/>
			<stop  offset="0.9425" style="stop-color:#70B981"/>
			<stop  offset="0.9676" style="stop-color:#3AA55B"/>
			<stop  offset="0.9916" style="stop-color:#008F31"/>
		</linearGradient>
		<path style="fill:url(#SVGID_00000099625690785645761870000018060362878804789664_);" d="M277.8,469.39c0,3.35,0,6.44,0,10.09
			c0.1,0.07,0.69,0.51,1.33,0.89c18.8,11.01,39.28,17.54,61.25,20.16c28.32,3.38,55.84,0.39,82.55-9.01
			c11.4-4.01,22.04-9.34,31.87-16.08c1.06-0.72,2.6-1.29,0.97-2.84c-0.15-0.14-0.06-0.53-0.06-0.8c0-2.71,0-5.43,0.49-8.51
			c0.88,0.86,2.14,1.58,2.55,2.61c0.93,2.31,1.97,4.77,2.02,7.18c0.25,12.35,0.14,24.71,0.29,37.07c0.03,2.59-1.5,3.69-3.71,4.33
			c-6.78,1.94-13.55,3.94-20.39,5.68c-9.99,2.53-19.98,5.15-30.09,7.2c-16.41,3.33-33.08,3.81-49.81,3.03
			c-26.09-1.21-51.2-6.6-75.42-15.67c-1.75-0.65-3.42-1.49-5.1-2.28c-3.3-1.56-5.08-4.17-4.98-7.54c0.28-9.49,0.66-18.99,1.25-28.47
			C272.99,473.49,274.44,470.89,277.8,469.39z"/>
	</g>
	<g>
		
			<linearGradient id="SVGID_00000141446699272973789090000009210244031009400479_" gradientUnits="userSpaceOnUse" x1="277.0711" y1="579.9217" x2="456.6506" y2="579.9217">
			<stop  offset="0" style="stop-color:#666666"/>
			<stop  offset="0.1313" style="stop-color:#B3B3B3"/>
			<stop  offset="0.5441" style="stop-color:#B5B5B5"/>
			<stop  offset="0.6928" style="stop-color:#BCBCBC"/>
			<stop  offset="0.7989" style="stop-color:#C7C7C7"/>
			<stop  offset="0.8846" style="stop-color:#D8D8D8"/>
			<stop  offset="0.9571" style="stop-color:#EEEEEE"/>
			<stop  offset="1" style="stop-color:#FFFFFF"/>
		</linearGradient>
		<path style="fill:url(#SVGID_00000141446699272973789090000009210244031009400479_);" d="M456.65,516.54c0,0.68,0,1.4,0,2.13
			c0,31.72,0.01,63.44-0.05,95.16c0,1.1-0.5,2.4-1.21,3.28c-6.4,7.9-15.33,12.47-24.83,16.26c-12.8,5.1-26.24,7.68-40.02,8.92
			c-9.31,0.84-18.61,1.85-27.94,2.48c-13.4,0.9-26.47-1.12-39.28-4.68c-5.69-1.58-11.29-3.46-16.92-5.22
			c-9.81-3.06-16.87-9.52-23.68-16.41c-2.18-2.21-3.24-4.38-3.29-7.42c-0.24-15.75-0.69-31.49-1.1-47.24
			c-0.4-15.68-0.84-31.35-1.25-47.03c-0.02-0.67,0-1.34,0-1.91c5.45,1.79,10.79,3.66,16.2,5.3c16.72,5.06,33.65,9.22,51.23,10.78
			c28.08,2.5,55.77,1.02,82.92-6.66C437.04,521.55,446.77,519.14,456.65,516.54z"/>
		
			<linearGradient id="SVGID_00000116921251373818656180000013281357144633669276_" gradientUnits="userSpaceOnUse" x1="273.3873" y1="643.1608" x2="461.2705" y2="643.1608">
			<stop  offset="0" style="stop-color:#666666"/>
			<stop  offset="0.1313" style="stop-color:#B3B3B3"/>
			<stop  offset="0.5441" style="stop-color:#B5B5B5"/>
			<stop  offset="0.6928" style="stop-color:#BCBCBC"/>
			<stop  offset="0.7989" style="stop-color:#C7C7C7"/>
			<stop  offset="0.8846" style="stop-color:#D8D8D8"/>
			<stop  offset="0.9571" style="stop-color:#EEEEEE"/>
			<stop  offset="1" style="stop-color:#FFFFFF"/>
		</linearGradient>
		<path style="fill:url(#SVGID_00000116921251373818656180000013281357144633669276_);" d="M458.09,611.48
			c2.63,2.3,3.2,5.26,3.18,8.23c-0.04,8.07-0.3,16.14-0.48,24.22c-0.01,0.54-0.13,1.1-0.05,1.63c0.76,5.08-2,8.56-5.97,11.46
			c-7.36,5.39-15.88,8.63-24.64,11.37c-12.73,3.98-25.9,5.75-39.26,6.56c-15.02,0.91-30,0.6-44.97-0.88
			c-13.94-1.38-27.3-4.71-40.19-9.9c-8.39-3.37-16.9-6.42-24.74-10.9c-5.06-2.9-7.68-6.78-7.58-12.35
			c0.12-6.99,0.07-13.98,0.24-20.96c0.11-4.27,1.55-7.15,4.19-9.1c0.1,0.43,0.31,0.82,0.24,1.16c-0.64,3.19,1.41,5.15,3.48,7.25
			c6.48,6.57,13.08,13.06,22.34,16.11c8.59,2.83,17.32,5.36,26.09,7.67c14.68,3.87,29.68,3.92,44.68,2.31
			c11.3-1.21,22.61-2.52,33.81-4.37c13.45-2.22,26.23-6.47,37.54-13.82c3.65-2.37,6.7-5.55,9.97-8.42c1.66-1.46,2.52-3.27,2.12-5.48
			C458,612.69,458.09,612.08,458.09,611.48z"/>
	</g>
	
		<linearGradient id="SVGID_00000135684601378933685360000008921469641046892169_" gradientUnits="userSpaceOnUse" x1="260.69" y1="28.1817" x2="458.17" y2="28.1817">
		<stop  offset="0" style="stop-color:#4D4D4D"/>
		<stop  offset="0.6593" style="stop-color:#939393"/>
		<stop  offset="1" style="stop-color:#B3B3B3"/>
		<stop  offset="1" style="stop-color:#B5B5B5"/>
		<stop  offset="1" style="stop-color:#BCBCBC"/>
		<stop  offset="1" style="stop-color:#C7C7C7"/>
		<stop  offset="1" style="stop-color:#D8D8D8"/>
		<stop  offset="1" style="stop-color:#EEEEEE"/>
		<stop  offset="1" style="stop-color:#FFFFFF"/>
	</linearGradient>
	<path style="fill:url(#SVGID_00000135684601378933685360000008921469641046892169_);" d="M458.17,25.41
		c-2.71,1.23-5.37,2.54-8.12,3.69c-15.78,6.57-32.41,10.05-49.53,11.65c-22.91,2.14-45.81,1.12-68.7-0.35
		c-20.36-1.3-40.54-3.72-60.4-8.25c-3.57-0.81-7.1-1.76-10.73-3.15c1.65-0.7,3.36-1.31,4.95-2.1c11-5.48,22.98-7.8,35.14-9.36
		c17.64-2.27,35.4-3.08,53.18-3.15c12.61-0.05,25.23,0.85,37.85,1.02c21.6,0.29,42.65,4.01,63.58,8.54c0.93,0.2,1.82,0.6,2.73,0.91
		C458.13,25.04,458.15,25.22,458.17,25.41z"/>
	
		<linearGradient id="SVGID_00000081631806615885084720000008933941625185008789_" gradientUnits="userSpaceOnUse" x1="276.8844" y1="915.4516" x2="460.01" y2="915.4516">
		<stop  offset="0" style="stop-color:#4D4D4D"/>
		<stop  offset="0.6593" style="stop-color:#939393"/>
		<stop  offset="1" style="stop-color:#B3B3B3"/>
		<stop  offset="1" style="stop-color:#B5B5B5"/>
		<stop  offset="1" style="stop-color:#BCBCBC"/>
		<stop  offset="1" style="stop-color:#C7C7C7"/>
		<stop  offset="1" style="stop-color:#D8D8D8"/>
		<stop  offset="1" style="stop-color:#EEEEEE"/>
		<stop  offset="1" style="stop-color:#FFFFFF"/>
	</linearGradient>
	<path style="fill:url(#SVGID_00000081631806615885084720000008933941625185008789_);" d="M459.69,885.02
		c0,4.93-0.05,9.86,0.01,14.78c0.05,4.21,0.3,8.41,0.31,12.62c0,0.8-0.47,1.87-1.11,2.38c-19.97,15.77-42.82,25.92-68.68,29.51
		c-42.02,5.84-79.27-4.56-111.89-29.83c-0.66-0.51-1.39-1.39-1.4-2.1c-0.1-8.06-0.06-16.13,0.37-24.28c1.1,1.54,2.15,3.11,3.29,4.63
		c11.64,15.42,27.81,24.49,47.06,29.11c16.89,4.06,34.03,4.11,51.23,2.27c15.96-1.71,31.29-5.57,45.91-11.88
		c9.11-3.93,17.3-9.14,24.89-15.2c4.08-3.26,7.12-7.32,9.11-12.02C459.1,885.02,459.39,885.02,459.69,885.02z"/>
	<path class="st15" d="M308.22,961c0.15,4.63-0.07,9.18-1.81,13.62c-1.6,4.1-4.97,6.05-9.09,7.09c-3.8,0.96-6.45-0.81-9.18-3.25
		c-6.01-5.4-9.29-11.66-9.51-19.55c-0.23-8.19-1.25-16.36-1.47-24.55c-0.11-4.3,2.25-7.74,6.84-9.19c1.52-0.48,3.5-0.55,5.01-0.07
		c8.49,2.68,13.35,8.73,16.45,16.24C308.07,947.69,308,954.37,308.22,961z"/>
	<path class="st16" d="M332.33,996.96c-0.32-5.89-0.62-11.28-0.93-16.92c7.25,0.03,13.67,1.94,19.71,5.06
		c-0.34,3.95-0.67,7.77-1.03,12.05c-2.58-2.6-5.17-4.6-8.78-4.75C337.64,992.26,334.94,993.92,332.33,996.96z"/>
	<path class="st17" d="M439.25,896.99c-5.04-0.02-8.43-2.59-8.6-6.52c-0.19-4.18,3.84-8.22,8.45-8.54c1.28-0.09,2.56-0.5,3.83-0.47
		c4.02,0.11,8.54,4.7,8.47,8.48c-0.03,1.94-1.14,3.29-2.74,4.37C446.32,895.88,442.37,897,439.25,896.99z M444.03,889.27
		c0.45-0.28,0.85-0.46,1.14-0.74c0.49-0.48,0.91-1.02,1.37-1.54c-0.7,0.11-1.55,0.01-2.07,0.36c-1.82,1.22-3.63,1.54-5.62,0.44
		c-0.18-0.1-0.42-0.17-0.62-0.17c-0.51,0.02-1.02,0.09-1.52,0.14c0.37,0.39,0.69,0.87,1.14,1.16c0.5,0.33,1.12,0.49,1.78,0.75
		c-1.38,0.97-2.61,1.84-3.83,2.7c0.2,0.26,0.4,0.53,0.61,0.79c1.66-0.85,3.25-2.18,5.02-2.43c1.75-0.25,3.68,0.59,5.52,0.95
		c0.12-0.2,0.24-0.4,0.36-0.6C446.28,890.52,445.25,889.95,444.03,889.27z"/>
	<path class="st18" d="M292.53,983.06c4.25,0.68,7.42-0.47,10.48-2.2c3.24-1.82,4.62-4.73,5.76-7.89c-0.46,8.07-0.91,16.14-1.4,24.8
		C302.28,992.72,297.63,988.11,292.53,983.06z"/>
	<path class="st18" d="M448.73,971.01c0.61-4.55,1.19-9.1,1.88-13.64c0.12-0.76,0.53-1.67,1.14-2.13c0.76-0.58,1.92-1.16,2.79-1.03
		c0.7,0.1,1.7,1.23,1.75,1.95c0.22,3.44,0.19,6.89,0.18,10.34c0,0.37-0.43,0.85-0.8,1.08c-2.03,1.26-4.1,2.47-6.16,3.69
		C449.25,971.18,448.99,971.09,448.73,971.01z"/>
	<path class="st18" d="M301.62,931.32c2.72,1.25,5.46,2.46,8.13,3.8c0.5,0.25,1.02,1.01,1,1.52c-0.27,6.02-0.64,12.04-1.14,18.07
		C309.19,946.24,307.09,938.32,301.62,931.32z"/>
	<path class="st18" d="M287.35,923.02c-4.53,0.39-7.82,2.19-10.26,6.13c0-4.81,0-9.12,0-13.62
		C280.46,917.99,283.73,920.38,287.35,923.02z"/>
	<path class="st18" d="M278.75,969.3c-3.33-2.73-1.22-5.96-1.48-8.83C277.74,963.27,278.21,966.07,278.75,969.3z"/>
	<path d="M342.87,920.93c-2.74-0.77-5.91-1.19-8.58-2.51c-4.62-2.27-5.91-7.49-3.06-11.6c4.07-5.87,11.39-7.83,18.64-3.73
		c2.32,1.31,4.32,3.44,5.85,5.58c2.54,3.57,0.66,8.33-4.03,10.2C349.08,919.91,346.12,920.2,342.87,920.93z M343.87,919.48
		c2.43-0.66,5.25-1.08,7.72-2.17c3.15-1.39,4.51-4.57,3.38-7.1c-2.88-6.46-13.42-11.49-21-4.45c-4.45,4.13-3.28,9.96,2.54,12.15
		C338.67,918.73,341.1,918.91,343.87,919.48z"/>
	<path d="M305.98,855.39c3.68-0.06,6.82,0.92,9.26,3.45c2.38,2.46,2.68,5.57,0.93,8.45c-3.08,5.09-12.17,8.57-18.16,6.97
		c-4.65-1.25-6.55-4.66-5.53-9.08C293.84,859.36,301.17,855.1,305.98,855.39z M306.39,856.55c-5.5,0.15-10.86,3.94-12.33,8.85
		c-1.17,3.89,0.55,6.84,4.81,7.58c5.36,0.94,10.08-0.74,13.98-4.12c4.86-4.21,3.59-9.42-2.66-11.51
		C308.98,856.95,307.66,856.81,306.39,856.55z"/>
	<path d="M444.03,889.27c1.22,0.68,2.24,1.25,3.27,1.83c-0.12,0.2-0.24,0.4-0.36,0.6c-1.85-0.36-3.77-1.2-5.52-0.95
		c-1.76,0.25-3.35,1.58-5.02,2.43c-0.2-0.26-0.4-0.53-0.61-0.79c1.23-0.87,2.45-1.73,3.83-2.7c-0.65-0.27-1.28-0.43-1.78-0.75
		c-0.45-0.29-0.76-0.77-1.14-1.16c0.51-0.05,1.01-0.12,1.52-0.14c0.21-0.01,0.44,0.07,0.62,0.17c1.99,1.09,3.8,0.77,5.62-0.44
		c0.52-0.35,1.37-0.25,2.07-0.36c-0.45,0.52-0.87,1.06-1.37,1.54C444.88,888.81,444.48,888.98,444.03,889.27z"/>
	<path class="st17" d="M343.87,919.48c-2.77-0.57-5.2-0.75-7.36-1.57c-5.82-2.19-6.98-8.03-2.54-12.15c7.58-7.04,18.13-2.01,21,4.45
		c1.13,2.53-0.23,5.7-3.38,7.1C349.12,918.4,346.3,918.82,343.87,919.48z M335.58,912.69c0.04,0.33,0.08,0.66,0.12,0.99
		c1.11,0.05,2.24,0.23,3.33,0.11c2.03-0.21,3.18,0.29,3.14,2.43c-0.01,0.61,0.5,1.23,0.77,1.84c0.26-0.07,0.52-0.14,0.77-0.21
		c-0.1-1.28-0.21-2.56-0.32-3.92c1.68-0.09,3.25-0.17,4.82-0.25c0.02-0.24,0.04-0.48,0.06-0.72c-0.58-0.14-1.21-0.5-1.74-0.4
		c-2.93,0.56-4.35-0.68-4.96-3.24c-0.16-0.65-0.78-1.21-1.18-1.82c-0.26,0.11-0.52,0.22-0.77,0.32c0.49,1.46,0.98,2.92,1.5,4.48
		C339.17,912.44,337.37,912.57,335.58,912.69z"/>
	<path class="st17" d="M306.39,856.55c1.27,0.26,2.58,0.4,3.8,0.8c6.25,2.09,7.52,7.3,2.66,11.51c-3.9,3.38-8.62,5.06-13.98,4.12
		c-4.26-0.75-5.98-3.69-4.81-7.58C295.53,860.49,300.89,856.69,306.39,856.55z M300.76,863.48c-0.65,0.5-1.35,0.9-1.85,1.46
		c-0.42,0.47-0.62,1.12-0.92,1.69c0.61-0.2,1.41-0.24,1.79-0.63c1.9-1.93,3.91-2.2,6.33-0.87c0.73,0.4,1.71,0.42,2.57,0.62
		c0.1-0.28,0.19-0.57,0.29-0.85c-1.41-0.61-2.81-1.23-4.5-1.96c1.27-0.62,2.33-1.05,3.28-1.63c0.76-0.47,2.52-0.27,1.8-2.03
		c-3.6,0.54-6.2,4.35-10.49,2.04c-0.02,0.25-0.05,0.5-0.07,0.75C299.54,862.5,300.08,862.94,300.76,863.48z"/>
	<path d="M335.58,912.69c1.8-0.12,3.59-0.24,5.55-0.38c-0.52-1.56-1.01-3.02-1.5-4.48c0.26-0.11,0.52-0.22,0.77-0.32
		c0.41,0.6,1.03,1.16,1.18,1.82c0.61,2.56,2.03,3.8,4.96,3.24c0.53-0.1,1.16,0.25,1.74,0.4c-0.02,0.24-0.04,0.48-0.06,0.72
		c-1.57,0.08-3.14,0.16-4.82,0.25c0.11,1.36,0.21,2.64,0.32,3.92c-0.26,0.07-0.52,0.14-0.77,0.21c-0.27-0.61-0.79-1.23-0.77-1.84
		c0.04-2.13-1.11-2.64-3.14-2.43c-1.09,0.11-2.22-0.06-3.33-0.11C335.66,913.34,335.62,913.02,335.58,912.69z"/>
	<path d="M300.76,863.48c-0.68-0.55-1.23-0.98-1.78-1.42c0.02-0.25,0.05-0.5,0.07-0.75c4.29,2.31,6.89-1.5,10.49-2.04
		c0.72,1.76-1.04,1.56-1.8,2.03c-0.95,0.59-2.01,1.01-3.28,1.63c1.69,0.73,3.09,1.35,4.5,1.96c-0.1,0.28-0.19,0.57-0.29,0.85
		c-0.86-0.19-1.84-0.21-2.57-0.62c-2.41-1.33-4.43-1.06-6.33,0.87c-0.39,0.39-1.18,0.43-1.79,0.63c0.3-0.57,0.49-1.22,0.92-1.69
		C299.42,864.38,300.12,863.98,300.76,863.48z"/>
</g>
</svg>
