<?xml version="1.0" encoding="UTF-8" standalone="no"?>
<!-- Created with Inkscape (http://www.inkscape.org/) -->

<svg
   width="1280mm"
   height="670mm"
   viewBox="0 0 1280 670"
   version="1.1"
   id="svg5"
   inkscape:export-filename="Rastergrafik.svg"
   inkscape:export-xdpi="96"
   inkscape:export-ydpi="96"
   inkscape:version="1.2-beta (1b65182ce9, 2022-04-05)"
   sodipodi:docname="Logo weiß.svg"
   xmlns:inkscape="http://www.inkscape.org/namespaces/inkscape"
   xmlns:sodipodi="http://sodipodi.sourceforge.net/DTD/sodipodi-0.dtd"
   xmlns="http://www.w3.org/2000/svg"
   xmlns:svg="http://www.w3.org/2000/svg">
  <sodipodi:namedview
     id="namedview7"
     pagecolor="#ffffff"
     bordercolor="#666666"
     borderopacity="1.0"
     inkscape:pageshadow="2"
     inkscape:pageopacity="0.0"
     inkscape:pagecheckerboard="0"
     inkscape:deskcolor="#d1d1d1"
     inkscape:document-units="mm"
     showgrid="false"
     inkscape:zoom="0.17906145"
     inkscape:cx="2320.4325"
     inkscape:cy="1661.4408"
     inkscape:window-width="1920"
     inkscape:window-height="991"
     inkscape:window-x="-9"
     inkscape:window-y="1071"
     inkscape:window-maximized="1"
     inkscape:current-layer="layer1" />
  <defs
     id="defs2">
    <clipPath
       id="clip0">
      <rect
         x="437"
         y="185"
         width="616"
         height="363"
         id="rect132" />
    </clipPath>
  </defs>
  <g
     inkscape:label="Ebene 1"
     inkscape:groupmode="layer"
     id="layer1">
    <g
       clip-path="url(#clip0)"
       transform="matrix(2.4188762,0,0,2.4188762,-1295.5737,-614.68093)"
       id="g151">
      <g
         aria-label="GRÜNES LICHT FÜR IHRE PRODUKTIONG"
         transform="translate(663.129,465)"
         id="text141"
         style="font-size:40px;font-family:Roboto, Roboto_MSFontService, sans-serif;fill:#e7e6e6">
        <path
           d="m 24.296875,-3.7304688 q -1.445313,2.0703126 -4.042969,3.1054688 -2.578125,1.015625 -6.015625,1.015625 -3.476562,0 -6.1718747,-1.6210937 Q 5.3710937,-2.8710938 3.8867188,-5.8789062 2.421875,-8.8867188 2.3828125,-12.851563 v -2.480468 q 0,-6.425781 2.9882812,-9.960938 3.0078126,-3.535156 8.4375003,-3.535156 4.453125,0 7.167968,2.285156 2.714844,2.265625 3.320313,6.445313 h -3.75 q -1.054688,-5.644531 -6.71875,-5.644531 -3.769531,0 -5.7226562,2.65625 -1.9335938,2.636718 -1.9531251,7.656249 v 2.324219 q 0,4.7851565 2.1875001,7.6171878 2.1875002,2.8124999 5.9179692,2.8124999 2.109374,0 3.691406,-0.46875 1.582031,-0.46875 2.617187,-1.5820312 v -6.3867185 h -6.582031 v -3.046875 h 10.3125 z"
           id="path880" />
        <path
           d="M 40.976562,-11.503906 H 34.296875 V 0 h -3.769531 v -28.4375 h 9.414062 q 4.804688,0 7.382813,2.1875 2.597656,2.1875 2.597656,6.367188 0,2.65625 -1.445313,4.628906 -1.425781,1.972656 -3.984375,2.949218 l 6.679688,12.070313 V 0 h -4.023438 z m -6.679687,-3.066407 h 5.761719 q 2.792968,0 4.433593,-1.445312 1.660157,-1.445312 1.660157,-3.867187 0,-2.636719 -1.582032,-4.042969 -1.5625,-1.40625 -4.53125,-1.425781 h -5.742187 z"
           id="path882" />
        <path
           d="m 75.195312,-28.4375 v 19.3359375 q -0.01953,4.0234375 -2.539062,6.5820312 -2.5,2.5585938 -6.796875,2.8710938 L 64.863281,0.390625 q -4.667969,0 -7.441406,-2.5195313 -2.773438,-2.5195312 -2.8125,-6.9335937 v -19.375 h 3.710937 v 19.2578125 q 0,3.0859375 1.699219,4.8046875 1.699219,1.6992187 4.84375,1.6992187 3.183594,0 4.863281,-1.6992187 1.699219,-1.6992187 1.699219,-4.7851563 V -28.4375 Z m -16.5625,-4.394531 q 0,-0.878906 0.527344,-1.464844 0.546875,-0.605469 1.601563,-0.605469 1.054687,0 1.601562,0.605469 0.546875,0.585938 0.546875,1.464844 0,0.878906 -0.546875,1.464844 -0.546875,0.585937 -1.601562,0.585937 -1.054688,0 -1.601563,-0.585937 -0.527344,-0.585938 -0.527344,-1.464844 z m 8.398438,0.03906 q 0,-0.878906 0.527344,-1.484375 0.546875,-0.605468 1.601562,-0.605468 1.054688,0 1.601563,0.605468 0.546875,0.605469 0.546875,1.484375 0,0.878907 -0.546875,1.464844 -0.546875,0.585938 -1.601563,0.585938 -1.054687,0 -1.601562,-0.585938 -0.527344,-0.585937 -0.527344,-1.464844 z"
           id="path884" />
        <path
           d="M 102.96875,0 H 99.199219 L 84.882812,-21.914062 V 0 h -3.769531 v -28.4375 h 3.769531 L 99.238281,-6.4257812 V -28.4375 h 3.730469 z"
           id="path886" />
        <path
           d="m 125.70313,-13.144531 h -12.32422 v 10.0781247 h 14.3164 V 0 h -18.0664 V -28.4375 H 127.5 v 3.085938 h -14.12109 v 9.140625 h 12.32422 z"
           id="path888" />
        <path
           d="m 140.74219,-12.675781 q -4.82422,-1.386719 -7.03125,-3.398438 -2.1875,-2.03125 -2.1875,-5 0,-3.359375 2.67578,-5.546875 2.69531,-2.207031 6.99219,-2.207031 2.92968,0 5.21484,1.132813 2.30469,1.132812 3.55469,3.125 1.26953,1.992187 1.26953,4.355468 h -3.76953 q 0,-2.578125 -1.64063,-4.042968 -1.64062,-1.484375 -4.6289,-1.484375 -2.77344,0 -4.33594,1.230468 -1.54297,1.210938 -1.54297,3.378907 0,1.738281 1.46484,2.949218 1.48438,1.191407 5.01953,2.1875 3.55469,0.996094 5.54688,2.207031 2.01172,1.191407 2.96875,2.792969 0.97656,1.6015627 0.97656,3.7695315 0,3.4570312 -2.69531,5.546875 -2.69531,2.0703125 -7.20703,2.0703125 -2.92969,0 -5.46875,-1.11328125 -2.53906,-1.13281245 -3.92578,-3.08593755 -1.36719,-1.9531249 -1.36719,-4.4335937 h 3.76953 q 0,2.578125 1.89453,4.0820313 1.91406,1.4843749 5.09766,1.4843749 2.96875,0 4.55078,-1.2109375 1.58203,-1.2109374 1.58203,-3.3007812 0,-2.0898438 -1.46484,-3.222656 -1.46485,-1.152344 -5.3125,-2.265625 z"
           id="path890" />
        <path
           d="m 169.76562,-3.0664063 h 13.47657 V 0 h -17.2461 v -28.4375 h 3.76953 z"
           id="path892" />
        <path
           d="m 191.54297,0 h -3.75 v -28.4375 h 3.75 z"
           id="path894" />
        <path
           d="m 219.31641,-9.0234375 q -0.52735,4.5117188 -3.33985,6.9726562 -2.79297,2.4414063 -7.4414,2.4414063 -5.03907,0 -8.08594,-3.6132813 -3.02735,-3.6132812 -3.02735,-9.6679687 V -15.625 q 0,-3.964844 1.40625,-6.972656 1.42579,-3.007813 4.02344,-4.609375 2.59766,-1.621094 6.01563,-1.621094 4.53125,0 7.26562,2.539063 2.73438,2.519531 3.1836,6.992187 h -3.76954 q -0.48828,-3.398437 -2.1289,-4.921875 -1.6211,-1.523437 -4.55078,-1.523437 -3.59375,0 -5.64453,2.65625 -2.03125,2.65625 -2.03125,7.558593 v 2.753906 q 0,4.6289067 1.93359,7.3632818 1.93359,2.7343749 5.41016,2.7343749 3.125,0 4.78515,-1.4062499 1.67969,-1.4257813 2.22656,-4.9414063 z"
           id="path896" />
        <path
           d="m 246.28906,0 h -3.76953 V -13.144531 H 228.18359 V 0 h -3.75 v -28.4375 h 3.75 v 12.226563 h 14.33594 V -28.4375 h 3.76953 z"
           id="path898" />
        <path
           d="m 272.03125,-25.351562 h -9.14063 V 0 h -3.73046 v -25.351562 h -9.1211 V -28.4375 h 21.99219 z"
           id="path900" />
        <path
           d="M -56.540627,35.441406 H -68.47422 V 48 h -3.75 V 19.5625 h 17.617187 v 3.085937 H -68.47422 V 32.375 h 11.933593 z"
           id="path902" />
        <path
           d="m -30.095314,19.5625 v 19.335937 q -0.01953,4.023438 -2.539063,6.582032 -2.5,2.558593 -6.796875,2.871093 l -0.996093,0.03906 q -4.667969,0 -7.441407,-2.519531 -2.773437,-2.519532 -2.8125,-6.933594 v -19.375 h 3.710938 v 19.257812 q 0,3.085938 1.699219,4.804688 1.699218,1.699219 4.84375,1.699219 3.183593,0 4.863281,-1.699219 1.699219,-1.699219 1.699219,-4.785156 V 19.5625 Z m -16.5625,-4.394531 q 0,-0.878906 0.527344,-1.464844 0.546875,-0.605469 1.601562,-0.605469 1.054688,0 1.601563,0.605469 0.546875,0.585938 0.546875,1.464844 0,0.878906 -0.546875,1.464843 -0.546875,0.585938 -1.601563,0.585938 -1.054687,0 -1.601562,-0.585938 -0.527344,-0.585937 -0.527344,-1.464843 z m 8.398437,0.03906 q 0,-0.878906 0.527344,-1.484375 0.546875,-0.605468 1.601563,-0.605468 1.054687,0 1.601562,0.605468 0.546875,0.605469 0.546875,1.484375 0,0.878906 -0.546875,1.464844 -0.546875,0.585937 -1.601562,0.585937 -1.054688,0 -1.601563,-0.585937 -0.527344,-0.585938 -0.527344,-1.464844 z"
           id="path904" />
        <path
           d="m -13.747658,36.496094 h -6.679687 V 48 h -3.769532 V 19.5625 h 9.414063 q 4.8046875,0 7.3828125,2.1875 2.5976562,2.1875 2.5976562,6.367187 0,2.65625 -1.4453125,4.628907 -1.4257812,1.972656 -3.9843752,2.949218 l 6.6796877,12.070313 V 48 h -4.0234375 z m -6.679687,-3.066407 h 5.761718 q 2.792969,0 4.433594,-1.445312 1.6601565,-1.445313 1.6601565,-3.867188 0,-2.636718 -1.5820315,-4.042968 -1.5625,-1.40625 -4.53125,-1.425782 h -5.742187 z"
           id="path906" />
        <path
           d="m 14.377342,48 h -3.75 V 19.5625 h 3.75 z"
           id="path908" />
        <path
           d="M 43.08828,48 H 39.318748 V 34.855469 H 24.982811 V 48 h -3.75 V 19.5625 h 3.75 V 31.789062 H 39.318748 V 19.5625 h 3.769532 z"
           id="path910" />
        <path
           d="M 60.178123,36.496094 H 53.498436 V 48 H 49.728905 V 19.5625 h 9.414062 q 4.804688,0 7.382813,2.1875 2.597656,2.1875 2.597656,6.367187 0,2.65625 -1.445313,4.628907 -1.425781,1.972656 -3.984375,2.949218 l 6.679688,12.070313 V 48 h -4.023438 z m -6.679687,-3.066407 h 5.761719 q 2.792968,0 4.433593,-1.445312 1.660157,-1.445313 1.660157,-3.867188 0,-2.636718 -1.582032,-4.042968 -1.5625,-1.40625 -4.53125,-1.425782 h -5.742187 z"
           id="path912" />
        <path
           d="M 90.451561,34.855469 H 78.127342 V 44.933594 H 92.443748 V 48 H 74.377342 V 19.5625 h 17.871094 v 3.085937 H 78.127342 v 9.140625 h 12.324219 z"
           id="path914" />
        <path
           d="M 110.76406,36.867187 V 48 h -3.75 V 19.5625 h 10.48828 q 4.66797,0 7.30469,2.382812 2.65625,2.382813 2.65625,6.308594 0,4.140625 -2.59766,6.386719 -2.57812,2.226562 -7.40234,2.226562 z m 0,-3.066406 h 6.73828 q 3.00781,0 4.60938,-1.40625 1.60156,-1.425781 1.60156,-4.101562 0,-2.539063 -1.60156,-4.0625 -1.60157,-1.523438 -4.39453,-1.582032 h -6.95313 z"
           id="path916" />
        <path
           d="m 142.67812,36.496094 h -6.67968 V 48 H 132.2289 V 19.5625 h 9.41407 q 4.80468,0 7.38281,2.1875 2.59766,2.1875 2.59766,6.367187 0,2.65625 -1.44532,4.628907 -1.42578,1.972656 -3.98437,2.949218 l 6.67969,12.070313 V 48 H 148.85 Z m -6.67968,-3.066407 h 5.76171 q 2.79297,0 4.4336,-1.445312 1.66015,-1.445313 1.66015,-3.867188 0,-2.636718 -1.58203,-4.042968 -1.5625,-1.40625 -4.53125,-1.425782 h -5.74218 z"
           id="path918" />
        <path
           d="m 178.75234,34.699219 q 0,4.179687 -1.40625,7.304687 -1.40625,3.105469 -3.98437,4.746094 -2.57813,1.640625 -6.01563,1.640625 -3.35937,0 -5.95703,-1.640625 -2.59766,-1.660156 -4.04297,-4.707031 -1.42578,-3.066407 -1.46484,-7.089844 v -2.050781 q 0,-4.101563 1.42578,-7.246094 1.42578,-3.144531 4.02344,-4.804688 2.61718,-1.679687 5.97656,-1.679687 3.41797,0 6.01562,1.660156 2.61719,1.640625 4.02344,4.785156 1.40625,3.125 1.40625,7.285157 z m -3.73047,-1.835938 q 0,-5.058594 -2.03125,-7.753906 -2.03125,-2.714844 -5.68359,-2.714844 -3.55469,0 -5.60547,2.714844 -2.03125,2.695312 -2.08984,7.5 v 2.089844 q 0,4.902343 2.05078,7.714843 2.07031,2.792969 5.68359,2.792969 3.63281,0 5.625,-2.636719 1.99219,-2.65625 2.05078,-7.597656 z"
           id="path920" />
        <path
           d="M 184.37734,48 V 19.5625 h 8.02735 q 3.71093,0 6.5625,1.640625 2.85156,1.640625 4.39453,4.667969 1.5625,3.027343 1.58203,6.953125 v 1.816406 q 0,4.023437 -1.5625,7.050781 -1.54297,3.027344 -4.4336,4.648438 Q 196.07656,47.960937 192.24844,48 Z m 3.75,-25.351563 v 22.285157 h 3.94531 q 4.33594,0 6.73829,-2.695313 2.42187,-2.695312 2.42187,-7.675781 v -1.660156 q 0,-4.84375 -2.28516,-7.519532 -2.26562,-2.695312 -6.44531,-2.734375 z"
           id="path922" />
        <path
           d="m 230.62734,19.5625 v 19.335937 q -0.0195,4.023438 -2.53906,6.582032 -2.5,2.558593 -6.79688,2.871093 l -0.99609,0.03906 q -4.66797,0 -7.44141,-2.519531 -2.77343,-2.519532 -2.8125,-6.933594 v -19.375 h 3.71094 v 19.257812 q 0,3.085938 1.69922,4.804688 1.69922,1.699219 4.84375,1.699219 3.18359,0 4.86328,-1.699219 1.69922,-1.699219 1.69922,-4.785156 V 19.5625 Z"
           id="path924" />
        <path
           d="m 243.77187,34.777344 -3.47656,3.613281 V 48 h -3.75 V 19.5625 h 3.75 V 33.625 l 12.63672,-14.0625 h 4.53125 L 246.27187,32.121094 258.34219,48 H 253.85 Z"
           id="path926" />
        <path
           d="m 281.27187,22.648437 h -9.14062 V 48 h -3.73047 V 22.648437 h -9.12109 V 19.5625 h 21.99218 z"
           id="path928" />
        <path
           d="m 289.51406,48 h -3.75 V 19.5625 h 3.75 z"
           id="path930" />
        <path
           d="m 318.24453,34.699219 q 0,4.179687 -1.40625,7.304687 -1.40625,3.105469 -3.98438,4.746094 -2.57812,1.640625 -6.01562,1.640625 -3.35938,0 -5.95703,-1.640625 -2.59766,-1.660156 -4.04297,-4.707031 -1.42578,-3.066407 -1.46484,-7.089844 v -2.050781 q 0,-4.101563 1.42578,-7.246094 1.42578,-3.144531 4.02343,-4.804688 2.61719,-1.679687 5.97657,-1.679687 3.41797,0 6.01562,1.660156 2.61719,1.640625 4.02344,4.785156 1.40625,3.125 1.40625,7.285157 z m -3.73047,-1.835938 q 0,-5.058594 -2.03125,-7.753906 -2.03125,-2.714844 -5.68359,-2.714844 -3.55469,0 -5.60547,2.714844 -2.03125,2.695312 -2.08985,7.5 v 2.089844 q 0,4.902343 2.05079,7.714843 2.07031,2.792969 5.68359,2.792969 3.63281,0 5.625,-2.636719 1.99219,-2.65625 2.05078,-7.597656 z"
           id="path932" />
        <path
           d="m 345.725,48 h -3.76953 L 327.63906,26.085937 V 48 h -3.76953 V 19.5625 h 3.76953 l 14.35547,22.011719 V 19.5625 h 3.73047 z"
           id="path934" />
        <path
           d="m -24.45755,-87.574707 q -6.03418,8.643555 -16.879395,12.965332 -10.763671,4.240234 -25.115234,4.240234 -14.514648,0 -25.767578,-6.768066 -11.252933,-6.849609 -17.450193,-19.407227 -6.11573,-12.557616 -6.27881,-29.110836 v -10.35596 q 0,-26.82764 12.47607,-41.58691 12.55762,-14.75928 35.226566,-14.75928 18.591797,0 29.926269,9.54053 11.334473,9.45898 13.862305,26.90918 H -40.1138 q -4.40332,-23.56592 -28.050781,-23.56592 -15.737793,0 -23.89209,11.08984 -8.072759,11.0083 -8.154299,31.96484 v 9.70362 q 0,19.97803 9.132814,31.801756 9.132813,11.742187 24.70752,11.742187 8.806641,0 15.411621,-1.957031 6.604981,-1.957031 10.926758,-6.60498 v -26.664552 h -27.479981 v -12.7207 h 43.054688 z"
           style="font-size:167px"
           id="path936" />
      </g>
      <path
         d="M 660,295.334 C 660,284.104 669.104,275 680.334,275 h 350.336 c 11.23,0 20.33,9.104 20.33,20.334 v 81.332 c 0,11.23 -9.1,20.334 -20.33,20.334 H 680.334 C 669.104,397 660,387.896 660,376.666 Z"
         stroke="#e7e6e6"
         stroke-width="3.75"
         stroke-miterlimit="8"
         fill="none"
         fill-rule="evenodd"
         id="path143" />
      <path
         d="m 809,339 c 0,-22.091 20.371,-40 45.5,-40 25.129,0 45.5,17.909 45.5,40 0,22.091 -20.371,40 -45.5,40 -25.129,0 -45.5,-17.909 -45.5,-40 z"
         stroke="#e7e6e6"
         stroke-width="7.5"
         stroke-miterlimit="8"
         fill="none"
         fill-rule="evenodd"
         id="path145" />
      <path
         d="m 687.5,339.5 c 0,-22.091 21.938,-40 49,-40 27.062,0 49,17.909 49,40 0,22.091 -21.938,40 -49,40 -27.062,0 -49,-17.909 -49,-40 z"
         stroke="#e7e6e6"
         stroke-width="5"
         stroke-miterlimit="8"
         fill="#217446"
         fill-rule="evenodd"
         id="path147" />
      <path
         d="m 928,339 c 0,-22.091 20.147,-40 45,-40 24.853,0 45,17.909 45,40 0,22.091 -20.147,40 -45,40 -24.853,0 -45,-17.909 -45,-40 z"
         stroke="#e7e6e6"
         stroke-width="7.5"
         stroke-miterlimit="8"
         fill="none"
         fill-rule="evenodd"
         id="path149" />
    </g>
  </g>
</svg>
