<?xml version="1.0" encoding="utf-8"?>
<!-- Generator: Adobe Illustrator 26.3.1, SVG Export Plug-In . SVG Version: 6.00 Build 0)  -->
<svg version="1.1" id="Obenansicht" xmlns="http://www.w3.org/2000/svg" xmlns:xlink="http://www.w3.org/1999/xlink" x="0px"
	 y="0px" viewBox="0 0 1024 768" style="enable-background:new 0 0 1024 768;" xml:space="preserve">
<style type="text/css">
	.brennofen_st0{fill:#CCCCCC;stroke:#000000;stroke-width:3;stroke-miterlimit:10;}
	.brennofen_st1{fill:#B3B3B3;stroke:#808080;stroke-width:2;stroke-miterlimit:10;}
	.brennofen_st2{fill:#4D4D4D;stroke:#000000;stroke-miterlimit:10;}
	.brennofen_st3{fill:#C1282E;stroke:#000000;stroke-miterlimit:10;}
	.brennofen_st4{fill:#808080;stroke:#000000;stroke-miterlimit:10;}
	.brennofen_st5{fill:#333333;stroke:#000000;stroke-miterlimit:10;}
	.brennofen_st6{fill:#C1272D;stroke:#000000;stroke-miterlimit:10;}
	.brennofen_st7{stroke:#000000;stroke-width:2;stroke-miterlimit:10;}
	.brennofen_st8{fill:#B3B3B3;}
	.brennofen_st9{fill:#666666;}
	.brennofen_st10{fill:none;stroke:#4D4D4D;stroke-width:2;stroke-miterlimit:10;}
	.brennofen_st11{fill:#7800BD;stroke:#000000;stroke-miterlimit:10;}
	.brennofen_st12{fill:#F78A15;stroke:#000000;stroke-miterlimit:10;}
	.brennofen_st13{fill:#427C42;stroke:#000000;stroke-miterlimit:10;}
	.brennofen_st14{fill:#C1272D;}
</style>
<rect x="71.6" y="149" class="brennofen_st0" width="864.2" height="466"/>
<polygon class="brennofen_st1" points="669.7,389.8 673.5,386.6 676,390.8 680.6,388.9 681.8,393.6 686.6,393.3 686.3,398.1 691.1,399.3 
	689.3,403.8 693.4,406.3 690.2,410.1 693.4,413.7 689.3,416.2 691.1,420.7 686.3,421.9 686.6,426.7 681.8,426.4 680.6,431.1 
	676,429.2 673.5,433.4 669.7,430.2 665.8,433.4 663.2,429.2 658.7,431.1 657.5,426.4 652.6,426.7 652.9,421.9 648.3,420.7 
	650.1,416.2 645.9,413.7 649.1,410.1 645.9,406.3 650.1,403.8 648.3,399.3 652.9,398.1 652.6,393.3 657.5,393.6 658.7,388.9 
	663.2,390.8 665.8,386.6 "/>
<rect x="646.6" y="308.2" class="brennofen_st2" width="49.6" height="43.8"/>
<rect x="139.4" y="547.8" class="brennofen_st3" width="650.3" height="8.9"/>
<rect x="251.9" y="467.6" class="brennofen_st3" width="95.4" height="54.8"/>
<rect x="242.6" y="467" class="brennofen_st3" width="15" height="63.1"/>
<rect x="339.5" y="467.2" class="brennofen_st3" width="14.1" height="64.2"/>
<rect x="138" y="243.5" class="brennofen_st4" width="368.4" height="224.2"/>
<rect x="176.2" y="276.2" class="brennofen_st2" width="291.2" height="158.4"/>
<rect x="212.3" y="280.2" class="brennofen_st5" width="19.4" height="150.4"/>
<rect x="605.8" y="482.6" class="brennofen_st6" width="112.3" height="106.9"/>
<line class="brennofen_st7" x1="669.4" y1="413.3" x2="669.4" y2="352.7"/>
<rect x="814.9" y="451.4" class="brennofen_st8" width="80" height="29.9"/>
<rect x="814.9" y="421.5" class="brennofen_st9" width="80" height="29.9"/>
<rect x="814.9" y="481.4" width="80" height="29.9"/>
<rect x="814.9" y="541.7" class="brennofen_st8" width="80" height="29.9"/>
<rect x="814.9" y="511.5" class="brennofen_st9" width="80" height="29.9"/>
<rect x="814.9" y="571" width="80" height="29.9"/>
<rect x="814.9" y="631" class="brennofen_st8" width="80" height="29.9"/>
<rect x="814.9" y="601.1" class="brennofen_st9" width="80" height="29.9"/>
<rect x="814.5" y="421.4" class="brennofen_st10" width="80" height="239.2"/>
<rect x="789.8" y="434" class="brennofen_st6" width="127.9" height="128.2"/>
<rect x="879.8" y="359.5" class="brennofen_st11" width="55.2" height="74.4"/>
<rect x="789.8" y="587" class="brennofen_st12" width="25.2" height="24.7"/>
<rect x="163.8" y="519" class="brennofen_st13" width="42.4" height="21.6"/>
<rect x="353.5" y="467.9" class="brennofen_st12" width="66.4" height="51.2"/>
<rect x="410.1" y="280.6" class="brennofen_st5" width="19.4" height="150.4"/>
<rect x="311.7" y="280.6" class="brennofen_st5" width="19.4" height="150.4"/>
<rect x="213" y="280.9" class="brennofen_st14" width="18" height="6"/>
<rect x="410.6" y="425" class="brennofen_st14" width="18.1" height="5.3"/>
<rect x="410.5" y="281.1" class="brennofen_st14" width="18.4" height="5.9"/>
<rect x="312.2" y="425" class="brennofen_st14" width="18.3" height="5.5"/>
<rect x="312" y="280.6" class="brennofen_st14" width="19.2" height="6"/>
<rect x="212.9" y="423.9" class="brennofen_st14" width="18.2" height="6"/>
<rect x="718.1" y="571.3" class="brennofen_st13" width="24" height="28"/>
<rect x="605.9" y="584.9" class="brennofen_st11" width="56.6" height="14.3"/>
<rect x="662.1" y="585" class="brennofen_st11" width="55.9" height="14.3"/>
<rect x="789.8" y="562.3" class="brennofen_st13" width="25.1" height="24.8"/>
<rect x="646.6" y="238.6" class="brennofen_st11" width="49.6" height="69.9"/>
<rect x="696.2" y="238.6" class="brennofen_st2" width="133.6" height="69.9"/>
</svg>
