<?xml version="1.0" encoding="utf-8"?>
<!-- Generator: Adobe Illustrator 26.3.1, SVG Export Plug-In . SVG Version: 6.00 Build 0)  -->
<svg version="1.1" xmlns="http://www.w3.org/2000/svg" xmlns:xlink="http://www.w3.org/1999/xlink" x="0px" y="0px"
	 viewBox="0 0 1024 768" style="enable-background:new 0 0 1024 768;" xml:space="preserve">
<style type="text/css">
	.st0{fill:#B3B3B3;stroke:#000000;stroke-width:0.78;stroke-miterlimit:10;}
	.st1{fill:#CCCCCC;stroke:#000000;stroke-miterlimit:10;}
	.st2{fill:#B3B3B3;stroke:#000000;stroke-miterlimit:10;}
	.st3{fill:#808080;stroke:#000000;stroke-miterlimit:10;}
	.st4{fill:#CCCCCC;}
	.st5{fill:#808080;stroke:#000000;stroke-width:0.78;stroke-miterlimit:10;}
	.st6{fill:#CCCCCC;stroke:#000000;stroke-width:0.78;stroke-miterlimit:10;}
	.st7{fill:#B3B3B3;}
	.st8{fill:#29ABE2;}
	.st9{display:none;}
	.st10{display:inline;}
	.st11{fill:#0000FF;}
	.st12{font-family:'Roboto-Bold';}
	.st13{font-size:18.7478px;}
	.st14{fill:#F2F2F2;}
	.st15{fill:#1A1A1A;}
	.st16{fill:#4D4D4D;}
	.st17{fill:#C1272D;}
	.st18{fill:none;stroke:#000000;stroke-miterlimit:10;}
	.st19{fill:#333333;stroke:#000000;stroke-miterlimit:10;}
	.st20{fill:#999999;stroke:#000000;stroke-miterlimit:10;}
	.st21{fill:#FBB03B;stroke:#000000;stroke-miterlimit:10;}
	.st22{fill:#808080;}
</style>
<g id="Wipphebel">
	<polyline class="st0" points="543.5,340.5 548.5,326.4 563,326.2 565.4,340 	"/>
	<polyline class="st0" points="597.2,340.5 601.6,327.4 616.1,327.2 618.3,340.5 	"/>
	<rect x="460.2" y="340.1" class="st1" width="205.6" height="76.9"/>
	<circle class="st2" cx="565.2" cy="497.2" r="125"/>
	<rect x="69.4" y="654.2" class="st3" width="763.2" height="22.8"/>
	<rect x="520.2" y="604.8" class="st2" width="91.2" height="49.4"/>
	<g>
		<path class="st4" d="M555.5,239.2c-2.6-7.6-5.8-17.6-9.6-24.7c-3.8-7-9.1-13.5-16-17.8c-4.2-2.6-9.3-4.3-14.2-3.3
			c-5.1,1.1-9,5.1-12.1,9.2c-13.7,18.4-16.9,42.1-19.1,66.9c-2.1,23.4-0.6,46.6-1.1,70.4h9.4c-1-35.9-3.4-75.8,5.7-110.6
			c2-7.5,6.2-17,12.1-22.8c7.1-7,12-6.2,16-3.7c5.7,3.7,6.9,5.4,9,8.6c5.8,8.9,9.3,17.8,12.8,27.8L555.5,239.2z"/>
		<g>
			<path d="M556.1,239c-4.4-12.9-8.5-26.4-18.1-36.5c-4.6-4.8-10.6-9.1-17.4-9.9c-7-0.8-12.5,3.5-16.6,8.7
				c-8.5,10.8-13.1,24-15.8,37.3c-1.4,7-2.4,14.1-3.2,21.2c-0.9,8-1.5,15.9-1.8,23.9c-0.6,16.6,0,33.2-0.1,49.9c0,2.1,0,4.3-0.1,6.4
				c0,0.3,0.3,0.6,0.6,0.6c3.1,0,6.3,0,9.4,0c0.3,0,0.6-0.3,0.6-0.6c-0.8-27.9-2.4-56.1,0.9-83.9c0.8-6.9,1.9-13.8,3.4-20.5
				c1.4-6.2,3.1-12.2,6-17.9c2.8-5.5,6.6-11,11.9-14.3c2-1.2,4.2-2,6.5-1.7c2.2,0.3,4.1,1.5,5.8,2.7c2.2,1.5,4.3,3.2,5.9,5.4
				c1.9,2.7,3.6,5.6,5.2,8.5c3.6,6.8,6.4,14,8.9,21.2c0.1,0.2,0.3,0.4,0.6,0.4c2.3-0.1,4.6-0.1,7-0.2c0.8,0,0.8-1.2,0-1.2
				c-2.3,0.1-4.6,0.1-7,0.2c0.2,0.1,0.4,0.3,0.6,0.4c-2.3-6.7-4.8-13.3-8-19.5c-1.6-3.1-3.3-6-5.2-8.9c-1.1-1.7-2.3-3.3-3.9-4.7
				c-3.2-2.9-7.5-6.1-12.1-5.6c-5.5,0.7-10.2,5.5-13.3,9.7c-7.8,10.7-10.5,24.4-12.5,37.2c-2.2,14.3-3,28.8-3.1,43.2
				c-0.1,16.4,0.6,32.9,1.1,49.3c0.2-0.2,0.4-0.4,0.6-0.6c-3.1,0-6.3,0-9.4,0c0.2,0.2,0.4,0.4,0.6,0.6c0.3-16.2-0.3-32.3,0-48.5
				c0.2-15,1.4-30.1,3.8-44.9c2.1-13.2,5.6-26.4,12.5-37.9c3.3-5.4,7.5-11.7,13.7-14.1c7-2.6,14.4,1.2,19.7,5.6
				c11.9,9.9,16.4,25,21.2,39.1C555.2,240.1,556.4,239.8,556.1,239z"/>
		</g>
	</g>
	<polygon class="st5" points="547,239.6 557.3,239.1 563,307.2 546.7,308.1 	"/>
	<path class="st6" d="M548.5,326.4c0,0-0.7-17.2-0.7-18.1l13.6-0.8l0.7,18.7L548.5,326.4z"/>
	<g>
		<path class="st4" d="M596.2,176.6c-2,2.6-1.7,6.2-1.4,9.4c2,17.8,4.2,36.9,6.2,54.8l5.4-0.3c-1.5-19.5-4.7-40.2-5.6-58.8
			c-0.2-3.7-3.3-5.6-4.5-4.8"/>
		<g>
			<path d="M595.7,176.3c-2.2,3-1.8,6.7-1.4,10.1c0.5,4.3,0.9,8.6,1.4,12.9c1,8.9,2,17.8,3,26.7c0.6,4.9,1.1,9.8,1.6,14.8
				c0,0.3,0.2,0.6,0.6,0.6c1.8-0.1,3.6-0.2,5.4-0.3c0.3,0,0.6-0.3,0.6-0.6c-0.8-10.1-1.9-20.2-3.1-30.2c-0.5-5-1.1-10-1.5-15
				c-0.2-2.4-0.4-4.9-0.6-7.3c-0.2-2.3-0.1-4.7-0.4-7c-0.3-2-2.7-6.2-5.3-4.6c-0.7,0.4-0.1,1.4,0.6,1c1-0.6,2.3,1,2.7,1.7
				c1.1,1.7,0.9,3.8,1,5.8c0.3,4.3,0.6,8.7,1,13c0.9,9.1,1.9,18.1,2.9,27.1c0.5,5.2,1,10.3,1.4,15.5c0.2-0.2,0.4-0.4,0.6-0.6
				c-1.8,0.1-3.6,0.2-5.4,0.3c0.2,0.2,0.4,0.4,0.6,0.6c-1.9-17-3.9-34-5.8-51c-0.5-4.1-1.7-9.2,0.9-12.8
				C597.2,176.3,596.2,175.7,595.7,176.3L595.7,176.3z"/>
		</g>
	</g>
	<g>
		<path class="st4" d="M571.8,339.9c11-20,18.3-42.9,21.4-65.5c3.1-22.5,3.5-45.4,3.8-68.1l-2.3-26c-1.8,25.7-3.4,51.4-5.8,76.9
			c-1.4,14.4-4.4,28.9-8.5,42.8c-3.5,12.1-9.7,24.4-15.4,35.6l0.4,4.4L571.8,339.9z"/>
		<g>
			<path d="M572.3,340.2c6.3-11.6,11.4-23.9,15.2-36.5c3.9-12.9,6.2-26.1,7.6-39.5c1.5-14.3,2-28.7,2.3-43.1
				c0.1-3.6,0.1-7.2,0.2-10.8c0-1.5,0.1-3,0-4.5c-0.2-2.5-0.4-5-0.7-7.4c-0.5-6-1.1-12-1.6-18c-0.1-0.8-1.1-0.8-1.2,0
				c-1.6,23-3.1,46-5.1,69c-2,22.2-5.8,44.6-14.6,65.2c-2.4,5.6-5.1,11-7.8,16.4c-0.7,1.4-1.5,2.7-2.1,4.1c-0.2,0.5-0.2,0.7-0.1,1.2
				c0.1,1.2,0.2,2.4,0.4,3.6c0,0.3,0.2,0.6,0.6,0.6c2.1,0,4.3,0,6.4-0.1c0.8,0,0.8-1.2,0-1.2c-2.1,0-4.3,0-6.4,0.1
				c0.2,0.2,0.4,0.4,0.6,0.6c-0.1-1-0.2-2.1-0.3-3.1c0-0.3-0.2-0.9-0.1-1.2c0.1-0.4,0.5-1,0.7-1.3c0.3-0.7,0.7-1.4,1-2.1
				c2.5-4.9,4.9-9.9,7.1-14.9c4.4-10,7.6-20.3,10.1-30.9c5.2-22,6.4-44.6,8-67.1c0.9-13,1.8-26,2.7-39c-0.4,0-0.8,0-1.2,0
				c0.5,5.1,0.9,10.2,1.4,15.2c0.3,3,0.5,5.9,0.8,8.9c0.3,3.6,0.1,7.2,0,10.7c-0.5,27.8-1.2,56-8.5,83c-3.9,14.4-9.4,28.4-16.5,41.5
				C570.9,340.3,571.9,340.9,572.3,340.2z"/>
		</g>
	</g>
	<polygon class="st5" points="610.4,240.3 616.1,308.2 599.8,309.1 600,240.7 	"/>
	<path class="st6" d="M601.6,327.4c0,0-0.7-17.2-0.7-18.1l13.6-0.7l0.7,18.6L601.6,327.4z"/>
	<g>
		<g>
			<path class="st7" d="M590.6,612.2c-2.2,1.7-3.7,3.9-4.4,6.5c-0.2,1,0.7,2.3,1.8,1.8c2.2-0.9,4.2-2.1,6-3.6
				c-0.7-0.7-1.4-1.4-2.1-2.1c-0.5,0.6-1.1,1.2-1.6,1.8c-1.3,1.4,0.7,3.5,2.1,2.1c1-1,2-2,3-3c1.2-1.2-0.3-3.2-1.8-2.4
				c-1.3,0.7-2.6,1.6-3.6,2.7c-1.2,1.2,0.3,3.3,1.8,2.4c2.5-1.5,5.1-2.8,7.8-3.7c-0.6-0.7-1.1-1.5-1.7-2.2c-0.6,0.8-1.4,1.5-2.3,2
				c0.5,0.9,1,1.7,1.5,2.6c1.8-1.1,3.6-1.9,5.6-2.4c-0.4-0.9-0.8-1.8-1.2-2.7c-1.6,0.9-3.3,1.9-4.9,2.8c-1.4,0.8-0.5,3.4,1.2,2.7
				c1.8-0.7,3.6-1.4,5.5-2.1c-0.4-0.9-0.8-1.8-1.2-2.7c-2,0.9-4,1.5-6.2,1.9c0.4,0.9,0.8,1.8,1.2,2.7c1.9-0.8,3.9-1.4,5.9-1.7
				c-0.3-1-0.5-1.9-0.8-2.9c-3,0.8-6.1,1.3-9.2,1.3c0.3,0.9,0.5,1.9,0.8,2.8c0.9-0.5,1.8-1,2.7-1.5c1.5-0.9,0.5-3.1-1.2-2.7
				c-3.6,0.8-7.2,1.7-10.8,2.9c0.4,0.9,0.8,1.8,1.2,2.7c2.2-0.9,4.3-1.9,6.5-2.8c1.5-0.7,0.4-3.3-1.2-2.7c-3.1,1.1-6.1,2.2-9.2,3.3
				c0.4,0.9,0.8,1.8,1.2,2.7c1.6-0.8,3.3-1.7,4.9-2.5c1.7-0.9,0.2-3.4-1.5-2.6c-1.9,0.9-4,1.5-6.1,1.8c0.5,0.8,1,1.7,1.5,2.5
				c1-1,2-2,3.1-3c-0.7-0.7-1.4-1.4-2.1-2.1c-0.2,0.2-1.8,1.9-2,1.3c-0.5-1.3-2-1.4-2.7-0.4c-0.3,0.4-0.7,0.9-1,1.3
				c0.8-0.1,1.6-0.2,2.4-0.3c-0.3-0.3-0.5-0.5-0.8-0.8c-0.6-0.6-2-0.6-2.4,0.3c-0.2,0.4-0.4,0.8-0.5,1.2c-0.7,1.8,1.8,3.3,2.6,1.5
				c0.2-0.4,0.4-0.8,0.5-1.2c-0.8,0.1-1.6,0.2-2.4,0.3c0.3,0.3,0.5,0.5,0.8,0.8c0.8,0.7,1.8,0.5,2.4-0.3c0.3-0.4,0.7-0.9,1-1.3
				c-0.9-0.1-1.8-0.2-2.7-0.4c0.5,1.4,1.7,2.3,3.2,2.2c1.6,0,2.8-1.1,3.9-2.2c1.3-1.4-0.7-3.5-2.1-2.1c-1,1-2,2-3.1,3
				c-1.2,1.2,0.1,2.7,1.5,2.5c2.4-0.3,4.7-1.1,6.8-2.1c-0.5-0.9-1-1.7-1.5-2.6c-1.6,0.8-3.3,1.7-4.9,2.5c-1.5,0.8-0.5,3.3,1.2,2.7
				c3.1-1.1,6.1-2.2,9.2-3.3c-0.4-0.9-0.8-1.8-1.2-2.7c-2.2,0.9-4.3,1.9-6.5,2.8c-1.6,0.7-0.4,3.3,1.2,2.7c3.5-1.1,7.1-2.1,10.8-2.9
				c-0.4-0.9-0.8-1.8-1.2-2.7c-0.9,0.5-1.8,1-2.7,1.5c-1.3,0.7-0.7,2.8,0.8,2.8c3.4,0,6.8-0.5,10-1.4c1.9-0.5,1.1-3.2-0.8-2.9
				c-2.3,0.4-4.5,1.1-6.6,2c-1.6,0.7-0.4,3,1.2,2.7c2.4-0.4,4.7-1.2,6.9-2.2c1.5-0.7,0.4-3.3-1.2-2.7c-1.8,0.7-3.6,1.4-5.5,2.1
				c0.4,0.9,0.8,1.8,1.2,2.7c1.6-0.9,3.3-1.9,4.9-2.8c1.5-0.9,0.5-3.1-1.2-2.7c-2.3,0.5-4.4,1.4-6.3,2.7c-1.6,1-0.2,3.5,1.5,2.6
				c1.4-0.8,2.4-1.8,3.4-3c0.8-1-0.5-2.6-1.7-2.2c-3,1-5.8,2.4-8.5,4c0.6,0.8,1.2,1.6,1.8,2.4c0.9-0.9,1.9-1.6,3-2.2
				c-0.6-0.8-1.2-1.6-1.8-2.4c-1,1-2,2-3,3c0.7,0.7,1.4,1.4,2.1,2.1c0.5-0.6,1.1-1.2,1.6-1.8c1.3-1.5-0.6-3.3-2.1-2.1
				c-1.4,1.1-3,2.1-4.7,2.8c0.6,0.6,1.2,1.2,1.8,1.8c0.5-1.9,1.4-3.6,3-4.7c0.6-0.5,1-1.3,0.5-2.1
				C592.3,612.1,591.3,611.7,590.6,612.2L590.6,612.2z"/>
		</g>
	</g>
	<g>
		<g>
			<path class="st7" d="M574.6,614.3c0.2,0.6,0.4,1.2,0.5,1.8c0-0.1,0-0.3-0.1-0.4c0.1,0.4,0.1,0.8,0.1,1.2c1,0,2,0,3,0
				c-0.1-0.7-0.2-1.4-0.3-2c0-0.2,0-0.4-0.1-0.6c-0.1-0.2-0.2-0.3-0.3-0.5c-0.3-0.3-0.7-0.5-1.1-0.4c-0.4,0-0.8,0.1-1.1,0.4
				c-0.2,0.3-0.5,0.7-0.4,1.1c0.1,0.7,0.2,1.4,0.3,2c0,0.2,0,0.4,0.1,0.6c0.1,0.2,0.2,0.3,0.3,0.5c0.3,0.3,0.7,0.5,1.1,0.4
				c0.8,0,1.5-0.7,1.5-1.5c0-1.1-0.1-2.3-0.6-3.4c0-0.2-0.1-0.4-0.3-0.5c-0.1-0.2-0.2-0.3-0.4-0.4c-0.3-0.2-0.8-0.3-1.2-0.2
				c-0.4,0.1-0.7,0.3-0.9,0.7C574.6,613.5,574.5,614,574.6,614.3L574.6,614.3z"/>
		</g>
	</g>
	<g>
		<path class="st8" d="M565.9,617.1c-0.4,0.2-0.7,0.3-1.1,0.5C565.2,617.5,565.5,617.3,565.9,617.1c-0.4,0.1-0.8,0.3-1.2,0.4
			c0.4-0.2,0.8-0.6,1.1-1c-0.7,0.2-1.3,0.5-2,0.7c0.4-0.3,0.8-0.5,1.2-0.8c-0.5,0.2-1,0.5-1.4,0.7c0.3-0.2,0.6-0.4,1-0.5
			c-0.6,0.3-1.2,0.7-1.6,1.1c0.3-0.1,0.7-0.2,0.9-0.5c-0.3,0-0.5,0.1-0.7,0.3c0.2-0.1,0.5-0.3,0.7-0.4c-0.3,0.1-0.7,0.2-0.9,0.4
			c0.3-0.1,0.5-0.3,0.8-0.4c-0.2,0.2-0.5,0.4-0.7,0.5c0.6-0.3,1.3-0.6,1.9-0.9c-0.7,0.2-1.3,0.5-1.9,0.9c0.6-0.2,1.2-0.6,1.6-1.2
			c-0.5,0.3-1,0.6-1.4,0.9c0.4-0.3,0.7-0.6,1.1-0.8c-0.4,0.3-0.9,0.6-1.3,0.9c0.2-0.1,0.5-0.2,0.7-0.3c-0.5,0.2-0.9,0.5-1.3,0.9
			c1.4,0.3,2.9-0.3,3.7-1.5c0.1-0.2,0.2-0.4,0.5-0.5c0.2,0,0.4,0.1,0.5,0.3s0.1,0.4,0.1,0.6c-0.2-0.2,0-0.5,0.2-0.5
			c0.2,0,0.4,0.3,0.3,0.5c-0.1-0.2-0.2-0.5-0.1-0.7c0.3,0.4,0.5,0.9,0.3,1.4c0-0.4-0.1-0.8-0.1-1.2c0.4,0.5,0.4,1.3,0.2,1.9
			s-0.7,1.1-1.2,1.6"/>
		<g>
			<path class="st8" d="M565.1,615.8c-0.4,0.2-0.7,0.3-1.1,0.5c0.5,0.9,1,1.7,1.5,2.6c0.3-0.2,0.7-0.3,1-0.5
				c0.3-0.1,0.6-0.6,0.7-0.9c0.1-0.3,0.1-0.7-0.1-1c-0.3-0.6-1.1-1.1-1.8-0.9c-0.4,0.1-0.8,0.3-1.1,0.4c0.4,0.9,0.8,1.8,1.2,2.7
				c0.5-0.3,1-0.7,1.4-1.2c0.2-0.3,0.4-0.5,0.4-0.9c0-0.3,0-0.7-0.2-1c-0.3-0.5-1.1-0.9-1.7-0.7c-0.7,0.2-1.3,0.5-2,0.7
				c0.4,0.9,0.8,1.8,1.2,2.7c0.4-0.3,0.8-0.5,1.2-0.8c0.7-0.4,1-1.4,0.5-2.1c-0.5-0.7-1.3-0.9-2.1-0.5c-0.5,0.2-1,0.5-1.4,0.7
				c0.6,0.8,1.2,1.6,1.8,2.4c-0.1,0-0.1,0.1-0.2,0.1c0,0,0.1-0.1,0.1-0.1c0.1,0,0.1-0.1,0.2-0.1c0.2-0.1,0,0-0.1,0
				c0.1,0,0.2-0.1,0.3-0.1c-0.4-0.9-0.8-1.8-1.2-2.7c-0.7,0.3-1.4,0.8-1.9,1.4c-0.5,0.5-0.6,1.3-0.2,1.8c0.4,0.6,1,0.9,1.7,0.7
				c0.6-0.2,1.1-0.5,1.6-0.9c0.2-0.1,0.3-0.4,0.4-0.7c0.1-0.3,0.1-0.7-0.1-1c-0.2-0.6-0.8-0.9-1.4-0.9c-0.8,0-1.5,0.4-1.9,1.1
				c-0.4,0.5-0.2,1.4,0.2,1.8c0.5,0.5,1.2,0.6,1.8,0.2c0.2-0.1,0.5-0.3,0.7-0.4c0.7-0.4,0.9-1.2,0.6-1.9c-0.3-0.7-1-1.1-1.8-0.9
				c-0.5,0.1-0.9,0.3-1.3,0.6c-0.7,0.4-1,1.3-0.5,2.1c0.4,0.7,1.3,0.9,2.1,0.5c0.3-0.1,0.5-0.3,0.8-0.4c-0.5-0.9-1-1.7-1.5-2.6
				c-0.2,0.2-0.5,0.4-0.7,0.5c-0.3,0.2-0.6,0.5-0.7,0.9c-0.1,0.4-0.1,0.8,0.2,1.2c0.5,0.7,1.3,0.9,2.1,0.5c0.6-0.3,1.3-0.6,1.9-0.9
				c0.7-0.3,0.9-1.2,0.6-1.9c-0.3-0.6-1.1-1.1-1.8-0.9c-0.8,0.3-1.6,0.6-2.3,1c-0.6,0.4-0.9,1.2-0.6,1.9c0.3,0.6,1.1,1.1,1.8,0.9
				c1-0.4,1.9-1,2.5-1.9c0.4-0.5,0.2-1.4-0.2-1.8c-0.5-0.4-1.2-0.6-1.8-0.2c-0.5,0.3-1,0.6-1.4,0.9c0.6,0.8,1.2,1.6,1.8,2.4
				c0.4-0.3,0.7-0.6,1.1-0.8c0.3-0.2,0.5-0.7,0.4-1.1c0-0.3-0.1-0.6-0.3-0.9c-0.4-0.5-1.3-0.8-1.9-0.4c-0.4,0.3-0.9,0.6-1.3,0.9
				c-0.3,0.2-0.6,0.5-0.7,0.9c-0.1,0.4-0.1,0.8,0.2,1.2c0.2,0.3,0.5,0.6,0.9,0.7c0.4,0.1,0.8,0,1.2-0.2c0.2-0.1,0.5-0.2,0.7-0.3
				c0.3-0.1,0.6-0.6,0.7-0.9c0.1-0.4,0.1-0.8-0.2-1.2c-0.2-0.3-0.5-0.6-0.9-0.7c-0.4-0.1-0.8,0-1.2,0.2c-0.6,0.3-1.2,0.7-1.6,1.1
				c-0.8,0.8-0.5,2.2,0.7,2.5c1.2,0.3,2.6,0.1,3.7-0.5c0.5-0.3,1-0.7,1.4-1.2c0.1-0.1,0.2-0.3,0.3-0.4c0,0,0.1-0.1,0.1-0.1
				c0.1-0.1,0.1-0.1,0,0c0,0.1-0.1,0.1-0.2,0.2c-0.1,0.1-0.3,0.2-0.5,0.1c-0.2,0.1-0.4,0.1-0.5,0c-0.2-0.1-0.3-0.2-0.4-0.4
				c0,0-0.1-0.3-0.1-0.1c-0.1-0.4,0-0.2,0,0c0.9-0.3,1.9-0.5,2.8-0.8c0.1,0.3,0.2,0.6,0.1,0.9c-0.1,0.4-0.4,0.7-0.8,0.8
				c-1,0.3-1.9-0.8-1.4-1.7c0.9,0,1.7,0,2.6,0c0,0.1,0.1,0.1,0.1,0.2c0-0.1,0-0.1,0,0c0,0.1,0,0.1,0,0.1c0-0.1,0-0.1,0,0.2
				c-0.8,0.2-1.7,0.4-2.5,0.7c-0.3-0.4,0-0.1,0,0c0-0.1-0.1-0.1-0.1-0.2c0,0.1,0,0.1,0,0.2c0,0.1,0,0.1,0,0c0-0.1,0-0.2,0,0
				c0,0.4,0.1-0.3,0,0c1,0.1,2,0.3,2.9,0.4c0-0.4-0.1-0.8-0.1-1.2c-0.9,0.4-1.7,0.7-2.6,1.1c-0.3-0.3-0.1-0.2-0.1-0.1
				c0.1,0.1-0.1-0.3,0-0.1c0,0.1,0,0.1,0,0.2c0,0.2,0-0.4,0-0.1c0,0.1,0,0.1,0,0.2c0,0.3,0.1-0.3,0-0.1c0,0.1,0,0.1,0,0.2
				c0,0.1-0.1,0.3,0,0.1c0.1-0.2,0,0,0,0.1c0,0.1-0.1,0.1-0.1,0.2c0,0.1-0.1,0.1-0.1,0.2c-0.2,0.3,0,0,0,0c0,0-0.3,0.3-0.3,0.4
				c-0.1,0.1-0.2,0.2-0.3,0.4c-0.5,0.6-0.6,1.6,0,2.1c0.6,0.5,1.6,0.6,2.1,0c0.7-0.7,1.3-1.5,1.6-2.5c0.2-0.6,0.2-1.1,0.1-1.7
				c-0.1-0.6-0.4-1-0.7-1.5c-0.4-0.5-1.1-0.5-1.6-0.3c-0.5,0.2-1,0.8-0.9,1.4c0,0.4,0.1,0.8,0.1,1.2c0.1,0.8,0.5,1.4,1.3,1.5
				c0.7,0.1,1.5-0.3,1.6-1.1c0.3-1,0-2.1-0.7-2.9c-0.7-0.8-2.3-0.4-2.5,0.7c-0.1,0.6-0.1,1.2,0.2,1.8c0.2,0.5,0.8,0.7,1.3,0.7
				c0.5,0,1-0.3,1.3-0.7c0.7-1.2-0.2-2.8-1.6-2.8c-0.6,0-1.2,0.4-1.6,0.9c-0.3,0.6-0.4,1.3,0,1.9c0.4,0.5,1,0.9,1.7,0.7
				c0.6-0.2,1.1-0.8,1.1-1.4c0-0.6-0.1-1.1-0.5-1.6c-0.4-0.5-1-0.9-1.6-0.8c-0.7,0-1.3,0.4-1.6,1c-0.1,0.1-0.1,0.2-0.2,0.3
				c-0.1,0.2,0.2-0.3,0-0.1c0,0-0.1,0.1-0.1,0.1c-0.1,0.1-0.2,0.2-0.3,0.3c-0.1,0.1,0.3-0.2,0.1-0.1c-0.1,0-0.1,0.1-0.2,0.1
				c0,0-0.4,0.2-0.4,0.2c0,0,0.4-0.2,0.1,0c-0.1,0-0.1,0-0.2,0.1c-0.1,0-0.3,0.1-0.4,0.1c-0.3,0.1,0.3,0,0.1,0c-0.1,0-0.1,0-0.2,0
				c-0.1,0-0.3,0-0.4,0c-0.2,0-0.2-0.1,0.1,0c-0.1,0-0.2,0-0.2,0c0.2,0.8,0.4,1.7,0.7,2.5c0.1-0.1,0.2-0.2,0.3-0.3
				c0.1-0.1,0.1-0.1-0.1,0.1c0.1,0,0.1-0.1,0.2-0.1c0.2-0.1,0.4-0.3,0.7-0.4c-0.5-0.9-1-1.7-1.5-2.6c-0.2,0.1-0.5,0.2-0.7,0.3
				c0.5,0.9,1,1.7,1.5,2.6c0.4-0.3,0.9-0.6,1.3-0.9c-0.6-0.8-1.2-1.6-1.8-2.4c-0.4,0.3-0.7,0.6-1.1,0.8c-0.3,0.2-0.5,0.7-0.4,1.1
				c0,0.3,0.1,0.6,0.3,0.9c0.4,0.6,1.3,0.8,1.9,0.4c0.5-0.3,1-0.6,1.4-0.9c-0.7-0.7-1.4-1.4-2.1-2.1c-0.2,0.2,0.2-0.2,0-0.1
				c-0.1,0.1-0.1,0.1-0.1,0.2c-0.1,0.1-0.1,0.1-0.2,0.2c-0.1,0.1-0.2,0.1,0.1,0c-0.1,0.1-0.2,0.1-0.3,0.2c0,0-0.2,0.1-0.2,0.1
				c0.1,0,0.1-0.1,0.2-0.1c-0.1,0-0.1,0-0.2,0.1c0.4,0.9,0.8,1.8,1.2,2.7c0.3-0.2,0.6-0.3,0.9-0.5c0.1,0,0.1-0.1,0.2-0.1
				c0.3-0.1-0.2,0.1,0,0c0.2-0.1,0.3-0.1,0.5-0.2c-0.4-0.9-0.8-1.8-1.2-2.7c-0.6,0.3-1.3,0.6-1.9,0.9c0.5,0.9,1,1.7,1.5,2.6
				c0.2-0.2,0.5-0.4,0.7-0.5c0.3-0.2,0.6-0.5,0.7-0.9c0.1-0.4,0.1-0.8-0.2-1.2c-0.4-0.7-1.3-0.9-2.1-0.5c-0.3,0.1-0.5,0.3-0.8,0.4
				c0.5,0.9,1,1.7,1.5,2.6c0.1-0.1,0.3-0.1,0.4-0.2c0,0-0.3,0.1-0.1,0c0.1,0,0.2-0.1,0.3-0.1c-0.4-0.9-0.8-1.8-1.2-2.7
				c-0.2,0.1-0.5,0.3-0.7,0.4c0.7,0.7,1.4,1.4,2.1,2.1c-0.1,0.1-0.1,0.2-0.2,0.3c-0.1,0.1-0.1,0.1,0,0c-0.1,0-0.1,0.1-0.2,0.1
				c-0.3,0-0.3,0-0.2,0c-0.4-0.9-0.7-1.7-1.1-2.6c0.1,0,0.2-0.2,0.1-0.1c-0.1,0-0.1,0.1-0.2,0.1c-0.1,0.1,0.3-0.1,0.1,0
				c-0.1,0-0.1,0.1-0.2,0.1c0.5,0.8,1,1.7,1.5,2.5c0.1-0.1,0.2-0.2,0.3-0.3c0,0,0.3-0.2,0.1-0.1c-0.2,0.2,0.1,0,0.1-0.1
				c0.3-0.2,0.5-0.3,0.8-0.5c0.7-0.3,0.9-1.2,0.6-1.9c-0.3-0.7-1-1.1-1.8-0.9c-0.6,0.2-1.1,0.5-1.7,0.9c-0.3,0.2-0.5,0.7-0.4,1.1
				c0,0.3,0.1,0.6,0.3,0.9c0.5,0.6,1.3,0.7,1.9,0.4c0.5-0.2,1-0.5,1.4-0.7c-0.5-0.9-1-1.7-1.5-2.6c-0.4,0.3-0.8,0.5-1.2,0.8
				c-0.6,0.4-0.9,1.2-0.6,1.9c0.3,0.6,1.1,1.1,1.8,0.9c0.7-0.2,1.3-0.5,2-0.7c-0.5-0.8-1-1.7-1.5-2.5c-0.1,0.2-0.3,0.3-0.5,0.5
				c-0.3,0.2,0.2-0.1,0,0c-0.1,0.1-0.2,0.1-0.3,0.2c-0.6,0.4-0.9,1.2-0.6,1.9c0.3,0.6,1.1,1.1,1.8,0.9c0.4-0.1,0.8-0.3,1.1-0.4
				C565.9,617.7,565.5,616.8,565.1,615.8c-0.4,0.2-0.7,0.3-1.1,0.5c-0.3,0.1-0.6,0.6-0.7,0.9c-0.1,0.4-0.1,0.8,0.2,1.2
				c0.2,0.3,0.5,0.6,0.9,0.7c0.4,0.1,0.8,0,1.2-0.2c0.4-0.2,0.7-0.3,1.1-0.5c0.3-0.1,0.6-0.6,0.7-0.9c0.1-0.4,0.1-0.8-0.2-1.2
				c-0.2-0.3-0.5-0.6-0.9-0.7C565.8,615.6,565.5,615.7,565.1,615.8L565.1,615.8z"/>
		</g>
	</g>
	<g>
		<g>
			<path class="st7" d="M573.5,616.9c-0.3-0.8-0.7-1.6-1-2.4c0-0.2-0.1-0.4-0.3-0.5c-0.1-0.2-0.2-0.3-0.4-0.4
				c-0.3-0.2-0.8-0.3-1.2-0.2c-0.4,0.1-0.7,0.3-0.9,0.7c-0.1,0.1-0.1,0.2-0.2,0.4c-0.1,0.3-0.1,0.5,0,0.8c0.3,0.8,0.7,1.6,1,2.4
				c0,0.2,0.1,0.4,0.3,0.5c0.1,0.2,0.2,0.3,0.4,0.4c0.3,0.2,0.8,0.3,1.2,0.2c0.4-0.1,0.7-0.3,0.9-0.7c0.1-0.1,0.1-0.2,0.2-0.4
				C573.6,617.4,573.6,617.2,573.5,616.9L573.5,616.9z"/>
		</g>
	</g>
	<g>
		<g>
			<path class="st7" d="M570.4,615.4c0.1,0.2,0.3,0.5,0.4,0.8c-0.1-0.1-0.1-0.2-0.2-0.4c0.2,0.5,0.4,1,0.4,1.6c0-0.1,0-0.3-0.1-0.4
				c0.1,0.5,0.1,1.1,0,1.6c0-0.1,0-0.3,0.1-0.4c0,0.1,0,0.1,0,0.2c-0.1,0.4-0.1,0.8,0.2,1.2c0.2,0.3,0.5,0.6,0.9,0.7
				c0.4,0.1,0.8,0.1,1.2-0.2c0.3-0.2,0.6-0.5,0.7-0.9c0.2-1,0.2-1.9,0-2.9c-0.2-0.9-0.5-1.7-0.9-2.4c-0.4-0.7-1.4-1-2.1-0.5
				C570.3,613.8,570,614.7,570.4,615.4L570.4,615.4z"/>
		</g>
	</g>
	<g>
		<g>
			<path class="st7" d="M558.4,617.3c0-0.4,0-0.9,0.1-1.3c-1,0-2,0-3,0c0,0.2,0,0.5,0,0.7c0-0.1,0-0.3,0.1-0.4
				c0,0.3-0.1,0.6-0.2,0.9c1,0,1.9,0,2.9,0c0,0,0-0.1,0-0.1c0,0.1,0,0.3,0.1,0.4c0-0.2,0-0.3,0-0.5c0,0.1,0,0.3-0.1,0.4
				c0-0.2,0.1-0.3,0.1-0.5c-0.1,0.1-0.1,0.2-0.2,0.4c0.1-0.1,0.1-0.3,0.2-0.4c-0.1,0.1-0.2,0.2-0.2,0.3c0,0,0,0,0-0.1
				c0.1-0.1,0.2-0.3,0.3-0.5c0.1-0.2,0.1-0.4,0.1-0.6c0-0.2,0-0.4-0.1-0.6c-0.1-0.2-0.2-0.3-0.3-0.5c-0.3-0.3-0.7-0.5-1.1-0.4
				c-0.1,0-0.3,0-0.4,0.1c-0.3,0.1-0.5,0.2-0.7,0.4c-0.2,0.2-0.3,0.4-0.5,0.7c-0.1,0.2-0.2,0.4-0.2,0.5c0,0.1,0,0.1-0.1,0.2
				c0,0.1,0,0.1,0,0.2c0,0.2-0.1,0.4-0.1,0.6c0,0.1,0,0.1,0,0.2c0,0.2,0,0.4,0.1,0.6c0.1,0.1,0.1,0.2,0.2,0.4
				c0.1,0.2,0.2,0.3,0.4,0.4c0.1,0.1,0.2,0.2,0.3,0.2c0.2,0.1,0.4,0.1,0.6,0.1c0.1,0,0.3,0,0.4-0.1c0.1-0.1,0.2-0.1,0.4-0.2
				c0.2-0.1,0.3-0.2,0.4-0.4c0.1-0.1,0.2-0.3,0.3-0.5c0.1-0.3,0.2-0.5,0.2-0.8c0.1-0.4,0.1-0.8,0.1-1.2c0-0.4-0.2-0.8-0.4-1.1
				c-0.1-0.1-0.3-0.2-0.5-0.3c-0.2-0.1-0.4-0.1-0.6-0.1c-0.1,0-0.3,0-0.4,0.1c-0.3,0.1-0.5,0.2-0.7,0.4c-0.1,0.1-0.2,0.2-0.2,0.3
				c-0.1,0.2-0.2,0.5-0.2,0.8c-0.1,0.4-0.1,0.9-0.1,1.3c0,0.2,0,0.4,0.1,0.6c0.1,0.2,0.2,0.3,0.3,0.5c0.1,0.1,0.3,0.2,0.5,0.3
				c0.2,0.1,0.4,0.1,0.6,0.1c0.1,0,0.3,0,0.4-0.1c0.3-0.1,0.5-0.2,0.7-0.4C558.3,618.1,558.4,617.8,558.4,617.3L558.4,617.3z"/>
		</g>
	</g>
	<g>
		<g>
			<path class="st7" d="M558.2,617.2C558.2,617.2,558.2,617.2,558.2,617.2c0,0.1,0,0.2,0,0.3c0-0.2,0-0.4,0-0.6c0,0.1,0,0.3-0.1,0.4
				c0-0.2,0.1-0.4,0.2-0.6c-0.1,0.1-0.1,0.2-0.2,0.4c0.1-0.2,0.2-0.3,0.3-0.5c0.1-0.2,0.2-0.4,0.2-0.6c0-0.2,0-0.4,0-0.6
				c0-0.2-0.1-0.4-0.3-0.5c-0.1-0.2-0.2-0.3-0.4-0.4c-0.3-0.2-0.8-0.3-1.2-0.2c-0.1,0.1-0.2,0.1-0.4,0.2c-0.2,0.1-0.4,0.3-0.5,0.5
				c-0.1,0.1-0.2,0.3-0.2,0.4c-0.1,0.3-0.2,0.5-0.3,0.8c0,0.1,0,0.3-0.1,0.4c0,0.1,0,0.3,0,0.4c0,0.3,0,0.6,0.1,0.9
				c0,0.2,0.1,0.4,0.3,0.5c0.1,0.2,0.2,0.3,0.4,0.4c0.2,0.1,0.4,0.2,0.6,0.2c0.2,0,0.4,0,0.6,0c0.4-0.1,0.7-0.3,0.9-0.7
				c0.1-0.1,0.1-0.2,0.2-0.4C558.3,617.7,558.3,617.5,558.2,617.2L558.2,617.2z"/>
		</g>
	</g>
	<g>
		<g>
			<path class="st7" d="M558.1,617.4c0-0.2,0-0.3,0-0.5C558.2,617.1,558.2,617.2,558.1,617.4c0-0.4,0.1-0.8,0.2-1.1
				c0.1-0.2,0.1-0.4,0-0.6c0-0.2-0.1-0.4-0.2-0.6c-0.1-0.2-0.2-0.3-0.4-0.4c-0.1-0.1-0.3-0.2-0.5-0.3c-0.1,0-0.3,0-0.4-0.1
				c-0.3,0-0.5,0.1-0.8,0.2c-0.1,0.1-0.2,0.2-0.3,0.2c-0.2,0.2-0.3,0.4-0.4,0.7c-0.2,0.6-0.3,1.2-0.3,1.9c0,0.2,0,0.4,0.1,0.6
				c0.1,0.2,0.2,0.3,0.3,0.5c0.1,0.1,0.3,0.2,0.5,0.3c0.2,0.1,0.4,0.1,0.6,0.1c0.1,0,0.3,0,0.4-0.1c0.3-0.1,0.5-0.2,0.7-0.4
				c0.1-0.1,0.2-0.2,0.2-0.3C558.1,617.9,558.1,617.7,558.1,617.4L558.1,617.4z"/>
		</g>
	</g>
	<g>
		<g>
			<path class="st7" d="M558.2,614.4C558.2,614.4,558.2,614.4,558.2,614.4c0-0.1,0-0.2,0-0.4C558.2,614.2,558.2,614.3,558.2,614.4
				c0-0.1,0-0.2,0.1-0.3c-0.1,0.1-0.1,0.3-0.2,0.4c0.1-0.1,0.2-0.2,0.2-0.3c-0.1,0.1-0.2,0.2-0.3,0.3c0.1-0.1,0.2-0.2,0.3-0.2
				C558.2,614.3,558.2,614.3,558.2,614.4c0.7,0.6,1.4,1.3,2,2c0,0,0,0,0-0.1c-0.1,0.1-0.2,0.2-0.2,0.3c0-0.1,0.1-0.1,0.1-0.1
				c-0.1,0.1-0.2,0.2-0.3,0.2c0.2-0.2,0.5-0.3,0.8-0.4c0.3-0.1,0.6-0.3,0.9-0.4c-0.5-0.9-1-1.7-1.5-2.6c-0.4,0.2-0.9,0.5-1.3,0.7
				c0.5,0.9,1,1.7,1.5,2.6c0.5-0.3,1.1-0.7,1.6-0.9c-0.5-0.9-1-1.7-1.5-2.6c-0.6,0.5-1.3,0.9-1.9,1.3c-0.3,0.2-0.6,0.5-0.7,0.9
				c-0.1,0.2-0.1,0.4,0,0.6c0,0.2,0.1,0.4,0.2,0.6c0.2,0.3,0.5,0.6,0.9,0.7c0.4,0.1,0.8,0.1,1.2-0.2c0.7-0.4,1.3-0.8,1.9-1.3
				c0.2-0.1,0.3-0.2,0.4-0.4c0.1-0.1,0.2-0.3,0.3-0.5c0.1-0.2,0.1-0.4,0-0.6c0-0.2-0.1-0.4-0.2-0.6c-0.2-0.3-0.5-0.6-0.9-0.7
				c-0.1,0-0.3,0-0.4-0.1c-0.3,0-0.5,0.1-0.8,0.2c-0.6,0.3-1.1,0.6-1.6,0.9c-0.3,0.2-0.6,0.5-0.7,0.9c-0.1,0.2-0.1,0.4,0,0.6
				c0,0.2,0.1,0.4,0.2,0.6c0.2,0.3,0.5,0.6,0.9,0.7c0.4,0.1,0.8,0,1.2-0.2c0.4-0.2,0.9-0.5,1.3-0.7c0.3-0.2,0.6-0.5,0.7-0.9
				c0.1-0.2,0.1-0.4,0-0.6c0-0.2-0.1-0.4-0.2-0.6c-0.2-0.3-0.5-0.6-0.9-0.7c-0.1,0-0.3,0-0.4-0.1c-0.3,0-0.5,0.1-0.8,0.2
				c-0.4,0.2-0.8,0.3-1.1,0.5c-0.2,0.1-0.3,0.2-0.5,0.2c-0.4,0.2-0.6,0.5-0.8,0.8c-0.1,0.1-0.1,0.2-0.2,0.4c-0.1,0.2-0.1,0.4,0,0.6
				c0,0.1,0,0.3,0.1,0.4c0.1,0.2,0.2,0.3,0.3,0.5c0.2,0.2,0.4,0.3,0.7,0.4c0.2,0.1,0.4,0.1,0.6,0c0.2,0,0.4-0.1,0.6-0.2
				c0.4-0.3,0.8-0.6,1-1.1c0.1-0.2,0.2-0.4,0.3-0.7c0.1-0.2,0.1-0.5,0.1-0.8c0-0.2,0-0.4-0.1-0.6c-0.1-0.2-0.2-0.3-0.3-0.5
				c-0.3-0.3-0.7-0.5-1.1-0.4c-0.4,0-0.8,0.1-1.1,0.4c-0.1,0.1-0.2,0.2-0.2,0.3C558.2,613.9,558.2,614.1,558.2,614.4L558.2,614.4z"
				/>
		</g>
	</g>
	<g>
		<g>
			<path class="st7" d="M560,613.2c-0.3,0.3-0.6,0.6-1,0.9c0.1-0.1,0.2-0.2,0.3-0.2c-0.2,0.2-0.4,0.3-0.7,0.5
				c-0.3,0.2-0.6,0.5-0.7,0.9c-0.1,0.2-0.1,0.4,0,0.6c0,0.2,0.1,0.4,0.2,0.6c0.2,0.3,0.5,0.6,0.9,0.7c0.1,0,0.3,0,0.4,0.1
				c0.3,0,0.5-0.1,0.8-0.2c0.7-0.5,1.4-1,2-1.6c0.1-0.1,0.2-0.3,0.3-0.5c0.1-0.2,0.1-0.4,0.1-0.6c0-0.2,0-0.4-0.1-0.6
				c-0.1-0.2-0.2-0.3-0.3-0.5c-0.3-0.3-0.7-0.5-1.1-0.4C560.7,612.8,560.3,612.9,560,613.2L560,613.2z"/>
		</g>
	</g>
	<g>
		<g>
			<path class="st7" d="M560.2,613.3c-0.2,0.2-0.4,0.3-0.6,0.5c0.1-0.1,0.2-0.2,0.3-0.2c-0.5,0.4-0.9,0.7-1.4,1
				c-0.3,0.2-0.6,0.5-0.7,0.9c-0.1,0.2-0.1,0.4,0,0.6c0,0.2,0.1,0.4,0.2,0.6c0.2,0.3,0.5,0.6,0.9,0.7c0.4,0.1,0.8,0.1,1.2-0.2
				c0.8-0.5,1.6-1.1,2.3-1.7c0.1-0.1,0.2-0.3,0.3-0.5c0.1-0.2,0.1-0.4,0.1-0.6c0-0.2,0-0.4-0.1-0.6c-0.1-0.2-0.2-0.3-0.3-0.5
				c-0.3-0.3-0.7-0.5-1.1-0.4c-0.1,0-0.3,0-0.4,0.1C560.6,612.9,560.3,613.1,560.2,613.3L560.2,613.3z"/>
		</g>
	</g>
	<g>
		<g>
			<path class="st7" d="M560.3,613.2c-0.6,0.4-1.1,0.7-1.7,1.1c-0.3,0.2-0.6,0.5-0.7,0.9c-0.1,0.2-0.1,0.4,0,0.6
				c0,0.2,0.1,0.4,0.2,0.6c0.2,0.3,0.5,0.6,0.9,0.7c0.1,0,0.3,0,0.4,0.1c0.3,0,0.5-0.1,0.8-0.2c0.3-0.1,0.5-0.3,0.8-0.5
				c-0.6-0.8-1.2-1.6-1.8-2.4c-0.2,0.2-0.3,0.3-0.5,0.5c-0.1,0.1-0.2,0.3-0.3,0.5c-0.1,0.2-0.1,0.4-0.1,0.6c0,0.1,0,0.3,0.1,0.4
				c0,0.2,0.1,0.4,0.3,0.5c0.1,0.1,0.2,0.2,0.3,0.3c0.1,0.1,0.3,0.2,0.5,0.3c0.1,0,0.3,0,0.4,0.1c0.3,0,0.5-0.1,0.8-0.2
				c0.2-0.1,0.4-0.3,0.6-0.4c0.3-0.2,0.6-0.5,0.7-0.9c0.1-0.2,0.1-0.4,0-0.6c0-0.2-0.1-0.4-0.2-0.6c-0.2-0.3-0.5-0.6-0.9-0.7
				c-0.1,0-0.3,0-0.4-0.1c-0.3,0-0.5,0.1-0.8,0.2c-0.2,0.1-0.4,0.3-0.6,0.4c0.6,0.8,1.2,1.6,1.8,2.4c0.2-0.2,0.3-0.3,0.5-0.5
				c0.1-0.1,0.2-0.3,0.3-0.5c0.1-0.2,0.1-0.4,0.1-0.6c0-0.1,0-0.3-0.1-0.4c0-0.2-0.1-0.4-0.3-0.5c-0.1-0.1-0.2-0.2-0.3-0.3
				c-0.1-0.1-0.3-0.2-0.5-0.3c-0.1,0-0.3,0-0.4-0.1c-0.3,0-0.5,0.1-0.8,0.2c-0.2,0.2-0.5,0.3-0.8,0.5c0.5,0.9,1,1.7,1.5,2.6
				c0.6-0.4,1.1-0.7,1.7-1.1c0.3-0.2,0.6-0.5,0.7-0.9c0.1-0.2,0.1-0.4,0-0.6c0-0.2-0.1-0.4-0.2-0.6c-0.2-0.3-0.5-0.6-0.9-0.7
				c-0.1,0-0.3,0-0.4-0.1C560.8,613,560.6,613.1,560.3,613.2L560.3,613.2z"/>
		</g>
	</g>
	<g>
		<g>
			<path class="st7" d="M560.5,613c-0.1,0.1-0.2,0.1-0.3,0.2C560.3,613.1,560.4,613,560.5,613c-0.3,0.2-0.7,0.5-1.1,0.7
				c-0.2,0.1-0.3,0.2-0.4,0.4c-0.1,0.1-0.2,0.3-0.3,0.5c-0.1,0.2-0.1,0.4,0,0.6c0,0.2,0.1,0.4,0.2,0.6c0.1,0.1,0.2,0.2,0.2,0.3
				c0.2,0.2,0.4,0.3,0.7,0.4c0.1,0,0.3,0,0.4,0.1c0.3,0,0.5-0.1,0.8-0.2c0.6-0.3,1.1-0.7,1.7-1.2c0.1-0.1,0.2-0.3,0.3-0.5
				c0.1-0.2,0.1-0.4,0.1-0.6c0-0.2,0-0.4-0.1-0.6c-0.1-0.2-0.2-0.3-0.3-0.5c-0.1-0.1-0.2-0.2-0.3-0.2c-0.2-0.1-0.5-0.2-0.8-0.2
				c-0.1,0-0.3,0-0.4,0.1C560.9,612.7,560.7,612.8,560.5,613L560.5,613z"/>
		</g>
	</g>
	<g>
		<g>
			<path class="st8" d="M562.2,616.6c0,0-0.1,0-0.1,0c0.1,0.2,0.2,0.5,0.3,0.7c0,0,0.1,0,0.1-0.1c0.2-0.1,0.2-0.3,0.2-0.5
				C562.5,616.6,562.3,616.5,562.2,616.6c-0.1,0-0.2,0-0.3,0c0.1,0.2,0.2,0.5,0.3,0.7c0.3-0.2,0.6-0.4,0.9-0.6
				c0.3-0.2,0.6-0.4,0.9-0.6c0.1-0.1,0.1-0.3,0.1-0.5c-0.1-0.1-0.3-0.2-0.4-0.2c-0.8,0.3-1.5,0.8-2,1.5c-0.1,0.2,0,0.4,0.1,0.5
				c0.2,0.1,0.4,0,0.5-0.1c0,0,0.1-0.1,0,0c0,0,0,0,0,0c0,0,0.1-0.1,0.1-0.1c0.1-0.1,0.1-0.1,0.2-0.2s0.1-0.1,0.2-0.2
				c0,0,0.1-0.1,0.1-0.1c0,0,0,0,0.1,0c0,0,0.1-0.1,0,0c0.1-0.1,0.1-0.1,0.2-0.2c0.1-0.1,0.2-0.1,0.2-0.1c0.1,0,0.2-0.1,0.2-0.1
				c0,0,0.1,0,0.1-0.1c0,0,0,0,0,0c0,0,0.1,0,0.1,0c-0.1-0.2-0.2-0.4-0.4-0.6c0,0-0.1,0.1-0.1,0.1c0,0,0,0,0,0c0,0,0,0,0,0
				c-0.1,0-0.1,0.1-0.2,0.1c-0.1,0.1-0.3,0.2-0.4,0.3c-0.3,0.2-0.6,0.4-0.9,0.5c-0.2,0.1-0.2,0.3-0.2,0.5c0.1,0.2,0.3,0.3,0.4,0.2
				c0.1,0,0.1,0,0.2-0.1c-0.1-0.2-0.2-0.5-0.3-0.7c0,0-0.1,0-0.1,0.1c-0.2,0.1-0.2,0.3-0.2,0.5c0.1,0.2,0.3,0.3,0.4,0.2
				c0,0,0.1,0,0.1,0c0.2,0,0.3-0.3,0.3-0.5C562.5,616.6,562.4,616.5,562.2,616.6L562.2,616.6z"/>
		</g>
	</g>
	<g>
		<g>
			<path class="st7" d="M561.7,615c-0.5,0.4-1,0.8-1.5,1.3c-0.1,0.1-0.2,0.4,0,0.5c0.1,0.1,0.4,0.2,0.5,0c0.2-0.2,0.4-0.4,0.7-0.6
				c0.1-0.1,0.2-0.2,0.3-0.3c0,0,0.1,0,0.1-0.1c0,0,0,0,0.1,0c0,0-0.1,0,0,0c0.1,0,0.1-0.1,0.2-0.1c0.1-0.1,0.1-0.1,0.2-0.2
				c0-0.1,0-0.2,0-0.3C562.1,614.9,561.9,614.8,561.7,615L561.7,615z"/>
		</g>
	</g>
	<g>
		<g>
			<path class="st7" d="M561.7,615c-0.1,0.1-0.2,0.2-0.3,0.3c0,0,0.1,0,0.1-0.1c-0.2,0.1-0.3,0.2-0.5,0.3c-0.1,0-0.1,0.1-0.2,0.2
				c0,0.1,0,0.2,0,0.3c0.1,0.2,0.3,0.2,0.5,0.1c0.3-0.2,0.6-0.4,0.9-0.7c0.1-0.1,0.1-0.2,0.1-0.3c0-0.1,0-0.2-0.1-0.3
				C562,614.8,561.8,614.8,561.7,615L561.7,615z"/>
		</g>
	</g>
	<g>
		<g>
			<path class="st7" d="M561.7,615.1c-0.3,0.2-0.7,0.4-1.1,0.6c-0.2,0.1-0.2,0.3-0.1,0.5c0.1,0.2,0.3,0.2,0.5,0.1
				c0.4-0.2,0.7-0.4,1.1-0.6c0.1-0.1,0.1-0.1,0.2-0.2c0-0.1,0-0.2,0-0.3C562.1,615.1,561.9,615,561.7,615.1L561.7,615.1z"/>
		</g>
	</g>
	<g>
		<g>
			<path class="st7" d="M561.4,615.2c-0.2,0.2-0.5,0.3-0.7,0.5c-0.1,0-0.1,0.1-0.2,0.2c0,0.1,0,0.2,0,0.3c0.1,0.1,0.1,0.2,0.2,0.2
				c0.1,0,0.2,0,0.3,0c0.3-0.1,0.5-0.3,0.7-0.5c0,0,0.1-0.1,0.1-0.1c0,0,0.1-0.1,0.1-0.1c0-0.1,0-0.2,0-0.3
				c-0.1-0.1-0.1-0.2-0.2-0.2C561.6,615.2,561.5,615.1,561.4,615.2L561.4,615.2z"/>
		</g>
	</g>
	<g>
		<g>
			<path class="st7" d="M561.4,615.3c-0.3,0.2-0.5,0.3-0.8,0.4c-0.1,0-0.2,0.1-0.2,0.2c0,0.1,0,0.2,0,0.3c0.1,0.1,0.1,0.2,0.2,0.2
				c0,0,0.1,0,0.1,0c0.1,0,0.1,0,0.2-0.1c0.3-0.1,0.5-0.3,0.8-0.4c0.1-0.1,0.1-0.1,0.2-0.2c0-0.1,0-0.2,0-0.3
				c-0.1-0.1-0.1-0.2-0.2-0.2C561.6,615.2,561.5,615.2,561.4,615.3L561.4,615.3z"/>
		</g>
	</g>
	<g>
		<g>
			<path d="M562.4,615.5c-0.7,0.5-1.4,1.1-2,1.7c0.1,0.1,0.1,0.1,0.2,0.2c0.4-0.5,0.8-0.8,1.3-1.1c0.2-0.1,0-0.4-0.2-0.3
				c-0.5,0.3-1,0.7-1.4,1.2c-0.1,0.1,0.1,0.4,0.2,0.2c0.6-0.6,1.2-1.2,1.9-1.6C562.7,615.6,562.6,615.4,562.4,615.5L562.4,615.5z"/>
		</g>
	</g>
	<g>
		<g>
			<path d="M561.8,615.9c-0.5,0.3-1,0.7-1.3,1.2c-0.1,0.1-0.1,0.2,0,0.2c0.1,0.1,0.2,0.1,0.2,0c0.4-0.4,0.8-0.8,1.3-1.1
				C562.1,616.1,562,615.8,561.8,615.9L561.8,615.9z"/>
		</g>
	</g>
	<g>
		<g>
			<path d="M561.4,616.3c-0.4,0.3-0.9,0.6-1.2,1.1c-0.1,0.2,0.2,0.3,0.3,0.2c0.2-0.4,0.7-0.7,1.1-1c0.1,0,0.1-0.1,0.1-0.2
				C561.5,616.3,561.4,616.3,561.4,616.3L561.4,616.3z"/>
		</g>
	</g>
	<g>
		<g>
			<path d="M562.3,615.8c-0.3,0.3-0.7,0.7-1.1,0.9c-0.1,0-0.1,0.1-0.1,0.2c0,0.1,0.1,0.1,0.2,0.1c0.4-0.3,0.8-0.6,1.2-1
				C562.7,615.9,562.5,615.6,562.3,615.8L562.3,615.8z"/>
		</g>
	</g>
	<g>
		<g>
			<path d="M562.3,615.8c-0.3,0.3-0.7,0.6-1.1,0.9c-0.1,0-0.1,0.1-0.1,0.2c0,0.1,0.1,0.1,0.2,0.1c0.4-0.3,0.8-0.6,1.2-0.9
				c0.1-0.1,0.1-0.2,0-0.2C562.5,615.8,562.4,615.8,562.3,615.8L562.3,615.8z"/>
		</g>
	</g>
	<g>
		<g>
			<path d="M561.9,616.3c-0.1,0-0.1,0.1-0.2,0.1c0,0-0.1,0-0.1,0.1c0,0,0,0,0,0c0,0,0,0,0,0c0,0,0,0,0,0c-0.1,0.1-0.2,0.2-0.4,0.2
				c-0.1,0-0.1,0.1-0.1,0.2c0,0.1,0.1,0.1,0.2,0.1c0.3-0.2,0.5-0.3,0.7-0.5c0.1-0.1,0.1-0.2,0-0.2
				C562,616.2,561.9,616.2,561.9,616.3L561.9,616.3z"/>
		</g>
	</g>
	<g>
		<g>
			<path class="st8" d="M563.3,615.6c-0.3,0.2-0.6,0.4-0.8,0.6c-0.1,0.1-0.1,0.2,0,0.2c0.1,0.1,0.1,0.1,0.2,0
				c0.1-0.1,0.2-0.2,0.4-0.3c0,0,0,0,0,0c0,0,0,0,0,0c0,0,0,0,0,0c0,0,0,0,0,0c0,0,0,0,0,0c0,0,0,0,0.1,0c0.1,0,0.1-0.1,0.2-0.1
				c0.1,0,0.1-0.1,0.1-0.2C563.5,615.6,563.4,615.6,563.3,615.6L563.3,615.6z"/>
		</g>
	</g>
	<g>
		<g>
			<path class="st7" d="M569.6,615.4c0.2,0.6,0.5,1.1,0.7,1.7c0,0.1,0.1,0.1,0.2,0.1c0.1,0,0.1-0.1,0.1-0.2
				c-0.2-0.6-0.5-1.1-0.7-1.7c0-0.1-0.1-0.1-0.2-0.1C569.6,615.2,569.5,615.3,569.6,615.4L569.6,615.4z"/>
		</g>
	</g>
	<g>
		<g>
			<path class="st7" d="M569.6,615.5c0.2,0.5,0.4,1.1,0.7,1.6c0,0.1,0.1,0.1,0.2,0.1c0.1,0,0.1-0.1,0.1-0.2
				c-0.2-0.5-0.4-1.1-0.7-1.6c0-0.1-0.1-0.1-0.2-0.1C569.6,615.3,569.5,615.4,569.6,615.5L569.6,615.5z"/>
		</g>
	</g>
	<g>
		<g>
			<path class="st7" d="M569.6,615.6c0.1,0.2,0.2,0.4,0.3,0.6c0,0.1,0.1,0.1,0.2,0.1c0.1,0,0.1-0.1,0.1-0.2
				c-0.1-0.2-0.2-0.4-0.3-0.6c0-0.1-0.1-0.1-0.2-0.1C569.6,615.5,569.6,615.6,569.6,615.6L569.6,615.6z"/>
		</g>
	</g>
	<g>
		<g>
			<path class="st7" d="M569.6,615.6c0.2,0.5,0.4,1,0.6,1.6c0,0.1,0.1,0.1,0.2,0.1c0.1,0,0.1-0.1,0.1-0.2c-0.2-0.5-0.4-1-0.6-1.6
				c0-0.1-0.1-0.1-0.2-0.1C569.6,615.4,569.6,615.5,569.6,615.6L569.6,615.6z"/>
		</g>
	</g>
	<g>
		<g>
			<path class="st8" d="M568.4,615.7c0.4,0.3,0.6,0.7,0.7,1.2c0,0.1,0.1,0.2,0.2,0.2c0.1,0,0.2-0.1,0.1-0.2
				c-0.1-0.6-0.4-1.1-0.8-1.4c-0.1,0-0.2,0-0.2,0.1C568.3,615.6,568.3,615.6,568.4,615.7L568.4,615.7z"/>
		</g>
	</g>
	<g>
		<g>
			<path class="st8" d="M568.4,615.7c0.5,0.4,0.7,0.9,0.8,1.5c0,0.2,0.3,0.2,0.3,0c0-0.7-0.3-1.3-0.8-1.7c-0.1-0.1-0.2-0.1-0.2,0
				C568.4,615.5,568.4,615.6,568.4,615.7L568.4,615.7z"/>
		</g>
	</g>
	<g>
		<g>
			<path class="st7" d="M574.7,615.3c0.1,0.6,0.3,1.3,0.5,1.9c0.1,0.2,0.3,0.1,0.3-0.1c-0.2-0.6-0.4-1.3-0.5-1.9
				C575,615.1,574.7,615.1,574.7,615.3L574.7,615.3z"/>
		</g>
	</g>
	<g>
		<g>
			<path class="st7" d="M574.8,615.5c0.1,0.5,0.2,0.9,0.3,1.4c0,0.1,0.1,0.2,0.1,0.2c0.1,0,0.2-0.1,0.2-0.2c0-0.5-0.1-1-0.3-1.5
				C575,615.2,574.7,615.3,574.8,615.5L574.8,615.5z"/>
		</g>
	</g>
	<g>
		<g>
			<path class="st7" d="M575.3,616.8c0-0.2,0-0.5,0-0.7c0,0,0-0.1,0-0.1c0,0-0.1,0-0.1,0c-0.1,0-0.2,0.1-0.2,0.2c0,0.2,0,0.5,0,0.7
				c0,0.1,0.1,0.2,0.2,0.2C575.2,617,575.3,616.9,575.3,616.8L575.3,616.8z"/>
		</g>
	</g>
	<g>
		<g>
			<path class="st7" d="M574.8,615.6c0.1,0.5,0.2,0.9,0.3,1.4c0,0.2,0.3,0.1,0.3-0.1c-0.1-0.5-0.2-0.9-0.3-1.4
				C575,615.3,574.7,615.4,574.8,615.6L574.8,615.6z"/>
		</g>
	</g>
	<g>
		<g>
			<path class="st7" d="M575,616.2c0,0.2,0,0.4,0,0.6c0,0,0,0.1,0,0.1c0,0,0.1,0,0.1,0c0.1,0,0.2-0.1,0.1-0.1c0-0.2,0-0.4,0-0.6
				c0-0.1-0.1-0.2-0.2-0.2C575.1,616.1,575,616.1,575,616.2L575,616.2z"/>
		</g>
	</g>
	<g>
		<g>
			<path class="st7" d="M575,616.3c0,0.2,0,0.3,0,0.5c0,0.1,0.1,0.1,0.2,0.1c0.1,0,0.1-0.1,0.1-0.2c0,0,0-0.1,0-0.1c0,0,0,0,0,0
				c0-0.1,0-0.2,0-0.3c0-0.1-0.1-0.2-0.2-0.1C575,616.1,575,616.2,575,616.3L575,616.3z"/>
		</g>
	</g>
	<g>
		<g>
			<path d="M574.4,615.6C574.4,615.6,574.4,615.6,574.4,615.6C574.4,615.6,574.4,615.6,574.4,615.6c0,0,0.1,0.1,0.1,0.1c0,0,0,0,0,0
				c0,0,0,0.1,0,0.1c0,0,0,0.1,0.1,0.1c0,0,0.1,0,0.1,0c0,0,0.1,0,0.1-0.1c0,0,0-0.1,0-0.1c0-0.1-0.1-0.2-0.2-0.3c0,0-0.1,0-0.1,0
				c0,0-0.1,0-0.1,0c0,0,0,0.1,0,0.1C574.3,615.5,574.3,615.5,574.4,615.6L574.4,615.6z"/>
		</g>
	</g>
	<g>
		<g>
			<path d="M574.4,615.5c0.2,0.5,0.3,1.1,0.2,1.7c0,0.2,0.3,0.2,0.3,0c0-0.6-0.1-1.2-0.3-1.7c0-0.1-0.1-0.1-0.2-0.1
				C574.5,615.4,574.4,615.5,574.4,615.5L574.4,615.5z"/>
		</g>
	</g>
	<g>
		<g>
			<path d="M574.6,616.4c0,0.1,0,0.1,0,0.2c0,0,0,0,0,0c0,0,0,0,0,0c0,0,0,0.1,0,0.1c0,0.1,0,0.2,0,0.4c0,0.1,0.1,0.2,0.2,0.2
				c0.1,0,0.1-0.1,0.1-0.2c0-0.3,0-0.5-0.1-0.8c0-0.1-0.1-0.1-0.2-0.1C574.6,616.2,574.6,616.3,574.6,616.4L574.6,616.4z"/>
		</g>
	</g>
	<g>
		<g>
			<path d="M574.6,616.4c0,0.2,0,0.4,0,0.6c0,0.1,0.1,0.2,0.2,0.2c0.1,0,0.2-0.1,0.2-0.2c0-0.2,0-0.4,0-0.6c0-0.1-0.1-0.2-0.2-0.2
				C574.7,616.2,574.6,616.3,574.6,616.4L574.6,616.4z"/>
		</g>
	</g>
	<g>
		<g>
			<path d="M574.7,616.4C574.7,616.5,574.7,616.5,574.7,616.4c0,0.1,0,0.1,0,0.1C574.7,616.5,574.7,616.5,574.7,616.4
				c0,0.1,0,0.1,0,0.1c0,0.1,0,0.1,0,0.2c0,0.1,0,0.2,0,0.3c0,0.1,0.1,0.2,0.2,0.1c0.1,0,0.1-0.1,0.2-0.1c0-0.2,0-0.5,0-0.7
				c0-0.1-0.1-0.1-0.2-0.1C574.7,616.3,574.6,616.3,574.7,616.4L574.7,616.4z"/>
		</g>
	</g>
	<g>
		<g>
			<path d="M574.7,616.5C574.7,616.5,574.7,616.6,574.7,616.5C574.7,616.6,574.7,616.6,574.7,616.5c0,0.1,0,0.1,0,0.1
				c0,0,0,0.1,0,0.1c0,0.1,0,0.2,0,0.3c0,0.1,0.1,0.2,0.2,0.2c0.1,0,0.1-0.1,0.1-0.2c0-0.2,0-0.4,0-0.6c0-0.1-0.1-0.1-0.2-0.1
				C574.7,616.4,574.7,616.4,574.7,616.5L574.7,616.5z"/>
		</g>
	</g>
	<g>
		<g>
			<path d="M574.7,616.6c0,0,0,0.1,0,0.1C574.7,616.8,574.7,616.7,574.7,616.6c0,0.2,0,0.3,0,0.4c0,0,0,0.1,0,0.1c0,0,0.1,0,0.1,0
				c0.1,0,0.1-0.1,0.2-0.1c0-0.2,0-0.3,0-0.5c0-0.1-0.1-0.1-0.2-0.1C574.7,616.5,574.7,616.6,574.7,616.6L574.7,616.6z"/>
		</g>
	</g>
	<g>
		<g>
			<path d="M574.4,615.5c0.1,0.2,0.1,0.3,0.1,0.5c0,0,0,0.1,0.1,0.1c0,0,0.1,0,0.1,0c0,0,0.1,0,0.1-0.1c0,0,0-0.1,0-0.1
				c0-0.2-0.1-0.3-0.1-0.5c0,0,0-0.1-0.1-0.1c0,0-0.1,0-0.1,0C574.4,615.3,574.4,615.4,574.4,615.5L574.4,615.5z"/>
		</g>
	</g>
	<g>
		<g>
			<path d="M569.2,615.7c0.3,0.4,0.5,0.9,0.5,1.5c0,0.2,0.3,0.2,0.3,0c0-0.6-0.2-1.1-0.5-1.6C569.4,615.3,569.1,615.5,569.2,615.7
				L569.2,615.7z"/>
		</g>
	</g>
	<g>
		<g>
			<path d="M569.4,616.1c0.1,0.1,0.1,0.3,0.2,0.4c0.1,0.2,0.1,0.3,0.1,0.5c0,0.1,0.1,0.1,0.2,0.1c0.1,0,0.1-0.1,0.1-0.2
				c-0.1-0.3-0.2-0.7-0.3-1c0-0.1-0.1-0.1-0.2-0.1C569.4,616,569.4,616,569.4,616.1L569.4,616.1z"/>
		</g>
	</g>
	<g>
		<g>
			<path d="M569.5,616.2c0.1,0.1,0.1,0.3,0.1,0.4c0,0.1,0,0.1,0,0.2c0,0,0,0.1,0,0.1c0,0,0,0,0,0c0,0,0,0,0,0c0,0,0,0,0,0
				c0,0.1,0.1,0.2,0.2,0.2c0.1,0,0.2-0.1,0.1-0.2c0-0.3-0.1-0.6-0.2-0.9c0-0.1-0.1-0.1-0.2-0.1C569.5,616,569.5,616.1,569.5,616.2
				L569.5,616.2z"/>
		</g>
	</g>
	<g>
		<g>
			<path d="M569.5,616.2c0.2,0.4,0.3,0.8,0.3,1.2c0,0.1,0.1,0.2,0.2,0.2c0.1,0,0.2-0.1,0.1-0.2c0-0.5-0.2-0.9-0.4-1.3
				c0-0.1-0.1-0.1-0.2-0.1C569.5,616,569.5,616.1,569.5,616.2L569.5,616.2z"/>
		</g>
	</g>
	<g>
		<g>
			<path d="M569.3,615.8C569.3,615.8,569.3,615.8,569.3,615.8C569.3,615.8,569.3,615.8,569.3,615.8c0.1,0.1,0.1,0.1,0.1,0.1
				c0,0,0.1,0.1,0.1,0.2c0,0,0,0.1,0,0.1c0,0,0,0,0,0c0,0,0,0.1,0,0c0,0.1,0,0.1,0.1,0.2c0,0.1,0.1,0.1,0.2,0.1
				c0.1,0,0.1-0.1,0.1-0.2c-0.1-0.3-0.2-0.5-0.4-0.7c0-0.1-0.2-0.1-0.2,0C569.2,615.6,569.2,615.7,569.3,615.8L569.3,615.8z"/>
		</g>
	</g>
	<g>
		<g>
			<path d="M569.3,615.7c0,0.1,0.1,0.1,0.1,0.2c0,0,0,0.1,0,0.1c0,0,0,0,0,0.1c0,0,0,0.1,0,0c0.1,0.1,0.1,0.3,0.1,0.4
				c0,0.1,0.1,0.1,0.2,0.1c0.1,0,0.1-0.1,0.1-0.2c-0.1-0.3-0.2-0.6-0.4-0.9c0-0.1-0.1-0.1-0.2-0.1
				C569.3,615.5,569.2,615.6,569.3,615.7L569.3,615.7z"/>
		</g>
	</g>
	<g>
		<g>
			<path d="M569.8,617.1c0.1,0.3,0.1,0.7,0.1,1c0,0.1,0,0.2,0.1,0.2c0.1,0,0.2,0,0.2-0.1c0.1-0.4,0-0.8-0.1-1.2
				c0-0.1-0.1-0.1-0.2-0.1C569.8,616.9,569.8,617,569.8,617.1L569.8,617.1z"/>
		</g>
	</g>
	<g>
		<g>
			<path class="st7" d="M539.8,610.3c-0.5,3.2,0,6.4,1.5,9.3c0.8-0.6,1.6-1.2,2.4-1.8c-3.4-3.5-7.7-6.1-12.3-7.5
				c-1.5-0.5-2.5,1.5-1.5,2.5c1.5,1.5,3,3,4.5,4.5c0.7-0.7,1.4-1.4,2.1-2.1c-2.7-2.2-5.7-4.1-8.9-5.5c-1.6-0.7-2.9,1-1.8,2.4
				c2.4,3.1,5.5,5.4,8.5,7.7c1.4,1,3-1.2,1.8-2.4c-2.8-2.7-6.1-5-9.6-6.6c-1.5-0.7-3,1-1.8,2.4c2.3,2.6,4.9,4.9,7.7,6.8
				c1.5,1,2.9-1.1,1.8-2.4c-1.6-1.9-3.4-3.5-5.4-5c-1.3-1-3.1,1.3-1.8,2.4c3.9,3.3,7.9,6.5,12.8,8.4c1.3,0.5,2.3-1.1,1.7-2.2
				c-1.6-2.8-4.1-5-6.5-7.1c-1.5-1.2-3.6,0.9-2.1,2.1c1.4,1.2,2.9,2.3,4.5,3.2c1.4,0.8,3.1,2,4.7,2.2c1.9,0.3,2.7-1.6,1.9-3.1
				c-0.9-1.9-2.1-3.7-3.2-5.5c-0.7,0.7-1.4,1.4-2.1,2.1c2,1.5,3.9,3,5.9,4.5c0.9,0.7,2.3-0.2,2.3-1.3c-0.1-1.8-0.4-3.5-0.9-5.2
				c-0.6-1.9-3.2-1.1-2.9,0.8c0.4,2,1.3,3.7,2.6,5.3c0.7,0.9,2.3,0.4,2.5-0.7c0.4-1.6,0.7-3.1,1.1-4.7c-1-0.1-2-0.3-2.9-0.4
				c0.1,1.8,0.4,3.6,0.9,5.4c0.4,1.5,2.4,1.3,2.9,0c0.6-1.6,1.3-3.3,1.9-4.9c-1-0.1-2-0.3-2.9-0.4c0.1,1.6,0.2,3.2,0.2,4.7
				c0.1,1.7,2.4,2,2.9,0.4c0.6-1.7,1-3.3,1.1-5.1c-1,0-2,0-3,0c0,1.4-0.1,2.8-0.1,4.2c-0.1,1.7,2.6,2.1,2.9,0.4
				c0.3-1.3,0.6-2.5,0.9-3.8c-1-0.3-1.9-0.5-2.9-0.8c-0.2,1.1-0.3,2.2-0.5,3.2c-0.3,1.9,2.6,2.7,2.9,0.8c0.2-1.1,0.3-2.1,0.5-3.2
				c-1-0.1-2-0.3-2.9-0.4c-0.1,0.6-0.3,1.2-0.5,1.8c1,0.3,1.9,0.5,2.9,0.8c0.2-0.7,0.5-1.4,0.7-2.1c-1-0.3-1.9-0.5-2.9-0.8
				c-0.3,1.1-0.7,2.3-1,3.4c-0.6,1.9,2.2,2.6,2.9,0.8c0.4-1,0.8-2,1.1-3c-1-0.1-2-0.3-2.9-0.4c-0.1,0.9-0.3,1.7-0.6,2.6
				c1,0.3,1.9,0.5,2.9,0.8c0.3-1,0.6-1.9,0.9-2.9c0.6-1.9-2.3-2.6-2.9-0.8c-0.2,0.8-0.5,1.6-0.7,2.4c-0.6,1.9,2.3,2.6,2.9,0.8
				c0.2-0.7,0.5-1.4,0.7-2.1c-1-0.3-1.9-0.5-2.9-0.8c-0.2,0.8-0.4,1.7-0.6,2.5c-0.4,1.9,2.3,2.6,2.9,0.8c0.3-0.8,0.5-1.5,0.8-2.3
				c0.6-1.8-2.3-2.6-2.9-0.8c-0.3,0.9-0.6,1.8-0.9,2.7c1,0,1.9,0,2.9,0c0-0.1,0-0.2-0.1-0.3c-0.3-1.9-3.2-1.1-2.9,0.8
				c0,0.1,0,0.2,0.1,0.3c0.3,1.6,2.5,1.3,2.9,0c0.3-0.9,0.6-1.8,0.9-2.7c-1-0.3-1.9-0.5-2.9-0.8c-0.3,0.8-0.5,1.5-0.8,2.3
				c1,0.3,1.9,0.5,2.9,0.8c0.2-0.8,0.4-1.7,0.6-2.5c0.5-1.9-2.3-2.6-2.9-0.8c-0.2,0.7-0.5,1.4-0.7,2.1c1,0.3,1.9,0.5,2.9,0.8
				c0.2-0.8,0.5-1.6,0.7-2.4c-1-0.3-1.9-0.5-2.9-0.8c-0.3,1-0.6,1.9-0.9,2.9c-0.6,1.9,2.2,2.5,2.9,0.8c0.5-1.1,0.7-2.2,0.7-3.4
				c0.1-1.8-2.4-1.9-2.9-0.4c-0.4,1-0.8,2-1.1,3c1,0.3,1.9,0.5,2.9,0.8c0.3-1.1,0.7-2.3,1-3.4c0.6-1.9-2.3-2.6-2.9-0.8
				c-0.2,0.7-0.5,1.4-0.7,2.1c-0.6,1.9,2.2,2.5,2.9,0.8c0.4-0.8,0.5-1.7,0.6-2.6c0.2-1.7-2.7-2.1-2.9-0.4c-0.2,1.1-0.3,2.1-0.5,3.2
				c1,0.3,1.9,0.5,2.9,0.8c0.2-1.1,0.3-2.2,0.5-3.2c0.3-1.9-2.4-2.7-2.9-0.8c-0.3,1.3-0.6,2.5-0.9,3.8c1,0.1,2,0.3,2.9,0.4
				c0-1.4,0.1-2.8,0.1-4.2c0.1-2-2.8-1.9-3,0c-0.1,1.5-0.5,2.9-1,4.3c1,0.1,2,0.3,2.9,0.4c-0.1-1.6-0.2-3.2-0.2-4.7
				c-0.1-1.8-2.3-2-2.9-0.4c-0.6,1.6-1.3,3.3-1.9,4.9c1,0,1.9,0,2.9,0c-0.4-1.5-0.7-3-0.8-4.6c-0.1-1.6-2.5-2.1-2.9-0.4
				c-0.4,1.6-0.7,3.1-1.1,4.7c0.8-0.2,1.7-0.4,2.5-0.7c-1-1.2-1.5-2.5-1.8-4c-1,0.3-1.9,0.5-2.9,0.8c0.4,1.5,0.7,2.9,0.8,4.4
				c0.8-0.4,1.5-0.9,2.3-1.3c-2-1.5-3.9-3-5.9-4.5c-1.3-1-2.7,0.8-2.1,2.1c1.1,1.9,2.5,3.8,3.3,5.9c-0.1-0.4-0.1-0.8-0.2-1.2
				c0,0.1,0,0.2,0,0.4c0.2-0.3,0.5-0.6,0.7-0.9c0.4-0.3-0.1-0.3-0.5-0.5c-0.3-0.1-0.5-0.2-0.8-0.4c-0.7-0.4-1.4-0.7-2.1-1.2
				c-1.3-0.8-2.5-1.7-3.7-2.7c-0.7,0.7-1.4,1.4-2.1,2.1c2.3,1.9,4.6,3.9,6.1,6.5c0.6-0.7,1.1-1.5,1.7-2.2c-4.4-1.6-8-4.6-11.5-7.6
				c-0.6,0.8-1.2,1.6-1.8,2.4c1.8,1.3,3.3,2.9,4.8,4.5c0.6-0.8,1.2-1.6,1.8-2.4c-2.6-1.8-5-4-7.1-6.4c-0.6,0.8-1.2,1.6-1.8,2.4
				c3.3,1.6,6.4,3.6,9,6.2c0.6-0.8,1.2-1.6,1.8-2.4c-2.9-2.2-5.7-4.4-7.9-7.3c-0.6,0.8-1.2,1.6-1.8,2.4c2.9,1.4,5.7,3,8.3,5.1
				c1.5,1.2,3.5-0.7,2.1-2.1c-1.5-1.5-3-3-4.5-4.5c-0.5,0.8-1,1.7-1.5,2.5c4.2,1.3,7.9,3.7,11,6.8c1.2,1.2,3.1-0.3,2.4-1.8
				c-1.1-2.1-1.6-4.6-1.2-6.9C543,609.2,540.1,608.4,539.8,610.3L539.8,610.3z"/>
		</g>
	</g>
	<g>
		<g>
			<path class="st7" d="M535.8,613.8c0.4,1.4,0.8,2.8,1.3,4.2c0.8-0.5,1.7-1,2.5-1.5c-2.2-1.9-4.7-3.3-7.5-4.4
				c-0.9-0.3-1.9,0.5-1.9,1.4c0,1.2,0.3,2.3,1,3.2c0.7-0.7,1.4-1.4,2.1-2.1c-1.9-1.4-3.7-2.7-5.6-4.1c-0.6-0.4-1.5-0.2-1.9,0.4
				c-0.5,0.6-0.4,1.4,0.1,2c1.2,1.3,2.5,2.5,3.9,3.6c0.6,0.5,1.5,0.6,2.1,0c0.5-0.5,0.6-1.6,0-2.1c-1.5-1.3-3.2-2.3-5-3.2
				c-1.6-0.7-2.9,1-1.8,2.4c1.3,1.7,3.1,2.9,5,3.7c0.7,0.3,1.5-0.3,1.8-0.9c0.3-0.7,0-1.4-0.6-1.9c-1-0.7-2.1-1.4-3.1-2.1
				c-1.4-0.9-3.2,1.3-1.8,2.4c1.5,1.2,3.1,2.2,4.7,3.2c0.7,0.4,1.6,0.2,2.1-0.5c0.4-0.8,0.1-1.6-0.5-2.1c-2.1-1.6-4.5-2.9-6.9-4
				c-0.7-0.3-1.5-0.3-1.9,0.4c-0.4,0.5-0.5,1.5,0.1,2c2,1.6,4.1,3,6.5,4c0.7,0.3,1.6,0.2,2.1-0.5c0.4-0.7,0.2-1.6-0.5-2.1
				c-1.2-0.7-2.4-1.4-3.6-2c-1.7-1-3.2,1.6-1.5,2.6c1.2,0.7,2.4,1.4,3.6,2c0.5-0.9,1-1.7,1.5-2.6c-2.1-0.9-4.1-2.1-5.8-3.6
				c-0.6,0.8-1.2,1.6-1.8,2.4c2.4,1.1,4.7,2.4,6.9,4c0.5-0.9,1-1.7,1.5-2.6c-1.4-0.8-2.8-1.7-4.1-2.7c-0.6,0.8-1.2,1.6-1.8,2.4
				c1,0.7,2.1,1.4,3.1,2.1c0.4-0.9,0.8-1.8,1.2-2.7c-1.5-0.6-2.7-1.7-3.7-2.9c-0.6,0.8-1.2,1.6-1.8,2.4c1.6,0.7,3.1,1.6,4.4,2.7
				c0.7-0.7,1.4-1.4,2.1-2.1c-1.4-1.1-2.7-2.3-3.9-3.6c-0.6,0.8-1.2,1.6-1.8,2.4c1.9,1.4,3.7,2.7,5.6,4.1c1.2,0.9,2.9-0.8,2.1-2.1
				c-0.4-0.5-0.6-1.1-0.6-1.7c-0.6,0.5-1.3,1-1.9,1.4c2.2,0.9,4.3,2.1,6.1,3.6c0.5,0.4,1.2,0.6,1.8,0.2c0.6-0.3,0.9-1.1,0.7-1.7
				c-0.4-1.4-0.8-2.8-1.3-4.2C538.1,611.2,535.2,611.9,535.8,613.8L535.8,613.8z"/>
		</g>
	</g>
	<g>
		<g>
			<path class="st7" d="M553.6,615.3c-0.1,0.5-0.1,0.9-0.2,1.4c0.2,0,0.5,0.1,0.7,0.1c0-0.1,0-0.2,0-0.4c0-0.1,0,0,0,0
				c0,0,0-0.1,0-0.1c0-0.1,0-0.1,0-0.2c0-0.2,0.1-0.5,0.2-0.7C554.1,615.4,553.9,615.4,553.6,615.3c0,0.2,0,0.3,0,0.4
				c0,0.1,0-0.1,0,0c0,0,0,0.1,0,0.1c0,0.1,0,0.1,0,0.2c-0.1,0.2-0.1,0.5-0.2,0.7c0.2,0,0.5,0.1,0.7,0.1c0,0,0-0.1,0-0.1
				c0,0,0-0.1,0,0c0,0.1,0,0,0,0c0,0,0-0.1,0-0.1c0-0.1,0,0,0,0c0,0,0,0,0-0.1c-0.2-0.1-0.5-0.1-0.7-0.2c0,0.1,0,0.1,0,0.2
				c0,0,0,0,0,0.1c0,0,0-0.1,0,0c0,0,0,0.1,0,0.1c0,0.1,0,0.1-0.1,0.2c0,0,0,0.1,0,0c0,0,0,0.1-0.1,0.1c-0.1,0.2,0,0.4,0.1,0.5
				c0.2,0.1,0.4,0.1,0.5-0.1c0.2-0.3,0.3-0.7,0.3-1.1c0-0.2-0.1-0.3-0.3-0.4c-0.2,0-0.3,0-0.4,0.2c-0.1,0.2-0.2,0.5-0.2,0.8
				c0,0.2,0.1,0.3,0.3,0.4c0.2,0,0.4-0.1,0.4-0.3c0.2-0.5,0.3-1,0.3-1.5c0-0.2-0.1-0.3-0.3-0.4C553.9,615,553.7,615.1,553.6,615.3
				c-0.1,0.5-0.2,1-0.2,1.5c0,0.2,0.2,0.3,0.3,0.4c0.2,0,0.4-0.1,0.4-0.3c0.1-0.5,0.1-0.9,0.2-1.4c0-0.1,0-0.2,0-0.3
				c0-0.1-0.1-0.2-0.2-0.2C553.9,615,553.7,615.1,553.6,615.3L553.6,615.3z"/>
		</g>
	</g>
	<g class="st9">
		<g class="st10">
			<path class="st8" d="M601.8,495.9c-5.4-1.7-56.4,1.5-77.5,11.6c-21.5,10.2-42.6,28.1-57.1,54c-13.4,23.8-19.2,52.7-12.9,75.8
				c6.7,24.5,26,32.7,46.9,28.1c22-4.8,44.8-22.7,64.5-40.6c2.1-1.9,5-5.1,3.9-8.3c-0.8-2.3-3.1-2.7-5-1.8c-4.7,2-9.7,9-13.8,13.1
				c-9.6,9.4-19.7,17.9-30.2,23.8c-20.2,11.2-44.2,12-55.4-8.3c-9.6-17.3-6.5-45.3,3.6-67.7c5-11.1,11.4-22.2,18.8-31.2
				c7.3-8.9,15.7-15.4,24.3-20.7c18.9-11.6,38.9-17.7,58-19.9c4.9-0.5,21.9-1.4,25.8-0.7"/>
			<g>
				<path d="M601.9,495.6c-1.8-0.5-3.9-0.4-5.7-0.4c-3.6,0-7.3,0.1-10.9,0.4c-9.8,0.6-19.6,1.7-29.3,3.2c-9.5,1.5-19.2,3.4-28.3,6.9
					c-4.9,1.9-9.5,4.4-14,7.1c-5.2,3.1-10.1,6.6-14.8,10.4c-21.3,17.3-37.2,41.4-44,68c-3.3,12.7-4.6,26.1-2.5,39.1
					c1.8,11,6.2,22,15.2,29.1c19.3,15.3,45.7,4.4,63.8-7.2c6.2-4,12.2-8.4,17.9-13c5.9-4.7,11.9-9.6,17.4-14.9
					c1.9-1.8,3.9-4.3,3.4-7.1c-0.4-2.3-2.4-3.6-4.7-3.1c-2.4,0.5-4.5,2.5-6.2,4.2c-2.3,2.3-4.4,4.8-6.6,7.2
					c-5,5.5-10.7,10.5-16.5,15.1c-5.6,4.5-11.5,8.6-17.9,11.9c-10.1,5.1-22.1,8.3-33.4,5.7c-5.1-1.2-9.9-3.7-13.7-7.4
					c-4.2-4.1-7.1-9.4-8.9-15c-3.9-12.4-3.1-26.1-0.3-38.7c3.1-14.2,9.2-27.5,16.8-39.8c4-6.4,8.5-12.5,13.8-18
					c4.9-5.1,10.5-9.5,16.4-13.3c12.7-8.3,26.7-14.5,41.4-18.2c11-2.8,22.1-4,33.4-4.4c3.8-0.1,8-0.5,11.8,0.2
					c0.4,0.1,0.5-0.5,0.2-0.6c-3.8-0.7-8-0.3-11.8-0.2c-4.5,0.2-9,0.4-13.4,0.8c-13.6,1.3-27,4.9-39.6,10.1
					c-13,5.5-25.6,12.8-35.9,22.5c-10.6,10-18.5,22.6-24.8,35.7c-5.8,12.1-9.8,25.1-10.8,38.6c-0.9,11.6,0.1,24.2,6.3,34.3
					c5.4,9,14.6,14.3,25,14.9c11.2,0.7,22.4-3.2,32-8.9c6.2-3.6,12-8,17.4-12.6c5.4-4.6,10.6-9.4,15.3-14.8c2-2.3,4.1-4.7,6.5-6.6
					c1.1-0.9,2.4-1.8,3.8-2.1c2.1-0.5,3.8,0.8,4,2.9c0.3,3.5-3.1,6.1-5.4,8.2c-2.9,2.6-5.8,5.1-8.8,7.6
					c-11.3,9.6-23.4,18.8-36.8,25.3c-10.6,5.2-22.6,8.9-34.5,7c-10.2-1.6-19-7.5-24.4-16.4c-6.5-10.8-8.1-24.1-7.5-36.5
					c1.3-27.9,14.1-54.9,32.7-75.5c8.5-9.4,18.4-17.6,29.2-24.1c4.5-2.7,9.2-5.2,14.1-7.1c4.2-1.6,8.6-2.8,13-3.9
					c10.1-2.4,20.3-3.9,30.6-5c8.1-0.9,16.3-1.6,24.5-1.5c1.8,0,3.8-0.1,5.6,0.4C602.1,496.3,602.3,495.7,601.9,495.6L601.9,495.6z"
					/>
			</g>
		</g>
		<g class="st10">
			<path class="st8" d="M599.8,495.5c5.3,1,9.7,1.1,13.7,2.8c9.5,4.1,18.7,4.3,36.6,22.5l-4.6,0.2c-13.5-10.7-34.3-16.7-51.1-18.1"
				/>
			<g>
				<path d="M599.7,495.8c4.7,0.9,9.6,1.1,14.1,3c2.2,0.9,4.5,1.7,6.8,2.5c5.9,2.1,11.4,4.8,16.4,8.4c4.6,3.3,8.8,7.2,12.9,11.3
					c0.1-0.2,0.1-0.3,0.2-0.5c-1,0-2,0.1-3,0.1c-0.4,0-1,0.2-1.4,0.1c-0.5-0.1-1.2-0.9-1.6-1.2c-3.4-2.5-7.2-4.7-11-6.6
					c-7.8-3.8-16.2-6.5-24.7-8.3c-4.6-1-9.3-1.7-14-2.1c-0.4,0-0.4,0.6,0,0.6c8.6,0.7,17.2,2.5,25.4,5.1c8.3,2.7,16.4,6.3,23.5,11.4
					c0.6,0.5,1.5,1.4,2.2,1.6c0.3,0.1,0.8,0,1.1,0c1.2-0.1,2.3-0.1,3.5-0.2c0.3,0,0.4-0.3,0.2-0.5c-6.1-6.2-12.8-12.1-20.6-16.1
					c-4.7-2.4-9.7-3.9-14.6-5.8c-2.1-0.8-4.1-1.6-6.3-2c-2.9-0.6-5.9-0.9-8.9-1.4C599.5,495.1,599.3,495.7,599.7,495.8L599.7,495.8z
					"/>
			</g>
		</g>
	</g>
	<g>
		<g>
			<path class="st7" d="M536,601.6c1.5,2.3,2.7,4.6,3.8,7.1c0.3,0.7,1.4,0.9,2.1,0.5c0.7-0.5,0.9-1.3,0.5-2.1
				c-1.1-2.5-2.3-4.8-3.8-7.1c-0.4-0.7-1.4-1-2.1-0.5C535.9,600,535.6,600.9,536,601.6L536,601.6z"/>
		</g>
	</g>
	<g>
		<g>
			<path class="st7" d="M533.9,604.4c1.8,1.4,3.8,2.2,6,2.2c1.6,0,2.1-2.6,0.4-2.9c-3.1-0.6-6.2-1-9.4-1c-2,0-1.9,2.9,0,3
				c2.9,0.2,5.7,0.4,8.6,0.7c1.9,0.1,1.9-2.8,0-3c-5.3-0.5-10.6-0.8-16-0.8c-1.9,0-1.9,2.9,0,3c1.8,0.1,3.7,0.2,5.5,0.4c0-1,0-2,0-3
				c-3.9,0.1-7.7-0.1-11.6-0.6c-1.7-0.2-2.1,2.7-0.4,2.9c4.6,0.8,9.1,1.5,13.7,2.3c0.1-1,0.3-2,0.4-2.9c-4.1-0.3-8.2-0.6-12.3-0.8
				c-1.8-0.1-1.8,2.4-0.4,2.9c3.5,1.4,7,2.8,10.5,4.2c0.3-1,0.5-1.9,0.8-2.9c-5.3-1.5-10.5-3.1-15.8-4.6c-1.9-0.6-2.5,2.2-0.8,2.9
				c4.3,1.8,8.6,3.6,12.8,5.4c1.6,0.7,2.7-2.1,1.2-2.7c-3.6-1.6-7.2-2.8-11-3.8c-1.6-0.4-2.7,2-1.2,2.7c3.5,1.7,7,3.4,10.5,5.1
				c0.4-0.9,0.8-1.8,1.2-2.7c-3-0.9-6-1.8-9-2.6c-1.6-0.5-2.7,2.1-1.2,2.7c2.7,1.1,5.3,2.3,8,3.4c0.4-0.9,0.8-1.8,1.2-2.7
				c-2.5-0.9-5-1.8-7.6-2.8c-1.6-0.6-2.7,2-1.2,2.7c2.4,1.2,4.8,2.3,7.2,3.5c0.4-0.9,0.8-1.8,1.2-2.7c-2.2-0.9-4.5-1.8-6.7-2.7
				c-1.6-0.6-2.7,2-1.2,2.7c2.1,1,4.2,1.9,6.3,2.9c1.7,0.8,3.3-1.8,1.5-2.6c-1.9-0.9-3.7-1.8-5.6-2.6c-0.5,0.9-1,1.7-1.5,2.6
				c2,0.8,3.9,1.7,5.9,2.5c1.7,0.7,3.3-1.8,1.5-2.6c-1.8-0.8-3.5-1.6-5.3-2.4c-0.4,0.9-0.8,1.8-1.2,2.7c2,0.8,4.1,1.7,6.1,2.5
				c0.3-1,0.5-1.9,0.8-2.9c-2.3-0.9-4.5-1.8-6.8-2.6c-1.6-0.6-2.7,2-1.2,2.7c2.8,1.3,5.7,2.3,8.7,2.8c1.9,0.4,2.7-2.5,0.8-2.9
				c-2.7-0.5-5.4-1.3-7.9-2.5c-0.4,0.9-0.8,1.8-1.2,2.7c2.3,0.9,4.5,1.8,6.8,2.6c1.8,0.7,2.6-2.2,0.8-2.9c-2-0.8-4.1-1.7-6.1-2.5
				c-1.6-0.6-2.7,2-1.2,2.7c1.8,0.8,3.5,1.6,5.3,2.4c0.5-0.9,1-1.7,1.5-2.6c-2-0.8-3.9-1.7-5.9-2.5c-1.7-0.7-3.3,1.7-1.5,2.6
				c1.9,0.9,3.7,1.8,5.6,2.6c0.5-0.9,1-1.7,1.5-2.6c-2.1-1-4.2-1.9-6.3-2.9c-0.4,0.9-0.8,1.8-1.2,2.7c2.2,0.9,4.5,1.8,6.7,2.7
				c1.6,0.6,2.7-2,1.2-2.7c-2.4-1.2-4.8-2.3-7.2-3.5c-0.4,0.9-0.8,1.8-1.2,2.7c2.5,0.9,5,1.8,7.6,2.8c1.6,0.6,2.7-2.1,1.2-2.7
				c-2.7-1.1-5.3-2.3-8-3.4c-0.4,0.9-0.8,1.8-1.2,2.7c3,0.9,6,1.8,9,2.6c1.6,0.5,2.7-2,1.2-2.7c-3.5-1.7-7-3.4-10.5-5.1
				c-0.4,0.9-0.8,1.8-1.2,2.7c3.5,0.9,7,2,10.3,3.5c0.4-0.9,0.8-1.8,1.2-2.7c-4.3-1.8-8.6-3.6-12.8-5.4c-0.3,1-0.5,1.9-0.8,2.9
				c5.3,1.5,10.5,3.1,15.8,4.6c1.9,0.6,2.5-2.2,0.8-2.9c-3.5-1.4-7-2.8-10.5-4.2c-0.1,1-0.3,2-0.4,2.9c4.1,0.3,8.2,0.6,12.3,0.8
				c1.7,0.1,2.1-2.7,0.4-2.9c-4.6-0.8-9.1-1.5-13.7-2.3c-0.1,1-0.3,2-0.4,2.9c3.8,0.5,7.7,0.7,11.6,0.6c1.9,0,1.9-2.9,0-3
				c-1.8-0.1-3.7-0.2-5.5-0.4c0,1,0,2,0,3c5.3,0,10.7,0.3,16,0.8c0-1,0-2,0-3c-2.9-0.2-5.7-0.4-8.6-0.7c0,1,0,2,0,3
				c2.9,0.1,5.8,0.4,8.6,0.9c0.1-1,0.3-2,0.4-2.9c-1.4,0-2.8-0.4-3.9-1.3C534.5,601.1,532.4,603.2,533.9,604.4L533.9,604.4z"/>
		</g>
	</g>
	<g>
		<g>
			<path class="st7" d="M538.7,604.6c10.8,0.6,21.5,0.7,32.3,0.3c1.9-0.1,1.9-2.9,0-3c-10-0.5-20.1-0.7-30.2-0.5c-1.9,0-1.9,3,0,3
				c8,0.1,16,0.3,24,0.4c0-1,0-2,0-3c-9.4,0.7-18.9,1.3-28.3,2c-1.9,0.1-2,3,0,3c11,0,21.9,0,32.9,0c2,0,1.9-2.8,0-3
				c-8.2-0.9-16.3-1.8-24.5-2.7c0,1,0,2,0,3c12.6,0.5,25.2,1.4,37.7,2.6c0-1,0-2,0-3c-4.2-0.4-8.4-0.8-12.6-1.2c0,1,0,2,0,3
				c7.4-0.5,14.8-0.5,22.2-0.2c0-1,0-2,0-3c-1.9,0.2-3.8,0.5-5.6,0.7c-1.9,0.2-1.9,3.2,0,3c1.9-0.2,3.8-0.5,5.6-0.7
				c1.9-0.2,2-2.9,0-3c-7.4-0.4-14.8-0.3-22.2,0.2c-1.9,0.1-1.9,2.8,0,3c4.2,0.4,8.4,0.8,12.6,1.2c1.9,0.2,1.9-2.8,0-3
				c-12.5-1.2-25.1-2.1-37.7-2.6c-2-0.1-1.9,2.8,0,3c8.2,0.9,16.3,1.8,24.5,2.7c0-1,0-2,0-3c-11,0-21.9,0-32.9,0c0,1,0,2,0,3
				c9.4-0.7,18.9-1.3,28.3-2c1.9-0.1,2-3,0-3c-8-0.1-16-0.3-24-0.4c0,1,0,2,0,3c10.1-0.2,20.1,0,30.2,0.5c0-1,0-2,0-3
				c-10.8,0.3-21.5,0.2-32.3-0.3C536.8,601.5,536.8,604.5,538.7,604.6L538.7,604.6z"/>
		</g>
	</g>
	<g>
		<g>
			<path class="st7" d="M587.4,598.6c-1.3-1.5-3.6-0.5-3.8,1.4c-0.2,2.3,2.3,3.1,4,3.7c4.3,1.7,8.8,2.6,13.4,2.9
				c1.7,0.1,2-2.5,0.4-2.9c-6.4-1.6-13-2.3-19.5-1.9c-1.6,0.1-2.1,2.6-0.4,2.9c9.2,2,18.7,2.8,28.1,2.3c1.6-0.1,2.1-2.6,0.4-2.9
				c-6.5-1.3-13.1-0.1-19.6,1.1c-1.6,0.3-1.3,3.2,0.4,2.9c8.7-1.1,17.4-2.2,26.1-3.3c-0.1-1-0.3-2-0.4-2.9
				c-5.5,1.4-11.1,2.9-16.6,4.3c0.3,1,0.5,1.9,0.8,2.9c5.1-1.6,10.2-3.3,15.3-4.9c-0.5-0.8-1-1.7-1.5-2.5c-2.8,2.4-5.8,4.6-9,6.6
				c-1.6,1-0.1,3.6,1.5,2.6c2.9-1.8,6-3,9.4-3.9c-0.5-0.8-1-1.7-1.5-2.5c-2.3,2.7-5.5,4-8.7,5.2c0.4,0.9,0.8,1.8,1.2,2.7
				c1.7-1.1,3.4-2.1,5.1-3.2c-0.6-0.8-1.2-1.6-1.8-2.4c-1.5,1.6-3.3,2.7-5.3,3.6c0.6,0.8,1.2,1.6,1.8,2.4c0.5-0.6,1-1.1,1.5-1.7
				c1.3-1.4-0.8-3.6-2.1-2.1c-0.5,0.6-1,1.1-1.5,1.7c-1.2,1.3,0.3,3,1.8,2.4c2.2-1,4.2-2.3,5.9-4.1c1.2-1.2-0.3-3.3-1.8-2.4
				c-1.7,1.1-3.4,2.1-5.1,3.2c-1.4,0.9-0.5,3.4,1.2,2.7c3.7-1.4,7.5-2.9,10.1-6c0.9-1.1,0.1-2.9-1.5-2.5c-3.5,0.9-6.9,2.3-10.1,4.2
				c0.5,0.9,1,1.7,1.5,2.6c3.4-2.1,6.6-4.4,9.6-7c1.1-1-0.1-3-1.5-2.5c-5.1,1.6-10.2,3.3-15.3,4.9c-1.8,0.6-1.1,3.4,0.8,2.9
				c5.5-1.4,11.1-2.9,16.6-4.3c1.6-0.4,1.3-3.2-0.4-2.9c-8.7,1.1-17.4,2.2-26.1,3.3c0.1,1,0.3,2,0.4,2.9c5.9-1.2,12-2.4,18-1.1
				c0.1-1,0.3-2,0.4-2.9c-9.2,0.5-18.4-0.2-27.3-2.2c-0.1,1-0.3,2-0.4,2.9c6.3-0.4,12.6,0.2,18.7,1.8c0.1-1,0.3-2,0.4-2.9
				c-2.6-0.2-5.1-0.6-7.6-1.2c-1.2-0.3-2.3-0.6-3.5-1c-0.7-0.2-1.3-0.5-1.9-0.7c-0.3-0.1-0.5-0.2-0.8-0.4c-0.1,0-0.2-0.1-0.3-0.2
				c-0.5-0.3-1-0.1-1.5,0.6C586.5,602.2,588.6,600.1,587.4,598.6L587.4,598.6z"/>
		</g>
	</g>
	<g>
		<g>
			<path class="st7" d="M581,602.9c1.2,0.7,2.5,1.2,3.7,1.8c0.6,0.2,1.2,0.5,1.8,0.7c0.3,0.1,0.6,0.2,0.9,0.3
				c0.2,0.1,0.3,0.1,0.5,0.2c0.2,0.1,0.1,0,0,0c-0.5-0.4-0.5-0.9-0.1-1.7c0.2-0.1,0.4-0.3,0.7-0.4c-0.1,0-0.1,0,0,0
				c0.1,0,0.2,0,0.3,0c-0.1,0-0.3,0-0.4-0.1c-0.3-0.1-0.6-0.1-0.9-0.2c-0.6-0.1-1.1-0.2-1.7-0.3c-0.6-0.1-1.2-0.2-1.8-0.3
				c-0.8-0.1-1.6-0.2-2.3,0.2c-0.7,0.4-1.2,1.1-1.1,1.9c0,0.9,0.5,1.5,1.3,2c0.5,0.3,1.1,0.5,1.7,0.7c0.5,0.2,1,0.3,1.6,0.4
				c0.5,0.1,1.1,0.1,1.6-0.2c0.5-0.3,0.8-0.9,0.8-1.5c0-0.5-0.3-1-0.6-1.4c-0.2-0.1-0.3-0.3-0.5-0.3c0,0-0.1-0.1-0.1-0.1
				c-0.1,0-0.1,0,0,0c0.3,0.2,0.4,0.5,0.4,0.8c0.1-0.8-0.7-1.5-1.5-1.5c-0.9,0-1.4,0.7-1.5,1.5c0,0.5,0.2,1.1,0.6,1.4
				c0.1,0.1,0.4,0.3,0.6,0.4c0.1,0.1,0.1,0.1-0.1-0.1c-0.3-0.4-0.4-0.8-0.1-1.3c0.2-0.2,0.4-0.4,0.5-0.5c0.6-0.5,1.1,0,0.7-0.1
				c-0.1,0-0.2,0-0.3-0.1c-0.1,0-0.3-0.1-0.4-0.1c-0.3-0.1-0.7-0.2-1-0.3c-0.1-0.1-0.3-0.1-0.4-0.2c0.3,0.1-0.1-0.1-0.2-0.1
				c-0.1-0.1-0.4-0.3-0.1,0c0,0-0.1-0.2,0,0c0.1,0.2,0.2,0.5,0.1,0.8c0,0.1-0.1,0.3-0.2,0.3c0,0-0.3,0.2-0.1,0.1
				c0,0-0.3,0.1-0.1,0.1c0.2-0.1-0.2,0,0,0c0,0,0.3,0,0.1,0c-0.2,0,0,0,0.1,0c0.2,0,0.4,0.1,0.6,0.1c0.7,0.1,1.4,0.2,2.1,0.3
				c0.7,0.1,1.4,0.2,2.1,0.3c0.5,0.1,1.1,0.1,1.6-0.2c0.5-0.4,0.9-0.9,0.9-1.6c0-0.6-0.3-1.1-0.8-1.5c-0.4-0.3-0.8-0.4-1.2-0.5
				c-0.6-0.2-1.3-0.4-1.9-0.7c-0.3-0.1-0.7-0.3-1-0.4c-0.2-0.1,0.2,0.1,0,0c-0.1,0-0.2-0.1-0.3-0.1c-0.2-0.1-0.3-0.1-0.5-0.2
				c-0.7-0.3-1.4-0.7-2.1-1.1c-0.7-0.4-1.7-0.2-2.1,0.5C580.1,601.5,580.3,602.5,581,602.9L581,602.9z"/>
		</g>
	</g>
	<g>
		<g>
			<path class="st7" d="M615.7,603.7c0-0.1,0-0.1,0-0.2c0.1-0.1,0.1-0.1,0,0c0,0-0.1,0.1-0.1,0.1c-0.1,0.2,0.1-0.1-0.1,0.1
				c-0.1,0.1-0.2,0.2-0.2,0.2c-0.4,0.4-0.8,0.7-1.3,1.1c-0.8,0.7-1.6,1.3-2.5,1.9c-1.8,1.3-3.7,2.4-5.7,3.4
				c-0.7,0.4-0.9,1.4-0.5,2.1c0.4,0.7,1.3,0.9,2.1,0.5c2.3-1.1,4.4-2.5,6.5-4c1.1-0.8,2.1-1.6,3.1-2.4c1.2-1,1.9-2.1,1.7-3.7
				c-0.1-0.8-1.1-1.2-1.8-1C615.9,602.1,615.5,602.9,615.7,603.7L615.7,603.7z"/>
		</g>
	</g>
	<g>
		<g>
			<path class="st7" d="M613.1,606.3C613.2,606.1,613.3,606.1,613.1,606.3c0,0-0.1,0.1-0.2,0.2c-0.1,0.1-0.2,0.2-0.3,0.4
				c-0.2,0.2-0.4,0.5-0.6,0.7c-0.2,0.2-0.5,0.4-0.7,0.7c-0.1,0.1-0.1,0.1-0.2,0.2c-0.2,0.1,0.2-0.2,0.1,0c-0.1,0.1-0.3,0.2-0.4,0.3
				c-0.5,0.4-1.1,0.7-1.6,1c-0.1,0.1-0.3,0.1-0.4,0.2c-0.1,0-0.2,0.1-0.2,0.1c0.1,0,0.3-0.1,0.1,0c-0.3,0.1-0.6,0.2-1,0.4
				c-0.7,0.2-1.3,1.1-1,1.8c0.2,0.7,1,1.3,1.8,1c3-1,5.5-2.8,7.4-5.3c0.2-0.3,0.2-0.8,0.2-1.2c-0.1-0.3-0.4-0.7-0.7-0.9
				c-0.3-0.2-0.8-0.3-1.2-0.2C613.6,605.7,613.4,605.9,613.1,606.3L613.1,606.3z"/>
		</g>
	</g>
	<g>
		<g>
			<path class="st7" d="M613.5,607.6c-1.8,1.3-3.8,2.4-5.8,3.3c-0.3,0.1-0.6,0.6-0.7,0.9c-0.1,0.4-0.1,0.8,0.2,1.2
				c0.2,0.3,0.5,0.6,0.9,0.7c0.4,0.1,0.8,0,1.2-0.2c2-0.9,4-2,5.8-3.3c0.6-0.4,1-1.3,0.5-2.1C615.1,607.5,614.1,607.1,613.5,607.6
				L613.5,607.6z"/>
		</g>
	</g>
	<g>
		<g>
			<path class="st7" d="M612.1,608.7c-0.8,0.5-1.5,0.9-2.4,1.3c0.1-0.1,0.2-0.1,0.4-0.2c-0.8,0.3-1.6,0.6-2.4,0.8
				c-0.8,0.2-1.3,1.1-1,1.8c0.3,0.8,1,1.2,1.8,1c1.8-0.4,3.6-1.2,5.2-2.2c0.3-0.2,0.6-0.5,0.7-0.9c0.1-0.4,0.1-0.8-0.2-1.2
				C613.8,608.6,612.8,608.2,612.1,608.7L612.1,608.7z"/>
		</g>
	</g>
	<g>
		<g>
			<path class="st7" d="M611.5,608.8c-0.7,0.5-1.5,0.9-2.3,1.3c0.1-0.1,0.2-0.1,0.4-0.2c-0.5,0.2-0.9,0.4-1.4,0.5
				c-0.4,0.1-0.7,0.4-0.9,0.7c-0.2,0.3-0.3,0.8-0.2,1.2c0.2,0.8,1,1.3,1.8,1c1.4-0.4,2.8-1.1,4.1-1.9c0.3-0.2,0.6-0.5,0.7-0.9
				c0.1-0.4,0.1-0.8-0.2-1.2c-0.2-0.3-0.5-0.6-0.9-0.7C612.2,608.6,611.8,608.6,611.5,608.8L611.5,608.8z"/>
		</g>
	</g>
	<g>
		<g>
			<path class="st7" d="M612.2,609.1c-1.3,0.5-2.6,1-3.9,1.6c-0.4,0.2-0.7,0.3-0.9,0.7c-0.2,0.3-0.3,0.8-0.2,1.2
				c0.1,0.4,0.3,0.7,0.7,0.9c0.3,0.2,0.8,0.3,1.2,0.2c1.3-0.5,2.6-1,3.9-1.6c0.4-0.2,0.7-0.3,0.9-0.7c0.2-0.3,0.3-0.8,0.2-1.2
				c-0.1-0.4-0.3-0.7-0.7-0.9C613.1,609.1,612.6,609,612.2,609.1L612.2,609.1z"/>
		</g>
	</g>
	<g>
		<g>
			<path class="st7" d="M610.2,610.3C610.2,610.3,610.2,610.4,610.2,610.3c0-0.1,0.1-0.2,0.1-0.3c0,0,0,0.1-0.1,0.1
				c0.1-0.1,0.2-0.2,0.2-0.3c0,0.1-0.1,0.1-0.1,0.1c0.1-0.1,0.2-0.2,0.3-0.2c-0.2,0.1-0.4,0.2-0.6,0.3c0.1-0.1,0.2-0.1,0.4-0.2
				c-0.4,0.2-0.8,0.3-1.1,0.4c-0.2,0-0.4,0.1-0.5,0.3c-0.2,0.1-0.3,0.2-0.4,0.4c-0.1,0.2-0.2,0.4-0.2,0.6c0,0.2,0,0.4,0,0.6
				c0.1,0.4,0.3,0.7,0.7,0.9c0.4,0.2,0.8,0.2,1.2,0.2c0.6-0.1,1.1-0.3,1.6-0.6c0.2-0.1,0.3-0.2,0.5-0.3c0.2-0.1,0.3-0.2,0.5-0.4
				c0.2-0.3,0.4-0.5,0.5-0.8c0.1-0.2,0.1-0.4,0-0.6c0-0.2-0.1-0.4-0.2-0.6c-0.1-0.2-0.2-0.3-0.4-0.4c-0.1-0.1-0.3-0.2-0.5-0.3
				c-0.4-0.1-0.8-0.1-1.2,0.2c-0.1,0.1-0.2,0.2-0.3,0.2C610.4,609.9,610.3,610.1,610.2,610.3L610.2,610.3z"/>
		</g>
	</g>
	<g>
		<g>
			<path class="st7" d="M611.6,609.5c-0.9,0.3-1.8,0.5-2.7,0.7c-0.3,0.1-0.7,0.4-0.9,0.7c-0.2,0.3-0.3,0.8-0.2,1.2
				c0.1,0.4,0.3,0.7,0.7,0.9c0.1,0.1,0.2,0.1,0.4,0.2c0.3,0.1,0.5,0.1,0.8,0c0.9-0.1,1.8-0.4,2.7-0.7c0.4-0.1,0.7-0.3,0.9-0.7
				c0.2-0.3,0.3-0.8,0.2-1.2c-0.1-0.4-0.3-0.7-0.7-0.9C612.4,609.5,612,609.4,611.6,609.5L611.6,609.5z"/>
		</g>
	</g>
	<g>
		<g>
			<path class="st7" d="M518.6,612.5c0.8,0.4,1.7,0.8,2.6,1c0.4,0.1,0.8,0.1,1.2-0.2c0.3-0.2,0.6-0.5,0.7-0.9
				c0.1-0.4,0.1-0.8-0.2-1.2c-0.2-0.3-0.5-0.6-0.9-0.7c-0.5-0.1-1-0.3-1.5-0.5c0.1,0.1,0.2,0.1,0.4,0.2c-0.2-0.1-0.5-0.2-0.7-0.4
				c-0.3-0.2-0.8-0.3-1.2-0.2c-0.3,0.1-0.7,0.4-0.9,0.7c-0.2,0.3-0.3,0.8-0.2,1.2C518,611.9,518.3,612.3,518.6,612.5L518.6,612.5z"
				/>
		</g>
	</g>
	<g>
		<g>
			<path class="st7" d="M518.5,612.3c1,0.6,2.1,1.1,3.2,1.4c0.4,0.1,0.8,0,1.2-0.2c0.3-0.2,0.6-0.5,0.7-0.9c0.1-0.4,0.1-0.8-0.2-1.2
				c-0.2-0.3-0.5-0.6-0.9-0.7c-0.4-0.1-0.9-0.3-1.3-0.5c0.1,0.1,0.2,0.1,0.4,0.2c-0.5-0.2-1-0.5-1.5-0.8c-0.3-0.2-0.8-0.3-1.2-0.2
				c-0.3,0.1-0.7,0.4-0.9,0.7c-0.2,0.3-0.3,0.8-0.2,1.2C518,611.8,518.2,612.1,518.5,612.3L518.5,612.3z"/>
		</g>
	</g>
	<g>
		<g>
			<path class="st7" d="M518.7,612.5c1.1,0.7,2.4,1.2,3.7,1.5c0.4,0.1,0.8,0.1,1.2-0.2c0.3-0.2,0.6-0.5,0.7-0.9
				c0.1-0.4,0.1-0.8-0.2-1.2c-0.2-0.3-0.5-0.6-0.9-0.7c-0.6-0.1-1.2-0.3-1.8-0.6c0.1,0.1,0.2,0.1,0.4,0.2c-0.5-0.2-1.1-0.5-1.6-0.8
				c-0.7-0.4-1.7-0.2-2.1,0.5C517.8,611.2,518,612.1,518.7,612.5L518.7,612.5z"/>
		</g>
	</g>
	<text transform="matrix(1.0078 0 0 1 537.5336 546.6386)" class="st11 st12 st13">FESTO</text>
	<circle class="st1" cx="564.6" cy="618.2" r="10"/>
</g>
<g id="Stapel">
	<path class="st14" d="M134.5,216c25.5-1,51-1.3,76.5,1.1c-0.4,0.2-0.8,0.4-1.2,0.5c-9.8,1.4-19.6,2.2-29.5,2.1
		c-11.7-0.1-23.5-0.2-35.2-1.4c-3.6-0.4-7.1-1.1-10.7-1.7C134.5,216.2,134.5,216.3,134.5,216z"/>
	<path class="st15" d="M131.4,477.5c0.1,1,0.1,1.9,0.2,3.1c2.6,0.8,5.2,1.7,7.9,2.3c12.7,2.5,25.5,3,38.4,2.5
		c7.8-0.3,15.5-1.2,23.1-2.5c4-0.7,8.1-1.5,11.8-3.4c1-0.5,1.7-1.1,1.6-2.3c1.1,0.4,2,0.7,2.8,1.1c1.4,0.6,2.2,1.7,2.2,3.2
		c0,0.5,0,1,0,1.5c0,12.1,0,24.2,0.1,36.2c0,15.3,0.1,30.6,0.1,45.9c0,0.9,0,1.9,0,3c-31.4,0-62.7,0-94.1,0
		c-0.1-0.5-0.2-0.9-0.2-1.4c0-27.8,0-55.5,0.1-83.3C125.4,480.4,127.2,478.6,131.4,477.5z"/>
	<path class="st14" d="M212.3,215.8c-0.1,0.9-0.4,1.8-0.4,2.7c0.1,20.1,0.2,40.2,0.3,60.2c0,0.9,0,1.7,0,2.8
		c-26.8-0.7-53.3-1.5-80.2,0.8c-0.2-21.7,0-43.4-0.1-65.3c0.8,0.1,1.5,0,2,0.2c3.7,1.2,7.5,1.3,11.3,1.6c11.1,0.8,22.2,0.8,33.3,0.5
		c7.6-0.3,15.2-0.7,22.7-1.4C205,217.6,208.7,216.6,212.3,215.8C212.3,215.9,212.3,215.8,212.3,215.8z"/>
	<path class="st7" d="M213.1,413.8c0,5.4,0,10.8,0,16.3c0,4.8,0,9.7,0.1,14.5c0,1.4-0.4,2.4-1.7,3c-1.8,0.9-3.5,1.9-5.4,2.5
		c-6,2-12.2,3.2-18.5,3.7c-8.4,0.7-16.8,1-25.2,0.4c-5.4-0.4-10.8-0.9-16.2-1.9c-4.2-0.8-8.4-2-12.1-4.2c-1.2-0.7-1.8-1.5-1.8-2.9
		c0.1-10.2,0-20.3,0-30.5c0-0.4,0.1-0.9,0.1-1.3c5.9,2.6,12,3.8,18.2,4.3c9,0.8,18,1.7,27.1,1.4c8.5-0.3,17-0.8,25.3-2.3
		C206.4,416.2,209.6,414.9,213.1,413.8z"/>
	<path class="st16" d="M131.5,317.1c0-11.3,0-22.2,0-33.2c2.3,0.4,4.3,0.9,6.3,1.1c5.3,0.7,10.6,1.5,15.9,1.8
		c14.7,0.9,29.4,1.1,44.1-0.4c4.3-0.4,8.6-1.6,12.9-2.4c0.5-0.1,1.1-0.2,1.9-0.4c0.1,1.8,0.2,3.4,0.2,5.1c0,8.7,0,17.5,0.1,26.2
		c0,1.3-0.4,2-1.6,2.7c-2.8,1.4-5.8,1.8-8.9,2.3c-13.6,2.2-27.4,2-41.1,1.5c-3.4-0.1-6.8-0.2-10.2-0.6c-5.2-0.6-10.4-1.4-15.6-2.3
		C134,318.3,132.7,317.5,131.5,317.1z"/>
	<path class="st16" d="M132.6,315.8c12.5,4.1,25.3,4.2,38.1,4.5c8.9,0.2,17.8-0.1,26.6-1c5-0.5,9.8-1.4,14.4-3.4
		c0.2-0.1,0.5-0.1,0.8-0.2c0,0.8,0.1,1.4,0.1,2.1c0,9.5-0.1,19.1,0.1,28.6c0,2.5-1.1,3.8-3.1,4.8c-3.4,1.5-7,2.5-10.8,3.2
		c-13.8,2.5-27.7,2.5-41.6,1.4c-5.5-0.4-10.9-1.5-16.3-2.5c-2.3-0.4-4.5-1.5-6.7-2.4c-1.2-0.5-1.9-1.3-1.9-2.8
		c0-10.6,0-21.1,0.1-31.7C132.4,316.4,132.5,316.2,132.6,315.8z"/>
	<path class="st17" d="M132.6,350.2c0.2,0,0.4-0.1,0.5,0c7.1,3.6,14.9,4.5,22.7,5.1c9.3,0.8,18.7,0.9,28.1,0.4
		c4.9-0.3,9.9-0.6,14.8-1.5c4.6-0.9,9.3-1.7,13.3-4.4c0.1-0.1,0.3,0,0.6,0c0.1,0.5,0.2,1,0.2,1.5c0,10.1,0,20.2,0.1,30.4
		c0,1.5-0.5,2.3-1.7,3c-3.7,2.3-7.8,3.3-11.9,4.1c-12.5,2.2-25.1,3-37.8,1.9c-5.8-0.5-11.6-1.3-17.3-2.4c-3.6-0.7-7.3-1.7-10.5-3.8
		c-0.8-0.5-1.3-1-1.3-2c0-10.5,0-21,0-31.5C132.4,350.5,132.5,350.3,132.6,350.2z"/>
	<path class="st7" d="M132.5,447.2c2.4,1,4.6,1.9,6.9,2.8c3.7,1.6,7.7,2,11.6,2.7c8.6,1.5,17.3,1.5,26.1,1.4
		c8.2-0.1,16.3-1.2,24.2-3c3.5-0.8,7.1-1.8,10.2-3.8c0.4-0.2,0.8-0.4,1.6-0.8c0.2,11,0.1,21.7,0.1,32.5c-3.5,1.8-7.3,2.8-11.1,3.6
		c-16.5,3.3-33.2,3.3-49.9,2.2c-6.2-0.4-12.2-1.7-18.1-3.4c-1.3-0.4-1.8-0.9-1.8-2.2c0-10.5,0-21,0-31.5
		C132.3,447.6,132.4,447.5,132.5,447.2z"/>
	<path class="st17" d="M212.9,381.9c0,0.6,0.1,1.2,0.1,1.7c0,9.4,0,18.8,0.1,28.2c0,1.6-0.5,2.7-2,3.2c-1.9,0.7-3.7,1.5-5.6,2
		c-8.8,2.2-17.9,2.7-26.9,2.8c-9.1,0.1-18.1,0-27.2-1c-4.9-0.6-9.7-1.7-14.5-2.6c-0.2,0-0.5-0.1-0.7-0.2c-4.7-1.6-4.7-1.6-4.7-6.4
		c0-8.5,0-16.9,0-25.4c0-0.7,0.1-1.5,0.1-2.4c8.9,4.4,18.4,5.6,28,6.3c8.6,0.6,17.1,0.5,25.7,0c6.6-0.4,13.2-1.4,19.6-3.1
		C207.5,384.3,210.1,383,212.9,381.9z"/>
	<path class="st16" d="M211.8,283.7c-1.1,0.3-2.1,0.8-3.2,1c-9.5,2.4-19.1,3.4-28.8,3.5c-9.6,0.1-19.2,0-28.7-1.1
		c-5.2-0.6-10.4-1.7-15.6-2.5c-0.3-0.1-0.6-0.3-0.9-0.9c1.1-0.2,2.3-0.6,3.4-0.7c13-0.4,26-1.1,39-1.1c10.8-0.1,21.6,0.5,32.5,0.8
		c0.7,0,1.5,0.2,2.2,0.2C211.7,283.2,211.8,283.5,211.8,283.7z"/>
	<path class="st18" d="M130.9,481"/>
	<path class="st18" d="M214.9,480.4"/>
	<line class="st18" x1="124.8" y1="482.4" x2="124.7" y2="604.3"/>
	<line class="st18" x1="219.9" y1="481.9" x2="220.1" y2="603.7"/>
	<path class="st18" d="M124.5,604.1c30.1,14.1,62,15.3,95.7-0.8"/>
	<path class="st18" d="M219.7,473.8"/>
	<path class="st18" d="M131.8,480.6c19.7,7.7,68.9,5.4,82-1.7"/>
	<line class="st18" x1="131.7" y1="215.9" x2="131.8" y2="480.9"/>
	<line class="st18" x1="213.7" y1="479.2" x2="212.7" y2="215.8"/>
	<path class="st18" d="M131.9,216.5c12.4,5.1,71.5,4.2,80.7-0.3"/>
	<path class="st18" d="M124.8,482.6c0-0.3,1.1-4,6.7-5.3"/>
	<path class="st18" d="M213.9,477.2c6.5,0.9,6.2,5,5.8,5"/>
	<path class="st18" d="M131.7,216.3c9.3-1.2,65.1-2.5,81.1-0.1"/>
	<path class="st18" d="M131.8,446.4c12.4,10.6,68.8,10.2,81.7-0.2"/>
	<path class="st18" d="M131.9,413.4c9.1,7.6,73.1,8.4,81.5,0"/>
	<path class="st18" d="M131.9,381.8c11.1,9.6,71.5,9.6,81.4-0.1"/>
	<path class="st18" d="M131.8,349.2c8.8,8.6,74,9,81.3-0.7"/>
	<path class="st18" d="M131.8,283.8c14.4,4.8,67.2,6,81.1-0.4"/>
	<path class="st18" d="M213.1,316.5c-6.5,7.7-73.7,6.5-81.3,0.3l0.4-32.9c15.1-2.9,69.8-1.7,80.7-1L213.1,316.5z"/>
	<rect x="98.2" y="568.6" class="st19" width="151.2" height="85.6"/>
</g>
<g id="Bewegliches_Teil">
	<rect x="538.7" y="479.1" class="st2" width="414.3" height="42"/>
	<circle class="st1" cx="565.1" cy="499.5" r="10"/>
	<ellipse class="st1" cx="809.7" cy="500.5" rx="8.7" ry="10"/>
	<circle class="st1" cx="661.5" cy="499.4" r="10"/>
	<g>
		<g>
			<path d="M657.2,495.3c3,3,6.1,5.8,9.1,8.8c0.7,0.7,1.7-0.4,1.1-1.1c-3-3-6.1-5.8-9.1-8.8C657.5,493.6,656.5,494.6,657.2,495.3
				L657.2,495.3z"/>
		</g>
	</g>
	<g>
		<g>
			<path d="M657.6,504.7c3.2-2.9,5.9-6.3,9.1-9.2c0.7-0.7-0.4-1.7-1.1-1.1c-3.2,2.9-5.9,6.3-9.1,9.2
				C655.8,504.3,656.9,505.4,657.6,504.7L657.6,504.7z"/>
		</g>
	</g>
	<g>
		<g>
			<path d="M805.9,496.6c2.6,3,5.3,5.8,7.9,8.8c0.6,0.7,1.7-0.3,1.1-1.1c-2.6-3-5.3-5.8-7.9-8.8
				C806.3,494.8,805.2,495.8,805.9,496.6L805.9,496.6z"/>
		</g>
	</g>
	<g>
		<g>
			<path d="M806.4,505.9c2.8-2.9,5.1-6.3,7.9-9.2c0.7-0.7-0.4-1.8-1.1-1.1c-2.8,2.9-5.1,6.3-7.9,9.2
				C804.7,505.6,805.7,506.6,806.4,505.9L806.4,505.9z"/>
		</g>
	</g>
</g>
<g id="Sauger">
	<rect x="914.3" y="486.9" class="st2" width="36" height="23.5"/>
	<rect x="922.1" y="526.9" class="st20" width="22.6" height="12.3"/>
	<rect x="929" y="539.7" class="st2" width="9.2" height="52.3"/>
	<rect x="926.4" y="592" class="st21" width="14.3" height="11.7"/>
	<ellipse class="st21" cx="933.2" cy="518.9" rx="13" ry="15"/>
	<g>
		<path class="st8" d="M930,603.9c0.1,0.6,0.1,1.4,0,1.5c-0.3,0.4-1.3,0.1-1.9,0.3c-0.6,0.2-0.7,2.4-0.4,3.3c0.4,1,1.9,0.9,2.8,0.9
			c2.6,0,8,0.2,9.7-0.6c0.5-0.2,0.6-2.7,0.1-3.4c-0.5-0.7-2.6,0-2.5-0.6l-0.1-1.5L930,603.9z"/>
		<g>
			<path d="M929.7,603.9c0,0.3,0.2,0.8,0.1,1.1c-0.1,0.3-0.4,0.3-0.7,0.3c-0.5,0-1,0-1.3,0.4c-0.6,0.7-0.5,2-0.4,2.8
				c0.1,1.1,0.7,1.6,1.8,1.8c1,0.1,2,0.1,3,0.1c2.3,0,4.8,0.1,7.1-0.3c0.7-0.1,1.5-0.2,1.8-1c0.3-0.9,0.3-2,0-2.9
				c-0.4-1.1-1.3-1-2.3-1c-0.1,0-0.2,0-0.2,0c-0.1,0-0.1,0-0.2,0c-0.1,0-0.1,0,0,0.1c0-0.1,0-0.2,0-0.4c0-0.4,0-0.8-0.1-1.2
				c0-0.2-0.2-0.4-0.4-0.4c-2.6,0-5.1,0-7.7,0.1c-0.5,0-0.5,0.8,0,0.8c2.6,0,5.1,0,7.7-0.1c-0.1-0.1-0.2-0.2-0.4-0.4
				c0,0.5,0,1.1,0.1,1.6c0.1,0.7,1,0.6,1.6,0.5c0.3,0,0.8-0.1,1.1,0.2c0.2,0.3,0.2,1,0.3,1.3c0,0.4,0,1-0.1,1.3
				c-0.1,0.3-0.5,0.3-0.8,0.4c-2,0.5-4.2,0.4-6.3,0.4c-0.9,0-1.9,0-2.8,0c-0.9,0-2.1,0.1-2.3-1c-0.1-0.6-0.1-1.2,0-1.7
				c0-0.2,0.1-0.5,0.2-0.6c0.2-0.2,0.6-0.1,0.9-0.1c0.4,0,1,0,1.3-0.4c0.3-0.4,0.1-1.2,0.1-1.7C930.3,603.4,929.6,603.4,929.7,603.9
				z"/>
		</g>
	</g>
	<g>
		<path class="st8" d="M917.4,473.6c-1.7-2-3.6-4.5-3.4-7.5c0.1-2.3,1.5-4.3,3.2-5.2c1.7-0.9,3.5-0.8,5.3-0.5
			c4.9,0.9,9.9,3.9,13.3,8.6"/>
		<g>
			<path d="M917.6,473.3c-1.9-2.3-3.9-5-3.2-8.2c0.7-3.2,3.6-4.8,6.8-4.5c5.7,0.5,10.9,4.1,14.2,8.6c0.3,0.4,0.9,0,0.6-0.4
				c-2-2.7-4.5-4.9-7.4-6.5c-2.7-1.5-6.2-2.8-9.3-2.4c-3,0.3-5.3,2.6-5.8,5.6c-0.5,3.3,1.5,6,3.5,8.4
				C917.4,474.2,917.9,473.7,917.6,473.3L917.6,473.3z"/>
		</g>
	</g>
	<g>
		<path class="st22" d="M940.2,486.6c-0.4-2,0.5-5.2,0.8-7.3c0.3-2.1,0.4-4.4-0.4-6.2c-0.7-1.6-2.1-2.5-3.4-3.3
			c-2.4-1.4-4.8-2.4-7.3-3.3c-2-0.7-4.1-1.1-6.1-0.3c-1.7,0.7-3,2.3-4.3,4c-0.8,1.1-1.6,2.2-2.1,3.5s-0.7,2.9-0.3,4.3
			c0.7,2.3,2.8,3.3,4.6,4.1c1.6,0.6,3.2,1.3,4.8,1.9c0.8,0.3,1.5,1.4,2,2.4"/>
		<g>
			<path d="M940.6,486.5c-0.3-2.2,0.4-4.4,0.7-6.5c0.3-1.9,0.6-4,0.1-5.9c-1-3.9-5.7-5.7-9.1-7c-2-0.8-4.2-1.7-6.5-1.6
				c-2,0.1-3.6,1.2-5,2.6c-2.5,2.8-5.5,7-3.7,10.9c0.8,1.7,2.4,2.6,4,3.3c1.2,0.5,2.4,1,3.6,1.5c0.8,0.3,1.7,0.6,2.4,1.2
				c0.5,0.5,0.8,1.1,1.2,1.7c0.2,0.4,0.9,0,0.6-0.4c-0.4-0.6-0.8-1.3-1.3-1.9c-0.6-0.6-1.3-0.8-2-1.1c-1.8-0.7-3.7-1.3-5.4-2.3
				c-1.8-1-3-2.7-2.9-4.9c0.1-2.2,1.2-4,2.5-5.7c1.3-1.7,2.8-3.7,5-4.1c2.2-0.5,4.5,0.4,6.5,1.2c2,0.8,4,1.7,5.8,2.8
				c1.8,1.1,3.1,2.5,3.5,4.7c0.6,4-1.6,7.8-0.9,11.7C939.9,487.2,940.6,487,940.6,486.5L940.6,486.5z"/>
		</g>
	</g>
	<g>
		<path class="st8" d="M946.4,519.4c2.7-3.9,4.4-8.7,6.3-13.5c1.2-2.9,1.4-7.7,0.6-10.8s-2.3-5-3.8-7.6c-3.3-5.9-4-6-8.2-11.3
			l-0.4,4.3c1.4,1.8,3.6,4.6,5.1,6.4c1.5,1.9,3.3,5,4.3,7.4c2.7,5.8-1,16.7-3.9,22.3V519.4z"/>
		<g>
			<path d="M946.7,519.6c2.1-3,3.5-6.4,4.9-9.8c1.3-3.2,2.4-6.2,2.5-9.6c0.1-3.2-0.5-6.2-2-9.1c-1.6-2.8-3.2-5.7-5.1-8.3
				c-1.7-2.4-3.7-4.5-5.5-6.8c-0.2-0.3-0.6,0-0.6,0.3c-0.1,0.9-0.2,1.8-0.2,2.7c-0.1,0.9-0.3,1.4,0.3,2.2c2.5,3.1,5.1,6.1,7.1,9.5
				c0.9,1.6,2,3.4,2.5,5.2c0.4,1.7,0.5,3.5,0.3,5.2c-0.3,3.7-1.4,7.3-2.7,10.8c-0.4,1-0.8,2-1.3,3c-0.3,0.6-0.7,1.2-0.8,1.8
				c-0.2,0.9,0,2,0,2.9c0,0.5,0.8,0.5,0.8,0c0-0.9-0.2-1.9,0-2.7c0.1-0.5,0.5-1.1,0.7-1.5c0.3-0.7,0.7-1.4,1-2.2
				c1.4-3.4,2.5-7,3-10.7c0.4-3.3,0.2-6.3-1.3-9.3c-1.8-3.6-4.1-6.5-6.5-9.6c-0.7-0.9-1.5-1.7-2.1-2.7c-0.2-0.3-0.2-0.6-0.1-1.1
				c0.1-1.1,0.2-2.2,0.3-3.3c-0.2,0.1-0.4,0.2-0.6,0.3c2,2.5,4.1,4.8,5.9,7.5c1.1,1.7,2.1,3.5,3.1,5.2c1.1,1.8,2.2,3.6,2.8,5.6
				c1.1,3.9,0.6,8.2-0.8,11.9c-1.7,4.3-3.3,8.7-5.9,12.6C945.8,519.6,946.5,520,946.7,519.6z"/>
		</g>
	</g>
	<g>
		<g>
			<path d="M922.3,467.1c-0.2-0.4-0.5-0.8-0.8-1.1c-0.3-0.3-0.6-0.6-0.9-0.9c-0.2-0.3-0.4-0.7-0.3-1.1c0-0.2,0.1-0.6,0.3-0.7
				c0.5-0.1,0.3-0.9-0.2-0.7c-1,0.3-1,1.7-0.7,2.5c0.4,1,1.5,1.5,2,2.5c0.1,0.2,0.4,0.2,0.5,0.1
				C922.4,467.5,922.4,467.3,922.3,467.1L922.3,467.1z"/>
		</g>
	</g>
</g>
</svg>
