<?xml version="1.0" encoding="UTF-8" standalone="no"?>
<!-- Generator: Adobe Illustrator 26.3.1, SVG Export Plug-In . SVG Version: 6.00 Build 0)  -->

<svg version="1.1" id="Ebene_2" x="0px" y="0px" viewBox="0 0 1024 768" style="enable-background:new 0 0 1024 768;"
   xml:space="preserve" sodipodi:docname="Gesamtübersicht_Festo_de.svg" inkscape:version="1.2 (dc2aedaf03, 2022-05-15)"
   xmlns:inkscape="http://www.inkscape.org/namespaces/inkscape"
   xmlns:sodipodi="http://sodipodi.sourceforge.net/DTD/sodipodi-0.dtd" xmlns:xlink="http://www.w3.org/1999/xlink"
   xmlns="http://www.w3.org/2000/svg" xmlns:svg="http://www.w3.org/2000/svg">
   <defs id="defs623" />
   <sodipodi:namedview id="namedview621" pagecolor="#ffffff" bordercolor="#000000" borderopacity="0.25"
      inkscape:showpageshadow="2" inkscape:pageopacity="0.0" inkscape:pagecheckerboard="0" inkscape:deskcolor="#d1d1d1"
      showgrid="false" inkscape:zoom="1.046875" inkscape:cx="443.22388" inkscape:cy="384.47761"
      inkscape:window-width="1920" inkscape:window-height="991" inkscape:window-x="-9" inkscape:window-y="1071"
      inkscape:window-maximized="1" inkscape:current-layer="Ebene_2" />
   <style type="text/css" id="style2">
      .gesamtansicht_Festo_st0 {
         fill: #B3B3B3;
         stroke: #000000;
         stroke-width: 0.78;
         stroke-miterlimit: 10;
      }

      .gesamtansicht_Festo_st1 {
         fill: #CCCCCC;
         stroke: #000000;
         stroke-miterlimit: 10;
      }

      .gesamtansicht_Festo_st2 {
         fill: none;
         stroke: #000000;
         stroke-miterlimit: 10;
      }

      .gesamtansicht_Festo_st3 {
         fill: #B3B3B3;
         stroke: #000000;
         stroke-miterlimit: 10;
      }

      .gesamtansicht_Festo_st4 {
         fill: #808080;
         stroke: #000000;
         stroke-miterlimit: 10;
      }

      .gesamtansicht_Festo_st5 {
         fill: #333333;
         stroke: #000000;
         stroke-miterlimit: 10;
      }

      .gesamtansicht_Festo_st6 {
         fill: #999999;
         stroke: #000000;
         stroke-miterlimit: 10;
      }

      .gesamtansicht_Festo_st7 {
         fill: #FBB03B;
         stroke: #000000;
         stroke-miterlimit: 10;
      }

      .gesamtansicht_Festo_st8 {
         fill: #CCCCCC;
      }

      .gesamtansicht_Festo_st9 {
         fill: #808080;
         stroke: #000000;
         stroke-width: 0.78;
         stroke-miterlimit: 10;
      }

      .gesamtansicht_Festo_st10 {
         fill: #CCCCCC;
         stroke: #000000;
         stroke-width: 0.78;
         stroke-miterlimit: 10;
      }

      .gesamtansicht_Festo_st11 {
         fill: #29ABE2;
      }

      .gesamtansicht_Festo_st12 {
         fill: #808080;
      }

      .gesamtansicht_Festo_st13 {
         fill: #B3B3B3;
      }

      .gesamtansicht_Festo_st14 {
         fill: #0000FF;
      }

      .gesamtansicht_Festo_st15 {
         font-family: 'Roboto-Bold';
      }

      .gesamtansicht_Festo_st16 {
         font-size: 18.7477px;
      }

      .gesamtansicht_Festo_st17 {
         fill: #F2F2F2;
         stroke: #000000;
         stroke-miterlimit: 10;
      }

      .gesamtansicht_Festo_st18 {
         fill: #C1272D;
         stroke: #000000;
         stroke-miterlimit: 10;
      }

      .gesamtansicht_Festo_st19 {
         fill: #4D4D4D;
         stroke: #000000;
         stroke-miterlimit: 10;
      }
   </style>
   <a xlink:href="./?lang=de#Umsetzer" id="a618">
      <g id="g616">
         <polyline class="gesamtansicht_Festo_st0" points="543.5,340.5 548.5,326.4 563,326.2 565.4,340   "
            id="polyline4" />
         <polyline class="gesamtansicht_Festo_st0" points="597.2,340.5 601.6,327.4 616.1,327.2 618.3,340.5   "
            id="polyline6" />
         <rect x="460.2" y="340.1" class="gesamtansicht_Festo_st1" width="205.6" height="76.9" id="rect8" />
         <path class="gesamtansicht_Festo_st2" d="M130.9,481" id="path10" />
         <path class="gesamtansicht_Festo_st2" d="M214.9,480.4" id="path12" />
         <path class="gesamtansicht_Festo_st2" d="M124.5,604.1c30.1,14.1,62,15.3,95.7-0.8" id="path14" />
         <path class="gesamtansicht_Festo_st2" d="M219.1,496.5" id="path16" />
         <path class="gesamtansicht_Festo_st2" d="M212.7,216.2" id="path18" />
         <path class="gesamtansicht_Festo_st2" d="M131.7,216.3" id="path20" />
         <circle class="gesamtansicht_Festo_st3" cx="565.2" cy="497.2" r="125" id="circle22" />
         <rect x="69.681007" y="654.48102" class="gesamtansicht_Festo_st4" width="762.638" height="55.670815"
            id="rect24" inkscape:label="Boden" style="stroke-width:1.56202" />
         <rect x="98.2" y="568.6" class="gesamtansicht_Festo_st5" width="151.2" height="85.6" id="rect26" />
         <rect x="538.7" y="479.1" class="gesamtansicht_Festo_st3" width="414.3" height="42" id="rect28" />
         <circle class="gesamtansicht_Festo_st1" cx="565.1" cy="499.5" r="10" id="circle30" />
         <ellipse class="gesamtansicht_Festo_st1" cx="809.7" cy="500.5" rx="8.7" ry="10" id="ellipse32" />
         <circle class="gesamtansicht_Festo_st1" cx="661.5" cy="499.4" r="10" id="circle34" />
         <rect x="914.3" y="486.9" class="gesamtansicht_Festo_st2" width="36" height="23.5" id="rect36" />
         <rect x="922.1" y="526.9" class="gesamtansicht_Festo_st6" width="22.6" height="12.3" id="rect38" />
         <rect x="929" y="539.7" class="gesamtansicht_Festo_st3" width="9.2" height="52.3" id="rect40" />
         <rect x="926.4" y="592" class="gesamtansicht_Festo_st7" width="14.3" height="11.7" id="rect42" />
         <rect x="520.2" y="604.8" class="gesamtansicht_Festo_st3" width="91.2" height="49" id="rect44" />
         <ellipse class="gesamtansicht_Festo_st7" cx="933.2" cy="518.9" rx="13" ry="15" id="ellipse46" />
         <g id="g54">
            <path class="gesamtansicht_Festo_st8"
               d="M555.5,239.2c-2.6-7.6-5.8-17.6-9.6-24.7c-3.8-7-9.1-13.5-16-17.8c-4.2-2.6-9.3-4.3-14.2-3.3     c-5.1,1.1-9,5.1-12.1,9.2c-13.7,18.4-16.9,42.1-19.1,66.9c-2.1,23.4-0.6,46.6-1.1,70.4h9.4c-1-35.9-3.4-75.8,5.7-110.6     c2-7.5,6.2-17,12.1-22.8c7.1-7,12-6.2,16-3.7c5.7,3.7,6.9,5.4,9,8.6c5.8,8.9,9.3,17.8,12.8,27.8L555.5,239.2z"
               id="path48" />
            <g id="g52">
               <path
                  d="M556.1,239c-4.4-12.9-8.5-26.4-18.1-36.5c-4.6-4.8-10.6-9.1-17.4-9.9c-7-0.8-12.5,3.5-16.6,8.7      c-8.5,10.8-13.1,24-15.8,37.3c-1.4,7-2.4,14.1-3.2,21.2c-0.9,8-1.5,15.9-1.8,23.9c-0.6,16.6,0,33.2-0.1,49.9      c0,2.1,0,4.3-0.1,6.4c0,0.3,0.3,0.6,0.6,0.6c3.1,0,6.3,0,9.4,0c0.3,0,0.6-0.3,0.6-0.6c-0.8-27.9-2.4-56.1,0.9-83.9      c0.8-6.9,1.9-13.8,3.4-20.5c1.4-6.2,3.1-12.2,6-17.9c2.8-5.5,6.6-11,11.9-14.3c2-1.2,4.2-2,6.5-1.7c2.2,0.3,4.1,1.5,5.8,2.7      c2.2,1.5,4.3,3.2,5.9,5.4c1.9,2.7,3.6,5.6,5.2,8.5c3.6,6.8,6.4,14,8.9,21.2c0.1,0.2,0.3,0.4,0.6,0.4c2.3-0.1,4.6-0.1,7-0.2      c0.8,0,0.8-1.2,0-1.2c-2.3,0.1-4.6,0.1-7,0.2c0.2,0.1,0.4,0.3,0.6,0.4c-2.3-6.7-4.8-13.3-8-19.5c-1.6-3.1-3.3-6-5.2-8.9      c-1.1-1.7-2.3-3.3-3.9-4.7c-3.2-2.9-7.5-6.1-12.1-5.6c-5.5,0.7-10.2,5.5-13.3,9.7c-7.8,10.7-10.5,24.4-12.5,37.2      c-2.2,14.3-3,28.8-3.1,43.2c-0.1,16.4,0.6,32.9,1.1,49.3c0.2-0.2,0.4-0.4,0.6-0.6c-3.1,0-6.3,0-9.4,0c0.2,0.2,0.4,0.4,0.6,0.6      c0.3-16.2-0.3-32.3,0-48.5c0.2-15,1.4-30.1,3.8-44.9c2.1-13.2,5.6-26.4,12.5-37.9c3.3-5.4,7.5-11.7,13.7-14.1      c7-2.6,14.4,1.2,19.7,5.6c11.9,9.9,16.4,25,21.2,39.1C555.2,240.1,556.4,239.8,556.1,239z"
                  id="path50" />
            </g>
         </g>
         <polygon class="gesamtansicht_Festo_st9" points="547,239.6 557.3,239.1 563,307.2 546.7,308.1   "
            id="polygon56" />
         <path class="gesamtansicht_Festo_st10" d="M548.5,326.4c0,0-0.7-17.2-0.7-18.1l13.6-0.8l0.7,18.7L548.5,326.4z"
            id="path58" />
         <g id="g66">
            <path class="gesamtansicht_Festo_st8"
               d="M596.2,176.6c-2,2.6-1.7,6.2-1.4,9.4c2,17.8,4.2,36.9,6.2,54.8l5.4-0.3c-1.5-19.5-4.7-40.2-5.6-58.8     c-0.2-3.7-3.3-5.6-4.5-4.8"
               id="path60" />
            <g id="g64">
               <path
                  d="M595.7,176.3c-2.2,3-1.8,6.7-1.4,10.1c0.5,4.3,0.9,8.6,1.4,12.9c1,8.9,2,17.8,3,26.7c0.6,4.9,1.1,9.8,1.6,14.8      c0,0.3,0.2,0.6,0.6,0.6c1.8-0.1,3.6-0.2,5.4-0.3c0.3,0,0.6-0.3,0.6-0.6c-0.8-10.1-1.9-20.2-3.1-30.2c-0.5-5-1.1-10-1.5-15      c-0.2-2.4-0.4-4.9-0.6-7.3c-0.2-2.3-0.1-4.7-0.4-7c-0.3-2-2.7-6.2-5.3-4.6c-0.7,0.4-0.1,1.4,0.6,1c1-0.6,2.3,1,2.7,1.7      c1.1,1.7,0.9,3.8,1,5.8c0.3,4.3,0.6,8.7,1,13c0.9,9.1,1.9,18.1,2.9,27.1c0.5,5.2,1,10.3,1.4,15.5c0.2-0.2,0.4-0.4,0.6-0.6      c-1.8,0.1-3.6,0.2-5.4,0.3c0.2,0.2,0.4,0.4,0.6,0.6c-1.9-17-3.9-34-5.8-51c-0.5-4.1-1.7-9.2,0.9-12.8      C597.2,176.3,596.2,175.7,595.7,176.3L595.7,176.3z"
                  id="path62" />
            </g>
         </g>
         <g id="g74">
            <path class="gesamtansicht_Festo_st8"
               d="M571.8,339.9c11-20,18.3-42.9,21.4-65.5c3.1-22.5,3.5-45.4,3.8-68.1l-2.3-26c-1.8,25.7-3.4,51.4-5.8,76.9     c-1.4,14.4-4.4,28.9-8.5,42.8c-3.5,12.1-9.7,24.4-15.4,35.6l0.4,4.4L571.8,339.9z"
               id="path68" />
            <g id="g72">
               <path
                  d="M572.3,340.2c6.3-11.6,11.4-23.9,15.2-36.5c3.9-12.9,6.2-26.1,7.6-39.5c1.5-14.3,2-28.7,2.3-43.1      c0.1-3.6,0.1-7.2,0.2-10.8c0-1.5,0.1-3,0-4.5c-0.2-2.5-0.4-5-0.7-7.4c-0.5-6-1.1-12-1.6-18c-0.1-0.8-1.1-0.8-1.2,0      c-1.6,23-3.1,46-5.1,69c-2,22.2-5.8,44.6-14.6,65.2c-2.4,5.6-5.1,11-7.8,16.4c-0.7,1.4-1.5,2.7-2.1,4.1      c-0.2,0.5-0.2,0.7-0.1,1.2c0.1,1.2,0.2,2.4,0.4,3.6c0,0.3,0.2,0.6,0.6,0.6c2.1,0,4.3,0,6.4-0.1c0.8,0,0.8-1.2,0-1.2      c-2.1,0-4.3,0-6.4,0.1c0.2,0.2,0.4,0.4,0.6,0.6c-0.1-1-0.2-2.1-0.3-3.1c0-0.3-0.2-0.9-0.1-1.2c0.1-0.4,0.5-1,0.7-1.3      c0.3-0.7,0.7-1.4,1-2.1c2.5-4.9,4.9-9.9,7.1-14.9c4.4-10,7.6-20.3,10.1-30.9c5.2-22,6.4-44.6,8-67.1c0.9-13,1.8-26,2.7-39      c-0.4,0-0.8,0-1.2,0c0.5,5.1,0.9,10.2,1.4,15.2c0.3,3,0.5,5.9,0.8,8.9c0.3,3.6,0.1,7.2,0,10.7c-0.5,27.8-1.2,56-8.5,83      c-3.9,14.4-9.4,28.4-16.5,41.5C570.9,340.3,571.9,340.9,572.3,340.2z"
                  id="path70" />
            </g>
         </g>
         <polygon class="gesamtansicht_Festo_st9" points="610.4,240.3 616.1,308.2 599.8,309.1 600,240.7   "
            id="polygon76" />
         <path class="gesamtansicht_Festo_st10" d="M601.6,327.4c0,0-0.7-17.2-0.7-18.1l13.6-0.7l0.7,18.6L601.6,327.4z"
            id="path78" />
         <g id="g86">
            <path class="gesamtansicht_Festo_st11"
               d="M930,603.9c0.1,0.6,0.1,1.4,0,1.5c-0.3,0.4-1.3,0.1-1.9,0.3c-0.6,0.2-0.7,2.4-0.4,3.3     c0.4,1,1.9,0.9,2.8,0.9c2.6,0,8,0.2,9.7-0.6c0.5-0.2,0.6-2.7,0.1-3.4c-0.5-0.7-2.6,0-2.5-0.6l-0.1-1.5L930,603.9z"
               id="path80" />
            <g id="g84">
               <path
                  d="M929.7,603.9c0,0.3,0.2,0.8,0.1,1.1c-0.1,0.3-0.4,0.3-0.7,0.3c-0.5,0-1,0-1.3,0.4c-0.6,0.7-0.5,2-0.4,2.8      c0.1,1.1,0.7,1.6,1.8,1.8c1,0.1,2,0.1,3,0.1c2.3,0,4.8,0.1,7.1-0.3c0.7-0.1,1.5-0.2,1.8-1c0.3-0.9,0.3-2,0-2.9      c-0.4-1.1-1.3-1-2.3-1c-0.1,0-0.2,0-0.2,0c-0.1,0-0.1,0-0.2,0c-0.1,0-0.1,0,0,0.1c0-0.1,0-0.2,0-0.4c0-0.4,0-0.8-0.1-1.2      c0-0.2-0.2-0.4-0.4-0.4c-2.6,0-5.1,0-7.7,0.1c-0.5,0-0.5,0.8,0,0.8c2.6,0,5.1,0,7.7-0.1c-0.1-0.1-0.2-0.2-0.4-0.4      c0,0.5,0,1.1,0.1,1.6c0.1,0.7,1,0.6,1.6,0.5c0.3,0,0.8-0.1,1.1,0.2c0.2,0.3,0.2,1,0.3,1.3c0,0.4,0,1-0.1,1.3      c-0.1,0.3-0.5,0.3-0.8,0.4c-2,0.5-4.2,0.4-6.3,0.4c-0.9,0-1.9,0-2.8,0c-0.9,0-2.1,0.1-2.3-1c-0.1-0.6-0.1-1.2,0-1.7      c0-0.2,0.1-0.5,0.2-0.6c0.2-0.2,0.6-0.1,0.9-0.1c0.4,0,1,0,1.3-0.4c0.3-0.4,0.1-1.2,0.1-1.7      C930.3,603.4,929.6,603.4,929.7,603.9z"
                  id="path82" />
            </g>
         </g>
         <g id="g94">
            <path class="gesamtansicht_Festo_st11"
               d="M917.4,473.6c-1.7-2-3.6-4.5-3.4-7.5c0.1-2.3,1.5-4.3,3.2-5.2c1.7-0.9,3.5-0.8,5.3-0.5     c4.9,0.9,9.9,3.9,13.3,8.6"
               id="path88" />
            <g id="g92">
               <path
                  d="M917.6,473.3c-1.9-2.3-3.9-5-3.2-8.2c0.7-3.2,3.6-4.8,6.8-4.5c5.7,0.5,10.9,4.1,14.2,8.6c0.3,0.4,0.9,0,0.6-0.4      c-2-2.7-4.5-4.9-7.4-6.5c-2.7-1.5-6.2-2.8-9.3-2.4c-3,0.3-5.3,2.6-5.8,5.6c-0.5,3.3,1.5,6,3.5,8.4      C917.4,474.2,917.9,473.7,917.6,473.3L917.6,473.3z"
                  id="path90" />
            </g>
         </g>
         <g id="g102">
            <path class="gesamtansicht_Festo_st12"
               d="M940.2,486.6c-0.4-2,0.5-5.2,0.8-7.3c0.3-2.1,0.4-4.4-0.4-6.2c-0.7-1.6-2.1-2.5-3.4-3.3     c-2.4-1.4-4.8-2.4-7.3-3.3c-2-0.7-4.1-1.1-6.1-0.3c-1.7,0.7-3,2.3-4.3,4c-0.8,1.1-1.6,2.2-2.1,3.5s-0.7,2.9-0.3,4.3     c0.7,2.3,2.8,3.3,4.6,4.1c1.6,0.6,3.2,1.3,4.8,1.9c0.8,0.3,1.5,1.4,2,2.4"
               id="path96" />
            <g id="g100">
               <path
                  d="M940.6,486.5c-0.3-2.2,0.4-4.4,0.7-6.5c0.3-1.9,0.6-4,0.1-5.9c-1-3.9-5.7-5.7-9.1-7c-2-0.8-4.2-1.7-6.5-1.6      c-2,0.1-3.6,1.2-5,2.6c-2.5,2.8-5.5,7-3.7,10.9c0.8,1.7,2.4,2.6,4,3.3c1.2,0.5,2.4,1,3.6,1.5c0.8,0.3,1.7,0.6,2.4,1.2      c0.5,0.5,0.8,1.1,1.2,1.7c0.2,0.4,0.9,0,0.6-0.4c-0.4-0.6-0.8-1.3-1.3-1.9c-0.6-0.6-1.3-0.8-2-1.1c-1.8-0.7-3.7-1.3-5.4-2.3      c-1.8-1-3-2.7-2.9-4.9c0.1-2.2,1.2-4,2.5-5.7c1.3-1.7,2.8-3.7,5-4.1c2.2-0.5,4.5,0.4,6.5,1.2c2,0.8,4,1.7,5.8,2.8      c1.8,1.1,3.1,2.5,3.5,4.7c0.6,4-1.6,7.8-0.9,11.7C939.9,487.2,940.6,487,940.6,486.5L940.6,486.5z"
                  id="path98" />
            </g>
         </g>
         <g id="g110">
            <path class="gesamtansicht_Festo_st11"
               d="M946.4,519.4c2.7-3.9,4.4-8.7,6.3-13.5c1.2-2.9,1.4-7.7,0.6-10.8s-2.3-5-3.8-7.6c-3.3-5.9-4-6-8.2-11.3     l-0.4,4.3c1.4,1.8,3.6,4.6,5.1,6.4c1.5,1.9,3.3,5,4.3,7.4c2.7,5.8-1,16.7-3.9,22.3V519.4z"
               id="path104" />
            <g id="g108">
               <path
                  d="M946.7,519.6c2.1-3,3.5-6.4,4.9-9.8c1.3-3.2,2.4-6.2,2.5-9.6c0.1-3.2-0.5-6.2-2-9.1c-1.6-2.8-3.2-5.7-5.1-8.3      c-1.7-2.4-3.7-4.5-5.5-6.8c-0.2-0.3-0.6,0-0.6,0.3c-0.1,0.9-0.2,1.8-0.2,2.7c-0.1,0.9-0.3,1.4,0.3,2.2c2.5,3.1,5.1,6.1,7.1,9.5      c0.9,1.6,2,3.4,2.5,5.2c0.4,1.7,0.5,3.5,0.3,5.2c-0.3,3.7-1.4,7.3-2.7,10.8c-0.4,1-0.8,2-1.3,3c-0.3,0.6-0.7,1.2-0.8,1.8      c-0.2,0.9,0,2,0,2.9c0,0.5,0.8,0.5,0.8,0c0-0.9-0.2-1.9,0-2.7c0.1-0.5,0.5-1.1,0.7-1.5c0.3-0.7,0.7-1.4,1-2.2      c1.4-3.4,2.5-7,3-10.7c0.4-3.3,0.2-6.3-1.3-9.3c-1.8-3.6-4.1-6.5-6.5-9.6c-0.7-0.9-1.5-1.7-2.1-2.7c-0.2-0.3-0.2-0.6-0.1-1.1      c0.1-1.1,0.2-2.2,0.3-3.3c-0.2,0.1-0.4,0.2-0.6,0.3c2,2.5,4.1,4.8,5.9,7.5c1.1,1.7,2.1,3.5,3.1,5.2c1.1,1.8,2.2,3.6,2.8,5.6      c1.1,3.9,0.6,8.2-0.8,11.9c-1.7,4.3-3.3,8.7-5.9,12.6C945.8,519.6,946.5,520,946.7,519.6z"
                  id="path106" />
            </g>
         </g>
         <g id="g116">
            <g id="g114">
               <path
                  d="M922.3,467.1c-0.2-0.4-0.5-0.8-0.8-1.1c-0.3-0.3-0.6-0.6-0.9-0.9c-0.2-0.3-0.4-0.7-0.3-1.1c0-0.2,0.1-0.6,0.3-0.7      c0.5-0.1,0.3-0.9-0.2-0.7c-1,0.3-1,1.7-0.7,2.5c0.4,1,1.5,1.5,2,2.5c0.1,0.2,0.4,0.2,0.5,0.1      C922.4,467.5,922.4,467.3,922.3,467.1L922.3,467.1z"
                  id="path112" />
            </g>
         </g>
         <g id="g122">
            <g id="g120">
               <path class="gesamtansicht_Festo_st13"
                  d="M590.6,612.2c-2.2,1.7-3.7,3.9-4.4,6.5c-0.2,1,0.7,2.3,1.8,1.8c2.2-0.9,4.2-2.1,6-3.6      c-0.7-0.7-1.4-1.4-2.1-2.1c-0.5,0.6-1.1,1.2-1.6,1.8c-1.3,1.4,0.7,3.5,2.1,2.1c1-1,2-2,3-3c1.2-1.2-0.3-3.2-1.8-2.4      c-1.3,0.7-2.6,1.6-3.6,2.7c-1.2,1.2,0.3,3.3,1.8,2.4c2.5-1.5,5.1-2.8,7.8-3.7c-0.6-0.7-1.1-1.5-1.7-2.2c-0.6,0.8-1.4,1.5-2.3,2      c0.5,0.9,1,1.7,1.5,2.6c1.8-1.1,3.6-1.9,5.6-2.4c-0.4-0.9-0.8-1.8-1.2-2.7c-1.6,0.9-3.3,1.9-4.9,2.8c-1.4,0.8-0.5,3.4,1.2,2.7      c1.8-0.7,3.6-1.4,5.5-2.1c-0.4-0.9-0.8-1.8-1.2-2.7c-2,0.9-4,1.5-6.2,1.9c0.4,0.9,0.8,1.8,1.2,2.7c1.9-0.8,3.9-1.4,5.9-1.7      c-0.3-1-0.5-1.9-0.8-2.9c-3,0.8-6.1,1.3-9.2,1.3c0.3,0.9,0.5,1.9,0.8,2.8c0.9-0.5,1.8-1,2.7-1.5c1.5-0.9,0.5-3.1-1.2-2.7      c-3.6,0.8-7.2,1.7-10.8,2.9c0.4,0.9,0.8,1.8,1.2,2.7c2.2-0.9,4.3-1.9,6.5-2.8c1.5-0.7,0.4-3.3-1.2-2.7c-3.1,1.1-6.1,2.2-9.2,3.3      c0.4,0.9,0.8,1.8,1.2,2.7c1.6-0.8,3.3-1.7,4.9-2.5c1.7-0.9,0.2-3.4-1.5-2.6c-1.9,0.9-4,1.5-6.1,1.8c0.5,0.8,1,1.7,1.5,2.5      c1-1,2-2,3.1-3c-0.7-0.7-1.4-1.4-2.1-2.1c-0.2,0.2-1.8,1.9-2,1.3c-0.5-1.3-2-1.4-2.7-0.4c-0.3,0.4-0.7,0.9-1,1.3      c0.8-0.1,1.6-0.2,2.4-0.3c-0.3-0.3-0.5-0.5-0.8-0.8c-0.6-0.6-2-0.6-2.4,0.3c-0.2,0.4-0.4,0.8-0.5,1.2c-0.7,1.8,1.8,3.3,2.6,1.5      c0.2-0.4,0.4-0.8,0.5-1.2c-0.8,0.1-1.6,0.2-2.4,0.3c0.3,0.3,0.5,0.5,0.8,0.8c0.8,0.7,1.8,0.5,2.4-0.3c0.3-0.4,0.7-0.9,1-1.3      c-0.9-0.1-1.8-0.2-2.7-0.4c0.5,1.4,1.7,2.3,3.2,2.2c1.6,0,2.8-1.1,3.9-2.2c1.3-1.4-0.7-3.5-2.1-2.1c-1,1-2,2-3.1,3      c-1.2,1.2,0.1,2.7,1.5,2.5c2.4-0.3,4.7-1.1,6.8-2.1c-0.5-0.9-1-1.7-1.5-2.6c-1.6,0.8-3.3,1.7-4.9,2.5c-1.5,0.8-0.5,3.3,1.2,2.7      c3.1-1.1,6.1-2.2,9.2-3.3c-0.4-0.9-0.8-1.8-1.2-2.7c-2.2,0.9-4.3,1.9-6.5,2.8c-1.6,0.7-0.4,3.3,1.2,2.7      c3.5-1.1,7.1-2.1,10.8-2.9c-0.4-0.9-0.8-1.8-1.2-2.7c-0.9,0.5-1.8,1-2.7,1.5c-1.3,0.7-0.7,2.8,0.8,2.8c3.4,0,6.8-0.5,10-1.4      c1.9-0.5,1.1-3.2-0.8-2.9c-2.3,0.4-4.5,1.1-6.6,2c-1.6,0.7-0.4,3,1.2,2.7c2.4-0.4,4.7-1.2,6.9-2.2c1.5-0.7,0.4-3.3-1.2-2.7      c-1.8,0.7-3.6,1.4-5.5,2.1c0.4,0.9,0.8,1.8,1.2,2.7c1.6-0.9,3.3-1.9,4.9-2.8c1.5-0.9,0.5-3.1-1.2-2.7c-2.3,0.5-4.4,1.4-6.3,2.7      c-1.6,1-0.2,3.5,1.5,2.6c1.4-0.8,2.4-1.8,3.4-3c0.8-1-0.5-2.6-1.7-2.2c-3,1-5.8,2.4-8.5,4c0.6,0.8,1.2,1.6,1.8,2.4      c0.9-0.9,1.9-1.6,3-2.2c-0.6-0.8-1.2-1.6-1.8-2.4c-1,1-2,2-3,3c0.7,0.7,1.4,1.4,2.1,2.1c0.5-0.6,1.1-1.2,1.6-1.8      c1.3-1.5-0.6-3.3-2.1-2.1c-1.4,1.1-3,2.1-4.7,2.8c0.6,0.6,1.2,1.2,1.8,1.8c0.5-1.9,1.4-3.6,3-4.7c0.6-0.5,1-1.3,0.5-2.1      C592.3,612.1,591.3,611.7,590.6,612.2L590.6,612.2z"
                  id="path118" />
            </g>
         </g>
         <g id="g128">
            <g id="g126">
               <path class="gesamtansicht_Festo_st13"
                  d="M574.6,614.3c0.2,0.6,0.4,1.2,0.5,1.8c0-0.1,0-0.3-0.1-0.4c0.1,0.4,0.1,0.8,0.1,1.2c1,0,2,0,3,0      c-0.1-0.7-0.2-1.4-0.3-2c0-0.2,0-0.4-0.1-0.6c-0.1-0.2-0.2-0.3-0.3-0.5c-0.3-0.3-0.7-0.5-1.1-0.4c-0.4,0-0.8,0.1-1.1,0.4      c-0.2,0.3-0.5,0.7-0.4,1.1c0.1,0.7,0.2,1.4,0.3,2c0,0.2,0,0.4,0.1,0.6c0.1,0.2,0.2,0.3,0.3,0.5c0.3,0.3,0.7,0.5,1.1,0.4      c0.8,0,1.5-0.7,1.5-1.5c0-1.1-0.1-2.3-0.6-3.4c0-0.2-0.1-0.4-0.3-0.5c-0.1-0.2-0.2-0.3-0.4-0.4c-0.3-0.2-0.8-0.3-1.2-0.2      c-0.4,0.1-0.7,0.3-0.9,0.7C574.6,613.5,574.5,614,574.6,614.3L574.6,614.3z"
                  id="path124" />
            </g>
         </g>
         <g id="g136">
            <path class="gesamtansicht_Festo_st11"
               d="M565.9,617.1c-0.4,0.2-0.7,0.3-1.1,0.5C565.2,617.5,565.5,617.3,565.9,617.1c-0.4,0.1-0.8,0.3-1.2,0.4     c0.4-0.2,0.8-0.6,1.1-1c-0.7,0.2-1.3,0.5-2,0.7c0.4-0.3,0.8-0.5,1.2-0.8c-0.5,0.2-1,0.5-1.4,0.7c0.3-0.2,0.6-0.4,1-0.5     c-0.6,0.3-1.2,0.7-1.6,1.1c0.3-0.1,0.7-0.2,0.9-0.5c-0.3,0-0.5,0.1-0.7,0.3c0.2-0.1,0.5-0.3,0.7-0.4c-0.3,0.1-0.7,0.2-0.9,0.4     c0.3-0.1,0.5-0.3,0.8-0.4c-0.2,0.2-0.5,0.4-0.7,0.5c0.6-0.3,1.3-0.6,1.9-0.9c-0.7,0.2-1.3,0.5-1.9,0.9c0.6-0.2,1.2-0.6,1.6-1.2     c-0.5,0.3-1,0.6-1.4,0.9c0.4-0.3,0.7-0.6,1.1-0.8c-0.4,0.3-0.9,0.6-1.3,0.9c0.2-0.1,0.5-0.2,0.7-0.3c-0.5,0.2-0.9,0.5-1.3,0.9     c1.4,0.3,2.9-0.3,3.7-1.5c0.1-0.2,0.2-0.4,0.5-0.5c0.2,0,0.4,0.1,0.5,0.3s0.1,0.4,0.1,0.6c-0.2-0.2,0-0.5,0.2-0.5     c0.2,0,0.4,0.3,0.3,0.5c-0.1-0.2-0.2-0.5-0.1-0.7c0.3,0.4,0.5,0.9,0.3,1.4c0-0.4-0.1-0.8-0.1-1.2c0.4,0.5,0.4,1.3,0.2,1.9     s-0.7,1.1-1.2,1.6"
               id="path130" />
            <g id="g134">
               <path class="gesamtansicht_Festo_st11"
                  d="M565.1,615.8c-0.4,0.2-0.7,0.3-1.1,0.5c0.5,0.9,1,1.7,1.5,2.6c0.3-0.2,0.7-0.3,1-0.5      c0.3-0.1,0.6-0.6,0.7-0.9c0.1-0.3,0.1-0.7-0.1-1c-0.3-0.6-1.1-1.1-1.8-0.9c-0.4,0.1-0.8,0.3-1.1,0.4c0.4,0.9,0.8,1.8,1.2,2.7      c0.5-0.3,1-0.7,1.4-1.2c0.2-0.3,0.4-0.5,0.4-0.9c0-0.3,0-0.7-0.2-1c-0.3-0.5-1.1-0.9-1.7-0.7c-0.7,0.2-1.3,0.5-2,0.7      c0.4,0.9,0.8,1.8,1.2,2.7c0.4-0.3,0.8-0.5,1.2-0.8c0.7-0.4,1-1.4,0.5-2.1c-0.5-0.7-1.3-0.9-2.1-0.5c-0.5,0.2-1,0.5-1.4,0.7      c0.6,0.8,1.2,1.6,1.8,2.4c-0.1,0-0.1,0.1-0.2,0.1c0,0,0.1-0.1,0.1-0.1c0.1,0,0.1-0.1,0.2-0.1c0.2-0.1,0,0-0.1,0      c0.1,0,0.2-0.1,0.3-0.1c-0.4-0.9-0.8-1.8-1.2-2.7c-0.7,0.3-1.4,0.8-1.9,1.4c-0.5,0.5-0.6,1.3-0.2,1.8c0.4,0.6,1,0.9,1.7,0.7      c0.6-0.2,1.1-0.5,1.6-0.9c0.2-0.1,0.3-0.4,0.4-0.7c0.1-0.3,0.1-0.7-0.1-1c-0.2-0.6-0.8-0.9-1.4-0.9c-0.8,0-1.5,0.4-1.9,1.1      c-0.4,0.5-0.2,1.4,0.2,1.8c0.5,0.5,1.2,0.6,1.8,0.2c0.2-0.1,0.5-0.3,0.7-0.4c0.7-0.4,0.9-1.2,0.6-1.9c-0.3-0.7-1-1.1-1.8-0.9      c-0.5,0.1-0.9,0.3-1.3,0.6c-0.7,0.4-1,1.3-0.5,2.1c0.4,0.7,1.3,0.9,2.1,0.5c0.3-0.1,0.5-0.3,0.8-0.4c-0.5-0.9-1-1.7-1.5-2.6      c-0.2,0.2-0.5,0.4-0.7,0.5c-0.3,0.2-0.6,0.5-0.7,0.9c-0.1,0.4-0.1,0.8,0.2,1.2c0.5,0.7,1.3,0.9,2.1,0.5c0.6-0.3,1.3-0.6,1.9-0.9      c0.7-0.3,0.9-1.2,0.6-1.9c-0.3-0.6-1.1-1.1-1.8-0.9c-0.8,0.3-1.6,0.6-2.3,1c-0.6,0.4-0.9,1.2-0.6,1.9c0.3,0.6,1.1,1.1,1.8,0.9      c1-0.4,1.9-1,2.5-1.9c0.4-0.5,0.2-1.4-0.2-1.8c-0.5-0.4-1.2-0.6-1.8-0.2c-0.5,0.3-1,0.6-1.4,0.9c0.6,0.8,1.2,1.6,1.8,2.4      c0.4-0.3,0.7-0.6,1.1-0.8c0.3-0.2,0.5-0.7,0.4-1.1c0-0.3-0.1-0.6-0.3-0.9c-0.4-0.5-1.3-0.8-1.9-0.4c-0.4,0.3-0.9,0.6-1.3,0.9      c-0.3,0.2-0.6,0.5-0.7,0.9c-0.1,0.4-0.1,0.8,0.2,1.2c0.2,0.3,0.5,0.6,0.9,0.7c0.4,0.1,0.8,0,1.2-0.2c0.2-0.1,0.5-0.2,0.7-0.3      c0.3-0.1,0.6-0.6,0.7-0.9c0.1-0.4,0.1-0.8-0.2-1.2c-0.2-0.3-0.5-0.6-0.9-0.7c-0.4-0.1-0.8,0-1.2,0.2c-0.6,0.3-1.2,0.7-1.6,1.1      c-0.8,0.8-0.5,2.2,0.7,2.5c1.2,0.3,2.6,0.1,3.7-0.5c0.5-0.3,1-0.7,1.4-1.2c0.1-0.1,0.2-0.3,0.3-0.4c0,0,0.1-0.1,0.1-0.1      c0.1-0.1,0.1-0.1,0,0c0,0.1-0.1,0.1-0.2,0.2c-0.1,0.1-0.3,0.2-0.5,0.1c-0.2,0.1-0.4,0.1-0.5,0c-0.2-0.1-0.3-0.2-0.4-0.4      c0,0-0.1-0.3-0.1-0.1c-0.1-0.4,0-0.2,0,0c0.9-0.3,1.9-0.5,2.8-0.8c0.1,0.3,0.2,0.6,0.1,0.9c-0.1,0.4-0.4,0.7-0.8,0.8      c-1,0.3-1.9-0.8-1.4-1.7c0.9,0,1.7,0,2.6,0c0,0.1,0.1,0.1,0.1,0.2c0-0.1,0-0.1,0,0c0,0.1,0,0.1,0,0.1c0-0.1,0-0.1,0,0.2      c-0.8,0.2-1.7,0.4-2.5,0.7c-0.3-0.4,0-0.1,0,0c0-0.1-0.1-0.1-0.1-0.2c0,0.1,0,0.1,0,0.2c0,0.1,0,0.1,0,0c0-0.1,0-0.2,0,0      c0,0.4,0.1-0.3,0,0c1,0.1,2,0.3,2.9,0.4c0-0.4-0.1-0.8-0.1-1.2c-0.9,0.4-1.7,0.7-2.6,1.1c-0.3-0.3-0.1-0.2-0.1-0.1      c0.1,0.1-0.1-0.3,0-0.1c0,0.1,0,0.1,0,0.2c0,0.2,0-0.4,0-0.1c0,0.1,0,0.1,0,0.2c0,0.3,0.1-0.3,0-0.1c0,0.1,0,0.1,0,0.2      c0,0.1-0.1,0.3,0,0.1c0.1-0.2,0,0,0,0.1c0,0.1-0.1,0.1-0.1,0.2c0,0.1-0.1,0.1-0.1,0.2c-0.2,0.3,0,0,0,0c0,0-0.3,0.3-0.3,0.4      c-0.1,0.1-0.2,0.2-0.3,0.4c-0.5,0.6-0.6,1.6,0,2.1c0.6,0.5,1.6,0.6,2.1,0c0.7-0.7,1.3-1.5,1.6-2.5c0.2-0.6,0.2-1.1,0.1-1.7      c-0.1-0.6-0.4-1-0.7-1.5c-0.4-0.5-1.1-0.5-1.6-0.3c-0.5,0.2-1,0.8-0.9,1.4c0,0.4,0.1,0.8,0.1,1.2c0.1,0.8,0.5,1.4,1.3,1.5      c0.7,0.1,1.5-0.3,1.6-1.1c0.3-1,0-2.1-0.7-2.9c-0.7-0.8-2.3-0.4-2.5,0.7c-0.1,0.6-0.1,1.2,0.2,1.8c0.2,0.5,0.8,0.7,1.3,0.7      c0.5,0,1-0.3,1.3-0.7c0.7-1.2-0.2-2.8-1.6-2.8c-0.6,0-1.2,0.4-1.6,0.9c-0.3,0.6-0.4,1.3,0,1.9c0.4,0.5,1,0.9,1.7,0.7      c0.6-0.2,1.1-0.8,1.1-1.4c0-0.6-0.1-1.1-0.5-1.6c-0.4-0.5-1-0.9-1.6-0.8c-0.7,0-1.3,0.4-1.6,1c-0.1,0.1-0.1,0.2-0.2,0.3      c-0.1,0.2,0.2-0.3,0-0.1c0,0-0.1,0.1-0.1,0.1c-0.1,0.1-0.2,0.2-0.3,0.3c-0.1,0.1,0.3-0.2,0.1-0.1c-0.1,0-0.1,0.1-0.2,0.1      c0,0-0.4,0.2-0.4,0.2c0,0,0.4-0.2,0.1,0c-0.1,0-0.1,0-0.2,0.1c-0.1,0-0.3,0.1-0.4,0.1c-0.3,0.1,0.3,0,0.1,0c-0.1,0-0.1,0-0.2,0      c-0.1,0-0.3,0-0.4,0c-0.2,0-0.2-0.1,0.1,0c-0.1,0-0.2,0-0.2,0c0.2,0.8,0.4,1.7,0.7,2.5c0.1-0.1,0.2-0.2,0.3-0.3      c0.1-0.1,0.1-0.1-0.1,0.1c0.1,0,0.1-0.1,0.2-0.1c0.2-0.1,0.4-0.3,0.7-0.4c-0.5-0.9-1-1.7-1.5-2.6c-0.2,0.1-0.5,0.2-0.7,0.3      c0.5,0.9,1,1.7,1.5,2.6c0.4-0.3,0.9-0.6,1.3-0.9c-0.6-0.8-1.2-1.6-1.8-2.4c-0.4,0.3-0.7,0.6-1.1,0.8c-0.3,0.2-0.5,0.7-0.4,1.1      c0,0.3,0.1,0.6,0.3,0.9c0.4,0.6,1.3,0.8,1.9,0.4c0.5-0.3,1-0.6,1.4-0.9c-0.7-0.7-1.4-1.4-2.1-2.1c-0.2,0.2,0.2-0.2,0-0.1      c-0.1,0.1-0.1,0.1-0.1,0.2c-0.1,0.1-0.1,0.1-0.2,0.2c-0.1,0.1-0.2,0.1,0.1,0c-0.1,0.1-0.2,0.1-0.3,0.2c0,0-0.2,0.1-0.2,0.1      c0.1,0,0.1-0.1,0.2-0.1c-0.1,0-0.1,0-0.2,0.1c0.4,0.9,0.8,1.8,1.2,2.7c0.3-0.2,0.6-0.3,0.9-0.5c0.1,0,0.1-0.1,0.2-0.1      c0.3-0.1-0.2,0.1,0,0c0.2-0.1,0.3-0.1,0.5-0.2c-0.4-0.9-0.8-1.8-1.2-2.7c-0.6,0.3-1.3,0.6-1.9,0.9c0.5,0.9,1,1.7,1.5,2.6      c0.2-0.2,0.5-0.4,0.7-0.5c0.3-0.2,0.6-0.5,0.7-0.9c0.1-0.4,0.1-0.8-0.2-1.2c-0.4-0.7-1.3-0.9-2.1-0.5c-0.3,0.1-0.5,0.3-0.8,0.4      c0.5,0.9,1,1.7,1.5,2.6c0.1-0.1,0.3-0.1,0.4-0.2c0,0-0.3,0.1-0.1,0c0.1,0,0.2-0.1,0.3-0.1c-0.4-0.9-0.8-1.8-1.2-2.7      c-0.2,0.1-0.5,0.3-0.7,0.4c0.7,0.7,1.4,1.4,2.1,2.1c-0.1,0.1-0.1,0.2-0.2,0.3c-0.1,0.1-0.1,0.1,0,0c-0.1,0-0.1,0.1-0.2,0.1      c-0.3,0-0.3,0-0.2,0c-0.4-0.9-0.7-1.7-1.1-2.6c0.1,0,0.2-0.2,0.1-0.1c-0.1,0-0.1,0.1-0.2,0.1c-0.1,0.1,0.3-0.1,0.1,0      c-0.1,0-0.1,0.1-0.2,0.1c0.5,0.8,1,1.7,1.5,2.5c0.1-0.1,0.2-0.2,0.3-0.3c0,0,0.3-0.2,0.1-0.1c-0.2,0.2,0.1,0,0.1-0.1      c0.3-0.2,0.5-0.3,0.8-0.5c0.7-0.3,0.9-1.2,0.6-1.9c-0.3-0.7-1-1.1-1.8-0.9c-0.6,0.2-1.1,0.5-1.7,0.9c-0.3,0.2-0.5,0.7-0.4,1.1      c0,0.3,0.1,0.6,0.3,0.9c0.5,0.6,1.3,0.7,1.9,0.4c0.5-0.2,1-0.5,1.4-0.7c-0.5-0.9-1-1.7-1.5-2.6c-0.4,0.3-0.8,0.5-1.2,0.8      c-0.6,0.4-0.9,1.2-0.6,1.9c0.3,0.6,1.1,1.1,1.8,0.9c0.7-0.2,1.3-0.5,2-0.7c-0.5-0.8-1-1.7-1.5-2.5c-0.1,0.2-0.3,0.3-0.5,0.5      c-0.3,0.2,0.2-0.1,0,0c-0.1,0.1-0.2,0.1-0.3,0.2c-0.6,0.4-0.9,1.2-0.6,1.9c0.3,0.6,1.1,1.1,1.8,0.9c0.4-0.1,0.8-0.3,1.1-0.4      C565.9,617.7,565.5,616.8,565.1,615.8c-0.4,0.2-0.7,0.3-1.1,0.5c-0.3,0.1-0.6,0.6-0.7,0.9c-0.1,0.4-0.1,0.8,0.2,1.2      c0.2,0.3,0.5,0.6,0.9,0.7c0.4,0.1,0.8,0,1.2-0.2c0.4-0.2,0.7-0.3,1.1-0.5c0.3-0.1,0.6-0.6,0.7-0.9c0.1-0.4,0.1-0.8-0.2-1.2      c-0.2-0.3-0.5-0.6-0.9-0.7C565.8,615.6,565.5,615.7,565.1,615.8L565.1,615.8z"
                  id="path132" />
            </g>
         </g>
         <g id="g142">
            <g id="g140">
               <path class="gesamtansicht_Festo_st13"
                  d="M573.5,616.9c-0.3-0.8-0.7-1.6-1-2.4c0-0.2-0.1-0.4-0.3-0.5c-0.1-0.2-0.2-0.3-0.4-0.4      c-0.3-0.2-0.8-0.3-1.2-0.2c-0.4,0.1-0.7,0.3-0.9,0.7c-0.1,0.1-0.1,0.2-0.2,0.4c-0.1,0.3-0.1,0.5,0,0.8c0.3,0.8,0.7,1.6,1,2.4      c0,0.2,0.1,0.4,0.3,0.5c0.1,0.2,0.2,0.3,0.4,0.4c0.3,0.2,0.8,0.3,1.2,0.2c0.4-0.1,0.7-0.3,0.9-0.7c0.1-0.1,0.1-0.2,0.2-0.4      C573.6,617.4,573.6,617.2,573.5,616.9L573.5,616.9z"
                  id="path138" />
            </g>
         </g>
         <g id="g148">
            <g id="g146">
               <path class="gesamtansicht_Festo_st13"
                  d="M570.4,615.4c0.1,0.2,0.3,0.5,0.4,0.8c-0.1-0.1-0.1-0.2-0.2-0.4c0.2,0.5,0.4,1,0.4,1.6      c0-0.1,0-0.3-0.1-0.4c0.1,0.5,0.1,1.1,0,1.6c0-0.1,0-0.3,0.1-0.4c0,0.1,0,0.1,0,0.2c-0.1,0.4-0.1,0.8,0.2,1.2      c0.2,0.3,0.5,0.6,0.9,0.7c0.4,0.1,0.8,0.1,1.2-0.2c0.3-0.2,0.6-0.5,0.7-0.9c0.2-1,0.2-1.9,0-2.9c-0.2-0.9-0.5-1.7-0.9-2.4      c-0.4-0.7-1.4-1-2.1-0.5C570.3,613.8,570,614.7,570.4,615.4L570.4,615.4z"
                  id="path144" />
            </g>
         </g>
         <g id="g154">
            <g id="g152">
               <path class="gesamtansicht_Festo_st13"
                  d="M558.4,617.3c0-0.4,0-0.9,0.1-1.3c-1,0-2,0-3,0c0,0.2,0,0.5,0,0.7c0-0.1,0-0.3,0.1-0.4      c0,0.3-0.1,0.6-0.2,0.9c1,0,1.9,0,2.9,0c0,0,0-0.1,0-0.1c0,0.1,0,0.3,0.1,0.4c0-0.2,0-0.3,0-0.5c0,0.1,0,0.3-0.1,0.4      c0-0.2,0.1-0.3,0.1-0.5c-0.1,0.1-0.1,0.2-0.2,0.4c0.1-0.1,0.1-0.3,0.2-0.4c-0.1,0.1-0.2,0.2-0.2,0.3c0,0,0,0,0-0.1      c0.1-0.1,0.2-0.3,0.3-0.5c0.1-0.2,0.1-0.4,0.1-0.6c0-0.2,0-0.4-0.1-0.6c-0.1-0.2-0.2-0.3-0.3-0.5c-0.3-0.3-0.7-0.5-1.1-0.4      c-0.1,0-0.3,0-0.4,0.1c-0.3,0.1-0.5,0.2-0.7,0.4c-0.2,0.2-0.3,0.4-0.5,0.7c-0.1,0.2-0.2,0.4-0.2,0.5c0,0.1,0,0.1-0.1,0.2      c0,0.1,0,0.1,0,0.2c0,0.2-0.1,0.4-0.1,0.6c0,0.1,0,0.1,0,0.2c0,0.2,0,0.4,0.1,0.6c0.1,0.1,0.1,0.2,0.2,0.4      c0.1,0.2,0.2,0.3,0.4,0.4c0.1,0.1,0.2,0.2,0.3,0.2c0.2,0.1,0.4,0.1,0.6,0.1c0.1,0,0.3,0,0.4-0.1c0.1-0.1,0.2-0.1,0.4-0.2      c0.2-0.1,0.3-0.2,0.4-0.4c0.1-0.1,0.2-0.3,0.3-0.5c0.1-0.3,0.2-0.5,0.2-0.8c0.1-0.4,0.1-0.8,0.1-1.2c0-0.4-0.2-0.8-0.4-1.1      c-0.1-0.1-0.3-0.2-0.5-0.3c-0.2-0.1-0.4-0.1-0.6-0.1c-0.1,0-0.3,0-0.4,0.1c-0.3,0.1-0.5,0.2-0.7,0.4c-0.1,0.1-0.2,0.2-0.2,0.3      c-0.1,0.2-0.2,0.5-0.2,0.8c-0.1,0.4-0.1,0.9-0.1,1.3c0,0.2,0,0.4,0.1,0.6c0.1,0.2,0.2,0.3,0.3,0.5c0.1,0.1,0.3,0.2,0.5,0.3      c0.2,0.1,0.4,0.1,0.6,0.1c0.1,0,0.3,0,0.4-0.1c0.3-0.1,0.5-0.2,0.7-0.4C558.3,618.1,558.4,617.8,558.4,617.3L558.4,617.3z"
                  id="path150" />
            </g>
         </g>
         <g id="g160">
            <g id="g158">
               <path class="gesamtansicht_Festo_st13"
                  d="M558.2,617.2C558.2,617.2,558.2,617.2,558.2,617.2c0,0.1,0,0.2,0,0.3c0-0.2,0-0.4,0-0.6      c0,0.1,0,0.3-0.1,0.4c0-0.2,0.1-0.4,0.2-0.6c-0.1,0.1-0.1,0.2-0.2,0.4c0.1-0.2,0.2-0.3,0.3-0.5c0.1-0.2,0.2-0.4,0.2-0.6      c0-0.2,0-0.4,0-0.6c0-0.2-0.1-0.4-0.3-0.5c-0.1-0.2-0.2-0.3-0.4-0.4c-0.3-0.2-0.8-0.3-1.2-0.2c-0.1,0.1-0.2,0.1-0.4,0.2      c-0.2,0.1-0.4,0.3-0.5,0.5c-0.1,0.1-0.2,0.3-0.2,0.4c-0.1,0.3-0.2,0.5-0.3,0.8c0,0.1,0,0.3-0.1,0.4c0,0.1,0,0.3,0,0.4      c0,0.3,0,0.6,0.1,0.9c0,0.2,0.1,0.4,0.3,0.5c0.1,0.2,0.2,0.3,0.4,0.4c0.2,0.1,0.4,0.2,0.6,0.2c0.2,0,0.4,0,0.6,0      c0.4-0.1,0.7-0.3,0.9-0.7c0.1-0.1,0.1-0.2,0.2-0.4C558.3,617.7,558.3,617.5,558.2,617.2L558.2,617.2z"
                  id="path156" />
            </g>
         </g>
         <g id="g166">
            <g id="g164">
               <path class="gesamtansicht_Festo_st13"
                  d="M558.1,617.4c0-0.2,0-0.3,0-0.5C558.2,617.1,558.2,617.2,558.1,617.4c0-0.4,0.1-0.8,0.2-1.1      c0.1-0.2,0.1-0.4,0-0.6c0-0.2-0.1-0.4-0.2-0.6c-0.1-0.2-0.2-0.3-0.4-0.4c-0.1-0.1-0.3-0.2-0.5-0.3c-0.1,0-0.3,0-0.4-0.1      c-0.3,0-0.5,0.1-0.8,0.2c-0.1,0.1-0.2,0.2-0.3,0.2c-0.2,0.2-0.3,0.4-0.4,0.7c-0.2,0.6-0.3,1.2-0.3,1.9c0,0.2,0,0.4,0.1,0.6      c0.1,0.2,0.2,0.3,0.3,0.5c0.1,0.1,0.3,0.2,0.5,0.3c0.2,0.1,0.4,0.1,0.6,0.1c0.1,0,0.3,0,0.4-0.1c0.3-0.1,0.5-0.2,0.7-0.4      c0.1-0.1,0.2-0.2,0.2-0.3C558.1,617.9,558.1,617.7,558.1,617.4L558.1,617.4z"
                  id="path162" />
            </g>
         </g>
         <g id="g172">
            <g id="g170">
               <path class="gesamtansicht_Festo_st13"
                  d="M558.2,614.4C558.2,614.4,558.2,614.4,558.2,614.4c0-0.1,0-0.2,0-0.4C558.2,614.2,558.2,614.3,558.2,614.4      c0-0.1,0-0.2,0.1-0.3c-0.1,0.1-0.1,0.3-0.2,0.4c0.1-0.1,0.2-0.2,0.2-0.3c-0.1,0.1-0.2,0.2-0.3,0.3c0.1-0.1,0.2-0.2,0.3-0.2      C558.2,614.3,558.2,614.3,558.2,614.4c0.7,0.6,1.4,1.3,2,2c0,0,0,0,0-0.1c-0.1,0.1-0.2,0.2-0.2,0.3c0-0.1,0.1-0.1,0.1-0.1      c-0.1,0.1-0.2,0.2-0.3,0.2c0.2-0.2,0.5-0.3,0.8-0.4c0.3-0.1,0.6-0.3,0.9-0.4c-0.5-0.9-1-1.7-1.5-2.6c-0.4,0.2-0.9,0.5-1.3,0.7      c0.5,0.9,1,1.7,1.5,2.6c0.5-0.3,1.1-0.7,1.6-0.9c-0.5-0.9-1-1.7-1.5-2.6c-0.6,0.5-1.3,0.9-1.9,1.3c-0.3,0.2-0.6,0.5-0.7,0.9      c-0.1,0.2-0.1,0.4,0,0.6c0,0.2,0.1,0.4,0.2,0.6c0.2,0.3,0.5,0.6,0.9,0.7c0.4,0.1,0.8,0.1,1.2-0.2c0.7-0.4,1.3-0.8,1.9-1.3      c0.2-0.1,0.3-0.2,0.4-0.4c0.1-0.1,0.2-0.3,0.3-0.5c0.1-0.2,0.1-0.4,0-0.6c0-0.2-0.1-0.4-0.2-0.6c-0.2-0.3-0.5-0.6-0.9-0.7      c-0.1,0-0.3,0-0.4-0.1c-0.3,0-0.5,0.1-0.8,0.2c-0.6,0.3-1.1,0.6-1.6,0.9c-0.3,0.2-0.6,0.5-0.7,0.9c-0.1,0.2-0.1,0.4,0,0.6      c0,0.2,0.1,0.4,0.2,0.6c0.2,0.3,0.5,0.6,0.9,0.7c0.4,0.1,0.8,0,1.2-0.2c0.4-0.2,0.9-0.5,1.3-0.7c0.3-0.2,0.6-0.5,0.7-0.9      c0.1-0.2,0.1-0.4,0-0.6c0-0.2-0.1-0.4-0.2-0.6c-0.2-0.3-0.5-0.6-0.9-0.7c-0.1,0-0.3,0-0.4-0.1c-0.3,0-0.5,0.1-0.8,0.2      c-0.4,0.2-0.8,0.3-1.1,0.5c-0.2,0.1-0.3,0.2-0.5,0.2c-0.4,0.2-0.6,0.5-0.8,0.8c-0.1,0.1-0.1,0.2-0.2,0.4c-0.1,0.2-0.1,0.4,0,0.6      c0,0.1,0,0.3,0.1,0.4c0.1,0.2,0.2,0.3,0.3,0.5c0.2,0.2,0.4,0.3,0.7,0.4c0.2,0.1,0.4,0.1,0.6,0c0.2,0,0.4-0.1,0.6-0.2      c0.4-0.3,0.8-0.6,1-1.1c0.1-0.2,0.2-0.4,0.3-0.7c0.1-0.2,0.1-0.5,0.1-0.8c0-0.2,0-0.4-0.1-0.6c-0.1-0.2-0.2-0.3-0.3-0.5      c-0.3-0.3-0.7-0.5-1.1-0.4c-0.4,0-0.8,0.1-1.1,0.4c-0.1,0.1-0.2,0.2-0.2,0.3C558.2,613.9,558.2,614.1,558.2,614.4L558.2,614.4z"
                  id="path168" />
            </g>
         </g>
         <g id="g178">
            <g id="g176">
               <path class="gesamtansicht_Festo_st13"
                  d="M560,613.2c-0.3,0.3-0.6,0.6-1,0.9c0.1-0.1,0.2-0.2,0.3-0.2c-0.2,0.2-0.4,0.3-0.7,0.5      c-0.3,0.2-0.6,0.5-0.7,0.9c-0.1,0.2-0.1,0.4,0,0.6c0,0.2,0.1,0.4,0.2,0.6c0.2,0.3,0.5,0.6,0.9,0.7c0.1,0,0.3,0,0.4,0.1      c0.3,0,0.5-0.1,0.8-0.2c0.7-0.5,1.4-1,2-1.6c0.1-0.1,0.2-0.3,0.3-0.5c0.1-0.2,0.1-0.4,0.1-0.6c0-0.2,0-0.4-0.1-0.6      c-0.1-0.2-0.2-0.3-0.3-0.5c-0.3-0.3-0.7-0.5-1.1-0.4C560.7,612.8,560.3,612.9,560,613.2L560,613.2z"
                  id="path174" />
            </g>
         </g>
         <g id="g184">
            <g id="g182">
               <path class="gesamtansicht_Festo_st13"
                  d="M560.2,613.3c-0.2,0.2-0.4,0.3-0.6,0.5c0.1-0.1,0.2-0.2,0.3-0.2c-0.5,0.4-0.9,0.7-1.4,1      c-0.3,0.2-0.6,0.5-0.7,0.9c-0.1,0.2-0.1,0.4,0,0.6c0,0.2,0.1,0.4,0.2,0.6c0.2,0.3,0.5,0.6,0.9,0.7c0.4,0.1,0.8,0.1,1.2-0.2      c0.8-0.5,1.6-1.1,2.3-1.7c0.1-0.1,0.2-0.3,0.3-0.5c0.1-0.2,0.1-0.4,0.1-0.6c0-0.2,0-0.4-0.1-0.6c-0.1-0.2-0.2-0.3-0.3-0.5      c-0.3-0.3-0.7-0.5-1.1-0.4c-0.1,0-0.3,0-0.4,0.1C560.6,612.9,560.3,613.1,560.2,613.3L560.2,613.3z"
                  id="path180" />
            </g>
         </g>
         <g id="g190">
            <g id="g188">
               <path class="gesamtansicht_Festo_st13"
                  d="M560.3,613.2c-0.6,0.4-1.1,0.7-1.7,1.1c-0.3,0.2-0.6,0.5-0.7,0.9c-0.1,0.2-0.1,0.4,0,0.6      c0,0.2,0.1,0.4,0.2,0.6c0.2,0.3,0.5,0.6,0.9,0.7c0.1,0,0.3,0,0.4,0.1c0.3,0,0.5-0.1,0.8-0.2c0.3-0.1,0.5-0.3,0.8-0.5      c-0.6-0.8-1.2-1.6-1.8-2.4c-0.2,0.2-0.3,0.3-0.5,0.5c-0.1,0.1-0.2,0.3-0.3,0.5c-0.1,0.2-0.1,0.4-0.1,0.6c0,0.1,0,0.3,0.1,0.4      c0,0.2,0.1,0.4,0.3,0.5c0.1,0.1,0.2,0.2,0.3,0.3c0.1,0.1,0.3,0.2,0.5,0.3c0.1,0,0.3,0,0.4,0.1c0.3,0,0.5-0.1,0.8-0.2      c0.2-0.1,0.4-0.3,0.6-0.4c0.3-0.2,0.6-0.5,0.7-0.9c0.1-0.2,0.1-0.4,0-0.6c0-0.2-0.1-0.4-0.2-0.6c-0.2-0.3-0.5-0.6-0.9-0.7      c-0.1,0-0.3,0-0.4-0.1c-0.3,0-0.5,0.1-0.8,0.2c-0.2,0.1-0.4,0.3-0.6,0.4c0.6,0.8,1.2,1.6,1.8,2.4c0.2-0.2,0.3-0.3,0.5-0.5      c0.1-0.1,0.2-0.3,0.3-0.5c0.1-0.2,0.1-0.4,0.1-0.6c0-0.1,0-0.3-0.1-0.4c0-0.2-0.1-0.4-0.3-0.5c-0.1-0.1-0.2-0.2-0.3-0.3      c-0.1-0.1-0.3-0.2-0.5-0.3c-0.1,0-0.3,0-0.4-0.1c-0.3,0-0.5,0.1-0.8,0.2c-0.2,0.2-0.5,0.3-0.8,0.5c0.5,0.9,1,1.7,1.5,2.6      c0.6-0.4,1.1-0.7,1.7-1.1c0.3-0.2,0.6-0.5,0.7-0.9c0.1-0.2,0.1-0.4,0-0.6c0-0.2-0.1-0.4-0.2-0.6c-0.2-0.3-0.5-0.6-0.9-0.7      c-0.1,0-0.3,0-0.4-0.1C560.8,613,560.6,613.1,560.3,613.2L560.3,613.2z"
                  id="path186" />
            </g>
         </g>
         <g id="g196">
            <g id="g194">
               <path class="gesamtansicht_Festo_st13"
                  d="M560.5,613c-0.1,0.1-0.2,0.1-0.3,0.2C560.3,613.1,560.4,613,560.5,613c-0.3,0.2-0.7,0.5-1.1,0.7      c-0.2,0.1-0.3,0.2-0.4,0.4c-0.1,0.1-0.2,0.3-0.3,0.5c-0.1,0.2-0.1,0.4,0,0.6c0,0.2,0.1,0.4,0.2,0.6c0.1,0.1,0.2,0.2,0.2,0.3      c0.2,0.2,0.4,0.3,0.7,0.4c0.1,0,0.3,0,0.4,0.1c0.3,0,0.5-0.1,0.8-0.2c0.6-0.3,1.1-0.7,1.7-1.2c0.1-0.1,0.2-0.3,0.3-0.5      c0.1-0.2,0.1-0.4,0.1-0.6c0-0.2,0-0.4-0.1-0.6c-0.1-0.2-0.2-0.3-0.3-0.5c-0.1-0.1-0.2-0.2-0.3-0.2c-0.2-0.1-0.5-0.2-0.8-0.2      c-0.1,0-0.3,0-0.4,0.1C560.9,612.7,560.7,612.8,560.5,613L560.5,613z"
                  id="path192" />
            </g>
         </g>
         <g id="g202">
            <g id="g200">
               <path class="gesamtansicht_Festo_st11"
                  d="M562.2,616.6c0,0-0.1,0-0.1,0c0.1,0.2,0.2,0.5,0.3,0.7c0,0,0.1,0,0.1-0.1c0.2-0.1,0.2-0.3,0.2-0.5      C562.5,616.6,562.3,616.5,562.2,616.6c-0.1,0-0.2,0-0.3,0c0.1,0.2,0.2,0.5,0.3,0.7c0.3-0.2,0.6-0.4,0.9-0.6      c0.3-0.2,0.6-0.4,0.9-0.6c0.1-0.1,0.1-0.3,0.1-0.5c-0.1-0.1-0.3-0.2-0.4-0.2c-0.8,0.3-1.5,0.8-2,1.5c-0.1,0.2,0,0.4,0.1,0.5      c0.2,0.1,0.4,0,0.5-0.1c0,0,0.1-0.1,0,0c0,0,0,0,0,0c0,0,0.1-0.1,0.1-0.1c0.1-0.1,0.1-0.1,0.2-0.2s0.1-0.1,0.2-0.2      c0,0,0.1-0.1,0.1-0.1c0,0,0,0,0.1,0c0,0,0.1-0.1,0,0c0.1-0.1,0.1-0.1,0.2-0.2c0.1-0.1,0.2-0.1,0.2-0.1c0.1,0,0.2-0.1,0.2-0.1      c0,0,0.1,0,0.1-0.1c0,0,0,0,0,0c0,0,0.1,0,0.1,0c-0.1-0.2-0.2-0.4-0.4-0.6c0,0-0.1,0.1-0.1,0.1c0,0,0,0,0,0c0,0,0,0,0,0      c-0.1,0-0.1,0.1-0.2,0.1c-0.1,0.1-0.3,0.2-0.4,0.3c-0.3,0.2-0.6,0.4-0.9,0.5c-0.2,0.1-0.2,0.3-0.2,0.5c0.1,0.2,0.3,0.3,0.4,0.2      c0.1,0,0.1,0,0.2-0.1c-0.1-0.2-0.2-0.5-0.3-0.7c0,0-0.1,0-0.1,0.1c-0.2,0.1-0.2,0.3-0.2,0.5c0.1,0.2,0.3,0.3,0.4,0.2      c0,0,0.1,0,0.1,0c0.2,0,0.3-0.3,0.3-0.5C562.5,616.6,562.4,616.5,562.2,616.6L562.2,616.6z"
                  id="path198" />
            </g>
         </g>
         <g id="g208">
            <g id="g206">
               <path class="gesamtansicht_Festo_st13"
                  d="M561.7,615c-0.5,0.4-1,0.8-1.5,1.3c-0.1,0.1-0.2,0.4,0,0.5c0.1,0.1,0.4,0.2,0.5,0c0.2-0.2,0.4-0.4,0.7-0.6      c0.1-0.1,0.2-0.2,0.3-0.3c0,0,0.1,0,0.1-0.1c0,0,0,0,0.1,0c0,0-0.1,0,0,0c0.1,0,0.1-0.1,0.2-0.1c0.1-0.1,0.1-0.1,0.2-0.2      c0-0.1,0-0.2,0-0.3C562.1,614.9,561.9,614.8,561.7,615L561.7,615z"
                  id="path204" />
            </g>
         </g>
         <g id="g214">
            <g id="g212">
               <path class="gesamtansicht_Festo_st13"
                  d="M561.7,615c-0.1,0.1-0.2,0.2-0.3,0.3c0,0,0.1,0,0.1-0.1c-0.2,0.1-0.3,0.2-0.5,0.3c-0.1,0-0.1,0.1-0.2,0.2      c0,0.1,0,0.2,0,0.3c0.1,0.2,0.3,0.2,0.5,0.1c0.3-0.2,0.6-0.4,0.9-0.7c0.1-0.1,0.1-0.2,0.1-0.3c0-0.1,0-0.2-0.1-0.3      C562,614.8,561.8,614.8,561.7,615L561.7,615z"
                  id="path210" />
            </g>
         </g>
         <g id="g220">
            <g id="g218">
               <path class="gesamtansicht_Festo_st13"
                  d="M561.7,615.1c-0.3,0.2-0.7,0.4-1.1,0.6c-0.2,0.1-0.2,0.3-0.1,0.5c0.1,0.2,0.3,0.2,0.5,0.1      c0.4-0.2,0.7-0.4,1.1-0.6c0.1-0.1,0.1-0.1,0.2-0.2c0-0.1,0-0.2,0-0.3C562.1,615.1,561.9,615,561.7,615.1L561.7,615.1z"
                  id="path216" />
            </g>
         </g>
         <g id="g226">
            <g id="g224">
               <path class="gesamtansicht_Festo_st13"
                  d="M561.4,615.2c-0.2,0.2-0.5,0.3-0.7,0.5c-0.1,0-0.1,0.1-0.2,0.2c0,0.1,0,0.2,0,0.3c0.1,0.1,0.1,0.2,0.2,0.2      c0.1,0,0.2,0,0.3,0c0.3-0.1,0.5-0.3,0.7-0.5c0,0,0.1-0.1,0.1-0.1c0,0,0.1-0.1,0.1-0.1c0-0.1,0-0.2,0-0.3      c-0.1-0.1-0.1-0.2-0.2-0.2C561.6,615.2,561.5,615.1,561.4,615.2L561.4,615.2z"
                  id="path222" />
            </g>
         </g>
         <g id="g232">
            <g id="g230">
               <path class="gesamtansicht_Festo_st13"
                  d="M561.4,615.3c-0.3,0.2-0.5,0.3-0.8,0.4c-0.1,0-0.2,0.1-0.2,0.2c0,0.1,0,0.2,0,0.3c0.1,0.1,0.1,0.2,0.2,0.2      c0,0,0.1,0,0.1,0c0.1,0,0.1,0,0.2-0.1c0.3-0.1,0.5-0.3,0.8-0.4c0.1-0.1,0.1-0.1,0.2-0.2c0-0.1,0-0.2,0-0.3      c-0.1-0.1-0.1-0.2-0.2-0.2C561.6,615.2,561.5,615.2,561.4,615.3L561.4,615.3z"
                  id="path228" />
            </g>
         </g>
         <g id="g238">
            <g id="g236">
               <path
                  d="M562.4,615.5c-0.7,0.5-1.4,1.1-2,1.7c0.1,0.1,0.1,0.1,0.2,0.2c0.4-0.5,0.8-0.8,1.3-1.1c0.2-0.1,0-0.4-0.2-0.3      c-0.5,0.3-1,0.7-1.4,1.2c-0.1,0.1,0.1,0.4,0.2,0.2c0.6-0.6,1.2-1.2,1.9-1.6C562.7,615.6,562.6,615.4,562.4,615.5L562.4,615.5z"
                  id="path234" />
            </g>
         </g>
         <g id="g244">
            <g id="g242">
               <path
                  d="M561.8,615.9c-0.5,0.3-1,0.7-1.3,1.2c-0.1,0.1-0.1,0.2,0,0.2c0.1,0.1,0.2,0.1,0.2,0c0.4-0.4,0.8-0.8,1.3-1.1      C562.1,616.1,562,615.8,561.8,615.9L561.8,615.9z"
                  id="path240" />
            </g>
         </g>
         <g id="g250">
            <g id="g248">
               <path
                  d="M561.4,616.3c-0.4,0.3-0.9,0.6-1.2,1.1c-0.1,0.2,0.2,0.3,0.3,0.2c0.2-0.4,0.7-0.7,1.1-1c0.1,0,0.1-0.1,0.1-0.2      C561.5,616.3,561.4,616.3,561.4,616.3L561.4,616.3z"
                  id="path246" />
            </g>
         </g>
         <g id="g256">
            <g id="g254">
               <path
                  d="M562.3,615.8c-0.3,0.3-0.7,0.7-1.1,0.9c-0.1,0-0.1,0.1-0.1,0.2c0,0.1,0.1,0.1,0.2,0.1c0.4-0.3,0.8-0.6,1.2-1      C562.7,615.9,562.5,615.6,562.3,615.8L562.3,615.8z"
                  id="path252" />
            </g>
         </g>
         <g id="g262">
            <g id="g260">
               <path
                  d="M562.3,615.8c-0.3,0.3-0.7,0.6-1.1,0.9c-0.1,0-0.1,0.1-0.1,0.2c0,0.1,0.1,0.1,0.2,0.1c0.4-0.3,0.8-0.6,1.2-0.9      c0.1-0.1,0.1-0.2,0-0.2C562.5,615.8,562.4,615.8,562.3,615.8L562.3,615.8z"
                  id="path258" />
            </g>
         </g>
         <g id="g268">
            <g id="g266">
               <path
                  d="M561.9,616.3c-0.1,0-0.1,0.1-0.2,0.1c0,0-0.1,0-0.1,0.1c0,0,0,0,0,0c0,0,0,0,0,0c0,0,0,0,0,0c-0.1,0.1-0.2,0.2-0.4,0.2      c-0.1,0-0.1,0.1-0.1,0.2c0,0.1,0.1,0.1,0.2,0.1c0.3-0.2,0.5-0.3,0.7-0.5c0.1-0.1,0.1-0.2,0-0.2      C562,616.2,561.9,616.2,561.9,616.3L561.9,616.3z"
                  id="path264" />
            </g>
         </g>
         <g id="g274">
            <g id="g272">
               <path class="gesamtansicht_Festo_st11"
                  d="M563.3,615.6c-0.3,0.2-0.6,0.4-0.8,0.6c-0.1,0.1-0.1,0.2,0,0.2c0.1,0.1,0.1,0.1,0.2,0      c0.1-0.1,0.2-0.2,0.4-0.3c0,0,0,0,0,0c0,0,0,0,0,0c0,0,0,0,0,0c0,0,0,0,0,0c0,0,0,0,0,0c0,0,0,0,0.1,0c0.1,0,0.1-0.1,0.2-0.1      c0.1,0,0.1-0.1,0.1-0.2C563.5,615.6,563.4,615.6,563.3,615.6L563.3,615.6z"
                  id="path270" />
            </g>
         </g>
         <g id="g280">
            <g id="g278">
               <path class="gesamtansicht_Festo_st13"
                  d="M569.6,615.4c0.2,0.6,0.5,1.1,0.7,1.7c0,0.1,0.1,0.1,0.2,0.1c0.1,0,0.1-0.1,0.1-0.2      c-0.2-0.6-0.5-1.1-0.7-1.7c0-0.1-0.1-0.1-0.2-0.1C569.6,615.2,569.5,615.3,569.6,615.4L569.6,615.4z"
                  id="path276" />
            </g>
         </g>
         <g id="g286">
            <g id="g284">
               <path class="gesamtansicht_Festo_st13"
                  d="M569.6,615.5c0.2,0.5,0.4,1.1,0.7,1.6c0,0.1,0.1,0.1,0.2,0.1c0.1,0,0.1-0.1,0.1-0.2      c-0.2-0.5-0.4-1.1-0.7-1.6c0-0.1-0.1-0.1-0.2-0.1C569.6,615.3,569.5,615.4,569.6,615.5L569.6,615.5z"
                  id="path282" />
            </g>
         </g>
         <g id="g292">
            <g id="g290">
               <path class="gesamtansicht_Festo_st13"
                  d="M569.6,615.6c0.1,0.2,0.2,0.4,0.3,0.6c0,0.1,0.1,0.1,0.2,0.1c0.1,0,0.1-0.1,0.1-0.2      c-0.1-0.2-0.2-0.4-0.3-0.6c0-0.1-0.1-0.1-0.2-0.1C569.6,615.5,569.6,615.6,569.6,615.6L569.6,615.6z"
                  id="path288" />
            </g>
         </g>
         <g id="g298">
            <g id="g296">
               <path class="gesamtansicht_Festo_st13"
                  d="M569.6,615.6c0.2,0.5,0.4,1,0.6,1.6c0,0.1,0.1,0.1,0.2,0.1c0.1,0,0.1-0.1,0.1-0.2c-0.2-0.5-0.4-1-0.6-1.6      c0-0.1-0.1-0.1-0.2-0.1C569.6,615.4,569.6,615.5,569.6,615.6L569.6,615.6z"
                  id="path294" />
            </g>
         </g>
         <g id="g304">
            <g id="g302">
               <path class="gesamtansicht_Festo_st11"
                  d="M568.4,615.7c0.4,0.3,0.6,0.7,0.7,1.2c0,0.1,0.1,0.2,0.2,0.2c0.1,0,0.2-0.1,0.1-0.2      c-0.1-0.6-0.4-1.1-0.8-1.4c-0.1,0-0.2,0-0.2,0.1C568.3,615.6,568.3,615.6,568.4,615.7L568.4,615.7z"
                  id="path300" />
            </g>
         </g>
         <g id="g310">
            <g id="g308">
               <path class="gesamtansicht_Festo_st11"
                  d="M568.4,615.7c0.5,0.4,0.7,0.9,0.8,1.5c0,0.2,0.3,0.2,0.3,0c0-0.7-0.3-1.3-0.8-1.7c-0.1-0.1-0.2-0.1-0.2,0      C568.4,615.5,568.4,615.6,568.4,615.7L568.4,615.7z"
                  id="path306" />
            </g>
         </g>
         <g id="g316">
            <g id="g314">
               <path class="gesamtansicht_Festo_st13"
                  d="M574.7,615.3c0.1,0.6,0.3,1.3,0.5,1.9c0.1,0.2,0.3,0.1,0.3-0.1c-0.2-0.6-0.4-1.3-0.5-1.9      C575,615.1,574.7,615.1,574.7,615.3L574.7,615.3z"
                  id="path312" />
            </g>
         </g>
         <g id="g322">
            <g id="g320">
               <path class="gesamtansicht_Festo_st13"
                  d="M574.8,615.5c0.1,0.5,0.2,0.9,0.3,1.4c0,0.1,0.1,0.2,0.1,0.2c0.1,0,0.2-0.1,0.2-0.2c0-0.5-0.1-1-0.3-1.5      C575,615.2,574.7,615.3,574.8,615.5L574.8,615.5z"
                  id="path318" />
            </g>
         </g>
         <g id="g328">
            <g id="g326">
               <path class="gesamtansicht_Festo_st13"
                  d="M575.3,616.8c0-0.2,0-0.5,0-0.7c0,0,0-0.1,0-0.1c0,0-0.1,0-0.1,0c-0.1,0-0.2,0.1-0.2,0.2      c0,0.2,0,0.5,0,0.7c0,0.1,0.1,0.2,0.2,0.2C575.2,617,575.3,616.9,575.3,616.8L575.3,616.8z"
                  id="path324" />
            </g>
         </g>
         <g id="g334">
            <g id="g332">
               <path class="gesamtansicht_Festo_st13"
                  d="M574.8,615.6c0.1,0.5,0.2,0.9,0.3,1.4c0,0.2,0.3,0.1,0.3-0.1c-0.1-0.5-0.2-0.9-0.3-1.4      C575,615.3,574.7,615.4,574.8,615.6L574.8,615.6z"
                  id="path330" />
            </g>
         </g>
         <g id="g340">
            <g id="g338">
               <path class="gesamtansicht_Festo_st13"
                  d="M575,616.2c0,0.2,0,0.4,0,0.6c0,0,0,0.1,0,0.1c0,0,0.1,0,0.1,0c0.1,0,0.2-0.1,0.1-0.1c0-0.2,0-0.4,0-0.6      c0-0.1-0.1-0.2-0.2-0.2C575.1,616.1,575,616.1,575,616.2L575,616.2z"
                  id="path336" />
            </g>
         </g>
         <g id="g346">
            <g id="g344">
               <path class="gesamtansicht_Festo_st13"
                  d="M575,616.3c0,0.2,0,0.3,0,0.5c0,0.1,0.1,0.1,0.2,0.1c0.1,0,0.1-0.1,0.1-0.2c0,0,0-0.1,0-0.1c0,0,0,0,0,0      c0-0.1,0-0.2,0-0.3c0-0.1-0.1-0.2-0.2-0.1C575,616.1,575,616.2,575,616.3L575,616.3z"
                  id="path342" />
            </g>
         </g>
         <g id="g352">
            <g id="g350">
               <path
                  d="M574.4,615.6C574.4,615.6,574.4,615.6,574.4,615.6C574.4,615.6,574.4,615.6,574.4,615.6c0,0,0.1,0.1,0.1,0.1      c0,0,0,0,0,0c0,0,0,0.1,0,0.1c0,0,0,0.1,0.1,0.1c0,0,0.1,0,0.1,0c0,0,0.1,0,0.1-0.1c0,0,0-0.1,0-0.1c0-0.1-0.1-0.2-0.2-0.3      c0,0-0.1,0-0.1,0c0,0-0.1,0-0.1,0c0,0,0,0.1,0,0.1C574.3,615.5,574.3,615.5,574.4,615.6L574.4,615.6z"
                  id="path348" />
            </g>
         </g>
         <g id="g358">
            <g id="g356">
               <path
                  d="M574.4,615.5c0.2,0.5,0.3,1.1,0.2,1.7c0,0.2,0.3,0.2,0.3,0c0-0.6-0.1-1.2-0.3-1.7c0-0.1-0.1-0.1-0.2-0.1      C574.5,615.4,574.4,615.5,574.4,615.5L574.4,615.5z"
                  id="path354" />
            </g>
         </g>
         <g id="g364">
            <g id="g362">
               <path
                  d="M574.6,616.4c0,0.1,0,0.1,0,0.2c0,0,0,0,0,0c0,0,0,0,0,0c0,0,0,0.1,0,0.1c0,0.1,0,0.2,0,0.4c0,0.1,0.1,0.2,0.2,0.2      c0.1,0,0.1-0.1,0.1-0.2c0-0.3,0-0.5-0.1-0.8c0-0.1-0.1-0.1-0.2-0.1C574.6,616.2,574.6,616.3,574.6,616.4L574.6,616.4z"
                  id="path360" />
            </g>
         </g>
         <g id="g370">
            <g id="g368">
               <path
                  d="M574.6,616.4c0,0.2,0,0.4,0,0.6c0,0.1,0.1,0.2,0.2,0.2c0.1,0,0.2-0.1,0.2-0.2c0-0.2,0-0.4,0-0.6c0-0.1-0.1-0.2-0.2-0.2      C574.7,616.2,574.6,616.3,574.6,616.4L574.6,616.4z"
                  id="path366" />
            </g>
         </g>
         <g id="g376">
            <g id="g374">
               <path
                  d="M574.7,616.4C574.7,616.5,574.7,616.5,574.7,616.4c0,0.1,0,0.1,0,0.1C574.7,616.5,574.7,616.5,574.7,616.4      c0,0.1,0,0.1,0,0.1c0,0.1,0,0.1,0,0.2c0,0.1,0,0.2,0,0.3c0,0.1,0.1,0.2,0.2,0.1c0.1,0,0.1-0.1,0.2-0.1c0-0.2,0-0.5,0-0.7      c0-0.1-0.1-0.1-0.2-0.1C574.7,616.3,574.6,616.3,574.7,616.4L574.7,616.4z"
                  id="path372" />
            </g>
         </g>
         <g id="g382">
            <g id="g380">
               <path
                  d="M574.7,616.5C574.7,616.5,574.7,616.6,574.7,616.5C574.7,616.6,574.7,616.6,574.7,616.5c0,0.1,0,0.1,0,0.1      c0,0,0,0.1,0,0.1c0,0.1,0,0.2,0,0.3c0,0.1,0.1,0.2,0.2,0.2c0.1,0,0.1-0.1,0.1-0.2c0-0.2,0-0.4,0-0.6c0-0.1-0.1-0.1-0.2-0.1      C574.7,616.4,574.7,616.4,574.7,616.5L574.7,616.5z"
                  id="path378" />
            </g>
         </g>
         <g id="g388">
            <g id="g386">
               <path
                  d="M574.7,616.6c0,0,0,0.1,0,0.1C574.7,616.8,574.7,616.7,574.7,616.6c0,0.2,0,0.3,0,0.4c0,0,0,0.1,0,0.1c0,0,0.1,0,0.1,0      c0.1,0,0.1-0.1,0.2-0.1c0-0.2,0-0.3,0-0.5c0-0.1-0.1-0.1-0.2-0.1C574.7,616.5,574.7,616.6,574.7,616.6L574.7,616.6z"
                  id="path384" />
            </g>
         </g>
         <g id="g394">
            <g id="g392">
               <path
                  d="M574.4,615.5c0.1,0.2,0.1,0.3,0.1,0.5c0,0,0,0.1,0.1,0.1c0,0,0.1,0,0.1,0c0,0,0.1,0,0.1-0.1c0,0,0-0.1,0-0.1      c0-0.2-0.1-0.3-0.1-0.5c0,0,0-0.1-0.1-0.1c0,0-0.1,0-0.1,0C574.4,615.3,574.4,615.4,574.4,615.5L574.4,615.5z"
                  id="path390" />
            </g>
         </g>
         <g id="g400">
            <g id="g398">
               <path
                  d="M569.2,615.7c0.3,0.4,0.5,0.9,0.5,1.5c0,0.2,0.3,0.2,0.3,0c0-0.6-0.2-1.1-0.5-1.6C569.4,615.3,569.1,615.5,569.2,615.7      L569.2,615.7z"
                  id="path396" />
            </g>
         </g>
         <g id="g406">
            <g id="g404">
               <path
                  d="M569.4,616.1c0.1,0.1,0.1,0.3,0.2,0.4c0.1,0.2,0.1,0.3,0.1,0.5c0,0.1,0.1,0.1,0.2,0.1c0.1,0,0.1-0.1,0.1-0.2      c-0.1-0.3-0.2-0.7-0.3-1c0-0.1-0.1-0.1-0.2-0.1C569.4,616,569.4,616,569.4,616.1L569.4,616.1z"
                  id="path402" />
            </g>
         </g>
         <g id="g412">
            <g id="g410">
               <path
                  d="M569.5,616.2c0.1,0.1,0.1,0.3,0.1,0.4c0,0.1,0,0.1,0,0.2c0,0,0,0.1,0,0.1c0,0,0,0,0,0c0,0,0,0,0,0c0,0,0,0,0,0      c0,0.1,0.1,0.2,0.2,0.2c0.1,0,0.2-0.1,0.1-0.2c0-0.3-0.1-0.6-0.2-0.9c0-0.1-0.1-0.1-0.2-0.1C569.5,616,569.5,616.1,569.5,616.2      L569.5,616.2z"
                  id="path408" />
            </g>
         </g>
         <g id="g418">
            <g id="g416">
               <path
                  d="M569.5,616.2c0.2,0.4,0.3,0.8,0.3,1.2c0,0.1,0.1,0.2,0.2,0.2c0.1,0,0.2-0.1,0.1-0.2c0-0.5-0.2-0.9-0.4-1.3      c0-0.1-0.1-0.1-0.2-0.1C569.5,616,569.5,616.1,569.5,616.2L569.5,616.2z"
                  id="path414" />
            </g>
         </g>
         <g id="g424">
            <g id="g422">
               <path
                  d="M569.3,615.8C569.3,615.8,569.3,615.8,569.3,615.8C569.3,615.8,569.3,615.8,569.3,615.8c0.1,0.1,0.1,0.1,0.1,0.1      c0,0,0.1,0.1,0.1,0.2c0,0,0,0.1,0,0.1c0,0,0,0,0,0c0,0,0,0.1,0,0c0,0.1,0,0.1,0.1,0.2c0,0.1,0.1,0.1,0.2,0.1      c0.1,0,0.1-0.1,0.1-0.2c-0.1-0.3-0.2-0.5-0.4-0.7c0-0.1-0.2-0.1-0.2,0C569.2,615.6,569.2,615.7,569.3,615.8L569.3,615.8z"
                  id="path420" />
            </g>
         </g>
         <g id="g430">
            <g id="g428">
               <path
                  d="M569.3,615.7c0,0.1,0.1,0.1,0.1,0.2c0,0,0,0.1,0,0.1c0,0,0,0,0,0.1c0,0,0,0.1,0,0c0.1,0.1,0.1,0.3,0.1,0.4      c0,0.1,0.1,0.1,0.2,0.1c0.1,0,0.1-0.1,0.1-0.2c-0.1-0.3-0.2-0.6-0.4-0.9c0-0.1-0.1-0.1-0.2-0.1      C569.3,615.5,569.2,615.6,569.3,615.7L569.3,615.7z"
                  id="path426" />
            </g>
         </g>
         <g id="g436">
            <g id="g434">
               <path
                  d="M569.8,617.1c0.1,0.3,0.1,0.7,0.1,1c0,0.1,0,0.2,0.1,0.2c0.1,0,0.2,0,0.2-0.1c0.1-0.4,0-0.8-0.1-1.2      c0-0.1-0.1-0.1-0.2-0.1C569.8,616.9,569.8,617,569.8,617.1L569.8,617.1z"
                  id="path432" />
            </g>
         </g>
         <g id="g442">
            <g id="g440">
               <path class="gesamtansicht_Festo_st13"
                  d="M539.8,610.3c-0.5,3.2,0,6.4,1.5,9.3c0.8-0.6,1.6-1.2,2.4-1.8c-3.4-3.5-7.7-6.1-12.3-7.5      c-1.5-0.5-2.5,1.5-1.5,2.5c1.5,1.5,3,3,4.5,4.5c0.7-0.7,1.4-1.4,2.1-2.1c-2.7-2.2-5.7-4.1-8.9-5.5c-1.6-0.7-2.9,1-1.8,2.4      c2.4,3.1,5.5,5.4,8.5,7.7c1.4,1,3-1.2,1.8-2.4c-2.8-2.7-6.1-5-9.6-6.6c-1.5-0.7-3,1-1.8,2.4c2.3,2.6,4.9,4.9,7.7,6.8      c1.5,1,2.9-1.1,1.8-2.4c-1.6-1.9-3.4-3.5-5.4-5c-1.3-1-3.1,1.3-1.8,2.4c3.9,3.3,7.9,6.5,12.8,8.4c1.3,0.5,2.3-1.1,1.7-2.2      c-1.6-2.8-4.1-5-6.5-7.1c-1.5-1.2-3.6,0.9-2.1,2.1c1.4,1.2,2.9,2.3,4.5,3.2c1.4,0.8,3.1,2,4.7,2.2c1.9,0.3,2.7-1.6,1.9-3.1      c-0.9-1.9-2.1-3.7-3.2-5.5c-0.7,0.7-1.4,1.4-2.1,2.1c2,1.5,3.9,3,5.9,4.5c0.9,0.7,2.3-0.2,2.3-1.3c-0.1-1.8-0.4-3.5-0.9-5.2      c-0.6-1.9-3.2-1.1-2.9,0.8c0.4,2,1.3,3.7,2.6,5.3c0.7,0.9,2.3,0.4,2.5-0.7c0.4-1.6,0.7-3.1,1.1-4.7c-1-0.1-2-0.3-2.9-0.4      c0.1,1.8,0.4,3.6,0.9,5.4c0.4,1.5,2.4,1.3,2.9,0c0.6-1.6,1.3-3.3,1.9-4.9c-1-0.1-2-0.3-2.9-0.4c0.1,1.6,0.2,3.2,0.2,4.7      c0.1,1.7,2.4,2,2.9,0.4c0.6-1.7,1-3.3,1.1-5.1c-1,0-2,0-3,0c0,1.4-0.1,2.8-0.1,4.2c-0.1,1.7,2.6,2.1,2.9,0.4      c0.3-1.3,0.6-2.5,0.9-3.8c-1-0.3-1.9-0.5-2.9-0.8c-0.2,1.1-0.3,2.2-0.5,3.2c-0.3,1.9,2.6,2.7,2.9,0.8c0.2-1.1,0.3-2.1,0.5-3.2      c-1-0.1-2-0.3-2.9-0.4c-0.1,0.6-0.3,1.2-0.5,1.8c1,0.3,1.9,0.5,2.9,0.8c0.2-0.7,0.5-1.4,0.7-2.1c-1-0.3-1.9-0.5-2.9-0.8      c-0.3,1.1-0.7,2.3-1,3.4c-0.6,1.9,2.2,2.6,2.9,0.8c0.4-1,0.8-2,1.1-3c-1-0.1-2-0.3-2.9-0.4c-0.1,0.9-0.3,1.7-0.6,2.6      c1,0.3,1.9,0.5,2.9,0.8c0.3-1,0.6-1.9,0.9-2.9c0.6-1.9-2.3-2.6-2.9-0.8c-0.2,0.8-0.5,1.6-0.7,2.4c-0.6,1.9,2.3,2.6,2.9,0.8      c0.2-0.7,0.5-1.4,0.7-2.1c-1-0.3-1.9-0.5-2.9-0.8c-0.2,0.8-0.4,1.7-0.6,2.5c-0.4,1.9,2.3,2.6,2.9,0.8c0.3-0.8,0.5-1.5,0.8-2.3      c0.6-1.8-2.3-2.6-2.9-0.8c-0.3,0.9-0.6,1.8-0.9,2.7c1,0,1.9,0,2.9,0c0-0.1,0-0.2-0.1-0.3c-0.3-1.9-3.2-1.1-2.9,0.8      c0,0.1,0,0.2,0.1,0.3c0.3,1.6,2.5,1.3,2.9,0c0.3-0.9,0.6-1.8,0.9-2.7c-1-0.3-1.9-0.5-2.9-0.8c-0.3,0.8-0.5,1.5-0.8,2.3      c1,0.3,1.9,0.5,2.9,0.8c0.2-0.8,0.4-1.7,0.6-2.5c0.5-1.9-2.3-2.6-2.9-0.8c-0.2,0.7-0.5,1.4-0.7,2.1c1,0.3,1.9,0.5,2.9,0.8      c0.2-0.8,0.5-1.6,0.7-2.4c-1-0.3-1.9-0.5-2.9-0.8c-0.3,1-0.6,1.9-0.9,2.9c-0.6,1.9,2.2,2.5,2.9,0.8c0.5-1.1,0.7-2.2,0.7-3.4      c0.1-1.8-2.4-1.9-2.9-0.4c-0.4,1-0.8,2-1.1,3c1,0.3,1.9,0.5,2.9,0.8c0.3-1.1,0.7-2.3,1-3.4c0.6-1.9-2.3-2.6-2.9-0.8      c-0.2,0.7-0.5,1.4-0.7,2.1c-0.6,1.9,2.2,2.5,2.9,0.8c0.4-0.8,0.5-1.7,0.6-2.6c0.2-1.7-2.7-2.1-2.9-0.4c-0.2,1.1-0.3,2.1-0.5,3.2      c1,0.3,1.9,0.5,2.9,0.8c0.2-1.1,0.3-2.2,0.5-3.2c0.3-1.9-2.4-2.7-2.9-0.8c-0.3,1.3-0.6,2.5-0.9,3.8c1,0.1,2,0.3,2.9,0.4      c0-1.4,0.1-2.8,0.1-4.2c0.1-2-2.8-1.9-3,0c-0.1,1.5-0.5,2.9-1,4.3c1,0.1,2,0.3,2.9,0.4c-0.1-1.6-0.2-3.2-0.2-4.7      c-0.1-1.8-2.3-2-2.9-0.4c-0.6,1.6-1.3,3.3-1.9,4.9c1,0,1.9,0,2.9,0c-0.4-1.5-0.7-3-0.8-4.6c-0.1-1.6-2.5-2.1-2.9-0.4      c-0.4,1.6-0.7,3.1-1.1,4.7c0.8-0.2,1.7-0.4,2.5-0.7c-1-1.2-1.5-2.5-1.8-4c-1,0.3-1.9,0.5-2.9,0.8c0.4,1.5,0.7,2.9,0.8,4.4      c0.8-0.4,1.5-0.9,2.3-1.3c-2-1.5-3.9-3-5.9-4.5c-1.3-1-2.7,0.8-2.1,2.1c1.1,1.9,2.5,3.8,3.3,5.9c-0.1-0.4-0.1-0.8-0.2-1.2      c0,0.1,0,0.2,0,0.4c0.2-0.3,0.5-0.6,0.7-0.9c0.4-0.3-0.1-0.3-0.5-0.5c-0.3-0.1-0.5-0.2-0.8-0.4c-0.7-0.4-1.4-0.7-2.1-1.2      c-1.3-0.8-2.5-1.7-3.7-2.7c-0.7,0.7-1.4,1.4-2.1,2.1c2.3,1.9,4.6,3.9,6.1,6.5c0.6-0.7,1.1-1.5,1.7-2.2c-4.4-1.6-8-4.6-11.5-7.6      c-0.6,0.8-1.2,1.6-1.8,2.4c1.8,1.3,3.3,2.9,4.8,4.5c0.6-0.8,1.2-1.6,1.8-2.4c-2.6-1.8-5-4-7.1-6.4c-0.6,0.8-1.2,1.6-1.8,2.4      c3.3,1.6,6.4,3.6,9,6.2c0.6-0.8,1.2-1.6,1.8-2.4c-2.9-2.2-5.7-4.4-7.9-7.3c-0.6,0.8-1.2,1.6-1.8,2.4c2.9,1.4,5.7,3,8.3,5.1      c1.5,1.2,3.5-0.7,2.1-2.1c-1.5-1.5-3-3-4.5-4.5c-0.5,0.8-1,1.7-1.5,2.5c4.2,1.3,7.9,3.7,11,6.8c1.2,1.2,3.1-0.3,2.4-1.8      c-1.1-2.1-1.6-4.6-1.2-6.9C543,609.2,540.1,608.4,539.8,610.3L539.8,610.3z"
                  id="path438" />
            </g>
         </g>
         <g id="g448">
            <g id="g446">
               <path class="gesamtansicht_Festo_st13"
                  d="M535.8,613.8c0.4,1.4,0.8,2.8,1.3,4.2c0.8-0.5,1.7-1,2.5-1.5c-2.2-1.9-4.7-3.3-7.5-4.4      c-0.9-0.3-1.9,0.5-1.9,1.4c0,1.2,0.3,2.3,1,3.2c0.7-0.7,1.4-1.4,2.1-2.1c-1.9-1.4-3.7-2.7-5.6-4.1c-0.6-0.4-1.5-0.2-1.9,0.4      c-0.5,0.6-0.4,1.4,0.1,2c1.2,1.3,2.5,2.5,3.9,3.6c0.6,0.5,1.5,0.6,2.1,0c0.5-0.5,0.6-1.6,0-2.1c-1.5-1.3-3.2-2.3-5-3.2      c-1.6-0.7-2.9,1-1.8,2.4c1.3,1.7,3.1,2.9,5,3.7c0.7,0.3,1.5-0.3,1.8-0.9c0.3-0.7,0-1.4-0.6-1.9c-1-0.7-2.1-1.4-3.1-2.1      c-1.4-0.9-3.2,1.3-1.8,2.4c1.5,1.2,3.1,2.2,4.7,3.2c0.7,0.4,1.6,0.2,2.1-0.5c0.4-0.8,0.1-1.6-0.5-2.1c-2.1-1.6-4.5-2.9-6.9-4      c-0.7-0.3-1.5-0.3-1.9,0.4c-0.4,0.5-0.5,1.5,0.1,2c2,1.6,4.1,3,6.5,4c0.7,0.3,1.6,0.2,2.1-0.5c0.4-0.7,0.2-1.6-0.5-2.1      c-1.2-0.7-2.4-1.4-3.6-2c-1.7-1-3.2,1.6-1.5,2.6c1.2,0.7,2.4,1.4,3.6,2c0.5-0.9,1-1.7,1.5-2.6c-2.1-0.9-4.1-2.1-5.8-3.6      c-0.6,0.8-1.2,1.6-1.8,2.4c2.4,1.1,4.7,2.4,6.9,4c0.5-0.9,1-1.7,1.5-2.6c-1.4-0.8-2.8-1.7-4.1-2.7c-0.6,0.8-1.2,1.6-1.8,2.4      c1,0.7,2.1,1.4,3.1,2.1c0.4-0.9,0.8-1.8,1.2-2.7c-1.5-0.6-2.7-1.7-3.7-2.9c-0.6,0.8-1.2,1.6-1.8,2.4c1.6,0.7,3.1,1.6,4.4,2.7      c0.7-0.7,1.4-1.4,2.1-2.1c-1.4-1.1-2.7-2.3-3.9-3.6c-0.6,0.8-1.2,1.6-1.8,2.4c1.9,1.4,3.7,2.7,5.6,4.1c1.2,0.9,2.9-0.8,2.1-2.1      c-0.4-0.5-0.6-1.1-0.6-1.7c-0.6,0.5-1.3,1-1.9,1.4c2.2,0.9,4.3,2.1,6.1,3.6c0.5,0.4,1.2,0.6,1.8,0.2c0.6-0.3,0.9-1.1,0.7-1.7      c-0.4-1.4-0.8-2.8-1.3-4.2C538.1,611.2,535.2,611.9,535.8,613.8L535.8,613.8z"
                  id="path444" />
            </g>
         </g>
         <g id="g454">
            <g id="g452">
               <path class="gesamtansicht_Festo_st13"
                  d="M553.6,615.3c-0.1,0.5-0.1,0.9-0.2,1.4c0.2,0,0.5,0.1,0.7,0.1c0-0.1,0-0.2,0-0.4c0-0.1,0,0,0,0      c0,0,0-0.1,0-0.1c0-0.1,0-0.1,0-0.2c0-0.2,0.1-0.5,0.2-0.7C554.1,615.4,553.9,615.4,553.6,615.3c0,0.2,0,0.3,0,0.4      c0,0.1,0-0.1,0,0c0,0,0,0.1,0,0.1c0,0.1,0,0.1,0,0.2c-0.1,0.2-0.1,0.5-0.2,0.7c0.2,0,0.5,0.1,0.7,0.1c0,0,0-0.1,0-0.1      c0,0,0-0.1,0,0c0,0.1,0,0,0,0c0,0,0-0.1,0-0.1c0-0.1,0,0,0,0c0,0,0,0,0-0.1c-0.2-0.1-0.5-0.1-0.7-0.2c0,0.1,0,0.1,0,0.2      c0,0,0,0,0,0.1c0,0,0-0.1,0,0c0,0,0,0.1,0,0.1c0,0.1,0,0.1-0.1,0.2c0,0,0,0.1,0,0c0,0,0,0.1-0.1,0.1c-0.1,0.2,0,0.4,0.1,0.5      c0.2,0.1,0.4,0.1,0.5-0.1c0.2-0.3,0.3-0.7,0.3-1.1c0-0.2-0.1-0.3-0.3-0.4c-0.2,0-0.3,0-0.4,0.2c-0.1,0.2-0.2,0.5-0.2,0.8      c0,0.2,0.1,0.3,0.3,0.4c0.2,0,0.4-0.1,0.4-0.3c0.2-0.5,0.3-1,0.3-1.5c0-0.2-0.1-0.3-0.3-0.4C553.9,615,553.7,615.1,553.6,615.3      c-0.1,0.5-0.2,1-0.2,1.5c0,0.2,0.2,0.3,0.3,0.4c0.2,0,0.4-0.1,0.4-0.3c0.1-0.5,0.1-0.9,0.2-1.4c0-0.1,0-0.2,0-0.3      c0-0.1-0.1-0.2-0.2-0.2C553.9,615,553.7,615.1,553.6,615.3L553.6,615.3z"
                  id="path450" />
            </g>
         </g>
         <g id="g460">
            <g id="g458">
               <path
                  d="M657.2,495.3c3,3,6.1,5.8,9.1,8.8c0.7,0.7,1.7-0.4,1.1-1.1c-3-3-6.1-5.8-9.1-8.8C657.5,493.6,656.5,494.6,657.2,495.3      L657.2,495.3z"
                  id="path456" />
            </g>
         </g>
         <g id="g466">
            <g id="g464">
               <path
                  d="M657.6,504.7c3.2-2.9,5.9-6.3,9.1-9.2c0.7-0.7-0.4-1.7-1.1-1.1c-3.2,2.9-5.9,6.3-9.1,9.2      C655.8,504.3,656.9,505.4,657.6,504.7L657.6,504.7z"
                  id="path462" />
            </g>
         </g>
         <g id="g472">
            <g id="g470">
               <path
                  d="M805.9,496.6c2.6,3,5.3,5.8,7.9,8.8c0.6,0.7,1.7-0.3,1.1-1.1c-2.6-3-5.3-5.8-7.9-8.8      C806.3,494.8,805.2,495.8,805.9,496.6L805.9,496.6z"
                  id="path468" />
            </g>
         </g>
         <g id="g478">
            <g id="g476">
               <path
                  d="M806.4,505.9c2.8-2.9,5.1-6.3,7.9-9.2c0.7-0.7-0.4-1.8-1.1-1.1c-2.8,2.9-5.1,6.3-7.9,9.2      C804.7,505.6,805.7,506.6,806.4,505.9L806.4,505.9z"
                  id="path474" />
            </g>
         </g>
         <circle class="gesamtansicht_Festo_st2" cx="564.6" cy="618.2" r="10" id="circle480" />
         <g id="g498">
            <g id="g488">
               <path class="gesamtansicht_Festo_st11"
                  d="M601.8,495.9c-5.4-1.7-56.4,1.5-77.5,11.6c-21.5,10.2-42.6,28.1-57.1,54c-13.4,23.8-19.2,52.7-12.9,75.8      c6.7,24.5,26,32.7,46.9,28.1c22-4.8,44.8-22.7,64.5-40.6c2.1-1.9,5-5.1,3.9-8.3c-0.8-2.3-3.1-2.7-5-1.8c-4.7,2-9.7,9-13.8,13.1      c-9.6,9.4-19.7,17.9-30.2,23.8c-20.2,11.2-44.2,12-55.4-8.3c-9.6-17.3-6.5-45.3,3.6-67.7c5-11.1,11.4-22.2,18.8-31.2      c7.3-8.9,15.7-15.4,24.3-20.7c18.9-11.6,38.9-17.7,58-19.9c4.9-0.5,21.9-1.4,25.8-0.7"
                  id="path482" />
               <g id="g486">
                  <path
                     d="M601.9,495.6c-1.8-0.5-3.9-0.4-5.7-0.4c-3.6,0-7.3,0.1-10.9,0.4c-9.8,0.6-19.6,1.7-29.3,3.2       c-9.5,1.5-19.2,3.4-28.3,6.9c-4.9,1.9-9.5,4.4-14,7.1c-5.2,3.1-10.1,6.6-14.8,10.4c-21.3,17.3-37.2,41.4-44,68       c-3.3,12.7-4.6,26.1-2.5,39.1c1.8,11,6.2,22,15.2,29.1c19.3,15.3,45.7,4.4,63.8-7.2c6.2-4,12.2-8.4,17.9-13       c5.9-4.7,11.9-9.6,17.4-14.9c1.9-1.8,3.9-4.3,3.4-7.1c-0.4-2.3-2.4-3.6-4.7-3.1c-2.4,0.5-4.5,2.5-6.2,4.2       c-2.3,2.3-4.4,4.8-6.6,7.2c-5,5.5-10.7,10.5-16.5,15.1c-5.6,4.5-11.5,8.6-17.9,11.9c-10.1,5.1-22.1,8.3-33.4,5.7       c-5.1-1.2-9.9-3.7-13.7-7.4c-4.2-4.1-7.1-9.4-8.9-15c-3.9-12.4-3.1-26.1-0.3-38.7c3.1-14.2,9.2-27.5,16.8-39.8       c4-6.4,8.5-12.5,13.8-18c4.9-5.1,10.5-9.5,16.4-13.3c12.7-8.3,26.7-14.5,41.4-18.2c11-2.8,22.1-4,33.4-4.4       c3.8-0.1,8-0.5,11.8,0.2c0.4,0.1,0.5-0.5,0.2-0.6c-3.8-0.7-8-0.3-11.8-0.2c-4.5,0.2-9,0.4-13.4,0.8c-13.6,1.3-27,4.9-39.6,10.1       c-13,5.5-25.6,12.8-35.9,22.5c-10.6,10-18.5,22.6-24.8,35.7c-5.8,12.1-9.8,25.1-10.8,38.6c-0.9,11.6,0.1,24.2,6.3,34.3       c5.4,9,14.6,14.3,25,14.9c11.2,0.7,22.4-3.2,32-8.9c6.2-3.6,12-8,17.4-12.6c5.4-4.6,10.6-9.4,15.3-14.8c2-2.3,4.1-4.7,6.5-6.6       c1.1-0.9,2.4-1.8,3.8-2.1c2.1-0.5,3.8,0.8,4,2.9c0.3,3.5-3.1,6.1-5.4,8.2c-2.9,2.6-5.8,5.1-8.8,7.6       c-11.3,9.6-23.4,18.8-36.8,25.3c-10.6,5.2-22.6,8.9-34.5,7c-10.2-1.6-19-7.5-24.4-16.4c-6.5-10.8-8.1-24.1-7.5-36.5       c1.3-27.9,14.1-54.9,32.7-75.5c8.5-9.4,18.4-17.6,29.2-24.1c4.5-2.7,9.2-5.2,14.1-7.1c4.2-1.6,8.6-2.8,13-3.9       c10.1-2.4,20.3-3.9,30.6-5c8.1-0.9,16.3-1.6,24.5-1.5c1.8,0,3.8-0.1,5.6,0.4C602.1,496.3,602.3,495.7,601.9,495.6L601.9,495.6z       "
                     id="path484" />
               </g>
            </g>
            <g id="g496">
               <path class="gesamtansicht_Festo_st11"
                  d="M599.8,495.5c5.3,1,9.7,1.1,13.7,2.8c9.5,4.1,18.7,4.3,36.6,22.5l-4.6,0.2c-13.5-10.7-34.3-16.7-51.1-18.1      "
                  id="path490" />
               <g id="g494">
                  <path
                     d="M599.7,495.8c4.7,0.9,9.6,1.1,14.1,3c2.2,0.9,4.5,1.7,6.8,2.5c5.9,2.1,11.4,4.8,16.4,8.4c4.6,3.3,8.8,7.2,12.9,11.3       c0.1-0.2,0.1-0.3,0.2-0.5c-1,0-2,0.1-3,0.1c-0.4,0-1,0.2-1.4,0.1c-0.5-0.1-1.2-0.9-1.6-1.2c-3.4-2.5-7.2-4.7-11-6.6       c-7.8-3.8-16.2-6.5-24.7-8.3c-4.6-1-9.3-1.7-14-2.1c-0.4,0-0.4,0.6,0,0.6c8.6,0.7,17.2,2.5,25.4,5.1       c8.3,2.7,16.4,6.3,23.5,11.4c0.6,0.5,1.5,1.4,2.2,1.6c0.3,0.1,0.8,0,1.1,0c1.2-0.1,2.3-0.1,3.5-0.2c0.3,0,0.4-0.3,0.2-0.5       c-6.1-6.2-12.8-12.1-20.6-16.1c-4.7-2.4-9.7-3.9-14.6-5.8c-2.1-0.8-4.1-1.6-6.3-2c-2.9-0.6-5.9-0.9-8.9-1.4       C599.5,495.1,599.3,495.7,599.7,495.8L599.7,495.8z"
                     id="path492" />
               </g>
            </g>
         </g>
         <g id="g504">
            <g id="g502">
               <path class="gesamtansicht_Festo_st13"
                  d="M536,601.6c1.5,2.3,2.7,4.6,3.8,7.1c0.3,0.7,1.4,0.9,2.1,0.5c0.7-0.5,0.9-1.3,0.5-2.1      c-1.1-2.5-2.3-4.8-3.8-7.1c-0.4-0.7-1.4-1-2.1-0.5C535.9,600,535.6,600.9,536,601.6L536,601.6z"
                  id="path500" />
            </g>
         </g>
         <g id="g510">
            <g id="g508">
               <path class="gesamtansicht_Festo_st13"
                  d="M533.9,604.4c1.8,1.4,3.8,2.2,6,2.2c1.6,0,2.1-2.6,0.4-2.9c-3.1-0.6-6.2-1-9.4-1c-2,0-1.9,2.9,0,3      c2.9,0.2,5.7,0.4,8.6,0.7c1.9,0.1,1.9-2.8,0-3c-5.3-0.5-10.6-0.8-16-0.8c-1.9,0-1.9,2.9,0,3c1.8,0.1,3.7,0.2,5.5,0.4      c0-1,0-2,0-3c-3.9,0.1-7.7-0.1-11.6-0.6c-1.7-0.2-2.1,2.7-0.4,2.9c4.6,0.8,9.1,1.5,13.7,2.3c0.1-1,0.3-2,0.4-2.9      c-4.1-0.3-8.2-0.6-12.3-0.8c-1.8-0.1-1.8,2.4-0.4,2.9c3.5,1.4,7,2.8,10.5,4.2c0.3-1,0.5-1.9,0.8-2.9c-5.3-1.5-10.5-3.1-15.8-4.6      c-1.9-0.6-2.5,2.2-0.8,2.9c4.3,1.8,8.6,3.6,12.8,5.4c1.6,0.7,2.7-2.1,1.2-2.7c-3.6-1.6-7.2-2.8-11-3.8c-1.6-0.4-2.7,2-1.2,2.7      c3.5,1.7,7,3.4,10.5,5.1c0.4-0.9,0.8-1.8,1.2-2.7c-3-0.9-6-1.8-9-2.6c-1.6-0.5-2.7,2.1-1.2,2.7c2.7,1.1,5.3,2.3,8,3.4      c0.4-0.9,0.8-1.8,1.2-2.7c-2.5-0.9-5-1.8-7.6-2.8c-1.6-0.6-2.7,2-1.2,2.7c2.4,1.2,4.8,2.3,7.2,3.5c0.4-0.9,0.8-1.8,1.2-2.7      c-2.2-0.9-4.5-1.8-6.7-2.7c-1.6-0.6-2.7,2-1.2,2.7c2.1,1,4.2,1.9,6.3,2.9c1.7,0.8,3.3-1.8,1.5-2.6c-1.9-0.9-3.7-1.8-5.6-2.6      c-0.5,0.9-1,1.7-1.5,2.6c2,0.8,3.9,1.7,5.9,2.5c1.7,0.7,3.3-1.8,1.5-2.6c-1.8-0.8-3.5-1.6-5.3-2.4c-0.4,0.9-0.8,1.8-1.2,2.7      c2,0.8,4.1,1.7,6.1,2.5c0.3-1,0.5-1.9,0.8-2.9c-2.3-0.9-4.5-1.8-6.8-2.6c-1.6-0.6-2.7,2-1.2,2.7c2.8,1.3,5.7,2.3,8.7,2.8      c1.9,0.4,2.7-2.5,0.8-2.9c-2.7-0.5-5.4-1.3-7.9-2.5c-0.4,0.9-0.8,1.8-1.2,2.7c2.3,0.9,4.5,1.8,6.8,2.6c1.8,0.7,2.6-2.2,0.8-2.9      c-2-0.8-4.1-1.7-6.1-2.5c-1.6-0.6-2.7,2-1.2,2.7c1.8,0.8,3.5,1.6,5.3,2.4c0.5-0.9,1-1.7,1.5-2.6c-2-0.8-3.9-1.7-5.9-2.5      c-1.7-0.7-3.3,1.7-1.5,2.6c1.9,0.9,3.7,1.8,5.6,2.6c0.5-0.9,1-1.7,1.5-2.6c-2.1-1-4.2-1.9-6.3-2.9c-0.4,0.9-0.8,1.8-1.2,2.7      c2.2,0.9,4.5,1.8,6.7,2.7c1.6,0.6,2.7-2,1.2-2.7c-2.4-1.2-4.8-2.3-7.2-3.5c-0.4,0.9-0.8,1.8-1.2,2.7c2.5,0.9,5,1.8,7.6,2.8      c1.6,0.6,2.7-2.1,1.2-2.7c-2.7-1.1-5.3-2.3-8-3.4c-0.4,0.9-0.8,1.8-1.2,2.7c3,0.9,6,1.8,9,2.6c1.6,0.5,2.7-2,1.2-2.7      c-3.5-1.7-7-3.4-10.5-5.1c-0.4,0.9-0.8,1.8-1.2,2.7c3.5,0.9,7,2,10.3,3.5c0.4-0.9,0.8-1.8,1.2-2.7c-4.3-1.8-8.6-3.6-12.8-5.4      c-0.3,1-0.5,1.9-0.8,2.9c5.3,1.5,10.5,3.1,15.8,4.6c1.9,0.6,2.5-2.2,0.8-2.9c-3.5-1.4-7-2.8-10.5-4.2c-0.1,1-0.3,2-0.4,2.9      c4.1,0.3,8.2,0.6,12.3,0.8c1.7,0.1,2.1-2.7,0.4-2.9c-4.6-0.8-9.1-1.5-13.7-2.3c-0.1,1-0.3,2-0.4,2.9c3.8,0.5,7.7,0.7,11.6,0.6      c1.9,0,1.9-2.9,0-3c-1.8-0.1-3.7-0.2-5.5-0.4c0,1,0,2,0,3c5.3,0,10.7,0.3,16,0.8c0-1,0-2,0-3c-2.9-0.2-5.7-0.4-8.6-0.7      c0,1,0,2,0,3c2.9,0.1,5.8,0.4,8.6,0.9c0.1-1,0.3-2,0.4-2.9c-1.4,0-2.8-0.4-3.9-1.3C534.5,601.1,532.4,603.2,533.9,604.4      L533.9,604.4z"
                  id="path506" />
            </g>
         </g>
         <g id="g516">
            <g id="g514">
               <path class="gesamtansicht_Festo_st13"
                  d="M538.7,604.6c10.8,0.6,21.5,0.7,32.3,0.3c1.9-0.1,1.9-2.9,0-3c-10-0.5-20.1-0.7-30.2-0.5c-1.9,0-1.9,3,0,3      c8,0.1,16,0.3,24,0.4c0-1,0-2,0-3c-9.4,0.7-18.9,1.3-28.3,2c-1.9,0.1-2,3,0,3c11,0,21.9,0,32.9,0c2,0,1.9-2.8,0-3      c-8.2-0.9-16.3-1.8-24.5-2.7c0,1,0,2,0,3c12.6,0.5,25.2,1.4,37.7,2.6c0-1,0-2,0-3c-4.2-0.4-8.4-0.8-12.6-1.2c0,1,0,2,0,3      c7.4-0.5,14.8-0.5,22.2-0.2c0-1,0-2,0-3c-1.9,0.2-3.8,0.5-5.6,0.7c-1.9,0.2-1.9,3.2,0,3c1.9-0.2,3.8-0.5,5.6-0.7      c1.9-0.2,2-2.9,0-3c-7.4-0.4-14.8-0.3-22.2,0.2c-1.9,0.1-1.9,2.8,0,3c4.2,0.4,8.4,0.8,12.6,1.2c1.9,0.2,1.9-2.8,0-3      c-12.5-1.2-25.1-2.1-37.7-2.6c-2-0.1-1.9,2.8,0,3c8.2,0.9,16.3,1.8,24.5,2.7c0-1,0-2,0-3c-11,0-21.9,0-32.9,0c0,1,0,2,0,3      c9.4-0.7,18.9-1.3,28.3-2c1.9-0.1,2-3,0-3c-8-0.1-16-0.3-24-0.4c0,1,0,2,0,3c10.1-0.2,20.1,0,30.2,0.5c0-1,0-2,0-3      c-10.8,0.3-21.5,0.2-32.3-0.3C536.8,601.5,536.8,604.5,538.7,604.6L538.7,604.6z"
                  id="path512" />
            </g>
         </g>
         <g id="g522">
            <g id="g520">
               <path class="gesamtansicht_Festo_st13"
                  d="M587.4,598.6c-1.3-1.5-3.6-0.5-3.8,1.4c-0.2,2.3,2.3,3.1,4,3.7c4.3,1.7,8.8,2.6,13.4,2.9      c1.7,0.1,2-2.5,0.4-2.9c-6.4-1.6-13-2.3-19.5-1.9c-1.6,0.1-2.1,2.6-0.4,2.9c9.2,2,18.7,2.8,28.1,2.3c1.6-0.1,2.1-2.6,0.4-2.9      c-6.5-1.3-13.1-0.1-19.6,1.1c-1.6,0.3-1.3,3.2,0.4,2.9c8.7-1.1,17.4-2.2,26.1-3.3c-0.1-1-0.3-2-0.4-2.9      c-5.5,1.4-11.1,2.9-16.6,4.3c0.3,1,0.5,1.9,0.8,2.9c5.1-1.6,10.2-3.3,15.3-4.9c-0.5-0.8-1-1.7-1.5-2.5c-2.8,2.4-5.8,4.6-9,6.6      c-1.6,1-0.1,3.6,1.5,2.6c2.9-1.8,6-3,9.4-3.9c-0.5-0.8-1-1.7-1.5-2.5c-2.3,2.7-5.5,4-8.7,5.2c0.4,0.9,0.8,1.8,1.2,2.7      c1.7-1.1,3.4-2.1,5.1-3.2c-0.6-0.8-1.2-1.6-1.8-2.4c-1.5,1.6-3.3,2.7-5.3,3.6c0.6,0.8,1.2,1.6,1.8,2.4c0.5-0.6,1-1.1,1.5-1.7      c1.3-1.4-0.8-3.6-2.1-2.1c-0.5,0.6-1,1.1-1.5,1.7c-1.2,1.3,0.3,3,1.8,2.4c2.2-1,4.2-2.3,5.9-4.1c1.2-1.2-0.3-3.3-1.8-2.4      c-1.7,1.1-3.4,2.1-5.1,3.2c-1.4,0.9-0.5,3.4,1.2,2.7c3.7-1.4,7.5-2.9,10.1-6c0.9-1.1,0.1-2.9-1.5-2.5c-3.5,0.9-6.9,2.3-10.1,4.2      c0.5,0.9,1,1.7,1.5,2.6c3.4-2.1,6.6-4.4,9.6-7c1.1-1-0.1-3-1.5-2.5c-5.1,1.6-10.2,3.3-15.3,4.9c-1.8,0.6-1.1,3.4,0.8,2.9      c5.5-1.4,11.1-2.9,16.6-4.3c1.6-0.4,1.3-3.2-0.4-2.9c-8.7,1.1-17.4,2.2-26.1,3.3c0.1,1,0.3,2,0.4,2.9c5.9-1.2,12-2.4,18-1.1      c0.1-1,0.3-2,0.4-2.9c-9.2,0.5-18.4-0.2-27.3-2.2c-0.1,1-0.3,2-0.4,2.9c6.3-0.4,12.6,0.2,18.7,1.8c0.1-1,0.3-2,0.4-2.9      c-2.6-0.2-5.1-0.6-7.6-1.2c-1.2-0.3-2.3-0.6-3.5-1c-0.7-0.2-1.3-0.5-1.9-0.7c-0.3-0.1-0.5-0.2-0.8-0.4c-0.1,0-0.2-0.1-0.3-0.2      c-0.5-0.3-1-0.1-1.5,0.6C586.5,602.2,588.6,600.1,587.4,598.6L587.4,598.6z"
                  id="path518" />
            </g>
         </g>
         <g id="g528">
            <g id="g526">
               <path class="gesamtansicht_Festo_st13"
                  d="M581,602.9c1.2,0.7,2.5,1.2,3.7,1.8c0.6,0.2,1.2,0.5,1.8,0.7c0.3,0.1,0.6,0.2,0.9,0.3      c0.2,0.1,0.3,0.1,0.5,0.2c0.2,0.1,0.1,0,0,0c-0.5-0.4-0.5-0.9-0.1-1.7c0.2-0.1,0.4-0.3,0.7-0.4c-0.1,0-0.1,0,0,0      c0.1,0,0.2,0,0.3,0c-0.1,0-0.3,0-0.4-0.1c-0.3-0.1-0.6-0.1-0.9-0.2c-0.6-0.1-1.1-0.2-1.7-0.3c-0.6-0.1-1.2-0.2-1.8-0.3      c-0.8-0.1-1.6-0.2-2.3,0.2c-0.7,0.4-1.2,1.1-1.1,1.9c0,0.9,0.5,1.5,1.3,2c0.5,0.3,1.1,0.5,1.7,0.7c0.5,0.2,1,0.3,1.6,0.4      c0.5,0.1,1.1,0.1,1.6-0.2c0.5-0.3,0.8-0.9,0.8-1.5c0-0.5-0.3-1-0.6-1.4c-0.2-0.1-0.3-0.3-0.5-0.3c0,0-0.1-0.1-0.1-0.1      c-0.1,0-0.1,0,0,0c0.3,0.2,0.4,0.5,0.4,0.8c0.1-0.8-0.7-1.5-1.5-1.5c-0.9,0-1.4,0.7-1.5,1.5c0,0.5,0.2,1.1,0.6,1.4      c0.1,0.1,0.4,0.3,0.6,0.4c0.1,0.1,0.1,0.1-0.1-0.1c-0.3-0.4-0.4-0.8-0.1-1.3c0.2-0.2,0.4-0.4,0.5-0.5c0.6-0.5,1.1,0,0.7-0.1      c-0.1,0-0.2,0-0.3-0.1c-0.1,0-0.3-0.1-0.4-0.1c-0.3-0.1-0.7-0.2-1-0.3c-0.1-0.1-0.3-0.1-0.4-0.2c0.3,0.1-0.1-0.1-0.2-0.1      c-0.1-0.1-0.4-0.3-0.1,0c0,0-0.1-0.2,0,0c0.1,0.2,0.2,0.5,0.1,0.8c0,0.1-0.1,0.3-0.2,0.3c0,0-0.3,0.2-0.1,0.1      c0,0-0.3,0.1-0.1,0.1c0.2-0.1-0.2,0,0,0c0,0,0.3,0,0.1,0c-0.2,0,0,0,0.1,0c0.2,0,0.4,0.1,0.6,0.1c0.7,0.1,1.4,0.2,2.1,0.3      c0.7,0.1,1.4,0.2,2.1,0.3c0.5,0.1,1.1,0.1,1.6-0.2c0.5-0.4,0.9-0.9,0.9-1.6c0-0.6-0.3-1.1-0.8-1.5c-0.4-0.3-0.8-0.4-1.2-0.5      c-0.6-0.2-1.3-0.4-1.9-0.7c-0.3-0.1-0.7-0.3-1-0.4c-0.2-0.1,0.2,0.1,0,0c-0.1,0-0.2-0.1-0.3-0.1c-0.2-0.1-0.3-0.1-0.5-0.2      c-0.7-0.3-1.4-0.7-2.1-1.1c-0.7-0.4-1.7-0.2-2.1,0.5C580.1,601.5,580.3,602.5,581,602.9L581,602.9z"
                  id="path524" />
            </g>
         </g>
         <g id="g534">
            <g id="g532">
               <path class="gesamtansicht_Festo_st13"
                  d="M615.7,603.7c0-0.1,0-0.1,0-0.2c0.1-0.1,0.1-0.1,0,0c0,0-0.1,0.1-0.1,0.1c-0.1,0.2,0.1-0.1-0.1,0.1      c-0.1,0.1-0.2,0.2-0.2,0.2c-0.4,0.4-0.8,0.7-1.3,1.1c-0.8,0.7-1.6,1.3-2.5,1.9c-1.8,1.3-3.7,2.4-5.7,3.4      c-0.7,0.4-0.9,1.4-0.5,2.1c0.4,0.7,1.3,0.9,2.1,0.5c2.3-1.1,4.4-2.5,6.5-4c1.1-0.8,2.1-1.6,3.1-2.4c1.2-1,1.9-2.1,1.7-3.7      c-0.1-0.8-1.1-1.2-1.8-1C615.9,602.1,615.5,602.9,615.7,603.7L615.7,603.7z"
                  id="path530" />
            </g>
         </g>
         <g id="g540">
            <g id="g538">
               <path class="gesamtansicht_Festo_st13"
                  d="M613.1,606.3C613.2,606.1,613.3,606.1,613.1,606.3c0,0-0.1,0.1-0.2,0.2c-0.1,0.1-0.2,0.2-0.3,0.4      c-0.2,0.2-0.4,0.5-0.6,0.7c-0.2,0.2-0.5,0.4-0.7,0.7c-0.1,0.1-0.1,0.1-0.2,0.2c-0.2,0.1,0.2-0.2,0.1,0c-0.1,0.1-0.3,0.2-0.4,0.3      c-0.5,0.4-1.1,0.7-1.6,1c-0.1,0.1-0.3,0.1-0.4,0.2c-0.1,0-0.2,0.1-0.2,0.1c0.1,0,0.3-0.1,0.1,0c-0.3,0.1-0.6,0.2-1,0.4      c-0.7,0.2-1.3,1.1-1,1.8c0.2,0.7,1,1.3,1.8,1c3-1,5.5-2.8,7.4-5.3c0.2-0.3,0.2-0.8,0.2-1.2c-0.1-0.3-0.4-0.7-0.7-0.9      c-0.3-0.2-0.8-0.3-1.2-0.2C613.6,605.7,613.4,605.9,613.1,606.3L613.1,606.3z"
                  id="path536" />
            </g>
         </g>
         <g id="g546">
            <g id="g544">
               <path class="gesamtansicht_Festo_st13"
                  d="M613.5,607.6c-1.8,1.3-3.8,2.4-5.8,3.3c-0.3,0.1-0.6,0.6-0.7,0.9c-0.1,0.4-0.1,0.8,0.2,1.2      c0.2,0.3,0.5,0.6,0.9,0.7c0.4,0.1,0.8,0,1.2-0.2c2-0.9,4-2,5.8-3.3c0.6-0.4,1-1.3,0.5-2.1C615.1,607.5,614.1,607.1,613.5,607.6      L613.5,607.6z"
                  id="path542" />
            </g>
         </g>
         <g id="g552">
            <g id="g550">
               <path class="gesamtansicht_Festo_st13"
                  d="M612.1,608.7c-0.8,0.5-1.5,0.9-2.4,1.3c0.1-0.1,0.2-0.1,0.4-0.2c-0.8,0.3-1.6,0.6-2.4,0.8      c-0.8,0.2-1.3,1.1-1,1.8c0.3,0.8,1,1.2,1.8,1c1.8-0.4,3.6-1.2,5.2-2.2c0.3-0.2,0.6-0.5,0.7-0.9c0.1-0.4,0.1-0.8-0.2-1.2      C613.8,608.6,612.8,608.2,612.1,608.7L612.1,608.7z"
                  id="path548" />
            </g>
         </g>
         <g id="g558">
            <g id="g556">
               <path class="gesamtansicht_Festo_st13"
                  d="M611.5,608.8c-0.7,0.5-1.5,0.9-2.3,1.3c0.1-0.1,0.2-0.1,0.4-0.2c-0.5,0.2-0.9,0.4-1.4,0.5      c-0.4,0.1-0.7,0.4-0.9,0.7c-0.2,0.3-0.3,0.8-0.2,1.2c0.2,0.8,1,1.3,1.8,1c1.4-0.4,2.8-1.1,4.1-1.9c0.3-0.2,0.6-0.5,0.7-0.9      c0.1-0.4,0.1-0.8-0.2-1.2c-0.2-0.3-0.5-0.6-0.9-0.7C612.2,608.6,611.8,608.6,611.5,608.8L611.5,608.8z"
                  id="path554" />
            </g>
         </g>
         <g id="g564">
            <g id="g562">
               <path class="gesamtansicht_Festo_st13"
                  d="M612.2,609.1c-1.3,0.5-2.6,1-3.9,1.6c-0.4,0.2-0.7,0.3-0.9,0.7c-0.2,0.3-0.3,0.8-0.2,1.2      c0.1,0.4,0.3,0.7,0.7,0.9c0.3,0.2,0.8,0.3,1.2,0.2c1.3-0.5,2.6-1,3.9-1.6c0.4-0.2,0.7-0.3,0.9-0.7c0.2-0.3,0.3-0.8,0.2-1.2      c-0.1-0.4-0.3-0.7-0.7-0.9C613.1,609.1,612.6,609,612.2,609.1L612.2,609.1z"
                  id="path560" />
            </g>
         </g>
         <g id="g570">
            <g id="g568">
               <path class="gesamtansicht_Festo_st13"
                  d="M610.2,610.3C610.2,610.3,610.2,610.4,610.2,610.3c0-0.1,0.1-0.2,0.1-0.3c0,0,0,0.1-0.1,0.1      c0.1-0.1,0.2-0.2,0.2-0.3c0,0.1-0.1,0.1-0.1,0.1c0.1-0.1,0.2-0.2,0.3-0.2c-0.2,0.1-0.4,0.2-0.6,0.3c0.1-0.1,0.2-0.1,0.4-0.2      c-0.4,0.2-0.8,0.3-1.1,0.4c-0.2,0-0.4,0.1-0.5,0.3c-0.2,0.1-0.3,0.2-0.4,0.4c-0.1,0.2-0.2,0.4-0.2,0.6c0,0.2,0,0.4,0,0.6      c0.1,0.4,0.3,0.7,0.7,0.9c0.4,0.2,0.8,0.2,1.2,0.2c0.6-0.1,1.1-0.3,1.6-0.6c0.2-0.1,0.3-0.2,0.5-0.3c0.2-0.1,0.3-0.2,0.5-0.4      c0.2-0.3,0.4-0.5,0.5-0.8c0.1-0.2,0.1-0.4,0-0.6c0-0.2-0.1-0.4-0.2-0.6c-0.1-0.2-0.2-0.3-0.4-0.4c-0.1-0.1-0.3-0.2-0.5-0.3      c-0.4-0.1-0.8-0.1-1.2,0.2c-0.1,0.1-0.2,0.2-0.3,0.2C610.4,609.9,610.3,610.1,610.2,610.3L610.2,610.3z"
                  id="path566" />
            </g>
         </g>
         <g id="g576">
            <g id="g574">
               <path class="gesamtansicht_Festo_st13"
                  d="M611.6,609.5c-0.9,0.3-1.8,0.5-2.7,0.7c-0.3,0.1-0.7,0.4-0.9,0.7c-0.2,0.3-0.3,0.8-0.2,1.2      c0.1,0.4,0.3,0.7,0.7,0.9c0.1,0.1,0.2,0.1,0.4,0.2c0.3,0.1,0.5,0.1,0.8,0c0.9-0.1,1.8-0.4,2.7-0.7c0.4-0.1,0.7-0.3,0.9-0.7      c0.2-0.3,0.3-0.8,0.2-1.2c-0.1-0.4-0.3-0.7-0.7-0.9C612.4,609.5,612,609.4,611.6,609.5L611.6,609.5z"
                  id="path572" />
            </g>
         </g>
         <g id="g582">
            <g id="g580">
               <path class="gesamtansicht_Festo_st13"
                  d="M518.6,612.5c0.8,0.4,1.7,0.8,2.6,1c0.4,0.1,0.8,0.1,1.2-0.2c0.3-0.2,0.6-0.5,0.7-0.9      c0.1-0.4,0.1-0.8-0.2-1.2c-0.2-0.3-0.5-0.6-0.9-0.7c-0.5-0.1-1-0.3-1.5-0.5c0.1,0.1,0.2,0.1,0.4,0.2c-0.2-0.1-0.5-0.2-0.7-0.4      c-0.3-0.2-0.8-0.3-1.2-0.2c-0.3,0.1-0.7,0.4-0.9,0.7c-0.2,0.3-0.3,0.8-0.2,1.2C518,611.9,518.3,612.3,518.6,612.5L518.6,612.5z"
                  id="path578" />
            </g>
         </g>
         <g id="g588">
            <g id="g586">
               <path class="gesamtansicht_Festo_st13"
                  d="M518.5,612.3c1,0.6,2.1,1.1,3.2,1.4c0.4,0.1,0.8,0,1.2-0.2c0.3-0.2,0.6-0.5,0.7-0.9      c0.1-0.4,0.1-0.8-0.2-1.2c-0.2-0.3-0.5-0.6-0.9-0.7c-0.4-0.1-0.9-0.3-1.3-0.5c0.1,0.1,0.2,0.1,0.4,0.2c-0.5-0.2-1-0.5-1.5-0.8      c-0.3-0.2-0.8-0.3-1.2-0.2c-0.3,0.1-0.7,0.4-0.9,0.7c-0.2,0.3-0.3,0.8-0.2,1.2C518,611.8,518.2,612.1,518.5,612.3L518.5,612.3z"
                  id="path584" />
            </g>
         </g>
         <g id="g594">
            <g id="g592">
               <path class="gesamtansicht_Festo_st13"
                  d="M518.7,612.5c1.1,0.7,2.4,1.2,3.7,1.5c0.4,0.1,0.8,0.1,1.2-0.2c0.3-0.2,0.6-0.5,0.7-0.9      c0.1-0.4,0.1-0.8-0.2-1.2c-0.2-0.3-0.5-0.6-0.9-0.7c-0.6-0.1-1.2-0.3-1.8-0.6c0.1,0.1,0.2,0.1,0.4,0.2c-0.5-0.2-1.1-0.5-1.6-0.8      c-0.7-0.4-1.7-0.2-2.1,0.5C517.8,611.2,518,612.1,518.7,612.5L518.7,612.5z"
                  id="path590" />
            </g>
         </g>
         <text transform="matrix(1.0078 0 0 1 537.5337 546.6386)"
            class="gesamtansicht_Festo_st14 gesamtansicht_Festo_st15 gesamtansicht_Festo_st16" id="text596">FESTO</text>
         <line class="gesamtansicht_Festo_st2" x1="131.7" y1="216.3" x2="212.7" y2="216.2" id="line598" />
         <rect x="131.1" y="215.9" class="gesamtansicht_Festo_st17" width="84.9" height="64" id="rect600" />
         <rect x="130.6" y="215.9" class="gesamtansicht_Festo_st2" width="85.9" height="352.5" id="rect602" />
         <rect x="131.1" y="424.5" class="gesamtansicht_Festo_st18" width="85.1" height="47.7" id="rect604" />
         <rect x="130.9" y="472.5" class="gesamtansicht_Festo_st1" width="85.6" height="49.9" id="rect606" />
         <rect x="130.8" y="521.5" class="gesamtansicht_Festo_st1" width="85.5" height="47.2" id="rect608" />
         <rect x="131" y="328.3" class="gesamtansicht_Festo_st19" width="85.1" height="48.1" id="rect610" />
         <rect x="131" y="376.3" class="gesamtansicht_Festo_st18" width="85.1" height="48.3" id="rect612" />
         <rect x="131" y="280.3" class="gesamtansicht_Festo_st19" width="85.1" height="48.1" id="rect614" />
      </g>
   </a>
   <g aria-label="Umsetzer " id="text783"
      style="font-size:33.3333px;font-family:Roboto;-inkscape-font-specification:Roboto;text-align:center;text-anchor:middle;fill:#ffffff">
      <path
         d="m 514.04404,674.57072 v 16.11327 q -0.0163,3.35286 -2.11589,5.48502 -2.08333,2.13216 -5.66406,2.39257 l -0.83007,0.0326 q -3.88997,0 -6.20117,-2.09961 -2.31119,-2.09961 -2.34375,-5.77799 v -16.14582 h 3.09245 v 16.04816 q 0,2.57162 1.41601,4.00391 1.41602,1.41601 4.03646,1.41601 2.65299,0 4.05273,-1.41601 1.41601,-1.41602 1.41601,-3.98763 v -16.06444 z"
         id="path522" />
      <path
         d="m 521.3357,680.65796 0.0814,1.95312 q 1.93684,-2.27865 5.2246,-2.27865 3.69466,0 5.02929,2.83203 0.87891,-1.26953 2.27865,-2.05078 1.41601,-0.78125 3.33658,-0.78125 5.79427,0 5.89192,6.13607 v 11.80012 h -3.01106 v -11.62109 q 0,-1.88802 -0.86263,-2.81575 -0.86263,-0.94401 -2.89713,-0.94401 -1.67644,0 -2.78321,1.00911 -1.10676,0.99284 -1.2858,2.68555 v 11.68619 h -3.02734 v -11.53971 q 0,-3.84114 -3.75976,-3.84114 -2.96224,0 -4.05273,2.52279 v 12.85806 h -3.01107 v -17.61066 z"
         id="path525" />
      <path
         d="m 557.97303,693.5974 q 0,-1.22071 -0.92773,-1.88802 -0.91146,-0.6836 -3.20638,-1.17188 -2.27864,-0.48828 -3.62955,-1.17187 -1.33464,-0.68359 -1.98568,-1.6276 -0.63476,-0.94401 -0.63476,-2.24609 0,-2.16472 1.82291,-3.66211 1.83919,-1.4974 4.6875,-1.4974 2.99479,0 4.85025,1.54623 1.87175,1.54622 1.87175,3.95507 H 557.794 q 0,-1.23698 -1.05795,-2.13216 -1.04166,-0.89518 -2.63671,-0.89518 -1.64388,0 -2.57161,0.71615 -0.92774,0.71614 -0.92774,1.87174 0,1.09049 0.86263,1.64388 0.86263,0.55338 3.10872,1.05794 2.26237,0.50456 3.66211,1.20443 1.39974,0.69986 2.06705,1.6927 0.6836,0.97656 0.6836,2.39258 0,2.36002 -1.88802,3.79231 -1.88802,1.41602 -4.89909,1.41602 -2.11588,0 -3.74348,-0.7487 -1.6276,-0.7487 -2.55534,-2.08333 -0.91146,-1.35091 -0.91146,-2.91341 h 3.01107 q 0.0814,1.51367 1.20443,2.40885 1.13932,0.87891 2.99478,0.87891 1.70899,0 2.73438,-0.6836 1.04166,-0.69987 1.04166,-1.85546 z"
         id="path527" />
      <path
         d="m 572.21456,698.59414 q -3.58073,0 -5.82682,-2.34375 -2.24609,-2.36003 -2.24609,-6.29882 v -0.55339 q 0,-2.62044 0.99283,-4.67122 1.00912,-2.06705 2.79948,-3.22265 1.80664,-1.17188 3.90625,-1.17188 3.43424,0 5.33853,2.26237 1.9043,2.26237 1.9043,6.47786 v 1.25325 h -11.93033 q 0.0651,2.60417 1.51367,4.2155 1.46484,1.59505 3.71094,1.59505 1.59505,0 2.70182,-0.65104 1.10677,-0.65105 1.93684,-1.72526 l 1.8392,1.43229 q -2.21354,3.40169 -6.64062,3.40169 z m -0.37435,-15.78775 q -1.82292,0 -3.0599,1.33464 -1.23697,1.31835 -1.52994,3.71093 h 8.8216 v -0.22787 q -0.1302,-2.29492 -1.23697,-3.54817 -1.10677,-1.26953 -2.99479,-1.26953 z"
         id="path529" />
      <path
         d="m 586.65139,676.39364 v 4.26432 h 3.28776 v 2.32747 h -3.28776 v 10.92121 q 0,1.05794 0.43945,1.59505 0.43945,0.52083 1.4974,0.52083 0.52083,0 1.43229,-0.19531 v 2.44141 q -1.18815,0.32552 -2.3112,0.32552 -2.01823,0 -3.04362,-1.22071 -1.02539,-1.2207 -1.02539,-3.46679 v -10.92121 h -3.20637 v -2.32747 h 3.20637 v -4.26432 z"
         id="path531" />
      <path
         d="m 596.2868,695.81094 h 10.30272 v 2.45768 h -13.9811 v -2.21354 l 9.71678,-12.90689 h -9.5703 v -2.49023 h 13.34634 v 2.13215 z"
         id="path533" />
      <path
         d="m 617.02246,698.59414 q -3.58073,0 -5.82682,-2.34375 -2.24609,-2.36003 -2.24609,-6.29882 v -0.55339 q 0,-2.62044 0.99283,-4.67122 1.00912,-2.06705 2.79948,-3.22265 1.80664,-1.17188 3.90625,-1.17188 3.43424,0 5.33853,2.26237 1.9043,2.26237 1.9043,6.47786 v 1.25325 h -11.93033 q 0.0651,2.60417 1.51367,4.2155 1.46484,1.59505 3.71094,1.59505 1.59505,0 2.70182,-0.65104 1.10677,-0.65105 1.93684,-1.72526 l 1.83919,1.43229 q -2.21354,3.40169 -6.64061,3.40169 z m -0.37435,-15.78775 q -1.82292,0 -3.0599,1.33464 -1.23697,1.31835 -1.52994,3.71093 h 8.8216 v -0.22787 q -0.1302,-2.29492 -1.23697,-3.54817 -1.10677,-1.26953 -2.99479,-1.26953 z"
         id="path535" />
      <path
         d="m 635.88637,683.35978 q -0.68359,-0.11394 -1.48111,-0.11394 -2.96224,0 -4.02018,2.52279 v 12.49999 h -3.01107 v -17.61066 h 2.92969 l 0.0488,2.0345 q 1.48111,-2.36003 4.19921,-2.36003 0.87891,0 1.33463,0.22787 z"
         id="path537" />
   </g>
</svg>