<?xml version="1.0" encoding="UTF-8" standalone="no"?>
<!-- Generator: Adobe Illustrator 26.3.1, SVG Export Plug-In . SVG Version: 6.00 Build 0)  -->

<svg
   version="1.1"
   x="0px"
   y="0px"
   viewBox="0 0 1024 768"
   style="enable-background:new 0 0 1024 768;"
   xml:space="preserve"
   id="svg428"
   sodipodi:docname="Gesamtansicht2.svg"
   inkscape:version="1.2 (dc2aedaf03, 2022-05-15)"
   xmlns:inkscape="http://www.inkscape.org/namespaces/inkscape"
   xmlns:sodipodi="http://sodipodi.sourceforge.net/DTD/sodipodi-0.dtd"
   xmlns:xlink="http://www.w3.org/1999/xlink"
   xmlns="http://www.w3.org/2000/svg"
   xmlns:svg="http://www.w3.org/2000/svg"><defs
   id="defs432"><rect
     x="133.73134"
     y="104.1194"
     width="243.58208"
     height="40.119403"
     id="rect437" /><rect
     x="122.26866"
     y="99.343284"
     width="237.85075"
     height="54.447761"
     id="rect646" /></defs><sodipodi:namedview
   id="namedview430"
   pagecolor="#ffffff"
   bordercolor="#000000"
   borderopacity="0.25"
   inkscape:showpageshadow="2"
   inkscape:pageopacity="0.0"
   inkscape:pagecheckerboard="0"
   inkscape:deskcolor="#d1d1d1"
   showgrid="false"
   inkscape:zoom="1.046875"
   inkscape:cx="408.83582"
   inkscape:cy="384.47761"
   inkscape:window-width="1920"
   inkscape:window-height="991"
   inkscape:window-x="-9"
   inkscape:window-y="1071"
   inkscape:window-maximized="1"
   inkscape:current-layer="Hochregallager" />
<style
   type="text/css"
   id="style2">
	.st0{fill:none;stroke:#4D4D4D;stroke-width:9;stroke-miterlimit:10;}
	.st1{fill:#97FF9E;stroke:#8CC63F;stroke-width:3;stroke-miterlimit:10;}
	.st2{fill:#4D4D4D;stroke:#333333;stroke-width:3;stroke-miterlimit:10;}
	.st3{fill:#C1282E;stroke:#000000;stroke-miterlimit:10;}
	.st4{fill:none;stroke:#C1272D;stroke-width:3;stroke-miterlimit:10;}
	.st5{fill:#CCCCCC;stroke:#000000;stroke-miterlimit:10;}
	.st6{fill:none;stroke:#666666;stroke-width:3;stroke-miterlimit:10;}
	.st7{fill:#E6E6E6;}
	.st8{fill:#C1272D;stroke:#000000;stroke-miterlimit:10;}
	.st9{fill:#F7F0F1;stroke:#070002;stroke-miterlimit:10;}
	.st10{fill:#0071BC;stroke:#070002;stroke-miterlimit:10;}
	.st11{fill:#ED1C24;stroke:#070002;stroke-miterlimit:10;}
	.st12{fill:#C1272D;stroke:#020002;stroke-miterlimit:10;}
	.st13{fill:#C1282E;stroke:#000000;stroke-width:1;stroke-miterlimit:10;}
	.st14{fill:#A1FFFC;stroke:#00FFFF;stroke-width:3;stroke-miterlimit:10;}
	.st15{fill:#7800BD;stroke:#000000;stroke-miterlimit:10;}
	.st16{fill:#4D4D4D;}
	.st17{fill:#808080;stroke:#000000;stroke-width:2;stroke-miterlimit:10;}
	.st18{fill:#B3B3B3;stroke:#000000;stroke-width:2;stroke-miterlimit:10;}
	.st19{fill:#C1272D;}
	.st20{fill:#EAC7E7;stroke:#FF00FF;stroke-width:2;stroke-miterlimit:10;}
	.st21{fill:#C1272D;stroke:#000000;stroke-width:2;stroke-miterlimit:10;}
	.st22{fill:#F7F0F1;stroke:#000000;stroke-width:2;stroke-miterlimit:10;}
	.st23{fill:#ED1C24;stroke:#000000;stroke-width:2;stroke-miterlimit:10;}
	.st24{fill:#0071BC;stroke:#000000;stroke-width:2;stroke-miterlimit:10.0001;}
	.st25{fill:#FBAE17;stroke:#FBAE17;stroke-width:2;stroke-miterlimit:10;}
	.st26{fill:#BA9074;stroke:#A67C52;stroke-width:3;stroke-miterlimit:10;}
	.st27{fill:#808080;stroke:#000000;stroke-miterlimit:10;}
	.st28{fill:#4D4D4D;stroke:#000000;stroke-miterlimit:10;}
	.st29{fill:#333333;stroke:#000000;stroke-miterlimit:10;}
	.st30{fill:#B3B3B3;stroke:#808080;stroke-width:2;stroke-miterlimit:10;}
	.st31{fill:none;stroke:#000000;stroke-width:2;stroke-miterlimit:10;}
	.st32{fill:#666666;}
	.st33{fill:#B3B3B3;}
	.st34{fill:none;stroke:#4D4D4D;stroke-width:2;stroke-miterlimit:10;}
	.st35{fill:#603813;}
</style>
<g
   id="Ebene_1">
	<path
   class="st0"
   d="M372.3,308.1"
   id="path4" />
	<path
   class="st0"
   d="M373.7,503.2"
   id="path6" />
	<line
   class="st0"
   x1="372.7"
   y1="626.9"
   x2="479.7"
   y2="626.9"
   id="line8" />
	<line
   class="st0"
   x1="374.2"
   y1="290.2"
   x2="486"
   y2="290.2"
   id="line10" />
</g>
<g
   id="Hochregallager">
	<a
   xlink:href="https://neo-ideas.de/IT2/#Hochregal"
   id="a15">
		<rect
   x="114.2"
   y="85.1"
   class="st1"
   width="258.8"
   height="582.9"
   id="rect13" />
	</a>
	<a
   xlink:href="https://neo-ideas.de/IT2/#Hochregal"
   id="a19">
		<rect
   x="223.3"
   y="201.9"
   class="st2"
   width="62.4"
   height="344.4"
   id="rect17" />
	</a>
	<a
   xlink:href="https://neo-ideas.de/IT2/#Hochregal"
   id="a23">
		<rect
   x="145.1"
   y="166.1"
   class="st3"
   width="34.6"
   height="70.6"
   id="rect21" />
	</a>
	<a
   xlink:href="https://neo-ideas.de/IT2/#Hochregal"
   id="a27">
		<rect
   x="126.5"
   y="232.9"
   class="st3"
   width="72.9"
   height="18.1"
   id="rect25" />
	</a>
	<a
   xlink:href="https://neo-ideas.de/IT2/#Hochregal"
   id="a31">
		<rect
   x="126.4"
   y="613.7"
   class="st4"
   width="52.3"
   height="21"
   id="rect29" />
	</a>
	<a
   xlink:href="https://neo-ideas.de/IT2/#Hochregal"
   id="a35">
		<rect
   x="159.2"
   y="251"
   class="st3"
   width="4.7"
   height="360.6"
   id="rect33" />
	</a>
	<a
   xlink:href="https://neo-ideas.de/IT2/#Hochregal"
   id="a39">
		<rect
   x="24.2"
   y="605.7"
   class="st5"
   width="211.7"
   height="34.3"
   id="rect37" />
	</a>
	<a
   xlink:href="https://neo-ideas.de/IT2/#Hochregal"
   id="a43">
		<line
   class="st6"
   x1="224.3"
   y1="325.2"
   x2="285.7"
   y2="324.2"
   id="line41" />
	</a>
	<a
   xlink:href="https://neo-ideas.de/IT2/#Hochregal"
   id="a47">
		<rect
   x="24.7"
   y="617.5"
   class="st7"
   width="209.5"
   height="8.9"
   id="rect45" />
	</a>
	<a
   xlink:href="https://neo-ideas.de/IT2/#Hochregal"
   id="a51">
		<line
   class="st6"
   x1="224.3"
   y1="434.8"
   x2="286.8"
   y2="434.8"
   id="line49" />
	</a>
	<a
   xlink:href="https://neo-ideas.de/IT2/#Hochregal"
   id="a55">
		<rect
   x="122.2"
   y="583.1"
   class="st8"
   width="83.1"
   height="80.1"
   id="rect53" />
	</a>
	<a
   xlink:href="https://neo-ideas.de/IT2/#Hochregal"
   id="a59">
		<ellipse
   class="st9"
   cx="255.2"
   cy="269.2"
   rx="26.5"
   ry="27.1"
   id="ellipse57" />
	</a>
	<a
   xlink:href="https://neo-ideas.de/IT2/#Hochregal"
   id="a63">
		<ellipse
   class="st10"
   cx="253.9"
   cy="495"
   rx="26.5"
   ry="27.1"
   id="ellipse61" />
	</a>
	<a
   xlink:href="https://neo-ideas.de/IT2/#Hochregal"
   id="a67">
		<ellipse
   class="st11"
   cx="254.3"
   cy="380.1"
   rx="26.5"
   ry="27.1"
   id="ellipse65" />
	</a>
	<a
   xlink:href="https://neo-ideas.de/IT2/#Hochregal"
   id="a71">
		<rect
   x="236"
   y="616.2"
   class="st12"
   width="24.7"
   height="15.3"
   id="rect69" />
	</a>
	<a
   xlink:href="https://neo-ideas.de/IT2/#Hochregal"
   id="a75">
		
			<rect
   x="261"
   y="571.3"
   transform="matrix(1 -2.072078e-03 2.072078e-03 1 -1.2691 0.6115)"
   class="st13"
   width="67"
   height="83"
   id="rect73" />
	</a>
	<a
   xlink:href="https://neo-ideas.de/IT2/#Hochregal"
   id="a79">
		
			<rect
   x="260.4"
   y="647.9"
   transform="matrix(1 -2.072078e-03 2.072078e-03 1 -1.3554 0.621)"
   class="st13"
   width="77.1"
   height="13.1"
   id="rect77" />
	</a>
	<a
   xlink:href="https://neo-ideas.de/IT2/#Hochregal"
   id="a83">
		
			<rect
   x="259.1"
   y="565.4"
   transform="matrix(1 -2.072078e-03 2.072078e-03 1 -1.1837 0.6194)"
   class="st13"
   width="78.5"
   height="12.3"
   id="rect81" />
	</a>
</g>
<g
   id="Vakuum-Sauggreifer">
	<a
   xlink:href="https://neo-ideas.de/IT2/#Sauggreifer"
   id="a88">
		<rect
   x="479.5"
   y="363.1"
   class="st14"
   width="185.9"
   height="280.5"
   id="rect86" />
	</a>
	<a
   xlink:href="https://neo-ideas.de/IT2/#Sauggreifer"
   id="a92">
		<path
   class="st0"
   d="M476.7,512.4"
   id="path90" />
	</a>
	<a
   xlink:href="https://neo-ideas.de/IT2/#Sauggreifer"
   id="a96">
		<rect
   x="632.4"
   y="563.5"
   class="st15"
   width="29.9"
   height="51.8"
   id="rect94" />
	</a>
	<a
   xlink:href="https://neo-ideas.de/IT2/#Sauggreifer"
   id="a100">
		<polygon
   class="st16"
   points="572.4,519.3 577.4,512.6 581.3,519.9 587.4,514.1 590,521.9 597,517 598.3,525.1 606,521.4     605.9,529.6 614.1,527 612.7,535.1 621.2,533.7 618.5,541.5 627.2,541.5 623.2,548.7 631.8,550 626.6,556.6 634.9,559.1     628.7,564.8 636.4,568.5 629.4,573.3 636.4,578 628.7,581.7 634.9,587.5 626.6,589.9 631.8,596.5 623.2,597.8 627.2,605     618.5,605 621.2,612.8 612.7,611.4 614.1,619.5 605.9,616.9 606,625.1 598.3,621.4 597,629.5 590,624.6 587.4,632.4 581.3,626.6     577.4,633.9 572.4,627.3 567.3,633.9 563.5,626.6 557.4,632.4 554.8,624.6 547.8,629.5 546.5,621.4 538.8,625.1 538.9,616.9     530.7,619.5 532.1,611.4 523.5,612.8 526.2,605 517.6,605 521.6,597.8 513,596.5 518.1,589.9 509.9,587.5 516.1,581.7 508.3,578     515.3,573.3 508.3,568.5 516.1,564.8 509.9,559.1 518.1,556.6 513,550 521.6,548.7 517.6,541.5 526.2,541.5 523.5,533.7     532.1,535.1 530.7,527 538.9,529.6 538.8,521.4 546.5,525.1 547.8,517 554.8,521.9 557.4,514.1 563.5,519.9 567.3,512.6   "
   id="polygon98" />
	</a>
	<a
   xlink:href="https://neo-ideas.de/IT2/#Sauggreifer"
   id="a104">
		<polygon
   class="st17"
   points="641.2,587.6 550.6,641 503.4,557.5 594,504.1   "
   id="polygon102" />
	</a>
	<a
   xlink:href="https://neo-ideas.de/IT2/#Sauggreifer"
   id="a108">
		<polygon
   class="st18"
   points="662.6,663.4 639.1,682.3 405.4,379.6 428.8,360.8   "
   id="polygon106" />
	</a>
	<a
   xlink:href="https://neo-ideas.de/IT2/#Sauggreifer"
   id="a112">
		<polygon
   class="st7"
   points="655.5,668.5 646,676.1 414,375.7 423.5,368.2   "
   id="polygon110" />
	</a>
	<a
   xlink:href="https://neo-ideas.de/IT2/#Sauggreifer"
   id="a116">
		<polygon
   class="st8"
   points="447.7,351.2 392.4,395.5 405.6,412.5 460.8,368.3   "
   id="polygon114" />
	</a>
	<polygon
   class="st19"
   points="654.1,642.5 623.1,667.4 636.1,684.5 667.3,659.5  "
   id="polygon118" />
</g>
<g
   id="Sortierstrecke">
	<a
   xlink:href="https://neo-ideas.de/IT2/#Sortier"
   id="a123">
		<rect
   x="712.2"
   y="344.7"
   class="st20"
   width="261.6"
   height="381.6"
   id="rect121" />
	</a>
	<a
   xlink:href="https://neo-ideas.de/IT2/#Sortier"
   id="a127">
		<polygon
   class="st18"
   points="856,578.5 775.9,578.5 775.8,550.5 855.9,550.6   "
   id="polygon125" />
	</a>
	<a
   xlink:href="https://neo-ideas.de/IT2/#Sortier"
   id="a131">
		<polygon
   class="st21"
   points="776.3,695.3 743.5,695.3 743,530.7 775.7,530.7   "
   id="polygon129" />
	</a>
	<a
   xlink:href="https://neo-ideas.de/IT2/#Sortier"
   id="a135">
		
			<ellipse
   transform="matrix(1.342764e-03 -1 1 1.342764e-03 193.5322 1322.9286)"
   class="st22"
   cx="759.1"
   cy="564.6"
   rx="9.9"
   ry="9.6"
   id="ellipse133" />
	</a>
	<a
   xlink:href="https://neo-ideas.de/IT2/#Sortier"
   id="a139">
		<ellipse
   class="st23"
   cx="759.7"
   cy="619.1"
   rx="9.6"
   ry="9.9"
   id="ellipse137" />
	</a>
	<a
   xlink:href="https://neo-ideas.de/IT2/#Sortier"
   id="a143">
		
			<ellipse
   transform="matrix(3.272346e-03 -1 1 3.272346e-03 82.443 1432.6293)"
   class="st24"
   cx="759.9"
   cy="675"
   rx="9.9"
   ry="9.5"
   id="ellipse141" />
	</a>
	<a
   xlink:href="https://neo-ideas.de/IT2/#Sortier"
   id="a147">
		<polygon
   class="st18"
   points="856.3,633.7 776.2,633.6 776.1,605.7 856.2,605.8   "
   id="polygon145" />
	</a>
	<a
   xlink:href="https://neo-ideas.de/IT2/#Sortier"
   id="a151">
		<polygon
   class="st18"
   points="856.3,689.3 776.2,689.3 776.1,661.3 856.2,661.4   "
   id="polygon149" />
	</a>
	<a
   xlink:href="https://neo-ideas.de/IT2/#Sortier"
   id="a155">
		<polygon
   class="st21"
   points="776,600.8 776,585.4 789.3,585.5 789.2,600.8   "
   id="polygon153" />
	</a>
	<a
   xlink:href="https://neo-ideas.de/IT2/#Sortier"
   id="a159">
		<polygon
   class="st21"
   points="775.8,546.1 775.8,535.2 788.9,535.3 788.9,546.1   "
   id="polygon157" />
	</a>
	<a
   xlink:href="https://neo-ideas.de/IT2/#Sortier"
   id="a163">
		<polygon
   class="st25"
   points="778.5,594.9 778.5,591.3 786.8,591.4 786.7,595   "
   id="polygon161" />
	</a>
	<a
   xlink:href="https://neo-ideas.de/IT2/#Sortier"
   id="a167">
		<polygon
   class="st25"
   points="778.3,541.4 778.3,539.1 786.4,539.1 786.4,541.5   "
   id="polygon165" />
	</a>
	<a
   xlink:href="https://neo-ideas.de/IT2/#Sortier"
   id="a171">
		<polygon
   class="st21"
   points="776.1,654.6 776.2,639.3 789.4,639.3 789.4,654.7   "
   id="polygon169" />
	</a>
	<a
   xlink:href="https://neo-ideas.de/IT2/#Sortier"
   id="a175">
		<polygon
   class="st25"
   points="778.7,648.8 778.7,645.2 786.8,645.2 786.8,648.8   "
   id="polygon173" />
	</a>
</g>
<g
   id="Brennofen_mit_Bohrstation">
	<a
   xlink:href="https://neo-ideas.de/IT2/#Brennofen"
   id="a180">
		<rect
   x="487.6"
   y="50.2"
   class="st26"
   width="490"
   height="251.9"
   id="rect178" />
	</a>
	<path
   class="st0"
   d="M483.9,294.2"
   id="path182" />
	<path
   class="st0"
   d="M374.3,294.2"
   id="path184" />
	<a
   xlink:href="https://neo-ideas.de/IT2/#Brennofen"
   id="a188">
		<rect
   x="573.2"
   y="268.1"
   class="st3"
   width="270.4"
   height="4.8"
   id="rect186" />
	</a>
	<a
   xlink:href="https://neo-ideas.de/IT2/#Brennofen"
   id="a192">
		<rect
   x="550.2"
   y="225.2"
   class="st3"
   width="52"
   height="29.6"
   id="rect190" />
	</a>
	<a
   xlink:href="https://neo-ideas.de/IT2/#Brennofen"
   id="a196">
		<rect
   x="546"
   y="224.9"
   class="st3"
   width="8.2"
   height="34.1"
   id="rect194" />
	</a>
	<a
   xlink:href="https://neo-ideas.de/IT2/#Brennofen"
   id="a200">
		<rect
   x="598.2"
   y="224.4"
   class="st3"
   width="7.7"
   height="34.7"
   id="rect198" />
	</a>
	<a
   xlink:href="https://neo-ideas.de/IT2/#Brennofen"
   id="a204">
		<rect
   x="756.6"
   y="244.4"
   class="st8"
   width="48"
   height="46.1"
   id="rect202" />
	</a>
	<a
   xlink:href="https://neo-ideas.de/IT2/#Brennofen"
   id="a208">
		<rect
   x="505.9"
   y="116.3"
   class="st27"
   width="200"
   height="109.1"
   id="rect206" />
	</a>
	<a
   xlink:href="https://neo-ideas.de/IT2/#Brennofen"
   id="a212">
		<rect
   x="526.6"
   y="132.2"
   class="st28"
   width="158.1"
   height="77.1"
   id="rect210" />
	</a>
	<a
   xlink:href="https://neo-ideas.de/IT2/#Brennofen"
   id="a216">
		<rect
   x="546.2"
   y="134.1"
   class="st29"
   width="10.5"
   height="73.2"
   id="rect214" />
	</a>
	<a
   xlink:href="https://neo-ideas.de/IT2/#Brennofen"
   id="a220">
		<rect
   x="653.6"
   y="134.3"
   class="st29"
   width="10.5"
   height="73.2"
   id="rect218" />
	</a>
	<a
   xlink:href="https://neo-ideas.de/IT2/#Brennofen"
   id="a224">
		<rect
   x="600.2"
   y="134.3"
   class="st29"
   width="10.5"
   height="73.2"
   id="rect222" />
	</a>
	<a
   xlink:href="https://neo-ideas.de/IT2/#Brennofen"
   id="a228">
		<rect
   x="546.6"
   y="134.5"
   class="st19"
   width="9.6"
   height="2.9"
   id="rect226" />
	</a>
	<a
   xlink:href="https://neo-ideas.de/IT2/#Brennofen"
   id="a232">
		<rect
   x="653.9"
   y="204.6"
   class="st19"
   width="9.8"
   height="2.6"
   id="rect230" />
	</a>
	<a
   xlink:href="https://neo-ideas.de/IT2/#Brennofen"
   id="a236">
		<rect
   x="653.8"
   y="134.6"
   class="st19"
   width="10"
   height="2.9"
   id="rect234" />
	</a>
	<a
   xlink:href="https://neo-ideas.de/IT2/#Brennofen"
   id="a240">
		<rect
   x="600.4"
   y="204.6"
   class="st19"
   width="9.9"
   height="2.7"
   id="rect238" />
	</a>
	<a
   xlink:href="https://neo-ideas.de/IT2/#Brennofen"
   id="a244">
		<rect
   x="600.7"
   y="134.4"
   class="st19"
   width="9.5"
   height="2.8"
   id="rect242" />
	</a>
	<a
   xlink:href="https://neo-ideas.de/IT2/#Brennofen"
   id="a248">
		<rect
   x="546.5"
   y="204"
   class="st19"
   width="9.9"
   height="2.9"
   id="rect246" />
	</a>
	<a
   xlink:href="https://neo-ideas.de/IT2/#Brennofen"
   id="a252">
		
			<rect
   x="573.1"
   y="254.9"
   transform="matrix(1 -7.439148e-03 7.439148e-03 1 -1.9473 4.2888)"
   class="st3"
   width="4.8"
   height="18"
   id="rect250" />
	</a>
	<a
   xlink:href="https://neo-ideas.de/IT2/#Brennofen"
   id="a256">
		<polygon
   class="st30"
   points="780,174.1 782.3,172.1 783.9,174.7 786.7,173.5 787.4,176.5 790.4,176.3 790.2,179.3 793.2,180.1     792,182.9 794.6,184.5 792.6,186.9 794.6,189.2 792,190.8 793.2,193.6 790.2,194.4 790.4,197.4 787.4,197.3 786.7,200.2     783.9,199 782.3,201.7 780,199.7 777.6,201.7 776,199 773.2,200.2 772.5,197.3 769.5,197.4 769.7,194.4 766.8,193.6 768,190.8     765.4,189.2 767.3,186.9 765.4,184.5 768,182.9 766.8,180.1 769.7,179.3 769.5,176.3 772.5,176.5 773.2,173.5 776,174.7     777.6,172.1   "
   id="polygon254" />
	</a>
	<a
   xlink:href="https://neo-ideas.de/IT2/#Brennofen"
   id="a260">
		<rect
   x="765.8"
   y="122.4"
   class="st28"
   width="30.5"
   height="27.7"
   id="rect258" />
	</a>
	<a
   xlink:href="https://neo-ideas.de/IT2/#Brennofen"
   id="a264">
		<line
   class="st31"
   x1="779.8"
   y1="189"
   x2="779.8"
   y2="150.6"
   id="line262" />
	</a>
	<a
   xlink:href="https://neo-ideas.de/IT2/#Brennofen"
   id="a268">
		<rect
   x="765.8"
   y="78.4"
   class="st15"
   width="30.5"
   height="44.2"
   id="rect266" />
	</a>
	<a
   xlink:href="https://neo-ideas.de/IT2/#Brennofen"
   id="a272">
		<rect
   x="796.3"
   y="78.4"
   class="st28"
   width="82.1"
   height="44.2"
   id="rect270" />
	</a>
</g>
<g
   id="Förderband">
	<a
   xlink:href="https://neo-ideas.de/IT2/#Sortier"
   id="a277">
		<polygon
   points="856.3,674.9 856.2,689.3 899.8,689.5 899.8,675.1   "
   id="polygon275" />
	</a>
	<a
   xlink:href="https://neo-ideas.de/IT2/#Sortier"
   id="a281">
		<polygon
   class="st32"
   points="856.3,660.5 856.3,674.9 899.8,675.1 899.8,660.8   "
   id="polygon279" />
	</a>
	<a
   xlink:href="https://neo-ideas.de/IT2/#Sortier"
   id="a285">
		<polygon
   class="st33"
   points="856.3,646.1 856.3,660.5 899.8,660.8 899.9,646.3   "
   id="polygon283" />
	</a>
	<a
   xlink:href="https://neo-ideas.de/IT2/#Sortier"
   id="a289">
		<polygon
   points="856.3,631.8 856.3,646.1 899.9,646.3 899.9,631.9   "
   id="polygon287" />
	</a>
	<a
   xlink:href="https://neo-ideas.de/IT2/#Sortier"
   id="a293">
		<polygon
   class="st32"
   points="856.4,617.3 856.3,631.8 899.9,631.9 899.9,617.5   "
   id="polygon291" />
	</a>
	<a
   xlink:href="https://neo-ideas.de/IT2/#Sortier"
   id="a297">
		<polygon
   class="st33"
   points="856.4,602.9 856.4,617.3 899.9,617.5 900,603.1   "
   id="polygon295" />
	</a>
	<a
   xlink:href="https://neo-ideas.de/IT2/#Sortier"
   id="a301">
		<polygon
   points="856.4,588.5 856.4,602.9 900,603.1 900,588.8   "
   id="polygon299" />
	</a>
	<a
   xlink:href="https://neo-ideas.de/IT2/#Sortier"
   id="a305">
		<polygon
   class="st32"
   points="856.5,574.1 856.4,588.5 900,588.8 900,574.3   "
   id="polygon303" />
	</a>
	<a
   xlink:href="https://neo-ideas.de/IT2/#Sortier"
   id="a309">
		<polygon
   class="st33"
   points="856.5,559.8 856.5,574.1 900,574.3 900,559.9   "
   id="polygon307" />
	</a>
	<a
   xlink:href="https://neo-ideas.de/IT2/#Sortier"
   id="a313">
		<polygon
   points="856.5,545.3 856.5,559.8 900,559.9 900.1,545.5   "
   id="polygon311" />
	</a>
	<a
   xlink:href="https://neo-ideas.de/IT2/#Sortier"
   id="a317">
		<polygon
   class="st32"
   points="856.5,530.9 856.5,545.3 900.1,545.5 900.1,531.1   "
   id="polygon315" />
	</a>
	<a
   xlink:href="https://neo-ideas.de/IT2/#Sortier"
   id="a321">
		<polygon
   class="st33"
   points="856.6,516.5 856.5,530.9 900.1,531.1 900.1,516.8   "
   id="polygon319" />
	</a>
	<a
   xlink:href="https://neo-ideas.de/IT2/#Sortier"
   id="a325">
		<polygon
   points="856.6,502.1 856.5,516.5 900.1,516.8 900.1,502.4   "
   id="polygon323" />
	</a>
	<a
   xlink:href="https://neo-ideas.de/IT2/#Sortier"
   id="a329">
		<polygon
   class="st32"
   points="856.6,487.8 856.6,502.1 900.1,502.4 900.1,488   "
   id="polygon327" />
	</a>
	<a
   xlink:href="https://neo-ideas.de/IT2/#Sortier"
   id="a333">
		<polygon
   class="st33"
   points="856.6,473.4 856.6,487.8 900.1,488 900.2,473.6   "
   id="polygon331" />
	</a>
	<a
   xlink:href="https://neo-ideas.de/IT2/#Sortier"
   id="a337">
		<polygon
   points="856.6,459 856.6,473.4 900.2,473.6 900.2,459.1   "
   id="polygon335" />
	</a>
	<a
   xlink:href="https://neo-ideas.de/IT2/#Sortier"
   id="a341">
		<polygon
   class="st32"
   points="856.7,444.6 856.6,459 900.2,459.1 900.2,444.8   "
   id="polygon339" />
	</a>
	<a
   xlink:href="https://neo-ideas.de/IT2/#Sortier"
   id="a345">
		<polygon
   class="st33"
   points="856.7,430.1 856.7,444.6 900.2,444.8 900.3,430.4   "
   id="polygon343" />
	</a>
	<a
   xlink:href="https://neo-ideas.de/IT2/#Sortier"
   id="a349">
		<polygon
   points="856.7,415.6 856.7,430.1 900.3,430.2 900.3,415.9   "
   id="polygon347" />
	</a>
	<a
   xlink:href="https://neo-ideas.de/IT2/#Sortier"
   id="a353">
		<polygon
   class="st32"
   points="856.8,401.2 856.7,415.6 900.3,415.9 900.3,401.5   "
   id="polygon351" />
	</a>
	<a
   xlink:href="https://neo-ideas.de/IT2/#Sortier"
   id="a357">
		<polygon
   class="st33"
   points="856.8,386.9 856.8,401.2 900.3,401.5 900.3,387.1   "
   id="polygon355" />
	</a>
	<a
   xlink:href="https://neo-ideas.de/IT2/#Sortier"
   id="a361">
		<polygon
   points="856.8,372.5 856.8,386.9 900.4,387.1 900.4,372.8   "
   id="polygon359" />
	</a>
	<a
   xlink:href="https://neo-ideas.de/IT2/#Sortier"
   id="a365">
		<polygon
   class="st32"
   points="856.9,358.1 856.8,372.5 900.4,372.8 900.4,358.4   "
   id="polygon363" />
	</a>
	<a
   xlink:href="https://neo-ideas.de/IT2/#Sortier"
   id="a369">
		<polygon
   class="st33"
   points="856.9,343.8 856.9,358.1 900.4,358.4 900.5,344   "
   id="polygon367" />
	</a>
	<a
   xlink:href="https://neo-ideas.de/IT2/#Sortier"
   id="a373">
		<polygon
   points="857.2,329.6 857.2,344.1 900.8,344.2 900.8,329.9   "
   id="polygon371" />
	</a>
	<polygon
   class="st32"
   points="857.3,315.2 857.2,329.6 900.8,329.9 900.8,315.5  "
   id="polygon375" />
	<a
   xlink:href="https://neo-ideas.de/IT2/#Brennofen"
   id="a379">
		<polygon
   class="st33"
   points="857.3,300.9 857.3,315.2 900.8,315.5 900.8,301.1   "
   id="polygon377" />
	</a>
	<a
   xlink:href="https://neo-ideas.de/IT2/#Brennofen"
   id="a383">
		<polygon
   points="857.3,286.5 857.3,300.9 900.8,301.1 900.9,286.6   "
   id="polygon381" />
	</a>
	<a
   xlink:href="https://neo-ideas.de/IT2/#Brennofen"
   id="a387">
		<polygon
   class="st32"
   points="857.4,272.1 857.3,286.5 900.9,286.6 900.9,272.2   "
   id="polygon385" />
	</a>
	<a
   xlink:href="https://neo-ideas.de/IT2/#Brennofen"
   id="a391">
		<polygon
   class="st33"
   points="857.4,257.6 857.4,272.1 900.9,272.2 900.9,257.9   "
   id="polygon389" />
	</a>
	<a
   xlink:href="https://neo-ideas.de/IT2/#Brennofen"
   id="a395">
		<polygon
   points="857.4,243.2 857.4,257.6 900.9,257.9 901,243.5   "
   id="polygon393" />
	</a>
	<a
   xlink:href="https://neo-ideas.de/IT2/#Brennofen"
   id="a399">
		<polygon
   class="st32"
   points="857.4,228.9 857.4,243.2 901,243.5 901,229.1   "
   id="polygon397" />
	</a>
	<a
   xlink:href="https://neo-ideas.de/IT2/#Brennofen"
   id="a403">
		<polygon
   class="st33"
   points="857.5,214.5 857.4,228.9 901,229.1 901,214.7   "
   id="polygon401" />
	</a>
	<a
   xlink:href="https://neo-ideas.de/IT2/#Brennofen"
   id="a407">
		<polygon
   points="857.5,200.1 857.5,214.5 901,214.7 901,200.2   "
   id="polygon405" />
	</a>
	<a
   xlink:href="https://neo-ideas.de/IT2/#Brennofen"
   id="a411">
		<polygon
   class="st32"
   points="857.5,185.7 857.5,200.1 901,200.2 901.1,185.9   "
   id="polygon409" />
	</a>
	<polygon
   class="st34"
   points="856,689.3 857.3,186.1 901.2,186.2 900,689.5  "
   id="polygon413" />
	<a
   xlink:href="https://neo-ideas.de/IT2/#Sortier"
   id="a417">
		<polygon
   class="st21"
   points="918,503.2 838.9,503.1 838.5,385.5 917.5,385.6   "
   id="polygon415" />
	</a>
	<a
   xlink:href="https://neo-ideas.de/IT2/#Sortier"
   id="a421">
		<polygon
   class="st35"
   points="838,450.8 838,434.6 918.5,435 918.5,451.2   "
   id="polygon419" />
	</a>
	<a
   xlink:href="https://neo-ideas.de/IT2/#Brennofen"
   id="a425">
		<rect
   x="843.7"
   y="206.7"
   class="st8"
   width="69.7"
   height="69.3"
   id="rect423" />
	</a>
</g>
</svg>
