<?xml version="1.0" encoding="UTF-8" standalone="no"?>
<!-- Generator: Adobe Illustrator 26.3.1, SVG Export Plug-In . SVG Version: 6.00 Build 0)  -->

<svg
   version="1.1"
   x="0px"
   y="0px"
   viewBox="0 0 1024 768"
   style="enable-background:new 0 0 1024 768;"
   xml:space="preserve"
   id="svg535"
   sodipodi:docname="Gesamtansicht.svg"
   inkscape:version="1.2 (dc2aedaf03, 2022-05-15)"
   xmlns:inkscape="http://www.inkscape.org/namespaces/inkscape"
   xmlns:sodipodi="http://sodipodi.sourceforge.net/DTD/sodipodi-0.dtd"
   xmlns="http://www.w3.org/2000/svg"
   xmlns:svg="http://www.w3.org/2000/svg"><defs
   id="defs539" /><sodipodi:namedview
   id="namedview537"
   pagecolor="#ffffff"
   bordercolor="#000000"
   borderopacity="0.25"
   inkscape:showpageshadow="2"
   inkscape:pageopacity="0.0"
   inkscape:pagecheckerboard="0"
   inkscape:deskcolor="#d1d1d1"
   showgrid="false"
   inkscape:zoom="1.046875"
   inkscape:cx="477.61194"
   inkscape:cy="384.47761"
   inkscape:window-width="1920"
   inkscape:window-height="991"
   inkscape:window-x="-9"
   inkscape:window-y="-9"
   inkscape:window-maximized="1"
   inkscape:current-layer="svg535" />
<style
   type="text/css"
   id="style311">
	.gesamtansicht_st0{fill:none;stroke:#4D4D4D;stroke-width:9;stroke-miterlimit:10;}
	.gesamtansicht_st1{fill:#97FF9E;stroke:#8CC63F;stroke-width:3;stroke-miterlimit:10;}
	.gesamtansicht_st2{fill:#4D4D4D;stroke:#333333;stroke-width:3;stroke-miterlimit:10;}
	.gesamtansicht_st3{fill:#C1282E;stroke:#000000;stroke-miterlimit:10;}
	.gesamtansicht_st4{fill:none;stroke:#C1272D;stroke-width:3;stroke-miterlimit:10;}
	.gesamtansicht_st5{fill:#CCCCCC;stroke:#000000;stroke-miterlimit:10;}
	.gesamtansicht_st6{fill:none;stroke:#666666;stroke-width:3;stroke-miterlimit:10;}
	.gesamtansicht_st7{fill:#E6E6E6;}
	.gesamtansicht_st8{fill:#C1272D;stroke:#000000;stroke-miterlimit:10;}
	.gesamtansicht_st9{fill:#F7F0F1;stroke:#070002;stroke-miterlimit:10;}
	.gesamtansicht_st10{fill:none;}
	.gesamtansicht_st11{font-family:'Roboto-Bold';}
	.gesamtansicht_st12{font-size:21.4655px;}
	.gesamtansicht_st13{fill:#0071BC;stroke:#070002;stroke-miterlimit:10;}
	.gesamtansicht_st14{fill:#ED1C24;stroke:#070002;stroke-miterlimit:10;}
	.gesamtansicht_st15{fill:#C1272D;stroke:#020002;stroke-miterlimit:10;}
	.gesamtansicht_st16{fill:#C1282E;stroke:#000000;stroke-width:1;stroke-miterlimit:10;}
	.gesamtansicht_st17{fill:#A1FFFC;stroke:#00FFFF;stroke-width:3;stroke-miterlimit:10;}
	.gesamtansicht_st18{fill:#7800BD;stroke:#000000;stroke-miterlimit:10;}
	.gesamtansicht_st19{fill:#4D4D4D;}
	.gesamtansicht_st20{fill:#808080;stroke:#000000;stroke-width:2;stroke-miterlimit:10;}
	.gesamtansicht_st21{fill:#B3B3B3;stroke:#000000;stroke-width:2;stroke-miterlimit:10;}
	.gesamtansicht_st22{fill:#C1272D;}
	.gesamtansicht_st23{fill:#EAC7E7;stroke:#FF00FF;stroke-width:2;stroke-miterlimit:10;}
	.gesamtansicht_st24{font-size:34.5769px;glyph-orientation-vertical:0;writing-mode:tb;}
	.gesamtansicht_st25{fill:#C1272D;stroke:#000000;stroke-width:2;stroke-miterlimit:10;}
	.gesamtansicht_st26{fill:#F7F0F1;stroke:#000000;stroke-width:2;stroke-miterlimit:10;}
	.gesamtansicht_st27{fill:#ED1C24;stroke:#000000;stroke-width:2;stroke-miterlimit:10;}
	.gesamtansicht_st28{fill:#0071BC;stroke:#000000;stroke-width:2;stroke-miterlimit:10.0001;}
	.gesamtansicht_st29{fill:#FBAE17;stroke:#FBAE17;stroke-width:2;stroke-miterlimit:10;}
	.gesamtansicht_st30{fill:#BA9074;stroke:#A67C52;stroke-width:3;stroke-miterlimit:10;}
	.gesamtansicht_st31{fill:#CDCCCC;stroke:#CCCCCC;stroke-width:2;stroke-miterlimit:10;}
	.gesamtansicht_st32{fill:none;stroke:#4D4D4D;stroke-width:2;stroke-miterlimit:10;}
	.gesamtansicht_st33{fill:#4D4D4D;stroke:#000000;stroke-width:2;stroke-miterlimit:10;}
	.gesamtansicht_st34{fill:#676766;stroke:#000000;stroke-miterlimit:10;}
	.gesamtansicht_st35{fill:#666666;}
	.gesamtansicht_st36{fill:#B3B3B3;}
	.gesamtansicht_st37{fill:#603813;}
</style>
<g
   id="Ebene_1">
	<path
   class="gesamtansicht_st0"
   d="M372.3,308.1"
   id="path313" />
	<path
   class="gesamtansicht_st0"
   d="M373.7,503.2"
   id="path315" />
	<line
   class="gesamtansicht_st0"
   x1="372.7"
   y1="626.9"
   x2="479.7"
   y2="626.9"
   id="line317" />
	<line
   class="gesamtansicht_st0"
   x1="374.2"
   y1="290.2"
   x2="483.8"
   y2="290.2"
   id="line319" />
</g>
<g
   id="Hochregallager">
	<rect
   x="114.2"
   y="85.1"
   class="gesamtansicht_st1"
   width="258.8"
   height="582.9"
   id="rect322" />
	<rect
   x="223.3"
   y="201.9"
   class="gesamtansicht_st2"
   width="62.4"
   height="344.4"
   id="rect324" />
	<rect
   x="145.1"
   y="166.1"
   class="gesamtansicht_st3"
   width="34.6"
   height="70.6"
   id="rect326" />
	<rect
   x="126.5"
   y="232.9"
   class="gesamtansicht_st3"
   width="72.9"
   height="18.1"
   id="rect328" />
	<rect
   x="126.4"
   y="613.7"
   class="gesamtansicht_st4"
   width="52.3"
   height="21"
   id="rect330" />
	<rect
   x="159.2"
   y="251"
   class="gesamtansicht_st3"
   width="4.7"
   height="360.6"
   id="rect332" />
	<rect
   x="24.2"
   y="605.7"
   class="gesamtansicht_st5"
   width="211.7"
   height="34.3"
   id="rect334" />
	<line
   class="gesamtansicht_st6"
   x1="224.3"
   y1="325.2"
   x2="285.7"
   y2="324.2"
   id="line336" />
	<rect
   x="24.7"
   y="617.5"
   class="gesamtansicht_st7"
   width="209.5"
   height="8.9"
   id="rect338" />
	<line
   class="gesamtansicht_st6"
   x1="224.3"
   y1="434.8"
   x2="286.8"
   y2="434.8"
   id="line340" />
	<rect
   x="122.2"
   y="583.1"
   class="gesamtansicht_st8"
   width="83.1"
   height="80.1"
   id="rect342" />
	<ellipse
   class="gesamtansicht_st9"
   cx="255.2"
   cy="269.2"
   rx="26.5"
   ry="27.1"
   id="ellipse344" />
	<rect
   x="126"
   y="101.3"
   class="gesamtansicht_st10"
   width="235.2"
   height="47.7"
   id="rect346" />
	
	<ellipse
   class="gesamtansicht_st13"
   cx="253.9"
   cy="495"
   rx="26.5"
   ry="27.1"
   id="ellipse350" />
	<ellipse
   class="gesamtansicht_st14"
   cx="254.3"
   cy="380.1"
   rx="26.5"
   ry="27.1"
   id="ellipse352" />
	<rect
   x="236"
   y="616.2"
   class="gesamtansicht_st15"
   width="24.7"
   height="15.3"
   id="rect354" />
	<rect
   x="261"
   y="571.3"
   transform="matrix(1 -2.072078e-03 2.072078e-03 1 -1.2691 0.6115)"
   class="gesamtansicht_st16"
   width="67"
   height="83"
   id="rect356" />
	
		<rect
   x="260.4"
   y="647.9"
   transform="matrix(1 -2.072078e-03 2.072078e-03 1 -1.3554 0.621)"
   class="gesamtansicht_st16"
   width="77.1"
   height="13.1"
   id="rect358" />
	
		<rect
   x="259.1"
   y="565.4"
   transform="matrix(1 -2.072078e-03 2.072078e-03 1 -1.1837 0.6194)"
   class="gesamtansicht_st16"
   width="78.5"
   height="12.3"
   id="rect360" />
</g>
<g
   id="Vakuum-Sauggreifer">
	<rect
   x="479.5"
   y="363.1"
   class="gesamtansicht_st17"
   width="185.9"
   height="280.5"
   id="rect363" />
	<path
   class="gesamtansicht_st0"
   d="M476.7,512.4"
   id="path365" />
	<rect
   x="632.4"
   y="563.5"
   class="gesamtansicht_st18"
   width="29.9"
   height="51.8"
   id="rect367" />
	<polygon
   class="gesamtansicht_st19"
   points="572.4,519.3 577.4,512.6 581.3,519.9 587.4,514.1 590,521.9 597,517 598.3,525.1 606,521.4    605.9,529.6 614.1,527 612.7,535.1 621.2,533.7 618.5,541.5 627.2,541.5 623.2,548.7 631.8,550 626.6,556.6 634.9,559.1    628.7,564.8 636.4,568.5 629.4,573.3 636.4,578 628.7,581.7 634.9,587.5 626.6,589.9 631.8,596.5 623.2,597.8 627.2,605 618.5,605    621.2,612.8 612.7,611.4 614.1,619.5 605.9,616.9 606,625.1 598.3,621.4 597,629.5 590,624.6 587.4,632.4 581.3,626.6 577.4,633.9    572.4,627.3 567.3,633.9 563.5,626.6 557.4,632.4 554.8,624.6 547.8,629.5 546.5,621.4 538.8,625.1 538.9,616.9 530.7,619.5    532.1,611.4 523.5,612.8 526.2,605 517.6,605 521.6,597.8 513,596.5 518.1,589.9 509.9,587.5 516.1,581.7 508.3,578 515.3,573.3    508.3,568.5 516.1,564.8 509.9,559.1 518.1,556.6 513,550 521.6,548.7 517.6,541.5 526.2,541.5 523.5,533.7 532.1,535.1 530.7,527    538.9,529.6 538.8,521.4 546.5,525.1 547.8,517 554.8,521.9 557.4,514.1 563.5,519.9 567.3,512.6  "
   id="polygon369" />
	<polygon
   class="gesamtansicht_st20"
   points="641.2,587.6 550.6,641 503.4,557.5 594,504.1  "
   id="polygon371" />
	<polygon
   class="gesamtansicht_st21"
   points="662.6,663.4 639.1,682.3 405.4,379.6 428.8,360.8  "
   id="polygon373" />
	<rect
   x="486"
   y="375.5"
   class="gesamtansicht_st10"
   width="173.8"
   height="68.7"
   id="rect375" />
	
	
	<polygon
   class="gesamtansicht_st7"
   points="655.5,668.5 646,676.1 414,375.7 423.5,368.2  "
   id="polygon381" />
	<polygon
   class="gesamtansicht_st8"
   points="447.7,351.2 392.4,395.5 405.6,412.5 460.8,368.3  "
   id="polygon383" />
	<polygon
   class="gesamtansicht_st22"
   points="654.1,642.5 623.1,667.4 636.1,684.5 667.3,659.5  "
   id="polygon385" />
</g>
<g
   id="Sortierstrecke">
	<rect
   x="712.2"
   y="344.7"
   class="gesamtansicht_st23"
   width="261.6"
   height="381.6"
   id="rect388" />
	
	<polygon
   class="gesamtansicht_st21"
   points="856,578.5 775.9,578.5 775.8,550.5 855.9,550.6  "
   id="polygon392" />
	<polygon
   class="gesamtansicht_st25"
   points="776.3,695.3 743.5,695.3 743,530.7 775.7,530.7  "
   id="polygon394" />
	
		<ellipse
   transform="matrix(1.342764e-03 -1 1 1.342764e-03 193.5322 1322.9286)"
   class="gesamtansicht_st26"
   cx="759.1"
   cy="564.6"
   rx="9.9"
   ry="9.6"
   id="ellipse396" />
	<ellipse
   class="gesamtansicht_st27"
   cx="759.7"
   cy="619.1"
   rx="9.6"
   ry="9.9"
   id="ellipse398" />
	
		<ellipse
   transform="matrix(3.272346e-03 -1 1 3.272346e-03 82.443 1432.6293)"
   class="gesamtansicht_st28"
   cx="759.9"
   cy="675"
   rx="9.9"
   ry="9.5"
   id="ellipse400" />
	<polygon
   class="gesamtansicht_st21"
   points="856.3,633.7 776.2,633.6 776.1,605.7 856.2,605.8  "
   id="polygon402" />
	<polygon
   class="gesamtansicht_st21"
   points="856.3,689.3 776.2,689.3 776.1,661.3 856.2,661.4  "
   id="polygon404" />
	<polygon
   class="gesamtansicht_st25"
   points="776,600.8 776,585.4 789.3,585.5 789.2,600.8  "
   id="polygon406" />
	<polygon
   class="gesamtansicht_st25"
   points="775.8,546.1 775.8,535.2 788.9,535.3 788.9,546.1  "
   id="polygon408" />
	<polygon
   class="gesamtansicht_st29"
   points="778.5,594.9 778.5,591.3 786.8,591.4 786.7,595  "
   id="polygon410" />
	<polygon
   class="gesamtansicht_st29"
   points="778.3,541.4 778.3,539.1 786.4,539.1 786.4,541.5  "
   id="polygon412" />
	<polygon
   class="gesamtansicht_st25"
   points="776.1,654.6 776.2,639.3 789.4,639.3 789.4,654.7  "
   id="polygon414" />
	<polygon
   class="gesamtansicht_st29"
   points="778.7,648.8 778.7,645.2 786.8,645.2 786.8,648.8  "
   id="polygon416" />
</g>
<g
   id="Brennofen_mit_Bohrstation">
	<rect
   x="481.8"
   y="44.5"
   class="gesamtansicht_st30"
   width="490"
   height="251.9"
   id="rect419" />
	<path
   class="gesamtansicht_st0"
   d="M483.9,294.2"
   id="path421" />
	<path
   class="gesamtansicht_st0"
   d="M374.3,294.2"
   id="path423" />
	<polygon
   class="gesamtansicht_st31"
   points="779.2,185.3 782.4,182.6 784.6,186.2 788.5,184.6 789.5,188.6 793.5,188.3 793.3,192.5 797.3,193.5    795.8,197.4 799.3,199.6 796.6,202.9 799.3,206 795.8,208.2 797.3,212.1 793.3,213.1 793.5,217.3 789.5,217 788.5,221 784.6,219.4    782.4,223.1 779.2,220.3 776,223.1 773.7,219.4 770,221 769,217 764.8,217.3 765,213.1 761.1,212.1 762.7,208.2 759.1,206    761.8,202.9 759.1,199.6 762.7,197.4 761.1,193.5 765,192.5 764.8,188.3 769,188.6 770,184.6 773.7,186.2 776,182.6  "
   id="polygon425" />
	<rect
   x="559.3"
   y="58.8"
   class="gesamtansicht_st10"
   width="323.3"
   height="47.7"
   id="rect427" />
	
	<line
   class="gesamtansicht_st32"
   x1="779.6"
   y1="204.4"
   x2="780.4"
   y2="162.1"
   id="line431" />
	<rect
   x="736.5"
   y="104.6"
   class="gesamtansicht_st33"
   width="89.6"
   height="57.6"
   id="rect433" />
	<rect
   x="545.6"
   y="268.1"
   class="gesamtansicht_st3"
   width="298"
   height="4.8"
   id="rect435" />
	<rect
   x="550.2"
   y="225.2"
   class="gesamtansicht_st3"
   width="52"
   height="29.6"
   id="rect437" />
	<rect
   x="546"
   y="224.9"
   class="gesamtansicht_st3"
   width="8.2"
   height="34.1"
   id="rect439" />
	<rect
   x="598.2"
   y="224.4"
   class="gesamtansicht_st3"
   width="7.7"
   height="34.7"
   id="rect441" />
	<rect
   x="488.4"
   y="103.6"
   class="gesamtansicht_st34"
   width="200.8"
   height="121.2"
   id="rect443" />
	<rect
   x="528.9"
   y="103.6"
   class="gesamtansicht_st19"
   width="10.6"
   height="120.2"
   id="rect445" />
	<rect
   x="587.4"
   y="103.6"
   class="gesamtansicht_st19"
   width="9.3"
   height="120.2"
   id="rect447" />
	<rect
   x="647.2"
   y="103.6"
   class="gesamtansicht_st19"
   width="9.3"
   height="120.8"
   id="rect449" />
	<rect
   x="756.6"
   y="244.4"
   class="gesamtansicht_st8"
   width="48"
   height="46.1"
   id="rect451" />
</g>
<g
   id="Förderband">
	<g
   id="g526">
		<polygon
   points="856.3,674.9 856.2,689.3 899.8,689.5 899.8,675.1   "
   id="polygon454" />
		<polygon
   class="gesamtansicht_st35"
   points="856.3,660.5 856.3,674.9 899.8,675.1 899.8,660.8   "
   id="polygon456" />
		<polygon
   class="gesamtansicht_st36"
   points="856.3,646.1 856.3,660.5 899.8,660.8 899.9,646.3   "
   id="polygon458" />
		<polygon
   points="856.3,631.8 856.3,646.1 899.9,646.3 899.9,631.9   "
   id="polygon460" />
		<polygon
   class="gesamtansicht_st35"
   points="856.4,617.3 856.3,631.8 899.9,631.9 899.9,617.5   "
   id="polygon462" />
		<polygon
   class="gesamtansicht_st36"
   points="856.4,602.9 856.4,617.3 899.9,617.5 900,603.1   "
   id="polygon464" />
		<polygon
   points="856.4,588.5 856.4,602.9 900,603.1 900,588.8   "
   id="polygon466" />
		<polygon
   class="gesamtansicht_st35"
   points="856.5,574.1 856.4,588.5 900,588.8 900,574.3   "
   id="polygon468" />
		<polygon
   class="gesamtansicht_st36"
   points="856.5,559.8 856.5,574.1 900,574.3 900,559.9   "
   id="polygon470" />
		<polygon
   points="856.5,545.3 856.5,559.8 900,559.9 900.1,545.5   "
   id="polygon472" />
		<polygon
   class="gesamtansicht_st35"
   points="856.5,530.9 856.5,545.3 900.1,545.5 900.1,531.1   "
   id="polygon474" />
		<polygon
   class="gesamtansicht_st36"
   points="856.6,516.5 856.5,530.9 900.1,531.1 900.1,516.8   "
   id="polygon476" />
		<polygon
   points="856.6,502.1 856.5,516.5 900.1,516.8 900.1,502.4   "
   id="polygon478" />
		<polygon
   class="gesamtansicht_st35"
   points="856.6,487.8 856.6,502.1 900.1,502.4 900.1,488   "
   id="polygon480" />
		<polygon
   class="gesamtansicht_st36"
   points="856.6,473.4 856.6,487.8 900.1,488 900.2,473.6   "
   id="polygon482" />
		<polygon
   points="856.6,459 856.6,473.4 900.2,473.6 900.2,459.1   "
   id="polygon484" />
		<polygon
   class="gesamtansicht_st35"
   points="856.7,444.6 856.6,459 900.2,459.1 900.2,444.8   "
   id="polygon486" />
		<polygon
   class="gesamtansicht_st36"
   points="856.7,430.1 856.7,444.6 900.2,444.8 900.3,430.4   "
   id="polygon488" />
		<polygon
   points="856.7,415.6 856.7,430.1 900.3,430.2 900.3,415.9   "
   id="polygon490" />
		<polygon
   class="gesamtansicht_st35"
   points="856.8,401.2 856.7,415.6 900.3,415.9 900.3,401.5   "
   id="polygon492" />
		<polygon
   class="gesamtansicht_st36"
   points="856.8,386.9 856.8,401.2 900.3,401.5 900.3,387.1   "
   id="polygon494" />
		<polygon
   points="856.8,372.5 856.8,386.9 900.4,387.1 900.4,372.8   "
   id="polygon496" />
		<polygon
   class="gesamtansicht_st35"
   points="856.9,358.1 856.8,372.5 900.4,372.8 900.4,358.4   "
   id="polygon498" />
		<polygon
   class="gesamtansicht_st36"
   points="856.9,343.8 856.9,358.1 900.4,358.4 900.5,344   "
   id="polygon500" />
		<polygon
   points="857.2,329.6 857.2,344.1 900.8,344.2 900.8,329.9   "
   id="polygon502" />
		<polygon
   class="gesamtansicht_st35"
   points="857.3,315.2 857.2,329.6 900.8,329.9 900.8,315.5   "
   id="polygon504" />
		<polygon
   class="gesamtansicht_st36"
   points="857.3,300.9 857.3,315.2 900.8,315.5 900.8,301.1   "
   id="polygon506" />
		<polygon
   points="857.3,286.5 857.3,300.9 900.8,301.1 900.9,286.6   "
   id="polygon508" />
		<polygon
   class="gesamtansicht_st35"
   points="857.4,272.1 857.3,286.5 900.9,286.6 900.9,272.2   "
   id="polygon510" />
		<polygon
   class="gesamtansicht_st36"
   points="857.4,257.6 857.4,272.1 900.9,272.2 900.9,257.9   "
   id="polygon512" />
		<polygon
   points="857.4,243.2 857.4,257.6 900.9,257.9 901,243.5   "
   id="polygon514" />
		<polygon
   class="gesamtansicht_st35"
   points="857.4,228.9 857.4,243.2 901,243.5 901,229.1   "
   id="polygon516" />
		<polygon
   class="gesamtansicht_st36"
   points="857.5,214.5 857.4,228.9 901,229.1 901,214.7   "
   id="polygon518" />
		<polygon
   points="857.5,200.1 857.5,214.5 901,214.7 901,200.2   "
   id="polygon520" />
		<polygon
   class="gesamtansicht_st35"
   points="857.5,185.7 857.5,200.1 901,200.2 901.1,185.9   "
   id="polygon522" />
		<polygon
   class="gesamtansicht_st32"
   points="856,689.3 857.3,186.1 901.2,186.2 900,689.5   "
   id="polygon524" />
	</g>
	<polygon
   class="gesamtansicht_st25"
   points="918,503.2 838.9,503.1 838.5,385.5 917.5,385.6  "
   id="polygon528" />
	<polygon
   class="gesamtansicht_st37"
   points="838,450.8 838,434.6 918.5,435 918.5,451.2  "
   id="polygon530" />
	<rect
   x="843.7"
   y="206.7"
   class="gesamtansicht_st8"
   width="69.7"
   height="69.3"
   id="rect532" />
</g>
</svg>
