<?xml version="1.0" encoding="utf-8"?>
<!-- Generator: Adobe Illustrator 26.3.1, SVG Export Plug-In . SVG Version: 6.00 Build 0)  -->
<svg version="1.1" xmlns="http://www.w3.org/2000/svg" xmlns:xlink="http://www.w3.org/1999/xlink" x="0px" y="0px"
	 viewBox="0 0 1024 768" style="enable-background:new 0 0 1024 768;" xml:space="preserve">
<style type="text/css">
	.st0{fill:none;stroke:#4D4D4D;stroke-width:9;stroke-miterlimit:10;}
	.st1{fill:none;stroke:#8CC63F;stroke-width:3;stroke-miterlimit:10;}
	.st2{fill:#4D4D4D;stroke:#333333;stroke-width:3;stroke-miterlimit:10;}
	.st3{fill:#C1282E;stroke:#000000;stroke-miterlimit:10;}
	.st4{fill:none;stroke:#C1272D;stroke-width:3;stroke-miterlimit:10;}
	.st5{fill:#CCCCCC;stroke:#000000;stroke-miterlimit:10;}
	.st6{fill:url(#SVGID_1_);stroke:#666666;stroke-width:3;stroke-miterlimit:10;}
	.st7{fill:#E6E6E6;}
	.st8{fill:url(#SVGID_00000106120723274625895740000000004030030165128121_);stroke:#666666;stroke-width:3;stroke-miterlimit:10;}
	.st9{fill:#C1272D;stroke:#000000;stroke-miterlimit:10;}
	.st10{fill:#F7F0F1;stroke:#070002;stroke-miterlimit:10;}
	.st11{fill:none;}
	.st12{font-family:'MyriadPro-Regular';}
	.st13{font-size:21.4655px;}
	.st14{fill:#0071BC;stroke:#070002;stroke-miterlimit:10;}
	.st15{fill:#ED1C24;stroke:#070002;stroke-miterlimit:10;}
	.st16{fill:#C1272D;}
	.st17{fill:none;stroke:#00FFFF;stroke-width:3;stroke-miterlimit:10;}
	.st18{fill:#7800BD;stroke:#000000;stroke-miterlimit:10;}
	.st19{fill:#4D4D4D;}
	.st20{fill:#808080;stroke:#000000;stroke-width:2;stroke-miterlimit:10;}
	.st21{fill:#B3B3B3;stroke:#000000;stroke-width:2;stroke-miterlimit:10;}
	.st22{fill:#666666;}
	.st23{fill:#B3B3B3;}
	.st24{fill:none;stroke:#4D4D4D;stroke-width:2;stroke-miterlimit:10;}
	.st25{fill:#CDCCCC;stroke:#CCCCCC;stroke-width:2;stroke-miterlimit:10;}
	.st26{fill:none;stroke:#A67C52;stroke-width:3;stroke-miterlimit:10;}
	.st27{stroke:#4D4D4D;stroke-width:2;stroke-miterlimit:10;}
	.st28{fill:#4D4D4D;stroke:#4D4D4D;stroke-width:2;stroke-miterlimit:10;}
	.st29{fill:#676766;stroke:#000000;stroke-miterlimit:10;}
	.st30{font-size:38.0968px;glyph-orientation-vertical:0;writing-mode:tb;}
	.st31{fill:#C1272D;stroke:#000000;stroke-width:2;stroke-miterlimit:10;}
	.st32{fill:#F7F0F1;stroke:#000000;stroke-width:2;stroke-miterlimit:10;}
	.st33{fill:#ED1C24;stroke:#000000;stroke-width:2;stroke-miterlimit:10;}
	.st34{fill:#0071BC;stroke:#000000;stroke-width:2;stroke-miterlimit:10;}
	.st35{fill:none;stroke:#FF00FF;stroke-width:2;stroke-miterlimit:10;}
	.st36{fill:#FBAE17;stroke:#FBAE17;stroke-width:2;stroke-miterlimit:10;}
	.st37{fill:#603813;}
</style>
<g id="Hochregallager">
	<line class="st0" x1="366.3" y1="303.1" x2="475.9" y2="303.1"/>
	<path class="st0" d="M367.7,498.2"/>
	<a xlink:href="http://www.w3schools.com/html/html_links.asp">
	<g id="HochregallagerLink">
       <rect x="107.5" y="87.5" class="st1" width="258.8" height="582.9"/>
	</g>
     </a>
	<rect x="243" y="221.1" class="st2" width="62.4" height="344.4"/>
	<rect x="129.9" y="170.5" class="st3" width="34.6" height="70.6"/>
	<rect x="111.3" y="237.3" class="st3" width="72.9" height="18.1"/>
	<rect x="119.7" y="616.1" class="st4" width="52.3" height="21"/>
	<rect x="144" y="255.4" class="st3" width="4.7" height="360.6"/>
	<rect x="17.5" y="608.1" class="st5" width="211.7" height="34.3"/>
	<linearGradient id="SVGID_1_" gradientUnits="userSpaceOnUse" x1="244.0496" y1="343.8831" x2="305.4179" y2="343.8831">
		<stop  offset="0" style="stop-color:#FFFFFF"/>
		<stop  offset="0.3518" style="stop-color:#FDFDFD"/>
		<stop  offset="0.4786" style="stop-color:#F6F6F6"/>
		<stop  offset="0.5689" style="stop-color:#EBEBEB"/>
		<stop  offset="0.642" style="stop-color:#DADADA"/>
		<stop  offset="0.7046" style="stop-color:#C4C4C4"/>
		<stop  offset="0.76" style="stop-color:#A8A8A8"/>
		<stop  offset="0.8102" style="stop-color:#888888"/>
		<stop  offset="0.8562" style="stop-color:#626262"/>
		<stop  offset="0.8991" style="stop-color:#373737"/>
		<stop  offset="0.9372" style="stop-color:#090909"/>
		<stop  offset="0.9441" style="stop-color:#000000"/>
	</linearGradient>
	<line class="st6" x1="244" y1="344.4" x2="305.4" y2="343.4"/>
	<rect x="18" y="619.9" class="st7" width="209.5" height="8.9"/>
	
		<linearGradient id="SVGID_00000082364181107487930780000000786097755243292817_" gradientUnits="userSpaceOnUse" x1="244.0496" y1="453.9549" x2="306.4946" y2="453.9549">
		<stop  offset="0" style="stop-color:#FFFFFF"/>
		<stop  offset="0.3518" style="stop-color:#FDFDFD"/>
		<stop  offset="0.4786" style="stop-color:#F6F6F6"/>
		<stop  offset="0.5689" style="stop-color:#EBEBEB"/>
		<stop  offset="0.642" style="stop-color:#DADADA"/>
		<stop  offset="0.7046" style="stop-color:#C4C4C4"/>
		<stop  offset="0.76" style="stop-color:#A8A8A8"/>
		<stop  offset="0.8102" style="stop-color:#888888"/>
		<stop  offset="0.8562" style="stop-color:#626262"/>
		<stop  offset="0.8991" style="stop-color:#373737"/>
		<stop  offset="0.9372" style="stop-color:#090909"/>
		<stop  offset="0.9441" style="stop-color:#000000"/>
	</linearGradient>
	
		<line style="fill:url(#SVGID_00000082364181107487930780000000786097755243292817_);stroke:#666666;stroke-width:3;stroke-miterlimit:10;" x1="244" y1="454" x2="306.5" y2="454"/>
	<rect x="113.1" y="585.5" class="st9" width="83.1" height="80.1"/>
	<ellipse class="st10" cx="274.9" cy="288.4" rx="26.5" ry="27.1"/>
	<rect x="153.3" y="103.7" class="st11" width="227.9" height="47.7"/>
	<text transform="matrix(0.9792 0 0 1 153.295 118.9874)" class="st12 st13">HOCHREGALLAGER</text>
	<ellipse class="st14" cx="273.6" cy="514.2" rx="26.5" ry="27.1"/>
	<ellipse class="st15" cx="274" cy="399.3" rx="26.5" ry="27.1"/>
	<rect x="229.3" y="618.6" class="st16" width="24" height="15.3"/>
	
		<rect x="244.6" y="593.9" transform="matrix(-1.908523e-03 -1 1 -1.908523e-03 -339.4601 903.2493)" class="st3" width="72.9" height="54.2"/>
	
		<rect x="279" y="626.4" transform="matrix(-1.908523e-03 -1 1 -1.908523e-03 -372.3799 943.594)" class="st3" width="11.5" height="62.4"/>
	
		<rect x="278.7" y="553" transform="matrix(-1.908523e-03 -1 1 -1.908523e-03 -300.0605 870.0008)" class="st3" width="10.8" height="63.5"/>
</g>
<g id="Vakuum_Sauggreifer">
	<rect x="476.5" y="350.8" class="st17" width="185.9" height="280.5"/>
	<path class="st0" d="M473.7,500.1"/>
	<rect x="629.4" y="551.2" class="st18" width="29.9" height="51.8"/>
	<polygon class="st19" points="569.4,507 574.4,500.3 578.3,507.6 584.4,501.8 587,509.6 594,504.7 595.3,512.8 603,509.1 
		602.9,517.3 611.1,514.7 609.7,522.8 618.2,521.4 615.5,529.2 624.2,529.2 620.2,536.4 628.8,537.7 623.6,544.3 631.9,546.8 
		625.7,552.5 633.4,556.2 626.4,561 633.4,565.7 625.7,569.4 631.9,575.2 623.6,577.6 628.8,584.2 620.2,585.5 624.2,592.7 
		615.5,592.7 618.2,600.5 609.7,599.1 611.1,607.2 602.9,604.6 603,612.8 595.3,609.1 594,617.2 587,612.3 584.4,620.1 578.3,614.3 
		574.4,621.6 569.4,615 564.3,621.6 560.5,614.3 554.4,620.1 551.8,612.3 544.8,617.2 543.5,609.1 535.8,612.8 535.9,604.6 
		527.7,607.2 529.1,599.1 520.5,600.5 523.2,592.7 514.6,592.7 518.6,585.5 510,584.2 515.1,577.6 506.9,575.2 513.1,569.4 
		505.3,565.7 512.3,561 505.3,556.2 513.1,552.5 506.9,546.8 515.1,544.3 510,537.7 518.6,536.4 514.6,529.2 523.2,529.2 
		520.5,521.4 529.1,522.8 527.7,514.7 535.9,517.3 535.8,509.1 543.5,512.8 544.8,504.7 551.8,509.6 554.4,501.8 560.5,507.6 
		564.3,500.3 	"/>
	<polygon class="st20" points="638.2,575.3 547.6,628.7 500.4,545.2 591,491.8 	"/>
	<polygon class="st21" points="642.5,660.3 616.6,675.6 428.4,342.7 454.3,327.4 	"/>
	<rect x="483" y="363.2" class="st11" width="173.8" height="68.7"/>
	<text transform="matrix(0.9792 0 0 1 526.6569 378.482)"><tspan x="0" y="0" class="st12 st13">VAKUUM-</tspan><tspan x="-18.4" y="25.8" class="st12 st13">SAUGGREIFER</tspan></text>
	<polygon class="st7" points="634.7,664.3 624.3,670.5 437.5,340.1 448,334 	"/>
	<polygon class="st9" points="474.3,320.6 413.3,356.6 423.9,375.3 484.9,339.4 	"/>
	<polygon class="st16" points="637.1,638.4 602.8,658.6 613.3,677.4 647.7,657.1 	"/>
</g>
<g id="Förderband">
	<g>
		<polygon points="849.1,686.1 849,700.5 892.6,700.7 892.6,686.3 		"/>
		<polygon class="st22" points="849.1,671.7 849.1,686.1 892.6,686.3 892.6,671.9 		"/>
		<polygon class="st23" points="849.1,657.3 849.1,671.7 892.6,671.9 892.7,657.5 		"/>
		<polygon points="849.1,642.9 849.1,657.3 892.7,657.5 892.7,643.1 		"/>
		<polygon class="st22" points="849.2,628.5 849.1,642.9 892.7,643.1 892.7,628.7 		"/>
		<polygon class="st23" points="849.2,614.1 849.2,628.5 892.7,628.7 892.8,614.3 		"/>
		<polygon points="849.2,599.7 849.2,614.1 892.8,614.3 892.8,599.9 		"/>
		<polygon class="st22" points="849.3,585.3 849.2,599.7 892.8,599.9 892.8,585.5 		"/>
		<polygon class="st23" points="849.3,570.9 849.3,585.3 892.8,585.5 892.8,571.1 		"/>
		<polygon points="849.3,556.5 849.3,570.9 892.8,571.1 892.9,556.7 		"/>
		<polygon class="st22" points="849.3,542.1 849.3,556.5 892.9,556.7 892.9,542.3 		"/>
		<polygon class="st23" points="849.4,527.7 849.3,542.1 892.9,542.3 892.9,527.9 		"/>
		<polygon points="849.4,513.3 849.3,527.7 892.9,527.9 892.9,513.5 		"/>
		<polygon class="st22" points="849.4,498.9 849.4,513.3 892.9,513.5 892.9,499.1 		"/>
		<polygon class="st23" points="849.4,484.5 849.4,498.9 892.9,499.1 893,484.7 		"/>
		<polygon points="849.4,470.1 849.4,484.5 893,484.7 893,470.3 		"/>
		<polygon class="st22" points="849.5,455.7 849.4,470.1 893,470.3 893,455.9 		"/>
		<polygon class="st23" points="849.5,441.3 849.5,455.7 893,455.9 893.1,441.5 		"/>
		<polygon points="849.5,426.8 849.5,441.2 893.1,441.4 893.1,427 		"/>
		<polygon class="st22" points="849.6,412.4 849.5,426.8 893.1,427 893.1,412.6 		"/>
		<polygon class="st23" points="849.6,398 849.6,412.4 893.1,412.6 893.1,398.2 		"/>
		<polygon points="849.6,383.6 849.6,398 893.2,398.3 893.2,383.9 		"/>
		<polygon class="st22" points="849.7,369.3 849.6,383.6 893.2,383.9 893.2,369.5 		"/>
		<polygon class="st23" points="849.7,354.9 849.7,369.3 893.2,369.5 893.3,355.1 		"/>
	</g>
	<line class="st0" x1="366.7" y1="621.9" x2="473.7" y2="621.9"/>
	<polygon points="850,340.8 850,355.2 893.6,355.4 893.6,341 	"/>
	<polygon class="st22" points="850.1,326.4 850,340.8 893.6,341 893.6,326.6 	"/>
	<polygon class="st23" points="850.1,312 850.1,326.4 893.6,326.6 893.6,312.2 	"/>
	<polygon points="850.1,297.6 850.1,312 893.6,312.2 893.7,297.8 	"/>
	<polygon class="st22" points="850.2,283.2 850.1,297.6 893.7,297.8 893.7,283.4 	"/>
	<polygon class="st23" points="850.2,268.8 850.2,283.2 893.7,283.4 893.7,269 	"/>
	<polygon points="850.2,254.4 850.2,268.8 893.7,269 893.8,254.6 	"/>
	<polygon class="st22" points="850.2,240 850.2,254.4 893.8,254.6 893.8,240.2 	"/>
	<polygon class="st23" points="850.3,225.6 850.2,240 893.8,240.2 893.8,225.8 	"/>
	<polygon points="850.3,211.2 850.3,225.6 893.8,225.8 893.8,211.4 	"/>
	<polygon class="st22" points="850.3,196.8 850.3,211.2 893.8,211.4 893.9,197 	"/>
	<polygon class="st24" points="848.8,700.5 850.1,197.2 894,197.4 892.8,700.7 	"/>
	<polygon class="st25" points="776.4,158.2 778.7,156.3 780.2,158.8 783,157.7 783.7,160.5 786.6,160.3 786.4,163.2 789.3,163.9 
		788.2,166.6 790.7,168.1 788.8,170.4 790.7,172.6 788.2,174.1 789.3,176.8 786.4,177.5 786.6,180.4 783.7,180.2 783,183 
		780.2,181.9 778.7,184.4 776.4,182.5 774.1,184.4 772.5,181.9 769.8,183 769.1,180.2 766.1,180.4 766.3,177.5 763.5,176.8 
		764.6,174.1 762.1,172.6 764,170.4 762.1,168.1 764.6,166.6 763.5,163.9 766.3,163.2 766.1,160.3 769.1,160.5 769.8,157.7 
		772.5,158.8 774.1,156.3 	"/>
</g>
<g id="Brennofen">
	<rect x="554.9" y="71.3" class="st11" width="323.3" height="47.7"/>
	<text transform="matrix(0.9792 0 0 1 554.9176 86.5499)" class="st12 st13">BRENNOFEN MIT BOHRSTATION</text>
	<rect x="477.4" y="57" class="st26" width="490" height="251.9"/>
	<rect x="834.9" y="225.6" class="st9" width="69.7" height="69.3"/>
	<line class="st27" x1="776.7" y1="170.8" x2="777.3" y2="140.3"/>
	<rect x="747.4" y="102.2" class="st28" width="61" height="38.2"/>
	<rect x="547.4" y="280.6" class="st3" width="287.5" height="4.8"/>
	<rect x="545.8" y="237.8" class="st3" width="52" height="29.6"/>
	<rect x="541.6" y="237.5" class="st3" width="8.2" height="34.1"/>
	<rect x="593.8" y="237" class="st3" width="7.7" height="34.7"/>
	<rect x="484" y="116.1" class="st29" width="200.8" height="121.2"/>
	<rect x="524.5" y="116.1" class="st19" width="10.6" height="120.2"/>
	<rect x="583" y="116.1" class="st19" width="9.3" height="120.2"/>
	<rect x="642.8" y="116.1" class="st19" width="9.3" height="120.8"/>
	<rect x="752.2" y="257" class="st9" width="48" height="46.1"/>
</g>
<g id="Sortierstecke">
	<text transform="matrix(0.9076 -3.439020e-03 2.144423e-03 0.5903 938.7433 368.9827)" class="st12 st30">SORTIERSTRECKE</text>
	<polygon class="st21" points="849.2,573.2 769.1,573.2 769,545.2 849.1,545.3 	"/>
	<polygon class="st31" points="769.5,690 736.7,690 736.2,525.4 768.9,525.4 	"/>
	
		<ellipse transform="matrix(1.342765e-03 -1 1 1.342765e-03 192.009 1310.7838)" class="st32" cx="752.3" cy="559.3" rx="9.9" ry="9.6"/>
	<ellipse class="st33" cx="752.9" cy="613.8" rx="9.6" ry="9.9"/>
	
		<ellipse transform="matrix(3.272364e-03 -1 1 3.272364e-03 80.9196 1420.5332)" class="st34" cx="753.1" cy="669.7" rx="9.9" ry="9.5"/>
	<polygon class="st21" points="849.5,628.4 769.4,628.3 769.3,600.4 849.4,600.5 	"/>
	<polygon class="st21" points="849.5,684 769.4,684 769.3,656 849.4,656.1 	"/>
	<rect x="705.4" y="339.4" class="st35" width="261.6" height="381.6"/>
	<polygon class="st31" points="769.2,595.5 769.2,580.1 782.5,580.2 782.4,595.5 	"/>
	<polygon class="st31" points="769,540.8 769,529.9 782.1,530 782.1,540.8 	"/>
	<polygon class="st36" points="771.7,589.6 771.7,586 780,586.1 779.9,589.7 	"/>
	<polygon class="st36" points="771.5,536.1 771.5,533.8 779.6,533.8 779.6,536.2 	"/>
	<polygon class="st31" points="769.3,649.3 769.4,634 782.6,634 782.6,649.4 	"/>
	<polygon class="st36" points="771.9,643.5 771.9,639.9 780,639.9 780,643.5 	"/>
	<g>
		<polygon class="st31" points="910,506.3 830.9,506.2 830.5,388.6 909.6,388.7 		"/>
		<polygon class="st37" points="830,453.9 830,437.7 910.6,438.1 910.5,454.3 		"/>
	</g>
</g>
</svg>
