<?xml version="1.0" encoding="utf-8"?>
<!-- Generator: Adobe Illustrator 26.3.1, SVG Export Plug-In . SVG Version: 6.00 Build 0)  -->
<svg version="1.1" xmlns="http://www.w3.org/2000/svg" xmlns:xlink="http://www.w3.org/1999/xlink" x="0px" y="0px"
	viewBox="0 0 1024 768" style="enable-background:new 0 0 1024 768;" xml:space="preserve">
	<style type="text/css">
		.st0 {
			fill: #C1272D;
			stroke: #000000;
			stroke-width: 1.5;
			stroke-miterlimit: 10;
		}

		.st1 {
			fill: #6E6E6E;
			stroke: #000000;
			stroke-width: 1.5;
			stroke-miterlimit: 10;
		}

		.lichtschranke {
			fill: #F78A15;
			stroke: #000000;
			stroke-width: 1.5;
			stroke-miterlimit: 10;
		}

		.motor {
			fill: #7800BD;
			stroke: #000000;
			stroke-width: 1.5;
			stroke-miterlimit: 10;
		}

		.taster {
			fill: #FD76FF;
			stroke: #000000;
			stroke-width: 1.5;
			stroke-miterlimit: 10;
		}

		.st5 {
			fill: #CCCCCC;
			stroke: #000000;
			stroke-width: 1.5;
			stroke-miterlimit: 10;
		}

		.st6 {
			fill: #E6E6E6;
		}

		.st7 {
			fill: #808080;
			stroke: #000000;
			stroke-width: 1.5;
			stroke-miterlimit: 10;
		}

		.st8 {
			fill: #CCCCCC;
		}

		.st9 {
			fill: none;
			stroke: #000000;
			stroke-width: 1.5;
			stroke-miterlimit: 10;
		}

		.st10 {
			fill: #B3B3B3;
			stroke: #000000;
			stroke-width: 1.5;
			stroke-miterlimit: 10;
		}

		.st11 {
			fill: #ED1C24;
			stroke: #000000;
			stroke-width: 1.5;
			stroke-miterlimit: 10;
		}

		.st12 {
			fill: #E6E6E6;
			stroke: #000000;
			stroke-width: 1.5;
			stroke-miterlimit: 10;
		}

		.st13 {
			fill: #0071BC;
			stroke: #000000;
			stroke-width: 1.5;
			stroke-miterlimit: 10;
		}

		.st14 {
			fill: #999999;
			stroke: #000000;
			stroke-width: 1.5;
			stroke-miterlimit: 10;
		}

		.tasterTransform {
			fill: #fc2aff;
			stroke: #000000;
			stroke-width: 1.5;
			stroke-miterlimit: 10;
		}

		.lichtschrankeTransform {
			fill: #b96306;
			stroke: #000000;
			stroke-width: 1.5;
			stroke-miterlimit: 10;
		}

		.motor {
			fill: #7800bd;
			stroke: #000000;
			stroke-width: 1.5;
			stroke-miterlimit: 10;
		}

		.motorTransform {
			fill: #470071;
			stroke: #000000;
			stroke-width: 1.5;
			stroke-miterlimit: 10;
		}
	</style>
	<g id="Hauschen">
		<rect x="213" y="437.5" class="st0" width="66" height="49.2" />
		<rect x="186.9" y="486.6" class="st1" width="26.1" height="191.2" />
		<rect x="278.9" y="486.7" class="st1" width="26.9" height="191.1" />
		<rect x="278.9" y="437.5" class="lichtschranke" width="26.9" height="49.3" />
		<rect x="186.6" y="437.5" class="st0" width="26.5" height="49.2" />
		<rect x="213.1" y="626.9" class="motor" width="10.7" height="16.1" />
	</g>
	<g id="Turm">
		<rect x="16.5" y="97.3" class="st0 turmBewegen" width="12.5" height="59.2" />
		<rect x="205.3" y="97.3" class="st0 turmBewegen" width="12.5" height="59.2" />
		<rect x="218.1" y="97.3" class="taster turmBewegen" id="Referenztastervertikal" width="21.3" height="17.9" />
		<rect x="89" y="130.6" class="st5 turmBewegen" width="28.8" height="550" />
		<rect x="155.4" y="130.6" class="st5 turmBewegen" width="31.2" height="550" />
		<rect x="97.8" y="131.4" class="st6 turmBewegen" width="11.2" height="550" />
		<rect x="201.9" y="647" class="st0" width="104.1" height="16.4" />
		<rect x="491" y="648.2" class="st0" width="118.7" height="14.8" />
		<rect x="327.7" y="647.8" class="st0" width="118.9" height="14.8" />
		<rect x="653.3" y="648.6" class="st0" width="119.1" height="14.8" />
		<rect x="165.6" y="131.6" class="st6 turmBewegen" width="11.2" height="550" />
		<rect x="794.1" y="649" class="st0" width="64.9" height="14.8" />
		<rect x="859" y="643" class="st5" width="74.4" height="34" />
		<rect x="883.4" y="622.2" class="st0" width="96.8" height="38.8" />
		<rect x="908.2" y="643" class="st5" width="25.6" height="34.4" />
		<rect x="29" y="97.3" class="st7 turmBewegen" width="176.3" height="33.3" />
		<rect x="23.4" y="629.8" class="st0" width="178.4" height="48" />
	</g>
	<g id="Sensor_hinter_Greifer__x26__Taster_hinten_x2F_vorne">
		<rect x="206.7" y="531.8" class="taster turmBewegen greiferBewegen" width="10.4" height="15.2" />
		<rect x="206.7" y="546.9" class="taster turmBewegen greiferBewegen" width="10.4" height="15.2" />
		<rect x="166.9" y="480.5" class="motor turmBewegen greiferBewegen" width="41.1" height="81.8" />
		<rect x="314.6" y="195.8" class="st8" width="4.8" height="20.4" />
	</g>
	<g id="Greifer">
		<path class="st9" d="M171.5,562.2" />
		<rect x="148.3" y="568.3" class="st0 turmBewegen greiferBewegen" width="102.4" height="57.4" />
		<rect x="173.9" y="543.5" class="st10 turmBewegen greiferBewegen" width="27.2" height="61.3" />
		<rect x="177.3" y="587.9" class="st0 turmBewegen greiferBewegen" width="20.3" height="5.1" />
		<rect x="174.1" y="579.7" class="st0 turmBewegen greiferBewegen" width="26.9" height="8" />
	</g>
	<g id="Hochregallager">
		<rect x="306.1" y="183.1" class="st7" width="21.6" height="494.4" />
		<rect x="446.6" y="182.3" class="st7" width="22.4" height="495.5" />
		<rect x="469.3" y="182.3" class="st7" width="21.7" height="495.5" />
		<rect x="609.7" y="183.4" class="st7" width="21.6" height="494.4" />
		<rect x="631.5" y="183.4" class="st7" width="21.6" height="494.4" />
		<rect x="772.3" y="183.4" class="st7" width="21.6" height="494.4" />
		<path class="st11" d="M419.1,324.5c-16.1-11.9-32-10-30.7-10c1,0-20.7-0.5-30.8,10" />
		<path class="st12" d="M417.9,205.7c-16.1-11.9-32-10-30.7-10c1,0-20.7-0.5-30.8,10" />
		<path class="st13" d="M419.3,446.1c-16.1-11.9-32-10-30.7-10c1,0-20.7-0.5-30.8,10" />
		<path class="st13" d="M580.3,448.1c-16.1-11.9-32-10-30.7-10c1,0-20.7-0.5-30.8,10" />
		<path class="st12" d="M581.5,206.1c-16.1-11.9-32-10-30.7-10c1,0-20.7-0.5-30.8,10" />
		<path class="st11" d="M581.3,326.5c-16.1-11.9-32-10-30.7-10c1,0-20.7-0.5-30.8,10" />
		<path class="st12" d="M744.7,204.9c-16.1-11.9-32-10-30.7-10c1,0-20.7-0.5-30.8,10" />
		<path class="st13" d="M744.7,446.5c-16.1-11.9-32-10-30.7-10c1,0-20.7-0.5-30.8,10" />
		<path class="st11" d="M745.1,326.3c-16.1-11.9-32-10-30.7-10c1,0-20.7-0.5-30.8,10" />
		<rect x="346.6" y="205.8" class="st7" width="80.5" height="24" />
		<rect x="327.9" y="230.3" class="st7" width="38.4" height="14.9" />
		<rect x="406.9" y="230.3" class="st7" width="39.5" height="14.4" />
		<rect x="347.7" y="446.3" class="st7" width="79.5" height="24.5" />
		<rect x="327.9" y="470.9" class="st7" width="37.3" height="14.9" />
		<rect x="407.1" y="470.9" class="st7" width="39.5" height="14.4" />
		<rect x="510.3" y="206.1" class="st7" width="79.5" height="24.5" />
		<rect x="491.4" y="230.6" class="st7" width="37.3" height="14.9" />
		<rect x="570.1" y="230.6" class="st7" width="39.5" height="14.4" />
		<rect x="511.4" y="326.6" class="st7" width="79.5" height="24.5" />
		<rect x="491.7" y="351.1" class="st7" width="37.3" height="14.9" />
		<rect x="570.1" y="351.1" class="st7" width="39.5" height="14.4" />
		<rect x="510.3" y="448.2" class="st7" width="79.5" height="24.5" />
		<rect x="491.1" y="472.7" class="st7" width="36.8" height="14.9" />
		<rect x="570.1" y="472.7" class="st7" width="39.5" height="14.4" />
		<rect x="674.1" y="205" class="st7" width="79.5" height="24.5" />
		<rect x="653.5" y="229.5" class="st7" width="37.3" height="14.9" />
		<rect x="732.7" y="229.5" class="st7" width="39.5" height="14.4" />
		<rect x="673.5" y="326.6" class="st7" width="79.5" height="24.5" />
		<rect x="653.8" y="351.1" class="st7" width="37.3" height="14.9" />
		<rect x="732.2" y="351.1" class="st7" width="39.5" height="14.4" />
		<rect x="673.5" y="446.6" class="st7" width="79.5" height="24.5" />
		<rect x="653.8" y="471.1" class="st7" width="37.3" height="14.9" />
		<rect x="733" y="471.1" class="st7" width="39.5" height="14.4" />
		<rect x="348.1" y="324.6" class="st7" width="79.5" height="24.5" />
		<rect x="327.8" y="349.1" class="st7" width="37.3" height="14.9" />
		<rect x="406.7" y="349.1" class="st7" width="39.5" height="14.4" />
		<rect x="11.4" y="677.8" class="st14" width="1006.4" height="11.2" />
		<rect x="314.9" y="233.9" class="st8" width="4.4" height="25.2" />
		<rect x="314.6" y="193.8" class="st8" width="4.4" height="25.2" />
		<rect x="314.9" y="272.5" class="st8" width="4.4" height="25.2" />
		<rect x="315" y="314.5" class="st8" width="4.4" height="25.2" />
		<rect x="314.9" y="356" class="st8" width="4.4" height="25.2" />
		<rect x="314.6" y="396.7" class="st8" width="4.4" height="25.2" />
		<rect x="314.8" y="437.1" class="st8" width="4.4" height="25.2" />
		<rect x="314.6" y="476.5" class="st8" width="4.4" height="25.2" />
		<rect x="314.5" y="518.8" class="st8" width="4.4" height="25.2" />
		<rect x="314.9" y="562.1" class="st8" width="4.4" height="25.2" />
		<rect x="314.7" y="601.9" class="st8" width="4.4" height="25.2" />
		<rect x="314.6" y="643.6" class="st8" width="4.4" height="25.2" />
		<rect x="455.4" y="234.4" class="st8" width="4.4" height="25.2" />
		<rect x="455.1" y="194.3" class="st8" width="4.4" height="25.2" />
		<rect x="455.4" y="273" class="st8" width="4.4" height="25.2" />
		<rect x="455.4" y="356.5" class="st8" width="4.4" height="25.2" />
		<rect x="455.1" y="397.2" class="st8" width="4.4" height="25.2" />
		<rect x="455.3" y="437.6" class="st8" width="4.4" height="25.2" />
		<rect x="455.1" y="477" class="st8" width="4.4" height="25.2" />
		<rect x="455" y="519.3" class="st8" width="4.4" height="25.2" />
		<rect x="455.4" y="562.6" class="st8" width="4.4" height="25.2" />
		<rect x="455.2" y="602.4" class="st8" width="4.4" height="25.2" />
		<rect x="455.1" y="644.1" class="st8" width="4.4" height="25.2" />
		<rect x="479.6" y="234.3" class="st8" width="4.4" height="25.2" />
		<rect x="479.3" y="194.2" class="st8" width="4.4" height="25.2" />
		<rect x="479.6" y="272.9" class="st8" width="4.4" height="25.2" />
		<rect x="479.6" y="356.4" class="st8" width="4.4" height="25.2" />
		<rect x="479.3" y="397.1" class="st8" width="4.4" height="25.2" />
		<rect x="479.5" y="437.5" class="st8" width="4.4" height="25.2" />
		<rect x="479.3" y="476.9" class="st8" width="4.4" height="25.2" />
		<rect x="479.3" y="519.2" class="st8" width="4.4" height="25.2" />
		<rect x="479.6" y="562.5" class="st8" width="4.4" height="25.2" />
		<rect x="479.5" y="602.3" class="st8" width="4.4" height="25.2" />
		<rect x="479.4" y="644" class="st8" width="4.4" height="25.2" />
		<rect x="618.8" y="234.3" class="st8" width="4.4" height="25.2" />
		<rect x="618.5" y="194.2" class="st8" width="4.4" height="25.2" />
		<rect x="618.8" y="272.9" class="st8" width="4.4" height="25.2" />
		<rect x="618.8" y="356.4" class="st8" width="4.4" height="25.2" />
		<rect x="618.5" y="397.1" class="st8" width="4.4" height="25.2" />
		<rect x="618.7" y="437.5" class="st8" width="4.4" height="25.2" />
		<rect x="618.5" y="476.9" class="st8" width="4.4" height="25.2" />
		<rect x="618.5" y="519.2" class="st8" width="4.4" height="25.2" />
		<rect x="618.8" y="562.5" class="st8" width="4.4" height="25.2" />
		<rect x="618.7" y="602.3" class="st8" width="4.4" height="25.2" />
		<rect x="618.6" y="644" class="st8" width="4.4" height="25.2" />
		<rect x="641.2" y="234.3" class="st8" width="4.4" height="25.2" />
		<rect x="640.9" y="194.2" class="st8" width="4.4" height="25.2" />
		<rect x="641.2" y="272.9" class="st8" width="4.4" height="25.2" />
		<rect x="641.2" y="356.4" class="st8" width="4.4" height="25.2" />
		<rect x="640.9" y="397.1" class="st8" width="4.4" height="25.2" />
		<rect x="641.1" y="437.5" class="st8" width="4.4" height="25.2" />
		<rect x="640.9" y="476.9" class="st8" width="4.4" height="25.2" />
		<rect x="640.9" y="519.2" class="st8" width="4.4" height="25.2" />
		<rect x="641.2" y="562.5" class="st8" width="4.4" height="25.2" />
		<rect x="641.1" y="602.3" class="st8" width="4.4" height="25.2" />
		<rect x="641" y="644" class="st8" width="4.4" height="25.2" />
		<rect x="781.5" y="235.3" class="st8" width="4.4" height="25.2" />
		<rect x="781.2" y="195.1" class="st8" width="4.4" height="25.2" />
		<rect x="781.5" y="273.8" class="st8" width="4.4" height="25.2" />
		<rect x="781.5" y="357.3" class="st8" width="4.4" height="25.2" />
		<rect x="781.2" y="398" class="st8" width="4.4" height="25.2" />
		<rect x="781.4" y="438.5" class="st8" width="4.4" height="25.2" />
		<rect x="781.2" y="477.9" class="st8" width="4.4" height="25.2" />
		<rect x="781.1" y="520.1" class="st8" width="4.4" height="25.2" />
		<rect x="781.5" y="563.4" class="st8" width="4.4" height="25.2" />
		<rect x="781.3" y="603.2" class="st8" width="4.4" height="25.2" />
		<rect x="781.2" y="644.9" class="st8" width="4.4" height="25.2" />
		<rect x="781.4" y="314.6" class="st8" width="4.4" height="25.2" />
		<rect x="455.8" y="314.6" class="st8" width="4.4" height="25.2" />
		<rect x="479.4" y="314.6" class="st8" width="4.4" height="25.2" />
		<rect x="618.6" y="314.6" class="st8" width="4.4" height="25.2" />
		<rect x="641.4" y="315.4" class="st8" width="4.4" height="25.2" />
	</g>
</svg>