<?xml version="1.0" encoding="utf-8"?>
<!-- Generator: Adobe Illustrator 26.3.1, SVG Export Plug-In . SVG Version: 6.00 Build 0)  -->
<svg version="1.1" id="Ebene_1" xmlns="http://www.w3.org/2000/svg" xmlns:xlink="http://www.w3.org/1999/xlink" x="0px" y="0px"
	 viewBox="0 0 1024 768" style="enable-background:new 0 0 1024 768;" xml:space="preserve">
<style type="text/css">
	.st0{fill:#FFFFFF;}
	.st1{fill:#CCCCCC;}
	.st2{fill:#999999;}
	.st3{fill:#808080;}
	.st4{fill:#C1272D;}
	.st5{fill:#0071BC;}
	.st6{fill:#E6E6E6;}
</style>
<g>
	<path d="M26.17,680.89c3.74-0.05,7.48-0.09,11.1-0.14c0.95-1.18,0.65-2.38,0.66-3.49c0.11-8.24,0.15-16.48,0.27-24.72
		c0.09-5.73,0.27-11.47,0.42-17.2c0.01-0.41,0.11-0.82,0.18-1.39c0.7-0.12,1.39-0.33,2.08-0.33c11.06-0.01,22.13,0,33.19,0.02
		c8.14,0.01,16.28,0.04,24.42,0.03c0.71,0,1.41-0.17,2.24-0.27c0.06-0.94,0.16-1.76,0.16-2.58c0.04-3.34,0.06-6.68,0.06-10.01
		c0.03-17.31,0.04-34.63,0.07-51.94c0.01-8.66,0.06-17.31,0.07-25.97c0.09-40.99,0.18-81.98,0.26-122.97
		c0.04-20.55,0.06-41.1,0.1-61.64c0.02-10.01,0.05-20.03,0.09-30.04c0.04-10.12,0.11-20.23,0.15-30.35
		c0.07-17.42,0.14-34.84,0.17-52.25c0.05-22.74,0.06-45.48,0.09-68.22c0.01-9.07,0.04-18.15,0.05-27.22c0-1.13,0.15-2.28-0.26-3.44
		c-1.67-0.53-3.34-0.38-4.99-0.4c-4.59-0.05-9.18-0.06-13.78-0.07c-11.79-0.02-23.59-0.04-35.38-0.04c-1.02,0-2.03,0.09-3.21,0.15
		c-0.32,2.34-0.14,4.51-0.17,6.68c-0.03,2.09-0.01,4.17-0.01,6.26c0,2.19,0.01,4.38,0,6.57c-0.01,2.07-0.04,4.13-0.07,6.13
		c-2.34,0.61-8.03,0.72-12.15,0.26c-0.09-0.64-0.26-1.32-0.26-2.01c-0.03-4.28-0.02-8.55-0.01-12.83
		c0.03-13.56,0.07-27.12,0.11-40.68c0-0.92,0.07-1.85,0.11-2.95c0.67-0.12,1.25-0.32,1.83-0.33c2.3-0.04,4.59,0.02,6.89-0.05
		c1.02-0.03,2.04-0.26,3.06-0.4c0.21,0,0.42,0,0.63,0c1.26,0.74,2.65,0.4,3.98,0.41c46.21,0.02,92.42,0.01,138.63,0.01
		c0.94,0,1.88,0.04,2.82-0.03c0.61-0.04,1.2-0.26,1.81-0.39c8.35,0,16.71,0,25.06,0c0.81,0.14,1.62,0.38,2.43,0.4
		c2.09,0.06,4.18,0.01,6.26,0.03c0.92,0.01,1.85,0.09,2.91,0.14c0.09,0.72,0.24,1.32,0.24,1.91c-0.01,17.94-0.03,35.89-0.06,53.83
		c0,0.92-0.09,1.84-0.15,2.94c-4.05,0.48-7.95,0.11-12.06,0.25c-0.08-1.19-0.19-2.09-0.19-3c-0.01-6.26,0-12.52,0.01-18.78
		c0-1.04,0-2.07,0-3.22c-0.61-0.19-1.08-0.45-1.55-0.46c-5.32-0.05-10.65-0.06-15.97-0.08c-0.2,0-0.4,0.1-0.78,0.21
		c-0.12,0.49-0.31,1.06-0.38,1.65c-0.07,0.62-0.02,1.25-0.02,1.88c-0.02,16.38-0.05,32.76-0.06,49.14
		c-0.02,46.64-0.03,93.27-0.05,139.91c-0.01,25.46-0.03,50.91-0.05,76.37c-0.02,25.98-0.04,51.96-0.06,77.94
		c-0.02,17.11-0.04,34.22-0.06,51.33c0,1.24,0.05,2.47,0.08,3.91c0.94,0.1,1.74,0.26,2.53,0.25c3.34-0.01,6.68-0.08,10.02-0.12
		c0.83-0.01,1.66,0,2.26,0c0.98,0.81,0.83,1.69,0.84,2.5c0.03,4.38,0.03,8.76,0.07,13.15c0.01,1.02-0.2,2.08,0.36,3.2
		c2.5,0.58,5.11,0.2,7.68,0.26c2.5,0.06,5.01-0.02,7.52-0.03c2.61-0.01,5.22,0.01,7.83-0.01c2.61-0.01,5.22-0.06,7.83-0.08
		c2.61-0.02,5.22-0.02,7.83-0.03c2.51-0.01,5.01-0.08,7.52-0.02c2.58,0.06,5.18-0.26,7.73,0.13c0.14,0.43,0.32,0.71,0.33,1
		c0.08,18.78,0.14,37.56,0.19,56.33c0,0.29-0.19,0.58-0.36,1.05c-23.22,0-46.46,0-69.82,0c-0.76,2.28-0.39,4.42-0.27,6.71
		c0.77,0.09,1.46,0.25,2.16,0.25c3.55,0.03,7.1,0,10.65,0.02c0.81,0,1.61,0.12,2.57,0.19c0.46,5.52,0.04,10.93,0.44,16.21
		c0.95,0.76,1.92,0.5,2.83,0.5c12.95,0.02,25.89,0.02,38.84,0.01c12.74-0.01,25.47-0.02,38.21-0.04c5.74-0.01,11.48-0.03,17.23-0.06
		c0.92,0,1.83-0.1,2.9-0.16c0.12-0.73,0.27-1.32,0.29-1.91c0.04-1.25,0.02-2.5,0.02-3.76c0-147.84,0-295.68,0.02-443.52
		c0-1.43-0.32-2.91,0.32-4.28c2.51-0.42,20.08-0.44,22.84-0.04c0.82,0.86,0.55,1.96,0.55,2.96c-0.01,9.08-0.05,18.15-0.08,27.23
		c-0.01,4.59-0.02,9.18-0.01,13.77c0,0.61,0.07,1.23,0.1,1.73c0.28,0.23,0.42,0.46,0.59,0.47c5.2,0.38,10.41,0.12,15.39,0.17
		c0.98-0.84,0.75-1.72,0.75-2.52c0.02-5.84,0.01-11.69,0.01-17.53c0-1.14,0-2.28,0-3.57c0.7-0.16,1.27-0.38,1.85-0.4
		c1.67-0.05,3.34-0.1,5.01,0c1.54,0.09,2.82-0.34,4.09-1.19c6.04-4.08,12.7-6.73,19.8-8.23c4.92-1.04,9.89-1.36,14.93-0.81
		c3.96,0.43,7.81,1.24,11.58,2.52c4.29,1.46,8.25,3.52,11.8,6.31c1.24,0.98,2.47,1.41,4.01,1.33c1.35-0.08,2.71-0.04,4.07,0
		c0.61,0.02,1.21,0.15,2,0.25c0.58,7.85-0.42,15.66,0.16,23.53c1.96,0.62,3.84,0.27,5.68,0.32c1.88,0.06,3.76,0.06,5.64,0
		c1.84-0.06,3.72,0.17,5.74-0.29c0.23-3.97,0.08-7.81,0.11-11.65c0.02-3.76,0.01-7.51,0.01-11.27c0-3.86,0-7.72,0-11.58
		c0-3.75,0-7.5,0-11.08c0.93-0.96,1.92-0.68,2.82-0.69c6.68-0.03,13.36-0.03,20.05-0.03c6.47,0,12.95,0.01,19.42,0.02
		c1.03,0,2.05,0.07,3.11,0.1c0.61,1.21,0.36,2.37,0.36,3.48c-0.01,13.25-0.04,26.5-0.06,39.75c0,1.12,0.07,2.24,0.12,3.52
		c2.03,0.35,3.9,0.15,5.75,0.18c1.77,0.03,3.55,0.03,5.32,0c1.86-0.03,3.72,0.15,5.56-0.05c0.68-1.1,0.44-2.16,0.45-3.17
		c0.05-5.95,0.05-11.89,0.09-17.84c0.01-0.82,0.12-1.64,0.19-2.59c0.7-0.1,1.29-0.24,1.88-0.27c1.04-0.04,2.09-0.01,3.13-0.02
		c4.47-0.05,3.49,0.12,6.97-2c11.33-6.91,23.58-9.94,36.84-7.86c7.1,1.11,13.73,3.58,19.45,8.02c1.62,1.26,3.24,1.69,5.18,1.62
		c1.75-0.06,3.53-0.15,5.45,0.19c0.38,2.68,0.16,5.27,0.17,7.84c0.01,2.61-0.01,5.22-0.01,7.82c0,2.6,0,5.21,0,7.9
		c0.44,0.16,0.81,0.41,1.18,0.41c4.91,0.03,9.81,0.02,14.72,0c0.29,0,0.58-0.17,1.04-0.31c0.4-3.81,0.14-7.65,0.18-11.48
		c0.05-3.96,0.01-7.93,0.01-11.89c0-3.86,0-7.72,0-11.58c0-3.85,0-7.7,0-11.34c0.95-1.03,1.95-0.77,2.85-0.78
		c6.79-0.03,13.57-0.04,20.36-0.04c6.26,0,12.53,0.01,18.79,0.04c1.13,0.01,2.3-0.23,3.57,0.48c0.45,2.46,0.16,5.06,0.2,7.64
		c0.04,2.61-0.07,5.21-0.09,7.82c-0.02,2.61-0.02,5.22-0.02,7.82c0,2.5,0,5.01,0,7.51c-0.01,2.61-0.05,5.22-0.03,7.82
		c0.02,2.59-0.11,5.18,0.12,7.93c1.97,0.53,3.84,0.22,5.68,0.27c1.88,0.05,3.76,0.03,5.64,0.01c1.85-0.02,3.71,0.13,5.72-0.17
		c0.28-4.11,0.12-8.05,0.25-11.99c0.14-3.93-0.14-7.88,0.26-11.96c0.65-0.07,1.14-0.17,1.64-0.17c1.57-0.02,3.14-0.09,4.7,0.01
		c1.75,0.11,3.19-0.39,4.67-1.35c6.81-4.47,14.27-7.38,22.33-8.5c10.17-1.41,19.99-0.12,29.2,4.62c2.12,1.09,4.15,2.41,6.07,3.84
		c1.25,0.94,2.48,1.38,4.02,1.29c1.46-0.08,2.92-0.03,4.38,0c0.5,0.01,1,0.11,1.69,0.19c0.32,2.71,0.14,5.3,0.15,7.88
		c0.01,2.71-0.1,5.42-0.1,8.13c0,2.58-0.13,5.17,0.14,7.85c1.92,0.47,3.69,0.22,5.44,0.26c1.88,0.04,3.76,0.03,5.64,0
		c1.75-0.02,3.52,0.13,5.31-0.17c0.53-1.22,0.35-2.38,0.35-3.49c0.01-13.25,0.01-26.5,0.01-39.75c0-1.14,0-2.28,0-3.49
		c0.52-0.18,0.9-0.41,1.28-0.42c6.89-0.02,13.78-0.02,20.67-0.01c0.4,0,0.8,0.14,1.3,0.23c0.18,0.5,0.44,0.97,0.49,1.46
		c0.09,0.83,0.05,1.67,0.05,2.5c0.01,13.98,0.03,27.96,0.04,41.94c0.02,43.4,0.03,86.8,0.05,130.21c0.01,24,0.03,47.99,0.06,71.99
		c0.03,24.1,0.07,48.2,0.11,72.3c0.05,24.41,0.11,48.82,0.15,73.24c0.04,19.41,0.06,38.81,0.1,58.22c0,1.22-0.17,2.48,0.21,3.56
		c0.36,0.17,0.55,0.34,0.73,0.33c19.83-0.14,39.66-0.28,59.5-0.44c0.29,0,0.58-0.16,0.99-0.27c0.52-2.01,0-4.11,0.35-6.33
		c0.74-0.11,1.42-0.31,2.1-0.31c6.16-0.06,12.32-0.09,18.48-0.14c1.13-0.01,2.26-0.07,3.28-0.1c0.87-1.24,0.57-2.41,0.57-3.52
		c-0.02-3.96-0.1-7.93-0.14-11.89c-0.01-0.82,0.07-1.65,0.11-2.38c0.86-0.89,1.86-0.6,2.75-0.6c8.87-0.05,17.75-0.07,26.62-0.11
		c12.63-0.05,25.26-0.1,37.9-0.19c8.14-0.06,16.28-0.2,24.42-0.28c0.92-0.01,1.85,0.07,2.79,0.11c0.69,1.16,0.43,2.33,0.43,3.44
		c0,10.95-0.02,21.91-0.04,32.86c0,0.83,0.01,1.67-0.03,2.5c-0.02,0.39-0.14,0.78-0.26,1.35c-5.06,0.46-10.05,0.05-15.03,0.06
		c-5.01,0.02-10.02-0.07-15.03-0.15c-4.99-0.08-9.97,0.01-14.86-0.09c-0.6,2.65-0.54,9.77,0.02,12.7c0.07,0.07,0.14,0.16,0.22,0.2
		c0.09,0.05,0.2,0.07,0.3,0.08c0.21,0.03,0.41,0.07,0.62,0.08c0.73,0.01,1.46,0.02,2.19,0.02c26.1-0.01,52.2-0.03,78.3-0.04
		c0,5.01,0,10.02,0,15.03c-328.07,0-656.14,0-984.22,0C26.17,689.66,26.17,685.28,26.17,680.89z M691.44,493.68
		c-2.32,0.24-4.39,0.14-6.46,0.13c-9.29-0.04-18.58-0.09-27.86-0.13c-0.8,0-1.6,0.14-2.53,0.22c-0.05,1.2-0.11,2.23-0.12,3.25
		c-0.05,8.76-0.09,17.52-0.12,26.28c-0.08,24.19-0.16,48.39-0.24,72.58c-0.03,7.51-0.08,15.02-0.1,22.53
		c-0.03,10.43-0.05,20.86-0.05,31.29c0,0.69,0.19,1.38,0.31,2.23c1.29,0.02,2.42,0.05,3.56,0.05c28.28-0.01,56.57-0.03,84.85-0.05
		c7.62,0,15.24-0.01,22.86-0.04c0.9,0,1.89,0.29,2.85-0.65c0.02-0.97,0.07-2.1,0.07-3.23c0.03-19.92,0.06-39.84,0.06-59.76
		c0.01-30.04,0-60.07,0-90.11c0-0.83,0.04-1.67-0.02-2.5c-0.04-0.58-0.22-1.16-0.37-1.93c-3.16-0.03-6.17-0.07-9.18-0.09
		c-3.13-0.02-6.26-0.03-9.39-0.04c-3.03-0.01-6.05,0.01-9.08-0.06c-3.1-0.07-6.22,0.26-9.51-0.25c-0.07-1.02-0.19-1.93-0.19-2.83
		c-0.03-2.82,0.01-5.63-0.03-8.45c-0.01-0.69-0.22-1.38-0.34-2.1c-0.68-0.06-1.2-0.14-1.71-0.14c-12.1,0.01-24.21,0.03-36.31,0.06
		c-0.1,0-0.21,0.03-0.3,0.08c-0.09,0.05-0.15,0.13-0.42,0.38C691.35,484.58,691.73,488.94,691.44,493.68z M494.9,652.06
		c1.18,0.02,2.42,0.06,3.65,0.06c28.81,0,57.63,0,86.44,0c7.2,0,14.41,0.01,21.61-0.01c0.91,0,1.82-0.11,2.74-0.17
		c0.48-1.51,0.3-2.87,0.3-4.2c0.01-49.66,0.01-99.32,0.01-148.98c0-0.83,0.04-1.67-0.02-2.5c-0.04-0.58-0.22-1.16-0.38-1.92
		c-1.6,0-3.05,0.01-4.5,0c-9.92-0.05-19.83-0.1-29.75-0.17c-0.81-0.01-1.61-0.15-2.61-0.24c-0.14-2.35-0.02-4.53-0.09-6.71
		c-0.07-2.16,0.3-4.36-0.32-6.55c-0.46-0.11-0.85-0.3-1.24-0.3c-12.32-0.07-24.63-0.12-36.95-0.17c-0.4,0-0.8,0.15-1.34,0.26
		c-0.07,0.86-0.2,1.67-0.2,2.47c-0.02,3.03,0,6.05-0.02,9.08c-0.01,0.7-0.16,1.4-0.26,2.2c-0.96,0.06-1.78,0.15-2.6,0.15
		c-10.44-0.04-20.88-0.11-31.32-0.15c-0.91,0-1.81,0.11-2.81,0.17c-0.11,0.81-0.26,1.42-0.26,2.03
		c-0.16,51.53-0.32,103.06-0.45,154.6C494.51,651.27,494.71,651.56,494.9,652.06z M450.2,651.27c0.03-1.52,0.07-2.85,0.07-4.19
		c0-49.56,0-99.11,0-148.67c0-0.83,0.02-1.67-0.02-2.5c-0.03-0.6-0.14-1.19-0.25-2.09c-6.28-0.05-12.41-0.05-18.54-0.11
		c-6.13-0.06-12.27,0.1-18.58-0.22c-0.08-0.87-0.19-1.57-0.19-2.27c-0.02-3.03,0-6.05-0.02-9.08c-0.01-0.71-0.14-1.41-0.23-2.28
		c-1.56-0.12-3-0.29-4.45-0.32c-2.61-0.05-5.22-0.01-7.83-0.02c-7.73,0-15.45-0.02-23.18,0c-1.11,0-2.3-0.32-3.47,0.63
		c-0.03,0.92-0.08,1.95-0.09,2.98c-0.01,2.92,0.01,5.84-0.03,8.76c-0.01,0.58-0.19,1.17-0.32,1.89c-1.19,0-2.22,0-3.25,0
		c-10.02-0.05-20.04-0.11-30.07-0.14c-1.11,0-2.28-0.23-3.31,0.25c-0.49,3.15-1.29,142.87-0.9,155.29c0.02,0.6,0.15,1.2,0.24,1.9
		c0.61,0.09,1.11,0.22,1.61,0.24C345.64,651.67,447.14,651.66,450.2,651.27z M131.89,146.89c0,1.33,0,2.26,0,3.2
		c-0.1,24.72-0.2,49.44-0.28,74.16c-0.07,19.51-0.12,39.01-0.15,58.52c-0.04,23.47-0.06,46.94-0.1,70.41
		c-0.03,16.06-0.07,32.13-0.13,48.19c-0.07,20.13-0.18,40.26-0.26,60.39c-0.04,9.7-0.06,19.4-0.08,29.1
		c-0.03,15.65-0.04,31.29-0.07,46.94c-0.05,23.78-0.11,47.57-0.15,71.35c-0.01,7.2-0.01,14.4,0.01,21.59c0,0.9-0.25,1.88,0.5,2.8
		c0.32,0.05,0.72,0.17,1.12,0.18c11.38,0.06,22.75,0.12,34.13,0.16c0.29,0,0.57-0.17,1.07-0.32c0.17-2.11,0.44-4.23-0.21-6.42
		c-1.62-0.12-3.15-0.23-4.73-0.35c-0.48-1.23-0.32-2.38-0.32-3.51c-0.01-11.68-0.01-23.37-0.01-35.05c0-5.84-0.01-11.68,0.01-17.52
		c0-0.8-0.26-1.69,0.56-2.38c1.16-0.1,2.37-0.21,3.71-0.33c0.06-1.1,0.16-2.02,0.16-2.94c0.1-21.59,0.2-43.18,0.27-64.77
		c0.07-20.76,0.11-41.51,0.14-62.27c0.1-57.06,0.19-114.11,0.28-171.17c0.01-6.88,0.05-13.77,0.07-20.65
		c0.04-18.98,0.08-37.97,0.12-56.95c0-1.36,0.03-2.71,0.03-4.07c0.03-11.79,0.06-23.57,0.06-35.36c0-0.91,0.24-1.89-0.45-2.68
		c-2.6-0.39-20.92-0.61-32.84-0.4C133.66,146.73,132.96,146.82,131.89,146.89z M129.35,633.42c0.6-1,0.37-2.07,0.37-3.09
		c0.1-18.36,0.2-36.71,0.27-55.07c0.07-20.24,0.11-40.47,0.14-60.71c0.04-27.64,0.06-55.28,0.1-82.93
		c0.02-11.37,0.07-22.74,0.12-34.11c0.08-20.13,0.19-40.26,0.26-60.39c0.07-19.71,0.11-39.43,0.14-59.14
		c0.06-33.69,0.1-67.38,0.16-101.07c0.01-8.87,0.06-17.73,0.06-26.6c0-1.11,0.2-2.27-0.24-3.24c-0.37-0.14-0.55-0.28-0.74-0.28
		c-8.45-0.12-16.9-0.23-25.35-0.32c-0.49-0.01-0.97,0.18-1.61,0.31c-0.06,1.16-0.15,2.18-0.16,3.21c-0.05,9.39-0.1,18.77-0.12,28.16
		c-0.05,20.03-0.08,40.05-0.11,60.08c-0.05,30.15-0.09,60.29-0.16,90.44c-0.05,20.03-0.15,40.05-0.23,60.08
		c-0.04,10.12-0.11,20.23-0.12,30.35c-0.04,28.27-0.05,56.54-0.07,84.8c-0.02,30.04-0.05,60.08-0.08,90.12
		c0,0.94-0.03,1.88-0.03,2.82c-0.03,11.47-0.06,22.95-0.08,34.42c0,0.7,0.15,1.4,0.24,2.14c0.54,0.11,0.94,0.25,1.34,0.25
		c8.35,0.02,16.7,0.03,25.05,0.03C128.79,633.68,129.08,633.5,129.35,633.42z M1009.72,680.02c-1.34-0.07-2.26-0.16-3.18-0.15
		c-3.03,0.03-6.05,0.12-9.08,0.13c-12.01,0.05-24.01,0.09-36.02,0.1c-23.59,0.04-47.19,0.06-70.78,0.08
		c-40.09,0.04-80.18,0.06-120.27,0.1c-19.21,0.02-38.42,0.05-57.63,0.1c-24.01,0.07-48.02,0.16-72.03,0.25
		c-11.69,0.04-23.38,0.08-35.08,0.1c-27.98,0.05-55.96,0.11-83.94,0.13c-21.09,0.02-42.18-0.02-63.27,0
		c-22.13,0.01-44.27,0.05-66.4,0.09c-23.91,0.04-47.81,0.09-71.72,0.15c-11.8,0.03-23.59,0.11-35.39,0.16
		c-12.42,0.05-24.85,0.08-37.27,0.11c-11.27,0.03-22.55,0.05-33.82,0.06c-24.53,0.04-49.07,0.09-73.6,0.1
		c-27.46,0.02-54.91,0-82.37,0c-8.87,0-17.75,0.02-26.62,0.04c-1.03,0-2.06,0.03-3.03,0.05c-0.73,2.65-0.7,8.67,0.06,11.14
		c1.28,0,2.62,0,3.97,0c132.69,0.01,265.39,0.03,398.08,0.04c89.47,0.01,178.94,0.02,268.42,0.02c98.14,0,196.27,0,294.41,0.01
		c4.8,0,9.6,0.07,14.4,0.08c0.69,0,1.38-0.17,2.24-0.29c0-0.89,0.01-1.6,0-2.32C1009.79,686.98,1009.75,683.65,1009.72,680.02z
		 M168.58,146.95c-0.06,1.34-0.15,2.36-0.16,3.39c-0.04,12.62-0.08,25.25-0.09,37.87c-0.04,40.48-0.06,80.97-0.1,121.45
		c-0.01,12.31-0.08,24.62-0.14,36.93c-0.07,12.41-0.22,24.83-0.24,37.24c-0.06,30.57-0.07,61.14-0.1,91.71
		c-0.02,19.3-0.03,38.6-0.05,57.91c0,0.83-0.03,1.67-0.03,2.5c-0.01,10.02-0.02,20.03-0.01,30.05c0,0.68,0.18,1.37,0.27,2
		c4.05,0.41,14.58,0.4,16.89-0.02c0.04-0.75,0.14-1.56,0.13-2.37c-0.04-4.49-0.11-8.97-0.14-13.46c-0.01-0.7,0.13-1.39,0.22-2.25
		c1.08-0.07,1.99-0.17,2.91-0.19c2.09-0.05,4.18-0.03,6.26-0.09c0.58-0.02,1.15-0.24,1.87-0.41c0-1.18,0-2.21,0-3.25
		c0.02-17.53,0.05-35.06,0.07-52.58c0.03-25.46,0.06-50.91,0.1-76.37c0.04-25.77,0.12-51.54,0.16-77.31
		c0.04-25.98,0.06-51.96,0.08-77.94c0.01-23.27,0-46.53,0-69.8c0-1.04,0.03-2.09,0.03-3.13c0.01-13.25,0.02-26.5,0.02-39.75
		c0-0.59-0.14-1.19-0.22-1.88c-0.66-0.1-1.16-0.24-1.66-0.24C186.09,146.95,177.54,146.95,168.58,146.95z M791.84,678.91
		c0.02-1.19,0.06-2.43,0.05-3.67c-0.02-30.78-0.04-61.56-0.06-92.34c-0.01-21.7-0.02-43.4-0.03-65.1
		c-0.02-24.83-0.04-49.66-0.05-74.49c-0.01-23.37-0.03-46.74-0.04-70.11c-0.02-40.79-0.03-81.59-0.05-122.38
		c-0.01-16.48-0.04-32.97-0.06-49.45c0-0.83,0.01-1.67-0.05-2.5c-0.03-0.4-0.2-0.78-0.37-1.37c-2.42-0.02-4.8-0.05-7.19-0.06
		c-2.4-0.01-4.8-0.04-7.2,0.01c-2.36,0.05-4.75-0.25-7.14,0.25c-0.11,0.57-0.25,0.97-0.25,1.37c-0.05,159.73-0.1,319.47-0.13,479.2
		c0,0.29,0.17,0.57,0.3,0.97c0.38,0.09,0.77,0.25,1.17,0.25c6.68-0.04,13.36-0.09,20.04-0.17
		C791.06,679.3,791.34,679.1,791.84,678.91z M451.29,198.1c-0.39,2.89-0.37,478.89,0.01,481.52c2.29,0.77,4.7,0.31,7.06,0.38
		c2.29,0.07,4.6,0.09,6.89-0.08c2.35-0.18,4.75,0.35,7.15-0.44c0.07-0.84,0.17-1.55,0.18-2.27c0.06-3.96,0.12-7.93,0.13-11.89
		c0.05-21.59,0.09-43.19,0.12-64.78c0.03-22.22,0.07-44.44,0.09-66.66c0.02-19.72-0.01-39.43,0.04-59.15
		c0.05-17.42,0.18-34.84,0.27-52.25c0.04-6.57,0.11-13.14,0.12-19.71c0.03-30.88,0.05-61.76,0.07-92.63
		c0.01-11.58,0.01-23.16,0.03-34.74c0.04-24.72,0.08-49.45,0.11-74.17c0-1.02,0.21-2.08-0.38-3.22c-0.51-0.09-1.1-0.26-1.7-0.28
		C464.67,197.46,453.84,197.64,451.29,198.1z M633.06,197.77c-0.07,1.12-0.16,2.04-0.17,2.97c-0.05,8.03-0.12,16.06-0.13,24.09
		c-0.04,19.09-0.05,38.18-0.07,57.27c-0.05,42.98-0.08,85.95-0.14,128.93c-0.02,16.38-0.07,32.75-0.13,49.13
		c-0.07,20.02-0.18,40.05-0.26,60.07c-0.04,10.64-0.06,21.28-0.08,31.92c-0.03,17.52-0.04,35.05-0.06,52.57
		c-0.02,10.74-0.06,21.49-0.08,32.23c-0.03,13.46-0.05,26.91-0.06,40.37c0,0.7,0.09,1.4,0.17,2.37c3.62,0.04,7.04,0.1,10.46,0
		c3.4-0.09,6.82,0.25,10.4-0.29c0.08-2.01,0.22-3.87,0.23-5.73c0.06-12.83,0.1-25.66,0.12-38.49c0.05-23.89,0.05-47.77,0.13-71.66
		c0.09-27.54,0.24-55.07,0.35-82.61c0.03-7.72,0.06-15.44,0.08-23.16c0.06-18.04,0.09-36.09,0.17-54.13
		c0.11-26.18,0.28-52.36,0.39-78.54c0.07-17.73,0.09-35.46,0.13-53.2c0.02-7.3,0.03-14.6,0.04-21.91
		c0.02-16.38,0.04-32.75,0.05-49.13c0-1.01-0.1-2.03-0.15-2.99C651.85,197.41,636.44,197.35,633.06,197.77z M314.55,197.69
		c-0.5,1.71-0.3,3.18-0.3,4.61c-0.01,149.59-0.01,299.18-0.01,448.77c0,8.66-0.01,17.32,0.01,25.98c0,1.01-0.26,2.08,0.51,3.17
		c2.13,0.02,4.31,0.05,6.48,0.05c2.19,0,4.39,0.03,6.58-0.06c2.15-0.08,4.34,0.36,6.53-0.35c0.05-0.93,0.12-1.75,0.12-2.58
		c0.14-22.32,0.28-44.64,0.4-66.96c0.07-12.41,0.1-24.83,0.14-37.24c0.06-20.34,0.1-40.68,0.16-61.02
		c0.06-18.46,0.12-36.93,0.19-55.39c0.07-19.71,0.17-39.43,0.22-59.14c0.06-23.89,0.09-47.78,0.14-71.66
		c0.01-6.88,0.03-13.77,0.08-20.65c0.1-15.54,0.24-31.08,0.33-46.62c0.06-10.74,0.09-21.49,0.11-32.23
		c0.02-8.66,0.04-17.32,0.03-25.97c0-0.9,0.29-1.9-0.61-2.7C328.74,197.69,321.77,197.69,314.55,197.69z M630.76,679.36
		c0.05-0.85,0.16-1.76,0.16-2.67c0.1-14.29,0.21-28.58,0.26-42.87c0.07-19.71,0.11-39.43,0.14-59.14
		c0.04-25.56,0.06-51.11,0.1-76.67c0.02-13.98,0.07-27.96,0.12-41.93c0.08-20.55,0.18-41.1,0.26-61.64
		c0.04-9.39,0.06-18.78,0.08-28.16c0.03-15.75,0.05-31.5,0.06-47.25c0.03-32.23,0.04-64.47,0.06-96.7c0.01-7.3,0.03-14.6,0.01-21.91
		c0-0.9,0.26-1.88-0.45-2.71c-0.29-0.06-0.59-0.17-0.89-0.17c-6.26-0.01-12.53-0.01-18.79,0.01c-0.38,0-0.76,0.2-1.34,0.37
		c0,1.62,0,3.17,0,4.72c0,157.41,0,314.82,0,472.24c0,0.94-0.02,1.88,0.01,2.82c0.02,0.59,0.13,1.18,0.19,1.72
		C613.83,679.84,628.01,679.81,630.76,679.36z M354.68,338.01c1.55-0.55,3.02-0.37,4.44-0.3c2.06,0.1,3.77-0.46,5.55-1.58
		c9.78-6.12,20.37-9.47,32.03-8.85c8.39,0.45,16.19,2.78,23.26,7.39c1.39,0.91,2.65,2.21,4.17,2.66c1.53,0.46,3.31,0.05,4.98,0.1
		c1.43,0.04,2.9-0.23,4.58,0.34c0.21,2.58-0.09,5.16-0.03,7.73c0.06,2.71,0.02,5.42,0,8.14c-0.02,2.58-0.41,5.17,0.27,7.98
		c2.74,0.09,5.44,0.1,8.13,0.03c2.66-0.07,5.36,0.37,7.96-0.28c0.4-3.37,0.6-86.15,0.25-100.59c-0.01-0.61-0.12-1.21-0.2-1.95
		c-0.79-0.11-1.49-0.28-2.2-0.29c-3.23-0.06-6.47-0.08-9.7-0.1c-7.62-0.05-15.24-0.08-22.86-0.13c-0.7-0.01-1.39-0.13-2.23-0.22
		c-0.06-1.09-0.15-2-0.16-2.92c-0.02-2.92,0-5.84-0.03-8.76c-0.01-0.58-0.19-1.16-0.28-1.71c-0.5-0.09-0.8-0.18-1.1-0.18
		c-12-0.02-24.01-0.04-36.01-0.05c-0.49,0-0.98,0.15-1.67,0.26c-0.02,2.3,0,4.48-0.08,6.64c-0.08,2.26,0.29,4.56-0.28,6.91
		c-0.79,0.09-1.5,0.23-2.21,0.24c-2.19,0.02-4.38-0.02-6.57-0.03c-8.56-0.05-17.12-0.11-25.67-0.15c-0.6,0-1.19,0.12-1.92,0.2
		c-0.07,0.98-0.16,1.79-0.17,2.6c-0.13,25.34-0.25,50.69-0.37,76.03c-0.03,7.09-0.09,14.18-0.1,21.28c0,1.01-0.27,2.1,0.49,2.97
		c0.24,0.07,0.44,0.17,0.64,0.17c5.22,0.01,10.44,0.02,15.66,0.01c0.38,0,0.75-0.23,1.28-0.4c0-3.92-0.03-7.78,0.01-11.63
		C354.56,345.73,354.33,341.89,354.68,338.01z M532.94,376.6c-1.12,0-1.94,0-2.76,0c-3.24,0-6.47,0-9.71-0.01
		c-7.41-0.01-14.83-0.04-22.24-0.03c-0.89,0-1.89-0.29-2.84,0.78c0,3.53,0,7.28,0,11.03c0,3.76,0.01,7.51,0,11.27
		c-0.01,3.86-0.04,7.72-0.05,11.58c-0.01,3.76-0.03,7.51-0.04,11.27c-0.01,3.76,0,7.51-0.02,11.27c-0.01,3.76-0.05,7.51-0.06,11.27
		c-0.01,3.86,0.01,7.72-0.01,11.58c-0.02,3.76-0.1,7.51-0.09,11.27c0.01,3.72-0.15,7.45,0.11,11.12c2.98,0.39,13.84,0.39,16.48,0.01
		c0.63-1.89,0.22-3.9,0.36-5.85c0.13-1.87,0.06-3.75,0.07-5.63c0.01-1.98-0.02-3.97,0.01-5.95c0.03-1.95-0.15-3.92,0.17-6.01
		c2.02-0.31,3.89-0.24,5.74-0.15c2.08,0.11,3.77-0.53,5.53-1.64c9.77-6.17,20.38-9.45,32.04-8.85c8.62,0.44,16.6,2.89,23.81,7.7
		c2.11,2.22,4.72,2.75,7.68,2.44c1.29-0.14,2.7-0.36,4.13,0.47c0.02,0.99,0.05,2.02,0.05,3.05c-0.02,6.05-0.07,12.1-0.08,18.15
		c0,0.79,0.17,1.58,0.28,2.54c2.18,0,4.15,0,6.12,0c1.98,0,3.97,0.06,5.95-0.02c1.94-0.07,3.93,0.36,5.81-0.32
		c0.39-3.02,0.6-88.57,0.25-100.24c-0.02-0.6-0.12-1.2-0.2-1.99c-1.15-0.06-2.17-0.15-3.19-0.15c-9.71-0.07-19.42-0.12-29.13-0.18
		c-1.55-0.01-3.11,0-4.84-0.44c-0.05-1.07-0.13-2.08-0.14-3.1c-0.02-2.82,0.01-5.63-0.03-8.45c-0.01-0.58-0.23-1.15-0.37-1.76
		c-0.59-0.07-1-0.17-1.4-0.17c-11.8-0.02-23.6-0.04-35.39-0.04c-0.48,0-0.97,0.18-1.54,0.3
		C532.82,367.28,533.51,371.77,532.94,376.6z M768.4,361.41c0.05-1.11,0.12-2.02,0.13-2.94c0.03-6.26,0.05-12.52,0.05-18.78
		c0.01-25.46,0-50.91,0-76.37c0-0.83,0.03-1.67-0.02-2.5c-0.03-0.6-0.17-1.19-0.26-1.84c-0.65-0.08-1.16-0.18-1.66-0.19
		c-2.92-0.05-5.84-0.08-8.77-0.12c-8.04-0.09-16.07-0.16-24.11-0.26c-0.69-0.01-1.38-0.19-2.24-0.32c0-1.19,0-2.23,0-3.26
		c0-2.71,0.01-5.43-0.02-8.14c-0.01-0.59-0.21-1.17-0.35-1.9c-1.17-0.04-2.2-0.11-3.22-0.12c-3.55-0.03-7.1-0.06-10.65-0.06
		c-7.73-0.01-15.45-0.02-23.18,0c-0.58,0-1.16,0.24-1.93,0.4c0,1.16,0,2.19,0,3.22c0,2.71,0.01,5.43-0.02,8.14
		c-0.01,0.59-0.19,1.17-0.32,1.94c-1.28,0-2.42,0-3.55,0c-9.92,0.02-19.84,0.03-29.76,0.07c-1,0-2.09-0.3-3.17,0.6
		c-0.03,0.9-0.1,1.93-0.1,2.96c-0.02,6.26-0.01,12.52-0.03,18.78c-0.04,16.38-0.09,32.76-0.13,49.14
		c-0.02,9.39-0.04,18.78-0.05,28.17c0,1.12-0.16,2.27,0.31,3.52c2.98,0.18,5.88,0.12,8.78,0.07c2.98-0.04,5.99,0.28,9.09-0.25
		c0.04-1.19,0.11-2.21,0.11-3.24c0.01-5.95,0-11.89,0.02-17.84c0-0.8-0.24-1.69,0.69-2.51c2,0,4.19-0.04,6.37,0.02
		c1.3,0.03,2.42-0.26,3.51-0.99c7.68-5.11,16.06-8.25,25.28-9.28c4.63-0.51,9.21-0.3,13.72,0.46c7.18,1.22,13.85,3.87,19.62,8.44
		c0.96,0.76,1.93,1.15,3.14,1.12c1.56-0.04,3.13-0.02,4.7,0.01c0.59,0.01,1.18,0.15,1.96,0.25c0.03,2.14,0.06,4.1,0.07,6.06
		c0.01,1.88,0,3.76,0,5.63c0,1.98-0.02,3.96,0.01,5.95c0.03,1.96-0.12,3.93,0.16,5.81C755.05,361.73,764.55,361.81,768.4,361.41z
		 M474.76,197.99c-0.11,0.75-0.29,1.44-0.3,2.14c-0.08,3.96-0.16,7.92-0.17,11.89c-0.06,22.01-0.12,44.02-0.14,66.03
		c-0.03,30.56-0.01,61.13-0.05,91.69c-0.04,34.84-0.12,69.68-0.2,104.51c-0.02,11.06-0.09,22.11-0.14,33.17
		c-0.04,10.74-0.1,21.49-0.12,32.23c-0.05,24.3-0.09,48.61-0.12,72.91c-0.02,17.94-0.02,35.88-0.04,53.82
		c0,3.75-0.05,7.51-0.03,11.26c0,0.69,0.19,1.38,0.32,2.24c3.4,0,6.63,0.05,9.86-0.01c3.2-0.07,6.42,0.3,9.76-0.27
		c0.05-0.95,0.13-1.76,0.14-2.57c0.27-31.49,0.05-62.99,0.41-94.48c0.41-35.67,0.19-71.35,0.3-107.02
		c0.08-24.82,0.26-49.65,0.38-74.47c0.06-12.52,0.1-25.03,0.14-37.55c0.08-24.72,0.15-49.44,0.23-74.16
		c0.07-23.26,0.16-46.52,0.24-69.78c0.02-6.15,0.05-12.31,0.04-18.46c0-1.01,0.26-2.09-0.45-3.06c-0.27-0.09-0.56-0.26-0.85-0.26
		c-5.95-0.02-11.9-0.03-17.85-0.02C475.7,197.75,475.3,197.89,474.76,197.99z M355.32,454.78c2.06-0.05,3.72-0.21,5.37-0.11
		c2.49,0.16,4.56-0.54,6.72-1.87c12.21-7.5,25.33-10.47,39.56-7.45c5.89,1.25,11.42,3.43,16.21,7.07c2.05,1.56,4.04,2.4,6.57,2.14
		c1.03-0.11,2.09-0.07,3.13-0.03c0.5,0.02,1,0.18,1.56,0.29c0.45,2.68,0.11,5.28,0.13,7.86c0.03,2.71-0.06,5.43,0.02,8.14
		c0.08,2.57-0.36,5.16,0.02,7.66c1.83,0.36,11.49,0.7,14.24,0.52c0.39-0.03,0.77-0.21,1.07-0.3c0.13-0.32,0.26-0.51,0.28-0.7
		c0.04-0.73,0.07-1.46,0.07-2.19c-0.03-32.76-0.06-65.52-0.1-98.28c0-0.1-0.02-0.22-0.07-0.3c-0.05-0.09-0.15-0.14-0.52-0.47
		c-0.98-0.26-2.33-0.16-3.67-0.17c-10.02-0.04-20.05-0.05-30.07-0.1c-1-0.01-2.09,0.31-3.15-0.65c0-1.32,0-2.78,0-4.23
		c0-1.57,0.05-3.13-0.01-4.69c-0.06-1.42,0.3-2.89-0.29-4.2c-2.87-0.48-21.42-0.66-36.44-0.37c-0.7,0.01-1.41,0.12-2.28,0.2
		c-0.51,2.38-0.18,4.67-0.26,6.93c-0.09,2.27,0.13,4.55-0.16,7.02c-1.17,0.04-2.19,0.1-3.2,0.09c-10.23-0.07-20.46-0.16-30.69-0.22
		c-0.9-0.01-1.89-0.27-2.79,0.63c-0.04,0.27-0.15,0.67-0.15,1.07c-0.07,33.18-0.14,66.36-0.19,99.53c0,0.29,0.16,0.57,0.29,1.06
		c2.05,0.3,4.12,0.05,6.18,0.09c2.09,0.04,4.18,0.07,6.26-0.01c2.04-0.07,4.13,0.35,6.29-0.38
		C355.34,470.61,355.19,462.91,355.32,454.78z M609.6,361.41c0.02-1.65,0.05-3,0.05-4.35c0-31.09,0-62.19,0-93.28
		c0-0.94,0.02-1.88-0.03-2.82c-0.03-0.59-0.18-1.17-0.31-1.97c-6.21-0.09-12.25,0.03-18.28-0.11c-6.02-0.14-12.05,0.12-18.22-0.31
		c-0.08-1.01-0.19-1.82-0.2-2.63c-0.02-2.92,0.01-5.84-0.03-8.76c-0.01-0.69-0.2-1.38-0.31-2.12c-1.01-0.05-1.83-0.12-2.66-0.12
		c-10.86-0.03-21.72-0.06-32.57-0.07c-1.12,0-2.28-0.19-3.53,0.37c-0.06,1.05-0.15,2.07-0.16,3.09c-0.02,2.82,0.01,5.63-0.03,8.45
		c-0.01,0.68-0.22,1.36-0.36,2.15c-3.19,0-6.21,0.01-9.23,0c-3.03-0.01-6.06-0.03-9.08-0.05c-3.13-0.02-6.26-0.08-9.4-0.04
		c-2.99,0.04-6-0.33-9.19,0.13c-0.05,1.27-0.13,2.39-0.13,3.51c-0.07,21.18-0.12,42.36-0.18,63.54c0,0.63-0.01,1.25-0.02,1.88
		c-0.07,10.54-0.15,21.07-0.2,31.61c0,0.59,0.18,1.19,0.26,1.72c2.82,0.46,15,0.44,17.71-0.02c0.42-0.92,0.28-1.97,0.28-2.99
		c0.01-5.74,0-11.48,0.01-17.22c0-1.02,0.08-2.04,0.12-3.06c1.92-0.71,3.71-0.44,5.45-0.39c2.27,0.07,4.17-0.49,6.14-1.72
		c11.07-6.89,23.02-10.01,36.12-8.23c6.52,0.89,12.56,2.95,18.14,6.38c1.68,1.03,3.14,2.65,4.94,3.19c1.92,0.57,4.14,0.16,6.22,0.24
		c0.68,0.03,1.35,0.26,2.13,0.42c0,1.22,0,2.26,0,3.3c-0.02,5.84-0.05,11.69-0.04,17.53c0,0.89-0.28,1.89,0.66,2.72
		C598.77,361.41,603.95,361.41,609.6,361.41z M768.53,478.57c0-1.6,0-2.94,0-4.28c0-31.07,0-62.15,0-93.22
		c0-0.83,0.04-1.67-0.02-2.5c-0.05-0.58-0.24-1.16-0.41-1.9c-3.15,0-6.17,0-9.19,0c-3.13,0-6.26,0-9.39-0.01
		c-3.03-0.01-6.05,0-9.08-0.06c-3.1-0.06-6.22,0.22-9.48-0.21c-0.07-1.04-0.17-1.95-0.18-2.86c-0.02-2.82,0.01-5.63-0.03-8.45
		c-0.01-0.7-0.2-1.39-0.34-2.3c-12.22-0.02-24.32-0.05-36.41-0.06c-0.5,0-0.99,0.14-1.63,0.24c-0.07,0.92-0.18,1.73-0.19,2.53
		c-0.02,3.02,0.01,6.05-0.03,9.07c-0.01,0.69-0.19,1.38-0.32,2.22c-2.35,0-4.54,0.01-6.73,0c-8.87-0.06-17.74-0.14-26.61-0.18
		c-1.11,0-2.29-0.34-3.45,0.48c-0.06,3.9-0.15,7.86-0.18,11.81c-0.07,11.36-0.11,22.73-0.17,34.09c0,0.42-0.01,0.83-0.01,1.25
		c-0.06,17.41-0.12,34.83-0.16,52.24c0,0.7,0.15,1.4,0.22,2.07c0.45,0.13,0.74,0.3,1.03,0.3c5.22,0.02,10.43,0.02,15.65,0
		c0.37,0,0.74-0.24,1.28-0.43c0-1.11,0-2.14,0-3.17c0-5.94-0.01-11.89,0.01-17.83c0-0.8-0.24-1.69,0.71-2.53
		c2.19,0,4.58-0.01,6.97,0.01c0.96,0.01,1.79-0.2,2.63-0.77c6.64-4.5,13.92-7.43,21.82-8.93c7-1.33,13.93-1.01,20.78,0.64
		c6.14,1.48,11.83,4.04,16.74,8.1c0.77,0.64,1.55,0.96,2.55,0.94c1.67-0.04,3.34-0.02,5.01,0c0.6,0.01,1.2,0.12,1.96,0.2
		c0.3,2.07,0.14,4.04,0.16,6c0.02,1.88,0.01,3.75,0,5.63c-0.01,1.98-0.08,3.96-0.07,5.94c0.01,1.95-0.15,3.92,0.17,5.85
		c0.45,0.16,0.73,0.34,1.02,0.34c4.59,0.03,9.18,0.04,13.77,0.03C767.34,478.87,767.74,478.73,768.53,478.57z M211.44,634.96
		c-0.86-0.06-1.77-0.16-2.69-0.17c-7.1-0.05-14.19-0.09-21.29-0.1c-12.84-0.03-25.68-0.05-38.51-0.06
		c-34.97-0.03-69.93-0.06-104.9-0.09c-0.94,0-1.88-0.04-2.82,0.02c-0.58,0.04-1.15,0.25-1.86,0.41
		c-0.23,14.84-0.46,29.53-0.67,44.23c-0.01,0.39,0.14,0.79,0.22,1.22c1.05,0.48,2.11,0.34,3.13,0.34
		c11.17-0.03,22.33-0.07,33.5-0.11c12.73-0.05,25.47-0.13,38.2-0.14c16.38-0.01,32.77,0.05,49.15,0.05
		c15.24,0,30.48-0.04,45.72-0.06c0.73,0,1.46,0.01,2.19-0.03c0.39-0.02,0.78-0.15,1.12-0.22
		C212.39,677.29,211.98,637.97,211.44,634.96z M44.58,145.17c0.87,0.06,1.78,0.17,2.7,0.17c13.77,0.09,27.54,0.17,41.31,0.25
		c22.43,0.13,44.86,0.28,67.29,0.4c14.71,0.08,29.42,0.15,44.13,0.22c4.59,0.02,9.18,0.04,13.77,0.03c0.68,0,1.36-0.22,2.18-0.35
		c0-3.62,0-7.05,0-10.48c0-3.55,0.04-7.09-0.01-10.64c-0.05-3.41,0.25-6.83-0.21-10.24c-1.26-0.47-2.41-0.29-3.53-0.29
		c-8.76,0-17.53,0.04-26.29,0.04c-45.6,0-91.19,0-136.79,0c-0.94,0-1.88-0.03-2.82,0.01c-0.59,0.02-1.18,0.15-1.72,0.22
		C44.19,117.3,44.17,142.31,44.58,145.17z M266.45,569.37c-1.31,0-2.24,0-3.17,0c-7.1,0.02-14.19,0.03-21.29,0.05
		c-8.77,0.03-17.53,0.05-26.3,0.11c-0.9,0.01-1.89-0.27-2.84,0.61c0,3.19-0.01,6.51,0,9.84c0.01,3.34,0.04,6.67,0.06,10.01
		c0.01,3.44,0.05,6.88,0,10.32c-0.04,3.3,0.22,6.62-0.21,10.03c-0.64,0.08-1.14,0.21-1.64,0.21c-7.93,0.03-15.86,0.05-23.79,0.05
		c-0.6,0-1.19-0.18-1.99-0.31c-0.11-3.42-0.04-6.75-0.07-10.07c-0.03-3.44-0.06-6.88-0.07-10.32c-0.01-3.34,0.01-6.67,0.01-10.01
		c0-3.42,0.06-6.85-0.33-10.22c-2.24-0.43-12.99-0.81-19.81-0.7c-0.5,0.01-0.99,0.15-1.42,0.21c-0.65,1.22-0.41,2.38-0.41,3.51
		c-0.02,11.89-0.01,23.78-0.01,35.67c0,5.01-0.01,10.01,0.01,15.02c0,0.8,0.16,1.59,0.27,2.57c1.52,0.03,2.86,0.08,4.2,0.08
		c31.62,0,63.24,0,94.86,0c0.73,0,1.46,0.03,2.19-0.02c0.59-0.04,1.18-0.16,1.71-0.23c0.51-3.3,0.62-31.9,0.23-53.95
		C266.63,571.12,266.53,570.42,266.45,569.37z M927.7,647.11c0.08,1.23,0.17,2.06,0.19,2.88c0.11,4.28,0.19,8.55,0.3,12.83
		c0.02,0.69,0.17,1.38,0.27,2.13c0.6,0.08,1,0.19,1.4,0.19c14.09,0.06,28.18,0.11,42.27,0.15c0.18,0,0.36-0.17,0.73-0.35
		c0.05-0.37,0.16-0.87,0.16-1.36c0.01-11.68,0.01-23.37-0.01-35.05c0-0.49-0.18-0.97-0.31-1.64c-1.68,0-3.22-0.01-4.76,0
		c-19.62,0.1-39.25,0.18-58.87,0.31c-8.98,0.06-17.95,0.2-26.92,0.33c-0.69,0.01-1.38,0.19-2.2,0.31c0,2.24-0.01,4.31,0,6.39
		c0.05,9.49,0.1,18.98,0.17,28.48c0.01,0.8,0.14,1.6,0.22,2.46c2.67,0.4,5.16,0.15,7.65,0.14c2.4-0.01,4.8,0.01,7.2-0.06
		c2.47-0.07,4.98,0.29,7.48-0.33c0.55-2.97,0.39-5.89,0.45-8.79c0.06-2.89-0.51-5.79,0.15-8.76c0.48-0.09,0.87-0.23,1.27-0.23
		C912.15,647.09,919.76,647.11,927.7,647.11z M355.65,338.48c-0.13,0.85-0.27,1.35-0.27,1.85c0,6.67,0.02,13.34,0.06,20.01
		c0,0.29,0.21,0.57,0.38,1.01c0.88,0.05,1.8,0.13,2.72,0.13c17.42,0.03,34.84,0.06,52.27,0.08c6.36,0.01,12.73,0.02,19.09,0
		c0.9,0,1.89,0.27,2.69-0.5c0.05-0.29,0.16-0.59,0.16-0.9c0.02-6.98,0.03-13.97,0.04-20.95c0-0.1-0.02-0.22-0.06-0.3
		c-0.05-0.09-0.14-0.15-0.37-0.38c-0.22-0.04-0.62-0.16-1.01-0.16C406.2,338.41,381.07,338.44,355.65,338.48z M590.32,456.21
		c-25.47,0-50.6,0-75.74,0.01c-0.39,0-0.78,0.15-1.49,0.29c-0.07,3.77-0.08,7.5-0.02,11.22c0.06,3.72-0.28,7.45,0.08,11.15
		c0.51,0.15,0.79,0.31,1.08,0.31c24.93,0.02,49.87,0.04,74.8,0.04c0.29,0,0.57-0.17,1.08-0.34c0.12-4.84,0.28-9.71,0.35-14.58
		C590.5,461.73,590.6,459.13,590.32,456.21z M673.92,220.71c-0.13,0.74-0.26,1.14-0.27,1.54c-0.04,6.67-0.07,13.33-0.08,20
		c0,0.29,0.17,0.58,0.31,1c0.58,0.09,1.17,0.26,1.77,0.27c4.79,0.09,9.59,0.21,14.38,0.22c10.43,0.04,20.85,0.03,31.28,0.03
		c8.76,0,17.52,0,26.28-0.03c1.01,0,2.09,0.28,3.3-0.58c0.13-4.59,0.02-9.36,0.08-14.13c0.03-2.68,0.13-5.38-0.13-8.46
		C725.15,220.66,699.66,220.41,673.92,220.71z M431.86,220.37c-1.25-0.05-2.37-0.13-3.49-0.13c-11.58,0-23.17,0-34.75,0.01
		c-11.69,0.01-23.38,0.03-35.07,0.07c-1.12,0-2.3-0.25-3.7,0.54c-0.13,3.55-0.05,7.28-0.06,11.01c-0.01,3.72,0,7.44,0,11.31
		c1.02,0.06,1.84,0.15,2.65,0.15c24.22,0.02,48.43,0.03,72.65,0.04c0.59,0,1.18-0.14,1.71-0.2c0.38-2.64,0.55-15.01,0.31-21.12
		C432.07,221.56,431.96,221.07,431.86,220.37z M591.41,220.87c-1.16-0.06-2.07-0.16-2.99-0.15c-4.69,0.01-9.38,0.07-14.08,0.08
		c-18.87,0.03-37.75,0.06-56.62,0.09c-0.52,0-1.05-0.04-1.56,0.02c-0.59,0.07-1.17,0.24-1.68,0.35c-0.1,0.37-0.19,0.57-0.2,0.77
		c-0.02,6.88-0.03,13.75-0.02,20.63c0,0.37,0.26,0.74,0.44,1.23c1.11,0,2.15,0,3.19,0c17.73,0,35.46,0.01,53.18,0.01
		c5.94,0,11.89,0.01,17.83,0c0.8,0,1.68,0.22,2.5-0.64C591.41,236.02,591.41,228.64,591.41,220.87z M591.93,338.4
		c-1.58,0-2.71,0-3.85,0c-21.06,0.02-42.12,0.04-63.18,0.06c-2.71,0-5.42,0.01-8.13,0.05c-0.59,0.01-1.18,0.17-1.74,0.26
		c-0.11,0.46-0.24,0.76-0.24,1.05c-0.01,6.77-0.02,13.54,0,20.31c0,0.37,0.22,0.75,0.37,1.22c1.24,0.03,2.38,0.08,3.51,0.08
		c7.92,0.01,15.85,0.01,23.77,0.01c15.43,0,30.86,0.01,46.29-0.01c1.01,0,2.09,0.29,3.14-0.61
		C591.98,353.59,591.95,346.22,591.93,338.4z M433.17,455.66c-1.06-0.03-2.18-0.09-3.3-0.09c-22.94,0-45.89,0-68.83,0.01
		c-0.94,0-1.88-0.04-2.81,0.02c-0.59,0.03-1.18,0.2-1.73,0.3c-0.09,0.46-0.21,0.76-0.21,1.07c-0.02,6.67-0.02,13.34-0.01,20.01
		c0,0.48,0.22,0.95,0.39,1.62c1.16,0,2.19,0,3.22,0c14.81,0.02,29.62,0.05,44.42,0.08c1.98,0,3.96,0.02,5.94,0.02
		c7.09,0.02,14.18,0.04,21.27,0.04c0.59,0,1.17-0.19,1.7-0.28C433.75,473.73,433.73,458.31,433.17,455.66z M751.65,338.6
		c-1.57-0.04-2.7-0.1-3.83-0.1c-14.71,0-29.42-0.01-44.13,0.01c-8.76,0.01-17.52,0.07-26.28,0.13c-0.92,0.01-1.89-0.21-2.81,0.49
		c-0.06,0.53-0.19,1.15-0.19,1.76c-0.01,6.25-0.01,12.51,0.01,18.76c0,0.58,0.17,1.17,0.29,1.95c1.31,0,2.44,0,3.57,0
		c12.52,0.02,25.04,0.06,37.55,0.07c11.06,0.01,22.12,0,33.17-0.03c0.79,0,1.69,0.26,2.46-0.69
		C751.72,353.73,751.64,346.36,751.65,338.6z M494.61,667.48c0.14,0.11,0.21,0.2,0.29,0.24c0.19,0.08,0.39,0.19,0.58,0.19
		c37.24,0.14,74.48,0.26,111.72,0.39c0.52,0,1.04-0.04,1.56-0.07c0.1-0.01,0.19-0.06,0.28-0.11c0.09-0.05,0.17-0.12,0.37-0.28
		c0.43-1.52,0.18-3.18,0.22-4.83c0.04-1.56,0.04-3.13,0-4.69c-0.05-1.63,0.22-3.3-0.33-5.11c-8.83-0.35-17.57-0.17-26.3-0.21
		c-29.11-0.13-58.21-0.03-87.32-0.01c-0.28,0-0.57,0.19-0.88,0.3c-0.11,0.31-0.3,0.59-0.3,0.88c-0.06,4.17-0.1,8.34-0.13,12.51
		C494.37,666.96,494.54,667.25,494.61,667.48z M768.12,653.35c-1.03-0.66-2.21-0.39-3.32-0.39c-8.04,0-16.08,0.04-24.11,0.05
		c-27.56,0.03-55.12,0.05-82.68,0.08c-0.83,0-1.67-0.01-2.5,0.04c-0.4,0.02-0.79,0.17-1.27,0.28c-0.5,1.67-0.25,3.34-0.31,4.98
		c-0.06,1.56-0.05,3.13,0,4.69c0.05,1.63-0.26,3.29,0.35,5.07c1.55,0.04,3,0.12,4.44,0.12c12,0.02,24.01,0.02,36.01,0.04
		c15.66,0.02,31.32,0.06,46.97,0.09c7.83,0.02,15.66,0.05,23.49,0.05c1,0,2.08,0.28,2.96-0.37
		C768.6,665.13,768.58,655.84,768.12,653.35z M750.99,455.82c-1.55-0.05-2.68-0.12-3.81-0.12c-10.74,0.05-21.47,0.13-32.21,0.17
		c-12.61,0.05-25.23,0.06-37.84,0.09c-1.01,0-2.03,0.1-3.12,0.16c-0.1,0.58-0.23,0.97-0.23,1.36c-0.01,6.56-0.02,13.13,0,19.69
		c0,0.47,0.21,0.95,0.35,1.56c1.08,0,2.01,0,2.93,0c15.64,0.02,31.28,0.05,46.91,0.06c8.03,0.01,16.06-0.01,24.08-0.04
		c0.9,0,1.88,0.26,2.87-0.56C751.03,470.95,751.05,463.58,750.99,455.82z M335.79,666.56c0.18,0.1,0.35,0.3,0.53,0.3
		c37.47-0.12,74.94-0.26,112.41-0.41c0.39,0,0.79-0.13,1.13-0.19c0.59-2.87,0.55-11.12-0.07-13.52c-0.77-0.05-1.59-0.15-2.4-0.16
		c-14.3-0.1-28.6-0.2-42.9-0.27c-12.63-0.06-25.26-0.11-37.89-0.14c-9.29-0.03-18.58-0.04-27.87-0.04c-1.01,0-2.09-0.29-2.99,0.42
		C335.33,655.44,335.37,664.19,335.79,666.56z M312.91,651.63c-1.21-0.04-2.24-0.1-3.27-0.1c-3.44,0.01-6.88,0.05-10.33,0.05
		c-27.43,0.03-54.86,0.06-82.29,0.09c-0.73,0-1.47-0.04-2.19,0.03c-0.59,0.06-1.17,0.25-1.71,0.38c-0.38,3.7-0.24,13.17,0.23,15.49
		c1.14,0.44,2.4,0.25,3.62,0.24c23.67-0.14,47.35-0.3,71.02-0.47c7.51-0.05,15.02-0.13,22.53-0.21c0.81-0.01,1.62-0.11,2.37-0.17
		C313.44,664.32,313.47,654.58,312.91,651.63z M335.81,680.11c0.96,0.04,1.98,0.12,3,0.12c7.41-0.01,14.82-0.04,22.23-0.05
		c19.51-0.02,39.03-0.03,58.54-0.06c9.08-0.01,18.16-0.07,27.23-0.1c0.52,0,1.05,0.04,1.56-0.03c0.58-0.09,1.15-0.28,1.78-0.45
		c0-3.89,0.01-7.63-0.02-11.38c0-0.26-0.29-0.52-0.54-0.93c-1.1,0-2.24-0.01-3.38,0c-12.1,0.11-24.2,0.27-36.31,0.33
		c-18.26,0.1-36.52,0.13-54.79,0.18c-5.32,0.02-10.64,0.01-15.97,0.06c-1.12,0.01-2.29-0.2-3.33,0.29
		C335.22,671.24,335.19,677.32,335.81,680.11z M494.53,679.73c37.76,0,75.21,0,112.65-0.01c0.71,0,1.41-0.11,2.06-0.17
		c0.58-2.94,0.56-7.69-0.06-10.18c-2.1-0.26-4.27-0.24-6.45-0.24c-33.08-0.04-66.15-0.08-99.23-0.12c-2.4,0-4.8-0.03-7.2,0
		c-0.58,0.01-1.16,0.17-1.9,0.29C494.29,672.79,494.16,676.08,494.53,679.73z M768.1,669.8c-0.92-0.63-1.99-0.37-3.01-0.37
		c-20.25-0.08-40.5-0.14-60.75-0.21c-15.97-0.06-31.94-0.13-47.91-0.18c-0.8,0-1.69-0.26-2.34,0.5c-0.4,4.01-0.32,7.88,0.24,10.01
		c0.98,0.03,2,0.1,3.03,0.1c8.25,0,16.49-0.03,24.74-0.03c21.81-0.02,43.63-0.03,65.44-0.06c5.95-0.01,11.9-0.03,17.85-0.07
		c0.91-0.01,1.89,0.25,2.69-0.41C768.6,676.55,768.61,672.39,768.1,669.8z M312.91,668.19c-0.75-0.07-1.56-0.22-2.36-0.21
		c-8.66,0.09-17.32,0.23-25.98,0.31c-10.43,0.1-20.87,0.15-31.3,0.24c-6.68,0.06-13.35,0.16-20.03,0.21
		c-6.05,0.05-12.1,0.04-18.15,0.08c-0.59,0-1.19,0.17-1.91,0.28c-0.35,1.97-0.2,3.84-0.15,5.69c0.05,1.82-0.38,3.72,0.53,5.55
		c0.71,0.05,1.33,0.14,1.94,0.13c13.67-0.04,27.34-0.1,41.01-0.13c17.74-0.03,35.48-0.04,53.22-0.08c1.11,0,2.29,0.32,3.31-0.39
		C313.47,676.83,313.41,670.66,312.91,668.19z M856.18,678.91c0.54,0.15,0.64,0.2,0.74,0.2c14.81-0.01,29.63-0.02,44.44-0.05
		c0.48,0,0.97-0.15,1.38-0.22c0.54-3.53,0.33-10.47-0.38-12.65c-3.68-0.3-7.42,0.04-11.15,0.01c-3.83-0.03-7.67,0.45-11.72-0.11
		c-0.23-3.41-0.12-6.73-0.18-10.04c-0.06-3.32,0.09-6.65-0.41-10.01c-0.47-0.09-0.87-0.22-1.27-0.22
		c-6.99,0.01-13.98,0.03-20.97,0.07c-0.29,0-0.58,0.17-1.04,0.31c-0.05,0.9-0.17,1.81-0.14,2.72
		C855.7,658.89,855.52,668.88,856.18,678.91z M854.47,653.09c-1.33-0.06-2.26-0.14-3.18-0.13c-8.76,0.05-17.52,0.12-26.28,0.18
		c-9.7,0.06-19.4,0.11-29.1,0.18c-0.91,0.01-1.82,0.14-2.78,0.22c-0.1,0.58-0.24,0.98-0.23,1.37c0,3.96,0.02,7.92,0.07,11.88
		c0.01,0.47,0.25,0.94,0.41,1.53c1.27,0,2.41,0,3.55,0c7.4,0.01,14.81,0.01,22.21,0.02c10.95,0.02,21.9,0.04,32.85,0.04
		c0.9,0,1.8-0.13,2.87-0.21C855.02,663.09,854.83,658.24,854.47,653.09z M186.19,584.86c0.65,0.08,1.15,0.2,1.64,0.2
		c7.91,0.02,15.81,0.02,23.54,0.01c0.93-1.13,0.7-2.22,0.69-3.23c-0.04-6.25-0.11-12.49-0.17-18.74c-0.03-3.44-0.05-6.87-0.1-10.31
		c-0.01-0.7-0.15-1.39-0.24-2.19c-0.66-0.07-1.16-0.18-1.66-0.18c-7.5,0.06-15,0.14-22.5,0.23c-0.49,0.01-0.97,0.21-1.45,0.32
		c0,10.75,0,21.35,0.01,31.96C185.95,583.54,186.09,584.14,186.19,584.86z M927.62,678.79c-0.2-10.26-0.41-20.33-0.61-30.51
		c-0.71-0.13-1.3-0.34-1.9-0.34c-6.46-0.02-12.93-0.02-19.39,0c-0.58,0-1.15,0.25-1.68,0.38c-0.08,0.48-0.18,0.78-0.18,1.09
		c0.01,9.38,0.03,18.75,0.07,28.13c0,0.47,0.24,0.95,0.35,1.37C907.82,679.2,924.86,679.14,927.62,678.79z M854.61,679.06
		c0.87-0.87,0.41-1.96,0.46-2.96c0.06-1.14,0.02-2.29-0.04-3.44c-0.06-1.01,0.29-2.09-0.48-2.97c-3.69-0.44-51.36-0.8-59.76-0.45
		c-0.5,0.02-1,0.15-1.46,0.21c-0.54,2.7-0.52,7.32,0.02,9.61C796.03,679.53,849.53,679.53,854.61,679.06z M217.3,114.31
		c-0.26,0.61-0.41,0.79-0.41,0.98c-0.06,11.24-0.13,22.49-0.15,33.73c-0.01,7.28,0.06,14.57,0.09,21.85c0,0.1,0.04,0.21,0.09,0.3
		c0.05,0.09,0.13,0.16,0.38,0.44c1.44,0.32,3.11,0.21,4.74,0.15c1.72-0.06,3.51,0.4,5.17-0.39c0.09-0.4,0.21-0.7,0.21-1
		c0.04-18.43,0.07-36.85,0.09-55.28c0-0.1-0.03-0.21-0.08-0.3c-0.05-0.09-0.13-0.16-0.34-0.38
		C223.92,114.15,220.62,114.31,217.3,114.31z M32.83,114.31c-0.1,1.21-0.22,2.03-0.22,2.84c-0.04,8.34-0.06,16.68-0.08,25.02
		c-0.02,8.76-0.05,17.52-0.05,26.28c0,1.01-0.27,2.08,0.45,3.12c1.62,0.37,3.29,0.23,4.93,0.18c1.72-0.06,3.52,0.42,5.36-0.5
		c0.02-1.14,0.07-2.27,0.07-3.41c0.01-12.3,0.02-24.61,0.03-36.91c0-4.69,0.01-9.38-0.02-14.08c0-0.79-0.19-1.57-0.3-2.44
		C39.57,114.17,36.37,114.29,32.83,114.31z M532.29,362.88c-2.95-0.58-24.75-0.85-34.67-0.48c-0.6,0.02-1.19,0.18-1.72,0.27
		c-0.59,3.07-0.61,9.96-0.03,12.66c0.76,0.06,1.57,0.16,2.38,0.17c2.19,0.04,4.38,0.05,6.57,0.06c8.24,0.06,16.49,0.13,24.73,0.17
		c0.9,0,1.89,0.23,2.74-0.65C532.29,371.13,532.29,367.08,532.29,362.88z M731.57,492.7c11.8,0.29,23.15,0.26,34.5,0.35
		c0.7,0.01,1.4-0.11,2.05-0.17c0.61-3.04,0.55-10.67-0.06-12.79c-3.05-0.39-33.76-0.27-36.37,0.18
		C731.4,484.25,731.58,488.27,731.57,492.7z M372.4,362.85c-2.62-0.51-25.23-0.76-33.9-0.4c-0.6,0.03-1.19,0.19-1.73,0.28
		c-0.59,2.92-0.54,10.28,0.11,12.65c8.06,0.11,16.17,0.24,24.29,0.33c3.54,0.04,7.08,0.02,10.62,0.02c0.09,0,0.19-0.06,0.28-0.12
		c0.09-0.05,0.16-0.13,0.24-0.2C372.7,373.12,372.76,366.32,372.4,362.85z M413.86,375.32c5.96,0.36,11.98,0.17,18,0.25
		c6.01,0.08,12.03,0.4,17.99,0.1c0.65-3.12,0.56-10.77-0.15-13.01c-0.96-0.02-1.99-0.06-3.03-0.07c-3.86-0.01-7.72,0-11.58-0.02
		c-6.47-0.03-12.93-0.1-19.4-0.12c-0.69,0-1.38,0.23-2.02,0.35C413.27,366.35,413.35,372.82,413.86,375.32z M413.54,492.46
		c1.03,0.1,1.65,0.19,2.27,0.21c5.42,0.1,10.85,0.22,16.27,0.27c5.22,0.05,10.43,0.04,15.65,0.03c0.81,0,1.69,0.2,2.55-0.79
		c0-1.84,0.06-3.92-0.02-5.99c-0.08-2.04,0.39-4.13-0.36-6.06c-0.34-0.09-0.54-0.19-0.74-0.19c-11.37-0.03-22.75-0.06-34.12-0.07
		c-0.47,0-0.95,0.24-1.53,0.39C413.41,484.34,413.37,488.27,413.54,492.46z M530.99,493.08c0.39-4.48,0.28-10.39-0.25-12.66
		c-0.46-0.06-0.97-0.19-1.47-0.19c-10.84-0.01-21.68-0.01-32.52,0.01c-0.49,0-0.98,0.18-1.66,0.31c-0.24,2.16-0.19,4.23-0.12,6.29
		c0.08,2.02-0.46,4.12,0.43,6.05C499.46,493.3,528.63,493.47,530.99,493.08z M450.08,257.52c0.32-2.34,0.22-4.42,0.16-6.47
		c-0.06-2.14,0.43-4.33-0.37-6.39c-3.37-0.35-33.53-0.19-35.66,0.17c-0.51,2.55-0.51,9.8,0.01,12.42c0.34,0.08,0.74,0.25,1.13,0.26
		C426.81,257.53,438.26,257.52,450.08,257.52z M768.46,244.8c-0.83-0.09-1.33-0.19-1.84-0.19c-10.83,0.03-21.66,0.07-32.49,0.13
		c-0.57,0-1.15,0.27-1.66,0.4c-0.45,4.35-0.32,10.15,0.28,12.34c0.66,0.05,1.37,0.15,2.08,0.16c2.19,0.03,4.37,0.02,6.56,0.03
		c8.12,0.03,16.25,0.08,24.37,0.09c0.89,0,1.89,0.28,2.7-0.58C768.46,253.19,768.46,249.16,768.46,244.8z M690.32,480.1
		c-0.44-0.09-0.75-0.2-1.05-0.2c-11.04-0.02-22.08-0.04-33.11-0.03c-0.48,0-0.96,0.2-1.38,0.3c-0.46,3.77-0.42,9.86,0.09,12.47
		c2.82,0.38,5.73,0.12,8.62,0.19c3.02,0.07,6.04,0.09,9.06,0.12c2.92,0.03,5.83,0.09,8.75,0.05c2.99-0.03,5.99,0.31,8.92-0.12
		C690.76,490.41,690.82,483.49,690.32,480.1z M655.7,257.38c0.74,0.06,1.55,0.19,2.36,0.19c3.86,0.01,7.72-0.02,11.57-0.02
		c6.26-0.01,12.51,0.01,18.77-0.01c0.91,0,1.89,0.24,2.98-0.71c0.05-3.68,0.12-7.59-0.03-11.43c-1.12-0.76-2.19-0.55-3.21-0.56
		c-5.53-0.02-11.05-0.01-16.58-0.01c-4.59,0-9.18-0.01-13.76,0.01c-0.8,0-1.69-0.19-2.3,0.6
		C655.07,249.33,655.14,254.95,655.7,257.38z M768.33,363.03c-1.25-0.51-2.41-0.33-3.53-0.32c-8.14,0.01-16.28,0.04-24.42,0.07
		c-2.3,0.01-4.59-0.01-6.89,0.03c-0.59,0.01-1.17,0.18-1.94,0.31c0,2.12-0.05,4.09,0.01,6.05c0.07,2.04-0.32,4.13,0.36,6.32
		c11.76,0.09,23.44,0.19,35.11,0.27c0.39,0,0.79-0.18,1.13-0.26C768.61,373.12,768.69,367.07,768.33,363.03z M691,375.96
		c0.64-3.52,0.55-10.98-0.1-13.08c-0.48-0.06-0.99-0.16-1.51-0.16c-10.83-0.01-21.66-0.01-32.49,0.01c-0.58,0-1.15,0.24-1.68,0.35
		c-0.44,4.94-0.38,9.92,0.18,12.46C667.19,375.98,679.03,375.9,691,375.96z M336.24,492.54c1.33,0.05,2.35,0.11,3.38,0.13
		c4.38,0.07,8.76,0.16,13.14,0.2c5.95,0.05,11.9,0.08,17.84,0.09c0.58,0,1.17-0.23,1.7-0.34c0.45-3.84,0.34-10.45-0.2-12.65
		c-0.47-0.06-0.97-0.18-1.47-0.18c-10.85,0.01-21.71,0.03-32.56,0.08c-0.59,0-1.17,0.2-1.82,0.32
		C336.24,484.27,336.24,488.21,336.24,492.54z M573.25,362.85c-0.43,4.17-0.32,10.1,0.23,12.34c0.35,0.05,0.75,0.16,1.15,0.16
		c11.26,0.05,22.52,0.08,33.77,0.11c0.29,0,0.58-0.16,1.08-0.3c0.3-2.03,0.18-4.1,0.14-6.15c-0.04-2.05,0.33-4.14-0.36-6.32
		c-3.97-0.51-7.93-0.21-11.87-0.24c-4.06-0.04-8.12,0.15-12.17,0.03C581.83,362.39,575.38,362.42,573.25,362.85z M532.34,245.45
		c-0.48-0.22-0.66-0.37-0.85-0.37c-11.25-0.12-22.49-0.23-33.74-0.32c-0.41,0-0.82,0.1-1.22,0.18c-0.09,0.02-0.16,0.13-0.31,0.27
		c-0.06,0.21-0.22,0.49-0.22,0.78c-0.03,3.54-0.05,7.08-0.03,10.62c0,0.37,0.26,0.74,0.37,1.04c0.35,0.07,0.55,0.14,0.76,0.14
		c11.25,0.13,22.5,0.26,33.75,0.36c0.48,0,0.96-0.21,1.5-0.34C532.34,253.63,532.34,249.59,532.34,245.45z M573.09,493.12
		c11.97,0.1,23.52,0.19,35.07,0.27c0.39,0,0.78-0.17,1.33-0.29c0.26-1.49,0.15-2.94,0.17-4.38c0.02-1.35,0.06-2.71-0.01-4.06
		c-0.08-1.4,0.35-2.88-0.46-4.31c-0.8-0.05-1.51-0.13-2.23-0.13c-10.53,0.04-21.06,0.09-31.58,0.14c-0.1,0-0.21-0.01-0.31,0.01
		c-0.58,0.1-1.17,0.21-1.84,0.33c-0.05,0.99-0.11,1.81-0.12,2.63C573.08,486.44,573.09,489.55,573.09,493.12z M372.48,257.56
		c0.47-3.13,0.44-10.25-0.03-12.84c-0.35-0.06-0.74-0.19-1.13-0.19c-10.93-0.01-21.87-0.01-32.8,0.01c-0.47,0-0.95,0.23-1.61,0.4
		c0,2.08-0.06,4.05,0.02,6.02c0.08,2.04-0.38,4.12,0.41,6.27C349.02,257.36,360.65,257.8,372.48,257.56z M609.25,245.09
		c-0.89-0.05-1.61-0.13-2.34-0.13c-10.85,0.04-21.71,0.09-32.56,0.14c-0.09,0-0.2,0.05-0.28,0.1c-0.08,0.06-0.14,0.15-0.36,0.38
		c-0.03,0.21-0.14,0.61-0.14,1.01c-0.02,3.13-0.03,6.26,0,9.39c0.01,0.58,0.25,1.15,0.4,1.78c2.55,0.05,4.95,0.12,7.34,0.14
		c2.3,0.03,4.59,0.01,6.89,0.03c2.4,0.02,4.8,0.07,7.2,0.1c2.3,0.03,4.59,0.15,6.89,0.09c2.36-0.06,4.76,0.35,7.07-0.24
		C609.79,254.94,609.75,247.84,609.25,245.09z M525.27,219.35c0.09,0.18,0.18,0.35,0.26,0.53c18.46,0,36.92,0,55.38-0.02
		c0.15,0,0.3-0.24,0.45-0.37c-0.04-0.19-0.02-0.46-0.14-0.55c-0.91-0.69-1.8-1.42-2.78-2.01c-8.51-5.06-17.72-7.03-27.58-6.41
		c-8.52,0.53-16.29,3.33-23.66,7.43C526.51,218.34,525.91,218.88,525.27,219.35z M421.8,337.22c-2.83-2.36-5.46-3.81-8.21-5.03
		c-6.58-2.93-13.49-4.25-20.68-4c-2.8,0.1-5.61,0.2-8.39,0.82c-6.46,1.44-12.57,3.72-18.23,7.15c-0.44,0.27-1.29,0.38-0.97,1.4
		c18.2,0,36.42,0,54.65-0.01C420.36,337.55,420.75,337.42,421.8,337.22z M741.37,337.06c-0.1-0.2-0.14-0.43-0.29-0.55
		c-0.48-0.4-0.98-0.77-1.49-1.12c-4.83-3.23-10.17-5.27-15.83-6.33c-13.52-2.53-26.04,0.36-37.7,7.42
		c-0.41,0.25-0.97,0.46-0.68,1.31c1.29,0,2.63,0.01,3.97,0c6.04-0.03,12.08-0.08,18.12-0.11c10.41-0.05,20.83-0.08,31.24-0.15
		C739.6,337.52,740.59,337.85,741.37,337.06z M422.44,219.26c-0.6-0.71-0.8-1.07-1.1-1.28c-3.69-2.6-7.67-4.63-12-5.92
		c-7.71-2.3-15.52-2.88-23.48-1.38c-6.95,1.31-13.38,3.85-19.41,7.5c-0.29,0.18-0.48,0.54-0.95,1.08
		C384.55,219.26,403.18,219.26,422.44,219.26z M741.51,454.75c-1.1-1.37-2.07-1.95-3.03-2.54c-10.3-6.39-21.51-8.02-33.31-6.15
		c-7.07,1.12-13.58,3.84-19.71,7.51c-0.44,0.26-0.94,0.48-0.67,1.18C703.51,454.75,722.23,454.75,741.51,454.75z M367.16,454.23
		c1.26,0.58,2.3,0.41,3.3,0.41c16.7-0.02,33.39-0.05,50.09-0.09c0.63,0,1.25,0.02,1.88-0.03c0.38-0.03,0.87,0.03,0.98-0.79
		c-0.73-0.53-1.52-1.18-2.37-1.72c-5.64-3.57-11.82-5.69-18.42-6.51c-12.28-1.53-23.59,1.42-34.15,7.62
		C368.07,453.36,367.74,453.73,367.16,454.23z M523.95,455.24c1.09,0.05,1.99,0.13,2.89,0.12c7.3-0.06,14.6-0.18,21.89-0.21
		c7.41-0.04,14.81-0.01,22.22-0.01c2.61,0,5.22,0.01,7.82-0.02c0.47,0,1.06,0.13,1.38-0.69c-2.87-2.56-6.33-4.21-9.9-5.56
		c-6.21-2.35-12.68-3.49-19.31-3.14c-8.67,0.46-16.8,2.92-24.33,7.25C525.71,453.5,524.48,453.74,523.95,455.24z M740.95,219.42
		c-0.78-1.43-1.75-1.86-2.6-2.41c-6.75-4.32-14.24-6.41-22.16-6.87c-11.2-0.65-21.41,2.63-30.95,8.3c-0.28,0.16-0.42,0.55-0.74,0.98
		C703.36,219.42,721.92,219.42,740.95,219.42z M582,336.96c-0.73-1.09-1.76-1.6-2.69-2.18c-7.16-4.46-15.05-6.6-23.41-6.82
		c-10.59-0.28-20.32,2.82-29.34,8.25c-0.28,0.17-0.44,0.56-0.73,0.94c2.27,0.31,51.59,0.5,55.21,0.22
		C581.3,337.35,581.55,337.16,582,336.96z M186.46,609.47c0.56,0.08,0.97,0.19,1.38,0.18c7.6-0.02,15.2-0.04,22.81-0.08
		c0.47,0,0.95-0.24,1.36-0.35c0.44-4.52,0.29-12.66-0.27-15.15c-0.56,0-1.14,0-1.87,0c-0.13,1.62-0.25,3.13-0.36,4.61
		c-0.49,0.13-0.78,0.28-1.07,0.28c-6.25,0.01-12.5,0.02-18.74-0.01c-0.37,0-0.74-0.27-1.06-0.39c-0.12-1.56-0.23-2.99-0.34-4.54
		c-0.79,0.06-1.36,0.11-1.89,0.15C185.91,596.9,185.95,606.34,186.46,609.47z M186.35,592.89c0.56,0.11,0.86,0.22,1.16,0.22
		c7.71,0,15.42-0.01,23.13-0.05c0.38,0,0.76-0.21,1.22-0.35c0.19-2.24,0.32-4.37-0.19-6.45c-2.7-0.51-11.72-0.65-23.2-0.37
		c-0.7,0.02-1.4,0.16-2.24,0.26c-0.07,0.84-0.2,1.54-0.18,2.24C186.11,589.83,185.83,591.3,186.35,592.89z M168.42,633.4
		c0.6,0.27,0.77,0.41,0.96,0.43c0.62,0.05,1.24,0.08,1.87,0.08c8.01-0.02,16.02-0.04,24.03-0.07c0.09,0,0.19-0.06,0.27-0.12
		c0.09-0.05,0.16-0.13,0.38-0.31c0.14-2.01,0.43-4.13-0.17-6.22c-0.47-0.09-0.77-0.21-1.07-0.21c-8.22-0.01-16.44-0.02-24.65,0
		c-0.48,0-0.95,0.23-1.48,0.36c-0.05,0.97-0.11,1.79-0.12,2.61C168.4,631.1,168.42,632.23,168.42,633.4z M208.49,594.15
		c-2.65-0.35-16.29-0.28-18.81,0.1c-0.47,1.26-0.54,2.52,0.06,3.78c3.37,0.34,16.37,0.27,18.94-0.12
		C208.89,596.67,209.15,595.4,208.49,594.15z"/>
	<path class="st0" d="M191.56,113.06c-0.6,0.14-1.2,0.35-1.81,0.39c-0.93,0.07-1.88,0.03-2.82,0.03c-46.21,0-92.42,0-138.63-0.01
		c-1.33,0-2.71,0.33-3.98-0.41C93.41,113.06,142.49,113.06,191.56,113.06z"/>
	<path class="st1" d="M129.35,633.42c-0.27,0.09-0.56,0.26-0.85,0.26c-8.35,0.01-16.7,0-25.05-0.03c-0.4,0-0.8-0.15-1.34-0.25
		c-0.09-0.74-0.24-1.44-0.24-2.14c0.01-11.47,0.05-22.95,0.08-34.42c0-0.94,0.03-1.88,0.03-2.82c0.03-30.04,0.05-60.08,0.08-90.12
		c0.02-28.27,0.04-56.54,0.07-84.8c0.01-10.12,0.08-20.23,0.12-30.35c0.08-20.03,0.18-40.05,0.23-60.08
		c0.07-30.15,0.11-60.29,0.16-90.44c0.04-20.03,0.07-40.05,0.11-60.08c0.02-9.39,0.07-18.77,0.12-28.16
		c0.01-1.02,0.1-2.05,0.16-3.21c0.64-0.13,1.13-0.32,1.61-0.31c8.45,0.09,16.9,0.2,25.35,0.32c0.19,0,0.37,0.14,0.74,0.28
		c0.45,0.97,0.24,2.13,0.24,3.24c0,8.87-0.04,17.73-0.06,26.6c-0.05,33.69-0.1,67.38-0.16,101.07c-0.03,19.71-0.07,39.43-0.14,59.14
		c-0.07,20.13-0.18,40.26-0.26,60.39c-0.05,11.37-0.1,22.74-0.12,34.11c-0.04,27.64-0.06,55.28-0.1,82.93
		c-0.03,20.24-0.07,40.47-0.14,60.71c-0.06,18.36-0.17,36.71-0.27,55.07C129.72,631.35,129.95,632.41,129.35,633.42z"/>
	<path class="st2" d="M1009.72,680.02c0.03,3.63,0.06,6.96,0.09,10.29c0.01,0.71,0,1.43,0,2.32c-0.86,0.12-1.55,0.29-2.24,0.29
		c-4.8-0.01-9.6-0.08-14.4-0.08c-98.14-0.01-196.27,0-294.41-0.01c-89.47,0-178.94-0.01-268.42-0.02
		c-132.69-0.01-265.39-0.03-398.08-0.04c-1.35,0-2.7,0-3.97,0c-0.76-2.47-0.78-8.49-0.06-11.14c0.97-0.02,2-0.05,3.03-0.05
		c8.87-0.02,17.75-0.04,26.62-0.04c27.46,0,54.91,0.01,82.37,0c24.53-0.02,49.07-0.07,73.6-0.1c11.27-0.02,22.55-0.04,33.82-0.06
		c12.42-0.03,24.85-0.06,37.27-0.11c11.8-0.04,23.59-0.12,35.39-0.16c23.91-0.06,47.81-0.11,71.72-0.15
		c22.13-0.04,44.27-0.07,66.4-0.09c21.09-0.01,42.18,0.02,63.27,0c27.98-0.03,55.96-0.08,83.94-0.13
		c11.69-0.02,23.38-0.06,35.08-0.1c24.01-0.08,48.02-0.18,72.03-0.25c19.21-0.05,38.42-0.08,57.63-0.1
		c40.09-0.04,80.18-0.07,120.27-0.1c23.59-0.02,47.19-0.04,70.78-0.08c12.01-0.02,24.01-0.06,36.02-0.1
		c3.03-0.01,6.05-0.11,9.08-0.13C1007.46,679.85,1008.39,679.95,1009.72,680.02z"/>
	<path class="st1" d="M168.58,146.95c8.96,0,17.51,0,26.06,0.01c0.5,0,1,0.14,1.66,0.24c0.09,0.7,0.22,1.29,0.22,1.88
		c0,13.25-0.01,26.5-0.02,39.75c0,1.04-0.03,2.09-0.03,3.13c0,23.27,0.01,46.53,0,69.8c-0.01,25.98-0.04,51.96-0.08,77.94
		c-0.04,25.77-0.11,51.54-0.16,77.31c-0.04,25.46-0.07,50.91-0.1,76.37c-0.02,17.53-0.05,35.06-0.07,52.58c0,1.03,0,2.07,0,3.25
		c-0.72,0.16-1.29,0.39-1.87,0.41c-2.09,0.07-4.18,0.05-6.26,0.09c-0.92,0.02-1.84,0.12-2.91,0.19c-0.09,0.85-0.22,1.55-0.22,2.25
		c0.03,4.49,0.1,8.97,0.14,13.46c0.01,0.8-0.09,1.61-0.13,2.37c-2.31,0.43-12.84,0.43-16.89,0.02c-0.09-0.63-0.27-1.32-0.27-2
		c-0.01-10.02,0-20.03,0.01-30.05c0-0.83,0.03-1.67,0.03-2.5c0.02-19.3,0.04-38.6,0.05-57.91c0.03-30.57,0.04-61.14,0.1-91.71
		c0.02-12.41,0.17-24.83,0.24-37.24c0.07-12.31,0.13-24.62,0.14-36.93c0.05-40.48,0.06-80.97,0.1-121.45
		c0.01-12.62,0.05-25.25,0.09-37.87C168.43,149.32,168.52,148.3,168.58,146.95z"/>
	<path class="st3" d="M791.84,678.91c-0.49,0.19-0.78,0.39-1.06,0.39c-6.68,0.07-13.36,0.13-20.04,0.17c-0.39,0-0.79-0.16-1.17-0.25
		c-0.13-0.39-0.3-0.68-0.3-0.97c0.03-159.73,0.08-319.47,0.13-479.2c0-0.4,0.14-0.8,0.25-1.37c2.39-0.5,4.78-0.2,7.14-0.25
		c2.4-0.05,4.8-0.02,7.2-0.01c2.39,0.01,4.77,0.04,7.19,0.06c0.17,0.59,0.34,0.98,0.37,1.37c0.06,0.83,0.05,1.67,0.05,2.5
		c0.02,16.48,0.05,32.97,0.06,49.45c0.02,40.79,0.04,81.59,0.05,122.38c0.01,23.37,0.02,46.74,0.04,70.11
		c0.02,24.83,0.04,49.66,0.05,74.49c0.01,21.7,0.02,43.4,0.03,65.1c0.02,30.78,0.04,61.56,0.06,92.34
		C791.89,676.48,791.86,677.72,791.84,678.91z"/>
	<path class="st3" d="M451.29,198.1c2.54-0.46,13.38-0.64,20.17-0.36c0.6,0.03,1.2,0.2,1.7,0.28c0.59,1.13,0.38,2.19,0.38,3.22
		c-0.03,24.72-0.07,49.45-0.11,74.17c-0.02,11.58-0.02,23.16-0.03,34.74c-0.02,30.88-0.03,61.76-0.07,92.63
		c-0.01,6.57-0.08,13.14-0.12,19.71c-0.1,17.42-0.23,34.83-0.27,52.25c-0.05,19.72-0.02,39.43-0.04,59.15
		c-0.02,22.22-0.05,44.44-0.09,66.66c-0.03,21.59-0.07,43.19-0.12,64.78c-0.01,3.96-0.07,7.93-0.13,11.89
		c-0.01,0.72-0.11,1.44-0.18,2.27c-2.39,0.78-4.8,0.26-7.15,0.44c-2.28,0.17-4.59,0.15-6.89,0.08c-2.36-0.07-4.77,0.4-7.06-0.38
		C450.92,676.99,450.91,200.99,451.29,198.1z"/>
	<path class="st3" d="M633.06,197.77c3.38-0.43,18.79-0.36,21.38,0.09c0.05,0.96,0.15,1.97,0.15,2.99
		c-0.01,16.38-0.03,32.75-0.05,49.13c-0.01,7.3-0.02,14.6-0.04,21.91c-0.04,17.73-0.06,35.46-0.13,53.2
		c-0.11,26.18-0.27,52.36-0.39,78.54c-0.08,18.04-0.11,36.09-0.17,54.13c-0.02,7.72-0.05,15.44-0.08,23.16
		c-0.12,27.54-0.27,55.07-0.35,82.61c-0.08,23.89-0.08,47.77-0.13,71.66c-0.03,12.83-0.07,25.66-0.12,38.49
		c-0.01,1.86-0.15,3.72-0.23,5.73c-3.58,0.54-7,0.2-10.4,0.29c-3.42,0.1-6.84,0.04-10.46,0c-0.07-0.97-0.17-1.67-0.17-2.37
		c0.01-13.46,0.03-26.91,0.06-40.37c0.02-10.74,0.06-21.49,0.08-32.23c0.03-17.52,0.04-35.05,0.06-52.57
		c0.02-10.64,0.04-21.28,0.08-31.92c0.08-20.03,0.19-40.05,0.26-60.07c0.06-16.38,0.11-32.75,0.13-49.13
		c0.06-42.98,0.09-85.95,0.14-128.93c0.02-19.09,0.03-38.18,0.07-57.27c0.01-8.03,0.08-16.06,0.13-24.09
		C632.9,199.81,633,198.89,633.06,197.77z"/>
	<path class="st3" d="M314.55,197.69c7.21,0,14.19,0,21.11,0c0.9,0.8,0.61,1.8,0.61,2.7c0.01,8.66-0.01,17.32-0.03,25.97
		c-0.03,10.74-0.05,21.49-0.11,32.23c-0.09,15.54-0.23,31.08-0.33,46.62c-0.05,6.88-0.06,13.77-0.08,20.65
		c-0.05,23.89-0.08,47.78-0.14,71.66c-0.05,19.72-0.15,39.43-0.22,59.14c-0.07,18.46-0.14,36.93-0.19,55.39
		c-0.06,20.34-0.1,40.68-0.16,61.02c-0.04,12.41-0.07,24.83-0.14,37.24c-0.12,22.32-0.26,44.64-0.4,66.96
		c-0.01,0.82-0.08,1.65-0.12,2.58c-2.19,0.71-4.38,0.27-6.53,0.35c-2.19,0.08-4.38,0.06-6.58,0.06c-2.18,0-4.35-0.03-6.48-0.05
		c-0.76-1.1-0.5-2.17-0.51-3.17c-0.02-8.66-0.01-17.32-0.01-25.98c0-149.59,0-299.18,0.01-448.77
		C314.25,200.87,314.05,199.41,314.55,197.69z"/>
	<path class="st3" d="M630.76,679.36c-2.75,0.45-16.93,0.48-19.99,0.04c-0.06-0.54-0.17-1.13-0.19-1.72
		c-0.03-0.94-0.01-1.88-0.01-2.82c0-157.41,0-314.82,0-472.24c0-1.55,0-3.1,0-4.72c0.57-0.16,0.95-0.37,1.34-0.37
		c6.26-0.02,12.53-0.02,18.79-0.01c0.3,0,0.6,0.11,0.89,0.17c0.71,0.83,0.45,1.81,0.45,2.71c0.02,7.3-0.01,14.6-0.01,21.91
		c-0.02,32.23-0.04,64.47-0.06,96.7c-0.01,15.75-0.04,31.5-0.06,47.25c-0.02,9.39-0.04,18.78-0.08,28.16
		c-0.08,20.55-0.18,41.1-0.26,61.64c-0.05,13.98-0.1,27.95-0.12,41.93c-0.04,25.56-0.06,51.11-0.1,76.67
		c-0.03,19.71-0.07,39.43-0.14,59.14c-0.05,14.29-0.17,28.58-0.26,42.87C630.91,677.59,630.81,678.5,630.76,679.36z"/>
	<path class="st3" d="M474.76,197.99c0.54-0.1,0.94-0.24,1.34-0.24c5.95-0.01,11.9,0,17.85,0.02c0.29,0,0.58,0.17,0.85,0.26
		c0.71,0.97,0.45,2.05,0.45,3.06c0.01,6.15-0.02,12.31-0.04,18.46c-0.08,23.26-0.16,46.52-0.24,69.78
		c-0.08,24.72-0.15,49.44-0.23,74.16c-0.04,12.52-0.08,25.03-0.14,37.55c-0.12,24.82-0.3,49.64-0.38,74.47
		c-0.11,35.67,0.11,71.35-0.3,107.02c-0.36,31.5-0.14,62.99-0.41,94.48c-0.01,0.81-0.09,1.62-0.14,2.57
		c-3.35,0.57-6.57,0.2-9.76,0.27c-3.23,0.07-6.46,0.01-9.86,0.01c-0.13-0.86-0.32-1.55-0.32-2.24c-0.01-3.75,0.03-7.51,0.03-11.26
		c0.02-17.94,0.02-35.88,0.04-53.82c0.03-24.3,0.07-48.61,0.12-72.91c0.02-10.74,0.08-21.49,0.12-32.23
		c0.04-11.06,0.11-22.11,0.14-33.17c0.08-34.84,0.16-69.68,0.2-104.51c0.04-30.56,0.02-61.13,0.05-91.69
		c0.02-22.01,0.08-44.02,0.14-66.03c0.01-3.96,0.09-7.92,0.17-11.89C474.47,199.43,474.65,198.74,474.76,197.99z"/>
	<path class="st4" d="M211.44,634.96c0.54,3.01,0.95,42.33,0.49,45.28c-0.34,0.07-0.73,0.2-1.12,0.22
		c-0.73,0.04-1.46,0.03-2.19,0.03c-15.24,0.02-30.48,0.06-45.72,0.06c-16.38,0-32.77-0.06-49.15-0.05
		c-12.73,0.01-25.47,0.09-38.2,0.14c-11.17,0.04-22.33,0.08-33.5,0.11c-1.02,0-2.07,0.14-3.13-0.34c-0.08-0.44-0.23-0.83-0.22-1.22
		c0.21-14.7,0.44-29.39,0.67-44.23c0.71-0.16,1.28-0.37,1.86-0.41c0.93-0.07,1.88-0.02,2.82-0.02c34.97,0.03,69.93,0.06,104.9,0.09
		c12.84,0.01,25.68,0.03,38.51,0.06c7.1,0.02,14.19,0.06,21.29,0.1C209.66,634.8,210.58,634.91,211.44,634.96z"/>
	<path class="st2" d="M44.58,145.17c-0.41-2.86-0.4-27.87,0.01-30.66c0.54-0.07,1.13-0.2,1.72-0.22c0.94-0.04,1.88-0.01,2.82-0.01
		c45.6,0,91.19,0,136.79,0c8.76,0,17.53-0.04,26.29-0.04c1.12,0,2.28-0.17,3.53,0.29c0.45,3.41,0.15,6.84,0.21,10.24
		c0.06,3.54,0.01,7.09,0.01,10.64c0,3.43,0,6.87,0,10.48c-0.82,0.14-1.5,0.35-2.18,0.35c-4.59,0.02-9.18-0.01-13.77-0.03
		c-14.71-0.07-29.42-0.14-44.13-0.22c-22.43-0.13-44.86-0.27-67.29-0.4c-13.77-0.08-27.54-0.16-41.31-0.25
		C46.36,145.34,45.45,145.23,44.58,145.17z"/>
	<path class="st4" d="M266.45,569.37c0.08,1.05,0.18,1.76,0.19,2.46c0.39,22.05,0.28,50.65-0.23,53.95
		c-0.53,0.08-1.12,0.2-1.71,0.23c-0.73,0.04-1.46,0.02-2.19,0.02c-31.62,0-63.24,0-94.86,0c-1.34,0-2.68-0.05-4.2-0.08
		c-0.11-0.98-0.27-1.78-0.27-2.57c-0.02-5.01-0.01-10.01-0.01-15.02c0-11.89-0.01-23.78,0.01-35.67c0-1.12-0.24-2.29,0.41-3.51
		c0.43-0.07,0.92-0.21,1.42-0.21c6.82-0.1,17.57,0.27,19.81,0.7c0.39,3.36,0.33,6.79,0.33,10.22c0,3.34-0.02,6.67-0.01,10.01
		c0.01,3.44,0.04,6.88,0.07,10.32c0.03,3.32-0.04,6.65,0.07,10.07c0.8,0.13,1.39,0.31,1.99,0.31c7.93,0,15.86-0.02,23.79-0.05
		c0.5,0,1-0.12,1.64-0.21c0.43-3.41,0.17-6.73,0.21-10.03c0.04-3.44,0.01-6.88,0-10.32c-0.01-3.34-0.05-6.67-0.06-10.01
		c-0.01-3.33,0-6.65,0-9.84c0.95-0.89,1.94-0.61,2.84-0.61c8.77-0.05,17.53-0.08,26.3-0.11c7.1-0.02,14.19-0.04,21.29-0.05
		C264.21,569.37,265.14,569.37,266.45,569.37z"/>
	<path class="st4" d="M927.7,647.11c-7.94,0-15.55-0.02-23.15,0.02c-0.39,0-0.79,0.14-1.27,0.23c-0.66,2.97-0.09,5.88-0.15,8.76
		c-0.06,2.91,0.1,5.83-0.45,8.79c-2.5,0.63-5.01,0.26-7.48,0.33c-2.4,0.07-4.8,0.05-7.2,0.06c-2.49,0.01-4.98,0.26-7.65-0.14
		c-0.08-0.86-0.22-1.66-0.22-2.46c-0.07-9.49-0.12-18.98-0.17-28.48c-0.01-2.07,0-4.15,0-6.39c0.82-0.12,1.51-0.3,2.2-0.31
		c8.97-0.13,17.95-0.27,26.92-0.33c19.62-0.13,39.25-0.21,58.87-0.31c1.54-0.01,3.09,0,4.76,0c0.13,0.66,0.31,1.15,0.31,1.64
		c0.02,11.68,0.02,23.37,0.01,35.05c0,0.49-0.12,0.99-0.16,1.36c-0.37,0.19-0.55,0.35-0.73,0.35c-14.09-0.04-28.18-0.09-42.27-0.15
		c-0.4,0-0.8-0.11-1.4-0.19c-0.1-0.75-0.25-1.43-0.27-2.13c-0.12-4.27-0.2-8.55-0.3-12.83C927.87,649.17,927.79,648.35,927.7,647.11
		z"/>
	<path class="st3" d="M355.65,338.48c25.42-0.04,50.56-0.07,75.69-0.1c0.39,0,0.79,0.12,1.01,0.16c0.23,0.23,0.32,0.29,0.37,0.38
		c0.05,0.09,0.06,0.2,0.06,0.3c-0.01,6.98-0.02,13.97-0.04,20.95c0,0.3-0.11,0.6-0.16,0.9c-0.8,0.78-1.79,0.5-2.69,0.5
		c-6.36,0.02-12.73,0.01-19.09,0c-17.42-0.02-34.84-0.05-52.27-0.08c-0.92,0-1.83-0.09-2.72-0.13c-0.17-0.44-0.38-0.73-0.38-1.01
		c-0.04-6.67-0.06-13.34-0.06-20.01C355.37,339.83,355.52,339.32,355.65,338.48z"/>
	<path class="st3" d="M590.32,456.21c0.27,2.92,0.17,5.52,0.14,8.1c-0.07,4.87-0.23,9.74-0.35,14.58c-0.5,0.16-0.79,0.34-1.08,0.34
		c-24.93,0-49.87-0.01-74.8-0.04c-0.29,0-0.58-0.16-1.08-0.31c-0.36-3.7-0.02-7.43-0.08-11.15c-0.06-3.72-0.05-7.45,0.02-11.22
		c0.71-0.14,1.1-0.29,1.49-0.29C539.72,456.21,564.85,456.21,590.32,456.21z"/>
	<path class="st3" d="M673.92,220.71c25.74-0.3,51.24-0.05,76.93-0.13c0.25,3.08,0.16,5.78,0.13,8.46
		c-0.06,4.77,0.05,9.54-0.08,14.13c-1.22,0.86-2.29,0.58-3.3,0.58c-8.76,0.03-17.52,0.03-26.28,0.03c-10.43,0-20.85,0.01-31.28-0.03
		c-4.79-0.02-9.59-0.13-14.38-0.22c-0.6-0.01-1.19-0.18-1.77-0.27c-0.13-0.41-0.31-0.71-0.31-1c0.01-6.67,0.04-13.33,0.08-20
		C673.65,221.85,673.78,221.45,673.92,220.71z"/>
	<path class="st3" d="M431.86,220.37c0.1,0.7,0.21,1.19,0.23,1.69c0.24,6.11,0.07,18.48-0.31,21.12c-0.53,0.07-1.12,0.2-1.71,0.2
		c-24.22,0-48.43-0.02-72.65-0.04c-0.81,0-1.63-0.09-2.65-0.15c0-3.88-0.01-7.6,0-11.31c0.01-3.73-0.07-7.46,0.06-11.01
		c1.4-0.79,2.58-0.54,3.7-0.54c11.69-0.04,23.38-0.06,35.07-0.07c11.58-0.01,23.17-0.02,34.75-0.01
		C429.49,220.24,430.61,220.32,431.86,220.37z"/>
	<path class="st3" d="M591.41,220.87c0,7.76,0,15.15,0,22.37c-0.82,0.86-1.7,0.64-2.5,0.64c-5.94,0.01-11.89,0-17.83,0
		c-17.73,0-35.46-0.01-53.18-0.01c-1.04,0-2.08,0-3.19,0c-0.18-0.48-0.43-0.85-0.44-1.23c-0.02-6.88,0-13.75,0.02-20.63
		c0-0.2,0.1-0.4,0.2-0.77c0.51-0.11,1.09-0.28,1.68-0.35c0.51-0.06,1.04-0.02,1.56-0.02c18.87-0.03,37.75-0.05,56.62-0.09
		c4.69-0.01,9.38-0.06,14.08-0.08C589.34,220.72,590.26,220.81,591.41,220.87z"/>
	<path class="st3" d="M591.93,338.4c0.02,7.82,0.05,15.19-0.06,22.45c-1.05,0.9-2.14,0.61-3.14,0.61
		c-15.43,0.02-30.86,0.01-46.29,0.01c-7.92,0-15.85,0-23.77-0.01c-1.13,0-2.27-0.05-3.51-0.08c-0.15-0.48-0.36-0.85-0.37-1.22
		c-0.02-6.77-0.01-13.54,0-20.31c0-0.3,0.13-0.59,0.24-1.05c0.56-0.09,1.15-0.25,1.74-0.26c2.71-0.04,5.42-0.05,8.13-0.05
		c21.06-0.02,42.12-0.04,63.18-0.06C589.22,338.4,590.35,338.4,591.93,338.4z"/>
	<path class="st3" d="M433.17,455.66c0.56,2.65,0.58,18.07,0.06,22.79c-0.53,0.09-1.12,0.28-1.7,0.28c-7.09,0-14.18-0.02-21.27-0.04
		c-1.98-0.01-3.96-0.02-5.94-0.02c-14.81-0.03-29.62-0.05-44.42-0.08c-1.03,0-2.06,0-3.22,0c-0.17-0.66-0.39-1.14-0.39-1.62
		c-0.02-6.67-0.01-13.34,0.01-20.01c0-0.3,0.11-0.6,0.21-1.07c0.55-0.1,1.14-0.27,1.73-0.3c0.94-0.05,1.88-0.02,2.81-0.02
		c22.94,0,45.89-0.01,68.83-0.01C430.99,455.57,432.11,455.63,433.17,455.66z"/>
	<path class="st3" d="M751.65,338.6c-0.01,7.76,0.07,15.13-0.17,22.34c-0.78,0.95-1.67,0.69-2.46,0.69
		c-11.06,0.02-22.12,0.04-33.17,0.03c-12.52-0.01-25.04-0.05-37.55-0.07c-1.13,0-2.26,0-3.57,0c-0.12-0.78-0.29-1.37-0.29-1.95
		c-0.02-6.25-0.02-12.51-0.01-18.76c0-0.61,0.13-1.22,0.19-1.76c0.93-0.7,1.9-0.48,2.81-0.49c8.76-0.06,17.52-0.12,26.28-0.13
		c14.71-0.02,29.42-0.01,44.13-0.01C748.95,338.5,750.08,338.56,751.65,338.6z"/>
	<path class="st4" d="M494.61,667.48c-0.07-0.23-0.24-0.52-0.23-0.82c0.03-4.17,0.07-8.34,0.13-12.51c0-0.29,0.19-0.57,0.3-0.88
		c0.31-0.11,0.6-0.3,0.88-0.3c29.11-0.02,58.21-0.12,87.32,0.01c8.73,0.04,17.48-0.14,26.3,0.21c0.55,1.8,0.28,3.47,0.33,5.11
		c0.04,1.56,0.04,3.13,0,4.69c-0.04,1.65,0.21,3.31-0.22,4.83c-0.21,0.16-0.28,0.23-0.37,0.28c-0.09,0.05-0.18,0.11-0.28,0.11
		c-0.52,0.03-1.04,0.07-1.56,0.07c-37.24-0.12-74.48-0.25-111.72-0.39c-0.2,0-0.4-0.11-0.58-0.19
		C494.81,667.68,494.75,667.6,494.61,667.48z"/>
	<path class="st4" d="M768.12,653.35c0.46,2.49,0.48,11.78,0.04,14.71c-0.88,0.65-1.96,0.37-2.96,0.37
		c-7.83,0-15.66-0.03-23.49-0.05c-15.66-0.03-31.32-0.07-46.97-0.09c-12-0.02-24.01-0.02-36.01-0.04c-1.44,0-2.89-0.07-4.44-0.12
		c-0.62-1.78-0.3-3.45-0.35-5.07c-0.05-1.56-0.05-3.13,0-4.69c0.06-1.64-0.19-3.31,0.31-4.98c0.48-0.11,0.87-0.25,1.27-0.28
		c0.83-0.05,1.67-0.04,2.5-0.04c27.56-0.03,55.12-0.05,82.68-0.08c8.04-0.01,16.08-0.05,24.11-0.05
		C765.91,652.96,767.09,652.69,768.12,653.35z"/>
	<path class="st3" d="M750.99,455.82c0.06,7.75,0.03,15.12-0.06,22.37c-1,0.83-1.97,0.56-2.87,0.56
		c-8.03,0.03-16.05,0.05-24.08,0.04c-15.64-0.01-31.28-0.04-46.91-0.06c-0.93,0-1.85,0-2.93,0c-0.14-0.62-0.35-1.09-0.35-1.56
		c-0.02-6.56-0.01-13.13,0-19.69c0-0.39,0.13-0.79,0.23-1.36c1.09-0.06,2.11-0.16,3.12-0.16c12.61-0.04,25.23-0.05,37.84-0.09
		c10.74-0.04,21.47-0.12,32.21-0.17C748.31,455.7,749.44,455.77,750.99,455.82z"/>
	<path class="st4" d="M335.79,666.56c-0.43-2.37-0.47-11.12-0.06-14.01c0.9-0.71,1.98-0.42,2.99-0.42
		c9.29-0.01,18.58,0.01,27.87,0.04c12.63,0.04,25.26,0.08,37.89,0.14c14.3,0.07,28.6,0.17,42.9,0.27c0.82,0.01,1.63,0.11,2.4,0.16
		c0.62,2.4,0.65,10.65,0.07,13.52c-0.34,0.06-0.73,0.19-1.13,0.19c-37.47,0.15-74.94,0.28-112.41,0.41
		C336.15,666.85,335.97,666.66,335.79,666.56z"/>
	<path class="st4" d="M312.91,651.63c0.56,2.95,0.53,12.69-0.02,15.34c-0.76,0.06-1.56,0.16-2.37,0.17
		c-7.51,0.08-15.02,0.16-22.53,0.21c-23.67,0.16-47.35,0.32-71.02,0.47c-1.22,0.01-2.48,0.19-3.62-0.24
		c-0.47-2.32-0.61-11.79-0.23-15.49c0.54-0.12,1.12-0.32,1.71-0.38c0.72-0.07,1.46-0.03,2.19-0.03c27.43-0.03,54.86-0.06,82.29-0.09
		c3.44,0,6.88-0.05,10.33-0.05C310.67,651.53,311.7,651.59,312.91,651.63z"/>
	<path class="st3" d="M856.18,678.91c-0.66-10.03-0.48-20.02-0.72-30c-0.02-0.91,0.09-1.82,0.14-2.72c0.46-0.14,0.75-0.3,1.04-0.31
		c6.99-0.04,13.98-0.06,20.97-0.07c0.4,0,0.8,0.14,1.27,0.22c0.5,3.37,0.34,6.69,0.41,10.01c0.06,3.31-0.05,6.62,0.18,10.04
		c4.05,0.56,7.89,0.08,11.72,0.11c3.73,0.03,7.47-0.31,11.15-0.01c0.71,2.18,0.92,9.12,0.38,12.65c-0.41,0.07-0.9,0.22-1.38,0.22
		c-14.81,0.03-29.63,0.04-44.44,0.05C856.82,679.12,856.73,679.07,856.18,678.91z"/>
	<path class="st4" d="M854.47,653.09c0.36,5.15,0.55,10,0.4,15.08c-1.07,0.08-1.97,0.21-2.87,0.21c-10.95,0-21.9-0.03-32.85-0.04
		c-7.4-0.01-14.81-0.02-22.21-0.02c-1.14,0-2.28,0-3.55,0c-0.16-0.58-0.41-1.05-0.41-1.53c-0.05-3.96-0.06-7.92-0.07-11.88
		c0-0.4,0.13-0.79,0.23-1.37c0.96-0.08,1.87-0.21,2.78-0.22c9.7-0.07,19.4-0.12,29.1-0.18c8.76-0.06,17.52-0.13,26.28-0.18
		C852.22,652.96,853.14,653.03,854.47,653.09z"/>
	<path class="st2" d="M186.19,584.86c-0.09-0.72-0.24-1.32-0.24-1.91c-0.01-10.61-0.01-21.21-0.01-31.96
		c0.48-0.11,0.96-0.31,1.45-0.32c7.5-0.1,15-0.17,22.5-0.23c0.5,0,1,0.11,1.66,0.18c0.09,0.79,0.23,1.49,0.24,2.19
		c0.05,3.43,0.07,6.87,0.1,10.31c0.06,6.25,0.13,12.49,0.17,18.74c0.01,1.01,0.24,2.1-0.69,3.23c-7.72,0-15.63,0.01-23.54-0.01
		C187.33,585.06,186.83,584.94,186.19,584.86z"/>
	<path class="st3" d="M927.62,678.79c-2.76,0.35-19.8,0.41-23.35,0.12c-0.11-0.42-0.35-0.9-0.35-1.37
		c-0.04-9.38-0.06-18.75-0.07-28.13c0-0.31,0.1-0.61,0.18-1.09c0.53-0.13,1.11-0.38,1.68-0.38c6.46-0.03,12.93-0.03,19.39,0
		c0.6,0,1.19,0.21,1.9,0.34C927.22,658.46,927.42,668.53,927.62,678.79z"/>
	<path class="st4" d="M217.3,114.31c3.32,0,6.63-0.15,9.81,0.09c0.2,0.22,0.29,0.29,0.34,0.38c0.05,0.09,0.08,0.2,0.08,0.3
		c-0.03,18.43-0.05,36.85-0.09,55.28c0,0.3-0.13,0.6-0.21,1c-1.66,0.79-3.44,0.33-5.17,0.39c-1.64,0.06-3.3,0.17-4.74-0.15
		c-0.25-0.28-0.33-0.35-0.38-0.44c-0.05-0.09-0.09-0.2-0.09-0.3c-0.04-7.28-0.1-14.57-0.09-21.85c0.02-11.24,0.09-22.49,0.15-33.73
		C216.89,115.1,217.04,114.91,217.3,114.31z"/>
	<path class="st4" d="M32.83,114.31c3.53-0.03,6.74-0.14,10.17,0.1c0.11,0.86,0.3,1.65,0.3,2.44c0.03,4.69,0.02,9.38,0.02,14.08
		c-0.01,12.3-0.02,24.61-0.03,36.91c0,1.13-0.05,2.27-0.07,3.41c-1.84,0.93-3.63,0.44-5.36,0.5c-1.64,0.05-3.32,0.19-4.93-0.18
		c-0.72-1.04-0.45-2.11-0.45-3.12c0-8.76,0.03-17.52,0.05-26.28c0.02-8.34,0.04-16.68,0.08-25.02
		C32.61,116.34,32.73,115.53,32.83,114.31z"/>
	<path class="st3" d="M532.29,362.88c0,4.2,0,8.25,0,12.21c-0.85,0.88-1.84,0.65-2.74,0.65c-8.24-0.04-16.49-0.11-24.73-0.17
		c-2.19-0.02-4.38-0.02-6.57-0.06c-0.81-0.01-1.62-0.12-2.38-0.17c-0.58-2.7-0.56-9.59,0.03-12.66c0.53-0.09,1.13-0.25,1.72-0.27
		C507.53,362.03,529.34,362.3,532.29,362.88z"/>
	<path class="st3" d="M731.57,492.7c0.01-4.43-0.17-8.45,0.12-12.43c2.61-0.45,33.32-0.57,36.37-0.18
		c0.61,2.12,0.67,9.75,0.06,12.79c-0.64,0.06-1.35,0.17-2.05,0.17C754.72,492.96,743.37,492.99,731.57,492.7z"/>
	<path class="st3" d="M372.4,362.85c0.36,3.47,0.3,10.27-0.09,12.58c-0.08,0.07-0.16,0.14-0.24,0.2c-0.09,0.05-0.18,0.12-0.28,0.12
		c-3.54,0-7.08,0.02-10.62-0.02c-8.11-0.09-16.23-0.22-24.29-0.33c-0.65-2.37-0.7-9.73-0.11-12.65c0.54-0.09,1.13-0.26,1.73-0.28
		C347.17,362.09,369.78,362.34,372.4,362.85z"/>
	<path class="st3" d="M413.86,375.32c-0.51-2.5-0.59-8.97-0.18-12.5c0.64-0.12,1.33-0.35,2.02-0.35c6.47,0.02,12.93,0.08,19.4,0.12
		c3.86,0.02,7.72,0.01,11.58,0.02c1.03,0,2.06,0.05,3.03,0.07c0.72,2.24,0.8,9.89,0.15,13.01c-5.96,0.3-11.98-0.02-17.99-0.1
		C425.84,375.49,419.81,375.68,413.86,375.32z"/>
	<path class="st3" d="M413.54,492.46c-0.17-4.19-0.12-8.12-0.03-12.2c0.58-0.15,1.05-0.39,1.53-0.39c11.37,0,22.75,0.03,34.12,0.07
		c0.2,0,0.4,0.1,0.74,0.19c0.75,1.94,0.28,4.03,0.36,6.06c0.08,2.07,0.02,4.15,0.02,5.99c-0.85,0.99-1.74,0.79-2.55,0.79
		c-5.22,0.01-10.43,0.02-15.65-0.03c-5.42-0.05-10.85-0.17-16.27-0.27C415.18,492.65,414.57,492.56,413.54,492.46z"/>
	<path class="st3" d="M530.99,493.08c-2.37,0.39-31.53,0.21-35.58-0.19c-0.89-1.92-0.36-4.02-0.43-6.05
		c-0.08-2.06-0.12-4.13,0.12-6.29c0.68-0.13,1.17-0.31,1.66-0.31c10.84-0.02,21.68-0.02,32.52-0.01c0.51,0,1.01,0.13,1.47,0.19
		C531.27,482.69,531.38,488.6,530.99,493.08z"/>
	<path class="st3" d="M450.08,257.52c-11.82,0-23.28,0-34.73-0.01c-0.39,0-0.78-0.17-1.13-0.26c-0.53-2.62-0.52-9.87-0.01-12.42
		c2.13-0.36,32.29-0.52,35.66-0.17c0.8,2.06,0.31,4.25,0.37,6.39C450.3,253.1,450.4,255.18,450.08,257.52z"/>
	<path class="st3" d="M768.46,244.8c0,4.35,0,8.39,0,12.38c-0.81,0.86-1.8,0.58-2.7,0.58c-8.12-0.01-16.25-0.05-24.37-0.09
		c-2.19-0.01-4.37,0-6.56-0.03c-0.71-0.01-1.42-0.11-2.08-0.16c-0.6-2.19-0.73-7.99-0.28-12.34c0.51-0.13,1.09-0.4,1.66-0.4
		c10.83-0.07,21.66-0.1,32.49-0.13C767.13,244.62,767.63,244.72,768.46,244.8z"/>
	<path class="st3" d="M690.32,480.1c0.5,3.39,0.44,10.31-0.11,12.77c-2.93,0.43-5.93,0.09-8.92,0.12c-2.91,0.03-5.83-0.02-8.75-0.05
		c-3.02-0.03-6.04-0.05-9.06-0.12c-2.89-0.07-5.8,0.19-8.62-0.19c-0.51-2.61-0.55-8.7-0.09-12.47c0.42-0.09,0.9-0.3,1.38-0.3
		c11.04,0,22.08,0.01,33.11,0.03C689.57,479.9,689.88,480.01,690.32,480.1z"/>
	<path class="st3" d="M655.7,257.38c-0.55-2.43-0.63-8.05-0.21-11.95c0.61-0.79,1.5-0.59,2.3-0.6c4.59-0.02,9.18-0.01,13.76-0.01
		c5.53,0,11.05-0.01,16.58,0.01c1.02,0,2.09-0.2,3.21,0.56c0.15,3.84,0.08,7.75,0.03,11.43c-1.09,0.95-2.07,0.71-2.98,0.71
		c-6.26,0.02-12.51,0.01-18.77,0.01c-3.86,0-7.72,0.03-11.57,0.02C657.24,257.57,656.44,257.44,655.7,257.38z"/>
	<path class="st3" d="M768.33,363.03c0.36,4.04,0.28,10.08-0.16,12.46c-0.35,0.08-0.74,0.27-1.13,0.26
		c-11.68-0.08-23.35-0.17-35.11-0.27c-0.68-2.2-0.29-4.28-0.36-6.32c-0.07-1.97-0.01-3.94-0.01-6.05c0.77-0.13,1.35-0.3,1.94-0.31
		c2.3-0.04,4.59-0.02,6.89-0.03c8.14-0.02,16.28-0.06,24.42-0.07C765.92,362.71,767.08,362.53,768.33,363.03z"/>
	<path class="st3" d="M691,375.96c-11.97-0.06-23.8,0.02-35.58-0.43c-0.57-2.54-0.63-7.51-0.18-12.46c0.52-0.11,1.1-0.35,1.68-0.35
		c10.83-0.02,21.66-0.02,32.49-0.01c0.51,0,1.02,0.11,1.51,0.16C691.55,364.98,691.64,372.44,691,375.96z"/>
	<path class="st3" d="M336.24,492.54c0-4.33,0-8.27,0-12.36c0.65-0.12,1.24-0.31,1.82-0.32c10.85-0.04,21.71-0.06,32.56-0.08
		c0.5,0,1.01,0.12,1.47,0.18c0.54,2.2,0.65,8.81,0.2,12.65c-0.53,0.11-1.11,0.34-1.7,0.34c-5.95-0.01-11.9-0.03-17.84-0.09
		c-4.38-0.04-8.76-0.12-13.14-0.2C338.59,492.66,337.57,492.6,336.24,492.54z"/>
	<path class="st3" d="M573.25,362.85c2.13-0.44,8.58-0.46,11.97-0.36c4.05,0.12,8.12-0.07,12.17-0.03c3.94,0.04,7.9-0.26,11.87,0.24
		c0.7,2.18,0.32,4.27,0.36,6.32c0.04,2.05,0.16,4.12-0.14,6.15c-0.5,0.15-0.79,0.3-1.08,0.3c-11.26-0.02-22.52-0.06-33.77-0.11
		c-0.4,0-0.8-0.11-1.15-0.16C572.93,372.95,572.82,367.03,573.25,362.85z"/>
	<path class="st3" d="M532.34,245.45c0,4.14,0,8.18,0,12.36c-0.54,0.13-1.02,0.35-1.5,0.34c-11.25-0.1-22.5-0.23-33.75-0.36
		c-0.2,0-0.41-0.08-0.76-0.14c-0.11-0.3-0.37-0.67-0.37-1.04c-0.02-3.54,0-7.08,0.03-10.62c0-0.29,0.16-0.58,0.22-0.78
		c0.15-0.14,0.22-0.25,0.31-0.27c0.41-0.08,0.82-0.19,1.22-0.18c11.25,0.1,22.49,0.2,33.74,0.32
		C531.68,245.08,531.86,245.23,532.34,245.45z"/>
	<path class="st3" d="M573.09,493.12c0-3.57-0.01-6.68,0.01-9.79c0-0.82,0.07-1.64,0.12-2.63c0.67-0.12,1.26-0.23,1.84-0.33
		c0.1-0.02,0.21-0.01,0.31-0.01c10.53-0.05,21.06-0.1,31.58-0.14c0.72,0,1.44,0.08,2.23,0.13c0.81,1.43,0.38,2.91,0.46,4.31
		c0.07,1.35,0.03,2.71,0.01,4.06c-0.02,1.44,0.1,2.89-0.17,4.38c-0.54,0.12-0.93,0.29-1.33,0.29
		C596.6,493.32,585.06,493.22,573.09,493.12z"/>
	<path class="st3" d="M372.48,257.56c-11.83,0.24-23.45-0.2-35.14-0.35c-0.79-2.14-0.33-4.23-0.41-6.27
		c-0.08-1.96-0.02-3.93-0.02-6.02c0.66-0.17,1.14-0.4,1.61-0.4c10.93-0.02,21.87-0.02,32.8-0.01c0.39,0,0.79,0.13,1.13,0.19
		C372.91,247.31,372.94,254.43,372.48,257.56z"/>
	<path class="st3" d="M609.25,245.09c0.51,2.75,0.54,9.86,0.1,12.81c-2.31,0.59-4.7,0.18-7.07,0.24c-2.29,0.06-4.59-0.05-6.89-0.09
		c-2.4-0.04-4.8-0.08-7.2-0.1c-2.3-0.02-4.59,0-6.89-0.03c-2.4-0.03-4.79-0.09-7.34-0.14c-0.15-0.63-0.39-1.2-0.4-1.78
		c-0.04-3.13-0.02-6.26,0-9.39c0-0.4,0.11-0.8,0.14-1.01c0.21-0.23,0.27-0.33,0.36-0.38c0.08-0.05,0.19-0.1,0.28-0.1
		c10.85-0.05,21.71-0.1,32.56-0.14C607.63,244.96,608.35,245.04,609.25,245.09z"/>
	<path class="st0" d="M525.27,219.35c0.64-0.47,1.24-1.01,1.93-1.39c7.37-4.1,15.14-6.9,23.66-7.43c9.86-0.62,19.07,1.35,27.58,6.41
		c0.98,0.58,1.87,1.31,2.78,2.01c0.12,0.09,0.1,0.36,0.14,0.55c-0.15,0.13-0.3,0.37-0.45,0.37c-18.46,0.02-36.92,0.02-55.38,0.02
		C525.45,219.7,525.36,219.52,525.27,219.35z"/>
	<path class="st4" d="M421.8,337.22c-1.04,0.2-1.43,0.33-1.82,0.33c-18.22,0.01-36.45,0.01-54.65,0.01
		c-0.32-1.02,0.53-1.14,0.97-1.4c5.66-3.43,11.77-5.71,18.23-7.15c2.77-0.62,5.58-0.72,8.39-0.82c7.19-0.25,14.1,1.07,20.68,4
		C416.34,333.41,418.97,334.86,421.8,337.22z"/>
	<path class="st4" d="M741.37,337.06c-0.77,0.79-1.77,0.46-2.66,0.47c-10.41,0.07-20.83,0.1-31.24,0.15
		c-6.04,0.03-12.08,0.07-18.12,0.11c-1.34,0.01-2.68,0-3.97,0c-0.29-0.85,0.27-1.06,0.68-1.31c11.66-7.06,24.18-9.95,37.7-7.42
		c5.66,1.06,11,3.1,15.83,6.33c0.52,0.35,1.02,0.72,1.49,1.12C741.22,336.63,741.27,336.86,741.37,337.06z"/>
	<path class="st0" d="M422.44,219.26c-19.26,0-37.89,0-56.93,0c0.47-0.55,0.65-0.91,0.95-1.08c6.02-3.65,12.46-6.18,19.41-7.5
		c7.97-1.51,15.77-0.92,23.48,1.38c4.32,1.29,8.31,3.32,12,5.92C421.64,218.19,421.84,218.55,422.44,219.26z"/>
	<path class="st5" d="M741.51,454.75c-19.28,0-38,0-56.72,0c-0.27-0.7,0.23-0.92,0.67-1.18c6.12-3.67,12.64-6.39,19.71-7.51
		c11.8-1.87,23.01-0.24,33.31,6.15C739.44,452.81,740.42,453.38,741.51,454.75z"/>
	<path class="st5" d="M367.16,454.23c0.58-0.5,0.9-0.87,1.31-1.11c10.56-6.2,21.87-9.15,34.15-7.62c6.6,0.82,12.77,2.94,18.42,6.51
		c0.85,0.54,1.64,1.19,2.37,1.72c-0.1,0.82-0.6,0.76-0.98,0.79c-0.62,0.05-1.25,0.03-1.88,0.03c-16.7,0.03-33.39,0.07-50.09,0.09
		C369.46,454.64,368.42,454.81,367.16,454.23z"/>
	<path class="st5" d="M523.95,455.24c0.53-1.5,1.76-1.74,2.67-2.26c7.54-4.32,15.67-6.79,24.33-7.25c6.63-0.35,13.1,0.79,19.31,3.14
		c3.57,1.35,7.02,3,9.9,5.56c-0.32,0.82-0.91,0.68-1.38,0.69c-2.61,0.03-5.22,0.02-7.82,0.02c-7.41,0-14.81-0.03-22.22,0.01
		c-7.3,0.04-14.6,0.15-21.89,0.21C525.95,455.37,525.05,455.29,523.95,455.24z"/>
	<path class="st0" d="M740.95,219.42c-19.03,0-37.59,0-56.44,0c0.32-0.44,0.46-0.82,0.74-0.98c9.53-5.67,19.75-8.94,30.95-8.3
		c7.92,0.46,15.41,2.55,22.16,6.87C739.21,217.56,740.17,217.99,740.95,219.42z"/>
	<path class="st4" d="M582,336.96c-0.44,0.2-0.69,0.39-0.95,0.41c-3.63,0.28-52.95,0.09-55.21-0.22c0.29-0.38,0.44-0.77,0.73-0.94
		c9.02-5.43,18.75-8.52,29.34-8.25c8.35,0.22,16.25,2.36,23.41,6.82C580.24,335.36,581.26,335.88,582,336.96z"/>
	<path class="st2" d="M186.46,609.47c-0.51-3.13-0.55-12.56-0.07-15.29c0.53-0.04,1.1-0.09,1.89-0.15c0.12,1.55,0.23,2.98,0.34,4.54
		c0.32,0.12,0.69,0.39,1.06,0.39c6.25,0.03,12.5,0.02,18.74,0.01c0.29,0,0.58-0.15,1.07-0.28c0.12-1.48,0.23-2.99,0.36-4.61
		c0.74,0,1.32,0,1.87,0c0.56,2.49,0.7,10.64,0.27,15.15c-0.41,0.11-0.88,0.35-1.36,0.35c-7.6,0.05-15.2,0.07-22.81,0.08
		C187.43,609.65,187.02,609.55,186.46,609.47z"/>
	<path class="st4" d="M186.35,592.89c-0.52-1.59-0.24-3.06-0.3-4.49c-0.03-0.7,0.1-1.4,0.18-2.24c0.83-0.1,1.53-0.24,2.24-0.26
		c11.48-0.28,20.51-0.15,23.2,0.37c0.51,2.07,0.38,4.2,0.19,6.45c-0.46,0.14-0.84,0.35-1.22,0.35c-7.71,0.03-15.42,0.04-23.13,0.05
		C187.21,593.11,186.9,593,186.35,592.89z"/>
	<path class="st1" d="M168.42,633.4c0-1.17-0.01-2.3,0-3.44c0.01-0.82,0.07-1.64,0.12-2.61c0.53-0.13,1.01-0.36,1.48-0.36
		c8.22-0.02,16.44-0.01,24.65,0c0.3,0,0.6,0.11,1.07,0.21c0.6,2.09,0.31,4.21,0.17,6.22c-0.21,0.18-0.29,0.26-0.38,0.31
		c-0.08,0.05-0.18,0.12-0.27,0.12c-8.01,0.03-16.02,0.05-24.03,0.07c-0.62,0-1.25-0.03-1.87-0.08
		C169.19,633.81,169.02,633.67,168.42,633.4z"/>
	<path class="st4" d="M208.49,594.15c0.66,1.25,0.41,2.52,0.19,3.76c-2.58,0.39-15.57,0.45-18.94,0.12
		c-0.6-1.25-0.53-2.52-0.06-3.78C192.19,593.87,205.84,593.8,208.49,594.15z"/>
	<rect x="323.4" y="207.87" class="st1" width="4.8" height="23.6"/>
	<rect x="323.4" y="247.87" class="st1" width="4.8" height="23.6"/>
	<rect x="323.4" y="288.2" class="st1" width="4.8" height="23.6"/>
	<rect x="323.67" y="333.4" class="st1" width="4.8" height="23.6"/>
	<rect x="323.4" y="377" class="st1" width="4.8" height="23.6"/>
	<rect x="323.8" y="418.6" class="st1" width="4.8" height="23.6"/>
	<rect x="323.93" y="457" class="st1" width="4.8" height="23.6"/>
	<rect x="323.4" y="494.6" class="st1" width="4.8" height="23.6"/>
	<rect x="323.4" y="531.8" class="st1" width="4.8" height="23.6"/>
	<rect x="323.4" y="569.4" class="st1" width="4.8" height="23.6"/>
	<rect x="323.4" y="606.73" class="st1" width="4.8" height="23.6"/>
	<rect x="322.87" y="645.27" class="st1" width="4.8" height="23.6"/>
	<rect x="460.8" y="209.3" class="st1" width="4.8" height="23.6"/>
	<rect x="460.8" y="249.3" class="st1" width="4.8" height="23.6"/>
	<rect x="460.8" y="289.63" class="st1" width="4.8" height="23.6"/>
	<rect x="461.07" y="334.83" class="st1" width="4.8" height="23.6"/>
	<rect x="460.8" y="378.43" class="st1" width="4.8" height="23.6"/>
	<rect x="461.2" y="420.03" class="st1" width="4.8" height="23.6"/>
	<rect x="461.33" y="458.43" class="st1" width="4.8" height="23.6"/>
	<rect x="460.8" y="496.03" class="st1" width="4.8" height="23.6"/>
	<rect x="460.8" y="533.23" class="st1" width="4.8" height="23.6"/>
	<rect x="460.8" y="570.83" class="st1" width="4.8" height="23.6"/>
	<rect x="460.8" y="608.17" class="st1" width="4.8" height="23.6"/>
	<rect x="460.27" y="646.7" class="st1" width="4.8" height="23.6"/>
	<rect x="483" y="209.9" class="st1" width="4.8" height="23.6"/>
	<rect x="483" y="249.9" class="st1" width="4.8" height="23.6"/>
	<rect x="483" y="290.23" class="st1" width="4.8" height="23.6"/>
	<rect x="483.27" y="335.43" class="st1" width="4.8" height="23.6"/>
	<rect x="483" y="379.03" class="st1" width="4.8" height="23.6"/>
	<rect x="483.4" y="420.63" class="st1" width="4.8" height="23.6"/>
	<rect x="483.53" y="459.03" class="st1" width="4.8" height="23.6"/>
	<rect x="483" y="496.63" class="st1" width="4.8" height="23.6"/>
	<rect x="483" y="533.83" class="st1" width="4.8" height="23.6"/>
	<rect x="483" y="571.43" class="st1" width="4.8" height="23.6"/>
	<rect x="483" y="608.77" class="st1" width="4.8" height="23.6"/>
	<rect x="482.47" y="647.3" class="st1" width="4.8" height="23.6"/>
	<rect x="619.8" y="211.9" class="st1" width="4.8" height="23.6"/>
	<rect x="619.8" y="251.9" class="st1" width="4.8" height="23.6"/>
	<rect x="619.8" y="292.23" class="st1" width="4.8" height="23.6"/>
	<rect x="620.07" y="337.43" class="st1" width="4.8" height="23.6"/>
	<rect x="619.8" y="381.03" class="st1" width="4.8" height="23.6"/>
	<rect x="620.2" y="422.63" class="st1" width="4.8" height="23.6"/>
	<rect x="620.33" y="461.03" class="st1" width="4.8" height="23.6"/>
	<rect x="619.8" y="498.63" class="st1" width="4.8" height="23.6"/>
	<rect x="619.8" y="535.83" class="st1" width="4.8" height="23.6"/>
	<rect x="619.8" y="573.43" class="st1" width="4.8" height="23.6"/>
	<rect x="619.8" y="610.77" class="st1" width="4.8" height="23.6"/>
	<rect x="619.27" y="649.3" class="st1" width="4.8" height="23.6"/>
	<rect x="642.2" y="211.9" class="st1" width="4.8" height="23.6"/>
	<rect x="642.2" y="251.9" class="st1" width="4.8" height="23.6"/>
	<rect x="642.2" y="292.23" class="st1" width="4.8" height="23.6"/>
	<rect x="642.47" y="337.43" class="st1" width="4.8" height="23.6"/>
	<rect x="642.2" y="381.03" class="st1" width="4.8" height="23.6"/>
	<rect x="642.6" y="422.63" class="st1" width="4.8" height="23.6"/>
	<rect x="642.73" y="461.03" class="st1" width="4.8" height="23.6"/>
	<rect x="642.2" y="498.63" class="st1" width="4.8" height="23.6"/>
	<rect x="642.2" y="535.83" class="st1" width="4.8" height="23.6"/>
	<rect x="642.2" y="573.43" class="st1" width="4.8" height="23.6"/>
	<rect x="642.2" y="610.77" class="st1" width="4.8" height="23.6"/>
	<rect x="641.67" y="649.3" class="st1" width="4.8" height="23.6"/>
	<rect x="779.4" y="209.9" class="st1" width="4.8" height="23.6"/>
	<rect x="779.4" y="249.9" class="st1" width="4.8" height="23.6"/>
	<rect x="779.4" y="290.23" class="st1" width="4.8" height="23.6"/>
	<rect x="779.67" y="335.43" class="st1" width="4.8" height="23.6"/>
	<rect x="779.4" y="379.03" class="st1" width="4.8" height="23.6"/>
	<rect x="779.8" y="420.63" class="st1" width="4.8" height="23.6"/>
	<rect x="779.93" y="459.03" class="st1" width="4.8" height="23.6"/>
	<rect x="779.4" y="496.63" class="st1" width="4.8" height="23.6"/>
	<rect x="779.4" y="533.83" class="st1" width="4.8" height="23.6"/>
	<rect x="779.4" y="571.43" class="st1" width="4.8" height="23.6"/>
	<rect x="779.4" y="608.77" class="st1" width="4.8" height="23.6"/>
	<rect x="778.87" y="647.3" class="st1" width="4.8" height="23.6"/>
	<rect x="111.27" y="146.6" class="st6" width="9.2" height="486.8"/>
	<rect x="177.8" y="147.1" class="st6" width="9.2" height="402.7"/>
	<rect x="177.8" y="547.6" class="st6" width="7.2" height="20.6"/>
	<rect x="178.87" y="627" class="st6" width="6.93" height="6.8"/>
</g>
</svg>
