<?xml version="1.0" encoding="utf-8"?>
<!-- Generator: Adobe Illustrator 26.3.1, SVG Export Plug-In . SVG Version: 6.00 Build 0)  -->
<svg version="1.1" xmlns="http://www.w3.org/2000/svg" xmlns:xlink="http://www.w3.org/1999/xlink" x="0px" y="0px"
	 viewBox="0 0 1024 768" style="enable-background:new 0 0 1024 768;" xml:space="preserve">
<style type="text/css">
	.sortierstrecke_st0{fill:#C1272D;stroke:#000000;stroke-miterlimit:10;}
	.sortierstrecke_st1{stroke:#000000;stroke-miterlimit:10;}
	.sortierstrecke_st2{fill:#808080;stroke:#000000;stroke-miterlimit:10;}
	.sortierstrecke_st3{fill:#808080;}
	.sortierstrecke_st4{fill:#FFFFFF;stroke:#000000;stroke-miterlimit:10;}
	.sortierstrecke_st5{fill:#0071BC;stroke:#000000;stroke-miterlimit:10;}
	.sortierstrecke_st6{fill:#666666;stroke:#000000;stroke-miterlimit:10;}
	.sortierstrecke_st7{fill:#603813;stroke:#000000;stroke-miterlimit:10;}
	.sortierstrecke_Lichtschranke{fill:#F78A15;stroke:#000000;stroke-miterlimit:10;}
	.sortierstrecke_st9{fill:#ED1C24;stroke:#000000;stroke-miterlimit:10;}
	.sortierstrecke_st10{fill:#C1272D;}
	.sortierstrecke_st11{fill:#B3B3B3;stroke:#000000;stroke-width:2;stroke-miterlimit:10;}
	.sortierstrecke_st12{fill:#C1272D;stroke:#000000;stroke-width:2;stroke-miterlimit:10;}
	.sortierstrecke_st13{fill:#F7F0F1;stroke:#000000;stroke-miterlimit:10;}
	.sortierstrecke_st14{fill:#FF0031;stroke:#000000;stroke-miterlimit:10;}
	.sortierstrecke_st15{fill:#0031FF;stroke:#000000;stroke-miterlimit:10;}
	.sortierstrecke_st16{fill:#666666;}
	.sortierstrecke_st17{fill:#B3B3B3;}
	.sortierstrecke_st18{fill:none;stroke:#4D4D4D;stroke-width:3;stroke-miterlimit:10;}
	.sortierstrecke_st19{fill:#603813;}
	.sortierstrecke_st20{fill:#FBAE17;stroke:#FBAE17;stroke-width:2;stroke-miterlimit:10;}
	.sortierstrecke_black18{fill:"#000";}
	.sortierstrecke_Lichtschranke_transform{fill:#b96306;stroke:#000000;stroke-miterlimit:10;}
</style>
<g id="Ebene_1">
	<rect x="486.6" y="578.9" class="sortierstrecke_st0" width="7.9" height="68.5"/>
	<rect x="111" y="481.7" class="sortierstrecke_st0" width="241.1" height="105"/>
	<rect x="30.6" y="577.6" class="sortierstrecke_st1" width="925.9" height="164.7"/>
	<rect x="352.3" y="570.6" class="sortierstrecke_st2" width="639.1" height="6.9"/>
	<rect x="471.3" y="577.1" class="sortierstrecke_st3" width="82.4" height="63.2"/>
	<rect x="406.2" y="640.7" class="sortierstrecke_st0" width="586.8" height="102.5"/>
	<rect x="461.4" y="653.3" class="sortierstrecke_st4" width="102.1" height="81.8"/>
	<rect x="643.2" y="652.6" class="sortierstrecke_st4" width="102.1" height="81.8"/>
	<rect x="822.5" y="652.4" class="sortierstrecke_st4" width="102.1" height="81.8"/>
	<ellipse class="sortierstrecke_st4" cx="511.3" cy="694.2" rx="31.7" ry="31"/>
	<ellipse class="sortierstrecke_st0" cx="692.4" cy="692.6" rx="31.7" ry="32.2"/>
	<ellipse class="sortierstrecke_st5" cx="873.4" cy="695.4" rx="31.7" ry="32.7"/>
	<rect x="31" y="570.9" class="sortierstrecke_st0" width="80" height="6.7"/>
	<rect x="30.2" y="743" class="sortierstrecke_st6" width="962.8" height="13.2"/>
	<rect x="212.6" y="476.6" class="sortierstrecke_st7" width="29.9" height="5.1"/>
	<rect x="31" y="550.7" class="sortierstrecke_Lichtschranke" id="LichtschrankeEingangSeite" width="40.1" height="20.3"/>
	<rect x="416.9" y="532.6" class="sortierstrecke_Lichtschranke" id="LichtschrankeNachFarbsensorSeite" width="5.6" height="44.9"/>
	<rect x="650.7" y="570.1" class="sortierstrecke_st3" width="82.7" height="70.2"/>
	<rect x="832.4" y="571.7" class="sortierstrecke_st3" width="82.5" height="68.5"/>
	<path class="sortierstrecke_st0" d="M735.4,570.6h-84.5v-51.2c22,0,44,0,66.1,0c6.1,0,12.3,0,18.4,0C735.4,536.5,735.4,553.5,735.4,570.6z"/>
	<rect x="673.2" y="520.5" class="sortierstrecke_st1" width="40.1" height="49.6"/>
	<rect x="686.4" y="507.4" class="sortierstrecke_st0" width="13.5" height="12.4"/>
	<path class="sortierstrecke_st0" d="M913,570.5h-81v-50.8c21.1,0,42.2,0,63.4,0c5.9,0,11.8,0,17.7,0C913,536.6,913,553.6,913,570.5z"/>
	<rect x="853.3" y="520.8" class="sortierstrecke_st1" width="38.7" height="49.2"/>
	<rect x="865.4" y="507.4" class="sortierstrecke_st0" width="13.1" height="12.3"/>
	<line class="sortierstrecke_st9" x1="511.4" y1="579.1" x2="512.2" y2="640.7"/>
	<line class="sortierstrecke_st9" x1="553.9" y1="606.6" x2="471.1" y2="606.6"/>
	<path class="sortierstrecke_st0" d="M554.8,570.6h-83.9v-51.2c21.9,0,43.7,0,65.6,0c6.1,0,12.2,0,18.3,0C554.8,536.5,554.8,553.5,554.8,570.6z"/>
	<rect x="915.4" y="539.4" class="sortierstrecke_st9" width="41.2" height="38.6"/>
	<rect x="562.6" y="531.4" class="sortierstrecke_st9" width="81.6" height="46.1"/>
	<rect x="422.5" y="532.9" class="sortierstrecke_st9" width="44.1" height="44.5"/>
	<rect x="493.2" y="520.4" class="sortierstrecke_st1" width="40.1" height="49.6"/>
	<rect x="505.2" y="507.4" class="sortierstrecke_st0" width="13.5" height="12.4"/>
	<rect x="422.4" y="606.7" class="sortierstrecke_st0" width="48.6" height="33.9"/>
	<rect x="749" y="532.6" class="sortierstrecke_st9" width="71.2" height="44.8"/>
	<rect x="554.5" y="605.9" class="sortierstrecke_st0" width="47.7" height="34.8"/>
	<rect x="602.3" y="605.8" class="sortierstrecke_st0" width="47.5" height="34.8"/>
	<rect x="599.7" y="605.9" class="sortierstrecke_Lichtschranke" id="LichtschrankeRotSeite" width="5.6" height="34.8"/>
	<rect x="465.3" y="606.7" class="sortierstrecke_Lichtschranke" id="LichtschrankeWeissSeite" width="5.6" height="33.9"/>
	<rect x="956.4" y="539.4" class="sortierstrecke_st1" width="35" height="37.6"/>
	<rect x="956.4" y="567.4" class="sortierstrecke_st0" width="35" height="50.7"/>
	<rect x="956" y="617.8" class="sortierstrecke_st1" width="35.4" height="22.7"/>
	<rect x="734" y="606.5" class="sortierstrecke_st0" width="48.3" height="34.1"/>
	<rect x="782.9" y="606.6" class="sortierstrecke_st0" width="48.9" height="34.1"/>
	<rect x="780.2" y="606.5" class="sortierstrecke_Lichtschranke" id="LichtschrankeBlauSeite" width="5.6" height="34.1"/>
	<rect x="915.4" y="606.7" class="sortierstrecke_st0" width="41.1" height="33.9"/>
	<rect x="471.3" y="576.8" class="sortierstrecke_st10" width="82.4" height="3.5"/>
	<rect x="540.4" y="579.7" class="sortierstrecke_st10" width="5" height="60.3"/>
	<line class="sortierstrecke_st9" x1="691" y1="579.2" x2="691.8" y2="640.8"/>
	<line class="sortierstrecke_st9" x1="733.5" y1="606.6" x2="650.7" y2="606.6"/>
	<line class="sortierstrecke_st9" x1="872.6" y1="579.2" x2="873.4" y2="640.8"/>
	<line class="sortierstrecke_st9" x1="915" y1="606.7" x2="832.3" y2="606.7"/>
	<line class="sortierstrecke_st0" x1="540.5" y1="640.7" x2="540.3" y2="579.8"/>
	<rect x="481.5" y="578.3" class="sortierstrecke_st10" width="5" height="61.7"/>
	<line class="sortierstrecke_st0" x1="545.4" y1="579.9" x2="545.4" y2="640.6"/>
	<line class="sortierstrecke_st0" x1="481.6" y1="579.9" x2="481.8" y2="641"/>
	<line class="sortierstrecke_st0" x1="486.7" y1="579.9" x2="486.8" y2="640.8"/>
	<line class="sortierstrecke_st0" x1="481.7" y1="580.3" x2="471.3" y2="580.3"/>
	<line class="sortierstrecke_st0" x1="486.7" y1="580.3" x2="540.4" y2="580.3"/>
	<line class="sortierstrecke_st0" x1="545.1" y1="580.3" x2="553.7" y2="580.3"/>
	<rect x="650.7" y="577.1" class="sortierstrecke_st10" width="82.4" height="3.5"/>
	<rect x="719.8" y="579.9" class="sortierstrecke_st10" width="5" height="60.3"/>
	<rect x="660.9" y="578.6" class="sortierstrecke_st10" width="5" height="61.7"/>
	<line class="sortierstrecke_st0" x1="661.1" y1="580.6" x2="650.7" y2="580.6"/>
	<line class="sortierstrecke_st0" x1="724.6" y1="580.6" x2="733.1" y2="580.6"/>
	<line class="sortierstrecke_st0" x1="665.9" y1="580.8" x2="719.6" y2="580.8"/>
	<line class="sortierstrecke_st0" x1="719.8" y1="641.2" x2="719.6" y2="580.2"/>
	<line class="sortierstrecke_st0" x1="724.7" y1="580.3" x2="724.7" y2="641"/>
	<line class="sortierstrecke_st0" x1="661" y1="580.3" x2="661.2" y2="641.4"/>
	<line class="sortierstrecke_st0" x1="666" y1="580.3" x2="666.1" y2="641.3"/>
	<rect x="832.4" y="577.1" class="sortierstrecke_st10" width="82.4" height="3.5"/>
	<rect x="901.5" y="580" class="sortierstrecke_st10" width="5" height="60.3"/>
	<rect x="842.6" y="578.6" class="sortierstrecke_st10" width="5" height="61.7"/>
	<line class="sortierstrecke_st0" x1="842.7" y1="580" x2="832.3" y2="580"/>
	<line class="sortierstrecke_st0" x1="906.1" y1="580" x2="914.7" y2="580"/>
	<line class="sortierstrecke_st0" x1="847.4" y1="580.2" x2="901.1" y2="580.2"/>
	<line class="sortierstrecke_st0" x1="901.3" y1="640.6" x2="901.2" y2="579.6"/>
	<line class="sortierstrecke_st0" x1="906.2" y1="579.7" x2="906.3" y2="640.4"/>
	<line class="sortierstrecke_st0" x1="842.5" y1="579.7" x2="842.7" y2="640.8"/>
	<line class="sortierstrecke_st0" x1="847.6" y1="579.7" x2="847.6" y2="640.7"/>
	<rect x="441" y="576.5" class="sortierstrecke_st10" width="4.8" height="30.8"/>
	<rect x="623.8" y="576.7" class="sortierstrecke_st10" width="4.8" height="30.8"/>
	<rect x="577.4" y="576.6" class="sortierstrecke_st10" width="4.8" height="30.8"/>
	<rect x="755" y="576.7" class="sortierstrecke_st10" width="4.8" height="30.8"/>
	<rect x="803" y="576.7" class="sortierstrecke_st10" width="4.8" height="30.8"/>
</g>
<g id="Obenansicht">
	
		<rect x="564.8" y="171.7" transform="matrix(1 -4.869705e-03 4.869705e-03 1 -1.2659 2.9441)" class="sortierstrecke_st11" width="78.3" height="179.5"/>
	
		<rect x="509.8" y="350.6" transform="matrix(1 -4.879594e-03 4.879594e-03 1 -1.8812 3.6181)" class="sortierstrecke_st12" width="461.5" height="73.4"/>
	
		<ellipse transform="matrix(1 -2.715792e-03 2.715792e-03 1 -1.0512 1.6477)" class="sortierstrecke_st13" cx="606.2" cy="387.9" rx="27.6" ry="27.6"/>
	
		<ellipse transform="matrix(1 -2.944038e-03 2.944038e-03 1 -1.143 2.2302)" class="sortierstrecke_st14" cx="757" cy="389.4" rx="27.6" ry="27.6"/>
	
		<ellipse transform="matrix(1 -2.465312e-03 2.465312e-03 1 -0.9501 2.2588)" class="sortierstrecke_st15" cx="915.8" cy="386.5" rx="27.6" ry="27.6"/>
	
		<rect x="719.4" y="170.7" transform="matrix(1 -4.869705e-03 4.869705e-03 1 -1.2594 3.6972)" class="sortierstrecke_st11" width="78.3" height="179.5"/>
	
		<rect x="875.4" y="170.4" transform="matrix(1 -4.869705e-03 4.869705e-03 1 -1.2563 4.4569)" class="sortierstrecke_st11" width="78.3" height="179.5"/>
	<g>
		<rect x="959" y="73.7" class="sortierstrecke_black18 foerderband" width="40.4" height="97.6"/>
		<rect x="918.7" y="73.7" class="sortierstrecke_st16 foerderband" width="40.4" height="97.6"/>
		<rect x="878.3" y="73.7" class="sortierstrecke_st17 foerderband" width="40.4" height="97.6"/>
		<rect x="838" y="73.7" class="sortierstrecke_black18 foerderband" width="40.4" height="97.6"/>
		<rect x="797.6" y="73.7" class="sortierstrecke_st16 foerderband" width="40.4" height="97.6"/>
		<rect x="757.2" y="73.7" class="sortierstrecke_st17 foerderband" width="40.4" height="97.6"/>
		<rect x="716.9" y="73.7" class="sortierstrecke_black18 foerderband" width="40.4" height="97.6"/>
		<rect x="676.5" y="73.7" class="sortierstrecke_st16 foerderband" width="40.4" height="97.6"/>
		<rect x="636.1" y="73.7" class="sortierstrecke_st17 foerderband" width="40.4" height="97.6"/>
		<rect x="595.8" y="73.7" class="sortierstrecke_black18 foerderband" width="40.4" height="97.6"/>
		<rect x="555.4" y="73.7" class="sortierstrecke_st16 foerderband" width="40.4" height="97.6"/>
		<rect x="515.1" y="73.7" class="sortierstrecke_st17 foerderband" width="40.4" height="97.6"/>
		<rect x="474.6" y="73.8" class="sortierstrecke_black18 foerderband" width="40.4" height="97.6"/>
		<rect x="434.3" y="73.8" class="sortierstrecke_st16 foerderband" width="40.4" height="97.6"/>
		<rect x="393.9" y="73.8" class="sortierstrecke_st17 foerderband" width="40.4" height="97.6"/>
		<rect x="353.4" y="73.8" class="sortierstrecke_black18 foerderband" width="40.4" height="97.6"/>
		<rect x="313" y="73.8" class="sortierstrecke_st16 foerderband" width="40.4" height="97.6"/>
		<rect x="272.6" y="73.8" class="sortierstrecke_st17 foerderband" width="40.4" height="97.6"/>
		<rect x="232.1" y="73.8" class="sortierstrecke_black18 foerderband" width="40.4" height="97.6"/>
		<rect x="191.8" y="73.8" class="sortierstrecke_st16 foerderband" width="40.4" height="97.6"/>
		<rect x="151.4" y="73.8" class="sortierstrecke_st17 foerderband" width="40.4" height="97.6"/>
		<rect x="111.1" y="73.8" class="sortierstrecke_black18 foerderband" width="40.4" height="97.6"/>
		<rect x="70.7" y="73.8" class="sortierstrecke_st16 foerderband" width="40.4" height="97.6"/>
		<rect x="30.4" y="73.8" class="sortierstrecke_st17 foerderband" width="40.4" height="97.6"/>
		<rect x="31" y="175" class="sortierstrecke_Lichtschranke" id="LichtschrankeEingangOben" width="40.1" height="20.3"/>
		<rect x="470" y="175" class="sortierstrecke_Lichtschranke" id="LichtschrankeNachFarbsensorOben" width="6.1" height="35.3"/>
	</g>
	<rect x="29.8" y="73.3" class="sortierstrecke_st18" width="969.6" height="98.5"/>
	<g>
		
			<rect x="124.9" y="36.3" transform="matrix(1 -4.717416e-03 4.717416e-03 1 -0.586 1.3681)" class="sortierstrecke_st12" width="329.6" height="177.2"/>
		<rect x="262.8" y="34.6" class="sortierstrecke_st19" width="45.6" height="180.5"/>
	</g>
	<rect x="663" y="321" class="sortierstrecke_st12" width="43.1" height="29.7"/>
	<rect x="515.3" y="322.1" class="sortierstrecke_st12" width="43.1" height="29.3"/>
	<rect x="679.6" y="323.1" class="sortierstrecke_st20" id="LichtschrankeRotOben" width="10" height="25.3"/>
	<rect x="532.1" y="324.2" class="sortierstrecke_st20" id="LichtschrankeWeissOben" width="10" height="24.8"/>
	<rect x="814" y="320.4" class="sortierstrecke_st12" width="43.1" height="29.7"/>
	<rect x="830.6" y="322.6" class="sortierstrecke_st20" id="LichtschrankeBlauOben" width="10" height="25.1"/>
</g>
</svg>
