<?xml version="1.0" encoding="utf-8"?>
<!-- Generator: Adobe Illustrator 26.3.1, SVG Export Plug-In . SVG Version: 6.00 Build 0)  -->
<svg version="1.1" id="Ebene_1" xmlns="http://www.w3.org/2000/svg" xmlns:xlink="http://www.w3.org/1999/xlink" x="0px" y="0px"
	 viewBox="0 0 1024 768" style="enable-background:new 0 0 1024 768;" xml:space="preserve">
<style type="text/css">
	.st0{fill:#C1272D;stroke:#000000;stroke-miterlimit:10;}
	.st1{stroke:#000000;stroke-miterlimit:10;}
	.st2{fill:#808080;stroke:#000000;stroke-miterlimit:10;}
	.st3{fill:#808080;}
	.st4{fill:#FFFFFF;stroke:#000000;stroke-miterlimit:10;}
	.st5{fill:#0071BC;stroke:#000000;stroke-miterlimit:10;}
	.st6{fill:#666666;stroke:#000000;stroke-miterlimit:10;}
	.st7{fill:#603813;stroke:#000000;stroke-miterlimit:10;}
	.st8{fill:#F78A15;stroke:#000000;stroke-miterlimit:10;}
	.st9{fill:#ED1C24;stroke:#000000;stroke-miterlimit:10;}
	.st10{fill:#C1272D;}
	.st11{fill:url(#SVGID_1_);stroke:#666666;stroke-width:3;stroke-miterlimit:10;}
	.st12{fill:url(#SVGID_00000091699578296517699550000013289775215197415341_);stroke:#666666;stroke-width:3;stroke-miterlimit:10;}
	.st13{fill:url(#SVGID_00000088100725253423321170000008396924083316048291_);stroke:#666666;stroke-width:3;stroke-miterlimit:10;}
	.st14{fill:url(#SVGID_00000172409963030422740600000011511434449127394957_);stroke:#666666;stroke-width:3;stroke-miterlimit:10;}
	.st15{fill:#C1272D;stroke:#C1272D;stroke-width:3;stroke-miterlimit:10;}
	.st16{fill:url(#SVGID_00000068651804370773774850000017402207082784709027_);stroke:#666666;stroke-width:3;stroke-miterlimit:10;}
	.st17{fill:#F7F0F1;stroke:#C1272D;stroke-width:3;stroke-miterlimit:10;}
	.st18{fill:#FF0031;stroke:#C1272D;stroke-width:3;stroke-miterlimit:10;}
	.st19{fill:#0031FF;stroke:#C1272D;stroke-width:3;stroke-miterlimit:10;}
	.st20{fill:#603813;}
</style>
<rect x="486.6" y="578.9" class="st0" width="7.9" height="68.5"/>
<rect x="111" y="481.7" class="st0" width="241.1" height="105"/>
<rect x="30.6" y="577.6" class="st1" width="925.9" height="164.7"/>
<rect x="352.3" y="570.6" class="st2" width="639.1" height="6.9"/>
<rect x="471.3" y="577.1" class="st3" width="82.4" height="63.2"/>
<rect x="406.2" y="640.7" class="st0" width="586.8" height="102.5"/>
<rect x="461.4" y="653.3" class="st4" width="102.1" height="81.8"/>
<rect x="643.2" y="652.6" class="st4" width="102.1" height="81.8"/>
<rect x="822.5" y="652.4" class="st4" width="102.1" height="81.8"/>
<ellipse class="st4" cx="511.3" cy="694.2" rx="31.7" ry="31"/>
<ellipse class="st0" cx="692.4" cy="692.6" rx="31.7" ry="32.2"/>
<ellipse class="st5" cx="873.4" cy="695.4" rx="31.7" ry="32.7"/>
<rect x="31" y="570.9" class="st0" width="80" height="6.7"/>
<rect x="30.2" y="743" class="st6" width="962.8" height="13.2"/>
<rect x="212.6" y="476.6" class="st7" width="29.9" height="5.1"/>
<rect x="31" y="550.7" class="st8" width="40.1" height="20.3"/>
<rect x="416.9" y="532.6" class="st8" width="5.6" height="44.9"/>
<rect x="650.7" y="570.1" class="st3" width="82.7" height="70.2"/>
<rect x="832.4" y="571.7" class="st3" width="82.5" height="68.5"/>
<path class="st0" d="M735.4,570.6h-84.5v-51.2c22,0,44,0,66.1,0c6.1,0,12.3,0,18.4,0C735.4,536.5,735.4,553.5,735.4,570.6z"/>
<rect x="673.2" y="520.5" class="st1" width="40.1" height="49.6"/>
<rect x="686.4" y="507.4" class="st0" width="13.5" height="12.4"/>
<path class="st0" d="M913,570.5h-81v-50.8c21.1,0,42.2,0,63.4,0c5.9,0,11.8,0,17.7,0C913,536.6,913,553.6,913,570.5z"/>
<rect x="853.3" y="520.8" class="st1" width="38.7" height="49.2"/>
<rect x="865.4" y="507.4" class="st0" width="13.1" height="12.3"/>
<line class="st9" x1="511.4" y1="579.1" x2="512.2" y2="640.7"/>
<line class="st9" x1="553.9" y1="606.6" x2="471.1" y2="606.6"/>
<path class="st0" d="M554.8,570.6h-83.9v-51.2c21.9,0,43.7,0,65.6,0c6.1,0,12.2,0,18.3,0C554.8,536.5,554.8,553.5,554.8,570.6z"/>
<rect x="915.4" y="539.4" class="st9" width="41.2" height="38.6"/>
<rect x="562.6" y="531.4" class="st9" width="81.6" height="46.1"/>
<rect x="422.5" y="532.9" class="st9" width="44.1" height="44.5"/>
<rect x="493.2" y="520.4" class="st1" width="40.1" height="49.6"/>
<rect x="505.2" y="507.4" class="st0" width="13.5" height="12.4"/>
<rect x="422.4" y="606.7" class="st0" width="48.6" height="33.9"/>
<rect x="749" y="532.6" class="st9" width="71.2" height="44.8"/>
<rect x="554.5" y="605.9" class="st0" width="47.7" height="34.8"/>
<rect x="602.3" y="605.8" class="st0" width="47.5" height="34.8"/>
<rect x="599.7" y="605.9" class="st8" width="5.6" height="34.8"/>
<rect x="465.3" y="606.7" class="st8" width="5.6" height="33.9"/>
<rect x="956.4" y="539.4" class="st1" width="35" height="37.6"/>
<rect x="956.4" y="567.4" class="st0" width="35" height="50.7"/>
<rect x="956" y="617.8" class="st1" width="35.4" height="22.7"/>
<rect x="734" y="606.5" class="st0" width="48.3" height="34.1"/>
<rect x="782.9" y="606.6" class="st0" width="48.9" height="34.1"/>
<rect x="780.2" y="606.5" class="st8" width="5.6" height="34.1"/>
<rect x="915.4" y="606.7" class="st0" width="41.1" height="33.9"/>
<rect x="471.3" y="576.8" class="st10" width="82.4" height="3.5"/>
<rect x="540.4" y="579.7" class="st10" width="5" height="60.3"/>
<line class="st9" x1="691" y1="579.2" x2="691.8" y2="640.8"/>
<line class="st9" x1="733.5" y1="606.6" x2="650.7" y2="606.6"/>
<line class="st9" x1="872.6" y1="579.2" x2="873.4" y2="640.8"/>
<line class="st9" x1="915" y1="606.7" x2="832.3" y2="606.7"/>
<line class="st0" x1="540.5" y1="640.7" x2="540.3" y2="579.8"/>
<rect x="481.5" y="578.3" class="st10" width="5" height="61.7"/>
<line class="st0" x1="545.4" y1="579.9" x2="545.4" y2="640.6"/>
<line class="st0" x1="481.6" y1="579.9" x2="481.8" y2="641"/>
<line class="st0" x1="486.7" y1="579.9" x2="486.8" y2="640.8"/>
<line class="st0" x1="481.7" y1="580.3" x2="471.3" y2="580.3"/>
<line class="st0" x1="486.7" y1="580.3" x2="540.4" y2="580.3"/>
<line class="st0" x1="545.1" y1="580.3" x2="553.7" y2="580.3"/>
<rect x="650.7" y="577.1" class="st10" width="82.4" height="3.5"/>
<rect x="719.8" y="579.9" class="st10" width="5" height="60.3"/>
<rect x="660.9" y="578.6" class="st10" width="5" height="61.7"/>
<line class="st0" x1="661.1" y1="580.6" x2="650.7" y2="580.6"/>
<line class="st0" x1="724.6" y1="580.6" x2="733.1" y2="580.6"/>
<line class="st0" x1="665.9" y1="580.8" x2="719.6" y2="580.8"/>
<line class="st0" x1="719.8" y1="641.2" x2="719.6" y2="580.2"/>
<line class="st0" x1="724.7" y1="580.3" x2="724.7" y2="641"/>
<line class="st0" x1="661" y1="580.3" x2="661.2" y2="641.4"/>
<line class="st0" x1="666" y1="580.3" x2="666.1" y2="641.3"/>
<rect x="832.4" y="577.1" class="st10" width="82.4" height="3.5"/>
<rect x="901.5" y="580" class="st10" width="5" height="60.3"/>
<rect x="842.6" y="578.6" class="st10" width="5" height="61.7"/>
<line class="st0" x1="842.7" y1="580" x2="832.3" y2="580"/>
<line class="st0" x1="906.1" y1="580" x2="914.7" y2="580"/>
<line class="st0" x1="847.4" y1="580.2" x2="901.1" y2="580.2"/>
<line class="st0" x1="901.3" y1="640.6" x2="901.2" y2="579.6"/>
<line class="st0" x1="906.2" y1="579.7" x2="906.3" y2="640.4"/>
<line class="st0" x1="842.5" y1="579.7" x2="842.7" y2="640.8"/>
<line class="st0" x1="847.6" y1="579.7" x2="847.6" y2="640.7"/>
<rect x="441" y="576.5" class="st10" width="4.8" height="30.8"/>
<rect x="623.8" y="576.7" class="st10" width="4.8" height="30.8"/>
<rect x="577.4" y="576.6" class="st10" width="4.8" height="30.8"/>
<rect x="755" y="576.7" class="st10" width="4.8" height="30.8"/>
<rect x="803" y="576.7" class="st10" width="4.8" height="30.8"/>
<linearGradient id="SVGID_1_" gradientUnits="userSpaceOnUse" x1="532.1973" y1="469.0368" x2="532.1973" y2="298.6368" gradientTransform="matrix(-1.213925e-02 -2.7352 2.8347 -1.258093e-02 -368.9292 1574.1691)">
	<stop  offset="0" style="stop-color:#FFFFFF"/>
	<stop  offset="1" style="stop-color:#000000"/>
</linearGradient>
<polygon class="st11" points="954,69.9 954.4,155.3 471.4,157.4 471,72.1 "/>
<linearGradient id="SVGID_00000139279444576655398300000010710352448921874349_" gradientUnits="userSpaceOnUse" x1="454.1973" y1="341.0368" x2="516.5972" y2="341.0368" gradientTransform="matrix(-1.213925e-02 -2.7352 2.8347 -1.258093e-02 -368.9292 1574.1691)">
	<stop  offset="0" style="stop-color:#FFFFFF"/>
	<stop  offset="1" style="stop-color:#000000"/>
</linearGradient>
<polygon style="fill:url(#SVGID_00000139279444576655398300000010710352448921874349_);stroke:#666666;stroke-width:3;stroke-miterlimit:10;" points="
	614.2,156.8 615,327.5 569.6,327.7 568.9,157 "/>
<linearGradient id="SVGID_00000073701449086314789160000005119998131743008408_" gradientUnits="userSpaceOnUse" x1="454.1973" y1="388.6368" x2="516.5972" y2="388.6368" gradientTransform="matrix(-1.213925e-02 -2.7352 2.8347 -1.258093e-02 -368.9292 1574.1691)">
	<stop  offset="0" style="stop-color:#FFFFFF"/>
	<stop  offset="1" style="stop-color:#000000"/>
</linearGradient>
<polygon style="fill:url(#SVGID_00000073701449086314789160000005119998131743008408_);stroke:#666666;stroke-width:3;stroke-miterlimit:10;" points="
	749.2,156.2 749.9,326.9 704.6,327.1 703.8,156.4 "/>
<linearGradient id="SVGID_00000132077084675762352170000007624151237213465228_" gradientUnits="userSpaceOnUse" x1="454.1973" y1="438.2368" x2="516.5972" y2="438.2368" gradientTransform="matrix(-1.213925e-02 -2.7352 2.8347 -1.258093e-02 -368.9292 1574.1691)">
	<stop  offset="0" style="stop-color:#FFFFFF"/>
	<stop  offset="1" style="stop-color:#000000"/>
</linearGradient>
<polygon style="fill:url(#SVGID_00000132077084675762352170000007624151237213465228_);stroke:#666666;stroke-width:3;stroke-miterlimit:10;" points="
	889.8,155.6 890.5,326.2 845.2,326.4 844.4,155.8 "/>
<rect x="676.6" y="159" transform="matrix(-4.438131e-03 -1 1 -4.438131e-03 350.511 1079.6036)" class="st15" width="72.2" height="412.7"/>
<linearGradient id="SVGID_00000038400377389981195860000011137003648264781985_" gradientUnits="userSpaceOnUse" x1="537.5741" y1="156.3116" x2="537.5741" y2="194.1648" gradientTransform="matrix(-1.683019e-02 -3.7921 2.8347 -1.258093e-02 -366.3512 2155.0474)">
	<stop  offset="0" style="stop-color:#FFFFFF"/>
	<stop  offset="1" style="stop-color:#000000"/>
</linearGradient>
<polygon style="fill:url(#SVGID_00000038400377389981195860000011137003648264781985_);stroke:#666666;stroke-width:3;stroke-miterlimit:10;" points="
	67.5,69 67.9,160 172.2,159.6 171.8,68.6 "/>
<rect x="237.2" y="-38.6" transform="matrix(-4.438131e-03 -1 1 -4.438131e-03 214.0382 430.7938)" class="st15" width="168.5" height="294.8"/>
<ellipse transform="matrix(1 -4.438008e-03 4.438008e-03 1 -1.6517 2.6483)" class="st17" cx="595.9" cy="373.5" rx="30.6" ry="26.3"/>
<ellipse transform="matrix(1 -4.437982e-03 4.437982e-03 1 -1.6087 3.2771)" class="st18" cx="737.6" cy="364.1" rx="27.2" ry="24.1"/>
<ellipse transform="matrix(1 -4.437906e-03 4.437906e-03 1 -1.6097 3.8507)" class="st19" cx="866.9" cy="364.6" rx="27.2" ry="25.2"/>
<rect x="299.8" y="23" class="st20" width="40.8" height="171.6"/>
</svg>
