<?xml version="1.0" encoding="UTF-8" standalone="no"?>
<!-- Generator: Adobe Illustrator 26.3.1, SVG Export Plug-In . SVG Version: 6.00 Build 0)  -->

<svg
   version="1.1"
   id="Ebene_1"
   x="0px"
   y="0px"
   viewBox="0 0 1024 768"
   style="enable-background:new 0 0 1024 768;"
   xml:space="preserve"
   sodipodi:docname="Stapelmagazin.svg"
   inkscape:version="1.2 (dc2aedaf03, 2022-05-15)"
   xmlns:inkscape="http://www.inkscape.org/namespaces/inkscape"
   xmlns:sodipodi="http://sodipodi.sourceforge.net/DTD/sodipodi-0.dtd"
   xmlns="http://www.w3.org/2000/svg"
   xmlns:svg="http://www.w3.org/2000/svg"><defs
   id="defs35" /><sodipodi:namedview
   id="namedview33"
   pagecolor="#ffffff"
   bordercolor="#000000"
   borderopacity="0.25"
   inkscape:showpageshadow="2"
   inkscape:pageopacity="0.0"
   inkscape:pagecheckerboard="0"
   inkscape:deskcolor="#d1d1d1"
   showgrid="false"
   inkscape:zoom="1.046875"
   inkscape:cx="512"
   inkscape:cy="385.43284"
   inkscape:window-width="1920"
   inkscape:window-height="991"
   inkscape:window-x="-9"
   inkscape:window-y="-9"
   inkscape:window-maximized="1"
   inkscape:current-layer="Ebene_1" />
<style
   type="text/css"
   id="style2">
	.stapelmagazin_st0{stroke:#000000;stroke-miterlimit:10;}
	.stapelmagazin_st1{fill:#333333;stroke:#000000;stroke-miterlimit:10;}
	.stapelmagazin_st2{fill:#F2F2F2;stroke:#000000;stroke-miterlimit:10;}
	.stapelmagazin_st3{fill:#CCCCCC;stroke:#000000;stroke-miterlimit:10;}
	.stapelmagazin_st4{fill:#C1272D;stroke:#000000;stroke-miterlimit:10;}
	.stapelmagazin_st5{fill:#4D4D4D;stroke:#000000;stroke-miterlimit:10;}
	.stapelmagazin_st6{fill:#333333;}
</style>
<path
   class="stapelmagazin_st0"
   d="M561.6,60.3c5.3,0.4,10.5,0.8,15.8,1.3c7.8,0.7,15.6,1.5,23.1,3.7c2.2,0.7,4.3,1.7,6.4,2.7  c0.9,0.5,1.3,1.2,1.3,2.5c0.1,17.6,0.3,35.3,0.4,52.9c0.1,17.5,0.1,35,0.2,52.4c0.2,45.4,0.4,90.7,0.6,136.1  c0.2,51.6,0.4,103.2,0.6,154.8c0,4.2,0,8.5,0,12.6c2.1,0.7,3.8,1.1,5.5,1.8c3.4,1.5,5.4,3.9,5.2,7.8c0,0.5,0,1,0,1.6  c0,33.6,0,67.2,0.1,100.8c0,7.7,0,15.4,0.1,23.1c0,1,0.1,2,0.2,3.4c97.1,0,193.9,0,290.8,0c0,37.5,0,74.9,0,112.4  c-256.6,0-513.2,0-769.8,0c0-37.5,0-74.9,0-112.4c105.4,0,210.8,0,316.7,0c0-2.2,0-4.2,0-6.1c0-15.7,0-31.4,0-47.1  c0-24.8,0.1-49.5,0.1-74.3c0-2.2,0.5-4,2.1-5.3c2-1.6,4.3-2.9,6.5-4.3c0.9-0.5,1.9-0.7,3-1.1c0-136.3,0-272.6,0-408.9  c5.7-3.5,12-4.8,18.5-5.9c13.1-2.3,26.4-3.3,39.7-3.9c1.1-0.1,2.2-0.3,3.4-0.5C541.7,60.3,551.7,60.3,561.6,60.3z M458.3,619.3  c-6-0.6-312.1-0.4-314.4,0.2c-0.6,5.3-0.4,107.2,0.3,109.3c255.4,0,510.7,0,766,0c0.7-4.6,0.4-107.3-0.3-109.8c-0.9,0-1.8,0-2.7,0  c-95.3,0.1-190.6,0.1-285.9,0.2c-0.1,0-0.2,0.1-0.2,0.2c-0.1,0.1-0.1,0.2-0.4,0.4c0,19.4,0,39.1,0,58.8  c-29.9,13.4-61.1,20.2-93.9,18.2c-23.8-1.4-46.5-7.3-68.4-16.9C458.3,659.6,458.3,639.5,458.3,619.3z M460,617.4  c4.8,0.7,157.1,0.5,159.4-0.2c0-6.1,0-12.2,0-18.4c0-35.8,0-71.6-0.1-107.3c0-1.2,0-2.5-0.1-3.7c-0.1-1.9-1-3.4-2.6-4.4  c-1.9-1.2-3.9-2-6.5-2.1c0.4,2.6-1.4,3.9-3.1,5.1c-2.5,1.7-5,3.4-7.7,4.9c-7.4,3.9-15.4,6.3-23.6,8.1c-22.9,5-46,5.9-69.3,3  c-8.2-1-16.2-2.8-23.8-6.1c-3.4-1.5-6.6-3.3-9.2-6c-2-2-3.4-4.2-3-7.2c0.1-0.5-0.1-0.9-0.3-1.8c-1.9,0.8-3.6,1.3-5.1,2.2  c-3.3,1.9-5.1,4.4-5,8.6c0.2,24.9,0,49.7,0,74.6c0,15,0,30,0,44.9C460,613.3,460,615.3,460,617.4z M471.8,73.4c0,34,0,67.7,0,101.9  c4.6-3.2,9.5-4.7,14.5-5.9c10.5-2.4,21.2-3.5,32-4.1c15.6-1,31.2-1,46.9,0c9.8,0.6,19.6,1.4,29.2,3.7c4.4,1,8.6,2.6,13,3.9  c0-11,0-22.2,0-33.4c0-11.2,0-22.5-0.1-33.7c-0.1-11.1,0.1-22.3-0.3-33.8c-5.9,3.5-12,4.8-18.1,5.9c-13.1,2.4-26.4,3.1-39.7,3.5  c-13.6,0.4-27.2,0.1-40.8-1C496,79.3,483.6,78.3,471.8,73.4z M619.3,677.7c0.7-10.6,0.3-56.2-0.5-58.4c-52.9,0-105.8,0-158.7,0  c-0.1,0.8-0.2,1.4-0.2,2c0,18.5,0,37-0.1,55.5c0,1.9,0.8,2.8,2.5,3.4c5.3,1.9,10.6,4.1,16,5.9c26.8,8.9,54.3,11.8,82.5,8.3  c19.8-2.5,38.8-8,57-16C618.3,678.2,618.7,678,619.3,677.7z M608.4,383.1c-0.6,0-0.9,0-1,0.1c-4.9,4.6-11,6.8-17.4,8.6  c-10.9,3.1-22.1,4.3-33.4,4.9c-12.6,0.7-25.1,0.5-37.7-0.6c-10.4-1-20.8-2.4-30.8-5.5c-5.6-1.7-11-3.7-15.5-7.6c-0.2-0.1-0.6,0-1,0  c0,1.2,0,2.3,0,3.5c0,14.1,0.1,28.3,0,42.4c0,2.9,1,5,3.1,6.8c3,2.7,6.6,4.5,10.3,6c9.8,3.9,20.1,5.7,30.5,6.7  c19.1,1.9,38.2,1.5,57.1-1.8c8.5-1.5,17-3.5,24.7-7.4c3.2-1.7,6.2-4,9.2-6c1.5-1,1.9-2.5,1.9-4.3c-0.1-11.9-0.1-23.7-0.1-35.6  C608.4,389.9,608.4,386.5,608.4,383.1z M607.8,230.4c-4.8,3-9.3,4.4-13.9,5.5c-11.4,2.6-22.9,3.6-34.5,4.2  c-16.6,0.9-33.2,0.8-49.7-0.7c-7.9-0.7-15.7-1.9-23.5-3.2c-5-0.8-9.8-2.4-14.5-5.3c0,1.6,0,2.7,0,3.8c0,13.6,0.1,27.2-0.1,40.9  c-0.1,3.8,1.4,6.3,4.6,7.8c3.3,1.6,6.7,3,10.2,4.1c10.5,3,21.3,4.2,32.2,4.9c19.8,1.4,39.5,1,59.1-1.8c7.4-1.1,14.8-2.4,21.7-5.5  c2.1-0.9,4.1-2.2,5.9-3.5c1.9-1.3,2.7-3.3,2.7-5.7c-0.1-12.2-0.1-24.3-0.1-36.5C607.8,236.6,607.8,233.9,607.8,230.4z M471.9,435  c-0.1,1.1-0.2,1.6-0.2,2c0,15.5,0,31,0,46.5c0,1.7,0.4,3.1,1.5,4.3c1.4,1.4,2.8,2.8,4.4,4c3.6,2.6,7.8,4.2,12,5.5  c10.5,3.2,21.2,4.7,32.1,4.9c9.2,0.2,18.4,0,27.5-0.5c12.2-0.7,24.1-2.8,35.8-6.4c7.6-2.3,14.9-5.3,21.2-10.2  c1.6-1.3,2.4-2.6,2.3-4.7c-0.1-14.8-0.1-29.5-0.2-44.3c0-0.7-0.2-1.3-0.2-2c-2.7,1.8-5.2,3.7-7.8,5.2c-5,2.9-10.5,4.8-16.2,6.3  c-12.5,3.3-25.3,4.7-38.2,5.2c-15.8,0.6-31.5-0.2-46.9-3.5C489.5,445.2,479.9,442.6,471.9,435z M471.7,178.6  c-0.1,0.6-0.2,0.9-0.2,1.2c0,15.6,0.1,31.2,0,46.8c0,2,0.8,3.3,2.4,4c3.4,1.4,6.8,2.9,10.3,3.8c11.7,2.9,23.7,3.8,35.8,4.4  c12.3,0.6,24.7,0.6,37,0c11.4-0.5,22.8-1.4,34-3.7c4.6-0.9,9-2,13.2-4.2c2.3-1.2,3.5-2.8,3.5-5.7c-0.2-14.9-0.2-29.7-0.3-44.6  c0-0.7-0.2-1.3-0.3-2.3c-4.4,2.7-8.9,4.1-13.5,5.1c-12.3,2.7-24.8,3.7-37.4,4.3c-14.6,0.6-29.1,0.6-43.7-0.7  C498.7,185.9,484.8,184.8,471.7,178.6z M607.9,281.7c-0.6,0.2-1,0.3-1.3,0.5c-3.1,2.7-6.7,4.3-10.5,5.6c-7.2,2.4-14.7,3.7-22.3,4.7  c-12.9,1.6-25.9,2.1-38.9,1.9c-14.8-0.3-29.5-1.2-44-4.4c-6.1-1.3-12.1-2.9-17.3-6.5c-0.5-0.4-1.2-0.7-2-1.2c0,1.5,0,2.7,0,3.8  c0,13.5,0.2,27,0,40.5c-0.1,3.7,1.3,6.1,4.3,7.6c3.7,1.9,7.5,3.8,11.5,5c13.3,4.1,27.1,5.5,40.9,6.2c15.4,0.7,30.8,0.5,46.1-1.7  c8.3-1.2,16.5-2.7,24.1-6.2c2.6-1.2,5-3,7.4-4.7c1.6-1.2,2.2-2.9,2.2-4.9c-0.1-10.7-0.1-21.4-0.1-32.1  C607.9,291.2,607.9,286.6,607.9,281.7z M607.9,333c-4,3.7-8.1,5.8-12.6,7.3c-6.6,2.3-13.4,3.7-20.3,4.7c-12.8,1.8-25.6,2.3-38.5,2.1  c-14.4-0.3-28.7-1.4-42.7-4.6c-7.6-1.7-15.1-3.9-21.4-8.9c-0.1-0.1-0.4,0.1-0.7,0.2c0,0.9,0,1.8,0,2.7c0,13.4,0.1,26.8-0.1,40.2  c0,2.7,0.9,4.8,3,6.1c3.2,2,6.5,3.9,10,5.2c7.7,3,15.8,4.5,24,5.6c21.9,2.9,43.8,3.1,65.7,0.1c7.7-1.1,15.4-2.5,22.6-5.7  c3-1.3,5.9-3.2,8.7-5.1c2.1-1.4,2.9-3.5,2.9-6.2c-0.2-13.7-0.2-27.4-0.3-41.2C608.1,334.9,608,334.3,607.9,333z M607.4,175.9  c-1.4-1.8-3.2-2.7-5.1-3.2c-5-1.4-10-2.8-15-3.7c-13.9-2.3-27.9-3-42-3.1c-17.8-0.1-35.5,0.6-53,3.6c-5.2,0.9-10.4,2.1-15.2,4.3  c-1.6,0.7-3.2,1.4-4.4,3.3c1.1,0.6,2,1.3,3.1,1.7c2.5,0.9,4.9,1.9,7.5,2.6c9.3,2.5,18.9,3.6,28.5,4.2c24,1.6,47.9,1.6,71.8-1.7  c6.2-0.9,12.3-2,18.1-4.3C603.7,178.8,605.8,177.8,607.4,175.9z M472.3,71c0,0.3,0.1,0.7,0.1,1c1.7,0.7,3.4,1.7,5.2,2.1  c4.5,1.1,9,2.3,13.6,3c19.5,2.8,39.1,3.4,58.8,2.9c13-0.4,26-1,38.8-3.5c4.6-0.9,9.2-2.4,13.7-3.8c1.6-0.5,3.2-1.4,4.5-3.2  c-1.8-0.8-3.2-1.8-4.8-2.2c-3.4-1-6.9-2-10.4-2.6c-13.3-2.3-26.7-2.8-40.1-2.9c-18.1-0.2-36.1,0.5-54.1,3  c-6.4,0.9-12.6,2.3-18.9,3.7C476.4,69,474.4,70.2,472.3,71z"
   id="path4" />
<path
   class="stapelmagazin_st1"
   d="M458.3,619.3c0,20.2,0,40.2,0,60.6c21.8,9.7,44.6,15.6,68.4,16.9c32.8,1.9,64-4.8,93.9-18.2  c0-19.7,0-39.4,0-58.8c0.3-0.3,0.3-0.3,0.4-0.4c0.1-0.1,0.2-0.2,0.2-0.2c95.3-0.1,190.6-0.1,285.9-0.2c0.9,0,1.9,0,2.7,0  c0.7,2.5,0.9,105.2,0.3,109.8c-255.3,0-510.7,0-766,0c-0.6-2.1-0.9-104-0.3-109.3C146.2,618.9,452.3,618.7,458.3,619.3z"
   id="path6" />
<path
   class="stapelmagazin_st1"
   d="M460,617.4c0-2.1,0-4.1,0-6c0-15,0-30,0-44.9c0-24.9,0.1-49.7,0-74.6c0-4.2,1.7-6.7,5-8.6  c1.5-0.9,3.2-1.4,5.1-2.2c0.2,0.8,0.4,1.3,0.3,1.8c-0.4,3,1,5.2,3,7.2c2.6,2.7,5.8,4.5,9.2,6c7.6,3.3,15.6,5.1,23.8,6.1  c23.3,2.9,46.4,2,69.3-3c8.2-1.8,16.1-4.2,23.6-8.1c2.7-1.4,5.2-3.1,7.7-4.9c1.7-1.2,3.5-2.4,3.1-5.1c2.6,0.2,4.6,0.9,6.5,2.1  c1.6,1,2.5,2.5,2.6,4.4c0.1,1.2,0.1,2.5,0.1,3.7c0,35.8,0,71.6,0.1,107.3c0,6.1,0,12.3,0,18.4C617,617.9,464.7,618.1,460,617.4z"
   id="path8" />
<path
   class="stapelmagazin_st2"
   d="M471.8,73.4c11.9,4.9,24.2,5.9,36.5,6.9c13.6,1.1,27.2,1.5,40.8,1c13.3-0.4,26.6-1.1,39.7-3.5  c6.1-1.1,12.2-2.5,18.1-5.9c0.4,11.5,0.2,22.7,0.3,33.8c0.1,11.2,0.1,22.5,0.1,33.7c0,11.2,0,22.4,0,33.4c-4.4-1.4-8.6-2.9-13-3.9  c-9.6-2.3-19.4-3.1-29.2-3.7c-15.6-1-31.2-1-46.9,0c-10.7,0.7-21.5,1.7-32,4.1c-5,1.2-9.9,2.7-14.5,5.9  C471.8,141.2,471.8,107.5,471.8,73.4z"
   id="path10" />
<path
   class="stapelmagazin_st1"
   d="M459.8,621.3c0-0.6,0.1-1.2,0.2-2c52.9,0,105.8,0,158.7,0c0.7,2.2,1.1,47.8,0.5,58.4c-0.5,0.3-1,0.5-1.5,0.7  c-18.3,8-37.2,13.5-57,16c-28.1,3.5-55.6,0.6-82.5-8.3c-5.4-1.8-10.7-4-16-5.9c-1.7-0.6-2.5-1.4-2.5-3.4"
   id="path12" />
<path
   class="stapelmagazin_st3"
   d="M608.4,383.1c0,3.4,0,6.8,0,10.2c0,11.9,0,23.7,0.1,35.6c0,1.8-0.4,3.3-1.9,4.3c-3,2.1-5.9,4.4-9.2,6  c-7.8,4-16.2,5.9-24.7,7.4c-19,3.3-38,3.7-57.1,1.8c-10.4-1-20.7-2.8-30.5-6.7c-3.7-1.5-7.3-3.3-10.3-6c-2-1.8-3.1-3.9-3.1-6.8  c0.1-14.1,0-28.3,0-42.4c0-1.1,0-2.3,0-3.5c0.4,0,0.8-0.1,1,0c4.5,3.9,9.9,5.9,15.5,7.6c10,3,20.4,4.5,30.8,5.5  c12.5,1.1,25.1,1.3,37.7,0.6c11.3-0.6,22.5-1.9,33.4-4.9c6.3-1.8,12.5-4,17.4-8.6C607.5,383.1,607.8,383.2,608.4,383.1z"
   id="path14" />
<path
   class="stapelmagazin_st4"
   d="M607.8,230.4c0,3.5,0,6.3,0,9c0,12.2,0,24.3,0.1,36.5c0,2.4-0.8,4.3-2.7,5.7c-1.9,1.3-3.8,2.6-5.9,3.5  c-6.9,3.1-14.3,4.4-21.7,5.5c-19.6,2.8-39.4,3.1-59.1,1.8c-10.9-0.7-21.7-1.9-32.2-4.9c-3.5-1-6.9-2.5-10.2-4.1  c-3.2-1.5-4.6-4-4.6-7.8c0.2-13.6,0.1-27.2,0.1-40.9c0-1.1,0-2.2,0-3.8c4.8,2.9,9.6,4.5,14.5,5.3c7.8,1.3,15.6,2.5,23.5,3.2  c16.5,1.5,33.1,1.6,49.7,0.7c11.6-0.6,23.2-1.6,34.5-4.2C598.5,234.8,603,233.4,607.8,230.4z"
   id="path16"
   style="fill:#4d4d4d;fill-opacity:1" />
<path
   class="stapelmagazin_st5"
   d="M471.9,435c8,7.6,17.5,10.2,27.3,12.3c15.5,3.2,31.2,4.1,46.9,3.5c12.9-0.5,25.7-1.9,38.2-5.2  c5.6-1.5,11.1-3.3,16.2-6.3c2.6-1.5,5-3.3,7.8-5.2c0.1,0.7,0.2,1.4,0.2,2c0,14.8,0,29.5,0.2,44.3c0,2.1-0.7,3.5-2.3,4.7  c-6.3,4.9-13.6,7.9-21.2,10.2c-11.6,3.6-23.6,5.7-35.8,6.4c-9.2,0.5-18.4,0.7-27.5,0.5c-10.9-0.2-21.7-1.7-32.1-4.9  c-4.3-1.3-8.4-2.9-12-5.5c-1.6-1.2-3-2.6-4.4-4c-1.1-1.2-1.5-2.6-1.5-4.3c0-15.5,0-31,0-46.5C471.8,436.5,471.8,436.1,471.9,435z"
   id="path18" />
<path
   class="stapelmagazin_st5"
   d="M471.7,178.6c13.1,6.2,27,7.3,40.8,8.4c14.5,1.2,29.1,1.3,43.7,0.7c12.6-0.5,25.1-1.5,37.4-4.3  c4.6-1,9.1-2.4,13.5-5.1c0.1,1,0.3,1.6,0.3,2.3c0.1,14.9,0.1,29.7,0.3,44.6c0,2.9-1.2,4.5-3.5,5.7c-4.1,2.2-8.6,3.3-13.2,4.2  c-11.2,2.3-22.6,3.2-34,3.7c-12.3,0.6-24.7,0.6-37,0c-12-0.6-24-1.5-35.8-4.4c-3.5-0.9-6.9-2.4-10.3-3.8c-1.6-0.7-2.4-2-2.4-4  c0.1-15.6,0-31.2,0-46.8C471.6,179.5,471.6,179.2,471.7,178.6z"
   id="path20"
   style="fill:#cccccc;fill-opacity:1" />
<path
   class="stapelmagazin_st4"
   d="M607.9,281.7c0,4.9,0,9.5,0,14c0,10.7,0,21.4,0.1,32.1c0,2.1-0.5,3.8-2.2,4.9c-2.4,1.7-4.8,3.5-7.4,4.7  c-7.6,3.5-15.8,5-24.1,6.2c-15.3,2.2-30.7,2.5-46.1,1.7c-13.8-0.7-27.6-2-40.9-6.2c-4-1.2-7.8-3.1-11.5-5c-3-1.5-4.3-4-4.3-7.6  c0.2-13.5,0.1-27,0-40.5c0-1.1,0-2.3,0-3.8c0.9,0.5,1.5,0.8,2,1.2c5.2,3.6,11.2,5.2,17.3,6.5c14.5,3.2,29.2,4.1,44,4.4  c13,0.2,26-0.3,38.9-1.9c7.5-0.9,15-2.3,22.3-4.7c3.8-1.3,7.5-2.9,10.5-5.6C606.9,282,607.3,282,607.9,281.7z"
   id="path22"
   style="fill:#cccccc;fill-opacity:1" />
<path
   class="stapelmagazin_st3"
   d="M607.9,333c0.1,1.3,0.1,1.9,0.2,2.6c0.1,13.7,0.1,27.4,0.3,41.2c0,2.7-0.7,4.8-2.9,6.2  c-2.8,1.9-5.6,3.7-8.7,5.1c-7.2,3.2-14.9,4.6-22.6,5.7c-21.9,3-43.8,2.8-65.7-0.1c-8.2-1.1-16.3-2.5-24-5.6c-3.5-1.4-6.8-3.3-10-5.2  c-2.1-1.3-3-3.4-3-6.1c0.2-13.4,0.1-26.8,0.1-40.2c0-0.9,0-1.9,0-2.7c0.3-0.1,0.6-0.2,0.7-0.2c6.2,5.1,13.7,7.2,21.4,8.9  c14,3.2,28.3,4.4,42.7,4.6c12.9,0.2,25.8-0.2,38.5-2.1c6.9-1,13.7-2.4,20.3-4.7C599.8,338.8,604,336.7,607.9,333z"
   id="path24"
   style="fill:#4d4d4d;fill-opacity:1" />
<path
   class="stapelmagazin_st5"
   d="M607.4,175.9c-1.6,1.9-3.7,2.9-5.8,3.7c-5.8,2.3-11.9,3.5-18.1,4.3c-23.9,3.3-47.8,3.3-71.8,1.7  c-9.6-0.6-19.1-1.8-28.5-4.2c-2.5-0.7-5-1.6-7.5-2.6c-1-0.4-2-1.1-3.1-1.7c1.2-1.9,2.8-2.5,4.4-3.3c4.8-2.2,10-3.4,15.2-4.3  c17.5-3,35.3-3.8,53-3.6c14.1,0.1,28.1,0.7,42,3.1c5.1,0.9,10.1,2.3,15,3.7C604.2,173.2,606,174.1,607.4,175.9z"
   id="path26"
   style="fill:#cccccc;fill-opacity:1" />
<path
   class="stapelmagazin_st2"
   d="M472.3,71c2.1-0.9,4.1-2,6.3-2.5c6.3-1.4,12.6-2.9,18.9-3.7c17.9-2.4,36-3.1,54.1-3c13.4,0.1,26.8,0.6,40.1,2.9  c3.5,0.6,7,1.6,10.4,2.6c1.6,0.5,3,1.4,4.8,2.2c-1.2,1.9-2.8,2.7-4.5,3.2c-4.5,1.4-9,2.9-13.7,3.8c-12.8,2.5-25.8,3.1-38.8,3.5  c-19.7,0.6-39.3-0.1-58.8-2.9c-4.6-0.7-9.1-1.9-13.6-3c-1.8-0.5-3.5-1.4-5.2-2.1C472.4,71.7,472.3,71.3,472.3,71z"
   id="path28" />
<rect
   x="460.5"
   y="614.6"
   class="stapelmagazin_st6"
   width="158.1"
   height="11.2"
   id="rect30" />
</svg>
