<?xml version="1.0" encoding="utf-8"?>
<!-- Generator: Adobe Illustrator 26.3.1, SVG Export Plug-In . SVG Version: 6.00 Build 0)  -->
<svg version="1.1" id="Ebene_2" xmlns="http://www.w3.org/2000/svg" xmlns:xlink="http://www.w3.org/1999/xlink" x="0px" y="0px"
	 viewBox="0 0 1920 1080" style="enable-background:new 0 0 1920 1080;" xml:space="preserve">
<style type="text/css">
	.st0{fill:#8E8E8E;}
	.st1{fill:#FF5F5F;}
	.st2{fill:#FFDCDC;}
	.st3{fill:#FF9494;}
</style>
<rect x="459.2" y="124" class="st0" width="25.6" height="337.6"/>
<rect x="542.4" y="124" class="st0" width="24.8" height="337.6"/>
<rect x="321.6" y="161.6" class="st1" width="27.2" height="100.8"/>
<rect x="418.4" y="186.4" class="st1" width="25.6" height="49.6"/>
<rect x="682.4" y="182.4" class="st2" width="24.8" height="80"/>
<polygon class="st2" points="348.8,186.4 418.4,186.4 418.4,236 444,236 444,186.4 459.2,186.4 459.2,262.4 348.8,262.4 "/>
<rect x="484.8" y="186.4" class="st2" width="57.6" height="76"/>
<rect x="567.2" y="196.8" class="st1" width="115.2" height="63.2"/>
<rect x="444" y="88.8" class="st1" width="15.2" height="49.6"/>
<rect x="567.2" y="88.8" class="st1" width="13.6" height="49.6"/>
<rect x="459.2" y="88.8" class="st3" width="108" height="24.8"/>
<rect x="459.2" y="113.6" class="st3" width="25.6" height="10.4"/>
<rect x="542.4" y="113.6" class="st3" width="24.8" height="10.4"/>
</svg>
