<?xml version="1.0" encoding="utf-8"?>
<!-- Generator: Adobe Illustrator 26.3.1, SVG Export Plug-In . SVG Version: 6.00 Build 0)  -->
<svg version="1.1" id="Ebene_1" xmlns="http://www.w3.org/2000/svg" xmlns:xlink="http://www.w3.org/1999/xlink" x="0px" y="0px"
	 viewBox="0 0 1024 768" style="enable-background:new 0 0 1024 768;" xml:space="preserve">
<style type="text/css">
	.sauggreifer_st0{fill:#CCCCCC;stroke:#020001;stroke-width:1.5;stroke-miterlimit:10;}
	.sauggreifer_st1{fill:#C1272D;stroke:#020001;stroke-width:1.5;stroke-miterlimit:10;}
	.sauggreifer_st2{fill:#4D4D4D;stroke:#020001;stroke-width:1.5;stroke-miterlimit:10;}
	.sauggreifer_st3{fill:#666666;stroke:#020001;stroke-width:1.5;stroke-miterlimit:10;}
	.sauggreifer_st4{fill:#E6E6E6;stroke:#020001;stroke-width:1.5;stroke-miterlimit:10;}
	.sauggreifer_st5{fill:#7800BD;stroke:#020001;stroke-width:1.5;stroke-miterlimit:10;}
	.sauggreifer_st6{fill:none;stroke:#020001;stroke-width:1.5;stroke-miterlimit:10;}
	.sauggreifer_st7{fill:#427C42;stroke:#020001;stroke-width:1.5;stroke-miterlimit:10;}
	.sauggreifer_st8{fill:#E6E6E6;}
	.sauggreifer_st9{fill:#0071BC;stroke:#020001;stroke-width:1.5;stroke-miterlimit:10;}
	.sauggreifer_st10{fill:#808080;stroke:#020001;stroke-width:1.5;stroke-miterlimit:10;}
</style>
<rect x="571.2" y="113.5" class="sauggreifer_st0" width="37.3" height="494.4"/>
<rect x="456" y="113.9" class="sauggreifer_st0" width="37.9" height="493.9"/>
<rect x="767.4" y="188.7" class="sauggreifer_st1 beweglicherArm" width="40.4" height="115.2"/>
<rect x="247.8" y="188.5" class="sauggreifer_st1 beweglicherArm" width="36.3" height="113"/>
<rect x="284.2" y="188.6" class="sauggreifer_st0 beweglicherArm" width="171.8" height="112.9"/>
<rect x="608.5" y="61.5" class="sauggreifer_st1" width="20.9" height="73.8"/>
<rect x="434.4" y="61.5" class="sauggreifer_st1" width="21.4" height="73.8"/>
<rect x="455.8" y="61.5" class="sauggreifer_st2" width="152.6" height="36.9"/>
<rect x="571.2" y="98.5" class="sauggreifer_st1" width="37.3" height="15.5"/>
<rect x="456" y="98.5" class="sauggreifer_st1" width="37.9" height="15.5"/>
<rect x="146.6" y="224" transform="matrix(-1 -5.359769e-11 5.359769e-11 -1 394.4077 489.1437)" class="sauggreifer_st0 beweglicherArm" width="101.2" height="41.1"/>
<rect x="247.8" y="177.3" transform="matrix(-1 -5.353774e-11 5.353774e-11 -1 535.3456 365.8425)" class="sauggreifer_st1 beweglicherArm" width="39.7" height="11.2"/>
<rect x="247.8" y="301.7" transform="matrix(-1 -5.360657e-11 5.360657e-11 -1 535.3456 613.953)" class="sauggreifer_st1 beweglicherArm" width="39.7" height="10.5"/>
<rect x="238.9" y="188.5" transform="matrix(-1 -5.365720e-11 5.365720e-11 -1 486.7121 412.4897)" class="sauggreifer_st1 beweglicherArm" width="8.9" height="35.5"/>
<rect x="239.2" y="265.2" transform="matrix(-1 -5.388147e-11 5.388147e-11 -1 486.7121 565.9899)" class="sauggreifer_st1 beweglicherArm" width="8.3" height="35.5"/>
<rect x="608.7" y="188.6" transform="matrix(-1 -5.370960e-11 5.370960e-11 -1 1376.1213 492.7803)" class="sauggreifer_st1 beweglicherArm" id="testThisIssue" width="158.8" height="115.6"/>
<rect x="146.5" y="189.4" transform="matrix(-1 -5.539670e-11 5.539670e-11 -1 328.1333 413.6134)" class="sauggreifer_st2 beweglicherArm" width="35.2" height="34.7"/>
<rect x="109.1" y="189.7" transform="matrix(-1 -5.459423e-11 5.459423e-11 -1 255.6 454.5334)" class="sauggreifer_st2 beweglicherArm" width="37.3" height="75.2"/>
<rect x="77.1" y="189.4" transform="matrix(-1 -5.878599e-11 5.878599e-11 -1 223.5754 413.7333)" class="sauggreifer_st1 beweglicherArm" width="69.4" height="34.9"/>
<rect x="83.1" y="224.5" transform="matrix(-1 -4.535939e-11 4.535939e-11 -1 170.7596 552.9122)" class="sauggreifer_st3 beweglicherArm" width="4.6" height="103.9"/>
<rect x="100.6" y="224.5" transform="matrix(-1 -4.535939e-11 4.535939e-11 -1 205.8174 551.8881)" class="sauggreifer_st3 beweglicherArm" width="4.6" height="102.9"/>
<rect x="74.3" y="328.4" transform="matrix(-1 -2.777435e-11 2.777435e-11 -1 190.2735 682.6122)" class="sauggreifer_st1 beweglicherArm" width="41.7" height="25.8"/>
<rect x="87.3" y="360.5" transform="matrix(-1 -5.253454e-11 5.253454e-11 -1 190.024 742.8503)" class="sauggreifer_st4 beweglicherArm" width="15.4" height="21.8"/>
<rect x="451.9" y="675.8" class="sauggreifer_st1" width="219.9" height="61"/>
<rect x="253.5" y="736.8" class="sauggreifer_st3" width="691.9" height="13"/>
<rect x="472" y="682.9" class="sauggreifer_st5" width="49.7" height="44.9"/>
<rect x="475.3" y="728.1" class="sauggreifer_st6" width="42.4" height="8.4"/>
<rect x="637.8" y="263.2" class="sauggreifer_st5 beweglicherArm" width="30.1" height="41.1"/>
<rect x="431.8" y="608.2" class="sauggreifer_st1" width="62.1" height="26.4"/>
<rect x="571.2" y="608.2" class="sauggreifer_st1" width="60.8" height="26.8"/>
<rect x="455.7" y="635" class="sauggreifer_st2" width="152.7" height="27.1"/>
<rect x="688.2" y="661.9" class="sauggreifer_st1" width="81.3" height="74.8"/>
<rect x="615.9" y="179.7" class="sauggreifer_st7 beweglicherArm" width="18.1" height="9.6"/>
<rect x="493.8" y="189.3" class="sauggreifer_st0 beweglicherArm" width="76.8" height="112"/>
<rect x="688.2" y="653" class="sauggreifer_st7" width="89.1" height="9.3"/>
<rect x="494.9" y="206.1" class="sauggreifer_st8" width="74.5" height="11.6"/>
<rect x="495" y="239.5" class="sauggreifer_st8 beweglicherArm" width="74.5" height="11.6"/>
<rect x="495" y="271.1" class="sauggreifer_st8 beweglicherArm" width="74.5" height="11.6"/>
<rect x="769.5" y="693.9" class="sauggreifer_st5" width="15.5" height="15.6"/>
<rect x="484.3" y="60.2" class="sauggreifer_st5" width="96.3" height="162"/>
<rect x="440.3" y="135.6" class="sauggreifer_st7" width="15.4" height="43.6"/>
<rect x="432.2" y="662.1" class="sauggreifer_st2" width="201.6" height="13"/>
<rect x="900.7" y="690.5" class="sauggreifer_st2" width="43.6" height="46.2"/>
<rect x="541.4" y="691.3" class="sauggreifer_st1" width="45.3" height="45.5"/>
<rect x="801.2" y="689.4" class="sauggreifer_st1" width="51.3" height="47.2"/>
<rect x="477.1" y="56.6" class="sauggreifer_st1" width="111.9" height="16.8"/>
<rect x="266.6" y="662" class="sauggreifer_st5" width="180.2" height="74.8"/>
<rect x="92.8" y="354.3" class="sauggreifer_st9 beweglicherArm" width="3.2" height="6.2"/>
<rect x="635.8" y="642.2" class="sauggreifer_st1" width="34.8" height="33.6"/>
<rect x="623.9" y="185" class="sauggreifer_st2 beweglicherArm" width="69.3" height="30.4"/>
<rect x="900.8" y="727" class="sauggreifer_st1" width="43.2" height="9.6"/>
<rect x="445.8" y="707.7" class="sauggreifer_st9" width="25.6" height="8"/>
<rect x="521.5" y="715.7" class="sauggreifer_st10" width="19.7" height="6.4"/>
<rect x="586.6" y="714.6" class="sauggreifer_st10" width="181.9" height="9.1"/>
<rect x="769" y="713" class="sauggreifer_st1" width="27.2" height="23.5"/>
<rect x="796.2" y="714.7" class="sauggreifer_st10" width="4.7" height="9.1"/>
<rect x="146.6" y="239.4" class="sauggreifer_st8 beweglicherArm" width="100" height="9.6"/>
<rect x="285" y="205.8" class="sauggreifer_st8 beweglicherArm" width="169.6" height="11.6"/>
<rect x="285.4" y="239.2" class="sauggreifer_st8 beweglicherArm" width="169.6" height="11.6"/>
<rect x="285.4" y="270.8" class="sauggreifer_st8 beweglicherArm" width="169.6" height="11.6"/>
<rect x="469" y="115.4" class="sauggreifer_st8" width="10.8" height="490.8"/>
<rect x="585.4" y="115.4" class="sauggreifer_st8" width="10.8" height="490.8"/>
</svg>
