<?xml version="1.0" encoding="UTF-8" standalone="no"?>
<!-- Generator: Adobe Illustrator 26.3.1, SVG Export Plug-In . SVG Version: 6.00 Build 0)  -->

<svg
   version="1.1"
   id="Ebene_1"
   x="0px"
   y="0px"
   viewBox="0 0 1400 768"
   xml:space="preserve"
   sodipodi:docname="Wipphebel2.svg"
   inkscape:version="1.2 (dc2aedaf03, 2022-05-15)"
   width="1400"
   height="768"
   xmlns:inkscape="http://www.inkscape.org/namespaces/inkscape"
   xmlns:sodipodi="http://sodipodi.sourceforge.net/DTD/sodipodi-0.dtd"
   xmlns="http://www.w3.org/2000/svg"
   xmlns:svg="http://www.w3.org/2000/svg"><defs
   id="defs113" /><sodipodi:namedview
   id="namedview111"
   pagecolor="#ffffff"
   bordercolor="#000000"
   borderopacity="0.25"
   inkscape:showpageshadow="2"
   inkscape:pageopacity="0.0"
   inkscape:pagecheckerboard="0"
   inkscape:deskcolor="#d1d1d1"
   showgrid="false"
   inkscape:zoom="0.74025241"
   inkscape:cx="733.53358"
   inkscape:cy="388.38104"
   inkscape:window-width="1920"
   inkscape:window-height="991"
   inkscape:window-x="-9"
   inkscape:window-y="1071"
   inkscape:window-maximized="1"
   inkscape:current-layer="Ebene_1" />
<style
   type="text/css"
   id="style2">
	.wipphebel_st0{fill:#B3B3B3;}
	.wipphebel_st1{fill:#CCCCCC;}
	.wipphebel_st2{fill:#FFC164;}
	.wipphebel_st3{fill:#29ABE2;}
	.wipphebel_st4{fill:#666666;}
	.wipphebel_st5{fill:#E6E6E6;}
	.wipphebel_st6{fill:#808080;}
	.wipphebel_st7{fill:#999999;}
	.wipphebel_st8{fill:#FFFFFF;}
	.wipphebel_st9{fill:#0000FF;}
</style>
<g
   id="g108"
   transform="translate(372)">
	<path
   d="m 53.69,456.34 c 0.32,-2.29 0.79,-4.57 0.95,-6.87 1.07,-15.85 3.05,-31.56 7.46,-46.86 7.61,-26.39 21.16,-49.23 41.29,-68.03 1.34,-1.26 1.87,-2.48 1.86,-4.31 -0.17,-22.37 -0.26,-44.73 -0.37,-67.1 0,-0.99 0,-1.98 0,-3.31 7.51,-0.11 14.8,-0.21 22.37,-0.32 0.03,-1.62 0.09,-3.1 0.08,-4.57 -0.01,-14.27 0.01,-28.54 -0.05,-42.82 -0.06,-14.95 0.31,-29.88 1.63,-44.77 1.4,-15.71 3.07,-31.38 6.92,-46.72 2.1,-8.35 4.74,-16.53 8.58,-24.25 3.09,-6.21 6.7,-12.12 11.12,-17.48 1.48,-1.79 3.13,-3.48 4.89,-5.01 6.43,-5.62 13.75,-6.83 21.72,-3.97 7.85,2.81 14,7.98 19.31,14.25 5.89,6.96 10.14,14.89 13.5,23.29 2.63,6.58 4.95,13.27 7.5,20.14 0.45,0.11 1.15,0.27 1.94,0.45 2.59,30.16 5.17,60.31 7.76,90.5 -0.77,0.26 -1.37,0.46 -2.02,0.67 0.26,6.61 0.36,13.12 0.86,19.6 0.15,1.94 1.41,3.78 1.58,5.85 0.11,1.37 0.46,2.72 0.78,4.51 0.5,-0.67 0.77,-0.95 0.93,-1.28 6.33,-12.79 12.39,-25.7 16.5,-39.42 4.59,-15.29 8.03,-30.84 9.83,-46.69 1.42,-12.6 2.52,-25.23 3.52,-37.87 1.4,-17.63 2.59,-35.28 3.85,-52.92 0.4,-5.58 0.69,-11.16 1.07,-16.74 0.18,-2.73 0.93,-5.24 3.07,-7.14 1,0 2,0 3.01,0 3.3,1.75 4.97,4.49 5.2,8.21 0.34,5.5 0.69,10.99 1.19,16.47 0.84,9.22 1.8,18.43 2.72,27.64 0.95,9.55 1.9,19.09 2.85,28.64 0.03,0.33 0.09,0.65 0.17,1.19 1.54,0 3.07,0 4.96,0 2.5,30.24 4.98,60.29 7.48,90.48 -0.65,0.28 -1.23,0.53 -1.88,0.8 -0.03,0.29 -0.12,0.62 -0.11,0.95 0.2,6 0.38,12.01 0.64,18.01 0.03,0.75 0.52,1.47 0.77,2.22 0.21,0.62 0.44,1.25 0.55,1.89 0.72,4.36 1.4,8.73 2.11,13.09 0.08,0.49 0.25,0.96 0.44,1.71 31.92,-0.21 63.85,-0.42 96.15,-0.63 0.21,27.05 0.41,53.86 0.62,80.97 -9.16,0 -18.04,0 -27.4,0 0.65,0.83 0.94,1.28 1.31,1.65 8.03,8.06 15.29,16.75 21.93,26 12.21,17.01 19.47,35.98 22.94,56.5 0.43,2.52 0.43,5.12 0.63,7.71 156.23,0 312.48,0 469.26,0 -3.38,-4.4 -4.2,-8.86 -2.32,-13.84 -0.92,-0.92 -1.93,-1.79 -2.76,-2.8 -1.69,-2.05 -3.55,-4.03 -4.88,-6.31 -3.6,-6.14 -2.3,-12.95 3.08,-17.6 3.93,-3.4 8.63,-4.62 13.68,-4.69 6.84,-0.1 13.43,1.38 19.86,3.55 9.38,3.16 17.73,8.07 24.88,14.96 0.75,0.73 1.76,1.22 2.71,1.71 2.29,1.18 4.69,2.19 6.91,3.48 2.58,1.49 4.56,3.62 5.78,6.4 0.29,0.66 0.76,1.28 1.27,1.8 6.35,6.51 12.73,12.99 19.09,19.49 6.28,6.42 11.63,13.56 15.85,21.47 1.87,3.51 3.27,7.29 4.69,11.02 0.61,1.59 0.72,3.37 1.06,5.06 0,1.5 0,3 0,4.51 -0.34,2.29 -0.66,4.59 -1.02,6.87 -1.7,10.62 -5.42,20.44 -11.68,29.25 -0.82,1.16 -1.64,2.33 -2.56,3.4 -2.06,2.41 -3.77,4.97 -5.19,7.86 -1.75,3.59 -4.36,6.7 -7.58,9.1 1.88,6.02 -1.58,10.91 -8.21,12.09 -1.96,0.35 -3.97,0.44 -5.96,0.65 -0.41,1.65 0.8,52.18 1.37,56.28 0.49,0.12 1.03,0.26 1.88,0.48 0.27,9.64 0.55,19.37 0.83,29.4 -1.46,0.14 -2.81,0.28 -4.37,0.43 0,1.38 -0.01,2.69 0,4.01 0.01,1.42 0.01,2.84 0.07,4.25 0.12,3.23 -0.11,6.35 -2.41,8.62 1.28,0.75 2.84,1.16 3.48,2.16 0.79,1.24 1.09,2.97 1.13,4.49 0.05,2.07 -1.06,2.95 -3.17,3 -8.34,0.19 -16.69,0.37 -25.03,0.55 -0.33,0.01 -0.67,0 -1,-0.01 -4.12,-0.2 -6.22,-4.17 -4.07,-7.71 0.78,-1.29 1.58,-1.67 4.48,-2.08 -0.27,-0.45 -0.48,-0.87 -0.76,-1.23 -1.24,-1.66 -1.85,-3.52 -1.92,-5.58 -0.11,-3.33 -0.26,-6.65 -0.4,-10.14 -0.96,-0.12 -1.92,-0.23 -3.12,-0.38 -0.09,-2.02 -0.22,-3.99 -0.25,-5.96 -0.11,-7.26 -0.19,-14.52 -0.27,-21.78 -0.01,-0.96 -0.3,-2.01 1.17,-2.36 0.31,-0.07 0.55,-1.1 0.57,-1.69 0.09,-2.67 0.1,-5.34 0.12,-8.01 0.1,-15.02 0.2,-30.04 0.3,-45.06 0,-0.49 -0.05,-0.98 -0.09,-1.6 -1.54,-0.21 -3.01,-0.38 -4.47,-0.61 -6.7,-1.08 -11.28,-4.8 -13.53,-11.18 -0.77,-2.18 -1.08,-4.52 -1.53,-6.81 -0.21,-1.05 -0.24,-2.13 -0.38,-3.49 -161.15,-0.16 -322.16,-0.09 -483.43,0.28 -0.36,2.09 -0.71,4.11 -1.05,6.13 -2.96,17.41 -9.39,33.4 -20.18,47.42 -12.04,15.65 -26.97,27.86 -44.88,36.39 -11.2,5.34 -22.83,9.33 -34.98,11.82 -0.31,0.06 -0.62,0.19 -1.17,0.37 0.12,17.73 0.56,35.45 1.08,53.44 7.51,-0.16 14.81,-0.31 22.35,-0.47 0.17,-1.92 0.34,-3.64 0.48,-5.36 0.21,-2.49 0.36,-4.99 0.6,-7.48 0.09,-0.91 0.29,-1.81 0.54,-2.69 0.66,-2.34 2.17,-3.68 4.67,-3.8 3.25,-0.16 6.5,-0.46 9.75,-0.5 4.09,-0.05 8.18,0.09 12.27,0.18 0.92,0.02 1.84,0.09 2.74,0.21 3.77,0.47 5.67,2.33 6.04,6.14 0.23,2.4 0.2,4.83 0.29,7.25 0.07,1.9 0.14,3.79 0.21,5.86 16.77,0 33.34,0 50.24,0 0,0.98 0.06,1.78 -0.01,2.57 -0.13,1.47 -0.46,2.94 -0.48,4.41 -0.06,5.34 -0.06,10.68 0,16.02 0.02,1.34 -0.35,2.36 -1.28,3.34 -6.13,6.5 -12.22,13.02 -18.29,19.58 -0.81,0.88 -1.64,1.22 -2.82,1.22 -18.2,-0.1 -36.4,-0.17 -54.6,-0.25 -6.34,-0.03 -12.69,-0.07 -19.03,-0.1 -13.86,-0.07 -27.72,-0.13 -41.57,-0.19 -0.74,0 -1.48,0 -2.49,0 -0.08,-3.19 -0.17,-6.17 -0.21,-9.15 -0.05,-3.34 0.01,-6.68 -0.09,-10.01 -0.04,-1.21 0.33,-2.01 1.28,-2.76 2.16,-1.7 4.25,-3.51 6.35,-5.29 0.54,-0.46 1.03,-0.98 1.92,-1.83 -2.39,0 -4.27,-0.02 -6.15,0 -24.46,0.36 -48.91,0.71 -73.37,1.08 -3.59,0.05 -7.18,0.22 -10.76,0.2 -1.31,-0.01 -2.17,0.45 -3,1.4 -3.13,3.58 -6.31,7.13 -9.5,10.65 -3.25,3.58 -6.59,7.09 -9.79,10.71 -0.99,1.11 -2.02,1.47 -3.47,1.46 -16.03,-0.08 -32.06,-0.1 -48.09,-0.15 -15.36,-0.04 -30.72,-0.08 -46.09,-0.14 C 80.01,724 73,723.91 65.98,723.84 c -0.65,-0.01 -1.29,-0.1 -2.06,-0.16 -0.05,-0.76 -0.13,-1.41 -0.14,-2.06 -0.05,-5.67 -0.06,-11.35 -0.16,-17.02 -0.02,-1.11 0.33,-1.76 1.21,-2.48 8.07,-6.61 16.08,-13.3 24.1,-19.97 0.26,-0.21 0.54,-0.4 0.89,-0.66 -0.51,-0.94 -0.95,-1.73 -1.38,-2.52 -7.8,-14.34 -10.79,-29.68 -9.35,-45.89 1.59,-17.9 8.22,-33.91 18.42,-48.56 0.57,-0.81 1.13,-1.63 1.75,-2.52 -0.6,-0.68 -1.13,-1.31 -1.69,-1.91 -13.94,-14.92 -24.67,-31.85 -32.45,-50.75 -5.45,-13.24 -8.53,-26.98 -10,-41.14 -0.3,-2.9 -0.54,-5.81 -0.86,-8.71 -0.1,-0.89 -0.37,-1.76 -0.56,-2.64 -0.01,-6.82 -0.01,-13.67 -0.01,-20.51 z m 862.82,-14.08 c 0.04,-0.15 0.08,-0.3 0.12,-0.45 -1.28,-0.5 -2.54,-1.07 -3.84,-1.49 -5.79,-1.86 -11.63,-3.59 -17.39,-5.56 -1.85,-0.64 -3.64,-1.01 -5.59,-1 -9.68,0.05 -19.37,0.04 -29.05,0.05 -36.9,0.03 -73.8,0.06 -110.71,0.1 -25.55,0.02 -51.09,0.06 -76.64,0.08 -72.55,0.04 -145.1,0.08 -217.65,0.11 -14.85,0.01 -29.71,0 -44.56,0 -75.56,0 -151.12,0 -226.67,0 -0.83,0 -1.67,-0.03 -2.5,0.01 -0.63,0.03 -1.27,0.14 -2.07,0.24 -0.12,29.72 -0.63,59.28 -0.55,88.92 0.76,0.05 1.16,0.11 1.57,0.11 5.26,-0.01 10.52,-0.01 15.78,-0.08 0.98,-0.01 1.98,-0.27 2.92,-0.56 5.12,-1.52 10.2,-3.13 15.33,-4.61 11.43,-3.3 23,-5.43 35,-5.2 15.32,0.29 30.51,1.32 45.33,5.54 4.25,1.21 8.6,2.19 12.68,3.83 2.28,0.92 4.45,1.08 6.76,1.08 9.68,-0.01 19.37,-0.03 29.05,-0.06 24.79,-0.06 49.59,-0.13 74.38,-0.18 14.28,-0.03 28.55,-0.06 42.83,-0.08 16.53,-0.02 33.06,-0.04 49.59,-0.05 20.37,-0.02 40.74,-0.03 61.11,-0.04 32.89,-0.01 65.79,-0.04 98.68,-0.03 76.23,0 152.45,0.02 228.68,0.03 0.95,0 1.9,0 2.85,0 -0.62,-0.89 -1.3,-1.33 -1.97,-1.77 -5.11,-3.31 -10.23,-6.58 -14.7,-10.79 -7.57,-7.12 -9.63,-15.88 -8.21,-25.81 0.43,-3.01 1.44,-5.81 2.96,-8.44 4.81,-8.3 12.3,-12.42 21.53,-13.8 2.27,-0.34 4.58,-0.5 7.19,-0.78 0,-3.57 -0.02,-6.99 0.01,-10.4 0.01,-1.33 0,-2.69 0.22,-3.99 0.48,-2.74 1.88,-4.04 4.63,-4.5 0.96,-0.17 1.93,-0.29 2.9,-0.43 z M 414.79,430.88 c 0.58,-4.17 -0.17,-7.85 -0.9,-11.52 -3.34,-16.87 -9.45,-32.6 -19.04,-46.96 -11.78,-17.64 -25.98,-32.99 -42.73,-46.01 -14.29,-11.11 -29.69,-20.04 -47.14,-25.25 -16.07,-4.8 -32.49,-7.46 -49.19,-8.59 -17.62,-1.19 -35.19,-0.8 -52.73,1.43 -19.84,2.52 -38.89,7.8 -57.09,16.08 -16.26,7.4 -30.81,17.4 -43.51,29.91 -21.92,21.58 -34.82,48.02 -40.73,77.97 -4.04,20.47 -5.35,41.18 -4.08,62.02 0.82,13.44 3.06,26.6 7.31,39.46 7.22,21.84 18.8,41.01 34.34,57.86 0.6,0.66 1.27,1.26 2.21,2.18 0.33,-0.53 0.5,-0.92 0.77,-1.23 5.14,-6.05 10.67,-11.71 16.63,-16.96 8.25,-7.27 17.22,-13.44 27.21,-18.09 12.71,-5.92 25.75,-11.03 38.97,-15.67 0.58,-0.2 1.13,-0.48 1.69,-0.73 -0.03,-0.12 -0.06,-0.23 -0.09,-0.35 -3.41,0 -6.81,0 -10.53,0 0.34,-31.88 0.23,-63.61 0.78,-95.54 79.44,-0.01 158.55,-0.01 237.85,-0.01 z m 1.42,95.5 c -1.28,0 -2.18,0 -3.08,0 -12.69,0.01 -25.38,0.03 -38.07,0.04 -31.81,0.03 -63.61,0.04 -95.42,0.08 -17.2,0.02 -34.39,0.07 -51.59,0.16 -2.15,0.01 -4.34,0.18 -6.42,0.66 -10.89,2.52 -21.59,5.72 -32.17,9.32 -19.24,6.55 -37.16,15.69 -53.67,27.53 -8.77,6.29 -16.88,13.36 -23.75,21.75 -0.46,0.56 -0.85,1.17 -1.46,2.01 5.42,4.18 10.62,8.36 16,12.3 10.6,7.77 21.8,14.56 34.28,18.88 6.45,2.23 13.07,3.99 19.67,5.75 4.09,1.09 3.41,1.39 3.42,4.55 0.03,20.19 0.03,40.39 0.05,60.58 0,0.85 0.05,1.71 0.1,3.03 18.44,-10.02 31.25,-24.98 42.55,-41.15 -4.04,-8.58 -3.74,-16.6 1.59,-23.99 3.21,-4.45 7.62,-7.7 13.01,-9.31 1.59,-0.47 3.24,-0.86 4.89,-0.96 9.82,-0.56 18.86,5.44 23.1,14.5 5.02,10.71 -2.15,27.42 -17.51,27.6 -4.46,0.05 -8.81,-0.35 -13.13,-1.87 -2.51,2.9 -4.9,5.78 -7.42,8.54 -2.53,2.77 -5.15,5.46 -7.8,8.12 -2.71,2.72 -5.44,5.42 -8.27,8.01 -2.77,2.53 -5.64,4.96 -8.57,7.31 -2.87,2.3 -5.86,4.45 -9.05,6.85 4.75,0.56 115.92,-1.16 117.97,-1.78 0,-0.4 0.01,-0.82 0,-1.24 -0.42,-18.1 -0.86,-36.2 -1.26,-54.3 -0.09,-3.84 -0.08,-7.68 -0.06,-11.51 0.01,-1.87 0.28,-2.14 2.03,-2.57 0.32,-0.08 0.66,-0.1 0.99,-0.17 15.84,-3.16 30.78,-8.73 44.67,-16.98 15.01,-8.9 27.54,-20.53 37.32,-34.97 7.91,-11.68 12.92,-24.62 15.7,-38.43 0.53,-2.65 0.88,-5.35 1.36,-8.34 z m -307.62,-197 c 0.19,0.04 0.39,0.09 0.58,0.13 1.3,-1.04 2.59,-2.09 3.89,-3.12 15.76,-12.48 33.5,-21.15 52.53,-27.36 21.7,-7.08 44.04,-10 66.78,-10.26 17.81,-0.2 35.54,0.93 53.06,4.3 13.56,2.6 26.76,6.35 39.25,12.37 15.31,7.38 28.96,17.17 41.44,28.64 1.26,1.16 2.5,1.67 4.21,1.65 7.51,-0.08 15.03,-0.03 22.54,-0.04 0.81,0 1.62,-0.07 2.68,-0.12 -0.17,-24.9 -0.34,-49.62 -0.51,-74.57 -1.59,0 -2.83,-0.01 -4.06,0 -19.45,0.15 -38.9,0.31 -58.35,0.45 -21.62,0.16 -43.24,0.3 -64.86,0.44 -29.38,0.19 -58.77,0.38 -88.15,0.56 -22.54,0.15 -45.08,0.29 -67.62,0.44 -1.15,0.01 -2.29,0 -3.42,0 0.01,22.4 0.01,44.44 0.01,66.49 z M 209.83,128.17 c -3.73,-11.16 -8.28,-21.5 -14.01,-31.35 -3.25,-5.6 -7.68,-9.76 -13.12,-13.06 -3.71,-2.25 -7.47,-2.46 -11.12,-0.24 -2.47,1.5 -4.83,3.3 -6.89,5.32 -4.59,4.5 -7.61,10.09 -10.25,15.89 -4,8.8 -5.91,18.22 -7.94,27.57 -2.19,10.11 -3.23,20.42 -4.03,30.73 -1.11,14.39 -1.51,28.82 -1.24,43.25 0.32,17.09 0.78,34.19 1.18,51.28 0.01,0.63 0.15,1.25 0.24,2.03 20.7,-0.16 41.19,-0.32 61.68,-0.48 1.96,-5.64 3.82,-10.98 5.65,-16.35 0.21,-0.62 0.31,-1.31 0.29,-1.96 -0.22,-6.33 -0.47,-12.67 -0.73,-19 -0.02,-0.48 -0.04,-1.28 -0.29,-1.39 -1.73,-0.73 -1.16,-2.2 -1.16,-3.41 0.02,-14.1 0.09,-28.19 0.14,-42.29 0.04,-10.18 0.07,-20.35 0.11,-30.53 0.02,-4.59 0.06,-9.18 0.05,-13.76 0.01,-1.06 0.03,-2.03 1.44,-2.25 z M 180.7,628.45 c -0.37,-0.17 -0.58,-0.29 -0.81,-0.36 -0.64,-0.18 -1.28,-0.36 -1.93,-0.51 -15.53,-3.47 -30.04,-9.34 -43.41,-18.02 -8.27,-5.36 -16.18,-11.21 -23.75,-17.52 -0.67,-0.56 -1.38,-1.09 -2.25,-1.78 -1.84,2.84 -3.66,5.33 -5.17,8 -3.71,6.58 -6.12,13.68 -7.87,21 -3.06,12.82 -4,25.68 -0.74,38.62 1.76,7 4.4,13.61 8.35,19.8 4.83,0.01 9.62,-0.01 14.52,-0.35 0.08,-1.49 0.1,-2.65 0.21,-3.81 0.26,-2.82 0.39,-5.66 0.87,-8.45 0.65,-3.77 1.83,-4.85 5.57,-5.24 7.99,-0.84 16.01,-0.4 24,-0.05 3.81,0.16 5.72,2.2 6.13,6.02 0.29,2.73 0.27,5.49 0.39,8.24 0.04,1.05 0.08,2.1 0.11,3.05 8.8,0 17.26,0 25.79,0 -0.01,-16.37 -0.01,-32.52 -0.01,-48.64 z m 766,-89.37 c 6.52,0.03 12.14,-1.35 17.25,-4.44 7.86,-4.75 11.76,-12.09 12,-20.98 0.23,-8.65 -3.08,-16.42 -8.22,-23.37 -0.44,-0.59 -1.01,-1.12 -1.61,-1.57 -7.81,-5.79 -16.4,-8.43 -26.1,-6.23 -4.32,0.98 -8.47,2.26 -11.87,5.46 -9.28,8.77 -11.84,19.35 -8.89,31.5 1.73,7.11 5.76,12.55 12.34,15.85 4.89,2.47 10.09,3.94 15.1,3.78 z M 299.44,523.42 c 0.02,-0.12 0.04,-0.24 0.06,-0.37 -0.69,-0.22 -1.37,-0.47 -2.07,-0.67 -14.44,-4.24 -29.19,-5.96 -44.22,-6.17 -10.17,-0.14 -20.17,0.54 -30,3.08 -19.56,5.04 -38.74,11.32 -57.45,18.92 -8.26,3.35 -16.5,6.87 -24.36,11.03 -15.05,7.97 -27.27,19.45 -37.87,32.62 -7.92,9.84 -13.8,20.86 -17.56,32.94 -5.81,18.64 -5.71,37.16 1.77,55.35 6.24,15.15 16.5,26.77 31.39,33.92 13.68,6.57 28.08,7.45 42.78,4.39 13.02,-2.71 24.72,-8.46 35.63,-15.92 12.92,-8.83 23.74,-19.96 34.06,-31.58 4.48,-5.05 8.57,-10.45 12.79,-15.73 0.83,-1.03 1.59,-2.18 2.1,-3.38 1.14,-2.65 -0.47,-4.84 -3.33,-4.36 -1.41,0.23 -2.94,0.91 -3.97,1.87 -1.63,1.51 -3.04,3.32 -4.29,5.17 -2.24,3.31 -4.2,6.81 -6.44,10.12 -4.59,6.78 -9.64,13.21 -15.19,19.25 -9.81,10.68 -21.02,19.44 -34.49,25.13 -10.04,4.24 -20.43,6.66 -31.38,6.42 -19.51,-0.42 -34.88,-8.69 -46.01,-24.59 -7.3,-10.42 -10.84,-22.26 -11.69,-34.93 -0.49,-7.29 0.2,-14.49 1.48,-21.66 3.12,-17.45 10.27,-32.82 22.83,-45.57 10.2,-10.35 21.56,-19.13 34.12,-26.45 13.6,-7.92 27.68,-14.74 42.7,-19.47 12.87,-4.05 25.7,-8.2 39.16,-10.15 15.33,-2.22 30.63,-3.95 46.13,-2.66 6.89,0.57 13.79,1.22 20.45,3.28 0.91,0.26 1.92,0.12 2.87,0.17 z m 651.68,-81.19 c -0.81,-5.24 0.27,-10.05 1.05,-14.91 0.33,-2.05 0.41,-4.15 0.41,-6.23 0,-3.69 -1.64,-6.61 -4.66,-8.67 -1.65,-1.12 -3.39,-2.16 -5.21,-2.96 -8.12,-3.54 -16.54,-6.21 -25.2,-8.09 -8.08,-1.75 -15.03,0.21 -20.79,6.2 -1.5,1.56 -3.22,2.94 -4.57,4.62 -1.44,1.81 -2.85,3.75 -3.76,5.86 -2.2,5.11 -0.45,9.69 4.59,12.1 3,1.43 6.15,2.57 9.3,3.63 4.27,1.43 8.61,2.63 12.9,3.98 2.58,0.81 4.89,2.06 6.13,4.47 9.95,0 19.7,0 29.81,0 z m 10.74,39.79 c 0.04,-0.8 0.09,-1.21 0.09,-1.62 -0.01,-9.26 -0.02,-18.52 -0.06,-27.78 -0.01,-1.16 -0.19,-2.33 -0.4,-3.47 -0.26,-1.38 -0.96,-2.6 -2.29,-3.09 -1.14,-0.42 -2.43,-0.58 -3.66,-0.61 -3.09,-0.07 -6.18,-0.01 -9.26,0.01 -10.27,0.08 -20.53,0.14 -30.8,0.28 -2.89,0.04 -3.45,0.64 -3.57,3.6 -0.1,2.42 -0.03,4.84 -0.02,7.26 0,8.01 -0.02,16.02 0.03,24.03 0.02,3.69 1.54,5.18 5.17,5.27 2.34,0.05 4.68,-0.04 7.01,0.04 1.17,0.04 1.99,-0.44 2.91,-1.11 1.74,-1.27 3.5,-2.68 5.48,-3.42 9.05,-3.35 18.18,-4.09 27.29,-0.08 0.57,0.24 1.21,0.4 2.08,0.69 z M 139.27,259.44 c 0,-0.89 0.01,-1.47 0,-2.05 -0.36,-12.43 -0.73,-24.85 -1.07,-37.28 -0.73,-26.72 -0.24,-53.4 3.69,-79.9 1.52,-10.23 3.33,-20.38 6.93,-30.15 3.23,-8.78 7.28,-17.06 13.89,-23.8 2.02,-2.06 4.37,-3.91 6.85,-5.38 4.83,-2.86 9.81,-2.79 14.73,0.05 5.3,3.05 9.66,6.99 12.96,12.22 6.46,10.23 11.21,21.22 15.16,32.59 0.29,0.84 0.62,1.68 0.97,2.61 1.86,-0.11 3.57,-0.2 5.47,-0.31 -0.14,-0.61 -0.19,-0.93 -0.28,-1.22 -3.13,-9.42 -6.39,-18.79 -11.01,-27.62 -3.62,-6.93 -8.04,-13.27 -13.93,-18.49 -4.17,-3.7 -8.86,-6.51 -14.22,-8.14 -5.77,-1.75 -11.16,-0.88 -15.8,2.92 -2.62,2.14 -5.02,4.66 -7.13,7.32 -4.37,5.52 -7.56,11.8 -10.56,18.11 -3.49,7.33 -5.75,15.11 -7.56,23.01 -3.97,17.29 -5.95,34.86 -6.87,52.53 -0.7,13.49 -0.85,27.02 -1.01,40.53 -0.15,12.68 0.01,25.37 0.03,38.05 0,1.47 0,2.93 0,4.41 3.03,-0.01 5.76,-0.01 8.76,-0.01 z m 265.52,465.8 c 0.65,-2.79 0.74,-14.14 0.14,-16.3 -37.94,0.13 -75.94,0.27 -113.86,0.4 0,5.32 0,10.27 0,15.4 38.04,0.17 75.82,0.34 113.72,0.5 z M 273.01,258.67 c 1.7,-5.22 3.31,-10.12 4.9,-15.04 0.13,-0.39 0.16,-0.82 0.15,-1.23 -0.25,-6.5 -0.51,-13 -0.78,-19.5 -0.02,-0.4 -0.04,-1.08 -0.24,-1.15 -1.68,-0.62 -1.13,-2.02 -1.13,-3.15 -0.01,-5.59 0.06,-11.18 0.08,-16.77 0.04,-14.18 -0.04,-28.37 0.15,-42.55 0.14,-10.12 -0.47,-20.25 0.49,-30.39 0.39,-4.05 -0.71,-8.23 -1.17,-12.76 -0.27,0.62 -0.44,0.84 -0.45,1.06 -0.12,1.91 -0.24,3.83 -0.3,5.74 -0.65,19.1 -1.88,38.12 -4.95,57.03 -4.34,26.71 -12.25,52.21 -24.54,76.34 -0.37,0.72 -0.66,1.47 -1.05,2.36 9.68,0.01 19.15,0.01 28.84,0.01 z m 649.16,230.77 c -0.73,-0.07 -1.27,-0.14 -1.81,-0.18 -1.75,-0.13 -3.51,-0.14 -5.24,-0.39 -3.61,-0.52 -5.8,-2.84 -6.22,-6.48 -0.13,-1.16 -0.13,-2.33 -0.16,-3.5 -0.1,-3.92 -0.17,-7.84 -0.27,-11.76 -0.02,-0.7 -0.14,-1.4 -0.22,-2.22 -2.11,0.17 -3.95,0.22 -5.76,0.48 -5.55,0.78 -10.7,2.49 -14.93,6.39 -6.45,5.94 -8.36,13.39 -7.5,21.82 0.44,4.27 1.74,8.22 4.68,11.37 2.44,2.61 5.07,5.09 7.9,7.27 7.76,5.96 16.34,10.65 24.77,15.57 0.54,0.32 1.13,0.56 1.95,0.96 -6.32,-13.76 -6.43,-26.79 2.81,-39.33 z M 294.16,705.73 c 0.1,0.16 0.19,0.33 0.29,0.49 0.58,0 1.16,0 1.74,0 30.22,-0.12 60.44,-0.25 90.66,-0.37 5.84,-0.02 11.69,-0.06 17.53,-0.04 1.25,0 2.17,-0.31 3.01,-1.34 4.99,-6.16 10.06,-12.25 15.1,-18.38 0.33,-0.41 0.58,-0.89 1.08,-1.68 -15.3,0.25 -30.18,-0.08 -45.24,0.21 0,0.89 -0.01,1.46 0,2.02 0.05,2.92 0.05,5.84 0.17,8.76 0.12,2.99 -1.22,5.13 -3.7,6.62 -0.99,0.6 -2.06,1.13 -3.17,1.47 -7.33,2.29 -14.74,2.36 -21.86,-0.43 -8.38,-3.28 -9.83,-7.71 -9.51,-14.09 0.07,-1.38 0.01,-2.76 0.01,-4.4 -7.34,0.19 -14.48,0.37 -21.76,0.56 0,1.11 -0.01,1.92 0,2.74 0.06,2.84 0.11,5.67 0.21,8.51 0.05,1.35 -0.59,2.03 -1.88,2.15 -0.75,0.07 -1.5,0.11 -2.25,0.12 -3.42,0.03 -6.85,0.02 -10.27,0.08 -0.73,0.01 -1.64,-0.02 -2.15,0.38 -2.71,2.13 -5.35,4.4 -8.01,6.62 z m 631.88,-157.7 c 0,18.99 0,37.7 0,56.58 8.8,-0.05 17.51,0.01 26.36,-0.29 -0.53,-18.99 -1.05,-37.62 -1.58,-56.29 -8.34,0 -16.34,0 -24.78,0 z M 67.23,705.29 c 0,5.3 0,10.32 0,15.48 38.03,0.16 75.79,0.33 113.73,0.49 0.15,-5.36 0.29,-10.38 0.44,-15.73 -1.16,0.44 -1.93,0.7 -2.68,1.01 -4.94,2.04 -9.99,3.72 -15.23,4.83 -16.87,3.57 -33.16,2.45 -48.61,-5.85 -0.83,-0.45 -1.9,-0.65 -2.86,-0.64 -14.1,0.1 -28.2,0.25 -42.31,0.39 -0.79,0.03 -1.6,0.02 -2.48,0.02 z M 279.27,218.14 c 5.74,-0.31 11.28,-0.61 17.06,-0.92 -2.34,-28.33 -4.65,-56.31 -6.95,-84.19 -3.48,0 -6.69,0 -10.11,0 0,28.45 0,56.6 0,85.11 z m -67.79,-1.28 c 5.83,-0.34 11.38,-0.66 17.08,-0.99 -2.34,-28.36 -4.65,-56.42 -6.95,-84.35 -3.51,0 -6.71,0 -10.14,0 0.01,28.56 0.01,56.8 0.01,85.34 z M 152,680.38 c -0.12,0 -0.24,0 -0.37,0 0,-1.08 0.02,-2.17 0,-3.25 -0.06,-3.17 -0.09,-6.34 -0.21,-9.5 -0.15,-3.67 -0.94,-4.5 -4.64,-4.75 -2.41,-0.16 -4.83,-0.2 -7.25,-0.18 -4.83,0.04 -9.67,0.09 -14.5,0.28 -2.51,0.1 -2.85,0.45 -3.2,2.91 -0.36,2.55 -0.6,5.13 -0.76,7.7 -0.33,5.15 -0.57,10.32 -0.85,15.47 -0.17,3.08 1.33,5.29 3.78,6.88 1.38,0.9 2.9,1.68 4.46,2.2 5.5,1.86 11.11,2.15 16.74,0.65 1.66,-0.44 3.3,-1.14 4.82,-1.94 1.51,-0.8 2.07,-2.17 2.02,-3.97 -0.12,-4.16 -0.04,-8.33 -0.04,-12.5 z m 223.34,2.54 c -0.17,0 -0.35,0 -0.52,0 0,-4.09 0.03,-8.17 -0.02,-12.26 -0.01,-1.07 -0.22,-2.15 -0.43,-3.21 -0.26,-1.29 -1.15,-1.99 -2.42,-2.2 -0.66,-0.11 -1.33,-0.17 -1.99,-0.17 -6.92,0 -13.83,-0.04 -20.75,0.04 -3.45,0.04 -3.68,0.34 -4.27,3.81 -0.07,0.41 -0.12,0.83 -0.15,1.24 -0.36,4.91 -0.71,9.81 -1.06,14.72 -0.11,1.58 -0.19,3.16 -0.31,4.74 -0.37,4.56 1.71,7.66 5.72,9.61 0.75,0.36 1.51,0.71 2.3,0.98 4.74,1.63 9.63,1.98 14.57,1.34 2.48,-0.32 4.92,-0.9 7.08,-2.3 1.59,-1.03 2.39,-2.32 2.31,-4.35 -0.16,-3.99 -0.06,-7.99 -0.06,-11.99 z M 235.07,258.95 c 0.81,0 1.49,-0.09 2.14,0.02 2.19,0.34 3.38,-0.52 4.42,-2.56 10.08,-19.62 17.41,-40.21 22.02,-61.78 2.67,-12.49 4.61,-25.09 5.56,-37.83 0.89,-11.89 1.8,-23.79 2.34,-35.7 0.48,-10.5 0.53,-21.01 0.62,-31.53 0.03,-3.41 -0.41,-6.82 -0.67,-10.22 -0.03,-0.44 -0.31,-0.87 -0.48,-1.3 -0.56,3.63 -0.76,7.2 -1.03,10.76 -1.26,16.63 -2.52,33.27 -3.81,49.9 -0.99,12.81 -2.28,25.59 -4.6,38.23 -2.65,14.45 -5.96,28.73 -11.08,42.53 -4.27,11.51 -9.62,22.54 -15.14,33.49 -0.99,1.96 -1.13,3.75 -0.29,5.99 z m 5.69,396.18 c 4.77,1.48 9.17,1.79 13.7,1.06 10.08,-1.64 14.54,-12.69 12.9,-19.3 -2.12,-8.54 -7.77,-13.56 -16.1,-15.71 -1.65,-0.43 -3.49,-0.45 -5.2,-0.29 -6.17,0.6 -10.87,3.85 -14.8,8.46 -1.65,1.94 -3.09,3.95 -3.46,6.52 -0.27,1.89 -0.59,3.8 -0.61,5.71 -0.02,2.13 0.11,4.3 1.47,6.47 0.96,-1.41 1.74,-2.66 2.62,-3.83 1.8,-2.39 3.56,-4.82 5.52,-7.07 1.46,-1.67 3.47,-2.64 5.69,-2.89 2.54,-0.29 4.85,0.35 6.5,2.42 1.64,2.07 1.46,4.39 0.4,6.61 -0.67,1.42 -1.6,2.73 -2.54,3.99 -1.9,2.55 -3.88,5.01 -6.09,7.85 z m 713.82,-47.19 c -4.26,-0.51 -28.69,-0.17 -30.71,0.44 0.15,7.63 0.31,15.33 0.47,23.27 10.39,-0.11 20.5,-0.03 30.84,-0.42 -0.21,-7.94 -0.4,-15.57 -0.6,-23.29 z m 24.85,-92.67 c 0.39,-0.34 0.61,-0.48 0.74,-0.67 0.74,-1.01 1.47,-2.03 2.17,-3.06 5.7,-8.38 8.49,-17.8 10.34,-27.65 1.35,-7.21 0.46,-13.84 -2.8,-20.37 -4.02,-8.04 -8.92,-15.44 -15.09,-21.97 -5.55,-5.88 -11.16,-11.72 -16.75,-17.56 -0.55,-0.58 -1.18,-1.07 -1.96,-1.77 -0.3,2.18 -0.41,4.09 -0.87,5.92 -0.36,1.45 0.12,2.31 1.11,3.26 3.87,3.67 7.73,7.37 11.5,11.15 5.5,5.51 10.51,11.41 14.19,18.32 2.15,4.03 3.39,8.3 3.64,12.88 0.48,8.67 -1.58,16.76 -5.82,24.22 -1.6,2.81 -2.05,5.29 -1.3,8.4 0.7,2.77 0.62,5.73 0.9,8.9 z m -24.85,-72.94 c 0.89,0 1.71,-0.03 2.53,0 4.03,0.14 6.6,2.11 7.42,6.1 0.45,2.18 0.46,4.46 0.47,6.7 0.05,9.17 0.03,18.34 0.01,27.52 0,0.79 0.05,1.43 0.84,1.91 4.33,2.62 6.79,6.77 9.04,11.09 0.36,0.69 0.84,1.32 1.46,2.29 0.86,-1.76 1.66,-3.13 2.23,-4.59 0.99,-2.56 2.05,-5.12 2.72,-7.77 2.24,-8.73 1.9,-17.26 -3.16,-25.03 -2.49,-3.83 -5.19,-7.59 -8.26,-10.96 -4.65,-5.11 -9.71,-9.86 -14.6,-14.75 -0.21,-0.21 -0.52,-0.33 -0.99,-0.61 -0.58,2.81 -0.5,5.37 0.29,8.1 z m -3.69,192.5 c -7.92,0 -15.38,0 -22.95,0 0,3.1 0.01,5.92 0,8.74 -0.02,2.72 0.66,5.09 3.05,6.74 0.96,0.67 1.39,1.67 1.11,2.84 -0.32,1.33 -1.41,1.79 -2.61,1.97 -0.82,0.12 -1.66,0.12 -2.49,0.15 -1.1,0.04 -1.4,0.74 -1.38,1.68 0.02,0.95 0.43,1.6 1.47,1.65 0.5,0.02 1,0.02 1.5,0.01 7.58,-0.19 15.16,-0.39 22.74,-0.6 0.55,-0.02 1.09,-0.14 1.61,-0.22 -0.1,-2.48 -0.13,-2.52 -2.12,-2.45 -0.5,0.02 -1,0.1 -1.49,0.04 -1.11,-0.12 -2.16,-0.43 -2.61,-1.62 -0.49,-1.3 0.16,-2.25 1.05,-3.09 0.36,-0.34 0.9,-0.55 1.15,-0.95 0.72,-1.18 1.81,-2.4 1.9,-3.66 0.23,-3.69 0.07,-7.43 0.07,-11.23 z m -804.8,67.4 c 12.62,0.46 23.92,-2.48 34.77,-7.69 0,-2.54 0.03,-4.87 -0.01,-7.2 -0.04,-2.29 0.19,-4.61 -0.19,-7.05 -8.7,0.17 -17.16,0.09 -25.73,0.38 0,0.93 -0.01,1.51 0,2.08 0.09,3.25 0.14,6.51 0.31,9.75 0.19,3.57 -1.28,6.14 -4.43,7.73 -1.32,0.66 -2.73,1.16 -4.72,2 z m 784.01,-301 c 0.08,-0.12 0.15,-0.23 0.23,-0.35 -0.58,-0.44 -1.15,-0.91 -1.75,-1.32 -6.13,-4.17 -12.82,-7.09 -19.99,-8.95 -5.27,-1.37 -10.59,-2.37 -16.07,-1.89 -4.3,0.38 -8.15,1.81 -11.02,5.2 -2.43,2.86 -3.34,6.12 -2.15,9.79 1.33,4.12 4.27,7 7.14,9.68 3.82,-3.88 7.42,-7.53 11.14,-11.3 -0.58,-0.47 -1.25,-0.94 -1.83,-1.5 -0.95,-0.93 -1.9,-1.86 -2.73,-2.89 -1.89,-2.35 -0.2,-5.09 1.7,-6.07 0.84,-0.43 1.65,-0.42 2.26,0.35 0.61,0.77 0.41,1.49 -0.26,2.21 -1.28,1.38 -1.3,1.82 0,3.01 1.23,1.12 2.59,2.08 3.81,3.05 1.92,-0.7 3.68,-1.51 5.52,-1.98 4.38,-1.12 8.79,-0.75 13.14,0.22 3.63,0.82 7.23,1.82 10.86,2.74 z m 35.5,136.25 c -1.02,0.51 -1.76,0.89 -2.5,1.24 -7.3,3.46 -15,4.48 -22.9,3.08 -5.11,-0.91 -9.83,-3.15 -14.36,-5.66 -5.32,-2.96 -10.56,-6.04 -15.85,-9.06 -1.06,-0.61 -2.09,-1.42 -3.43,-0.8 -0.48,3.82 0.7,8.8 2.82,12.2 1.67,2.66 4,4.54 7.01,5.31 2.24,0.58 4.59,0.98 6.9,1 10.26,0.08 20.52,0 30.77,-0.05 1.58,-0.01 3.17,-0.12 4.74,-0.27 2.12,-0.21 4.11,-0.81 5.59,-2.45 1.11,-1.21 1.88,-2.54 1.21,-4.54 z M 273.98,50.43 c -1.12,1.18 -1.43,2.49 -1.39,3.83 0.11,3.41 0.21,6.82 0.54,10.21 0.82,8.46 1.75,16.92 2.66,25.37 1.12,10.53 2.26,21.05 3.4,31.58 0.3,2.78 0.65,5.56 0.97,8.24 1.38,0 2.43,0 3.6,0 0.03,-0.55 0.09,-0.95 0.06,-1.34 -0.8,-8.55 -1.6,-17.1 -2.42,-25.65 -1.28,-13.44 -2.57,-26.89 -3.83,-40.33 -0.22,-2.32 -0.24,-4.67 -0.45,-6.99 -0.21,-2.14 -0.89,-4.03 -3.14,-4.92 z M 70.45,701.63 c 0.06,0.2 0.12,0.41 0.19,0.61 12.5,-0.16 25.01,-0.32 37.51,-0.48 -6.58,-5.02 -11.91,-10.92 -16.64,-17.65 -7.1,5.91 -14.08,11.71 -21.06,17.52 z m 161.3,-442.7 c -0.97,-5.26 -1.89,-10.24 -2.81,-15.2 -5.36,0 -10.58,0 -15.92,0 -1.77,5.11 -3.48,10.04 -5.27,15.2 8.05,0 15.77,0 24,0 z m 63.53,-17.27 c -0.26,-7.19 -0.51,-14.13 -0.77,-21.2 -4.81,0.27 -9.28,0.52 -13.96,0.78 0,7.01 0.26,13.77 0.72,20.41 4.77,0.01 9.24,0.01 14.01,0.01 z m -68.51,-22.52 c -4.99,0.46 -9.56,0.2 -14.12,1.03 0.26,6.86 0.51,13.49 0.76,20.14 4.81,0 9.34,0 14.12,0 -0.25,-7.11 -0.5,-13.98 -0.76,-21.17 z m 72.12,39.33 c -0.77,-4.72 -1.49,-9.11 -2.19,-13.46 -5.46,0 -10.6,0 -15.89,0 -1.47,4.51 -2.9,8.9 -4.39,13.46 7.55,0 14.77,0 22.47,0 z m 126.03,430.22 c -0.57,0.36 -0.81,0.44 -0.95,0.61 -4.9,5.92 -9.81,11.82 -14.63,17.79 -0.56,0.7 -0.79,1.82 -0.83,2.75 -0.13,3.59 -0.12,7.18 -0.15,10.76 0,0.45 0.11,0.9 0.18,1.37 0.28,-0.08 0.38,-0.08 0.43,-0.12 5.09,-5.4 10.2,-10.8 15.25,-16.24 0.4,-0.44 0.67,-1.18 0.68,-1.78 0.05,-4.9 0.02,-9.81 0.02,-15.14 z M 184.45,718.1 c 7.21,-7.07 15.11,-16.08 15.63,-17.69 -5.6,-0.78 -10.9,-0.05 -15.63,3.88 0,4.3 0,8.84 0,13.81 z m -78.43,-37.22 c 1.56,3.51 8.26,10.12 11.06,11.06 0,-3.69 0,-7.39 0,-11.06 -3.73,0 -7.35,0 -11.06,0 z M 252.73,522.89 c -0.03,0.14 -0.05,0.28 -0.08,0.41 7.82,0 15.65,0 23.47,0 0,-0.14 0,-0.28 0,-0.41 -7.79,0 -15.59,0 -23.39,0 z"
   id="path4" />
	<path
   class="wipphebel_st0"
   d="m 916.51,442.26 c -0.97,0.14 -1.93,0.25 -2.9,0.42 -2.75,0.46 -4.16,1.76 -4.63,4.5 -0.23,1.3 -0.21,2.66 -0.22,3.99 -0.03,3.41 -0.01,6.83 -0.01,10.4 -2.62,0.28 -4.92,0.44 -7.19,0.78 -9.23,1.38 -16.72,5.5 -21.53,13.8 -1.52,2.63 -2.53,5.43 -2.96,8.44 -1.43,9.93 0.64,18.69 8.21,25.81 4.47,4.21 9.59,7.48 14.7,10.79 0.68,0.44 1.35,0.88 1.97,1.77 -0.95,0 -1.9,0 -2.85,0 -76.23,-0.01 -152.45,-0.03 -228.68,-0.03 -32.89,0 -65.79,0.02 -98.68,0.03 -20.37,0.01 -40.74,0.02 -61.11,0.04 -16.53,0.01 -33.06,0.03 -49.59,0.05 -14.28,0.02 -28.55,0.05 -42.83,0.08 -24.79,0.06 -49.59,0.12 -74.38,0.18 -9.68,0.02 -19.37,0.05 -29.05,0.06 -2.3,0 -4.47,-0.16 -6.76,-1.08 -4.08,-1.64 -8.43,-2.61 -12.68,-3.83 -14.82,-4.22 -30.01,-5.25 -45.33,-5.54 -12,-0.23 -23.57,1.9 -35,5.2 -5.13,1.48 -10.21,3.09 -15.33,4.61 -0.95,0.28 -1.95,0.54 -2.92,0.56 -5.26,0.07 -10.52,0.07 -15.78,0.08 -0.41,0 -0.81,-0.05 -1.57,-0.11 -0.09,-29.64 0.43,-59.2 0.55,-88.92 0.81,-0.1 1.44,-0.21 2.07,-0.24 0.83,-0.04 1.67,-0.01 2.5,-0.01 75.56,0 151.12,0 226.67,0 14.85,0 29.71,0.01 44.56,0 72.55,-0.03 145.1,-0.07 217.65,-0.11 25.55,-0.01 51.09,-0.05 76.64,-0.08 36.9,-0.03 73.8,-0.06 110.71,-0.1 9.68,-0.01 19.37,0 29.05,-0.05 1.95,-0.01 3.73,0.37 5.59,1 5.75,1.97 11.59,3.7 17.39,5.56 1.31,0.42 2.56,0.99 3.84,1.49 -0.04,0.16 -0.08,0.31 -0.12,0.46 z M 676.2,497.01 c 8.73,0.12 15.6,-5.1 17.49,-13.47 0.47,-2.09 0.64,-4.3 0.56,-6.45 -0.13,-3.44 -0.81,-6.78 -3.16,-9.55 -5.54,-6.56 -15.24,-8.64 -22.99,-4.88 -7.36,3.56 -11.35,12.14 -9.49,20.42 1.84,8.18 8.94,13.81 17.59,13.93 z M 232.33,460.26 c -1.48,0.2 -3,0.28 -4.44,0.64 -6.62,1.66 -11.34,5.56 -13.41,12.16 -1.96,6.24 -0.54,11.89 3.81,16.71 7.36,8.15 20.98,8.04 28.26,-0.17 3.5,-3.95 5.09,-8.6 4.26,-13.85 -1.42,-9.07 -9.14,-15.43 -18.48,-15.49 z m 159.58,19.08 c 0.19,-7.76 -3.55,-13.24 -11.32,-15.97 -12.84,-4.51 -25.41,4.54 -24.42,18.63 0.5,7.18 5.07,13.06 12.01,15.43 7.11,2.43 14.5,0.63 19.23,-4.72 3.25,-3.69 4.52,-8.1 4.5,-13.37 z"
   id="path6" />
	<path
   class="wipphebel_st0"
   d="m 414.79,430.88 c -79.3,0 -158.42,0 -237.85,0 -0.56,31.93 -0.44,63.66 -0.78,95.54 3.72,0 7.12,0 10.53,0 0.03,0.12 0.06,0.23 0.09,0.35 -0.56,0.25 -1.11,0.53 -1.69,0.73 -13.23,4.64 -26.26,9.75 -38.97,15.67 -9.99,4.65 -18.96,10.83 -27.21,18.09 -5.96,5.25 -11.5,10.91 -16.63,16.96 -0.26,0.31 -0.44,0.7 -0.77,1.23 -0.94,-0.93 -1.61,-1.53 -2.21,-2.18 -15.54,-16.86 -27.12,-36.02 -34.34,-57.86 -4.25,-12.86 -6.5,-26.02 -7.31,-39.46 -1.26,-20.84 0.04,-41.54 4.08,-62.02 5.91,-29.95 18.82,-56.38 40.73,-77.97 12.7,-12.51 27.25,-22.52 43.51,-29.91 18.2,-8.28 37.25,-13.56 57.09,-16.08 17.53,-2.23 35.11,-2.62 52.73,-1.43 16.7,1.12 33.13,3.79 49.19,8.59 17.45,5.21 32.85,14.14 47.14,25.25 16.75,13.03 30.96,28.37 42.73,46.01 9.59,14.36 15.7,30.09 19.04,46.96 0.74,3.69 1.48,7.36 0.9,11.53 z"
   id="path8" />
	<path
   class="wipphebel_st0"
   d="m 416.21,526.38 c -0.48,2.99 -0.82,5.69 -1.36,8.35 -2.77,13.81 -7.79,26.75 -15.7,38.43 -9.78,14.44 -22.31,26.07 -37.32,34.97 -13.9,8.24 -28.83,13.82 -44.67,16.98 -0.33,0.07 -0.66,0.09 -0.99,0.17 -1.75,0.43 -2.02,0.7 -2.03,2.57 -0.02,3.84 -0.03,7.68 0.06,11.51 0.4,18.1 0.84,36.2 1.26,54.3 0.01,0.42 0,0.83 0,1.24 -2.05,0.62 -113.22,2.34 -117.97,1.78 3.19,-2.4 6.18,-4.55 9.05,-6.85 2.93,-2.35 5.79,-4.79 8.57,-7.31 2.84,-2.58 5.57,-5.29 8.27,-8.01 2.65,-2.66 5.27,-5.35 7.8,-8.12 2.52,-2.76 4.91,-5.64 7.42,-8.54 4.31,1.52 8.67,1.92 13.13,1.87 15.36,-0.18 22.52,-16.89 17.51,-27.6 -4.24,-9.06 -13.28,-15.06 -23.1,-14.5 -1.64,0.09 -3.3,0.48 -4.89,0.96 -5.39,1.61 -9.81,4.87 -13.01,9.31 -5.32,7.39 -5.63,15.41 -1.59,23.99 -11.3,16.16 -24.11,31.13 -42.55,41.15 -0.04,-1.32 -0.1,-2.17 -0.1,-3.03 -0.02,-20.19 -0.02,-40.39 -0.05,-60.58 0,-3.16 0.68,-3.46 -3.42,-4.55 -6.6,-1.76 -13.22,-3.52 -19.67,-5.75 -12.48,-4.32 -23.68,-11.11 -34.28,-18.88 -5.38,-3.94 -10.58,-8.12 -16,-12.3 0.61,-0.84 1,-1.45 1.46,-2.01 6.87,-8.39 14.98,-15.46 23.75,-21.75 16.51,-11.84 34.43,-20.98 53.67,-27.53 10.58,-3.6 21.28,-6.81 32.17,-9.32 2.08,-0.48 4.28,-0.65 6.42,-0.66 17.2,-0.1 34.39,-0.14 51.59,-0.16 31.81,-0.04 63.61,-0.05 95.42,-0.08 12.69,-0.01 25.38,-0.03 38.07,-0.04 0.89,-0.01 1.79,-0.01 3.08,-0.01 z"
   id="path10" />
	<path
   class="wipphebel_st1"
   d="m 108.59,329.38 c 0,-22.05 0,-44.1 0,-66.48 1.13,0 2.27,0.01 3.42,0 22.54,-0.15 45.08,-0.3 67.62,-0.44 29.38,-0.19 58.77,-0.37 88.15,-0.56 21.62,-0.14 43.24,-0.28 64.86,-0.44 19.45,-0.14 38.9,-0.3 58.35,-0.45 1.24,-0.01 2.47,0 4.06,0 0.17,24.95 0.34,49.67 0.51,74.57 -1.06,0.05 -1.87,0.12 -2.68,0.12 -7.51,0.01 -15.03,-0.04 -22.54,0.04 -1.71,0.02 -2.95,-0.49 -4.21,-1.65 C 353.65,322.62 340,312.83 324.69,305.45 312.2,299.43 299,295.69 285.44,293.08 c -17.53,-3.37 -35.25,-4.5 -53.06,-4.3 -22.73,0.26 -45.08,3.18 -66.78,10.26 -19.03,6.21 -36.77,14.88 -52.53,27.36 -1.3,1.03 -2.59,2.08 -3.89,3.12 -0.21,-0.05 -0.4,-0.09 -0.59,-0.14 z"
   id="path12" />
	<path
   class="wipphebel_st2"
   d="m 946.7,539.08 c -5.01,0.16 -10.2,-1.31 -15.1,-3.77 -6.58,-3.31 -10.61,-8.74 -12.34,-15.85 -2.95,-12.15 -0.4,-22.74 8.89,-31.5 3.39,-3.21 7.54,-4.48 11.87,-5.46 9.71,-2.2 18.29,0.44 26.1,6.23 0.6,0.44 1.17,0.97 1.61,1.57 5.14,6.94 8.45,14.71 8.22,23.37 -0.24,8.89 -4.13,16.23 -12,20.98 -5.12,3.07 -10.73,4.45 -17.25,4.43 z"
   id="path14" />
	<path
   class="wipphebel_st3"
   d="m 299.44,523.42 c -0.95,-0.05 -1.97,0.09 -2.85,-0.18 -6.67,-2.06 -13.56,-2.71 -20.45,-3.28 -15.5,-1.29 -30.8,0.44 -46.13,2.66 -13.47,1.95 -26.29,6.1 -39.16,10.15 -15.02,4.73 -29.11,11.55 -42.7,19.47 -12.56,7.31 -23.91,16.09 -34.12,26.45 -12.57,12.75 -19.71,28.12 -22.83,45.57 -1.28,7.18 -1.97,14.37 -1.48,21.66 0.85,12.66 4.39,24.5 11.69,34.93 11.13,15.89 26.51,24.17 46.01,24.59 10.95,0.23 21.34,-2.18 31.38,-6.42 13.47,-5.69 24.67,-14.45 34.49,-25.13 5.54,-6.03 10.59,-12.47 15.19,-19.25 2.24,-3.31 4.2,-6.81 6.44,-10.12 1.25,-1.85 2.65,-3.67 4.29,-5.17 1.04,-0.95 2.57,-1.63 3.97,-1.87 2.86,-0.47 4.47,1.71 3.33,4.36 -0.52,1.21 -1.28,2.35 -2.1,3.38 -4.22,5.28 -8.31,10.68 -12.79,15.73 -10.32,11.62 -21.14,22.75 -34.06,31.58 -10.91,7.46 -22.61,13.21 -35.63,15.92 -14.7,3.06 -29.1,2.17 -42.78,-4.39 C 104.26,696.92 94,685.3 87.76,670.14 c -7.49,-18.19 -7.58,-36.7 -1.77,-55.35 3.76,-12.08 9.64,-23.1 17.56,-32.94 10.61,-13.17 22.83,-24.65 37.87,-32.62 7.86,-4.17 16.11,-7.68 24.36,-11.03 18.71,-7.6 37.89,-13.88 57.45,-18.92 9.83,-2.54 19.83,-3.22 30,-3.08 15.03,0.21 29.78,1.93 44.22,6.17 0.69,0.2 1.38,0.45 2.07,0.67 -0.04,0.14 -0.06,0.26 -0.08,0.38 z"
   id="path16" />
	<path
   class="wipphebel_st4"
   d="m 951.12,442.23 c -10.11,0 -19.86,0 -29.8,0 -1.24,-2.41 -3.55,-3.66 -6.13,-4.47 -4.29,-1.35 -8.64,-2.55 -12.9,-3.98 -3.15,-1.06 -6.31,-2.2 -9.3,-3.63 -5.04,-2.41 -6.79,-6.99 -4.59,-12.1 0.91,-2.11 2.31,-4.05 3.76,-5.86 1.34,-1.68 3.06,-3.06 4.57,-4.62 5.77,-5.99 12.72,-7.96 20.79,-6.2 8.66,1.88 17.08,4.56 25.2,8.09 1.82,0.79 3.56,1.84 5.21,2.96 3.02,2.06 4.66,4.98 4.66,8.67 0,2.08 -0.08,4.18 -0.41,6.23 -0.79,4.85 -1.87,9.67 -1.06,14.91 z"
   id="path18" />
	<path
   class="wipphebel_st0"
   d="m 961.86,482.02 c -0.87,-0.29 -1.5,-0.44 -2.09,-0.7 -9.11,-4.01 -18.24,-3.27 -27.29,0.08 -1.98,0.73 -3.74,2.14 -5.48,3.42 -0.91,0.67 -1.73,1.15 -2.91,1.11 -2.33,-0.08 -4.67,0.01 -7.01,-0.04 -3.63,-0.08 -5.14,-1.58 -5.17,-5.27 -0.05,-8.01 -0.03,-16.02 -0.03,-24.03 0,-2.42 -0.07,-4.84 0.02,-7.26 0.12,-2.95 0.68,-3.56 3.57,-3.6 10.26,-0.14 20.53,-0.2 30.8,-0.28 3.09,-0.02 6.18,-0.08 9.26,-0.01 1.23,0.03 2.52,0.19 3.66,0.61 1.32,0.49 2.03,1.71 2.29,3.09 0.21,1.14 0.4,2.31 0.4,3.47 0.05,9.26 0.05,18.52 0.06,27.78 0.01,0.42 -0.04,0.83 -0.08,1.63 z"
   id="path20" />
	<path
   class="wipphebel_st5"
   d="m 139.27,259.44 c -3,0 -5.73,0 -8.78,0 0,-1.48 0,-2.95 0,-4.41 -0.02,-12.68 -0.18,-25.37 -0.03,-38.05 0.16,-13.51 0.31,-27.04 1.01,-40.53 0.92,-17.67 2.9,-35.24 6.87,-52.53 1.81,-7.9 4.08,-15.68 7.56,-23.01 3.01,-6.32 6.2,-12.6 10.56,-18.11 2.1,-2.66 4.5,-5.18 7.13,-7.32 4.65,-3.79 10.03,-4.67 15.8,-2.92 5.36,1.63 10.05,4.44 14.22,8.14 5.89,5.22 10.31,11.56 13.93,18.49 4.62,8.83 7.88,18.2 11.01,27.62 0.1,0.3 0.14,0.61 0.28,1.22 -1.9,0.11 -3.6,0.21 -5.47,0.31 -0.35,-0.93 -0.67,-1.77 -0.97,-2.61 -3.96,-11.37 -8.71,-22.36 -15.16,-32.59 -3.3,-5.23 -7.66,-9.17 -12.96,-12.22 -4.93,-2.84 -9.91,-2.91 -14.73,-0.05 -2.48,1.47 -4.83,3.32 -6.85,5.38 -6.61,6.75 -10.65,15.03 -13.89,23.8 -3.6,9.77 -5.42,19.92 -6.93,30.15 -3.93,26.51 -4.42,53.18 -3.69,79.9 0.34,12.43 0.71,24.85 1.07,37.28 0.03,0.59 0.02,1.17 0.02,2.06 z"
   id="path22" />
	<path
   class="wipphebel_st0"
   d="m 404.79,725.24 c -37.9,-0.16 -75.68,-0.33 -113.72,-0.49 0,-5.13 0,-10.09 0,-15.4 37.93,-0.13 75.92,-0.27 113.86,-0.4 0.6,2.15 0.51,13.5 -0.14,16.29 z"
   id="path24" />
	<path
   class="wipphebel_st2"
   d="m 922.17,489.44 c -9.24,12.53 -9.13,25.57 -2.81,39.32 -0.83,-0.4 -1.41,-0.64 -1.95,-0.96 -8.42,-4.92 -17.01,-9.61 -24.77,-15.57 -2.83,-2.17 -5.46,-4.66 -7.9,-7.27 -2.94,-3.14 -4.24,-7.1 -4.68,-11.37 -0.86,-8.44 1.05,-15.89 7.5,-21.82 4.24,-3.9 9.39,-5.61 14.93,-6.39 1.81,-0.25 3.65,-0.31 5.76,-0.48 0.09,0.82 0.21,1.52 0.22,2.22 0.1,3.92 0.18,7.84 0.27,11.76 0.03,1.17 0.03,2.34 0.16,3.5 0.42,3.64 2.6,5.96 6.22,6.48 1.73,0.25 3.49,0.26 5.24,0.39 0.54,0.05 1.08,0.12 1.81,0.19 z"
   id="path26" />
	<path
   class="wipphebel_st0"
   d="m 294.16,705.73 c 2.67,-2.22 5.3,-4.49 8.03,-6.63 0.51,-0.4 1.42,-0.37 2.15,-0.38 3.42,-0.05 6.85,-0.05 10.27,-0.08 0.75,-0.01 1.5,-0.05 2.25,-0.12 1.29,-0.12 1.93,-0.8 1.88,-2.15 -0.1,-2.83 -0.15,-5.67 -0.21,-8.51 -0.02,-0.81 0,-1.63 0,-2.74 7.28,-0.19 14.41,-0.37 21.76,-0.56 0,1.63 0.06,3.02 -0.01,4.4 -0.32,6.38 1.13,10.81 9.51,14.09 7.12,2.79 14.53,2.71 21.86,0.43 1.1,-0.34 2.17,-0.88 3.17,-1.47 2.47,-1.49 3.82,-3.62 3.7,-6.62 -0.12,-2.92 -0.12,-5.84 -0.17,-8.76 -0.01,-0.57 0,-1.13 0,-2.02 15.06,-0.28 29.95,0.05 45.24,-0.21 -0.51,0.79 -0.75,1.27 -1.08,1.68 -5.03,6.13 -10.1,12.22 -15.1,18.38 -0.84,1.04 -1.76,1.35 -3.01,1.34 -5.84,-0.02 -11.69,0.02 -17.53,0.04 -30.22,0.12 -60.44,0.25 -90.66,0.37 -0.58,0 -1.16,0 -1.74,0 -0.12,-0.15 -0.22,-0.32 -0.31,-0.48 z"
   id="path28" />
	<path
   class="wipphebel_st0"
   d="m 926.04,548.03 c 8.44,0 16.44,0 24.78,0 0.52,18.67 1.05,37.3 1.58,56.29 -8.85,0.3 -17.56,0.24 -26.36,0.29 0,-18.89 0,-37.59 0,-56.58 z"
   id="path30" />
	<path
   class="wipphebel_st0"
   d="m 67.23,705.29 c 0.87,0 1.69,0.01 2.5,0 14.1,-0.14 28.2,-0.29 42.31,-0.39 0.96,-0.01 2.03,0.19 2.86,0.64 15.45,8.3 31.74,9.42 48.61,5.85 5.24,-1.11 10.29,-2.78 15.23,-4.83 0.75,-0.31 1.52,-0.57 2.68,-1.01 -0.15,5.35 -0.29,10.36 -0.44,15.73 -37.95,-0.16 -75.71,-0.33 -113.73,-0.49 -0.02,-5.18 -0.02,-10.2 -0.02,-15.5 z"
   id="path32" />
	<path
   class="wipphebel_st6"
   d="m 279.27,218.14 c 0,-28.51 0,-56.66 0,-85.11 3.42,0 6.63,0 10.11,0 2.3,27.88 4.61,55.87 6.95,84.19 -5.78,0.31 -11.32,0.61 -17.06,0.92 z"
   id="path34" />
	<path
   class="wipphebel_st6"
   d="m 211.48,216.86 c 0,-28.53 0,-56.77 0,-85.33 3.42,0 6.62,0 10.14,0 2.3,27.92 4.61,55.98 6.95,84.35 -5.71,0.32 -11.26,0.64 -17.09,0.98 z"
   id="path36" />
	<path
   class="wipphebel_st7"
   d="m 152,680.38 c 0,4.17 -0.08,8.34 0.04,12.5 0.05,1.8 -0.51,3.17 -2.02,3.97 -1.53,0.81 -3.16,1.5 -4.82,1.94 -5.63,1.5 -11.24,1.21 -16.74,-0.65 -1.56,-0.53 -3.07,-1.31 -4.46,-2.2 -2.45,-1.59 -3.95,-3.8 -3.78,-6.88 0.28,-5.16 0.52,-10.32 0.85,-15.47 0.16,-2.57 0.4,-5.15 0.76,-7.7 0.35,-2.46 0.69,-2.82 3.2,-2.91 4.83,-0.18 9.67,-0.24 14.5,-0.28 2.42,-0.02 4.84,0.02 7.25,0.18 3.7,0.25 4.49,1.08 4.64,4.75 0.13,3.16 0.15,6.33 0.21,9.5 0.02,1.08 0,2.17 0,3.25 0.13,0 0.25,0 0.37,0 z"
   id="path38" />
	<path
   class="wipphebel_st7"
   d="m 375.34,682.92 c 0,4 -0.11,8 0.04,12 0.08,2.02 -0.72,3.32 -2.31,4.35 -2.16,1.4 -4.6,1.98 -7.08,2.3 -4.94,0.63 -9.82,0.29 -14.57,-1.34 -0.78,-0.27 -1.55,-0.62 -2.3,-0.98 -4.01,-1.94 -6.09,-5.05 -5.72,-9.61 0.13,-1.58 0.2,-3.16 0.31,-4.74 0.35,-4.91 0.7,-9.81 1.06,-14.72 0.03,-0.42 0.08,-0.83 0.15,-1.24 0.59,-3.47 0.82,-3.77 4.27,-3.81 6.92,-0.08 13.83,-0.04 20.75,-0.04 0.66,0 1.34,0.06 1.99,0.17 1.27,0.21 2.16,0.91 2.42,2.2 0.21,1.06 0.42,2.13 0.43,3.21 0.05,4.08 0.02,8.17 0.02,12.26 0.2,-0.01 0.37,-0.01 0.54,-0.01 z"
   id="path40" />
	<path
   class="wipphebel_st5"
   d="m 235.07,258.95 c -0.84,-2.24 -0.7,-4.03 0.28,-5.99 5.52,-10.94 10.87,-21.98 15.14,-33.49 5.12,-13.8 8.44,-28.09 11.08,-42.53 2.32,-12.65 3.61,-25.42 4.6,-38.23 1.28,-16.63 2.55,-33.26 3.81,-49.9 0.27,-3.57 0.47,-7.14 1.03,-10.76 0.17,0.43 0.45,0.86 0.48,1.3 0.27,3.41 0.7,6.82 0.67,10.22 -0.09,10.51 -0.14,21.03 -0.62,31.53 -0.54,11.91 -1.45,23.81 -2.34,35.7 -0.96,12.74 -2.89,25.34 -5.56,37.83 -4.61,21.57 -11.93,42.15 -22.02,61.78 -1.05,2.04 -2.23,2.9 -4.42,2.56 -0.64,-0.11 -1.32,-0.02 -2.13,-0.02 z"
   id="path42" />
	<path
   class="wipphebel_st6"
   d="m 240.76,655.13 c 2.22,-2.84 4.19,-5.3 6.08,-7.83 0.94,-1.26 1.87,-2.58 2.54,-3.99 1.06,-2.22 1.24,-4.55 -0.4,-6.61 -1.65,-2.08 -3.96,-2.71 -6.5,-2.42 -2.22,0.25 -4.23,1.22 -5.69,2.89 -1.96,2.25 -3.72,4.68 -5.52,7.07 -0.88,1.17 -1.66,2.42 -2.62,3.83 -1.36,-2.17 -1.49,-4.34 -1.47,-6.47 0.02,-1.91 0.34,-3.81 0.61,-5.71 0.37,-2.57 1.8,-4.59 3.46,-6.52 3.93,-4.61 8.63,-7.86 14.8,-8.46 1.71,-0.17 3.55,-0.14 5.2,0.29 8.33,2.15 13.98,7.17 16.1,15.71 1.64,6.61 -2.82,17.66 -12.9,19.3 -4.52,0.72 -8.93,0.4 -13.69,-1.08 z"
   id="path44" />
	<path
   class="wipphebel_st2"
   d="m 954.58,607.94 c 0.2,7.73 0.39,15.36 0.6,23.29 -10.35,0.39 -20.45,0.31 -30.84,0.42 -0.16,-7.94 -0.31,-15.64 -0.47,-23.27 2.02,-0.61 26.46,-0.95 30.71,-0.44 z"
   id="path46" />
	<path
   class="wipphebel_st3"
   d="m 979.43,515.27 c -0.28,-3.16 -0.21,-6.12 -0.88,-8.9 -0.75,-3.11 -0.3,-5.59 1.3,-8.4 4.23,-7.46 6.29,-15.55 5.82,-24.22 -0.25,-4.59 -1.49,-8.85 -3.64,-12.88 -3.69,-6.92 -8.7,-12.82 -14.19,-18.32 -3.77,-3.78 -7.63,-7.48 -11.5,-11.15 -1,-0.95 -1.48,-1.8 -1.11,-3.26 0.45,-1.83 0.57,-3.74 0.87,-5.92 0.77,0.69 1.41,1.19 1.96,1.77 5.59,5.84 11.2,11.68 16.75,17.56 6.17,6.54 11.07,13.93 15.09,21.97 3.26,6.53 4.15,13.17 2.8,20.37 -1.85,9.86 -4.64,19.28 -10.34,27.65 -0.7,1.03 -1.44,2.05 -2.17,3.06 -0.15,0.19 -0.37,0.32 -0.76,0.67 z"
   id="path48" />
	<path
   class="wipphebel_st3"
   d="m 950.89,634.83 c 0,3.8 0.16,7.54 -0.09,11.25 -0.09,1.26 -1.18,2.48 -1.9,3.66 -0.24,0.4 -0.78,0.61 -1.15,0.95 -0.89,0.84 -1.54,1.79 -1.05,3.09 0.45,1.19 1.49,1.5 2.61,1.62 0.49,0.05 1,-0.03 1.49,-0.04 1.99,-0.06 2.02,-0.03 2.12,2.45 -0.53,0.07 -1.07,0.2 -1.61,0.22 -7.58,0.21 -15.16,0.4 -22.74,0.6 -0.5,0.01 -1,0.02 -1.5,-0.01 -1.05,-0.05 -1.45,-0.7 -1.47,-1.65 -0.02,-0.94 0.28,-1.64 1.38,-1.68 0.83,-0.03 1.67,-0.03 2.49,-0.15 1.2,-0.18 2.29,-0.64 2.61,-1.97 0.28,-1.17 -0.14,-2.17 -1.11,-2.84 -2.38,-1.65 -3.06,-4.02 -3.05,-6.74 0.02,-2.82 0,-5.64 0,-8.74 7.59,-0.02 15.05,-0.02 22.97,-0.02 z"
   id="path50" />
	<path
   class="wipphebel_st0"
   d="m 146.09,702.23 c 2,-0.84 3.41,-1.34 4.73,-2.01 3.15,-1.59 4.62,-4.16 4.43,-7.73 -0.18,-3.25 -0.22,-6.5 -0.31,-9.75 -0.02,-0.57 0,-1.15 0,-2.08 8.57,-0.29 17.03,-0.21 25.73,-0.38 0.38,2.45 0.15,4.76 0.19,7.05 0.04,2.33 0.01,4.66 0.01,7.2 -10.87,5.21 -22.16,8.16 -34.78,7.7 z"
   id="path52" />
	<path
   class="wipphebel_st3"
   d="m 930.1,401.23 c -3.62,-0.92 -7.22,-1.93 -10.87,-2.74 -4.35,-0.97 -8.76,-1.34 -13.14,-0.22 -1.84,0.47 -3.59,1.28 -5.52,1.98 -1.22,-0.96 -2.58,-1.93 -3.81,-3.05 -1.31,-1.19 -1.29,-1.63 0,-3.01 0.68,-0.73 0.87,-1.44 0.26,-2.21 -0.6,-0.76 -1.42,-0.78 -2.26,-0.35 -1.9,0.98 -3.59,3.72 -1.7,6.07 0.83,1.03 1.78,1.96 2.73,2.89 0.58,0.56 1.25,1.03 1.83,1.5 -3.72,3.78 -7.32,7.43 -11.14,11.3 -2.87,-2.69 -5.8,-5.57 -7.14,-9.68 -1.19,-3.67 -0.29,-6.93 2.15,-9.79 2.87,-3.38 6.72,-4.82 11.02,-5.2 5.48,-0.48 10.8,0.52 16.07,1.89 7.17,1.86 13.86,4.78 19.99,8.95 0.6,0.41 1.17,0.88 1.75,1.32 -0.07,0.12 -0.15,0.24 -0.22,0.35 z"
   id="path54" />
	<path
   class="wipphebel_st7"
   d="m 965.6,537.48 c 0.66,1.99 -0.1,3.33 -1.19,4.53 -1.48,1.64 -3.47,2.24 -5.59,2.45 -1.58,0.16 -3.16,0.27 -4.74,0.27 -10.26,0.05 -20.52,0.13 -30.77,0.05 -2.31,-0.02 -4.66,-0.43 -6.9,-1 -3.01,-0.77 -5.34,-2.64 -7.01,-5.31 -2.13,-3.4 -3.3,-8.38 -2.82,-12.2 1.34,-0.62 2.37,0.2 3.43,0.8 5.28,3.02 10.53,6.1 15.85,9.06 4.53,2.52 9.25,4.76 14.36,5.66 7.9,1.4 15.59,0.38 22.9,-3.08 0.73,-0.34 1.46,-0.72 2.48,-1.23 z"
   id="path56" />
	<path
   class="wipphebel_st5"
   d="m 273.98,50.43 c 2.25,0.89 2.93,2.78 3.13,4.92 0.22,2.32 0.24,4.67 0.45,6.99 1.26,13.45 2.55,26.89 3.83,40.33 0.81,8.55 1.62,17.1 2.42,25.65 0.04,0.39 -0.03,0.79 -0.06,1.34 -1.17,0 -2.22,0 -3.6,0 -0.32,-2.68 -0.67,-5.46 -0.97,-8.24 -1.14,-10.53 -2.28,-21.05 -3.4,-31.58 -0.9,-8.46 -1.84,-16.91 -2.66,-25.37 -0.33,-3.39 -0.43,-6.81 -0.54,-10.21 -0.03,-1.34 0.28,-2.65 1.4,-3.83 z"
   id="path58" />
	<path
   class="wipphebel_st0"
   d="m 70.45,701.63 c 6.98,-5.8 13.96,-11.61 21.06,-17.52 4.73,6.73 10.06,12.63 16.64,17.65 -12.5,0.16 -25.01,0.32 -37.51,0.48 -0.06,-0.2 -0.12,-0.41 -0.19,-0.61 z"
   id="path60" />
	<path
   class="wipphebel_st5"
   d="m 231.75,258.93 c -8.23,0 -15.95,0 -24,0 1.79,-5.16 3.5,-10.1 5.27,-15.2 5.34,0 10.55,0 15.92,0 0.92,4.96 1.83,9.93 2.81,15.2 z"
   id="path62" />
	<path
   class="wipphebel_st1"
   d="m 295.28,241.66 c -4.77,0 -9.24,0 -14.01,0 -0.46,-6.64 -0.72,-13.4 -0.72,-20.41 4.67,-0.26 9.14,-0.51 13.96,-0.78 0.26,7.06 0.51,13.99 0.77,21.19 z"
   id="path64" />
	<path
   class="wipphebel_st1"
   d="m 226.77,219.14 c 0.26,7.19 0.51,14.07 0.77,21.17 -4.78,0 -9.32,0 -14.12,0 -0.25,-6.65 -0.5,-13.29 -0.76,-20.14 4.55,-0.83 9.11,-0.58 14.11,-1.03 z"
   id="path66" />
	<path
   class="wipphebel_st5"
   d="m 298.89,258.47 c -7.7,0 -14.92,0 -22.47,0 1.49,-4.56 2.92,-8.95 4.39,-13.46 5.28,0 10.42,0 15.89,0 0.7,4.34 1.42,8.74 2.19,13.46 z"
   id="path68" />
	<path
   class="wipphebel_st0"
   d="m 424.92,688.69 c 0,5.32 0.02,10.24 -0.03,15.16 -0.01,0.6 -0.27,1.34 -0.68,1.78 -5.05,5.44 -10.16,10.83 -15.25,16.24 -0.05,0.05 -0.14,0.04 -0.43,0.12 -0.06,-0.48 -0.18,-0.92 -0.18,-1.37 0.03,-3.59 0.02,-7.18 0.15,-10.76 0.03,-0.94 0.27,-2.06 0.83,-2.75 4.82,-5.98 9.74,-11.88 14.63,-17.79 0.15,-0.18 0.39,-0.27 0.96,-0.63 z"
   id="path70" />
	<path
   class="wipphebel_st0"
   d="m 184.45,718.1 c 0,-4.96 0,-9.51 0,-13.81 4.73,-3.93 10.02,-4.66 15.63,-3.88 -0.52,1.61 -8.42,10.61 -15.63,17.69 z"
   id="path72" />
	<path
   class="wipphebel_st0"
   d="m 106.02,680.88 c 3.71,0 7.33,0 11.06,0 0,3.67 0,7.38 0,11.06 -2.8,-0.95 -9.5,-7.55 -11.06,-11.06 z"
   id="path74" />
	<path
   class="wipphebel_st8"
   d="m 252.73,522.89 c 7.8,0 15.6,0 23.4,0 0,0.14 0,0.28 0,0.41 -7.82,0 -15.65,0 -23.47,0 0.02,-0.13 0.04,-0.27 0.07,-0.41 z"
   id="path76" />
	<path
   d="m 676.2,497.01 c -8.64,-0.12 -15.75,-5.75 -17.59,-13.94 -1.86,-8.27 2.13,-16.85 9.49,-20.42 7.75,-3.75 17.45,-1.67 22.99,4.88 2.34,2.77 3.02,6.11 3.16,9.55 0.08,2.14 -0.08,4.36 -0.56,6.45 -1.89,8.38 -8.77,13.6 -17.49,13.48 z m 15.01,-18.55 c -0.04,-0.01 -0.09,-0.02 -0.13,-0.03 -0.05,-1 -0.04,-2 -0.17,-2.99 -0.33,-2.52 -0.95,-5.03 -3.06,-6.64 -1.97,-1.49 -4.06,-3.05 -6.35,-3.86 -9.98,-3.54 -20.96,3.16 -20.06,15.57 0.51,7.08 6.26,12.63 13.65,13.32 7.24,0.67 13.65,-3.74 15.4,-10.71 0.38,-1.51 0.48,-3.1 0.72,-4.66 z"
   id="path78" />
	<path
   d="m 232.33,460.26 c 9.34,0.06 17.06,6.42 18.49,15.48 0.83,5.26 -0.76,9.91 -4.26,13.85 -7.29,8.22 -20.9,8.32 -28.26,0.17 -4.35,-4.81 -5.77,-10.47 -3.81,-16.71 2.07,-6.6 6.79,-10.5 13.41,-12.16 1.43,-0.35 2.95,-0.42 4.43,-0.63 z m -15.6,17.96 c 0.21,1.23 0.31,2.49 0.66,3.67 3.08,10.43 16.5,14.28 25.12,7.22 7.25,-5.94 7.08,-16.59 -0.36,-22.32 -5.73,-4.41 -14.13,-4.39 -19.78,0.13 -3.59,2.87 -5.52,6.61 -5.64,11.3 z"
   id="path80" />
	<path
   d="m 391.91,479.34 c 0.01,5.27 -1.25,9.68 -4.5,13.36 -4.73,5.35 -12.11,7.15 -19.23,4.72 -6.94,-2.37 -11.51,-8.25 -12.01,-15.43 -0.99,-14.08 11.58,-23.14 24.42,-18.63 7.77,2.74 11.51,8.22 11.32,15.98 z m -17.7,-13.94 c -9.14,-0.03 -15.69,7.27 -14.9,16.6 0.53,6.2 5.07,11.36 11.28,12.84 6.53,1.55 12.59,-0.77 15.82,-6.23 2.91,-4.91 2.98,-10.13 1.16,-15.43 -0.29,-0.84 -0.82,-1.68 -1.44,-2.31 -3.26,-3.34 -7.1,-5.49 -11.92,-5.47 z"
   id="path82" />
	<path
   class="wipphebel_st1"
   d="m 691.21,478.46 c -0.23,1.56 -0.33,3.15 -0.72,4.67 -1.75,6.96 -8.15,11.38 -15.4,10.71 -7.39,-0.69 -13.14,-6.24 -13.65,-13.32 -0.9,-12.41 10.08,-19.1 20.06,-15.57 2.29,0.81 4.38,2.36 6.35,3.86 2.11,1.6 2.73,4.11 3.06,6.64 0.13,0.99 0.12,1.99 0.17,2.99 0.04,0 0.08,0.01 0.13,0.02 z m -13.92,1.67 c 0.37,0.62 0.57,1.1 0.9,1.47 1.06,1.17 2.15,2.32 3.27,3.43 1.01,0.99 1.92,1.13 2.59,0.4 0.88,-0.96 0.44,-1.83 -0.3,-2.63 -0.5,-0.55 -1.01,-1.1 -1.53,-1.65 -1.01,-1.07 -2.02,-2.13 -3.07,-3.25 0.72,-0.84 1.24,-1.47 1.79,-2.08 0.78,-0.86 1.62,-1.67 2.38,-2.55 0.57,-0.66 0.61,-1.53 -0.08,-1.99 -0.51,-0.34 -1.38,-0.39 -2.01,-0.25 -0.49,0.11 -0.88,0.72 -1.28,1.13 -1.03,1.07 -2.04,2.16 -3.25,3.44 -0.79,-0.86 -1.44,-1.6 -2.12,-2.32 -0.8,-0.85 -1.58,-1.72 -2.45,-2.49 -0.65,-0.58 -1.5,-0.54 -1.98,0.15 -0.32,0.45 -0.45,1.27 -0.26,1.78 0.25,0.66 0.88,1.18 1.38,1.74 1.09,1.2 2.2,2.39 3.33,3.61 -0.76,0.89 -1.34,1.6 -1.95,2.27 -0.95,1.05 -1.94,2.06 -2.89,3.11 -0.33,0.36 -0.81,0.81 -0.8,1.2 0.01,0.58 0.27,1.29 0.67,1.69 0.64,0.62 1.42,0.32 1.99,-0.27 1.74,-1.79 3.44,-3.6 5.67,-5.94 z"
   id="path84" />
	<path
   class="wipphebel_st1"
   d="m 216.73,478.22 c 0.12,-4.69 2.05,-8.43 5.64,-11.3 5.65,-4.52 14.05,-4.54 19.78,-0.13 7.44,5.73 7.62,16.38 0.36,22.32 -8.62,7.06 -22.05,3.21 -25.12,-7.22 -0.35,-1.18 -0.45,-2.44 -0.66,-3.67 z"
   id="path86" />
	<path
   class="wipphebel_st1"
   d="m 374.21,465.4 c 4.82,-0.02 8.66,2.13 11.92,5.46 0.62,0.64 1.15,1.47 1.44,2.31 1.82,5.29 1.75,10.51 -1.16,15.43 -3.23,5.46 -9.29,7.78 -15.82,6.23 -6.21,-1.47 -10.75,-6.64 -11.28,-12.84 -0.79,-9.31 5.76,-16.61 14.9,-16.59 z m -1.71,14.02 c -0.67,0.8 -1.17,1.45 -1.73,2.05 -1.18,1.29 -2.39,2.55 -3.56,3.85 -0.64,0.71 -0.71,1.53 -0.01,2.23 0.7,0.7 1.51,0.62 2.24,0.01 0.44,-0.37 0.84,-0.81 1.24,-1.23 1.35,-1.45 2.7,-2.9 4.17,-4.49 0.8,0.79 1.5,1.47 2.18,2.17 0.93,0.95 1.82,1.94 2.78,2.87 0.62,0.6 1.35,0.61 2.03,0.04 0.69,-0.57 0.72,-1.32 0.3,-2.02 -0.34,-0.56 -0.83,-1.04 -1.28,-1.53 -1.24,-1.33 -2.49,-2.64 -3.82,-4.05 0.64,-0.76 1.14,-1.4 1.69,-2 0.73,-0.8 1.49,-1.57 2.23,-2.36 0.74,-0.77 0.93,-1.64 0.1,-2.41 -0.81,-0.76 -1.68,-0.53 -2.43,0.21 -0.47,0.47 -0.93,0.95 -1.39,1.43 -0.84,0.89 -1.67,1.78 -2.44,2.6 -1.5,-1.45 -2.83,-2.7 -4.12,-4 -0.76,-0.77 -1.54,-1.36 -2.59,-0.57 -0.86,0.65 -0.75,1.58 0.28,2.81 0.32,0.38 0.67,0.74 1.02,1.1 0.97,1.04 1.94,2.06 3.11,3.29 z"
   id="path88" />
	<path
   d="m 677.29,480.13 c -2.22,2.34 -3.93,4.16 -5.66,5.95 -0.57,0.59 -1.35,0.9 -1.99,0.27 -0.41,-0.39 -0.66,-1.11 -0.67,-1.69 -0.01,-0.4 0.47,-0.84 0.8,-1.2 0.95,-1.05 1.94,-2.06 2.89,-3.11 0.61,-0.67 1.19,-1.38 1.95,-2.27 -1.13,-1.22 -2.24,-2.4 -3.33,-3.61 -0.5,-0.55 -1.13,-1.08 -1.38,-1.74 -0.19,-0.5 -0.05,-1.32 0.26,-1.78 0.48,-0.69 1.33,-0.73 1.98,-0.15 0.87,0.77 1.65,1.64 2.45,2.49 0.68,0.72 1.33,1.45 2.12,2.32 1.21,-1.29 2.22,-2.38 3.25,-3.44 0.4,-0.42 0.79,-1.02 1.28,-1.13 0.63,-0.15 1.5,-0.1 2.01,0.25 0.68,0.46 0.64,1.33 0.08,1.99 -0.76,0.88 -1.6,1.69 -2.38,2.55 -0.55,0.61 -1.08,1.25 -1.79,2.08 1.06,1.11 2.07,2.18 3.07,3.25 0.51,0.54 1.02,1.09 1.53,1.65 0.73,0.8 1.17,1.67 0.3,2.63 -0.66,0.73 -1.58,0.59 -2.59,-0.4 -1.12,-1.11 -2.21,-2.26 -3.27,-3.43 -0.35,-0.38 -0.54,-0.86 -0.91,-1.48 z"
   id="path90" />
	<path
   d="m 372.5,479.42 c -1.17,-1.23 -2.14,-2.25 -3.12,-3.27 -0.34,-0.36 -0.7,-0.72 -1.02,-1.1 -1.03,-1.23 -1.14,-2.16 -0.28,-2.81 1.05,-0.79 1.82,-0.2 2.59,0.57 1.29,1.3 2.62,2.55 4.12,4 0.77,-0.82 1.6,-1.72 2.44,-2.6 0.46,-0.48 0.92,-0.97 1.39,-1.43 0.75,-0.74 1.62,-0.96 2.43,-0.21 0.83,0.77 0.64,1.63 -0.1,2.41 -0.75,0.78 -1.51,1.56 -2.23,2.36 -0.55,0.6 -1.05,1.24 -1.69,2 1.33,1.41 2.59,2.72 3.82,4.05 0.45,0.49 0.94,0.96 1.28,1.53 0.42,0.7 0.39,1.44 -0.3,2.02 -0.68,0.56 -1.41,0.55 -2.03,-0.04 -0.96,-0.92 -1.85,-1.91 -2.78,-2.87 -0.68,-0.7 -1.39,-1.38 -2.18,-2.17 -1.47,1.59 -2.82,3.04 -4.17,4.49 -0.4,0.43 -0.79,0.86 -1.24,1.23 -0.73,0.61 -1.54,0.68 -2.24,-0.01 -0.7,-0.7 -0.63,-1.51 0.01,-2.23 1.17,-1.3 2.39,-2.55 3.56,-3.85 0.57,-0.62 1.08,-1.27 1.74,-2.07 z"
   id="path92" />
	<g
   id="g106">
		<g
   id="g104">
			<path
   class="wipphebel_st9"
   d="m 209.7,547.55 h 11.21 v 2.14 h -8.59 v 6.1 h 7.92 v 2.14 h -7.92 v 8.49 h -2.62 z"
   id="path94" />
			<path
   class="wipphebel_st9"
   d="m 235.47,557.65 h -8.17 v 6.63 h 9.1 v 2.14 h -11.73 v -18.87 h 11.27 v 2.14 h -8.64 v 5.82 h 8.17 z"
   id="path96" />
			<path
   class="wipphebel_st9"
   d="m 239.52,563.24 c 1.24,0.77 2.99,1.37 4.92,1.37 2.64,0 4.18,-1.28 4.18,-3.17 0,-1.73 -1.02,-2.74 -3.91,-3.63 -3.6,-1.11 -5.48,-2.68 -5.48,-5.4 0,-2.98 2.6,-5.19 6.53,-5.19 2.18,0 3.74,0.47 4.7,0.99 l -0.75,2.11 c -0.65,-0.36 -2.07,-0.98 -4.02,-0.98 -2.81,0 -3.82,1.55 -3.82,2.82 0,1.69 1.2,2.58 4.07,3.5 3.52,1.14 5.33,2.62 5.33,5.6 0,2.78 -2.09,5.5 -7.08,5.5 -2.02,0 -4.22,-0.6 -5.39,-1.36 z"
   id="path98" />
			<path
   class="wipphebel_st9"
   d="m 258.94,549.71 h -6.48 v -2.16 h 15.62 v 2.16 h -6.52 v 16.71 h -2.62 z"
   id="path100" />
			<path
   class="wipphebel_st9"
   d="m 288.42,556.78 c 0,6.26 -4.44,9.98 -9.87,9.98 -5.64,0 -9.58,-4.06 -9.58,-9.55 0,-5.88 4.18,-10 9.82,-10 5.81,0.01 9.63,4.1 9.63,9.57 z m -16.68,0.35 c 0,4.07 2.65,7.56 6.93,7.56 4.31,0 6.97,-3.34 6.97,-7.79 0,-3.82 -2.38,-7.62 -6.93,-7.62 -4.55,0 -6.97,3.65 -6.97,7.85 z"
   id="path102" />
		</g>
	</g>
</g>
<g
   id="g1168"
   transform="matrix(0.45811165,0,0,0.45811165,-297.27667,67.34341)"><path
     class="st0"
     d="m 1109.9089,-112.05306 c 5.3,0.4 10.5,0.8 15.8,1.3 7.8,0.7 15.6,1.5 23.1,3.7 2.2,0.7 4.3,1.7 6.4,2.7 0.9,0.5 1.3,1.2 1.3,2.5 0.1,17.6 0.3,35.3 0.4,52.9 0.1,17.5 0.1,35 0.2,52.4 0.2,45.4 0.4,90.7 0.6,136.1 0.2,51.6 0.4,103.2 0.6,154.8 0,4.2 0,8.5 0,12.6 2.1,0.7 3.8,1.1 5.5,1.8 3.4,1.5 5.4,3.9 5.2,7.8 0,0.5 0,1 0,1.6 0,33.6 0,67.2 0.1,100.8 0,7.7 0,15.4 0.1,23.1 0,1 0.1,2 0.2,3.4 97.1,0 193.9,0 290.8,0 0,37.5 0,74.9 0,112.4 -256.6,0 -513.20001,0 -769.80001,0 0,-37.5 0,-74.9 0,-112.4 105.4,0 210.8,0 316.70001,0 0,-2.2 0,-4.2 0,-6.1 0,-15.7 0,-31.4 0,-47.1 0,-24.8 0.1,-49.5 0.1,-74.3 0,-2.2 0.5,-4 2.1,-5.3 2,-1.6 4.3,-2.9 6.5,-4.3 0.9,-0.5 1.9,-0.7 3,-1.1 0,-136.3 0,-272.6 0,-408.9 5.7,-3.5 12,-4.8 18.5,-5.9 13.1,-2.3 26.4,-3.3 39.7,-3.9 1.1,-0.1 2.2,-0.3 3.4,-0.5 9.6,-0.1 19.6,-0.1 29.5,-0.1 z m -103.3,559 c -6,-0.6 -312.10001,-0.4 -314.40001,0.2 -0.6,5.3 -0.4,107.2 0.3,109.3 255.4,0 510.70001,0 766.00001,0 0.7,-4.6 0.4,-107.3 -0.3,-109.8 -0.9,0 -1.8,0 -2.7,0 -95.3,0.1 -190.6,0.1 -285.9,0.2 -0.1,0 -0.2,0.1 -0.2,0.2 -0.1,0.1 -0.1,0.2 -0.4,0.4 0,19.4 0,39.1 0,58.8 -29.9,13.4 -61.1,20.2 -93.9,18.2 -23.8,-1.4 -46.5,-7.3 -68.4,-16.9 -0.1,-20.3 -0.1,-40.4 -0.1,-60.6 z m 1.7,-1.9 c 4.8,0.7 157.1,0.5 159.4,-0.2 0,-6.1 0,-12.2 0,-18.4 0,-35.8 0,-71.6 -0.1,-107.3 0,-1.2 0,-2.5 -0.1,-3.7 -0.1,-1.9 -1,-3.4 -2.6,-4.4 -1.9,-1.2 -3.9,-2 -6.5,-2.1 0.4,2.6 -1.4,3.9 -3.1,5.1 -2.5,1.7 -5,3.4 -7.7,4.9 -7.4,3.9 -15.4,6.3 -23.6,8.1 -22.9,5 -46,5.9 -69.3,3 -8.2,-1 -16.2,-2.8 -23.8,-6.1 -3.4,-1.5 -6.6,-3.3 -9.2,-6 -2,-2 -3.4,-4.2 -3,-7.2 0.1,-0.5 -0.1,-0.9 -0.3,-1.8 -1.9,0.8 -3.6,1.3 -5.1,2.2 -3.3,1.9 -5.1,4.4 -5,8.6 0.2,24.9 0,49.7 0,74.6 0,15 0,30 0,44.9 0,1.7 0,3.7 0,5.8 z m 11.8,-544 c 0,34 0,67.7 0,101.9 4.6,-3.2 9.5,-4.7 14.5,-5.9 10.5,-2.4 21.2,-3.5 32,-4.1 15.6,-1 31.2,-1 46.9,0 9.8,0.6 19.6,1.4 29.2,3.7 4.4,1 8.6,2.6 13,3.9 0,-11 0,-22.2 0,-33.4 0,-11.2 0,-22.5 -0.1,-33.7 -0.1,-11.1 0.1,-22.3 -0.3,-33.8 -5.9,3.5 -12,4.8 -18.1,5.9 -13.1,2.4 -26.4,3.1 -39.7,3.5 -13.6,0.4 -27.2,0.1 -40.8,-1 -12.4,-1.1 -24.8,-2.1 -36.6,-7 z m 147.5,604.3 c 0.7,-10.6 0.3,-56.2 -0.5,-58.4 -52.9,0 -105.8,0 -158.7,0 -0.1,0.8 -0.2,1.4 -0.2,2 0,18.5 0,37 -0.1,55.5 0,1.9 0.8,2.8 2.5,3.4 5.3,1.9 10.6,4.1 16,5.9 26.8,8.9 54.3,11.8 82.5,8.3 19.8,-2.5 38.8,-8 57,-16 0.5,-0.2 0.9,-0.4 1.5,-0.7 z m -10.9,-294.6 c -0.6,0 -0.9,0 -1,0.1 -4.9,4.6 -11,6.8 -17.4,8.6 -10.9,3.1 -22.1,4.3 -33.4,4.9 -12.6,0.7 -25.1,0.5 -37.7,-0.6 -10.4,-1 -20.8,-2.4 -30.8,-5.5 -5.6,-1.7 -11,-3.7 -15.5,-7.6 -0.2,-0.1 -0.6,0 -1,0 0,1.2 0,2.3 0,3.5 0,14.1 0.1,28.3 0,42.4 0,2.9 1,5 3.1,6.8 3,2.7 6.6,4.5 10.3,6 9.8,3.9 20.1,5.7 30.5,6.7 19.1,1.9 38.2,1.5 57.1,-1.8 8.5,-1.5 17,-3.5 24.7,-7.4 3.2,-1.7 6.2,-4 9.2,-6 1.5,-1 1.9,-2.5 1.9,-4.3 -0.1,-11.9 -0.1,-23.7 -0.1,-35.6 0.1,-3.4 0.1,-6.8 0.1,-10.2 z m -0.6,-152.7 c -4.8,3 -9.3,4.4 -13.9,5.5 -11.4,2.6 -22.9,3.6 -34.5,4.2 -16.6,0.9 -33.2,0.8 -49.7,-0.7 -7.9,-0.7 -15.7,-1.9 -23.5,-3.2 -5,-0.8 -9.8,-2.4 -14.5,-5.3 0,1.6 0,2.7 0,3.8 0,13.6 0.1,27.2 -0.1,40.9 -0.1,3.8 1.4,6.3 4.6,7.8 3.3,1.6 6.7,3 10.2,4.1 10.5,3 21.3,4.2 32.2,4.9 19.8,1.4 39.5,1 59.1,-1.8 7.4,-1.1 14.8,-2.4 21.7,-5.5 2.1,-0.9 4.1,-2.2 5.9,-3.5 1.9,-1.3 2.7,-3.3 2.7,-5.7 -0.1,-12.2 -0.1,-24.3 -0.1,-36.5 -0.1,-2.8 -0.1,-5.5 -0.1,-9 z m -135.9,204.6 c -0.1,1.1 -0.2,1.6 -0.2,2 0,15.5 0,31 0,46.5 0,1.7 0.4,3.1 1.5,4.3 1.4,1.4 2.8,2.8 4.4,4 3.6,2.6 7.8,4.2 12,5.5 10.5,3.2 21.2,4.7 32.1,4.9 9.2,0.2 18.4,0 27.5,-0.5 12.2,-0.7 24.1,-2.8 35.8,-6.4 7.6,-2.3 14.9,-5.3 21.2,-10.2 1.6,-1.3 2.4,-2.6 2.3,-4.7 -0.1,-14.8 -0.1,-29.5 -0.2,-44.3 0,-0.7 -0.2,-1.3 -0.2,-2 -2.7,1.8 -5.2,3.7 -7.8,5.2 -5,2.9 -10.5,4.8 -16.2,6.3 -12.5,3.3 -25.3,4.7 -38.2,5.2 -15.8,0.6 -31.5,-0.2 -46.9,-3.5 -9.5,-2.1 -19.1,-4.7 -27.1,-12.3 z m -0.2,-256.4 c -0.1,0.6 -0.2,0.9 -0.2,1.2 0,15.6 0.1,31.2 0,46.8 0,2 0.8,3.3 2.4,4 3.4,1.4 6.8,2.9 10.3,3.8 11.7,2.9 23.7,3.8 35.8,4.4 12.3,0.6 24.7,0.6 37,0 11.4,-0.5 22.8,-1.4 34,-3.7 4.6,-0.9 9,-2 13.2,-4.2 2.3,-1.2 3.5,-2.8 3.5,-5.7 -0.2,-14.9 -0.2,-29.7 -0.3,-44.6 0,-0.7 -0.2,-1.3 -0.3,-2.3 -4.4,2.7 -8.9,4.1 -13.5,5.1 -12.3,2.7 -24.8,3.7 -37.4,4.3 -14.6,0.6 -29.1,0.6 -43.7,-0.7 -13.8,-1.1 -27.7,-2.2 -40.8,-8.4 z m 136.2,103.1 c -0.6,0.2 -1,0.3 -1.3,0.5 -3.1,2.7 -6.7,4.3 -10.5,5.6 -7.2,2.4 -14.7,3.7 -22.3,4.7 -12.9,1.6 -25.9,2.1 -38.9,1.9 -14.8,-0.3 -29.5,-1.2 -44,-4.4 -6.1,-1.3 -12.1,-2.9 -17.3,-6.5 -0.5,-0.4 -1.2,-0.7 -2,-1.2 0,1.5 0,2.7 0,3.8 0,13.5 0.2,27 0,40.5 -0.1,3.7 1.3,6.1 4.3,7.6 3.7,1.9 7.5,3.8 11.5,5 13.3,4.1 27.1,5.5 40.9,6.2 15.4,0.7 30.8,0.5 46.1,-1.7 8.3,-1.2 16.5,-2.7 24.1,-6.2 2.6,-1.2 5,-3 7.4,-4.7 1.6,-1.2 2.2,-2.9 2.2,-4.9 -0.1,-10.7 -0.1,-21.4 -0.1,-32.1 -0.1,-4.6 -0.1,-9.2 -0.1,-14.1 z m 0,51.3 c -4,3.7 -8.1,5.8 -12.6,7.3 -6.6,2.3 -13.4,3.7 -20.3,4.7 -12.8,1.8 -25.6,2.3 -38.5,2.1 -14.4,-0.3 -28.7,-1.4 -42.7,-4.6 -7.6,-1.7 -15.1,-3.9 -21.4,-8.9 -0.1,-0.1 -0.4,0.1 -0.7,0.2 0,0.9 0,1.8 0,2.7 0,13.4 0.1,26.8 -0.1,40.2 0,2.7 0.9,4.8 3,6.1 3.2,2 6.5,3.9 10,5.2 7.7,3 15.8,4.5 24,5.6 21.9,2.9 43.8,3.1 65.7,0.1 7.7,-1.1 15.4,-2.5 22.6,-5.7 3,-1.3 5.9,-3.2 8.7,-5.1 2.1,-1.4 2.9,-3.5 2.9,-6.2 -0.2,-13.7 -0.2,-27.4 -0.3,-41.2 -0.1,-0.6 -0.2,-1.2 -0.3,-2.5 z m -0.5,-157.1 c -1.4,-1.8 -3.2,-2.7 -5.1,-3.2 -5,-1.4 -10,-2.8 -15,-3.7 -13.9,-2.3 -27.9,-3 -42,-3.1 -17.8,-0.1 -35.5,0.6 -53,3.6 -5.2,0.9 -10.4,2.1 -15.2,4.3 -1.6,0.7 -3.2,1.4 -4.4,3.3 1.1,0.6 2,1.3 3.1,1.7 2.5,0.9 4.9,1.9 7.5,2.6 9.3,2.5 18.9,3.6 28.5,4.2 24,1.6 47.9,1.6 71.8,-1.7 6.2,-0.9 12.3,-2 18.1,-4.3 2,-0.8 4.1,-1.8 5.7,-3.7 z m -135.1,-104.9 c 0,0.3 0.1,0.7 0.1,1 1.7,0.7 3.4,1.7 5.2,2.1 4.5,1.1 9,2.3 13.6,3 19.5,2.8 39.1,3.4 58.8,2.9 13,-0.4 26,-1 38.8,-3.5 4.6,-0.9 9.2,-2.4 13.7,-3.8 1.6,-0.5 3.2,-1.4 4.5,-3.2 -1.8,-0.8 -3.2,-1.8 -4.8,-2.2 -3.4,-1 -6.9,-2 -10.4,-2.6 -13.3,-2.3 -26.7,-2.8 -40.1,-2.9 -18.1,-0.2 -36.1,0.5 -54.1,3 -6.4,0.9 -12.6,2.3 -18.9,3.7 -2.3,0.5 -4.3,1.7 -6.4,2.5 z"
     id="path221"
     style="stroke:#000000;stroke-miterlimit:10" /><path
     class="st1"
     d="m 1006.6089,446.94694 c 0,20.2 0,40.2 0,60.6 21.8,9.7 44.6,15.6 68.4,16.9 32.8,1.9 64,-4.8 93.9,-18.2 0,-19.7 0,-39.4 0,-58.8 0.3,-0.3 0.3,-0.3 0.4,-0.4 0.1,-0.1 0.2,-0.2 0.2,-0.2 95.3,-0.1 190.6,-0.1 285.9,-0.2 0.9,0 1.9,0 2.7,0 0.7,2.5 0.9,105.2 0.3,109.8 -255.3,0 -510.70001,0 -766.00001,0 -0.6,-2.1 -0.9,-104 -0.3,-109.3 2.4,-0.6 308.50001,-0.8 314.50001,-0.2 z"
     id="path223"
     style="fill:#333333;stroke:#000000;stroke-miterlimit:10" /><path
     class="st1"
     d="m 1008.3089,445.04694 c 0,-2.1 0,-4.1 0,-6 0,-15 0,-30 0,-44.9 0,-24.9 0.1,-49.7 0,-74.6 0,-4.2 1.7,-6.7 5,-8.6 1.5,-0.9 3.2,-1.4 5.1,-2.2 0.2,0.8 0.4,1.3 0.3,1.8 -0.4,3 1,5.2 3,7.2 2.6,2.7 5.8,4.5 9.2,6 7.6,3.3 15.6,5.1 23.8,6.1 23.3,2.9 46.4,2 69.3,-3 8.2,-1.8 16.1,-4.2 23.6,-8.1 2.7,-1.4 5.2,-3.1 7.7,-4.9 1.7,-1.2 3.5,-2.4 3.1,-5.1 2.6,0.2 4.6,0.9 6.5,2.1 1.6,1 2.5,2.5 2.6,4.4 0.1,1.2 0.1,2.5 0.1,3.7 0,35.8 0,71.6 0.1,107.3 0,6.1 0,12.3 0,18.4 -2.4,0.9 -154.7,1.1 -159.4,0.4 z"
     id="path225"
     style="fill:#333333;stroke:#000000;stroke-miterlimit:10" /><path
     class="st2"
     d="m 1020.1089,-98.95306 c 11.9,4.9 24.2,5.9 36.5,6.9 13.6,1.1 27.2,1.5 40.8,1 13.3,-0.4 26.6,-1.1 39.7,-3.5 6.1,-1.1 12.2,-2.5 18.1,-5.9 0.4,11.5 0.2,22.7 0.3,33.8 0.1,11.2 0.1,22.5 0.1,33.7 0,11.2 0,22.4 0,33.4 -4.4,-1.4 -8.6,-2.9 -13,-3.9 -9.6,-2.3 -19.4,-3.1 -29.2,-3.7 -15.6,-1 -31.2,-1 -46.9,0 -10.7,0.7 -21.5,1.7 -32,4.1 -5,1.2 -9.9,2.7 -14.5,5.9 0.1,-34 0.1,-67.7 0.1,-101.8 z"
     id="path227"
     style="fill:#f2f2f2;stroke:#000000;stroke-miterlimit:10" /><path
     class="st1"
     d="m 1008.1089,448.94694 c 0,-0.6 0.1,-1.2 0.2,-2 52.9,0 105.8,0 158.7,0 0.7,2.2 1.1,47.8 0.5,58.4 -0.5,0.3 -1,0.5 -1.5,0.7 -18.3,8 -37.2,13.5 -57,16 -28.1,3.5 -55.6,0.6 -82.5,-8.3 -5.4,-1.8 -10.7,-4 -16,-5.9 -1.7,-0.6 -2.5,-1.4 -2.5,-3.4"
     id="path229"
     style="fill:#333333;stroke:#000000;stroke-miterlimit:10" /><path
     class="st3"
     d="m 1156.7089,210.74694 c 0,3.4 0,6.8 0,10.2 0,11.9 0,23.7 0.1,35.6 0,1.8 -0.4,3.3 -1.9,4.3 -3,2.1 -5.9,4.4 -9.2,6 -7.8,4 -16.2,5.9 -24.7,7.4 -19,3.3 -38,3.7 -57.1,1.8 -10.4,-1 -20.7,-2.8 -30.5,-6.7 -3.7,-1.5 -7.3,-3.3 -10.3,-6 -2,-1.8 -3.1,-3.9 -3.1,-6.8 0.1,-14.1 0,-28.3 0,-42.4 0,-1.1 0,-2.3 0,-3.5 0.4,0 0.8,-0.1 1,0 4.5,3.9 9.9,5.9 15.5,7.6 10,3 20.4,4.5 30.8,5.5 12.5,1.1 25.1,1.3 37.7,0.6 11.3,-0.6 22.5,-1.9 33.4,-4.9 6.3,-1.8 12.5,-4 17.4,-8.6 0,-0.1 0.3,0 0.9,-0.1 z"
     id="path231"
     style="fill:#cccccc;stroke:#000000;stroke-miterlimit:10" /><path
     class="st4"
     d="m 1156.1089,58.04694 c 0,3.5 0,6.3 0,9 0,12.2 0,24.3 0.1,36.5 0,2.4 -0.8,4.3 -2.7,5.7 -1.9,1.3 -3.8,2.6 -5.9,3.5 -6.9,3.1 -14.3,4.4 -21.7,5.5 -19.6,2.8 -39.4,3.1 -59.1,1.8 -10.9,-0.7 -21.7,-1.9 -32.2,-4.9 -3.5,-1 -6.9,-2.5 -10.2,-4.1 -3.2,-1.5 -4.6,-4 -4.6,-7.8 0.2,-13.6 0.1,-27.2 0.1,-40.9 0,-1.1 0,-2.2 0,-3.8 4.8,2.9 9.6,4.5 14.5,5.3 7.8,1.3 15.6,2.5 23.5,3.2 16.5,1.5 33.1,1.6 49.7,0.7 11.6,-0.6 23.2,-1.6 34.5,-4.2 4.7,-1.1 9.2,-2.5 14,-5.5 z"
     id="path233"
     style="fill:#4d4d4d;fill-opacity:1;stroke:#000000;stroke-miterlimit:10" /><path
     class="st5"
     d="m 1020.2089,262.64694 c 8,7.6 17.5,10.2 27.3,12.3 15.5,3.2 31.2,4.1 46.9,3.5 12.9,-0.5 25.7,-1.9 38.2,-5.2 5.6,-1.5 11.1,-3.3 16.2,-6.3 2.6,-1.5 5,-3.3 7.8,-5.2 0.1,0.7 0.2,1.4 0.2,2 0,14.8 0,29.5 0.2,44.3 0,2.1 -0.7,3.5 -2.3,4.7 -6.3,4.9 -13.6,7.9 -21.2,10.2 -11.6,3.6 -23.6,5.7 -35.8,6.4 -9.2,0.5 -18.4,0.7 -27.5,0.5 -10.9,-0.2 -21.7,-1.7 -32.1,-4.9 -4.3,-1.3 -8.4,-2.9 -12,-5.5 -1.6,-1.2 -3,-2.6 -4.4,-4 -1.1,-1.2 -1.5,-2.6 -1.5,-4.3 0,-15.5 0,-31 0,-46.5 -0.1,-0.5 -0.1,-0.9 0,-2 z"
     id="path235"
     style="fill:#4d4d4d;stroke:#000000;stroke-miterlimit:10" /><path
     class="st5"
     d="m 1020.0089,6.24694 c 13.1,6.2 27,7.3 40.8,8.4 14.5,1.2 29.1,1.3 43.7,0.7 12.6,-0.5 25.1,-1.5 37.4,-4.3 4.6,-1 9.1,-2.4 13.5,-5.1 0.1,1 0.3,1.6 0.3,2.3 0.1,14.9 0.1,29.7 0.3,44.6 0,2.9 -1.2,4.5 -3.5,5.7 -4.1,2.2 -8.6,3.3 -13.2,4.2 -11.2,2.3 -22.6,3.2 -34,3.7 -12.3,0.6 -24.7,0.6 -37,0 -12,-0.6 -24,-1.5 -35.8,-4.4 -3.5,-0.9 -6.9,-2.4 -10.3,-3.8 -1.6,-0.7 -2.4,-2 -2.4,-4 0.1,-15.6 0,-31.2 0,-46.8 0.1,-0.3 0.1,-0.6 0.2,-1.2 z"
     id="path237"
     style="fill:#cccccc;fill-opacity:1;stroke:#000000;stroke-miterlimit:10" /><path
     class="st4"
     d="m 1156.2089,109.34694 c 0,4.9 0,9.5 0,14 0,10.7 0,21.4 0.1,32.1 0,2.1 -0.5,3.8 -2.2,4.9 -2.4,1.7 -4.8,3.5 -7.4,4.7 -7.6,3.5 -15.8,5 -24.1,6.2 -15.3,2.2 -30.7,2.5 -46.1,1.7 -13.8,-0.7 -27.6,-2 -40.9,-6.2 -4,-1.2 -7.8,-3.1 -11.5,-5 -3,-1.5 -4.3,-4 -4.3,-7.6 0.2,-13.5 0.1,-27 0,-40.5 0,-1.1 0,-2.3 0,-3.8 0.9,0.5 1.5,0.8 2,1.2 5.2,3.6 11.2,5.2 17.3,6.5 14.5,3.2 29.2,4.1 44,4.4 13,0.2 26,-0.3 38.9,-1.9 7.5,-0.9 15,-2.3 22.3,-4.7 3.8,-1.3 7.5,-2.9 10.5,-5.6 0.4,-0.1 0.8,-0.1 1.4,-0.4 z"
     id="path239"
     style="fill:#cccccc;fill-opacity:1;stroke:#000000;stroke-miterlimit:10" /><path
     class="st3"
     d="m 1156.2089,160.64694 c 0.1,1.3 0.1,1.9 0.2,2.6 0.1,13.7 0.1,27.4 0.3,41.2 0,2.7 -0.7,4.8 -2.9,6.2 -2.8,1.9 -5.6,3.7 -8.7,5.1 -7.2,3.2 -14.9,4.6 -22.6,5.7 -21.9,3 -43.8,2.8 -65.7,-0.1 -8.2,-1.1 -16.3,-2.5 -24,-5.6 -3.5,-1.4 -6.8,-3.3 -10,-5.2 -2.1,-1.3 -3,-3.4 -3,-6.1 0.2,-13.4 0.1,-26.8 0.1,-40.2 0,-0.9 0,-1.9 0,-2.7 0.3,-0.1 0.6,-0.2 0.7,-0.2 6.2,5.1 13.7,7.2 21.4,8.9 14,3.2 28.3,4.4 42.7,4.6 12.9,0.2 25.8,-0.2 38.5,-2.1 6.9,-1 13.7,-2.4 20.3,-4.7 4.6,-1.6 8.8,-3.7 12.7,-7.4 z"
     id="path241"
     style="fill:#4d4d4d;fill-opacity:1;stroke:#000000;stroke-miterlimit:10" /><path
     class="st5"
     d="m 1155.7089,3.54694 c -1.6,1.9 -3.7,2.9 -5.8,3.7 -5.8,2.3 -11.9,3.5 -18.1,4.3 -23.9,3.3 -47.8,3.3 -71.8,1.7 -9.6,-0.6 -19.1,-1.8 -28.5,-4.2 -2.5,-0.7 -5,-1.6 -7.5,-2.6 -1,-0.4 -2,-1.1 -3.1,-1.7 1.2,-1.9 2.8,-2.5 4.4,-3.3 4.8,-2.2 10,-3.4 15.2,-4.3 17.5,-3 35.3,-3.8 53,-3.6 14.1,0.1 28.1,0.7 42,3.1 5.1,0.9 10.1,2.3 15,3.7 2,0.5 3.8,1.4 5.2,3.2 z"
     id="path243"
     style="fill:#cccccc;fill-opacity:1;stroke:#000000;stroke-miterlimit:10" /><path
     class="st2"
     d="m 1020.6089,-101.35306 c 2.1,-0.9 4.1,-2 6.3,-2.5 6.3,-1.4 12.6,-2.9 18.9,-3.7 17.9,-2.4 36,-3.1 54.1,-3 13.4,0.1 26.8,0.6 40.1,2.9 3.5,0.6 7,1.6 10.4,2.6 1.6,0.5 3,1.4 4.8,2.2 -1.2,1.9 -2.8,2.7 -4.5,3.2 -4.5,1.4 -9,2.9 -13.7,3.8 -12.8,2.5 -25.8,3.1 -38.8,3.5 -19.7,0.6 -39.3,-0.1 -58.8,-2.9 -4.6,-0.7 -9.1,-1.9 -13.6,-3 -1.8,-0.5 -3.5,-1.4 -5.2,-2.1 0.1,-0.3 0,-0.7 0,-1 z"
     id="path245"
     style="fill:#f2f2f2;stroke:#000000;stroke-miterlimit:10" /><rect
     x="1008.8089"
     y="442.24692"
     class="st6"
     width="158.10001"
     height="11.2"
     id="rect247"
     style="fill:#333333" /></g></svg>
