<?xml version="1.0" encoding="utf-8"?>
<!-- Generator: Adobe Illustrator 26.3.1, SVG Export Plug-In . SVG Version: 6.00 Build 0)  -->
<svg version="1.1" id="Ebene_1" xmlns="http://www.w3.org/2000/svg" xmlns:xlink="http://www.w3.org/1999/xlink" x="0px" y="0px"
	 viewBox="0 0 1024 768" style="enable-background:new 0 0 1024 768;" xml:space="preserve">
<style type="text/css">
	.st0{fill:#B3B3B3;}
	.st1{fill:#CCCCCC;}
	.st2{fill:#FFC164;}
	.st3{fill:#29ABE2;}
	.st4{fill:#666666;}
	.st5{fill:#E6E6E6;}
	.st6{fill:#808080;}
	.st7{fill:#999999;}
	.st8{fill:#FFFFFF;}
	.st9{fill:#0000FF;}
</style>
<g>
	<path d="M53.69,456.34c0.32-2.29,0.79-4.57,0.95-6.87c1.07-15.85,3.05-31.56,7.46-46.86c7.61-26.39,21.16-49.23,41.29-68.03
		c1.34-1.26,1.87-2.48,1.86-4.31c-0.17-22.37-0.26-44.73-0.37-67.1c0-0.99,0-1.98,0-3.31c7.51-0.11,14.8-0.21,22.37-0.32
		c0.03-1.62,0.09-3.1,0.08-4.57c-0.01-14.27,0.01-28.54-0.05-42.82c-0.06-14.95,0.31-29.88,1.63-44.77
		c1.4-15.71,3.07-31.38,6.92-46.72c2.1-8.35,4.74-16.53,8.58-24.25c3.09-6.21,6.7-12.12,11.12-17.48c1.48-1.79,3.13-3.48,4.89-5.01
		c6.43-5.62,13.75-6.83,21.72-3.97c7.85,2.81,14,7.98,19.31,14.25c5.89,6.96,10.14,14.89,13.5,23.29c2.63,6.58,4.95,13.27,7.5,20.14
		c0.45,0.11,1.15,0.27,1.94,0.45c2.59,30.16,5.17,60.31,7.76,90.5c-0.77,0.26-1.37,0.46-2.02,0.67c0.26,6.61,0.36,13.12,0.86,19.6
		c0.15,1.94,1.41,3.78,1.58,5.85c0.11,1.37,0.46,2.72,0.78,4.51c0.5-0.67,0.77-0.95,0.93-1.28c6.33-12.79,12.39-25.7,16.5-39.42
		c4.59-15.29,8.03-30.84,9.83-46.69c1.42-12.6,2.52-25.23,3.52-37.87c1.4-17.63,2.59-35.28,3.85-52.92
		c0.4-5.58,0.69-11.16,1.07-16.74c0.18-2.73,0.93-5.24,3.07-7.14c1,0,2,0,3.01,0c3.3,1.75,4.97,4.49,5.2,8.21
		c0.34,5.5,0.69,10.99,1.19,16.47c0.84,9.22,1.8,18.43,2.72,27.64c0.95,9.55,1.9,19.09,2.85,28.64c0.03,0.33,0.09,0.65,0.17,1.19
		c1.54,0,3.07,0,4.96,0c2.5,30.24,4.98,60.29,7.48,90.48c-0.65,0.28-1.23,0.53-1.88,0.8c-0.03,0.29-0.12,0.62-0.11,0.95
		c0.2,6,0.38,12.01,0.64,18.01c0.03,0.75,0.52,1.47,0.77,2.22c0.21,0.62,0.44,1.25,0.55,1.89c0.72,4.36,1.4,8.73,2.11,13.09
		c0.08,0.49,0.25,0.96,0.44,1.71c31.92-0.21,63.85-0.42,96.15-0.63c0.21,27.05,0.41,53.86,0.62,80.97c-9.16,0-18.04,0-27.4,0
		c0.65,0.83,0.94,1.28,1.31,1.65c8.03,8.06,15.29,16.75,21.93,26c12.21,17.01,19.47,35.98,22.94,56.5c0.43,2.52,0.43,5.12,0.63,7.71
		c156.23,0,312.48,0,469.26,0c-3.38-4.4-4.2-8.86-2.32-13.84c-0.92-0.92-1.93-1.79-2.76-2.8c-1.69-2.05-3.55-4.03-4.88-6.31
		c-3.6-6.14-2.3-12.95,3.08-17.6c3.93-3.4,8.63-4.62,13.68-4.69c6.84-0.1,13.43,1.38,19.86,3.55c9.38,3.16,17.73,8.07,24.88,14.96
		c0.75,0.73,1.76,1.22,2.71,1.71c2.29,1.18,4.69,2.19,6.91,3.48c2.58,1.49,4.56,3.62,5.78,6.4c0.29,0.66,0.76,1.28,1.27,1.8
		c6.35,6.51,12.73,12.99,19.09,19.49c6.28,6.42,11.63,13.56,15.85,21.47c1.87,3.51,3.27,7.29,4.69,11.02
		c0.61,1.59,0.72,3.37,1.06,5.06c0,1.5,0,3,0,4.51c-0.34,2.29-0.66,4.59-1.02,6.87c-1.7,10.62-5.42,20.44-11.68,29.25
		c-0.82,1.16-1.64,2.33-2.56,3.4c-2.06,2.41-3.77,4.97-5.19,7.86c-1.75,3.59-4.36,6.7-7.58,9.1c1.88,6.02-1.58,10.91-8.21,12.09
		c-1.96,0.35-3.97,0.44-5.96,0.65c-0.41,1.65,0.8,52.18,1.37,56.28c0.49,0.12,1.03,0.26,1.88,0.48c0.27,9.64,0.55,19.37,0.83,29.4
		c-1.46,0.14-2.81,0.28-4.37,0.43c0,1.38-0.01,2.69,0,4.01c0.01,1.42,0.01,2.84,0.07,4.25c0.12,3.23-0.11,6.35-2.41,8.62
		c1.28,0.75,2.84,1.16,3.48,2.16c0.79,1.24,1.09,2.97,1.13,4.49c0.05,2.07-1.06,2.95-3.17,3c-8.34,0.19-16.69,0.37-25.03,0.55
		c-0.33,0.01-0.67,0-1-0.01c-4.12-0.2-6.22-4.17-4.07-7.71c0.78-1.29,1.58-1.67,4.48-2.08c-0.27-0.45-0.48-0.87-0.76-1.23
		c-1.24-1.66-1.85-3.52-1.92-5.58c-0.11-3.33-0.26-6.65-0.4-10.14c-0.96-0.12-1.92-0.23-3.12-0.38c-0.09-2.02-0.22-3.99-0.25-5.96
		c-0.11-7.26-0.19-14.52-0.27-21.78c-0.01-0.96-0.3-2.01,1.17-2.36c0.31-0.07,0.55-1.1,0.57-1.69c0.09-2.67,0.1-5.34,0.12-8.01
		c0.1-15.02,0.2-30.04,0.3-45.06c0-0.49-0.05-0.98-0.09-1.6c-1.54-0.21-3.01-0.38-4.47-0.61c-6.7-1.08-11.28-4.8-13.53-11.18
		c-0.77-2.18-1.08-4.52-1.53-6.81c-0.21-1.05-0.24-2.13-0.38-3.49c-161.15-0.16-322.16-0.09-483.43,0.28
		c-0.36,2.09-0.71,4.11-1.05,6.13c-2.96,17.41-9.39,33.4-20.18,47.42c-12.04,15.65-26.97,27.86-44.88,36.39
		c-11.2,5.34-22.83,9.33-34.98,11.82c-0.31,0.06-0.62,0.19-1.17,0.37c0.12,17.73,0.56,35.45,1.08,53.44
		c7.51-0.16,14.81-0.31,22.35-0.47c0.17-1.92,0.34-3.64,0.48-5.36c0.21-2.49,0.36-4.99,0.6-7.48c0.09-0.91,0.29-1.81,0.54-2.69
		c0.66-2.34,2.17-3.68,4.67-3.8c3.25-0.16,6.5-0.46,9.75-0.5c4.09-0.05,8.18,0.09,12.27,0.18c0.92,0.02,1.84,0.09,2.74,0.21
		c3.77,0.47,5.67,2.33,6.04,6.14c0.23,2.4,0.2,4.83,0.29,7.25c0.07,1.9,0.14,3.79,0.21,5.86c16.77,0,33.34,0,50.24,0
		c0,0.98,0.06,1.78-0.01,2.57c-0.13,1.47-0.46,2.94-0.48,4.41c-0.06,5.34-0.06,10.68,0,16.02c0.02,1.34-0.35,2.36-1.28,3.34
		c-6.13,6.5-12.22,13.02-18.29,19.58c-0.81,0.88-1.64,1.22-2.82,1.22c-18.2-0.1-36.4-0.17-54.6-0.25
		c-6.34-0.03-12.69-0.07-19.03-0.1c-13.86-0.07-27.72-0.13-41.57-0.19c-0.74,0-1.48,0-2.49,0c-0.08-3.19-0.17-6.17-0.21-9.15
		c-0.05-3.34,0.01-6.68-0.09-10.01c-0.04-1.21,0.33-2.01,1.28-2.76c2.16-1.7,4.25-3.51,6.35-5.29c0.54-0.46,1.03-0.98,1.92-1.83
		c-2.39,0-4.27-0.02-6.15,0c-24.46,0.36-48.91,0.71-73.37,1.08c-3.59,0.05-7.18,0.22-10.76,0.2c-1.31-0.01-2.17,0.45-3,1.4
		c-3.13,3.58-6.31,7.13-9.5,10.65c-3.25,3.58-6.59,7.09-9.79,10.71c-0.99,1.11-2.02,1.47-3.47,1.46
		c-16.03-0.08-32.06-0.1-48.09-0.15c-15.36-0.04-30.72-0.08-46.09-0.14c-7.01-0.03-14.02-0.12-21.04-0.19
		c-0.65-0.01-1.29-0.1-2.06-0.16c-0.05-0.76-0.13-1.41-0.14-2.06c-0.05-5.67-0.06-11.35-0.16-17.02c-0.02-1.11,0.33-1.76,1.21-2.48
		c8.07-6.61,16.08-13.3,24.1-19.97c0.26-0.21,0.54-0.4,0.89-0.66c-0.51-0.94-0.95-1.73-1.38-2.52c-7.8-14.34-10.79-29.68-9.35-45.89
		c1.59-17.9,8.22-33.91,18.42-48.56c0.57-0.81,1.13-1.63,1.75-2.52c-0.6-0.68-1.13-1.31-1.69-1.91
		c-13.94-14.92-24.67-31.85-32.45-50.75c-5.45-13.24-8.53-26.98-10-41.14c-0.3-2.9-0.54-5.81-0.86-8.71
		c-0.1-0.89-0.37-1.76-0.56-2.64C53.69,470.03,53.69,463.18,53.69,456.34z M916.51,442.26c0.04-0.15,0.08-0.3,0.12-0.45
		c-1.28-0.5-2.54-1.07-3.84-1.49c-5.79-1.86-11.63-3.59-17.39-5.56c-1.85-0.64-3.64-1.01-5.59-1c-9.68,0.05-19.37,0.04-29.05,0.05
		c-36.9,0.03-73.8,0.06-110.71,0.1c-25.55,0.02-51.09,0.06-76.64,0.08c-72.55,0.04-145.1,0.08-217.65,0.11
		c-14.85,0.01-29.71,0-44.56,0c-75.56,0-151.12,0-226.67,0c-0.83,0-1.67-0.03-2.5,0.01c-0.63,0.03-1.27,0.14-2.07,0.24
		c-0.12,29.72-0.63,59.28-0.55,88.92c0.76,0.05,1.16,0.11,1.57,0.11c5.26-0.01,10.52-0.01,15.78-0.08c0.98-0.01,1.98-0.27,2.92-0.56
		c5.12-1.52,10.2-3.13,15.33-4.61c11.43-3.3,23-5.43,35-5.2c15.32,0.29,30.51,1.32,45.33,5.54c4.25,1.21,8.6,2.19,12.68,3.83
		c2.28,0.92,4.45,1.08,6.76,1.08c9.68-0.01,19.37-0.03,29.05-0.06c24.79-0.06,49.59-0.13,74.38-0.18
		c14.28-0.03,28.55-0.06,42.83-0.08c16.53-0.02,33.06-0.04,49.59-0.05c20.37-0.02,40.74-0.03,61.11-0.04
		c32.89-0.01,65.79-0.04,98.68-0.03c76.23,0,152.45,0.02,228.68,0.03c0.95,0,1.9,0,2.85,0c-0.62-0.89-1.3-1.33-1.97-1.77
		c-5.11-3.31-10.23-6.58-14.7-10.79c-7.57-7.12-9.63-15.88-8.21-25.81c0.43-3.01,1.44-5.81,2.96-8.44
		c4.81-8.3,12.3-12.42,21.53-13.8c2.27-0.34,4.58-0.5,7.19-0.78c0-3.57-0.02-6.99,0.01-10.4c0.01-1.33,0-2.69,0.22-3.99
		c0.48-2.74,1.88-4.04,4.63-4.5C914.57,442.52,915.54,442.4,916.51,442.26z M414.79,430.88c0.58-4.17-0.17-7.85-0.9-11.52
		c-3.34-16.87-9.45-32.6-19.04-46.96c-11.78-17.64-25.98-32.99-42.73-46.01c-14.29-11.11-29.69-20.04-47.14-25.25
		c-16.07-4.8-32.49-7.46-49.19-8.59c-17.62-1.19-35.19-0.8-52.73,1.43c-19.84,2.52-38.89,7.8-57.09,16.08
		c-16.26,7.4-30.81,17.4-43.51,29.91c-21.92,21.58-34.82,48.02-40.73,77.97c-4.04,20.47-5.35,41.18-4.08,62.02
		c0.82,13.44,3.06,26.6,7.31,39.46c7.22,21.84,18.8,41.01,34.34,57.86c0.6,0.66,1.27,1.26,2.21,2.18c0.33-0.53,0.5-0.92,0.77-1.23
		c5.14-6.05,10.67-11.71,16.63-16.96c8.25-7.27,17.22-13.44,27.21-18.09c12.71-5.92,25.75-11.03,38.97-15.67
		c0.58-0.2,1.13-0.48,1.69-0.73c-0.03-0.12-0.06-0.23-0.09-0.35c-3.41,0-6.81,0-10.53,0c0.34-31.88,0.23-63.61,0.78-95.54
		C256.38,430.88,335.49,430.88,414.79,430.88z M416.21,526.38c-1.28,0-2.18,0-3.08,0c-12.69,0.01-25.38,0.03-38.07,0.04
		c-31.81,0.03-63.61,0.04-95.42,0.08c-17.2,0.02-34.39,0.07-51.59,0.16c-2.15,0.01-4.34,0.18-6.42,0.66
		c-10.89,2.52-21.59,5.72-32.17,9.32c-19.24,6.55-37.16,15.69-53.67,27.53c-8.77,6.29-16.88,13.36-23.75,21.75
		c-0.46,0.56-0.85,1.17-1.46,2.01c5.42,4.18,10.62,8.36,16,12.3c10.6,7.77,21.8,14.56,34.28,18.88c6.45,2.23,13.07,3.99,19.67,5.75
		c4.09,1.09,3.41,1.39,3.42,4.55c0.03,20.19,0.03,40.39,0.05,60.58c0,0.85,0.05,1.71,0.1,3.03c18.44-10.02,31.25-24.98,42.55-41.15
		c-4.04-8.58-3.74-16.6,1.59-23.99c3.21-4.45,7.62-7.7,13.01-9.31c1.59-0.47,3.24-0.86,4.89-0.96c9.82-0.56,18.86,5.44,23.1,14.5
		c5.02,10.71-2.15,27.42-17.51,27.6c-4.46,0.05-8.81-0.35-13.13-1.87c-2.51,2.9-4.9,5.78-7.42,8.54c-2.53,2.77-5.15,5.46-7.8,8.12
		c-2.71,2.72-5.44,5.42-8.27,8.01c-2.77,2.53-5.64,4.96-8.57,7.31c-2.87,2.3-5.86,4.45-9.05,6.85c4.75,0.56,115.92-1.16,117.97-1.78
		c0-0.4,0.01-0.82,0-1.24c-0.42-18.1-0.86-36.2-1.26-54.3c-0.09-3.84-0.08-7.68-0.06-11.51c0.01-1.87,0.28-2.14,2.03-2.57
		c0.32-0.08,0.66-0.1,0.99-0.17c15.84-3.16,30.78-8.73,44.67-16.98c15.01-8.9,27.54-20.53,37.32-34.97
		c7.91-11.68,12.92-24.62,15.7-38.43C415.38,532.07,415.73,529.37,416.21,526.38z M108.59,329.38c0.19,0.04,0.39,0.09,0.58,0.13
		c1.3-1.04,2.59-2.09,3.89-3.12c15.76-12.48,33.5-21.15,52.53-27.36c21.7-7.08,44.04-10,66.78-10.26c17.81-0.2,35.54,0.93,53.06,4.3
		c13.56,2.6,26.76,6.35,39.25,12.37c15.31,7.38,28.96,17.17,41.44,28.64c1.26,1.16,2.5,1.67,4.21,1.65
		c7.51-0.08,15.03-0.03,22.54-0.04c0.81,0,1.62-0.07,2.68-0.12c-0.17-24.9-0.34-49.62-0.51-74.57c-1.59,0-2.83-0.01-4.06,0
		c-19.45,0.15-38.9,0.31-58.35,0.45c-21.62,0.16-43.24,0.3-64.86,0.44c-29.38,0.19-58.77,0.38-88.15,0.56
		c-22.54,0.15-45.08,0.29-67.62,0.44c-1.15,0.01-2.29,0-3.42,0C108.59,285.29,108.59,307.33,108.59,329.38z M209.83,128.17
		c-3.73-11.16-8.28-21.5-14.01-31.35c-3.25-5.6-7.68-9.76-13.12-13.06c-3.71-2.25-7.47-2.46-11.12-0.24
		c-2.47,1.5-4.83,3.3-6.89,5.32c-4.59,4.5-7.61,10.09-10.25,15.89c-4,8.8-5.91,18.22-7.94,27.57c-2.19,10.11-3.23,20.42-4.03,30.73
		c-1.11,14.39-1.51,28.82-1.24,43.25c0.32,17.09,0.78,34.19,1.18,51.28c0.01,0.63,0.15,1.25,0.24,2.03
		c20.7-0.16,41.19-0.32,61.68-0.48c1.96-5.64,3.82-10.98,5.65-16.35c0.21-0.62,0.31-1.31,0.29-1.96c-0.22-6.33-0.47-12.67-0.73-19
		c-0.02-0.48-0.04-1.28-0.29-1.39c-1.73-0.73-1.16-2.2-1.16-3.41c0.02-14.1,0.09-28.19,0.14-42.29c0.04-10.18,0.07-20.35,0.11-30.53
		c0.02-4.59,0.06-9.18,0.05-13.76C208.4,129.36,208.42,128.39,209.83,128.17z M180.7,628.45c-0.37-0.17-0.58-0.29-0.81-0.36
		c-0.64-0.18-1.28-0.36-1.93-0.51c-15.53-3.47-30.04-9.34-43.41-18.02c-8.27-5.36-16.18-11.21-23.75-17.52
		c-0.67-0.56-1.38-1.09-2.25-1.78c-1.84,2.84-3.66,5.33-5.17,8c-3.71,6.58-6.12,13.68-7.87,21c-3.06,12.82-4,25.68-0.74,38.62
		c1.76,7,4.4,13.61,8.35,19.8c4.83,0.01,9.62-0.01,14.52-0.35c0.08-1.49,0.1-2.65,0.21-3.81c0.26-2.82,0.39-5.66,0.87-8.45
		c0.65-3.77,1.83-4.85,5.57-5.24c7.99-0.84,16.01-0.4,24-0.05c3.81,0.16,5.72,2.2,6.13,6.02c0.29,2.73,0.27,5.49,0.39,8.24
		c0.04,1.05,0.08,2.1,0.11,3.05c8.8,0,17.26,0,25.79,0C180.7,660.72,180.7,644.57,180.7,628.45z M946.7,539.08
		c6.52,0.03,12.14-1.35,17.25-4.44c7.86-4.75,11.76-12.09,12-20.98c0.23-8.65-3.08-16.42-8.22-23.37c-0.44-0.59-1.01-1.12-1.61-1.57
		c-7.81-5.79-16.4-8.43-26.1-6.23c-4.32,0.98-8.47,2.26-11.87,5.46c-9.28,8.77-11.84,19.35-8.89,31.5
		c1.73,7.11,5.76,12.55,12.34,15.85C936.49,537.77,941.69,539.24,946.7,539.08z M299.44,523.42c0.02-0.12,0.04-0.24,0.06-0.37
		c-0.69-0.22-1.37-0.47-2.07-0.67c-14.44-4.24-29.19-5.96-44.22-6.17c-10.17-0.14-20.17,0.54-30,3.08
		c-19.56,5.04-38.74,11.32-57.45,18.92c-8.26,3.35-16.5,6.87-24.36,11.03c-15.05,7.97-27.27,19.45-37.87,32.62
		c-7.92,9.84-13.8,20.86-17.56,32.94c-5.81,18.64-5.71,37.16,1.77,55.35c6.24,15.15,16.5,26.77,31.39,33.92
		c13.68,6.57,28.08,7.45,42.78,4.39c13.02-2.71,24.72-8.46,35.63-15.92c12.92-8.83,23.74-19.96,34.06-31.58
		c4.48-5.05,8.57-10.45,12.79-15.73c0.83-1.03,1.59-2.18,2.1-3.38c1.14-2.65-0.47-4.84-3.33-4.36c-1.41,0.23-2.94,0.91-3.97,1.87
		c-1.63,1.51-3.04,3.32-4.29,5.17c-2.24,3.31-4.2,6.81-6.44,10.12c-4.59,6.78-9.64,13.21-15.19,19.25
		c-9.81,10.68-21.02,19.44-34.49,25.13c-10.04,4.24-20.43,6.66-31.38,6.42c-19.51-0.42-34.88-8.69-46.01-24.59
		c-7.3-10.42-10.84-22.26-11.69-34.93c-0.49-7.29,0.2-14.49,1.48-21.66c3.12-17.45,10.27-32.82,22.83-45.57
		c10.2-10.35,21.56-19.13,34.12-26.45c13.6-7.92,27.68-14.74,42.7-19.47c12.87-4.05,25.7-8.2,39.16-10.15
		c15.33-2.22,30.63-3.95,46.13-2.66c6.89,0.57,13.79,1.22,20.45,3.28C297.48,523.51,298.49,523.37,299.44,523.42z M951.12,442.23
		c-0.81-5.24,0.27-10.05,1.05-14.91c0.33-2.05,0.41-4.15,0.41-6.23c0-3.69-1.64-6.61-4.66-8.67c-1.65-1.12-3.39-2.16-5.21-2.96
		c-8.12-3.54-16.54-6.21-25.2-8.09c-8.08-1.75-15.03,0.21-20.79,6.2c-1.5,1.56-3.22,2.94-4.57,4.62c-1.44,1.81-2.85,3.75-3.76,5.86
		c-2.2,5.11-0.45,9.69,4.59,12.1c3,1.43,6.15,2.57,9.3,3.63c4.27,1.43,8.61,2.63,12.9,3.98c2.58,0.81,4.89,2.06,6.13,4.47
		C931.26,442.23,941.01,442.23,951.12,442.23z M961.86,482.02c0.04-0.8,0.09-1.21,0.09-1.62c-0.01-9.26-0.02-18.52-0.06-27.78
		c-0.01-1.16-0.19-2.33-0.4-3.47c-0.26-1.38-0.96-2.6-2.29-3.09c-1.14-0.42-2.43-0.58-3.66-0.61c-3.09-0.07-6.18-0.01-9.26,0.01
		c-10.27,0.08-20.53,0.14-30.8,0.28c-2.89,0.04-3.45,0.64-3.57,3.6c-0.1,2.42-0.03,4.84-0.02,7.26c0,8.01-0.02,16.02,0.03,24.03
		c0.02,3.69,1.54,5.18,5.17,5.27c2.34,0.05,4.68-0.04,7.01,0.04c1.17,0.04,1.99-0.44,2.91-1.11c1.74-1.27,3.5-2.68,5.48-3.42
		c9.05-3.35,18.18-4.09,27.29-0.08C960.35,481.57,960.99,481.73,961.86,482.02z M139.27,259.44c0-0.89,0.01-1.47,0-2.05
		c-0.36-12.43-0.73-24.85-1.07-37.28c-0.73-26.72-0.24-53.4,3.69-79.9c1.52-10.23,3.33-20.38,6.93-30.15
		c3.23-8.78,7.28-17.06,13.89-23.8c2.02-2.06,4.37-3.91,6.85-5.38c4.83-2.86,9.81-2.79,14.73,0.05c5.3,3.05,9.66,6.99,12.96,12.22
		c6.46,10.23,11.21,21.22,15.16,32.59c0.29,0.84,0.62,1.68,0.97,2.61c1.86-0.11,3.57-0.2,5.47-0.31c-0.14-0.61-0.19-0.93-0.28-1.22
		c-3.13-9.42-6.39-18.79-11.01-27.62c-3.62-6.93-8.04-13.27-13.93-18.49c-4.17-3.7-8.86-6.51-14.22-8.14
		c-5.77-1.75-11.16-0.88-15.8,2.92c-2.62,2.14-5.02,4.66-7.13,7.32c-4.37,5.52-7.56,11.8-10.56,18.11
		c-3.49,7.33-5.75,15.11-7.56,23.01c-3.97,17.29-5.95,34.86-6.87,52.53c-0.7,13.49-0.85,27.02-1.01,40.53
		c-0.15,12.68,0.01,25.37,0.03,38.05c0,1.47,0,2.93,0,4.41C133.54,259.44,136.27,259.44,139.27,259.44z M404.79,725.24
		c0.65-2.79,0.74-14.14,0.14-16.3c-37.94,0.13-75.94,0.27-113.86,0.4c0,5.32,0,10.27,0,15.4
		C329.11,724.91,366.89,725.08,404.79,725.24z M273.01,258.67c1.7-5.22,3.31-10.12,4.9-15.04c0.13-0.39,0.16-0.82,0.15-1.23
		c-0.25-6.5-0.51-13-0.78-19.5c-0.02-0.4-0.04-1.08-0.24-1.15c-1.68-0.62-1.13-2.02-1.13-3.15c-0.01-5.59,0.06-11.18,0.08-16.77
		c0.04-14.18-0.04-28.37,0.15-42.55c0.14-10.12-0.47-20.25,0.49-30.39c0.39-4.05-0.71-8.23-1.17-12.76
		c-0.27,0.62-0.44,0.84-0.45,1.06c-0.12,1.91-0.24,3.83-0.3,5.74c-0.65,19.1-1.88,38.12-4.95,57.03
		c-4.34,26.71-12.25,52.21-24.54,76.34c-0.37,0.72-0.66,1.47-1.05,2.36C253.85,258.67,263.32,258.67,273.01,258.67z M922.17,489.44
		c-0.73-0.07-1.27-0.14-1.81-0.18c-1.75-0.13-3.51-0.14-5.24-0.39c-3.61-0.52-5.8-2.84-6.22-6.48c-0.13-1.16-0.13-2.33-0.16-3.5
		c-0.1-3.92-0.17-7.84-0.27-11.76c-0.02-0.7-0.14-1.4-0.22-2.22c-2.11,0.17-3.95,0.22-5.76,0.48c-5.55,0.78-10.7,2.49-14.93,6.39
		c-6.45,5.94-8.36,13.39-7.5,21.82c0.44,4.27,1.74,8.22,4.68,11.37c2.44,2.61,5.07,5.09,7.9,7.27c7.76,5.96,16.34,10.65,24.77,15.57
		c0.54,0.32,1.13,0.56,1.95,0.96C913.04,515.01,912.93,501.98,922.17,489.44z M294.16,705.73c0.1,0.16,0.19,0.33,0.29,0.49
		c0.58,0,1.16,0,1.74,0c30.22-0.12,60.44-0.25,90.66-0.37c5.84-0.02,11.69-0.06,17.53-0.04c1.25,0,2.17-0.31,3.01-1.34
		c4.99-6.16,10.06-12.25,15.1-18.38c0.33-0.41,0.58-0.89,1.08-1.68c-15.3,0.25-30.18-0.08-45.24,0.21c0,0.89-0.01,1.46,0,2.02
		c0.05,2.92,0.05,5.84,0.17,8.76c0.12,2.99-1.22,5.13-3.7,6.62c-0.99,0.6-2.06,1.13-3.17,1.47c-7.33,2.29-14.74,2.36-21.86-0.43
		c-8.38-3.28-9.83-7.71-9.51-14.09c0.07-1.38,0.01-2.76,0.01-4.4c-7.34,0.19-14.48,0.37-21.76,0.56c0,1.11-0.01,1.92,0,2.74
		c0.06,2.84,0.11,5.67,0.21,8.51c0.05,1.35-0.59,2.03-1.88,2.15c-0.75,0.07-1.5,0.11-2.25,0.12c-3.42,0.03-6.85,0.02-10.27,0.08
		c-0.73,0.01-1.64-0.02-2.15,0.38C299.46,701.24,296.82,703.51,294.16,705.73z M926.04,548.03c0,18.99,0,37.7,0,56.58
		c8.8-0.05,17.51,0.01,26.36-0.29c-0.53-18.99-1.05-37.62-1.58-56.29C942.48,548.03,934.48,548.03,926.04,548.03z M67.23,705.29
		c0,5.3,0,10.32,0,15.48c38.03,0.16,75.79,0.33,113.73,0.49c0.15-5.36,0.29-10.38,0.44-15.73c-1.16,0.44-1.93,0.7-2.68,1.01
		c-4.94,2.04-9.99,3.72-15.23,4.83c-16.87,3.57-33.16,2.45-48.61-5.85c-0.83-0.45-1.9-0.65-2.86-0.64
		c-14.1,0.1-28.2,0.25-42.31,0.39C68.92,705.3,68.11,705.29,67.23,705.29z M279.27,218.14c5.74-0.31,11.28-0.61,17.06-0.92
		c-2.34-28.33-4.65-56.31-6.95-84.19c-3.48,0-6.69,0-10.11,0C279.27,161.48,279.27,189.63,279.27,218.14z M211.48,216.86
		c5.83-0.34,11.38-0.66,17.08-0.99c-2.34-28.36-4.65-56.42-6.95-84.35c-3.51,0-6.71,0-10.14,0
		C211.48,160.08,211.48,188.32,211.48,216.86z M152,680.38c-0.12,0-0.24,0-0.37,0c0-1.08,0.02-2.17,0-3.25
		c-0.06-3.17-0.09-6.34-0.21-9.5c-0.15-3.67-0.94-4.5-4.64-4.75c-2.41-0.16-4.83-0.2-7.25-0.18c-4.83,0.04-9.67,0.09-14.5,0.28
		c-2.51,0.1-2.85,0.45-3.2,2.91c-0.36,2.55-0.6,5.13-0.76,7.7c-0.33,5.15-0.57,10.32-0.85,15.47c-0.17,3.08,1.33,5.29,3.78,6.88
		c1.38,0.9,2.9,1.68,4.46,2.2c5.5,1.86,11.11,2.15,16.74,0.65c1.66-0.44,3.3-1.14,4.82-1.94c1.51-0.8,2.07-2.17,2.02-3.97
		C151.92,688.72,152,684.55,152,680.38z M375.34,682.92c-0.17,0-0.35,0-0.52,0c0-4.09,0.03-8.17-0.02-12.26
		c-0.01-1.07-0.22-2.15-0.43-3.21c-0.26-1.29-1.15-1.99-2.42-2.2c-0.66-0.11-1.33-0.17-1.99-0.17c-6.92,0-13.83-0.04-20.75,0.04
		c-3.45,0.04-3.68,0.34-4.27,3.81c-0.07,0.41-0.12,0.83-0.15,1.24c-0.36,4.91-0.71,9.81-1.06,14.72c-0.11,1.58-0.19,3.16-0.31,4.74
		c-0.37,4.56,1.71,7.66,5.72,9.61c0.75,0.36,1.51,0.71,2.3,0.98c4.74,1.63,9.63,1.98,14.57,1.34c2.48-0.32,4.92-0.9,7.08-2.3
		c1.59-1.03,2.39-2.32,2.31-4.35C375.24,690.92,375.34,686.92,375.34,682.92z M235.07,258.95c0.81,0,1.49-0.09,2.14,0.02
		c2.19,0.34,3.38-0.52,4.42-2.56c10.08-19.62,17.41-40.21,22.02-61.78c2.67-12.49,4.61-25.09,5.56-37.83
		c0.89-11.89,1.8-23.79,2.34-35.7c0.48-10.5,0.53-21.01,0.62-31.53c0.03-3.41-0.41-6.82-0.67-10.22c-0.03-0.44-0.31-0.87-0.48-1.3
		c-0.56,3.63-0.76,7.2-1.03,10.76c-1.26,16.63-2.52,33.27-3.81,49.9c-0.99,12.81-2.28,25.59-4.6,38.23
		c-2.65,14.45-5.96,28.73-11.08,42.53c-4.27,11.51-9.62,22.54-15.14,33.49C234.37,254.92,234.23,256.71,235.07,258.95z
		 M240.76,655.13c4.77,1.48,9.17,1.79,13.7,1.06c10.08-1.64,14.54-12.69,12.9-19.3c-2.12-8.54-7.77-13.56-16.1-15.71
		c-1.65-0.43-3.49-0.45-5.2-0.29c-6.17,0.6-10.87,3.85-14.8,8.46c-1.65,1.94-3.09,3.95-3.46,6.52c-0.27,1.89-0.59,3.8-0.61,5.71
		c-0.02,2.13,0.11,4.3,1.47,6.47c0.96-1.41,1.74-2.66,2.62-3.83c1.8-2.39,3.56-4.82,5.52-7.07c1.46-1.67,3.47-2.64,5.69-2.89
		c2.54-0.29,4.85,0.35,6.5,2.42c1.64,2.07,1.46,4.39,0.4,6.61c-0.67,1.42-1.6,2.73-2.54,3.99
		C244.95,649.83,242.97,652.29,240.76,655.13z M954.58,607.94c-4.26-0.51-28.69-0.17-30.71,0.44c0.15,7.63,0.31,15.33,0.47,23.27
		c10.39-0.11,20.5-0.03,30.84-0.42C954.97,623.29,954.78,615.66,954.58,607.94z M979.43,515.27c0.39-0.34,0.61-0.48,0.74-0.67
		c0.74-1.01,1.47-2.03,2.17-3.06c5.7-8.38,8.49-17.8,10.34-27.65c1.35-7.21,0.46-13.84-2.8-20.37c-4.02-8.04-8.92-15.44-15.09-21.97
		c-5.55-5.88-11.16-11.72-16.75-17.56c-0.55-0.58-1.18-1.07-1.96-1.77c-0.3,2.18-0.41,4.09-0.87,5.92
		c-0.36,1.45,0.12,2.31,1.11,3.26c3.87,3.67,7.73,7.37,11.5,11.15c5.5,5.51,10.51,11.41,14.19,18.32c2.15,4.03,3.39,8.3,3.64,12.88
		c0.48,8.67-1.58,16.76-5.82,24.22c-1.6,2.81-2.05,5.29-1.3,8.4C979.23,509.14,979.15,512.1,979.43,515.27z M954.58,442.33
		c0.89,0,1.71-0.03,2.53,0c4.03,0.14,6.6,2.11,7.42,6.1c0.45,2.18,0.46,4.46,0.47,6.7c0.05,9.17,0.03,18.34,0.01,27.52
		c0,0.79,0.05,1.43,0.84,1.91c4.33,2.62,6.79,6.77,9.04,11.09c0.36,0.69,0.84,1.32,1.46,2.29c0.86-1.76,1.66-3.13,2.23-4.59
		c0.99-2.56,2.05-5.12,2.72-7.77c2.24-8.73,1.9-17.26-3.16-25.03c-2.49-3.83-5.19-7.59-8.26-10.96c-4.65-5.11-9.71-9.86-14.6-14.75
		c-0.21-0.21-0.52-0.33-0.99-0.61C953.71,437.04,953.79,439.6,954.58,442.33z M950.89,634.83c-7.92,0-15.38,0-22.95,0
		c0,3.1,0.01,5.92,0,8.74c-0.02,2.72,0.66,5.09,3.05,6.74c0.96,0.67,1.39,1.67,1.11,2.84c-0.32,1.33-1.41,1.79-2.61,1.97
		c-0.82,0.12-1.66,0.12-2.49,0.15c-1.1,0.04-1.4,0.74-1.38,1.68c0.02,0.95,0.43,1.6,1.47,1.65c0.5,0.02,1,0.02,1.5,0.01
		c7.58-0.19,15.16-0.39,22.74-0.6c0.55-0.02,1.09-0.14,1.61-0.22c-0.1-2.48-0.13-2.52-2.12-2.45c-0.5,0.02-1,0.1-1.49,0.04
		c-1.11-0.12-2.16-0.43-2.61-1.62c-0.49-1.3,0.16-2.25,1.05-3.09c0.36-0.34,0.9-0.55,1.15-0.95c0.72-1.18,1.81-2.4,1.9-3.66
		C951.05,642.37,950.89,638.63,950.89,634.83z M146.09,702.23c12.62,0.46,23.92-2.48,34.77-7.69c0-2.54,0.03-4.87-0.01-7.2
		c-0.04-2.29,0.19-4.61-0.19-7.05c-8.7,0.17-17.16,0.09-25.73,0.38c0,0.93-0.01,1.51,0,2.08c0.09,3.25,0.14,6.51,0.31,9.75
		c0.19,3.57-1.28,6.14-4.43,7.73C149.49,700.89,148.08,701.39,146.09,702.23z M930.1,401.23c0.08-0.12,0.15-0.23,0.23-0.35
		c-0.58-0.44-1.15-0.91-1.75-1.32c-6.13-4.17-12.82-7.09-19.99-8.95c-5.27-1.37-10.59-2.37-16.07-1.89
		c-4.3,0.38-8.15,1.81-11.02,5.2c-2.43,2.86-3.34,6.12-2.15,9.79c1.33,4.12,4.27,7,7.14,9.68c3.82-3.88,7.42-7.53,11.14-11.3
		c-0.58-0.47-1.25-0.94-1.83-1.5c-0.95-0.93-1.9-1.86-2.73-2.89c-1.89-2.35-0.2-5.09,1.7-6.07c0.84-0.43,1.65-0.42,2.26,0.35
		c0.61,0.77,0.41,1.49-0.26,2.21c-1.28,1.38-1.3,1.82,0,3.01c1.23,1.12,2.59,2.08,3.81,3.05c1.92-0.7,3.68-1.51,5.52-1.98
		c4.38-1.12,8.79-0.75,13.14,0.22C922.87,399.31,926.47,400.31,930.1,401.23z M965.6,537.48c-1.02,0.51-1.76,0.89-2.5,1.24
		c-7.3,3.46-15,4.48-22.9,3.08c-5.11-0.91-9.83-3.15-14.36-5.66c-5.32-2.96-10.56-6.04-15.85-9.06c-1.06-0.61-2.09-1.42-3.43-0.8
		c-0.48,3.82,0.7,8.8,2.82,12.2c1.67,2.66,4,4.54,7.01,5.31c2.24,0.58,4.59,0.98,6.9,1c10.26,0.08,20.52,0,30.77-0.05
		c1.58-0.01,3.17-0.12,4.74-0.27c2.12-0.21,4.11-0.81,5.59-2.45C965.5,540.81,966.27,539.48,965.6,537.48z M273.98,50.43
		c-1.12,1.18-1.43,2.49-1.39,3.83c0.11,3.41,0.21,6.82,0.54,10.21c0.82,8.46,1.75,16.92,2.66,25.37c1.12,10.53,2.26,21.05,3.4,31.58
		c0.3,2.78,0.65,5.56,0.97,8.24c1.38,0,2.43,0,3.6,0c0.03-0.55,0.09-0.95,0.06-1.34c-0.8-8.55-1.6-17.1-2.42-25.65
		c-1.28-13.44-2.57-26.89-3.83-40.33c-0.22-2.32-0.24-4.67-0.45-6.99C276.91,53.21,276.23,51.32,273.98,50.43z M70.45,701.63
		c0.06,0.2,0.12,0.41,0.19,0.61c12.5-0.16,25.01-0.32,37.51-0.48c-6.58-5.02-11.91-10.92-16.64-17.65
		C84.41,690.02,77.43,695.82,70.45,701.63z M231.75,258.93c-0.97-5.26-1.89-10.24-2.81-15.2c-5.36,0-10.58,0-15.92,0
		c-1.77,5.11-3.48,10.04-5.27,15.2C215.8,258.93,223.52,258.93,231.75,258.93z M295.28,241.66c-0.26-7.19-0.51-14.13-0.77-21.2
		c-4.81,0.27-9.28,0.52-13.96,0.78c0,7.01,0.26,13.77,0.72,20.41C286.04,241.66,290.51,241.66,295.28,241.66z M226.77,219.14
		c-4.99,0.46-9.56,0.2-14.12,1.03c0.26,6.86,0.51,13.49,0.76,20.14c4.81,0,9.34,0,14.12,0C227.28,233.2,227.03,226.33,226.77,219.14
		z M298.89,258.47c-0.77-4.72-1.49-9.11-2.19-13.46c-5.46,0-10.6,0-15.89,0c-1.47,4.51-2.9,8.9-4.39,13.46
		C283.97,258.47,291.19,258.47,298.89,258.47z M424.92,688.69c-0.57,0.36-0.81,0.44-0.95,0.61c-4.9,5.92-9.81,11.82-14.63,17.79
		c-0.56,0.7-0.79,1.82-0.83,2.75c-0.13,3.59-0.12,7.18-0.15,10.76c0,0.45,0.11,0.9,0.18,1.37c0.28-0.08,0.38-0.08,0.43-0.12
		c5.09-5.4,10.2-10.8,15.25-16.24c0.4-0.44,0.67-1.18,0.68-1.78C424.95,698.93,424.92,694.02,424.92,688.69z M184.45,718.1
		c7.21-7.07,15.11-16.08,15.63-17.69c-5.6-0.78-10.9-0.05-15.63,3.88C184.45,708.59,184.45,713.13,184.45,718.1z M106.02,680.88
		c1.56,3.51,8.26,10.12,11.06,11.06c0-3.69,0-7.39,0-11.06C113.35,680.88,109.73,680.88,106.02,680.88z M252.73,522.89
		c-0.03,0.14-0.05,0.28-0.08,0.41c7.82,0,15.65,0,23.47,0c0-0.14,0-0.28,0-0.41C268.33,522.89,260.53,522.89,252.73,522.89z"/>
	<path class="st0" d="M916.51,442.26c-0.97,0.14-1.93,0.25-2.9,0.42c-2.75,0.46-4.16,1.76-4.63,4.5c-0.23,1.3-0.21,2.66-0.22,3.99
		c-0.03,3.41-0.01,6.83-0.01,10.4c-2.62,0.28-4.92,0.44-7.19,0.78c-9.23,1.38-16.72,5.5-21.53,13.8c-1.52,2.63-2.53,5.43-2.96,8.44
		c-1.43,9.93,0.64,18.69,8.21,25.81c4.47,4.21,9.59,7.48,14.7,10.79c0.68,0.44,1.35,0.88,1.97,1.77c-0.95,0-1.9,0-2.85,0
		c-76.23-0.01-152.45-0.03-228.68-0.03c-32.89,0-65.79,0.02-98.68,0.03c-20.37,0.01-40.74,0.02-61.11,0.04
		c-16.53,0.01-33.06,0.03-49.59,0.05c-14.28,0.02-28.55,0.05-42.83,0.08c-24.79,0.06-49.59,0.12-74.38,0.18
		c-9.68,0.02-19.37,0.05-29.05,0.06c-2.3,0-4.47-0.16-6.76-1.08c-4.08-1.64-8.43-2.61-12.68-3.83c-14.82-4.22-30.01-5.25-45.33-5.54
		c-12-0.23-23.57,1.9-35,5.2c-5.13,1.48-10.21,3.09-15.33,4.61c-0.95,0.28-1.95,0.54-2.92,0.56c-5.26,0.07-10.52,0.07-15.78,0.08
		c-0.41,0-0.81-0.05-1.57-0.11c-0.09-29.64,0.43-59.2,0.55-88.92c0.81-0.1,1.44-0.21,2.07-0.24c0.83-0.04,1.67-0.01,2.5-0.01
		c75.56,0,151.12,0,226.67,0c14.85,0,29.71,0.01,44.56,0c72.55-0.03,145.1-0.07,217.65-0.11c25.55-0.01,51.09-0.05,76.64-0.08
		c36.9-0.03,73.8-0.06,110.71-0.1c9.68-0.01,19.37,0,29.05-0.05c1.95-0.01,3.73,0.37,5.59,1c5.75,1.97,11.59,3.7,17.39,5.56
		c1.31,0.42,2.56,0.99,3.84,1.49C916.59,441.96,916.55,442.11,916.51,442.26z M676.2,497.01c8.73,0.12,15.6-5.1,17.49-13.47
		c0.47-2.09,0.64-4.3,0.56-6.45c-0.13-3.44-0.81-6.78-3.16-9.55c-5.54-6.56-15.24-8.64-22.99-4.88
		c-7.36,3.56-11.35,12.14-9.49,20.42C660.45,491.26,667.55,496.89,676.2,497.01z M232.33,460.26c-1.48,0.2-3,0.28-4.44,0.64
		c-6.62,1.66-11.34,5.56-13.41,12.16c-1.96,6.24-0.54,11.89,3.81,16.71c7.36,8.15,20.98,8.04,28.26-0.17
		c3.5-3.95,5.09-8.6,4.26-13.85C249.39,466.68,241.67,460.32,232.33,460.26z M391.91,479.34c0.19-7.76-3.55-13.24-11.32-15.97
		c-12.84-4.51-25.41,4.54-24.42,18.63c0.5,7.18,5.07,13.06,12.01,15.43c7.11,2.43,14.5,0.63,19.23-4.72
		C390.66,489.02,391.93,484.61,391.91,479.34z"/>
	<path class="st0" d="M414.79,430.88c-79.3,0-158.42,0-237.85,0c-0.56,31.93-0.44,63.66-0.78,95.54c3.72,0,7.12,0,10.53,0
		c0.03,0.12,0.06,0.23,0.09,0.35c-0.56,0.25-1.11,0.53-1.69,0.73c-13.23,4.64-26.26,9.75-38.97,15.67
		c-9.99,4.65-18.96,10.83-27.21,18.09c-5.96,5.25-11.5,10.91-16.63,16.96c-0.26,0.31-0.44,0.7-0.77,1.23
		c-0.94-0.93-1.61-1.53-2.21-2.18c-15.54-16.86-27.12-36.02-34.34-57.86c-4.25-12.86-6.5-26.02-7.31-39.46
		c-1.26-20.84,0.04-41.54,4.08-62.02c5.91-29.95,18.82-56.38,40.73-77.97c12.7-12.51,27.25-22.52,43.51-29.91
		c18.2-8.28,37.25-13.56,57.09-16.08c17.53-2.23,35.11-2.62,52.73-1.43c16.7,1.12,33.13,3.79,49.19,8.59
		c17.45,5.21,32.85,14.14,47.14,25.25c16.75,13.03,30.96,28.37,42.73,46.01c9.59,14.36,15.7,30.09,19.04,46.96
		C414.63,423.04,415.37,426.71,414.79,430.88z"/>
	<path class="st0" d="M416.21,526.38c-0.48,2.99-0.82,5.69-1.36,8.35c-2.77,13.81-7.79,26.75-15.7,38.43
		c-9.78,14.44-22.31,26.07-37.32,34.97c-13.9,8.24-28.83,13.82-44.67,16.98c-0.33,0.07-0.66,0.09-0.99,0.17
		c-1.75,0.43-2.02,0.7-2.03,2.57c-0.02,3.84-0.03,7.68,0.06,11.51c0.4,18.1,0.84,36.2,1.26,54.3c0.01,0.42,0,0.83,0,1.24
		c-2.05,0.62-113.22,2.34-117.97,1.78c3.19-2.4,6.18-4.55,9.05-6.85c2.93-2.35,5.79-4.79,8.57-7.31c2.84-2.58,5.57-5.29,8.27-8.01
		c2.65-2.66,5.27-5.35,7.8-8.12c2.52-2.76,4.91-5.64,7.42-8.54c4.31,1.52,8.67,1.92,13.13,1.87c15.36-0.18,22.52-16.89,17.51-27.6
		c-4.24-9.06-13.28-15.06-23.1-14.5c-1.64,0.09-3.3,0.48-4.89,0.96c-5.39,1.61-9.81,4.87-13.01,9.31
		c-5.32,7.39-5.63,15.41-1.59,23.99c-11.3,16.16-24.11,31.13-42.55,41.15c-0.04-1.32-0.1-2.17-0.1-3.03
		c-0.02-20.19-0.02-40.39-0.05-60.58c0-3.16,0.68-3.46-3.42-4.55c-6.6-1.76-13.22-3.52-19.67-5.75
		c-12.48-4.32-23.68-11.11-34.28-18.88c-5.38-3.94-10.58-8.12-16-12.3c0.61-0.84,1-1.45,1.46-2.01
		c6.87-8.39,14.98-15.46,23.75-21.75c16.51-11.84,34.43-20.98,53.67-27.53c10.58-3.6,21.28-6.81,32.17-9.32
		c2.08-0.48,4.28-0.65,6.42-0.66c17.2-0.1,34.39-0.14,51.59-0.16c31.81-0.04,63.61-0.05,95.42-0.08
		c12.69-0.01,25.38-0.03,38.07-0.04C414.02,526.38,414.92,526.38,416.21,526.38z"/>
	<path class="st1" d="M108.59,329.38c0-22.05,0-44.1,0-66.48c1.13,0,2.27,0.01,3.42,0c22.54-0.15,45.08-0.3,67.62-0.44
		c29.38-0.19,58.77-0.37,88.15-0.56c21.62-0.14,43.24-0.28,64.86-0.44c19.45-0.14,38.9-0.3,58.35-0.45c1.24-0.01,2.47,0,4.06,0
		c0.17,24.95,0.34,49.67,0.51,74.57c-1.06,0.05-1.87,0.12-2.68,0.12c-7.51,0.01-15.03-0.04-22.54,0.04
		c-1.71,0.02-2.95-0.49-4.21-1.65c-12.48-11.47-26.13-21.26-41.44-28.64c-12.49-6.02-25.69-9.76-39.25-12.37
		c-17.53-3.37-35.25-4.5-53.06-4.3c-22.73,0.26-45.08,3.18-66.78,10.26c-19.03,6.21-36.77,14.88-52.53,27.36
		c-1.3,1.03-2.59,2.08-3.89,3.12C108.97,329.47,108.78,329.43,108.59,329.38z"/>
	<path class="st2" d="M946.7,539.08c-5.01,0.16-10.2-1.31-15.1-3.77c-6.58-3.31-10.61-8.74-12.34-15.85
		c-2.95-12.15-0.4-22.74,8.89-31.5c3.39-3.21,7.54-4.48,11.87-5.46c9.71-2.2,18.29,0.44,26.1,6.23c0.6,0.44,1.17,0.97,1.61,1.57
		c5.14,6.94,8.45,14.71,8.22,23.37c-0.24,8.89-4.13,16.23-12,20.98C958.83,537.72,953.22,539.1,946.7,539.08z"/>
	<path class="st3" d="M299.44,523.42c-0.95-0.05-1.97,0.09-2.85-0.18c-6.67-2.06-13.56-2.71-20.45-3.28
		c-15.5-1.29-30.8,0.44-46.13,2.66c-13.47,1.95-26.29,6.1-39.16,10.15c-15.02,4.73-29.11,11.55-42.7,19.47
		c-12.56,7.31-23.91,16.09-34.12,26.45c-12.57,12.75-19.71,28.12-22.83,45.57c-1.28,7.18-1.97,14.37-1.48,21.66
		c0.85,12.66,4.39,24.5,11.69,34.93c11.13,15.89,26.51,24.17,46.01,24.59c10.95,0.23,21.34-2.18,31.38-6.42
		c13.47-5.69,24.67-14.45,34.49-25.13c5.54-6.03,10.59-12.47,15.19-19.25c2.24-3.31,4.2-6.81,6.44-10.12
		c1.25-1.85,2.65-3.67,4.29-5.17c1.04-0.95,2.57-1.63,3.97-1.87c2.86-0.47,4.47,1.71,3.33,4.36c-0.52,1.21-1.28,2.35-2.1,3.38
		c-4.22,5.28-8.31,10.68-12.79,15.73c-10.32,11.62-21.14,22.75-34.06,31.58c-10.91,7.46-22.61,13.21-35.63,15.92
		c-14.7,3.06-29.1,2.17-42.78-4.39c-14.89-7.14-25.15-18.76-31.39-33.92c-7.49-18.19-7.58-36.7-1.77-55.35
		c3.76-12.08,9.64-23.1,17.56-32.94c10.61-13.17,22.83-24.65,37.87-32.62c7.86-4.17,16.11-7.68,24.36-11.03
		c18.71-7.6,37.89-13.88,57.45-18.92c9.83-2.54,19.83-3.22,30-3.08c15.03,0.21,29.78,1.93,44.22,6.17c0.69,0.2,1.38,0.45,2.07,0.67
		C299.48,523.18,299.46,523.3,299.44,523.42z"/>
	<path class="st4" d="M951.12,442.23c-10.11,0-19.86,0-29.8,0c-1.24-2.41-3.55-3.66-6.13-4.47c-4.29-1.35-8.64-2.55-12.9-3.98
		c-3.15-1.06-6.31-2.2-9.3-3.63c-5.04-2.41-6.79-6.99-4.59-12.1c0.91-2.11,2.31-4.05,3.76-5.86c1.34-1.68,3.06-3.06,4.57-4.62
		c5.77-5.99,12.72-7.96,20.79-6.2c8.66,1.88,17.08,4.56,25.2,8.09c1.82,0.79,3.56,1.84,5.21,2.96c3.02,2.06,4.66,4.98,4.66,8.67
		c0,2.08-0.08,4.18-0.41,6.23C951.39,432.17,950.31,436.99,951.12,442.23z"/>
	<path class="st0" d="M961.86,482.02c-0.87-0.29-1.5-0.44-2.09-0.7c-9.11-4.01-18.24-3.27-27.29,0.08
		c-1.98,0.73-3.74,2.14-5.48,3.42c-0.91,0.67-1.73,1.15-2.91,1.11c-2.33-0.08-4.67,0.01-7.01-0.04c-3.63-0.08-5.14-1.58-5.17-5.27
		c-0.05-8.01-0.03-16.02-0.03-24.03c0-2.42-0.07-4.84,0.02-7.26c0.12-2.95,0.68-3.56,3.57-3.6c10.26-0.14,20.53-0.2,30.8-0.28
		c3.09-0.02,6.18-0.08,9.26-0.01c1.23,0.03,2.52,0.19,3.66,0.61c1.32,0.49,2.03,1.71,2.29,3.09c0.21,1.14,0.4,2.31,0.4,3.47
		c0.05,9.26,0.05,18.52,0.06,27.78C961.95,480.81,961.9,481.22,961.86,482.02z"/>
	<path class="st5" d="M139.27,259.44c-3,0-5.73,0-8.78,0c0-1.48,0-2.95,0-4.41c-0.02-12.68-0.18-25.37-0.03-38.05
		c0.16-13.51,0.31-27.04,1.01-40.53c0.92-17.67,2.9-35.24,6.87-52.53c1.81-7.9,4.08-15.68,7.56-23.01
		c3.01-6.32,6.2-12.6,10.56-18.11c2.1-2.66,4.5-5.18,7.13-7.32c4.65-3.79,10.03-4.67,15.8-2.92c5.36,1.63,10.05,4.44,14.22,8.14
		c5.89,5.22,10.31,11.56,13.93,18.49c4.62,8.83,7.88,18.2,11.01,27.62c0.1,0.3,0.14,0.61,0.28,1.22c-1.9,0.11-3.6,0.21-5.47,0.31
		c-0.35-0.93-0.67-1.77-0.97-2.61c-3.96-11.37-8.71-22.36-15.16-32.59c-3.3-5.23-7.66-9.17-12.96-12.22
		c-4.93-2.84-9.91-2.91-14.73-0.05c-2.48,1.47-4.83,3.32-6.85,5.38c-6.61,6.75-10.65,15.03-13.89,23.8
		c-3.6,9.77-5.42,19.92-6.93,30.15c-3.93,26.51-4.42,53.18-3.69,79.9c0.34,12.43,0.71,24.85,1.07,37.28
		C139.28,257.97,139.27,258.55,139.27,259.44z"/>
	<path class="st0" d="M404.79,725.24c-37.9-0.16-75.68-0.33-113.72-0.49c0-5.13,0-10.09,0-15.4c37.93-0.13,75.92-0.27,113.86-0.4
		C405.53,711.1,405.44,722.45,404.79,725.24z"/>
	<path class="st2" d="M922.17,489.44c-9.24,12.53-9.13,25.57-2.81,39.32c-0.83-0.4-1.41-0.64-1.95-0.96
		c-8.42-4.92-17.01-9.61-24.77-15.57c-2.83-2.17-5.46-4.66-7.9-7.27c-2.94-3.14-4.24-7.1-4.68-11.37
		c-0.86-8.44,1.05-15.89,7.5-21.82c4.24-3.9,9.39-5.61,14.93-6.39c1.81-0.25,3.65-0.31,5.76-0.48c0.09,0.82,0.21,1.52,0.22,2.22
		c0.1,3.92,0.18,7.84,0.27,11.76c0.03,1.17,0.03,2.34,0.16,3.5c0.42,3.64,2.6,5.96,6.22,6.48c1.73,0.25,3.49,0.26,5.24,0.39
		C920.9,489.3,921.44,489.37,922.17,489.44z"/>
	<path class="st0" d="M294.16,705.73c2.67-2.22,5.3-4.49,8.03-6.63c0.51-0.4,1.42-0.37,2.15-0.38c3.42-0.05,6.85-0.05,10.27-0.08
		c0.75-0.01,1.5-0.05,2.25-0.12c1.29-0.12,1.93-0.8,1.88-2.15c-0.1-2.83-0.15-5.67-0.21-8.51c-0.02-0.81,0-1.63,0-2.74
		c7.28-0.19,14.41-0.37,21.76-0.56c0,1.63,0.06,3.02-0.01,4.4c-0.32,6.38,1.13,10.81,9.51,14.09c7.12,2.79,14.53,2.71,21.86,0.43
		c1.1-0.34,2.17-0.88,3.17-1.47c2.47-1.49,3.82-3.62,3.7-6.62c-0.12-2.92-0.12-5.84-0.17-8.76c-0.01-0.57,0-1.13,0-2.02
		c15.06-0.28,29.95,0.05,45.24-0.21c-0.51,0.79-0.75,1.27-1.08,1.68c-5.03,6.13-10.1,12.22-15.1,18.38
		c-0.84,1.04-1.76,1.35-3.01,1.34c-5.84-0.02-11.69,0.02-17.53,0.04c-30.22,0.12-60.44,0.25-90.66,0.37c-0.58,0-1.16,0-1.74,0
		C294.35,706.06,294.25,705.89,294.16,705.73z"/>
	<path class="st0" d="M926.04,548.03c8.44,0,16.44,0,24.78,0c0.52,18.67,1.05,37.3,1.58,56.29c-8.85,0.3-17.56,0.24-26.36,0.29
		C926.04,585.72,926.04,567.02,926.04,548.03z"/>
	<path class="st0" d="M67.23,705.29c0.87,0,1.69,0.01,2.5,0c14.1-0.14,28.2-0.29,42.31-0.39c0.96-0.01,2.03,0.19,2.86,0.64
		c15.45,8.3,31.74,9.42,48.61,5.85c5.24-1.11,10.29-2.78,15.23-4.83c0.75-0.31,1.52-0.57,2.68-1.01
		c-0.15,5.35-0.29,10.36-0.44,15.73c-37.95-0.16-75.71-0.33-113.73-0.49C67.23,715.61,67.23,710.59,67.23,705.29z"/>
	<path class="st6" d="M279.27,218.14c0-28.51,0-56.66,0-85.11c3.42,0,6.63,0,10.11,0c2.3,27.88,4.61,55.87,6.95,84.19
		C290.55,217.53,285.01,217.83,279.27,218.14z"/>
	<path class="st6" d="M211.48,216.86c0-28.53,0-56.77,0-85.33c3.42,0,6.62,0,10.14,0c2.3,27.92,4.61,55.98,6.95,84.35
		C222.86,216.2,217.31,216.52,211.48,216.86z"/>
	<path class="st7" d="M152,680.38c0,4.17-0.08,8.34,0.04,12.5c0.05,1.8-0.51,3.17-2.02,3.97c-1.53,0.81-3.16,1.5-4.82,1.94
		c-5.63,1.5-11.24,1.21-16.74-0.65c-1.56-0.53-3.07-1.31-4.46-2.2c-2.45-1.59-3.95-3.8-3.78-6.88c0.28-5.16,0.52-10.32,0.85-15.47
		c0.16-2.57,0.4-5.15,0.76-7.7c0.35-2.46,0.69-2.82,3.2-2.91c4.83-0.18,9.67-0.24,14.5-0.28c2.42-0.02,4.84,0.02,7.25,0.18
		c3.7,0.25,4.49,1.08,4.64,4.75c0.13,3.16,0.15,6.33,0.21,9.5c0.02,1.08,0,2.17,0,3.25C151.76,680.38,151.88,680.38,152,680.38z"/>
	<path class="st7" d="M375.34,682.92c0,4-0.11,8,0.04,12c0.08,2.02-0.72,3.32-2.31,4.35c-2.16,1.4-4.6,1.98-7.08,2.3
		c-4.94,0.63-9.82,0.29-14.57-1.34c-0.78-0.27-1.55-0.62-2.3-0.98c-4.01-1.94-6.09-5.05-5.72-9.61c0.13-1.58,0.2-3.16,0.31-4.74
		c0.35-4.91,0.7-9.81,1.06-14.72c0.03-0.42,0.08-0.83,0.15-1.24c0.59-3.47,0.82-3.77,4.27-3.81c6.92-0.08,13.83-0.04,20.75-0.04
		c0.66,0,1.34,0.06,1.99,0.17c1.27,0.21,2.16,0.91,2.42,2.2c0.21,1.06,0.42,2.13,0.43,3.21c0.05,4.08,0.02,8.17,0.02,12.26
		C375,682.92,375.17,682.92,375.34,682.92z"/>
	<path class="st5" d="M235.07,258.95c-0.84-2.24-0.7-4.03,0.28-5.99c5.52-10.94,10.87-21.98,15.14-33.49
		c5.12-13.8,8.44-28.09,11.08-42.53c2.32-12.65,3.61-25.42,4.6-38.23c1.28-16.63,2.55-33.26,3.81-49.9
		c0.27-3.57,0.47-7.14,1.03-10.76c0.17,0.43,0.45,0.86,0.48,1.3c0.27,3.41,0.7,6.82,0.67,10.22c-0.09,10.51-0.14,21.03-0.62,31.53
		c-0.54,11.91-1.45,23.81-2.34,35.7c-0.96,12.74-2.89,25.34-5.56,37.83c-4.61,21.57-11.93,42.15-22.02,61.78
		c-1.05,2.04-2.23,2.9-4.42,2.56C236.56,258.86,235.88,258.95,235.07,258.95z"/>
	<path class="st6" d="M240.76,655.13c2.22-2.84,4.19-5.3,6.08-7.83c0.94-1.26,1.87-2.58,2.54-3.99c1.06-2.22,1.24-4.55-0.4-6.61
		c-1.65-2.08-3.96-2.71-6.5-2.42c-2.22,0.25-4.23,1.22-5.69,2.89c-1.96,2.25-3.72,4.68-5.52,7.07c-0.88,1.17-1.66,2.42-2.62,3.83
		c-1.36-2.17-1.49-4.34-1.47-6.47c0.02-1.91,0.34-3.81,0.61-5.71c0.37-2.57,1.8-4.59,3.46-6.52c3.93-4.61,8.63-7.86,14.8-8.46
		c1.71-0.17,3.55-0.14,5.2,0.29c8.33,2.15,13.98,7.17,16.1,15.71c1.64,6.61-2.82,17.66-12.9,19.3
		C249.93,656.93,245.52,656.61,240.76,655.13z"/>
	<path class="st2" d="M954.58,607.94c0.2,7.73,0.39,15.36,0.6,23.29c-10.35,0.39-20.45,0.31-30.84,0.42
		c-0.16-7.94-0.31-15.64-0.47-23.27C925.89,607.77,950.33,607.43,954.58,607.94z"/>
	<path class="st3" d="M979.43,515.27c-0.28-3.16-0.21-6.12-0.88-8.9c-0.75-3.11-0.3-5.59,1.3-8.4c4.23-7.46,6.29-15.55,5.82-24.22
		c-0.25-4.59-1.49-8.85-3.64-12.88c-3.69-6.92-8.7-12.82-14.19-18.32c-3.77-3.78-7.63-7.48-11.5-11.15c-1-0.95-1.48-1.8-1.11-3.26
		c0.45-1.83,0.57-3.74,0.87-5.92c0.77,0.69,1.41,1.19,1.96,1.77c5.59,5.84,11.2,11.68,16.75,17.56
		c6.17,6.54,11.07,13.93,15.09,21.97c3.26,6.53,4.15,13.17,2.8,20.37c-1.85,9.86-4.64,19.28-10.34,27.65
		c-0.7,1.03-1.44,2.05-2.17,3.06C980.04,514.79,979.82,514.92,979.43,515.27z"/>
	<path class="st3" d="M950.89,634.83c0,3.8,0.16,7.54-0.09,11.25c-0.09,1.26-1.18,2.48-1.9,3.66c-0.24,0.4-0.78,0.61-1.15,0.95
		c-0.89,0.84-1.54,1.79-1.05,3.09c0.45,1.19,1.49,1.5,2.61,1.62c0.49,0.05,1-0.03,1.49-0.04c1.99-0.06,2.02-0.03,2.12,2.45
		c-0.53,0.07-1.07,0.2-1.61,0.22c-7.58,0.21-15.16,0.4-22.74,0.6c-0.5,0.01-1,0.02-1.5-0.01c-1.05-0.05-1.45-0.7-1.47-1.65
		c-0.02-0.94,0.28-1.64,1.38-1.68c0.83-0.03,1.67-0.03,2.49-0.15c1.2-0.18,2.29-0.64,2.61-1.97c0.28-1.17-0.14-2.17-1.11-2.84
		c-2.38-1.65-3.06-4.02-3.05-6.74c0.02-2.82,0-5.64,0-8.74C935.51,634.83,942.97,634.83,950.89,634.83z"/>
	<path class="st0" d="M146.09,702.23c2-0.84,3.41-1.34,4.73-2.01c3.15-1.59,4.62-4.16,4.43-7.73c-0.18-3.25-0.22-6.5-0.31-9.75
		c-0.02-0.57,0-1.15,0-2.08c8.57-0.29,17.03-0.21,25.73-0.38c0.38,2.45,0.15,4.76,0.19,7.05c0.04,2.33,0.01,4.66,0.01,7.2
		C170,699.74,158.71,702.69,146.09,702.23z"/>
	<path class="st3" d="M930.1,401.23c-3.62-0.92-7.22-1.93-10.87-2.74c-4.35-0.97-8.76-1.34-13.14-0.22
		c-1.84,0.47-3.59,1.28-5.52,1.98c-1.22-0.96-2.58-1.93-3.81-3.05c-1.31-1.19-1.29-1.63,0-3.01c0.68-0.73,0.87-1.44,0.26-2.21
		c-0.6-0.76-1.42-0.78-2.26-0.35c-1.9,0.98-3.59,3.72-1.7,6.07c0.83,1.03,1.78,1.96,2.73,2.89c0.58,0.56,1.25,1.03,1.83,1.5
		c-3.72,3.78-7.32,7.43-11.14,11.3c-2.87-2.69-5.8-5.57-7.14-9.68c-1.19-3.67-0.29-6.93,2.15-9.79c2.87-3.38,6.72-4.82,11.02-5.2
		c5.48-0.48,10.8,0.52,16.07,1.89c7.17,1.86,13.86,4.78,19.99,8.95c0.6,0.41,1.17,0.88,1.75,1.32
		C930.25,401,930.17,401.12,930.1,401.23z"/>
	<path class="st7" d="M965.6,537.48c0.66,1.99-0.1,3.33-1.19,4.53c-1.48,1.64-3.47,2.24-5.59,2.45c-1.58,0.16-3.16,0.27-4.74,0.27
		c-10.26,0.05-20.52,0.13-30.77,0.05c-2.31-0.02-4.66-0.43-6.9-1c-3.01-0.77-5.34-2.64-7.01-5.31c-2.13-3.4-3.3-8.38-2.82-12.2
		c1.34-0.62,2.37,0.2,3.43,0.8c5.28,3.02,10.53,6.1,15.85,9.06c4.53,2.52,9.25,4.76,14.36,5.66c7.9,1.4,15.59,0.38,22.9-3.08
		C963.85,538.37,964.58,537.99,965.6,537.48z"/>
	<path class="st5" d="M273.98,50.43c2.25,0.89,2.93,2.78,3.13,4.92c0.22,2.32,0.24,4.67,0.45,6.99c1.26,13.45,2.55,26.89,3.83,40.33
		c0.81,8.55,1.62,17.1,2.42,25.65c0.04,0.39-0.03,0.79-0.06,1.34c-1.17,0-2.22,0-3.6,0c-0.32-2.68-0.67-5.46-0.97-8.24
		c-1.14-10.53-2.28-21.05-3.4-31.58c-0.9-8.46-1.84-16.91-2.66-25.37c-0.33-3.39-0.43-6.81-0.54-10.21
		C272.55,52.92,272.86,51.61,273.98,50.43z"/>
	<path class="st0" d="M70.45,701.63c6.98-5.8,13.96-11.61,21.06-17.52c4.73,6.73,10.06,12.63,16.64,17.65
		c-12.5,0.16-25.01,0.32-37.51,0.48C70.58,702.04,70.52,701.83,70.45,701.63z"/>
	<path class="st5" d="M231.75,258.93c-8.23,0-15.95,0-24,0c1.79-5.16,3.5-10.1,5.27-15.2c5.34,0,10.55,0,15.92,0
		C229.86,248.69,230.77,253.66,231.75,258.93z"/>
	<path class="st1" d="M295.28,241.66c-4.77,0-9.24,0-14.01,0c-0.46-6.64-0.72-13.4-0.72-20.41c4.67-0.26,9.14-0.51,13.96-0.78
		C294.77,227.53,295.02,234.46,295.28,241.66z"/>
	<path class="st1" d="M226.77,219.14c0.26,7.19,0.51,14.07,0.77,21.17c-4.78,0-9.32,0-14.12,0c-0.25-6.65-0.5-13.29-0.76-20.14
		C217.21,219.34,221.77,219.59,226.77,219.14z"/>
	<path class="st5" d="M298.89,258.47c-7.7,0-14.92,0-22.47,0c1.49-4.56,2.92-8.95,4.39-13.46c5.28,0,10.42,0,15.89,0
		C297.4,249.35,298.12,253.75,298.89,258.47z"/>
	<path class="st0" d="M424.92,688.69c0,5.32,0.02,10.24-0.03,15.16c-0.01,0.6-0.27,1.34-0.68,1.78
		c-5.05,5.44-10.16,10.83-15.25,16.24c-0.05,0.05-0.14,0.04-0.43,0.12c-0.06-0.48-0.18-0.92-0.18-1.37
		c0.03-3.59,0.02-7.18,0.15-10.76c0.03-0.94,0.27-2.06,0.83-2.75c4.82-5.98,9.74-11.88,14.63-17.79
		C424.11,689.14,424.35,689.05,424.92,688.69z"/>
	<path class="st0" d="M184.45,718.1c0-4.96,0-9.51,0-13.81c4.73-3.93,10.02-4.66,15.63-3.88
		C199.56,702.02,191.66,711.02,184.45,718.1z"/>
	<path class="st0" d="M106.02,680.88c3.71,0,7.33,0,11.06,0c0,3.67,0,7.38,0,11.06C114.28,690.99,107.58,684.39,106.02,680.88z"/>
	<path class="st8" d="M252.73,522.89c7.8,0,15.6,0,23.4,0c0,0.14,0,0.28,0,0.41c-7.82,0-15.65,0-23.47,0
		C252.68,523.17,252.7,523.03,252.73,522.89z"/>
	<path d="M676.2,497.01c-8.64-0.12-15.75-5.75-17.59-13.94c-1.86-8.27,2.13-16.85,9.49-20.42c7.75-3.75,17.45-1.67,22.99,4.88
		c2.34,2.77,3.02,6.11,3.16,9.55c0.08,2.14-0.08,4.36-0.56,6.45C691.8,491.91,684.92,497.13,676.2,497.01z M691.21,478.46
		c-0.04-0.01-0.09-0.02-0.13-0.03c-0.05-1-0.04-2-0.17-2.99c-0.33-2.52-0.95-5.03-3.06-6.64c-1.97-1.49-4.06-3.05-6.35-3.86
		c-9.98-3.54-20.96,3.16-20.06,15.57c0.51,7.08,6.26,12.63,13.65,13.32c7.24,0.67,13.65-3.74,15.4-10.71
		C690.87,481.61,690.97,480.02,691.21,478.46z"/>
	<path d="M232.33,460.26c9.34,0.06,17.06,6.42,18.49,15.48c0.83,5.26-0.76,9.91-4.26,13.85c-7.29,8.22-20.9,8.32-28.26,0.17
		c-4.35-4.81-5.77-10.47-3.81-16.71c2.07-6.6,6.79-10.5,13.41-12.16C229.33,460.54,230.85,460.47,232.33,460.26z M216.73,478.22
		c0.21,1.23,0.31,2.49,0.66,3.67c3.08,10.43,16.5,14.28,25.12,7.22c7.25-5.94,7.08-16.59-0.36-22.32
		c-5.73-4.41-14.13-4.39-19.78,0.13C218.78,469.79,216.85,473.53,216.73,478.22z"/>
	<path d="M391.91,479.34c0.01,5.27-1.25,9.68-4.5,13.36c-4.73,5.35-12.11,7.15-19.23,4.72c-6.94-2.37-11.51-8.25-12.01-15.43
		c-0.99-14.08,11.58-23.14,24.42-18.63C388.36,466.1,392.1,471.58,391.91,479.34z M374.21,465.4c-9.14-0.03-15.69,7.27-14.9,16.6
		c0.53,6.2,5.07,11.36,11.28,12.84c6.53,1.55,12.59-0.77,15.82-6.23c2.91-4.91,2.98-10.13,1.16-15.43
		c-0.29-0.84-0.82-1.68-1.44-2.31C382.87,467.53,379.03,465.38,374.21,465.4z"/>
	<path class="st1" d="M691.21,478.46c-0.23,1.56-0.33,3.15-0.72,4.67c-1.75,6.96-8.15,11.38-15.4,10.71
		c-7.39-0.69-13.14-6.24-13.65-13.32c-0.9-12.41,10.08-19.1,20.06-15.57c2.29,0.81,4.38,2.36,6.35,3.86
		c2.11,1.6,2.73,4.11,3.06,6.64c0.13,0.99,0.12,1.99,0.17,2.99C691.12,478.44,691.16,478.45,691.21,478.46z M677.29,480.13
		c0.37,0.62,0.57,1.1,0.9,1.47c1.06,1.17,2.15,2.32,3.27,3.43c1.01,0.99,1.92,1.13,2.59,0.4c0.88-0.96,0.44-1.83-0.3-2.63
		c-0.5-0.55-1.01-1.1-1.53-1.65c-1.01-1.07-2.02-2.13-3.07-3.25c0.72-0.84,1.24-1.47,1.79-2.08c0.78-0.86,1.62-1.67,2.38-2.55
		c0.57-0.66,0.61-1.53-0.08-1.99c-0.51-0.34-1.38-0.39-2.01-0.25c-0.49,0.11-0.88,0.72-1.28,1.13c-1.03,1.07-2.04,2.16-3.25,3.44
		c-0.79-0.86-1.44-1.6-2.12-2.32c-0.8-0.85-1.58-1.72-2.45-2.49c-0.65-0.58-1.5-0.54-1.98,0.15c-0.32,0.45-0.45,1.27-0.26,1.78
		c0.25,0.66,0.88,1.18,1.38,1.74c1.09,1.2,2.2,2.39,3.33,3.61c-0.76,0.89-1.34,1.6-1.95,2.27c-0.95,1.05-1.94,2.06-2.89,3.11
		c-0.33,0.36-0.81,0.81-0.8,1.2c0.01,0.58,0.27,1.29,0.67,1.69c0.64,0.62,1.42,0.32,1.99-0.27
		C673.36,484.28,675.06,482.47,677.29,480.13z"/>
	<path class="st1" d="M216.73,478.22c0.12-4.69,2.05-8.43,5.64-11.3c5.65-4.52,14.05-4.54,19.78-0.13
		c7.44,5.73,7.62,16.38,0.36,22.32c-8.62,7.06-22.05,3.21-25.12-7.22C217.04,480.71,216.94,479.45,216.73,478.22z"/>
	<path class="st1" d="M374.21,465.4c4.82-0.02,8.66,2.13,11.92,5.46c0.62,0.64,1.15,1.47,1.44,2.31c1.82,5.29,1.75,10.51-1.16,15.43
		c-3.23,5.46-9.29,7.78-15.82,6.23c-6.21-1.47-10.75-6.64-11.28-12.84C358.52,472.68,365.07,465.38,374.21,465.4z M372.5,479.42
		c-0.67,0.8-1.17,1.45-1.73,2.05c-1.18,1.29-2.39,2.55-3.56,3.85c-0.64,0.71-0.71,1.53-0.01,2.23c0.7,0.7,1.51,0.62,2.24,0.01
		c0.44-0.37,0.84-0.81,1.24-1.23c1.35-1.45,2.7-2.9,4.17-4.49c0.8,0.79,1.5,1.47,2.18,2.17c0.93,0.95,1.82,1.94,2.78,2.87
		c0.62,0.6,1.35,0.61,2.03,0.04c0.69-0.57,0.72-1.32,0.3-2.02c-0.34-0.56-0.83-1.04-1.28-1.53c-1.24-1.33-2.49-2.64-3.82-4.05
		c0.64-0.76,1.14-1.4,1.69-2c0.73-0.8,1.49-1.57,2.23-2.36c0.74-0.77,0.93-1.64,0.1-2.41c-0.81-0.76-1.68-0.53-2.43,0.21
		c-0.47,0.47-0.93,0.95-1.39,1.43c-0.84,0.89-1.67,1.78-2.44,2.6c-1.5-1.45-2.83-2.7-4.12-4c-0.76-0.77-1.54-1.36-2.59-0.57
		c-0.86,0.65-0.75,1.58,0.28,2.81c0.32,0.38,0.67,0.74,1.02,1.1C370.36,477.17,371.33,478.19,372.5,479.42z"/>
	<path d="M677.29,480.13c-2.22,2.34-3.93,4.16-5.66,5.95c-0.57,0.59-1.35,0.9-1.99,0.27c-0.41-0.39-0.66-1.11-0.67-1.69
		c-0.01-0.4,0.47-0.84,0.8-1.2c0.95-1.05,1.94-2.06,2.89-3.11c0.61-0.67,1.19-1.38,1.95-2.27c-1.13-1.22-2.24-2.4-3.33-3.61
		c-0.5-0.55-1.13-1.08-1.38-1.74c-0.19-0.5-0.05-1.32,0.26-1.78c0.48-0.69,1.33-0.73,1.98-0.15c0.87,0.77,1.65,1.64,2.45,2.49
		c0.68,0.72,1.33,1.45,2.12,2.32c1.21-1.29,2.22-2.38,3.25-3.44c0.4-0.42,0.79-1.02,1.28-1.13c0.63-0.15,1.5-0.1,2.01,0.25
		c0.68,0.46,0.64,1.33,0.08,1.99c-0.76,0.88-1.6,1.69-2.38,2.55c-0.55,0.61-1.08,1.25-1.79,2.08c1.06,1.11,2.07,2.18,3.07,3.25
		c0.51,0.54,1.02,1.09,1.53,1.65c0.73,0.8,1.17,1.67,0.3,2.63c-0.66,0.73-1.58,0.59-2.59-0.4c-1.12-1.11-2.21-2.26-3.27-3.43
		C677.85,481.23,677.66,480.75,677.29,480.13z"/>
	<path d="M372.5,479.42c-1.17-1.23-2.14-2.25-3.12-3.27c-0.34-0.36-0.7-0.72-1.02-1.1c-1.03-1.23-1.14-2.16-0.28-2.81
		c1.05-0.79,1.82-0.2,2.59,0.57c1.29,1.3,2.62,2.55,4.12,4c0.77-0.82,1.6-1.72,2.44-2.6c0.46-0.48,0.92-0.97,1.39-1.43
		c0.75-0.74,1.62-0.96,2.43-0.21c0.83,0.77,0.64,1.63-0.1,2.41c-0.75,0.78-1.51,1.56-2.23,2.36c-0.55,0.6-1.05,1.24-1.69,2
		c1.33,1.41,2.59,2.72,3.82,4.05c0.45,0.49,0.94,0.96,1.28,1.53c0.42,0.7,0.39,1.44-0.3,2.02c-0.68,0.56-1.41,0.55-2.03-0.04
		c-0.96-0.92-1.85-1.91-2.78-2.87c-0.68-0.7-1.39-1.38-2.18-2.17c-1.47,1.59-2.82,3.04-4.17,4.49c-0.4,0.43-0.79,0.86-1.24,1.23
		c-0.73,0.61-1.54,0.68-2.24-0.01c-0.7-0.7-0.63-1.51,0.01-2.23c1.17-1.3,2.39-2.55,3.56-3.85
		C371.33,480.87,371.84,480.22,372.5,479.42z"/>
	<g>
		<g>
			<path class="st9" d="M209.7,547.55h11.21v2.14h-8.59v6.1h7.92v2.14h-7.92v8.49h-2.62V547.55z"/>
			<path class="st9" d="M235.47,557.65h-8.17v6.63h9.1v2.14h-11.73v-18.87h11.27v2.14h-8.64v5.82h8.17V557.65z"/>
			<path class="st9" d="M239.52,563.24c1.24,0.77,2.99,1.37,4.92,1.37c2.64,0,4.18-1.28,4.18-3.17c0-1.73-1.02-2.74-3.91-3.63
				c-3.6-1.11-5.48-2.68-5.48-5.4c0-2.98,2.6-5.19,6.53-5.19c2.18,0,3.74,0.47,4.7,0.99l-0.75,2.11c-0.65-0.36-2.07-0.98-4.02-0.98
				c-2.81,0-3.82,1.55-3.82,2.82c0,1.69,1.2,2.58,4.07,3.5c3.52,1.14,5.33,2.62,5.33,5.6c0,2.78-2.09,5.5-7.08,5.5
				c-2.02,0-4.22-0.6-5.39-1.36L239.52,563.24z"/>
			<path class="st9" d="M258.94,549.71h-6.48v-2.16h15.62v2.16h-6.52v16.71h-2.62V549.71z"/>
			<path class="st9" d="M288.42,556.78c0,6.26-4.44,9.98-9.87,9.98c-5.64,0-9.58-4.06-9.58-9.55c0-5.88,4.18-10,9.82-10
				C284.6,547.22,288.42,551.31,288.42,556.78z M271.74,557.13c0,4.07,2.65,7.56,6.93,7.56c4.31,0,6.97-3.34,6.97-7.79
				c0-3.82-2.38-7.62-6.93-7.62C274.16,549.28,271.74,552.93,271.74,557.13z"/>
		</g>
	</g>
</g>
</svg>
